<?xml version="1.0" standalone="no"?>
<!DOCTYPE svg PUBLIC "-//W3C//DTD SVG 1.1//EN" "http://www.w3.org/Graphics/SVG/1.1/DTD/svg11.dtd" >
<svg xmlns="http://www.w3.org/2000/svg">
<metadata></metadata>
<defs>
<font id="bose_gothicbold" horiz-adv-x="1150" >
<font-face units-per-em="2048" ascent="1536" descent="-512" />
<missing-glyph horiz-adv-x="448" />
<glyph unicode="&#xdf;" horiz-adv-x="1292" d="M113 0v1075q0 202 126 302t365 100q151 0 270.5 -49.5t191 -148t71.5 -230.5q-96 -77 -144.5 -142t-48.5 -133q0 -26 8.5 -49.5t18.5 -39.5t32 -36t35.5 -30t42.5 -31q83 -60 125.5 -122.5t42.5 -154.5q0 -170 -108.5 -253t-304.5 -83q-89 0 -187.5 23t-154.5 61l61 205 q44 -24 111 -41.5t133 -17.5q70 0 119 31t49 86q0 15 -3.5 29.5t-8 25t-15 23.5t-17.5 20t-23.5 19.5t-24.5 18t-30 20t-30 20.5q-78 52 -117 111.5t-39 152.5q0 171 187 340q0 60 -70 97.5t-160 37.5q-99 0 -159 -46t-60 -132v-1059h-284z" />
<glyph unicode="&#xfb01;" horiz-adv-x="1327" d="M43 862v182h125v127q0 80 36 142t98 100.5t141.5 58t170.5 19.5q259 0 496 -78l-47 -194q-11 2 -82 14.5t-98.5 16.5t-90.5 9t-126 5q-110 0 -162.5 -35.5t-52.5 -110.5v-74h249v-182h-249v-862h-283v862h-125zM889 0v1044h287v-1044h-287z" />
<glyph unicode="&#xfb02;" horiz-adv-x="1327" d="M43 862v182h125v127q0 80 36 142t98 100.5t141 58t169 19.5q274 0 564 -98v-1393h-287v1249q-118 15 -223 15q-112 0 -163.5 -35.5t-51.5 -110.5v-74h249v-182h-249v-862h-283v862h-125z" />
<glyph horiz-adv-x="0" />
<glyph horiz-adv-x="682" />
<glyph unicode="&#xd;" horiz-adv-x="448" />
<glyph unicode=" "  horiz-adv-x="448" />
<glyph unicode="&#x09;" horiz-adv-x="448" />
<glyph unicode="&#xa0;" horiz-adv-x="448" />
<glyph unicode="!" horiz-adv-x="571" d="M150 1393h307l-27 -908h-256zM158 0v252h297v-252h-297z" />
<glyph unicode="&#x22;" horiz-adv-x="673" d="M111 1407h184l-14 -453h-158zM381 1407h182l-12 -453h-156z" />
<glyph unicode="#" horiz-adv-x="1320" d="M80 248l4 164h246l69 393h-245l6 164h274l47 272h205l-47 -272h205l51 272h199l-45 -272h192l-6 -164h-223l-70 -393h215l-4 -164h-248l-37 -248h-204l38 248h-206l-41 -248h-203l41 248h-213zM532 412h207l70 393h-207z" />
<glyph unicode="$" horiz-adv-x="1220" d="M100 197l140 182q74 -77 173.5 -117.5t204.5 -40.5t163.5 42.5t58.5 117.5q0 77 -56 118.5t-213 88.5q-221 64 -328.5 160t-107.5 253q0 80 26.5 147.5t72 115.5t108 81.5t133.5 49.5t148 16q22 0 32 -2l33 213l182 -29l-32 -209q146 -44 270 -145l-131 -192 q-85 65 -166.5 93.5t-179.5 28.5q-100 0 -156.5 -41t-56.5 -116q0 -73 58.5 -116t217.5 -91q216 -63 322 -162t106 -252q0 -189 -135.5 -298t-357.5 -109h-17l-39 -252l-172 26l37 248q-216 54 -338 191z" />
<glyph unicode="%" horiz-adv-x="1533" d="M94 1020v160q0 107 88.5 170t216.5 63q121 0 209 -65t88 -168v-160q0 -107 -86 -171.5t-211 -64.5q-135 0 -220 61.5t-85 174.5zM207 0l883 1393h233l-872 -1393h-244zM299 1044q0 -77 100 -77q39 0 70 22.5t31 54.5v115q0 33 -30 51.5t-71 18.5q-40 0 -70 -20.5 t-30 -53.5v-111zM858 199v194q0 107 81 166t210 59q121 0 205 -56.5t84 -160.5v-188q0 -109 -80.5 -169t-208.5 -60q-118 0 -204.5 59.5t-86.5 155.5zM1047 352l4 -112q0 -34 28.5 -56t69.5 -22q38 0 69 23t31 57v112q0 39 -28 60.5t-72 21.5q-40 0 -71 -24.5t-31 -59.5z " />
<glyph unicode="&#x26;" horiz-adv-x="1503" d="M84 352q0 69 40.5 136.5t105.5 126t173 135.5l19 14l-186 182v193q0 124 112.5 200t274.5 76q187 0 295 -82.5t108 -236.5q0 -102 -59 -182.5t-181 -172.5l234 -223l235 221l181 -161l-238 -230l236 -225l-183 -160l-227 219q-180 -202 -455 -202q-229 0 -357 92.5 t-128 279.5zM377 350q0 -63 46 -98t130 -35q76 0 141.5 31.5t147.5 107.5l-248 242l-19 -14q-111 -85 -154.5 -133t-43.5 -101zM485 1028l133 -127q72 53 109 97t37 92q0 106 -143 106q-60 0 -98 -24t-38 -64v-80z" />
<glyph unicode="'" horiz-adv-x="497" d="M139 1454h219l-28 -487h-162z" />
<glyph unicode="(" horiz-adv-x="759" d="M150 240v626q0 234 95.5 417t256.5 276l123 -109q-104 -67 -167 -218.5t-63 -365.5v-626q0 -222 62 -367.5t168 -210.5l-123 -113q-160 93 -256 275.5t-96 415.5z" />
<glyph unicode=")" horiz-adv-x="798" d="M123 -352q101 72 163 228t62 370v618q0 217 -55 365.5t-156 218.5l107 113q159 -93 254.5 -278t95.5 -419v-618q0 -233 -95.5 -416t-254.5 -276z" />
<glyph unicode="*" horiz-adv-x="813" d="M92 1169l39 123l207 -65v211h135v-213l207 67l39 -123l-203 -63l127 -172l-108 -80l-129 174l-127 -174l-109 78l127 174z" />
<glyph unicode="+" horiz-adv-x="1169" d="M61 696v193h414v381h217v-381h416v-193h-416v-430h-217v430h-414z" />
<glyph unicode="," horiz-adv-x="491" d="M47 -205q39 54 60.5 112.5t21.5 153.5v127h238v-55q0 -85 -16 -155t-46 -119.5t-54.5 -78.5t-57.5 -59z" />
<glyph unicode="-" horiz-adv-x="710" d="M90 485v226h528v-226h-528z" />
<glyph unicode="." horiz-adv-x="524" d="M121 0v252h280v-252h-280z" />
<glyph unicode="/" horiz-adv-x="858" d="M35 -174l545 1567h243l-549 -1567h-239z" />
<glyph unicode="0" horiz-adv-x="1288" d="M104 420v543q0 136 72 239.5t193.5 157t273.5 53.5t274 -53.5t194.5 -157t72.5 -239.5v-543q0 -137 -73 -238t-194.5 -151.5t-273.5 -50.5q-233 0 -386 118.5t-153 321.5zM391 430q0 -103 69 -157t183 -54q113 0 184.5 54t71.5 157v524q0 102 -72 159.5t-184 57.5 q-115 0 -183.5 -56.5t-68.5 -160.5v-524z" />
<glyph unicode="1" horiz-adv-x="716" d="M61 1151v242h465v-1393h-284v1151h-181z" />
<glyph unicode="2" d="M88 1200q228 199 539 199q124 0 221.5 -39.5t158 -124t60.5 -203.5q0 -64 -16 -117.5t-42.5 -96t-75 -85.5t-99.5 -78t-129 -82q-173 -91 -233 -158.5t-71 -176.5h678v-238h-977v129q0 206 104 355t345 280q130 68 180.5 120t50.5 126q0 73 -52.5 111t-147.5 38 q-182 0 -365 -149z" />
<glyph unicode="3" horiz-adv-x="1212" d="M66 293l241 92q28 -83 105 -123.5t174 -40.5q102 0 168.5 37t66.5 117v78q0 151 -223 151h-199v217h189q60 0 106.5 12t79.5 45t33 85v65q0 75 -61 111.5t-158 36.5q-82 0 -152 -38.5t-96 -111.5l-227 94q42 133 177 214t322 81q104 0 190 -21t151.5 -63t102 -112 t36.5 -162v-68q0 -97 -57.5 -170.5t-157.5 -105.5q104 -34 166.5 -105t62.5 -170v-88q0 -74 -27 -134.5t-74 -102.5t-111.5 -71t-137.5 -42.5t-154 -13.5q-203 0 -348.5 82t-187.5 225z" />
<glyph unicode="4" horiz-adv-x="1230" d="M49 274v211l602 908h334v-879h203v-240h-203v-274h-285v274h-651zM350 514h350v514h-24z" />
<glyph unicode="5" horiz-adv-x="1189" d="M117 328l264 67q9 -78 72.5 -127t162.5 -49q88 0 145.5 38.5t57.5 109.5v141q0 70 -55.5 107.5t-151.5 37.5h-434l72 740h778v-242h-534l-25 -274h188q199 0 323 -93.5t124 -271.5v-154q0 -116 -69 -204t-175.5 -131t-230.5 -43q-217 0 -349 90.5t-163 257.5z" />
<glyph unicode="6" horiz-adv-x="1208" d="M102 375v614q0 125 67.5 222t186 149.5t267.5 52.5q139 0 238.5 -27.5t191.5 -91.5l-109 -196q-139 78 -305 78q-113 0 -182.5 -51.5t-69.5 -135.5v-211q47 60 129.5 96.5t177.5 36.5q189 0 307.5 -91.5t118.5 -262.5v-195q0 -91 -43.5 -165t-116.5 -120.5t-164 -71.5 t-190 -25t-189 26t-160.5 75t-112.5 125t-42 169zM387 391q0 -85 64.5 -129.5t154.5 -44.5q59 0 109.5 17.5t85.5 58.5t35 98v144q0 83 -64 126.5t-164 43.5q-93 0 -157 -45.5t-64 -124.5v-144z" />
<glyph unicode="7" horiz-adv-x="1019" d="M20 1135v258h949v-150l-430 -1243h-316l420 1135h-623z" />
<glyph unicode="8" horiz-adv-x="1228" d="M94 350v80q0 108 72.5 182t177.5 109q-99 33 -161 112.5t-62 178.5v49q0 111 69.5 192.5t180 120.5t245.5 39q99 0 187.5 -22.5t158 -65.5t110 -111t40.5 -153v-60q0 -88 -69.5 -168t-153.5 -112q252 -93 252 -291v-80q0 -92 -43 -164.5t-116.5 -116.5t-166.5 -66.5 t-199 -22.5q-110 0 -203 23t-165 67t-113 116t-41 164zM379 373q0 -55 35.5 -91t86 -49.5t115.5 -13.5q95 0 165.5 36t70.5 112v94q0 70 -69.5 112.5t-151.5 42.5h-27q-57 -3 -106 -19t-84 -51.5t-35 -84.5v-88zM406 971q0 -65 59 -105t139 -45h25q86 5 142 41.5t56 108.5 v59q0 69 -63.5 106.5t-147.5 37.5q-85 0 -147.5 -38t-62.5 -106v-59z" />
<glyph unicode="9" horiz-adv-x="1212" d="M92 834v206q0 111 73 198t187 131t246 44t247.5 -43.5t190 -130.5t74.5 -199v-684q0 -118 -75 -205.5t-189 -129t-248 -41.5q-126 0 -246 33.5t-205 95.5l91 198q155 -88 360 -88q114 0 186 45.5t72 134.5v179q-51 -59 -132.5 -89t-166.5 -30q-205 0 -335 99.5 t-130 275.5zM377 842q0 -77 67 -118.5t160 -41.5q88 0 152.5 42.5t64.5 117.5v174q0 50 -33 86t-82.5 52.5t-107.5 16.5q-90 0 -155.5 -41.5t-65.5 -113.5v-174z" />
<glyph unicode=":" horiz-adv-x="579" d="M156 0v272h143h139v-272h-282zM156 795v270h282v-270h-282z" />
<glyph unicode=";" horiz-adv-x="636" d="M174 -205q39 54 60.5 112.5t21.5 153.5v127h238v-55q0 -85 -16.5 -155t-46 -119.5t-54 -78.5t-58.5 -59zM223 786v279h266v-279h-266z" />
<glyph unicode="&#x3c;" horiz-adv-x="1249" d="M127 514l911 565l80 -164l-629 -393l656 -364l-86 -162z" />
<glyph unicode="=" horiz-adv-x="1155" d="M94 342v197h371h594v-197h-965zM94 772v195h965v-195h-965z" />
<glyph unicode="&#x3e;" horiz-adv-x="1236" d="M123 903l104 166l912 -526l-906 -561l-104 165l619 385z" />
<glyph unicode="?" horiz-adv-x="989" d="M47 1274q86 60 197.5 99.5t220.5 39.5q210 0 325 -75t115 -230v-68q0 -56 -30.5 -109t-58 -78.5t-86.5 -71.5q-2 -2 -3.5 -3t-3.5 -3t-4 -3q-84 -62 -116 -108.5t-32 -124.5v-90h-274v122q0 86 39 150t117 119q77 54 118 94.5t41 81.5v53q0 102 -186 102 q-70 0 -148.5 -26.5t-136.5 -63.5zM279 0v252h329v-252h-329z" />
<glyph unicode="@" horiz-adv-x="1642" d="M94 541q0 145 25 286q21 127 81.5 237.5t151.5 194t216.5 131.5t269.5 48q201 0 362 -74t251.5 -206t90.5 -298q0 -512 -350 -512q-78 0 -143.5 26t-85.5 89q-48 -58 -126.5 -99.5t-160.5 -41.5q-125 0 -188.5 54.5t-63.5 139.5q0 53 18 154.5t54 197.5q39 118 153 193.5 t236 75.5q120 0 193 -52.5t73 -140.5q0 -19 -3 -43t-6 -41.5t-9 -49t-9 -46.5q-22 -101 -22 -176q0 -44 25 -74.5t65 -30.5q197 0 197 379q0 195 -154 319t-397 124q-229 0 -383 -138t-183 -348q-24 -163 -24 -274q0 -187 154 -305.5t432 -118.5q157 0 323 88l70 -121 q-179 -100 -393 -100q-176 0 -317 42t-233 116.5t-141 175t-49 219.5zM610 582q0 -57 28 -87t81 -30q78 0 139.5 53.5t73.5 132.5q2 9 12.5 57t14.5 69.5t9 57.5t5 62q0 50 -28.5 73t-86.5 23q-77 0 -141 -66.5t-78 -148.5q-7 -34 -14.5 -81.5t-11 -78.5t-3.5 -36z" />
<glyph unicode="A" horiz-adv-x="1329" d="M43 0l467 1405h317l457 -1405h-309l-92 319h-434l-95 -319h-311zM502 543h327l-161 542z" />
<glyph unicode="B" horiz-adv-x="1294" d="M147 0v1393h560q197 0 315.5 -99t118.5 -268v-47q0 -78 -56.5 -152.5t-144.5 -101.5q113 -39 177.5 -116t64.5 -185v-76q0 -168 -118 -258t-319 -90h-598zM434 221h266q197 0 197 158v72q0 72 -58.5 113.5t-140.5 41.5h-264v-385zM434 813h254q77 0 123.5 40.5 t46.5 111.5v47q0 85 -53 120t-152 35h-219v-354z" />
<glyph unicode="C" horiz-adv-x="1163" d="M121 438v514q0 139 73.5 245.5t194.5 161t270 54.5q150 0 256 -33.5t199 -105.5l-117 -199q-138 96 -317 96q-120 0 -196 -62.5t-76 -172.5v-483q0 -116 75 -175t203 -59q189 0 311 84l107 -197q-88 -68 -189.5 -97t-252.5 -29q-157 0 -277.5 50t-192 155t-71.5 253z" />
<glyph unicode="D" horiz-adv-x="1343" d="M150 0v1393h512q164 0 286 -51.5t194 -163t72 -273.5v-420q0 -122 -44.5 -216t-123.5 -152t-181.5 -87.5t-223.5 -29.5h-491zM430 240h211q129 0 210 65t81 201v377q0 131 -76 199.5t-194 68.5h-232v-911z" />
<glyph unicode="E" d="M147 0v1393h873v-242h-588v-328h469v-231h-469v-352h633v-240h-918z" />
<glyph unicode="F" horiz-adv-x="1075" d="M147 0v1393h871v-242h-586v-328h467v-233h-467v-590h-285z" />
<glyph unicode="G" horiz-adv-x="1345" d="M121 436v518q0 143 78.5 249t207.5 158t291 52q270 0 478 -135l-101 -207q-86 51 -168 75.5t-194 24.5q-132 0 -218.5 -62t-86.5 -175v-479q0 -115 80 -175.5t206 -60.5q137 0 242 47v295h-223v223h508v-643q-233 -161 -527 -161q-123 0 -226.5 29.5t-181 85.5 t-121.5 143.5t-44 197.5z" />
<glyph unicode="H" horiz-adv-x="1454" d="M147 0v1393h285v-592h586v592h285v-1393h-285v561h-586v-561h-285z" />
<glyph unicode="I" horiz-adv-x="634" d="M174 0v1393h283v-1393h-283z" />
<glyph unicode="J" horiz-adv-x="1146" d="M35 313l276 66q3 -61 60.5 -110.5t142.5 -49.5q87 0 142 43.5t55 126.5v1004h286v-1014q0 -190 -124.5 -292.5t-346.5 -102.5q-213 0 -341 85.5t-150 243.5z" />
<glyph unicode="K" horiz-adv-x="1335" d="M147 0v1393h285v-629l469 629h348l-542 -664l602 -729h-361l-426 547l-90 -105v-442h-285z" />
<glyph unicode="L" horiz-adv-x="1114" d="M147 0v1393h285v-1153h649v-240h-934z" />
<glyph unicode="M" horiz-adv-x="1736" d="M147 0v1393h310l409 -775l416 775h307v-1393h-286v973l-353 -678h-170l-348 678v-973h-285z" />
<glyph unicode="N" horiz-adv-x="1435" d="M147 0v1393h273l604 -965v965h262v-1393h-268l-608 961v-961h-263z" />
<glyph unicode="O" horiz-adv-x="1388" d="M123 436v522q0 209 155.5 332t397.5 123h35q157 0 282.5 -54t199 -158.5t73.5 -242.5v-522q0 -145 -71 -249t-195 -155.5t-289 -51.5h-33q-253 0 -404 118t-151 338zM410 455q0 -118 70.5 -177t197.5 -59h33q127 0 198.5 59.5t71.5 176.5v481q0 111 -75 173t-195 62h-35 q-120 0 -193 -61.5t-73 -171.5v-483z" />
<glyph unicode="P" horiz-adv-x="1277" d="M147 0v1393h574q214 0 341.5 -104t127.5 -292v-149q0 -119 -63 -204.5t-166.5 -126t-235.5 -40.5h-293v-477h-285zM432 702h273q90 0 145 44t55 133v88q0 86 -54.5 135t-145.5 49h-273v-449z" />
<glyph unicode="Q" horiz-adv-x="1388" d="M121 436v522q0 209 155.5 332t397.5 123h33q158 0 283.5 -54t199.5 -158.5t74 -242.5v-522q0 -186 -119 -305l139 -143l-141 -109l-146 152q-127 -51 -290 -51h-31q-253 0 -404 118t-151 338zM406 455q0 -118 71 -177t199 -59h31q64 0 100 10l-135 144l139 110l137 -145 q31 48 31 117v481q0 111 -75 173t-197 62h-33q-120 0 -194 -61.5t-74 -171.5v-483z" />
<glyph unicode="R" horiz-adv-x="1286" d="M150 0v1393h583q215 0 337 -98.5t122 -293.5v-67q0 -134 -66 -223t-184 -123l295 -588h-307l-252 524h-244v-524h-284zM434 748h285q79 2 133.5 43t54.5 116v84q0 76 -53 118t-141 42h-279v-403z" />
<glyph unicode="S" horiz-adv-x="1222" d="M100 197l140 182q74 -77 173.5 -117.5t204.5 -40.5t163.5 42.5t58.5 117.5q0 77 -56 118.5t-213 88.5q-221 64 -327 160q-110 99 -109 258q-1 96 39 174q40 80 109 129.5t156 75.5t184 26q279 0 485 -172l-131 -192q-85 65 -166.5 93.5t-179.5 28.5q-100 0 -156.5 -41 t-56.5 -116q0 -73 58.5 -116t217.5 -91q216 -63 322 -162q107 -100 106 -255q0 -187 -135 -295q-136 -109 -358 -109q-154 0 -296 56t-233 157z" />
<glyph unicode="T" horiz-adv-x="1196" d="M33 1151v242h1130v-242h-426v-1151h-282v1151h-422z" />
<glyph unicode="U" horiz-adv-x="1433" d="M147 449v944h285v-930q0 -120 81.5 -182t203.5 -62q118 0 200 63.5t82 180.5v930h285v-944q0 -114 -44.5 -204.5t-122.5 -147.5t-179.5 -87t-218.5 -30q-120 0 -222.5 29.5t-181 86.5t-123.5 147.5t-45 205.5z" />
<glyph unicode="V" horiz-adv-x="1282" d="M37 1393h309l289 -1045l301 1045h307l-459 -1393h-297z" />
<glyph unicode="W" horiz-adv-x="1839" d="M63 1393h295l183 -1033l252 1033h254l253 -1037l181 1037h293l-291 -1393h-316l-249 991l-246 -991h-316z" />
<glyph unicode="X" horiz-adv-x="1261" d="M43 0l418 696l-389 697h321l244 -486l258 486h322l-406 -699l403 -694h-323l-256 479l-264 -479h-328z" />
<glyph unicode="Y" horiz-adv-x="1294" d="M59 1393h324l260 -602l264 602h328l-449 -877v-516h-286v518z" />
<glyph unicode="Z" horiz-adv-x="1202" d="M88 0v162l657 987h-643v244h1006v-160l-653 -993h653v-240h-1020z" />
<glyph unicode="[" horiz-adv-x="579" d="M150 -326v1719h387v-187h-148v-1349h139v-183h-378z" />
<glyph unicode="\" horiz-adv-x="925" d="M59 1393h250l604 -1393h-245z" />
<glyph unicode="]" horiz-adv-x="575" d="M92 1194v199h383v-1715h-381v189h139v1327h-141z" />
<glyph unicode="^" horiz-adv-x="903" d="M92 842l365 571l354 -569l-145 -64l-209 340l-215 -340z" />
<glyph unicode="_" horiz-adv-x="1159" d="M92 -68h975v-165h-975v165z" />
<glyph unicode="`" horiz-adv-x="565" d="M76 1393l180 100l217 -313l-131 -80z" />
<glyph unicode="a" horiz-adv-x="1075" d="M59 264v53q0 74 41 130t103.5 88t151.5 52.5t170 27.5t173 8v75q0 73 -42.5 104.5t-151.5 31.5q-68 0 -165 -20.5t-144 -45.5l-70 199q73 43 195 70.5t227 27.5q217 0 323.5 -89.5t106.5 -260.5v-715h-219l-35 137q-40 -68 -127.5 -109.5t-194.5 -41.5q-164 0 -253 76.5 t-89 201.5zM344 301q0 -100 152 -100q83 0 140.5 36.5t57.5 84.5v139q-55 -2 -95.5 -5.5t-91.5 -12t-84 -22t-56 -37t-23 -54.5v-29z" />
<glyph unicode="b" horiz-adv-x="1210" d="M129 0v1413h283v-483q53 66 130 100.5t165 34.5q193 0 297 -101.5t104 -281.5v-317q0 -182 -103.5 -281.5t-297.5 -99.5q-87 0 -168.5 35t-128.5 102l-45 -121h-236zM412 358q0 -75 59 -114t145 -39q207 0 207 162v313q0 74 -56 118t-140 44q-94 0 -154.5 -40.5 t-60.5 -119.5v-324z" />
<glyph unicode="c" horiz-adv-x="1007" d="M102 360v322q0 182 133.5 282.5t352.5 100.5q220 0 366 -111l-102 -196q-100 65 -236 65q-101 0 -164 -44.5t-63 -127.5v-262q0 -86 64.5 -129t167.5 -43h12q125 0 225 59l98 -196q-131 -98 -366 -98q-223 0 -355.5 95.5t-132.5 282.5z" />
<glyph unicode="d" horiz-adv-x="1206" d="M100 365v317q0 180 104.5 281.5t299.5 101.5q88 0 165 -34.5t130 -100.5v483h282v-1413h-237l-45 121q-47 -67 -127.5 -102t-167.5 -35q-196 0 -300 99.5t-104 281.5zM385 367q0 -162 205 -162q89 0 148 39t59 114v324q0 79 -60.5 119.5t-154.5 40.5q-84 0 -140.5 -44 t-56.5 -118v-313z" />
<glyph unicode="e" horiz-adv-x="1144" d="M98 360v347q0 105 71 187.5t182 125.5t237 43q197 0 331 -98t134 -258v-261h-670v-73q0 -79 69 -117.5t181 -38.5q191 0 317 68l88 -189q-169 -108 -426 -108q-81 0 -155.5 14.5t-140 45t-114 73.5t-76.5 104.5t-28 134.5zM385 633h403v65q0 64 -60.5 103t-139.5 39 q-77 0 -138.5 -39.5t-64.5 -102.5v-65z" />
<glyph unicode="f" horiz-adv-x="718" d="M43 862v182h125v113q0 148 103 226.5t257 78.5q165 0 277 -39l-45 -209q-93 19 -176 19q-59 0 -96 -26t-37 -77v-86h249v-182h-249v-862h-283v862h-125z" />
<glyph unicode="g" horiz-adv-x="1185" d="M70 -188q0 156 159 223q-51 27 -74.5 62.5t-23.5 88.5q0 49 35.5 100t97.5 79q-143 93 -143 278v59q0 119 62 202t166 121t241 38q140 0 246 -45l254 90l69 -170l-160 -49q56 -77 56 -184v-78q0 -89 -35.5 -156t-99 -107t-145 -59.5t-181.5 -19.5q-86 0 -168 16 q-33 -26 -33 -61q0 -31 25.5 -52.5t66.5 -29.5l600 -82v-238q0 -97 -62 -166t-158.5 -101t-215.5 -32h-153q-122 0 -217 29.5t-152 92.5t-57 151zM344 -152q0 -48 45.5 -72t114.5 -24h133q158 0 164 101v59l-369 45q-42 -9 -65 -37t-23 -72zM410 610q0 -64 51 -96.5 t131 -32.5q76 0 126 31t50 98v84q-1 64 -53.5 97.5t-124.5 33.5q-76 0 -128 -33t-52 -98v-84z" />
<glyph unicode="h" horiz-adv-x="1232" d="M127 0v1413h287v-536q42 82 136 134t195 52q189 0 276 -95t87 -280v-688h-287v672q0 72 -45.5 111.5t-122.5 39.5q-93 0 -166 -49.5t-73 -122.5v-651h-287z" />
<glyph unicode="i" horiz-adv-x="587" d="M147 1217v196h289v-196h-289zM150 0v1044h286v-1044h-286z" />
<glyph unicode="j" horiz-adv-x="620" d="M-131 -207q87 19 141.5 40.5t96 58.5t59.5 91.5t18 135.5v925h285v-956q0 -231 -130.5 -353t-406.5 -167zM182 1217v196h287v-196h-287z" />
<glyph unicode="k" horiz-adv-x="1120" d="M127 0v1413h287v-733h67l271 364h325l-368 -489l401 -555h-330l-301 434h-65v-434h-287z" />
<glyph unicode="l" horiz-adv-x="587" d="M150 0v1413h286v-1413h-286z" />
<glyph unicode="m" horiz-adv-x="1830" d="M127 0v1044h217l23 -157q42 77 134.5 126.5t188.5 49.5q121 0 202 -45.5t105 -140.5q44 78 144 133t211 55q178 0 266 -80t88 -248v-737h-285v670q0 80 -37 118.5t-120 38.5q-88 0 -147.5 -51t-59.5 -129v-647h-285v672q0 80 -36.5 118.5t-117.5 38.5q-82 0 -143 -54 t-61 -126v-649h-287z" />
<glyph unicode="n" horiz-adv-x="1234" d="M127 0v1044h225l27 -165q138 184 348 184q383 0 383 -375v-688h-287v655q0 170 -186 170q-86 0 -154.5 -50.5t-68.5 -123.5v-651h-287z" />
<glyph unicode="o" horiz-adv-x="1181" d="M98 362v322q0 176 138.5 277.5t357.5 101.5q224 0 355.5 -101t131.5 -278v-322q0 -117 -68 -205t-177.5 -131.5t-241.5 -43.5q-135 0 -246.5 43.5t-180.5 131.5t-69 205zM383 381q0 -76 61 -119t150 -43q84 0 143.5 43t59.5 119v285q0 73 -59.5 115t-143.5 42 q-86 0 -148.5 -42.5t-62.5 -114.5v-285z" />
<glyph unicode="p" horiz-adv-x="1204" d="M123 -440v1484h237l46 -124q45 69 126 105t168 36q194 0 298 -100.5t104 -284.5v-318q0 -180 -104 -279t-298 -99q-191 0 -292 133v-553h-285zM408 360q0 -80 60 -119.5t153 -39.5q84 0 141 45t57 121v303q0 86 -55 127t-152 41q-87 0 -145.5 -40t-58.5 -116v-322z" />
<glyph unicode="q" horiz-adv-x="1204" d="M100 358v318q0 184 104.5 284.5t299.5 100.5q86 0 167 -35.5t128 -103.5l45 122h237v-1484h-282v553q-104 -133 -295 -133q-195 0 -299.5 99t-104.5 279zM385 362q0 -75 56 -118t141 -43q95 0 155 39.5t60 119.5v322q0 76 -59 116t-148 40q-205 0 -205 -164v-312z" />
<glyph unicode="r" horiz-adv-x="792" d="M129 0v1044h223l43 -163q33 78 102.5 131t157.5 53q72 0 119 -16l-41 -273q-38 10 -117 10q-83 0 -141.5 -51.5t-58.5 -134.5v-600h-287z" />
<glyph unicode="s" horiz-adv-x="1026" d="M70 113l102 188q58 -42 152 -72t172 -30q95 0 137.5 25t42.5 77q0 42 -48.5 67t-170.5 50q-191 40 -274 119.5t-83 207.5q0 78 35.5 140.5t95 100.5t133 57.5t154.5 19.5q244 0 410 -107l-92 -186q-137 72 -279 72q-180 0 -180 -103q0 -45 42.5 -70t158.5 -48 q196 -36 280 -111.5t84 -204.5q0 -151 -118.5 -238t-299.5 -87q-120 0 -242.5 34t-211.5 99z" />
<glyph unicode="t" horiz-adv-x="837" d="M31 860v184h145v244h285v-244h256v-184h-256v-514q0 -117 125 -117q44 0 86 6.5t61.5 12t26.5 8.5l49 -211q-127 -55 -313 -55q-156 0 -238 73t-82 234v563h-145z" />
<glyph unicode="u" horiz-adv-x="1228" d="M127 360v684h285v-665q0 -76 57 -118t145 -42q87 0 146 42.5t59 117.5v665h285v-684q0 -119 -67 -206.5t-177 -130.5t-246 -43q-138 0 -247 43t-174.5 130.5t-65.5 206.5z" />
<glyph unicode="v" horiz-adv-x="1124" d="M37 1044h301l225 -739l225 739h297l-389 -1044h-272z" />
<glyph unicode="w" horiz-adv-x="1552" d="M47 1044h279l137 -753l199 753h227l211 -747l127 747h276l-264 -1044h-266l-195 702l-186 -702h-277z" />
<glyph unicode="x" horiz-adv-x="1103" d="M23 0l362 510l-348 534h321l195 -348l190 348h330l-354 -534l362 -510h-327l-203 319l-203 -319h-325z" />
<glyph unicode="y" horiz-adv-x="1118" d="M45 1044h301l211 -731l213 731h301l-412 -1167q-113 -314 -497 -321l-33 206q83 2 158.5 41.5t101.5 110.5l25 68z" />
<glyph unicode="z" horiz-adv-x="983" d="M80 0v156l463 669h-453v219h780v-137l-462 -684h493v-223h-821z" />
<glyph unicode="{" horiz-adv-x="634" d="M106 600l109 100l-61 359q-27 160 63.5 297t267.5 196l111 -112q-114 -58 -161 -162.5t-32 -214.5l43 -367l-90 -90l95 -76l-48 -426q-14 -119 37.5 -222t167.5 -161l-116 -122q-132 52 -215.5 139.5t-111 183t-11.5 195.5l57 401z" />
<glyph unicode="|" horiz-adv-x="473" d="M121 -301v1694h229v-1694h-229z" />
<glyph unicode="}" horiz-adv-x="667" d="M90 -279q133 73 190.5 175.5t43.5 207.5l-52 428l99 74l-95 86l48 371q14 97 -43.5 203t-174.5 172l99 108q123 -37 211 -118.5t124 -179t17 -189.5l-63 -359l112 -100l-112 -82l63 -401q12 -70 -6.5 -147t-63 -147t-120 -128t-170.5 -88z" />
<glyph unicode="~" horiz-adv-x="837" d="M104 1288q86 142 205 142q48 0 138 -41.5t124 -42.5q65 2 101 67l104 -82q-1 -2 -12 -21t-17.5 -28t-19.5 -28t-26 -29.5t-29.5 -23t-36.5 -18t-41 -5.5q-52 0 -145 43t-146 43q-23 0 -46.5 -15t-31 -24.5t-24.5 -30.5z" />
<glyph unicode="&#xa1;" horiz-adv-x="542" d="M139 -352l31 944h256l33 -944h-320zM154 838v223h286v-223h-286z" />
<glyph unicode="&#xa2;" horiz-adv-x="1026" d="M115 358v324q0 174 121 273.5t325 107.5l39 272l180 -28l-43 -254q133 -27 230 -99l-103 -196q-105 65 -235 65q-103 0 -166.5 -44.5t-63.5 -127.5v-260q0 -86 66 -130t168 -44q132 0 237 59l99 -194q-130 -100 -367 -100h-16l-43 -254l-174 26l41 248 q-140 35 -217.5 124.5t-77.5 231.5z" />
<glyph unicode="&#xa3;" horiz-adv-x="1126" d="M70 582v192h247l-14 187q-2 146 81 248t226 151t336 51v-240q-183 0 -271 -53t-85 -168l18 -176h346v-192h-327q3 -24 5.5 -50.5t4 -47.5t2.5 -27q0 -88 -10 -129.5t-51 -87.5h473v-240h-977v150q86 5 143 27t85.5 61t39 82t10.5 104l-16 158h-266z" />
<glyph unicode="&#xa5;" horiz-adv-x="1320" d="M84 1393h326l258 -602l264 602h325l-358 -703h293v-125h-356l-25 -49v-92h381v-119h-381v-305h-287v305h-399v119h399v94l-24 47h-377v125h315z" />
<glyph unicode="&#xa6;" horiz-adv-x="364" d="M92 -215v680h180v-680h-180zM92 745v682h180v-682h-180z" />
<glyph unicode="&#xa7;" horiz-adv-x="1175" d="M98 614q0 73 43.5 149t104.5 103q-45 75 -45 191q0 167 119.5 260.5t302.5 93.5q266 0 407 -166l-104 -133q-53 56 -134.5 89.5t-164.5 33.5q-90 0 -147.5 -48.5t-57.5 -131.5q0 -26 9.5 -51t21 -43t37 -38.5t42.5 -32.5t52 -29.5t51.5 -24.5t56.5 -23.5t51 -21.5 q81 -35 139 -71t108.5 -85.5t76 -114.5t25.5 -145q0 -83 -37 -155.5t-109 -110.5q49 -76 49 -166q0 -184 -119.5 -285.5t-306.5 -101.5q-134 0 -247 51.5t-177 144.5l127 125q33 -58 120 -101.5t163 -43.5q221 0 221 192q0 30 -14.5 60t-36.5 54.5t-57.5 51t-66 45t-75.5 41 t-72.5 34.5t-68.5 30q-76 32 -126 63.5t-88 75t-55.5 101t-17.5 134.5zM315 618q0 -36 14 -66.5t33 -51.5t55 -42t63.5 -33.5t74.5 -31.5h1l1 -1h1l1 -1h1l1 -1h1l1 -1h1l1 -1h1l1 -1h1l1 -1h2q159 -74 234 -126q26 6 53 42t27 65q0 35 -14 65.5t-35 53t-58 45t-70.5 38.5 t-84.5 37q-119 50 -232 125q-34 -7 -55 -41t-21 -72z" />
<glyph unicode="&#xa8;" horiz-adv-x="821" d="M111 1206v199h200v-199h-200zM510 1206v199h197v-199h-197z" />
<glyph unicode="&#xa9;" horiz-adv-x="1638" d="M92 715q0 151 56.5 285.5t153 231t232 152.5t287.5 56q151 0 285 -56.5t230.5 -153t153 -230.5t56.5 -285q0 -200 -95.5 -364.5t-262 -258.5t-367.5 -94q-152 0 -287 55t-232 150t-153.5 228.5t-56.5 283.5zM229 715q0 -163 78.5 -298.5t214.5 -212.5t301 -77 q122 0 231 45.5t187 123.5t124 187.5t46 231.5q0 164 -77.5 299t-213 213t-299.5 78t-300 -77.5t-214 -213t-78 -299.5zM453 651v97q0 140 112 234.5t266 94.5q104 0 171 -31.5t139 -111.5l-101 -119q-35 42 -93 68t-116 26q-77 0 -131.5 -46t-54.5 -115v-97 q0 -72 58.5 -116t140.5 -46q57 0 117 23t102 63l90 -122q-53 -59 -144 -94t-175 -35q-161 0 -271 90.5t-110 236.5z" />
<glyph unicode="&#xaa;" horiz-adv-x="731" d="M92 926v26q0 185 375 191v49q0 43 -26 62.5t-87 19.5q-49 0 -102 -14t-84 -31l-43 121q105 59 260 59q120 0 183 -55t63 -164v-422h-131l-21 78q-60 -86 -196 -86q-88 0 -139.5 44t-51.5 122zM256 948q0 -51 90 -51q46 0 80.5 23t34.5 57v61q-205 -3 -205 -71v-19z" />
<glyph unicode="&#xab;" horiz-adv-x="972" d="M92 356l326 371l80 -82l-201 -285l199 -274l-78 -86zM475 356l326 371l78 -82l-199 -285l199 -274l-78 -86z" />
<glyph unicode="&#xac;" horiz-adv-x="942" d="M92 551v164h756v-350h-164v186h-592z" />
<glyph unicode="&#xad;" horiz-adv-x="710" d="M90 485v226h528v-226h-528z" />
<glyph unicode="&#xae;" horiz-adv-x="1638" d="M92 715q0 155 54.5 289.5t150.5 230t231.5 150.5t292.5 55q206 0 372 -93.5t259.5 -259.5t93.5 -372t-93.5 -370t-259 -255.5t-372.5 -91.5q-210 0 -376 91t-259.5 255t-93.5 371zM229 715q0 -255 168 -421.5t426 -166.5q167 0 301.5 75.5t210.5 210t76 302.5 q0 167 -76 302t-211 211.5t-303 76.5q-126 0 -236.5 -45t-188.5 -123t-122.5 -187.5t-44.5 -234.5zM537 332v764h346q103 0 171 -64.5t68 -163.5v-37q0 -73 -41 -122t-112 -72l194 -305h-180l-184 286h-105v-286h-157zM694 735h168q43 0 75 22.5t32 61.5v43q0 41 -32.5 71 t-74.5 30h-168v-228z" />
<glyph unicode="&#xaf;" horiz-adv-x="927" d="M111 1305v114h704v-114h-704z" />
<glyph unicode="&#xb0;" horiz-adv-x="788" d="M92 1106v57q0 113 85 179t214 71q127 -5 215 -71.5t88 -178.5v-57q0 -111 -88 -177.5t-215 -66.5q-128 0 -213.5 66t-85.5 178zM266 1092q0 -40 38 -64t87 -24q52 0 91.5 23t39.5 65v90q0 42 -39 67t-92 25q-49 0 -87 -25.5t-38 -66.5v-90z" />
<glyph unicode="&#xb1;" horiz-adv-x="1146" d="M92 0v162h961v-162h-961zM121 623v176h340v321h203v-321h356v-176h-356v-342h-203v342h-340z" />
<glyph unicode="&#xb2;" horiz-adv-x="878" d="M147 1309q48 43 133.5 72.5t194.5 29.5q126 0 201.5 -52t75.5 -155q0 -73 -43.5 -122t-120.5 -85q-24 -12 -66.5 -31t-66 -30t-45 -30.5t-25.5 -41.5h369v-162h-602v97q0 103 57 163.5t178 112.5q106 42 135 67q23 20 23 40q0 65 -113 65q-71 0 -120 -17t-103 -52z" />
<glyph unicode="&#xb3;" horiz-adv-x="757" d="M92 791l107 96q25 -36 80.5 -60t117.5 -24q58 0 95.5 15t37.5 46v21q0 41 -42 64.5t-95 23.5h-137v131h131q51 0 92 18t41 58v18q0 32 -36.5 45.5t-86.5 13.5q-66 0 -118 -17.5t-76 -49.5l-84 108q39 51 126.5 83t180.5 32q301 0 301 -201v-18q0 -57 -43 -99.5t-96 -56.5 q56 -17 100.5 -58.5t44.5 -94.5v-31q0 -59 -26 -101t-71.5 -63.5t-96 -31t-111.5 -9.5q-110 0 -203 38t-133 104z" />
<glyph unicode="&#xb4;" horiz-adv-x="575" d="M94 1167l225 320l177 -101l-269 -284z" />
<glyph unicode="&#xb6;" horiz-adv-x="1124" d="M92 1040v50q0 131 88.5 215.5t229.5 87.5h559v-1393h-146v1270h-168v-1270h-155v756h-90q-141 0 -229.5 76t-88.5 208z" />
<glyph unicode="&#xb7;" horiz-adv-x="430" d="M121 408v251h280v-251h-280z" />
<glyph unicode="&#xb8;" horiz-adv-x="550" d="M115 -178l37 178h155l-24 -102q157 -56 157 -197q0 -157 -260 -240l-65 113q1 1 23.5 11t38 19t35.5 23.5t31 31.5t11 36q0 53 -36.5 82.5t-102.5 44.5z" />
<glyph unicode="&#xb9;" horiz-adv-x="505" d="M61 1208v185h353v-695h-213v510h-140z" />
<glyph unicode="&#xba;" horiz-adv-x="786" d="M92 1022v141q0 110 88 178t211 68q122 0 211.5 -68t89.5 -178v-141q0 -111 -89 -178.5t-212 -67.5t-211 68t-88 178zM272 1038q2 -60 31 -88t92 -28q45 0 82 22.5t37 59.5v172q0 37 -37 60.5t-82 23.5q-48 0 -85.5 -24t-37.5 -62v-136z" />
<glyph unicode="&#xbb;" horiz-adv-x="962" d="M72 645l80 82l325 -371l-325 -356l-78 86l198 274zM455 645l77 82l328 -371l-328 -356l-75 86l198 274z" />
<glyph unicode="&#xbc;" horiz-adv-x="1380" d="M59 0l883 1393h234l-873 -1393h-244zM90 1208v185h352v-695h-213v510h-139zM616 143v113l334 477h269v-440h122v-150h-122v-141h-201v141h-402zM827 293h191v256h-19z" />
<glyph unicode="&#xbd;" horiz-adv-x="1435" d="M59 0l883 1393h234l-873 -1393h-244zM90 1208v185h352v-695h-213v510h-139zM735 592q48 43 133.5 72.5t194.5 29.5q126 0 201 -52t75 -157q0 -130 -163 -206q-22 -11 -66 -30t-66.5 -30t-44.5 -30.5t-26 -41.5h368v-161h-602v96q0 103 57.5 163.5t178.5 112.5 q98 39 126 59q32 24 32 48q0 63 -113 63q-72 0 -121 -16.5t-102 -50.5z" />
<glyph unicode="&#xbe;" horiz-adv-x="1572" d="M61 791l105 96q25 -36 81.5 -60t119.5 -24q57 0 94 15.5t37 45.5v21q0 41 -42.5 64.5t-93.5 23.5h-137v131h129q51 0 92 18t41 58v18q0 59 -120 59q-142 0 -197 -67l-82 108q37 51 124.5 83t182.5 32q299 0 299 -201v-18q0 -57 -42 -100t-95 -56q55 -17 99 -59t44 -94 v-31q0 -59 -26 -101t-71.5 -63.5t-96 -31t-111.5 -9.5q-110 0 -202.5 38t-131.5 104zM281 0l882 1393h234l-873 -1393h-243zM836 141v113l333 477h269v-440h123v-150h-123v-141h-201v141h-401zM1047 291h190v256h-18z" />
<glyph unicode="&#xbf;" horiz-adv-x="882" d="M43 14q0 26 4 49.5t15 46.5t18 37t27.5 36.5t27.5 30t33 33t31 29.5q74 61 104.5 111t30.5 129v92h274v-125q0 -72 -35 -131t-106 -119l-24.5 -24.5l-27 -27t-23.5 -25t-23.5 -28.5t-16 -26t-13 -29.5t-3.5 -27.5v-55q0 -107 147 -107q118 0 260 97l105 -191 q-86 -63 -193 -105t-213 -42q-188 0 -293.5 77t-105.5 236v59zM297 809v254h330v-254h-330z" />
<glyph unicode="&#xc0;" horiz-adv-x="1329" d="M43 0l467 1405h317l457 -1405h-309l-92 319h-434l-95 -319h-311zM397 1796l181 100l217 -313l-131 -80zM502 543h327l-161 542z" />
<glyph unicode="&#xc1;" horiz-adv-x="1329" d="M43 0l467 1405h317l457 -1405h-309l-92 319h-434l-95 -319h-311zM502 543h327l-161 542zM535 1569l225 319l176 -100l-268 -285z" />
<glyph unicode="&#xc2;" horiz-adv-x="1329" d="M43 0l467 1405h317l457 -1405h-309l-92 319h-434l-95 -319h-311zM387 1602l277 186l276 -193l-82 -100l-194 115l-195 -113zM502 543h327l-161 542z" />
<glyph unicode="&#xc3;" horiz-adv-x="1329" d="M43 0l467 1405h317l457 -1405h-309l-92 319h-434l-95 -319h-311zM330 1604q85 141 202 141q49 0 140 -41.5t125 -42.5q64 2 100 68l102 -82q0 -1 -8.5 -16t-12 -20.5t-13 -21t-17 -24t-19 -21.5t-23 -20.5t-25.5 -15.5t-29.5 -11.5t-32.5 -3.5q-52 0 -145.5 43t-145.5 43 q-23 0 -46.5 -15t-31 -24.5t-24.5 -30.5zM502 543h327l-161 542z" />
<glyph unicode="&#xc4;" horiz-adv-x="1329" d="M43 0l467 1405h317l457 -1405h-309l-92 319h-434l-95 -319h-311zM367 1522v198h200v-198h-200zM502 543h327l-161 542zM766 1522v198h197v-198h-197z" />
<glyph unicode="&#xc5;" horiz-adv-x="1329" d="M43 0l467 1405h317l457 -1405h-309l-92 319h-434l-95 -319h-311zM502 543h327l-161 542zM504 1657q0 67 46.5 112.5t111.5 45.5q67 0 115 -45.5t48 -112.5q0 -66 -48.5 -113t-114.5 -47q-65 0 -111.5 47t-46.5 113zM586 1655q0 -33 22.5 -55.5t53.5 -22.5q34 0 57.5 22.5 t23.5 55.5q0 34 -23.5 58t-57.5 24q-31 0 -53.5 -24t-22.5 -58z" />
<glyph unicode="&#xc6;" horiz-adv-x="1857" d="M10 0l862 1393h881v-242h-489v-326h403v-223h-403v-362h536v-240h-819v315h-449l-188 -315h-334zM641 539h340v585z" />
<glyph unicode="&#xc7;" horiz-adv-x="1187" d="M131 438v514q0 139 73.5 245.5t195 161t270.5 54.5q150 0 255 -33.5t197 -105.5l-114 -201q-133 96 -318 96q-121 0 -196.5 -61.5t-75.5 -171.5v-483q0 -116 75.5 -175t202.5 -59q193 0 312 84l106 -197q-80 -62 -171.5 -91t-221.5 -33l-19 -84q158 -57 158 -197 q0 -157 -260 -240l-65 113q1 1 23.5 11t38 19t35.5 23.5t31 31.5t11 36q0 53 -36.5 82.5t-102.5 44.5l32 164q-199 24 -317.5 140t-118.5 312z" />
<glyph unicode="&#xc8;" d="M147 0v1393h873v-242h-588v-328h469v-231h-469v-352h633v-240h-918zM336 1784l180 100l217 -313l-131 -80z" />
<glyph unicode="&#xc9;" horiz-adv-x="1153" d="M147 0v1393h873v-242h-588v-328h469v-231h-469v-352h633v-240h-918zM475 1554l225 320l174 -100l-266 -285z" />
<glyph unicode="&#xca;" d="M147 0v1393h873v-242h-588v-328h469v-231h-469v-352h633v-240h-918zM324 1589l276 187l277 -193l-82 -100l-195 114l-194 -112z" />
<glyph unicode="&#xcb;" d="M147 0v1393h873v-242h-588v-328h469v-231h-469v-352h633v-240h-918zM305 1509v199h201v-199h-201zM705 1509v199h196v-199h-196z" />
<glyph unicode="&#xcc;" horiz-adv-x="634" d="M51 1784l180 100l218 -313l-132 -80zM174 0v1393h283v-1393h-283z" />
<glyph unicode="&#xcd;" horiz-adv-x="634" d="M174 0v1393h283v-1393h-283zM186 1554l226 320l176 -100l-269 -285z" />
<glyph unicode="&#xce;" horiz-adv-x="634" d="M41 1589l276 187l277 -193l-82 -100l-195 114l-194 -112zM174 0v1393h283v-1393h-283z" />
<glyph unicode="&#xcf;" horiz-adv-x="634" d="M18 1509v199h201v-199h-201zM174 0v1393h283v-1393h-283zM418 1509v199h196v-199h-196z" />
<glyph unicode="&#xd0;" horiz-adv-x="1343" d="M12 586v215h138v592h512q164 0 286 -51.5t194 -163t72 -273.5v-420q0 -122 -44.5 -216t-123.5 -152t-181.5 -87.5t-223.5 -29.5h-491v586h-138zM430 240h211q129 0 210 65t81 201v377q0 131 -76 199.5t-194 68.5h-232v-350h281v-215h-281v-346z" />
<glyph unicode="&#xd1;" horiz-adv-x="1435" d="M145 0v1393h271l606 -965v965h262v-1393h-270l-606 961v-961h-263zM403 1589q84 142 205 142q48 0 138 -41t124 -41q64 0 101 67l104 -82q-1 -2 -9 -16.5t-12 -20.5t-14 -21.5t-17.5 -23.5t-19 -21t-23 -20.5t-25.5 -15t-29.5 -11t-32.5 -3.5q-51 0 -144 43t-147 43 q-23 0 -45.5 -14.5t-32.5 -26t-24 -31.5z" />
<glyph unicode="&#xd2;" horiz-adv-x="1388" d="M123 436v522q0 209 155.5 332t397.5 123h35q157 0 282.5 -54t199 -158.5t73.5 -242.5v-522q0 -145 -71 -249t-195 -155.5t-289 -51.5h-33q-253 0 -404 118t-151 338zM410 455q0 -118 70.5 -177t197.5 -59h33q127 0 198.5 59.5t71.5 176.5v481q0 111 -75 173t-195 62h-35 q-120 0 -193 -61.5t-73 -171.5v-483zM426 1804l180 101l217 -314l-131 -80z" />
<glyph unicode="&#xd3;" horiz-adv-x="1388" d="M123 436v522q0 209 155.5 332t397.5 123h35q157 0 282.5 -54t199 -158.5t73.5 -242.5v-522q0 -145 -71 -249t-195 -155.5t-289 -51.5h-33q-253 0 -404 118t-151 338zM410 455q0 -118 70.5 -177t197.5 -59h33q127 0 198.5 59.5t71.5 176.5v481q0 111 -75 173t-195 62h-35 q-120 0 -193 -61.5t-73 -171.5v-483zM563 1575l225 319l177 -100l-269 -285z" />
<glyph unicode="&#xd4;" horiz-adv-x="1388" d="M123 436v522q0 209 155.5 332t397.5 123h35q157 0 282.5 -54t199 -158.5t73.5 -242.5v-522q0 -145 -71 -249t-195 -155.5t-289 -51.5h-33q-253 0 -404 118t-151 338zM410 455q0 -118 70.5 -177t197.5 -59h33q127 0 198.5 59.5t71.5 176.5v481q0 111 -75 173t-195 62h-35 q-120 0 -193 -61.5t-73 -171.5v-483zM416 1610l276 186l277 -192l-82 -101l-195 115l-194 -113z" />
<glyph unicode="&#xd5;" horiz-adv-x="1388" d="M123 436v522q0 209 155.5 332t397.5 123h35q157 0 282.5 -54t199 -158.5t73.5 -242.5v-522q0 -145 -71 -249t-195 -155.5t-289 -51.5h-33q-253 0 -404 118t-151 338zM356 1612q85 141 205 141q48 0 138 -41.5t124 -42.5q65 2 101 68l104 -82q-2 -3 -12.5 -21t-17 -28 t-19.5 -28.5t-26 -29.5t-29.5 -23t-36.5 -18t-41 -6q-52 0 -145 43t-146 43q-23 0 -46 -14.5t-31.5 -24.5t-24.5 -30zM410 455q0 -118 70.5 -177t197.5 -59h33q127 0 198.5 59.5t71.5 176.5v481q0 111 -75 173t-195 62h-35q-120 0 -193 -61.5t-73 -171.5v-483z" />
<glyph unicode="&#xd6;" horiz-adv-x="1388" d="M123 436v522q0 209 155.5 332t397.5 123h35q157 0 282.5 -54t199 -158.5t73.5 -242.5v-522q0 -145 -71 -249t-195 -155.5t-289 -51.5h-33q-253 0 -404 118t-151 338zM395 1528v198h201v-198h-201zM410 455q0 -118 70.5 -177t197.5 -59h33q127 0 198.5 59.5t71.5 176.5 v481q0 111 -75 173t-195 62h-35q-120 0 -193 -61.5t-73 -171.5v-483zM793 1528v198h198v-198h-198z" />
<glyph unicode="&#xd7;" horiz-adv-x="1230" d="M88 0l410 510l-394 494h226l282 -355l287 355h223l-393 -494l410 -510h-238l-289 367l-288 -367h-236z" />
<glyph unicode="&#xd8;" horiz-adv-x="1388" d="M123 436v522q0 209 155.5 332t397.5 123h35q118 0 225 -35l88 183h160l-117 -244q95 -60 147 -151.5t52 -207.5v-522q0 -145 -71 -249t-195 -155.5t-289 -51.5h-33q-139 0 -236 32l-75 -159h-168l106 223q-182 117 -182 360zM410 455q0 -64 28 -109l387 807 q-53 18 -114 18h-35q-120 0 -193 -61.5t-73 -171.5v-483zM551 238q50 -19 127 -19h33q127 0 198.5 59.5t71.5 176.5v481q0 75 -39 123z" />
<glyph unicode="&#xd9;" horiz-adv-x="1433" d="M147 449v944h285v-930q0 -120 81.5 -182t203.5 -62q118 0 200 63.5t82 180.5v930h285v-944q0 -114 -44.5 -204.5t-122.5 -147.5t-179.5 -87t-218.5 -30q-120 0 -222.5 29.5t-181 86.5t-123.5 147.5t-45 205.5zM451 1784l180 100l217 -313l-131 -80z" />
<glyph unicode="&#xda;" horiz-adv-x="1433" d="M147 449v944h285v-930q0 -120 81.5 -182t203.5 -62q118 0 200 63.5t82 180.5v930h285v-944q0 -114 -44.5 -204.5t-122.5 -147.5t-179.5 -87t-218.5 -30q-120 0 -222.5 29.5t-181 86.5t-123.5 147.5t-45 205.5zM588 1554l225 320l176 -100l-268 -285z" />
<glyph unicode="&#xdb;" horiz-adv-x="1433" d="M147 449v944h285v-930q0 -120 81.5 -182t203.5 -62q118 0 200 63.5t82 180.5v930h285v-944q0 -114 -44.5 -204.5t-122.5 -147.5t-179.5 -87t-218.5 -30q-120 0 -222.5 29.5t-181 86.5t-123.5 147.5t-45 205.5zM438 1589l277 187l276 -193l-82 -100l-194 114l-195 -112z " />
<glyph unicode="&#xdc;" horiz-adv-x="1433" d="M147 449v944h285v-930q0 -120 81.5 -182t203.5 -62q118 0 200 63.5t82 180.5v930h285v-944q0 -114 -44.5 -204.5t-122.5 -147.5t-179.5 -87t-218.5 -30q-120 0 -222.5 29.5t-181 86.5t-123.5 147.5t-45 205.5zM418 1509v199h200v-199h-200zM817 1509v199h197v-199h-197z " />
<glyph unicode="&#xdd;" horiz-adv-x="1294" d="M59 1393h324l260 -602l264 602h328l-449 -877v-516h-286v518zM518 1554l225 320l177 -100l-269 -285z" />
<glyph unicode="&#xde;" horiz-adv-x="1210" d="M147 0v1393h287v-256h254q201 0 317.5 -107.5t116.5 -290.5v-37q0 -182 -114.5 -278t-319.5 -96h-254v-328h-287zM434 567h236q75 0 121.5 37t46.5 98v37q0 67 -48 115.5t-122 48.5h-234v-336z" />
<glyph unicode="&#xe0;" horiz-adv-x="1075" d="M59 264v53q0 74 41 130t103.5 88t151.5 52.5t170 27.5t173 8v75q0 73 -42.5 104.5t-151.5 31.5q-68 0 -165 -20.5t-144 -45.5l-70 199q73 43 195 70.5t227 27.5q217 0 323.5 -89.5t106.5 -260.5v-715h-219l-35 137q-40 -68 -127.5 -109.5t-194.5 -41.5q-164 0 -253 76.5 t-89 201.5zM281 1491l180 100l217 -313l-131 -80zM344 301q0 -100 152 -100q83 0 140.5 36.5t57.5 84.5v139q-55 -2 -95.5 -5.5t-91.5 -12t-84 -22t-56 -37t-23 -54.5v-29z" />
<glyph unicode="&#xe1;" horiz-adv-x="1075" d="M59 264v53q0 74 41 130t103.5 88t151.5 52.5t170 27.5t173 8v75q0 73 -42.5 104.5t-151.5 31.5q-68 0 -165 -20.5t-144 -45.5l-70 199q73 43 195 70.5t227 27.5q217 0 323.5 -89.5t106.5 -260.5v-715h-219l-35 137q-40 -68 -127.5 -109.5t-194.5 -41.5q-164 0 -253 76.5 t-89 201.5zM344 301q0 -100 152 -100q83 0 140.5 36.5t57.5 84.5v139q-55 -2 -95.5 -5.5t-91.5 -12t-84 -22t-56 -37t-23 -54.5v-29zM418 1264l225 319l176 -100l-268 -285z" />
<glyph unicode="&#xe2;" horiz-adv-x="1075" d="M59 264v53q0 74 41 130t103.5 88t151.5 52.5t170 27.5t173 8v75q0 73 -42.5 104.5t-151.5 31.5q-68 0 -165 -20.5t-144 -45.5l-70 199q73 43 195 70.5t227 27.5q217 0 323.5 -89.5t106.5 -260.5v-715h-219l-35 137q-40 -68 -127.5 -109.5t-194.5 -41.5q-164 0 -253 76.5 t-89 201.5zM268 1296l277 187l276 -193l-82 -100l-194 115l-195 -113zM344 301q0 -100 152 -100q83 0 140.5 36.5t57.5 84.5v139q-55 -2 -95.5 -5.5t-91.5 -12t-84 -22t-56 -37t-23 -54.5v-29z" />
<glyph unicode="&#xe3;" horiz-adv-x="1075" d="M59 264v53q0 74 41 130t103.5 88t151.5 52.5t170 27.5t173 8v75q0 73 -42.5 104.5t-151.5 31.5q-68 0 -165 -20.5t-144 -45.5l-70 199q73 43 195 70.5t227 27.5q217 0 323.5 -89.5t106.5 -260.5v-715h-219l-35 137q-40 -68 -127.5 -109.5t-194.5 -41.5q-164 0 -253 76.5 t-89 201.5zM211 1298q86 142 205 142q48 0 138 -41.5t124 -42.5q64 2 100 67l105 -82q-1 -1 -12.5 -20.5t-17 -28t-19.5 -28t-26.5 -30t-29.5 -23t-37 -18t-41 -5.5q-52 0 -144.5 43t-145.5 43q-23 0 -46.5 -15t-32 -25t-24.5 -30zM344 301q0 -100 152 -100q83 0 140.5 36.5 t57.5 84.5v139q-55 -2 -95.5 -5.5t-91.5 -12t-84 -22t-56 -37t-23 -54.5v-29z" />
<glyph unicode="&#xe4;" horiz-adv-x="1075" d="M59 264v53q0 74 41 130t103.5 88t151.5 52.5t170 27.5t173 8v75q0 73 -42.5 104.5t-151.5 31.5q-68 0 -165 -20.5t-144 -45.5l-70 199q73 43 195 70.5t227 27.5q217 0 323.5 -89.5t106.5 -260.5v-715h-219l-35 137q-40 -68 -127.5 -109.5t-194.5 -41.5q-164 0 -253 76.5 t-89 201.5zM248 1219v198h201v-198h-201zM344 301q0 -100 152 -100q83 0 140.5 36.5t57.5 84.5v139q-55 -2 -95.5 -5.5t-91.5 -12t-84 -22t-56 -37t-23 -54.5v-29zM647 1219v198h197v-198h-197z" />
<glyph unicode="&#xe5;" horiz-adv-x="1075" d="M59 264v53q0 74 41 130t103.5 88t151.5 52.5t170 27.5t173 8v75q0 73 -42.5 104.5t-151.5 31.5q-68 0 -165 -20.5t-144 -45.5l-70 199q73 43 195 70.5t227 27.5q217 0 323.5 -89.5t106.5 -260.5v-715h-219l-35 137q-40 -68 -127.5 -109.5t-194.5 -41.5q-164 0 -253 76.5 t-89 201.5zM344 301q0 -100 152 -100q83 0 140.5 36.5t57.5 84.5v139q-55 -2 -95.5 -5.5t-91.5 -12t-84 -22t-56 -37t-23 -54.5v-29zM385 1352q0 67 46.5 112t111.5 45q67 0 115.5 -45t48.5 -112q0 -66 -49 -113t-115 -47q-65 0 -111.5 47t-46.5 113zM467 1350 q0 -33 22.5 -55.5t53.5 -22.5q34 0 58 22.5t24 55.5q0 34 -24 58t-58 24q-31 0 -53.5 -24t-22.5 -58z" />
<glyph unicode="&#xe6;" horiz-adv-x="1734" d="M59 307v219l639 74v105q0 145 -192 145q-64 0 -157 -21t-159 -43l-61 185q80 47 191 78.5t210 31.5q229 0 322 -118q118 118 362 118q128 0 227 -37.5t159.5 -119.5t60.5 -199v-205l-651 -59v-90q0 -70 66 -110t184 -40q86 0 179 28t142 62l96 -180q-179 -145 -432 -145 q-333 0 -446 178q-51 -91 -146.5 -134.5t-212.5 -43.5q-175 0 -278 86t-103 235zM328 315q0 -54 49 -84t131 -30q77 0 134.5 32t57.5 93v110l-372 -41v-80zM1010 621l391 34v80q0 64 -50.5 95.5t-140.5 31.5q-82 0 -141 -38.5t-59 -98.5v-104z" />
<glyph unicode="&#xe7;" horiz-adv-x="1028" d="M115 358v324q0 182 132.5 282.5t352.5 100.5q221 0 367 -111l-103 -196q-105 65 -235 65q-103 0 -166.5 -44.5t-63.5 -127.5v-260q0 -86 66 -130t168 -44q132 0 237 59l99 -194q-120 -93 -336 -100l-21 -84q158 -57 158 -197q0 -157 -260 -240l-66 113q2 1 24 11t37.5 19 t36 23.5t31.5 31.5t11 36q0 53 -36.5 82.5t-103.5 44.5l35 168q-170 24 -267 117t-97 251z" />
<glyph unicode="&#xe8;" d="M98 360v347q0 105 71 187.5t182 125.5t237 43q197 0 331 -98t134 -258v-261h-670v-73q0 -79 69 -117.5t181 -38.5q191 0 317 68l88 -189q-169 -108 -426 -108q-81 0 -155.5 14.5t-140 45t-114 73.5t-76.5 104.5t-28 134.5zM307 1493l180 100l218 -313l-132 -80zM385 633 h403v65q0 64 -60.5 103t-139.5 39q-77 0 -138.5 -39.5t-64.5 -102.5v-65z" />
<glyph unicode="&#xe9;" d="M98 360v347q0 105 71 187.5t182 125.5t237 43q197 0 331 -98t134 -258v-261h-670v-73q0 -79 69 -117.5t181 -38.5q191 0 317 68l88 -189q-169 -108 -426 -108q-81 0 -155.5 14.5t-140 45t-114 73.5t-76.5 104.5t-28 134.5zM385 633h403v65q0 64 -60.5 103t-139.5 39 q-77 0 -138.5 -39.5t-64.5 -102.5v-65zM444 1266l226 319l176 -100l-268 -285z" />
<glyph unicode="&#xea;" d="M98 360v347q0 105 71 187.5t182 125.5t237 43q197 0 331 -98t134 -258v-261h-670v-73q0 -79 69 -117.5t181 -38.5q191 0 317 68l88 -189q-169 -108 -426 -108q-81 0 -155.5 14.5t-140 45t-114 73.5t-76.5 104.5t-28 134.5zM295 1298l276 187l277 -193l-82 -100l-195 115 l-194 -113zM385 633h403v65q0 64 -60.5 103t-139.5 39q-77 0 -138.5 -39.5t-64.5 -102.5v-65z" />
<glyph unicode="&#xeb;" d="M98 360v347q0 105 71 187.5t182 125.5t237 43q197 0 331 -98t134 -258v-261h-670v-73q0 -79 69 -117.5t181 -38.5q191 0 317 68l88 -189q-169 -108 -426 -108q-81 0 -155.5 14.5t-140 45t-114 73.5t-76.5 104.5t-28 134.5zM272 1221v198h201v-198h-201zM385 633h403v65 q0 64 -60.5 103t-139.5 39q-77 0 -138.5 -39.5t-64.5 -102.5v-65zM672 1221v198h196v-198h-196z" />
<glyph unicode="&#xec;" horiz-adv-x="587" d="M31 1475l180 100l217 -313l-131 -80zM150 0v1059h286v-1059h-286z" />
<glyph unicode="&#xed;" horiz-adv-x="587" d="M150 0v1059h286v-1059h-286zM164 1247l225 320l176 -101l-268 -284z" />
<glyph unicode="&#xee;" horiz-adv-x="587" d="M18 1278l277 186l276 -192l-82 -101l-194 115l-195 -112zM150 0v1059h286v-1059h-286z" />
<glyph unicode="&#xef;" horiz-adv-x="587" d="M-4 1202v199h201v-199h-201zM150 0v1059h286v-1059h-286zM395 1202v199h197v-199h-197z" />
<glyph unicode="&#xf0;" horiz-adv-x="1181" d="M100 356v226q0 162 110 268t294 106q77 0 159.5 -23t129.5 -67q-30 86 -92.5 166.5t-143.5 141.5l-287 -130l-65 123l215 99q-105 63 -191 86l121 188q212 -61 361 -176l266 119l67 -123l-215 -98q250 -270 250 -600v-306q0 -169 -141 -272.5t-354 -103.5 q-132 0 -241.5 45t-176 132t-66.5 199zM385 387q0 -74 59.5 -121t141.5 -47t145.5 47t63.5 119v160q0 77 -62 124.5t-151 47.5q-82 0 -139.5 -47.5t-57.5 -120.5v-162z" />
<glyph unicode="&#xf1;" horiz-adv-x="1234" d="M127 0v1044h225l27 -165q138 184 348 184q383 0 383 -375v-688h-287v655q0 170 -186 170q-86 0 -154.5 -50.5t-68.5 -123.5v-651h-287zM279 1300q86 142 202 142q49 0 139.5 -41.5t124.5 -42.5q65 2 101 67l102 -82q-1 -2 -7.5 -14t-10 -18t-12 -19t-14 -20.5t-16 -20 t-19 -20t-21 -16t-24.5 -13.5t-26.5 -8.5t-29.5 -3.5q-52 0 -145.5 43t-145.5 43q-23 0 -46.5 -15t-31 -24.5t-24.5 -30.5z" />
<glyph unicode="&#xf2;" horiz-adv-x="1181" d="M98 362v322q0 176 138.5 277.5t357.5 101.5q224 0 355.5 -101t131.5 -278v-322q0 -117 -68 -205t-177.5 -131.5t-241.5 -43.5q-135 0 -246.5 43.5t-180.5 131.5t-69 205zM319 1493l181 100l217 -313l-131 -80zM383 381q0 -76 61 -119t150 -43q84 0 143.5 43t59.5 119v285 q0 73 -59.5 115t-143.5 42q-86 0 -148.5 -42.5t-62.5 -114.5v-285z" />
<glyph unicode="&#xf3;" horiz-adv-x="1181" d="M98 362v322q0 176 138.5 277.5t357.5 101.5q224 0 355.5 -101t131.5 -278v-322q0 -117 -68 -205t-177.5 -131.5t-241.5 -43.5q-135 0 -246.5 43.5t-180.5 131.5t-69 205zM383 381q0 -76 61 -119t150 -43q84 0 143.5 43t59.5 119v285q0 73 -59.5 115t-143.5 42 q-86 0 -148.5 -42.5t-62.5 -114.5v-285zM459 1266l225 319l176 -100l-268 -285z" />
<glyph unicode="&#xf4;" horiz-adv-x="1181" d="M98 362v322q0 176 138.5 277.5t357.5 101.5q224 0 355.5 -101t131.5 -278v-322q0 -117 -68 -205t-177.5 -131.5t-241.5 -43.5q-135 0 -246.5 43.5t-180.5 131.5t-69 205zM309 1298l277 187l276 -193l-82 -100l-194 115l-195 -113zM383 381q0 -76 61 -119t150 -43 q84 0 143.5 43t59.5 119v285q0 73 -59.5 115t-143.5 42q-86 0 -148.5 -42.5t-62.5 -114.5v-285z" />
<glyph unicode="&#xf5;" horiz-adv-x="1181" d="M98 362v322q0 176 138.5 277.5t357.5 101.5q224 0 355.5 -101t131.5 -278v-322q0 -117 -68 -205t-177.5 -131.5t-241.5 -43.5q-135 0 -246.5 43.5t-180.5 131.5t-69 205zM252 1300q86 142 203 142q49 0 139.5 -41.5t124.5 -42.5q64 2 100 67l103 -82l-8 -14 q-7 -14 -9.5 -18t-11.5 -18.5t-14.5 -21.5t-16.5 -19.5t-19.5 -19.5t-21 -16.5t-24 -14t-26.5 -8t-30 -3.5q-52 0 -145 43t-145 43q-23 0 -46.5 -15t-32 -25t-24.5 -30zM383 381q0 -76 61 -119t150 -43q84 0 143.5 43t59.5 119v285q0 73 -59.5 115t-143.5 42 q-86 0 -148.5 -42.5t-62.5 -114.5v-285z" />
<glyph unicode="&#xf6;" horiz-adv-x="1181" d="M98 362v322q0 176 138.5 277.5t357.5 101.5q224 0 355.5 -101t131.5 -278v-322q0 -117 -68 -205t-177.5 -131.5t-241.5 -43.5q-135 0 -246.5 43.5t-180.5 131.5t-69 205zM289 1221v198h200v-198h-200zM383 381q0 -76 61 -119t150 -43q84 0 143.5 43t59.5 119v285 q0 73 -59.5 115t-143.5 42q-86 0 -148.5 -42.5t-62.5 -114.5v-285zM688 1221v198h197v-198h-197z" />
<glyph unicode="&#xf7;" horiz-adv-x="1396" d="M92 483v164h1213v-164h-1213zM575 115v241h259v-241h-259zM575 764v244h259v-244h-259z" />
<glyph unicode="&#xf8;" horiz-adv-x="1181" d="M98 362v322q0 176 138.5 277.5t357.5 101.5q125 0 225 -35l78 127h131l-104 -176q76 -48 116.5 -123.5t40.5 -171.5v-322q0 -117 -68 -205t-177.5 -131.5t-241.5 -43.5q-135 0 -242 43l-84 -144h-139l119 199q-150 108 -150 282zM383 381q0 -33 14 -55l291 481 q-39 16 -94 16q-86 0 -148.5 -42.5t-62.5 -114.5v-285zM481 242q54 -23 113 -23q84 0 143.5 43t59.5 119v285q0 39 -23 65z" />
<glyph unicode="&#xf9;" horiz-adv-x="1228" d="M127 360v684h285v-665q0 -76 57 -118t145 -42q87 0 146 42.5t59 117.5v665h285v-684q0 -119 -67 -206.5t-177 -130.5t-246 -43q-138 0 -247 43t-174.5 130.5t-65.5 206.5zM346 1473l180 100l217 -313l-131 -80z" />
<glyph unicode="&#xfa;" horiz-adv-x="1228" d="M127 360v684h285v-665q0 -76 57 -118t145 -42q87 0 146 42.5t59 117.5v665h285v-684q0 -119 -67 -206.5t-177 -130.5t-246 -43q-138 0 -247 43t-174.5 130.5t-65.5 206.5zM485 1245l226 320l176 -101l-269 -284z" />
<glyph unicode="&#xfb;" horiz-adv-x="1228" d="M127 360v684h285v-665q0 -76 57 -118t145 -42q87 0 146 42.5t59 117.5v665h285v-684q0 -119 -67 -206.5t-177 -130.5t-246 -43q-138 0 -247 43t-174.5 130.5t-65.5 206.5zM334 1278l276 186l277 -192l-82 -101l-195 115l-194 -112z" />
<glyph unicode="&#xfc;" horiz-adv-x="1228" d="M127 360v684h285v-665q0 -76 57 -118t145 -42q87 0 146 42.5t59 117.5v665h285v-684q0 -119 -67 -206.5t-177 -130.5t-246 -43q-138 0 -247 43t-174.5 130.5t-65.5 206.5zM313 1200v199h201v-199h-201zM713 1200v199h196v-199h-196z" />
<glyph unicode="&#xfd;" horiz-adv-x="1118" d="M45 1044h301l211 -731l213 731h301l-412 -1167q-113 -314 -497 -321l-33 206q83 2 158.5 41.5t101.5 110.5l25 68zM426 1247l225 320l176 -101l-268 -284z" />
<glyph unicode="&#xfe;" horiz-adv-x="1236" d="M127 -459v1870h287v-479q64 70 134.5 103.5t164.5 33.5q188 0 305 -103t117 -272v-329q0 -172 -117 -278.5t-305 -106.5q-107 0 -182 30t-134 96v-565h-270zM432 375q0 -76 61.5 -125t149.5 -49q85 0 146 47t61 133v289q0 88 -58 132t-149 44q-86 0 -148.5 -49.5 t-62.5 -126.5v-295z" />
<glyph unicode="&#xff;" horiz-adv-x="1118" d="M45 1044h301l211 -731l213 731h301l-412 -1167q-113 -314 -497 -321l-33 206q83 2 158.5 41.5t101.5 110.5l25 68zM256 1202v199h201v-199h-201zM655 1202v199h197v-199h-197z" />
<glyph unicode="&#x152;" horiz-adv-x="1857" d="M66 459v475q0 88 48 171.5t127.5 146.5t188 101t223.5 38h1114v-240h-548v-311h464v-234h-462v-366h594v-240h-1158q-163 0 -299 61.5t-214 167t-78 230.5zM350 489q0 -106 89 -177.5t218 -71.5h275v911h-279q-117 0 -210 -76.5t-93 -173.5v-412z" />
<glyph unicode="&#x153;" horiz-adv-x="1792" d="M94 360v355q0 168 118.5 265t317.5 97q55 0 109.5 -8.5t111.5 -27.5t104.5 -55.5t74.5 -86.5q55 86 147.5 134t200.5 48q135 0 240.5 -38.5t170 -122t64.5 -201.5v-207l-655 -88v-74q0 -47 38 -81.5t91.5 -49t113.5 -14.5q79 0 173.5 21t150.5 50l98 -172 q-178 -110 -434 -110q-290 0 -403 184q-52 -98 -158 -143t-233 -45q-200 0 -320.5 100t-120.5 270zM381 377q0 -67 58.5 -109.5t140.5 -42.5q76 0 135 40t63 102v340q-4 62 -63.5 99.5t-136.5 37.5q-82 0 -139.5 -41t-57.5 -105v-321zM1096 604l368 47l-2 64q0 59 -49.5 94 t-116.5 35q-79 -3 -136.5 -40.5t-61.5 -96.5z" />
<glyph unicode="&#x178;" horiz-adv-x="1294" d="M59 1393h324l260 -602l264 602h328l-449 -877v-516h-286v518zM348 1509v199h201v-199h-201zM748 1509v199h196v-199h-196z" />
<glyph unicode="&#x2c6;" horiz-adv-x="749" d="M98 1276l277 186l276 -192l-82 -101l-194 115l-195 -113z" />
<glyph unicode="&#x2dc;" horiz-adv-x="888" d="M106 1288q86 142 203 142q49 0 139.5 -41.5t124.5 -42.5q65 2 101 67l102 -82q-1 -2 -7.5 -14t-10 -18t-12 -19t-14 -20.5t-16 -20t-19 -20t-21 -16t-24.5 -13.5t-26.5 -8.5t-29.5 -3.5q-52 0 -145.5 43t-145.5 43q-23 0 -46.5 -15t-31 -24.5t-24.5 -30.5z" />
<glyph unicode="&#x2000;" horiz-adv-x="952" />
<glyph unicode="&#x2001;" horiz-adv-x="1905" />
<glyph unicode="&#x2002;" horiz-adv-x="952" />
<glyph unicode="&#x2003;" horiz-adv-x="1905" />
<glyph unicode="&#x2004;" horiz-adv-x="635" />
<glyph unicode="&#x2005;" horiz-adv-x="476" />
<glyph unicode="&#x2006;" horiz-adv-x="317" />
<glyph unicode="&#x2007;" horiz-adv-x="317" />
<glyph unicode="&#x2008;" horiz-adv-x="238" />
<glyph unicode="&#x2009;" horiz-adv-x="381" />
<glyph unicode="&#x200a;" horiz-adv-x="105" />
<glyph unicode="&#x2010;" horiz-adv-x="710" d="M90 485v226h528v-226h-528z" />
<glyph unicode="&#x2011;" horiz-adv-x="710" d="M90 485v226h528v-226h-528z" />
<glyph unicode="&#x2012;" horiz-adv-x="710" d="M90 485v226h528v-226h-528z" />
<glyph unicode="&#x2013;" horiz-adv-x="1216" d="M10 520v172h1186v-172h-1186z" />
<glyph unicode="&#x2014;" horiz-adv-x="1646" d="M12 520v172h1620v-172h-1620z" />
<glyph unicode="&#x2018;" horiz-adv-x="327" d="M45 985v55q0 153 46 257.5t114 156.5l108 -68q-55 -98 -55 -274v-127h-213z" />
<glyph unicode="&#x2019;" horiz-adv-x="344" d="M2 1059q39 54 60.5 112.5t21.5 153.5v127h238v-55q0 -85 -16.5 -154.5t-47 -120t-54 -78.5t-57.5 -59z" />
<glyph unicode="&#x201a;" horiz-adv-x="491" d="M143 -205q26 36 41 64t29 82t14 120v127h236v-55q0 -85 -16 -155t-46 -119.5t-54.5 -78.5t-57.5 -59z" />
<glyph unicode="&#x201c;" horiz-adv-x="655" d="M43 985v55q0 153 46 257.5t114 156.5l110 -68q-55 -98 -55 -274v-127h-215zM356 985v55q0 153 46 257.5t114 156.5l111 -68q-56 -100 -56 -274v-127h-215z" />
<glyph unicode="&#x201d;" horiz-adv-x="659" d="M2 1034q38 53 60 113.5t22 155.5v127h238v-56q0 -85 -16.5 -154.5t-47 -119.5t-54 -77.5t-57.5 -59.5zM315 1034q25 36 40 64.5t28.5 83.5t13.5 121v127h238v-56q0 -69 -12 -129.5t-29 -100.5t-43.5 -78.5t-45 -58.5t-44.5 -44z" />
<glyph unicode="&#x201e;" horiz-adv-x="870" d="M143 -203q26 36 41 64t29 82t14 120v127h236v-55q0 -85 -16 -154.5t-46 -119t-54 -78.5t-58 -59zM477 -201q39 54 60.5 113t21.5 154v127h238v-56q0 -69 -12 -129.5t-29 -100.5t-43.5 -78.5t-45 -58.5t-44.5 -44z" />
<glyph unicode="&#x2022;" horiz-adv-x="694" d="M139 342v410h416v-410h-416z" />
<glyph unicode="&#x2026;" horiz-adv-x="1630" d="M139 0v254h262v-254h-262zM684 0v254h262v-254h-262zM1227 0v254h262v-254h-262z" />
<glyph unicode="&#x202f;" horiz-adv-x="381" />
<glyph unicode="&#x2039;" horiz-adv-x="591" d="M76 356l313 371l121 -82l-199 -285l199 -272l-121 -88z" />
<glyph unicode="&#x203a;" horiz-adv-x="591" d="M80 88l199 272l-199 285l121 82l313 -371l-313 -356z" />
<glyph unicode="&#x205f;" horiz-adv-x="476" />
<glyph unicode="&#x20ac;" horiz-adv-x="1388" d="M63 512v129h187v121h-187v129h187v61q0 140 73 246t194.5 160.5t270.5 54.5q150 0 255 -33.5t198 -105.5l-115 -199q-141 96 -319 96q-120 0 -196 -62.5t-76 -172.5v-45h497v-129h-497v-121h497v-129h-497v-59q0 -116 75.5 -175t202.5 -59q192 0 311 84l107 -197 q-88 -68 -189 -97t-251 -29q-242 0 -391.5 118.5t-149.5 339.5v74h-187z" />
<glyph unicode="&#x2122;" horiz-adv-x="1128" d="M74 1333v101h387v-101h-139v-336h-111v336h-137zM547 1004v430h112l109 -185l109 185h114v-430h-108v253l-95 -159h-40l-91 162v-256h-110z" />
<glyph unicode="&#x25fc;" horiz-adv-x="1044" d="M0 0v1044h1044v-1044h-1044z" />
<glyph unicode="&#xfb03;" horiz-adv-x="2052" d="M43 862v182h125v127q0 80 36 142t98 100.5t141.5 58t170.5 19.5q237 0 441 -61q119 61 284 61q259 0 496 -78l-47 -194q-11 2 -82 14.5t-98.5 16.5t-90.5 9t-126 5q-110 0 -162.5 -35.5t-52.5 -110.5v-74h249v-182h-249v-862h-283v862h-442v-862h-283v862h-125zM451 1044 h442v127q0 45 10 76q-116 17 -237 17q-110 0 -162.5 -35.5t-52.5 -110.5v-74zM1614 0v1044h287v-1044h-287z" />
<glyph unicode="&#xfb04;" horiz-adv-x="2052" d="M43 862v182h125v127q0 80 36 142t98 100.5t141.5 58t170.5 19.5q220 0 441 -61q116 61 282 61q274 0 564 -98v-1393h-287v1249q-118 15 -223 15q-112 0 -163.5 -35.5t-51.5 -110.5v-74h249v-182h-249v-862h-283v862h-442v-862h-283v862h-125zM451 1044h442v127q0 43 8 76 q-112 17 -235 17q-110 0 -162.5 -35.5t-52.5 -110.5v-74z" />
</font>
</defs>
</svg>
