<?xml version="1.0" standalone="no"?>
<!DOCTYPE svg PUBLIC "-//W3C//DTD SVG 1.1//EN" "http://www.w3.org/Graphics/SVG/1.1/DTD/svg11.dtd" >
<svg xmlns="http://www.w3.org/2000/svg">
<metadata></metadata>
<defs>
<font id="bose_gothic_condensedoblique" horiz-adv-x="1077" >
<font-face units-per-em="2048" ascent="1536" descent="-512" />
<missing-glyph horiz-adv-x="442" />
<glyph unicode="&#xdf;" horiz-adv-x="1099" d="M68 0l161 1128q26 174 135.5 273.5t272.5 99.5q65 0 123 -19.5t105.5 -57t75.5 -99t28 -139.5q0 -43 -4 -66q-49 -43 -79 -74t-65 -78t-52 -100t-17 -114q0 -51 19.5 -86t64.5 -80q29 -32 45.5 -52.5t37 -54t30 -71t9.5 -82.5q0 -163 -103.5 -254.5t-270.5 -91.5 q-79 0 -149 38t-97 103l80 94q51 -100 176 -100q94 0 155.5 54t61.5 153q0 32 -6.5 57.5t-21.5 48t-27 36.5t-36 37t-36 36q-38 38 -58 80.5t-20 105.5q0 240 205 426q2 14 2 39q0 86 -56 128t-136 42q-90 0 -159.5 -68t-84.5 -172l-164 -1120h-145z" />
<glyph unicode="&#xfb01;" horiz-adv-x="980" d="M45 0l133 926h-96l16 118h99l20 144q20 135 138.5 207.5t289.5 72.5q138 0 268 -45l-45 -112q-121 22 -221 22q-126 0 -199.5 -41.5t-85.5 -122.5l-16 -125h182l-18 -118h-182l-133 -926h-150zM571 0l148 1044h153l-147 -1044h-154z" />
<glyph unicode="&#xfb02;" horiz-adv-x="1003" d="M45 0l133 926h-96l16 118h99l20 144q20 135 138.5 207.5t289.5 72.5q138 0 281 -47l-205 -1421h-150l193 1325q-70 8 -117 8q-126 0 -199.5 -41.5t-85.5 -122.5l-16 -125h182l-18 -118h-182l-133 -926h-150z" />
<glyph horiz-adv-x="0" />
<glyph horiz-adv-x="682" />
<glyph unicode="&#xd;" horiz-adv-x="442" />
<glyph unicode=" "  horiz-adv-x="442" />
<glyph unicode="&#x09;" horiz-adv-x="442" />
<glyph unicode="&#xa0;" horiz-adv-x="442" />
<glyph unicode="!" horiz-adv-x="538" d="M88 0l31 205h203l-31 -205h-203zM188 481l125 912h154l-141 -912h-138z" />
<glyph unicode="&#x22;" horiz-adv-x="610" d="M170 944l61 453h111l-70 -453h-102zM408 944l61 453h111l-70 -453h-102z" />
<glyph unicode="#" horiz-adv-x="1337" d="M82 319l16 111h289l129 401h-305l18 109h324l113 356h118l-110 -356h182l117 356h117l-115 -356h237l-18 -109h-254l-127 -401h264l-16 -111h-287l-98 -319h-121l98 319h-182l-102 -319h-119l98 319h-266zM506 430h186l127 401h-184z" />
<glyph unicode="$" horiz-adv-x="872" d="M23 209l114 80q21 -88 86.5 -128t143.5 -40q102 0 171.5 76.5t69.5 185.5q0 31 -7.5 58t-17 45.5t-30.5 41.5t-34.5 34.5t-44.5 37t-46 37.5q-50 42 -72.5 61.5t-63 62t-59.5 75t-35 79.5t-16 97q0 169 105.5 284t287.5 115q19 0 29 -2l58 195l118 -19l-59 -205 q105 -47 158 -155l-105 -90q-61 137 -213 137q-105 0 -170 -68.5t-65 -175.5q0 -26 4.5 -49t18 -45.5t22 -36.5t33.5 -37t34.5 -31.5t44 -36t43.5 -34.5q56 -45 90.5 -78t68.5 -77t49.5 -93t15.5 -107q0 -179 -108.5 -299t-287.5 -120q-4 0 -11 1t-11 1l-70 -240l-119 18 l70 244q-70 26 -121 77t-69 124z" />
<glyph unicode="%" horiz-adv-x="1499" d="M145 0l1035 1393h141l-1030 -1393h-146zM188 967q0 16 2 30l29 199q13 96 96.5 156.5t192.5 60.5q93 0 160 -54t67 -136q0 -15 -2 -27l-28 -199q-15 -97 -97.5 -157t-191.5 -60q-97 0 -162.5 52t-65.5 135zM307 991q0 -43 36 -68.5t91 -25.5q52 0 99.5 33t54.5 78l24 161 q4 28 4 33q0 42 -35.5 68t-88.5 26q-55 0 -103.5 -32.5t-54.5 -77.5l-23 -160q-1 -7 -2 -15.5t-1.5 -13t-0.5 -6.5zM743 168q0 17 2 31l29 198q13 96 96.5 156.5t192.5 60.5q93 0 160 -54t67 -136q0 -15 -2 -27l-28 -198q-15 -97 -97.5 -157t-191.5 -60q-97 0 -162.5 51.5 t-65.5 134.5zM862 193q0 -43 36 -69t91 -26q52 0 99.5 33t54.5 78l24 162q4 24 4 32q0 42 -35.5 68.5t-88.5 26.5q-55 0 -103.5 -33t-54.5 -78l-23 -160q-1 -7 -2 -15.5t-1.5 -12.5t-0.5 -6z" />
<glyph unicode="&#x26;" horiz-adv-x="1302" d="M61 252q0 70 18.5 127t65 111.5t80 85.5t107.5 92q8 7 12 10l123 102l-133 213l26 185q15 105 100.5 171t198.5 66q109 0 172.5 -58.5t63.5 -162.5q0 -63 -20.5 -122t-59 -112.5t-80 -96.5t-98.5 -91l219 -342l203 201l86 -90l-217 -222l166 -262l-115 -92l-156 248 l-28 -29q-97 -103 -201 -153.5t-229 -50.5q-141 0 -222.5 69t-81.5 203zM213 272q0 -151 174 -151q86 0 164.5 41.5t165.5 128.5l35 35l-220 352l-110 -94q-49 -41 -74 -64t-56 -56t-45 -59t-24 -60t-10 -73zM471 1036l102 -162q181 156 181 302q0 55 -28.5 80.5t-90.5 25.5 q-55 0 -97 -33.5t-49 -85.5z" />
<glyph unicode="'" horiz-adv-x="450" d="M215 985l61 469h123l-77 -469h-107z" />
<glyph unicode="(" horiz-adv-x="692" d="M117 43q0 75 12 154l102 704q32 225 134 394.5t251 252.5l58 -80q-112 -67 -194.5 -214.5t-112.5 -352.5l-103 -704q-12 -95 -12 -172q0 -276 156 -390l-80 -84q-100 68 -155.5 197t-55.5 295z" />
<glyph unicode=")" horiz-adv-x="706" d="M-10 -367q113 70 195.5 220t113.5 360l98 676q13 102 13 176q0 285 -150 397l76 88q98 -67 151.5 -199t53.5 -300q0 -73 -13 -162l-96 -676q-34 -226 -137 -400.5t-250 -256.5z" />
<glyph unicode="*" horiz-adv-x="788" d="M182 1192l41 92l195 -67l31 217h98l-31 -217l211 67l14 -92l-211 -66l99 -178l-84 -57l-99 178l-155 -178l-68 57l154 178z" />
<glyph unicode="+" horiz-adv-x="1163" d="M78 727l18 121h434l62 422h125l-60 -422h435l-19 -121h-434l-68 -461h-125l68 461h-436z" />
<glyph unicode="," horiz-adv-x="399" d="M-47 -203q43 54 66.5 106.5t37.5 141.5l19 115h133l-8 -54q-11 -76 -28.5 -133.5t-43.5 -100t-46 -66.5t-54 -58z" />
<glyph unicode="-" horiz-adv-x="583" d="M72 514l18 133h389l-20 -133h-387z" />
<glyph unicode="." horiz-adv-x="495" d="M49 0l29 203h196l-28 -203h-197z" />
<glyph unicode="/" horiz-adv-x="681" d="M-57 -174l651 1567h139l-653 -1567h-137z" />
<glyph unicode="0" horiz-adv-x="1028" d="M72 293q0 31 6 74l94 653q27 187 146.5 290t291.5 103q144 0 236 -86.5t92 -236.5q0 -41 -4 -70l-94 -653q-28 -189 -146 -288t-293 -99q-146 0 -237.5 82.5t-91.5 230.5zM223 307q0 -188 199 -188q104 0 178 63.5t92 184.5l94 653q5 36 5 61q0 191 -201 191 q-103 0 -176.5 -65.5t-91.5 -186.5l-95 -653q-4 -40 -4 -60z" />
<glyph unicode="1" horiz-adv-x="577" d="M154 0l180 1251h-146l19 142h295l-199 -1393h-149z" />
<glyph unicode="2" horiz-adv-x="909" d="M18 0l11 72q32 221 117 358t272 277q38 29 53 40t53.5 42.5t57 51t47 53t42.5 60.5t25 62.5t11 70.5q0 83 -55 124.5t-146 41.5q-66 0 -134 -40.5t-120 -100.5l-68 109q80 80 174 127t189 47q82 0 150.5 -28t114.5 -92.5t46 -156.5q0 -50 -11 -96.5t-25.5 -82.5t-46 -77 t-54 -66.5t-70 -66.5t-73 -61t-82.5 -64q-139 -106 -206.5 -204.5t-96.5 -262.5h526l-21 -137h-680z" />
<glyph unicode="3" horiz-adv-x="962" d="M31 250v20l135 35v-10q0 -84 60 -129t149 -45q55 0 103.5 16.5t86 55t45.5 94.5l27 176q2 14 2 26q0 80 -63 121t-150 41h-72l19 131h63q55 0 109 20t99 67.5t54 111.5l15 106q2 20 2 46q0 139 -183 139q-71 0 -139.5 -49.5t-85.5 -137.5l-125 33q27 131 138 213t241 82 q136 0 221.5 -65t85.5 -191q0 -19 -4 -55l-16 -113q-14 -100 -81 -173.5t-155 -102.5q78 -27 126 -80.5t48 -132.5q0 -19 -2 -39l-26 -187q-8 -60 -35 -109t-65.5 -82t-88.5 -55.5t-103.5 -33t-111.5 -10.5q-137 0 -230 72.5t-93 193.5z" />
<glyph unicode="4" horiz-adv-x="978" d="M4 326l21 139l618 928h168l-135 -926h196l-20 -141h-197l-47 -326h-147l47 326h-504zM170 467h358l97 666h-19z" />
<glyph unicode="5" horiz-adv-x="974" d="M76 274q0 25 2 43l141 27q-2 -16 -2 -37q0 -90 52.5 -139t144.5 -49q77 0 145.5 52.5t81.5 139.5l29 199q2 18 2 35q0 81 -51 124.5t-134 43.5h-311l164 680h543l-21 -142h-413l-99 -405h180q125 0 207 -77.5t82 -205.5q0 -21 -4 -57l-29 -197q-22 -154 -136.5 -241.5 t-254.5 -87.5q-145 0 -232 76.5t-87 217.5z" />
<glyph unicode="6" horiz-adv-x="1007" d="M70 270q0 20 4 56l108 743q23 157 143 250.5t283 93.5q92 0 169 -33.5t128 -95.5l-92 -110q-36 48 -93.5 74t-123.5 26q-100 0 -176.5 -55.5t-89.5 -149.5l-43 -289q54 50 125.5 77.5t144.5 27.5q124 0 212.5 -69t88.5 -193q0 -16 -4 -48l-39 -260q-13 -85 -54 -151 t-100 -105.5t-127 -59t-141 -19.5q-133 0 -228 76t-95 214zM219 287q0 -88 56 -129t139 -41q88 0 165 53.5t91 157.5l35 235q2 18 2 35q0 82 -57 121t-142 39t-162 -53.5t-90 -141.5l-35 -235q-2 -20 -2 -41z" />
<glyph unicode="7" horiz-adv-x="768" d="M100 1245l21 148h702l-14 -99l-537 -1294h-163l526 1245h-535z" />
<glyph unicode="8" horiz-adv-x="1052" d="M74 246q0 15 4 51l22 154q14 94 79.5 164t152.5 106q-58 30 -93.5 91t-35.5 136q0 13 4 45l14 92q11 80 49 143.5t93 102t119.5 58.5t133.5 20q81 0 150 -29t114.5 -92.5t45.5 -150.5q0 -16 -4 -52l-15 -96q-13 -89 -72.5 -160.5t-132.5 -107.5q68 -32 113 -92.5 t45 -141.5q0 -18 -2 -36l-22 -154q-10 -67 -39.5 -121.5t-70.5 -90.5t-94 -60t-108 -34.5t-114 -10.5q-88 0 -162 26.5t-124 88.5t-50 151zM225 270q0 -43 17.5 -73.5t48 -47t65 -23.5t74.5 -7q56 0 107.5 16t96 59.5t52.5 108.5l25 160q2 16 2 29q0 75 -57 119t-130 44h-37 q-81 0 -152.5 -52.5t-84.5 -139.5l-25 -158q-2 -18 -2 -35zM350 944q0 -73 46.5 -115.5t113.5 -42.5h37q73 0 135.5 53t73.5 138l14 94q4 20 4 39q0 81 -51.5 120.5t-126.5 39.5q-80 0 -148.5 -51t-82.5 -148l-13 -94q-2 -18 -2 -33z" />
<glyph unicode="9" horiz-adv-x="1019" d="M106 115l78 106q110 -102 246 -102q56 0 108.5 19t95.5 64t52 109l39 271q-50 -52 -121.5 -79.5t-140.5 -27.5q-83 0 -151.5 28t-113 88.5t-44.5 143.5q0 17 4 49l47 314q21 144 141.5 229.5t269.5 85.5q129 0 227.5 -75.5t98.5 -198.5q0 -13 -4 -41l-117 -803 q-12 -79 -52 -141t-97.5 -99t-124 -56t-137.5 -19q-87 0 -171 35.5t-133 99.5zM305 760q0 -77 57.5 -113.5t141.5 -36.5q80 0 154 49.5t85 131.5l41 284q4 32 4 43q0 71 -57.5 112.5t-134.5 41.5q-84 0 -159.5 -49.5t-86.5 -130.5l-43 -299q-2 -18 -2 -33z" />
<glyph unicode=":" horiz-adv-x="544" d="M84 0l33 225h188l-33 -225h-188zM207 842l33 223h188l-33 -223h-188z" />
<glyph unicode=";" horiz-adv-x="544" d="M12 -203q43 54 67 107t38 141l18 115h133l-8 -54q-11 -76 -28.5 -133.5t-43.5 -100t-46 -66.5t-54 -58zM207 842l33 223h188l-33 -223h-188z" />
<glyph unicode="&#x3c;" horiz-adv-x="1171" d="M88 498l920 546l36 -102l-731 -438l643 -418l-67 -102z" />
<glyph unicode="=" horiz-adv-x="1206" d="M72 477l18 123h977l-16 -123h-979zM137 920l17 122h979l-19 -122h-977z" />
<glyph unicode="&#x3e;" horiz-adv-x="1130" d="M29 82l719 426l-572 430l80 102l725 -530l-907 -533z" />
<glyph unicode="?" horiz-adv-x="718" d="M98 0l31 205h213l-29 -205h-215zM135 1276q62 56 143 96.5t162 40.5q131 0 200 -58.5t69 -172.5q0 -32 -4 -60l-15 -100q-4 -31 -16 -59t-25 -48t-35.5 -43t-38 -36.5t-43 -35.5t-40.5 -34q-70 -59 -101 -104t-41 -119l-20 -137h-146l25 161q11 83 49 135.5t121 122.5 q59 49 84.5 72.5t48 56t27.5 66.5l12 86q2 16 2 37q0 129 -150 129q-92 0 -225 -107z" />
<glyph unicode="@" horiz-adv-x="1374" d="M76 451q0 37 6 77q23 140 61 279q75 283 250.5 450.5t417.5 167.5q220 0 353.5 -133.5t133.5 -349.5q0 -44 -6 -94q-34 -248 -118.5 -378t-235.5 -130q-60 0 -105.5 30.5t-58.5 88.5q-37 -69 -102.5 -107.5t-139.5 -38.5q-85 0 -128.5 50t-43.5 126q0 6 5 46 q12 71 84 276q45 132 141 217.5t209 85.5q88 0 135 -43.5t47 -122.5q0 -25 -2 -37q-5 -32 -51 -168q-5 -14 -20 -58t-23 -71t-11 -45q0 -1 -1 -14t-1 -31q0 -34 22.5 -59t57.5 -25q90 0 149 99.5t89 312.5q6 40 6 80q0 178 -109 286.5t-290 108.5q-195 0 -336.5 -137.5 t-212.5 -388.5q-42 -141 -60 -269q-4 -23 -4 -65q0 -176 109.5 -282.5t288.5 -106.5q177 0 311 84l37 -88q-149 -92 -363 -92q-221 0 -356 128.5t-135 340.5zM471 518q0 -50 22 -76t58 -26q71 0 129.5 58t97.5 155q74 184 84 262q2 12 2 33q0 44 -22 66t-60 22 q-74 0 -140 -71.5t-101 -172.5q-70 -196 -70 -250z" />
<glyph unicode="A" horiz-adv-x="1009" d="M-51 0l581 1409h156l156 -1409h-156l-35 426h-377l-163 -426h-162zM326 559h309l-60 633z" />
<glyph unicode="B" horiz-adv-x="1048" d="M72 0l200 1393h349q120 0 204 -74t84 -207q0 -19 -4 -59l-10 -70q-13 -91 -67.5 -160t-125.5 -98q73 -33 116.5 -95t43.5 -151q0 -19 -4 -55l-14 -96q-25 -165 -130 -246.5t-251 -81.5h-391zM238 133h225q35 0 71 11t70.5 34t60 64.5t33.5 95.5l13 94q4 32 4 43 q0 87 -55 131.5t-144 44.5h-205zM330 778h196q81 0 144.5 52.5t77.5 146.5l10 70q4 32 4 45q0 90 -52.5 127.5t-131.5 37.5h-179z" />
<glyph unicode="C" horiz-adv-x="925" d="M70 289q0 31 6 69l96 664q26 181 152 286t297 105q109 0 191.5 -40t129.5 -116l-96 -108q-82 125 -238 125q-107 0 -189.5 -70.5t-99.5 -187.5l-94 -654q-4 -32 -4 -49q0 -97 60.5 -146.5t162.5 -49.5q167 0 269 96l59 -100q-69 -71 -155 -102t-201 -31 q-153 0 -249.5 79.5t-96.5 229.5z" />
<glyph unicode="D" horiz-adv-x="1042" d="M72 0l200 1393h324q160 0 265.5 -87t105.5 -245q0 -43 -4 -66l-89 -602q-15 -102 -59.5 -179.5t-110.5 -123t-145.5 -68t-171.5 -22.5h-315zM238 139h170q118 0 209.5 63.5t109.5 188.5l88 606q4 28 4 43q0 102 -69.5 156.5t-174.5 54.5h-176z" />
<glyph unicode="E" horiz-adv-x="892" d="M74 0l200 1393h564l-21 -142h-416l-69 -473h315l-20 -135h-314l-73 -504h465l-21 -139h-610z" />
<glyph unicode="F" horiz-adv-x="792" d="M74 0l200 1393h562l-21 -142h-414l-67 -458h315l-20 -138h-312l-96 -655h-147z" />
<glyph unicode="G" horiz-adv-x="1040" d="M72 309q0 22 4 58l94 647q28 194 151.5 296.5t296.5 102.5q216 0 332 -133l-78 -113q-32 27 -48.5 40t-50.5 31.5t-75.5 26t-95.5 7.5q-103 0 -184 -68.5t-99 -191.5l-94 -643q-2 -14 -2 -41q0 -95 58 -152t155 -57q156 0 240 63l59 420h-235l18 133h387l-90 -616 q-170 -139 -399 -139q-147 0 -245.5 91.5t-98.5 237.5z" />
<glyph unicode="H" horiz-adv-x="1153" d="M72 0l200 1393h148l-94 -650h495l94 650h150l-201 -1393h-149l88 604h-498l-88 -604h-145z" />
<glyph unicode="I" horiz-adv-x="565" d="M106 0l203 1393h146l-201 -1393h-148z" />
<glyph unicode="J" horiz-adv-x="905" d="M-14 252q0 5 1 15.5t1 15.5l151 22q-2 -10 -2 -31q0 -67 46.5 -111t115.5 -44q82 0 142 46t73 138l158 1090h149l-157 -1092q-24 -159 -125.5 -239t-253.5 -80q-130 0 -214.5 73.5t-84.5 196.5z" />
<glyph unicode="K" horiz-adv-x="1011" d="M74 0l200 1393h148l-103 -703l515 703h170l-476 -641l336 -752h-178l-274 637l-119 -137l-74 -500h-145z" />
<glyph unicode="L" horiz-adv-x="841" d="M72 0l200 1393h148l-182 -1254h499l-20 -139h-645z" />
<glyph unicode="M" horiz-adv-x="1366" d="M72 0l200 1393h166l215 -807l455 807h162l-203 -1393h-147l163 1130l-417 -761h-86l-199 757l-164 -1126h-145z" />
<glyph unicode="N" horiz-adv-x="1187" d="M72 0l200 1393h156l367 -1133l163 1133h140l-203 -1393h-154l-366 1133l-166 -1133h-137z" />
<glyph unicode="O" d="M80 299q0 43 4 68l94 653q27 184 151 288.5t298 104.5h35q148 0 243.5 -88.5t95.5 -239.5q0 -36 -4 -65l-94 -653q-27 -185 -149.5 -286t-300.5 -101h-31q-153 0 -247.5 85t-94.5 234zM227 317q0 -95 57.5 -146.5t157.5 -51.5h31q104 0 184 68t97 182l94 649q4 32 4 51 q0 96 -57 149.5t-154 53.5h-35q-105 0 -184 -68.5t-96 -185.5l-95 -649q-4 -36 -4 -52z" />
<glyph unicode="P" horiz-adv-x="1001" d="M74 0l200 1393h365q136 0 223.5 -83.5t87.5 -226.5q0 -38 -4 -67l-18 -129q-17 -119 -77 -199t-143.5 -114.5t-187.5 -34.5h-223l-78 -539h-145zM317 672h211q93 0 164.5 56.5t87.5 170.5l17 105q4 28 4 47q0 93 -52.5 146.5t-136.5 53.5h-211z" />
<glyph unicode="Q" d="M80 299q0 45 4 68l94 653q27 184 151 288.5t298 104.5h35q148 0 243.5 -88.5t95.5 -239.5q0 -42 -4 -65l-94 -653q-28 -184 -160 -291l91 -158l-95 -68l-96 166q-82 -36 -190 -36h-31q-153 0 -247.5 85t-94.5 234zM227 317q0 -95 57.5 -146.5t157.5 -51.5h31q52 0 102 16 l-90 160l97 70l92 -166q66 69 80 170l94 649q4 36 4 51q0 96 -57 149.5t-154 53.5h-35q-105 0 -184 -68.5t-96 -185.5l-95 -649q-4 -36 -4 -52z" />
<glyph unicode="R" horiz-adv-x="976" d="M72 0l200 1393h353q141 0 222 -74t81 -207q0 -42 -4 -65l-15 -107q-39 -262 -270 -315l178 -625h-158l-165 590h-189l-86 -590h-147zM326 725h200q93 0 155 52.5t77 148.5l16 118q4 28 4 41q0 78 -47.5 122t-136.5 44h-193z" />
<glyph unicode="S" horiz-adv-x="899" d="M23 209l114 78q21 -88 86.5 -128t143.5 -40q100 0 168.5 77t68.5 187q0 25 -4 47t-15.5 43t-19 34t-29 34.5t-30.5 29.5t-39 33t-39 33q-40 33 -54.5 45.5t-49 44t-48.5 49t-37 49t-33 57.5t-18 60t-8 70q0 169 106 284t289 115q104 0 183.5 -48.5t120.5 -137.5l-105 -86 q-61 137 -213 137q-107 0 -170 -70t-63 -178q0 -75 45 -130t153 -140q56 -44 91 -77.5t69 -77t50 -93t16 -107.5q0 -181 -109 -300t-289 -119q-53 0 -104.5 14t-97.5 40.5t-80.5 70.5t-48.5 100z" />
<glyph unicode="T" horiz-adv-x="931" d="M115 1251l20 142h852l-20 -142h-346l-183 -1251h-147l182 1251h-358z" />
<glyph unicode="U" horiz-adv-x="1150" d="M111 303q0 27 6 68l147 1022h150l-148 -1024q-4 -36 -4 -50q0 -100 65 -150t167 -50q98 0 180 67t100 183l148 1024h147l-147 -1022q-28 -195 -149 -293t-300 -98q-154 0 -258 84t-104 239z" />
<glyph unicode="V" horiz-adv-x="886" d="M145 1393h162l60 -1168l407 1168h160l-526 -1393h-150z" />
<glyph unicode="W" horiz-adv-x="1359" d="M178 0v1393h154l-23 -1176l391 1176h138l47 -1178l319 1178h156l-412 -1393h-174l-41 1139l-381 -1139h-174z" />
<glyph unicode="X" horiz-adv-x="894" d="M-39 0l393 698l-166 695h166l113 -572l293 572h164l-381 -695l178 -698h-166l-123 575l-303 -575h-168z" />
<glyph unicode="Y" horiz-adv-x="878" d="M164 1393h162l106 -691l311 691h166l-426 -846l-77 -547h-150l78 547z" />
<glyph unicode="Z" horiz-adv-x="921" d="M-10 0l12 90l703 1161h-508l20 142h686l-14 -95l-703 -1159h551l-20 -139h-727z" />
<glyph unicode="[" horiz-adv-x="542" d="M20 -338l250 1731h289l-18 -121h-152l-217 -1491h145l-18 -119h-279z" />
<glyph unicode="\" horiz-adv-x="651" d="M168 1393h141l189 -1393h-142z" />
<glyph unicode="]" horiz-adv-x="538" d="M-41 -324l16 121h144l213 1471h-146l19 125h282l-249 -1717h-279z" />
<glyph unicode="^" horiz-adv-x="811" d="M133 899l379 516l217 -514l-108 -27l-140 334l-243 -334z" />
<glyph unicode="_" d="M-20 -168l16 113h854l-16 -113h-854z" />
<glyph unicode="`" horiz-adv-x="489" d="M190 1378l123 78l148 -301l-92 -57z" />
<glyph unicode="a" horiz-adv-x="866" d="M31 197q0 19 4 55l6 47q41 300 545 311l18 129q6 37 6 66q0 64 -29.5 94.5t-97.5 30.5q-58 0 -139.5 -25t-118.5 -51l-26 117q55 38 153 67t174 29q116 0 175 -66t59 -182q0 -33 -6 -71l-107 -748h-125l8 154q-38 -67 -115.5 -117.5t-181.5 -50.5q-96 0 -149 55t-53 156z M182 225q0 -110 111 -110q85 0 163 60.5t87 129.5l28 197q-184 -6 -275.5 -55t-105.5 -148l-4 -25q-4 -32 -4 -49z" />
<glyph unicode="b" horiz-adv-x="931" d="M27 0l204 1413h148l-68 -473q45 62 112 93.5t140 31.5q114 0 184 -70.5t70 -191.5q0 -35 -4 -64l-61 -432q-23 -159 -115 -242t-231 -83q-71 0 -130.5 31.5t-85.5 97.5l-32 -111h-131zM215 268q0 -77 50.5 -115t127.5 -38q80 0 138 49.5t71 138.5l62 426q4 28 4 53 q0 72 -42.5 111t-111.5 39q-85 0 -151.5 -49t-79.5 -140l-66 -442q-2 -14 -2 -33z" />
<glyph unicode="c" horiz-adv-x="772" d="M39 233q0 14 4 50l68 473q21 148 126.5 228.5t256.5 80.5q81 0 148.5 -37.5t96.5 -97.5l-90 -99q-50 93 -164 93q-84 0 -150 -48.5t-77 -132.5l-65 -448q-3 -27 -3 -29q0 -53 29.5 -87.5t67.5 -47t82 -12.5q112 0 192 71l53 -106q-110 -102 -278 -102q-122 0 -209.5 64 t-87.5 187z" />
<glyph unicode="d" horiz-adv-x="937" d="M53 240q0 40 4 67l64 432q23 155 116 240.5t230 85.5q67 0 126.5 -32t88.5 -93l68 473h147l-205 -1413h-131v111q-47 -66 -113.5 -97.5t-136.5 -31.5q-118 0 -188 68t-70 190zM203 262q0 -73 41.5 -110t115.5 -37q80 0 148.5 49t81.5 137l63 442q2 18 2 35q0 78 -50 116 t-130 38q-76 0 -134.5 -51t-70.5 -138l-63 -440q-4 -28 -4 -41z" />
<glyph unicode="e" horiz-adv-x="872" d="M45 260q0 15 4 47l66 451q14 91 74 162t142 107t169 36q118 0 199 -73t81 -187q0 -17 -4 -45l-37 -254h-512l-28 -195q-2 -16 -2 -30q0 -78 57.5 -117t146.5 -39q70 0 130 20.5t96 53.5l47 -107q-65 -56 -136 -79t-165 -23q-84 0 -157 29.5t-122 93t-49 149.5zM244 623 h372l19 135q2 16 2 26q0 63 -44 103.5t-114 40.5q-77 0 -140 -48.5t-75 -125.5z" />
<glyph unicode="f" horiz-adv-x="509" d="M45 0l133 926h-96l16 118h99l18 127q21 143 107.5 217t201.5 74q35 0 77 -10.5t65 -28.5l-43 -118q-33 20 -91 20q-64 0 -111 -41.5t-59 -118.5l-16 -121h182l-18 -118h-182l-133 -926h-150z" />
<glyph unicode="g" horiz-adv-x="919" d="M-43 -240q0 98 58.5 174t158.5 105q-84 44 -84 125q0 118 119 192q-103 68 -103 217q0 35 5 64l14 94q24 163 129 246.5t252 83.5q99 0 170 -41l217 61l22 -112l-153 -35q37 -58 37 -139q0 -22 -4 -62l-15 -102q-24 -162 -125.5 -243t-244.5 -81q-58 0 -97 8 q-86 -34 -86 -108q0 -40 32 -61t91 -35l373 -95l-31 -217q-13 -88 -73 -148t-139 -85t-171 -25h-45q-133 0 -220 55t-87 164zM104 -211q0 -62 52 -88.5t129 -26.5h47q91 0 147 37.5t64 91.5l16 117l-233 62q-57 -3 -100 -20.5t-65.5 -39.5t-36 -49.5t-17 -47t-3.5 -36.5z M254 582q0 -73 45 -112.5t125 -39.5q75 0 134 48t73 145q16 112 16 131q0 84 -45 126t-115 42q-75 0 -137.5 -48.5t-75.5 -138.5l-16 -112q-4 -28 -4 -41z" />
<glyph unicode="h" horiz-adv-x="997" d="M53 0l205 1413h148l-76 -512q56 78 134 120t161 42q109 0 169 -61t60 -175q0 -25 -6 -69l-111 -758h-147l108 750q4 28 4 41q0 65 -34 98t-97 33q-95 0 -175 -61.5t-93 -151.5l-102 -709h-148z" />
<glyph unicode="i" horiz-adv-x="507" d="M80 0l151 1044h150l-152 -1044h-149zM256 1264l23 149h161l-20 -149h-164z" />
<glyph unicode="j" horiz-adv-x="524" d="M-176 -283q145 52 206 130t87 253l137 944h149l-139 -956q-22 -156 -71.5 -252.5t-129.5 -152.5t-217 -99zM281 1264l20 149h154l-23 -149h-151z" />
<glyph unicode="k" horiz-adv-x="811" d="M51 0l205 1413h150l-115 -780h63l299 411h156l-340 -475l215 -569h-152l-188 492h-74l-69 -492h-150z" />
<glyph unicode="l" horiz-adv-x="509" d="M78 0l205 1413h149l-205 -1413h-149z" />
<glyph unicode="m" horiz-adv-x="1531" d="M55 0l152 1044h123l-13 -137q52 69 132.5 112.5t164.5 43.5q87 0 145.5 -38t71.5 -116q118 154 312 154q111 0 172 -59.5t61 -169.5q0 -35 -4 -62l-110 -772h-150l109 748q2 18 2 36q0 66 -33.5 103t-97.5 37q-96 0 -170 -54t-88 -151l-103 -719h-149l110 760q4 28 4 39 q0 62 -34 93.5t-95 31.5q-79 0 -164.5 -66t-97.5 -149l-102 -709h-148z" />
<glyph unicode="n" horiz-adv-x="991" d="M53 0l152 1044h127l-13 -151q122 170 299 170q108 0 169 -63t61 -179q0 -23 -6 -73l-107 -748h-149l106 735q4 28 4 51q0 138 -131 138q-79 0 -163 -64t-97 -151l-102 -709h-150z" />
<glyph unicode="o" horiz-adv-x="905" d="M43 244q0 17 4 45l68 471q21 141 131.5 222t255.5 81q125 0 211 -71.5t86 -188.5q0 -15 -4 -43l-68 -471q-21 -142 -131 -223.5t-252 -81.5q-122 0 -211.5 71t-89.5 189zM195 264q0 -68 48.5 -105.5t121.5 -37.5q74 0 139.5 47.5t75.5 122.5l67 467q2 14 2 24 q0 65 -49 102.5t-119 37.5q-76 0 -141.5 -45t-75.5 -119l-67 -467q-2 -16 -2 -27z" />
<glyph unicode="p" horiz-adv-x="923" d="M-47 -451l217 1495h129v-114q47 67 114 100t138 33q116 0 186 -70t70 -194q0 -37 -4 -66l-64 -432q-23 -155 -115.5 -238t-230.5 -83q-70 0 -127.5 29.5t-85.5 90.5l-80 -551h-147zM205 262q0 -77 50 -114t130 -37q75 0 134.5 51t72.5 139l61 432q4 40 4 43 q0 75 -41.5 113.5t-113.5 38.5q-82 0 -150.5 -50.5t-81.5 -138.5l-63 -442q-2 -18 -2 -35z" />
<glyph unicode="q" horiz-adv-x="923" d="M53 240q0 15 4 61l62 432q23 159 116 244.5t232 85.5q68 0 128 -32t87 -95l31 108h131l-217 -1495h-148l80 551q-92 -120 -250 -120q-116 0 -186 69t-70 191zM203 258q0 -71 41.5 -109t111.5 -38q84 0 151.5 47.5t80.5 138.5l65 442q2 18 2 33q0 75 -51 115.5t-127 40.5 q-78 0 -137 -51t-72 -140l-63 -440q-2 -14 -2 -39z" />
<glyph unicode="r" horiz-adv-x="593" d="M59 0l152 1044h127l-10 -176q37 85 97.5 141t135.5 56q35 0 60 -14l-41 -160q-21 6 -58 6q-77 0 -143 -92t-82 -205l-88 -600h-150z" />
<glyph unicode="s" horiz-adv-x="768" d="M0 109l90 104q70 -104 197 -104q84 0 132 51t48 139q0 49 -31.5 86.5t-111.5 77.5q-102 52 -148.5 111t-46.5 145q0 148 89 247t235 99q150 0 252 -94l-76 -111q-29 25 -47 37.5t-53 24.5t-78 12q-75 0 -125 -53t-50 -142q0 -52 30 -86.5t104 -70.5q109 -51 155.5 -115 t46.5 -150q0 -144 -86.5 -240.5t-242.5 -96.5q-83 0 -161 31.5t-122 97.5z" />
<glyph unicode="t" horiz-adv-x="614" d="M109 926l16 118h117l39 271h149l-39 -271h164l-16 -118h-164l-99 -674q-1 -6 -1.5 -13t-1 -10.5t-1 -8t-0.5 -7.5q0 -44 23.5 -62t71.5 -18q60 0 112 29l23 -123q-92 -45 -193 -45q-190 0 -190 174q0 19 4 59l102 699h-116z" />
<glyph unicode="u" horiz-adv-x="991" d="M98 233q0 16 4 52l111 759h147l-108 -757q-2 -18 -2 -33q0 -69 46.5 -102t119.5 -33q51 0 94.5 16.5t77 55.5t41.5 96l110 757h146l-109 -759q-22 -150 -128.5 -227.5t-252.5 -77.5q-127 0 -212 66t-85 187z" />
<glyph unicode="v" horiz-adv-x="837" d="M94 1044h156l98 -841l334 841h152l-445 -1044h-141z" />
<glyph unicode="w" horiz-adv-x="1247" d="M111 1044h151l25 -849l313 849h125l74 -847l268 847h147l-372 -1044h-144l-67 805l-301 -805h-146z" />
<glyph unicode="x" horiz-adv-x="806" d="M-66 0l349 522l-181 522h162l127 -413l244 413h170l-338 -522l199 -522h-162l-146 412l-264 -412h-160z" />
<glyph unicode="y" horiz-adv-x="833" d="M-43 -436l4 125q64 0 132 47t106 143l37 84l-136 1081h160l86 -860l322 860h157l-473 -1159q-66 -160 -162 -240t-233 -81z" />
<glyph unicode="z" horiz-adv-x="774" d="M-8 0l14 98l502 820h-373l19 126h532l-12 -86l-500 -827h418l-19 -131h-581z" />
<glyph unicode="{" horiz-adv-x="616" d="M90 -16q0 56 19 127l104 393l-76 96l107 117l2 344q1 152 92 269.5t248 187.5l43 -88q-117 -61 -183 -156t-67 -209l-8 -365l-86 -94l61 -84l-106 -418q-13 -54 -13 -94q0 -87 42 -157.5t118 -116.5l-72 -92q-225 126 -225 340z" />
<glyph unicode="|" horiz-adv-x="466" d="M27 -301l245 1694h127l-245 -1694h-127z" />
<glyph unicode="}" horiz-adv-x="630" d="M8 -264q260 155 266 368l15 420l84 82l-60 92l101 367q12 43 12 84q0 155 -166 278l64 89q231 -131 231 -342q0 -61 -16 -113l-101 -344l76 -117l-106 -96l-7 -393q-2 -135 -89.5 -254.5t-260.5 -208.5z" />
<glyph unicode="~" horiz-adv-x="802" d="M188 1276q46 65 91 96t100 31q43 0 124.5 -47t123.5 -47q46 0 90 67l74 -57q-87 -131 -179 -131q-44 0 -88.5 23.5t-86 47t-77.5 23.5q-51 0 -104 -72z" />
<glyph unicode="&#xa1;" horiz-adv-x="538" d="M72 -360l143 931h137l-127 -931h-153zM217 836l31 204h203l-31 -204h-203z" />
<glyph unicode="&#xa2;" horiz-adv-x="849" d="M45 231q0 16 4 52l70 473q21 148 126.5 228.5t258.5 80.5l76 258l110 -18l-80 -258q94 -34 138 -117l-93 -99q-47 93 -161 93q-84 0 -150.5 -48.5t-77.5 -132.5l-65 -448q-2 -10 -2 -31q0 -40 16.5 -70t44 -45.5t56.5 -22.5t61 -7q115 0 192 71l54 -106 q-111 -102 -279 -102q-21 0 -29 2l-73 -248l-107 16l78 250q-77 26 -122.5 83.5t-45.5 145.5z" />
<glyph unicode="&#xa3;" horiz-adv-x="983" d="M53 0l15 104q158 4 229.5 87t79.5 231l10 182h-235l18 121h223l17 272q7 123 73.5 217.5t167.5 143t219 49.5l-20 -141q-114 0 -199 -73t-92 -192l-16 -276h252l-19 -121h-237q-5 -120 -11 -166q-13 -109 -41.5 -178t-103.5 -121h401l-20 -139h-711z" />
<glyph unicode="&#xa5;" horiz-adv-x="911" d="M8 317l12 95h302l18 135l-6 26h-289l14 97h256l-145 723h162l106 -691l312 691h163l-362 -723h311l-12 -97h-346l-15 -26l-18 -135h354l-12 -95h-356l-47 -317h-148l45 317h-299z" />
<glyph unicode="&#xa6;" horiz-adv-x="466" d="M37 -229l98 669h127l-96 -669h-129zM178 741l98 672h127l-98 -672h-127z" />
<glyph unicode="&#xa7;" horiz-adv-x="1093" d="M-2 -252l98 68q23 -69 99.5 -115.5t169.5 -46.5q112 0 198 67.5t86 186.5q0 34 -12 66t-28 57t-47 51.5t-54 43.5t-65.5 40.5t-64.5 34t-67 32.5q-53 25 -90.5 49.5t-74 61t-55.5 86t-19 111.5q0 107 57 195t156 122q-37 59 -37 152q0 184 118 292.5t306 108.5 q120 0 210.5 -51t127.5 -139l-88 -72q-31 68 -100 107.5t-163 39.5q-108 0 -196 -72t-88 -188q0 -34 8.5 -63.5t28 -54t38 -43t51 -38t53.5 -31t59.5 -30.5t56.5 -28q49 -26 85 -48t74.5 -53.5t63 -64t40 -75.5t15.5 -91q0 -110 -54 -199.5t-159 -130.5q41 -65 41 -147 q0 -179 -120.5 -289.5t-303.5 -110.5q-123 0 -222 57.5t-132 151.5zM197 559q0 -45 15.5 -80t49 -62.5t65 -45.5t85.5 -43q158 -71 247 -146q69 10 116.5 71t47.5 136q0 43 -15 76.5t-50 63.5t-71.5 52.5t-100.5 55.5q-149 76 -221 137q-73 -10 -120.5 -72.5t-47.5 -142.5z " />
<glyph unicode="&#xa8;" horiz-adv-x="714" d="M184 1190l23 158h143l-22 -158h-144zM526 1190l23 158h143l-24 -158h-142z" />
<glyph unicode="&#xa9;" horiz-adv-x="1634" d="M104 604q0 158 61.5 308.5t167 265.5t256.5 184.5t318 69.5q164 0 300 -79.5t215 -220.5t79 -313q0 -158 -62 -307.5t-167 -262t-255.5 -181t-316.5 -68.5t-302.5 77.5t-215 216t-78.5 310.5zM199 612q0 -230 145 -374t373 -144q179 0 339.5 102t255.5 269t95 350 q0 228 -144 373t-370 145q-135 0 -263.5 -61t-222.5 -160t-151 -231t-57 -269zM434 606q0 7 19 139q22 142 142.5 239t270.5 97q193 0 279 -135l-74 -82q-30 48 -92 77.5t-127 29.5q-99 0 -186 -68t-99 -158q-14 -109 -14 -129q0 -87 64 -138.5t161 -53.5q62 0 132 24 t120 66l43 -88q-60 -54 -145 -83.5t-168 -29.5q-138 0 -232 83.5t-94 209.5z" />
<glyph unicode="&#xaa;" horiz-adv-x="677" d="M139 913q0 21 6 56q14 83 105.5 130t279.5 54l9 57q2 10 2 29q0 38 -22 54t-73 16q-47 0 -102.5 -14.5t-91.5 -34.5l-21 92q46 24 111.5 41.5t128.5 17.5q87 0 134.5 -43t47.5 -117q0 -20 -2 -32l-61 -433h-84l2 78q-81 -86 -201 -86q-81 0 -124.5 36t-43.5 99zM254 932 q0 -53 90 -53q57 0 106 28.5t54 63.5l14 90q-118 -6 -187 -34.5t-75 -70.5q-2 -14 -2 -24z" />
<glyph unicode="&#xab;" horiz-adv-x="937" d="M61 356l365 369l49 -72l-268 -293l184 -286l-69 -74zM399 356l361 369l49 -72l-266 -293l182 -286l-70 -74z" />
<glyph unicode="&#xac;" horiz-adv-x="909" d="M92 578l17 110h677l-45 -307h-104l29 197h-574z" />
<glyph unicode="&#xad;" horiz-adv-x="583" d="M72 514l18 133h389l-20 -133h-387z" />
<glyph unicode="&#xae;" horiz-adv-x="1634" d="M104 604q0 158 61.5 308.5t167 265.5t256.5 184.5t318 69.5q164 0 300 -79.5t215 -220.5t79 -313q0 -158 -62 -307.5t-167 -262t-255.5 -181t-316.5 -68.5t-302.5 77.5t-215 216t-78.5 310.5zM199 612q0 -230 145 -374t373 -144q179 0 339.5 102t255.5 269t95 350 q0 228 -144 373t-370 145q-135 0 -263.5 -61t-222.5 -160t-151 -231t-57 -269zM496 319l114 787h316q82 0 138 -56t56 -139q0 -20 -6 -63q-12 -79 -67.5 -132t-137.5 -67l152 -330h-125l-145 320h-146l-45 -320h-104zM657 731h201q51 0 99.5 32.5t54.5 82.5q4 37 4 47 q0 48 -33.5 80.5t-85.5 32.5h-201z" />
<glyph unicode="&#xaf;" horiz-adv-x="944" d="M297 1303l12 92h510l-12 -92h-510z" />
<glyph unicode="&#xb0;" horiz-adv-x="692" d="M172 1118l10 80q13 95 89 154t175 61q97 -2 155.5 -62.5t45.5 -152.5l-10 -80q-15 -94 -91.5 -151.5t-172.5 -57.5q-95 0 -154.5 59.5t-46.5 149.5zM279 1114q-6 -45 28 -74.5t80 -29.5q45 0 89 30.5t50 73.5l15 92q6 44 -30 74.5t-79 30.5q-44 0 -89.5 -31.5 t-51.5 -73.5z" />
<glyph unicode="&#xb1;" horiz-adv-x="1105" d="M8 0l17 109h868l-16 -109h-869zM113 627l16 114h352l51 349h117l-49 -349h363l-17 -114h-362l-56 -371h-116l53 371h-352z" />
<glyph unicode="&#xb2;" horiz-adv-x="722" d="M127 678l12 84q8 56 30 101t56.5 78.5t71.5 57.5t86 48q38 18 61 31.5t53.5 36.5t46 50.5t15.5 59.5q0 78 -94 78q-121 0 -211 -97l-47 78q50 55 124.5 91t153.5 36q94 0 144.5 -45t50.5 -119q0 -52 -16 -94t-48 -74t-65.5 -55t-81.5 -47q-38 -20 -55.5 -30t-48 -30 t-46 -36.5t-30.5 -41t-21 -51.5h375l-14 -110h-502z" />
<glyph unicode="&#xb3;" horiz-adv-x="669" d="M123 827l90 35q1 -50 46 -79t110 -29q56 0 96 22.5t47 69.5q6 40 6 45q0 46 -37 72t-86 26h-100l14 96h90q135 0 152 105q4 23 4 37q0 78 -117 78q-61 0 -109.5 -27t-64.5 -80l-74 39q27 82 105 129t170 47q87 0 149 -41.5t62 -124.5q0 -20 -4 -49q-19 -126 -150 -162 q46 -13 80.5 -46.5t34.5 -88.5q0 -20 -6 -57q-33 -197 -264 -197q-97 0 -169 50.5t-75 129.5z" />
<glyph unicode="&#xb4;" horiz-adv-x="505" d="M172 1153l238 293l94 -72l-254 -270z" />
<glyph unicode="&#xb6;" horiz-adv-x="1050" d="M156 997q0 15 4 43l10 64q21 127 112.5 206.5t231.5 82.5h438l-202 -1393h-99l189 1303h-168l-191 -1303h-100l111 766h-68q-119 0 -193.5 61.5t-74.5 169.5z" />
<glyph unicode="&#xb7;" horiz-adv-x="495" d="M106 408l29 202h197l-29 -202h-197z" />
<glyph unicode="&#xb8;" horiz-adv-x="475" d="M-45 -428q147 52 158 127q14 107 -123 137l61 164h105l-43 -100q10 -4 19.5 -9t30.5 -21.5t34.5 -36t22.5 -52.5t3 -72q-22 -152 -241 -217z" />
<glyph unicode="&#xb9;" horiz-adv-x="460" d="M174 1274l16 119h236l-100 -705h-123l84 586h-113z" />
<glyph unicode="&#xba;" horiz-adv-x="745" d="M154 981q0 13 2 29l26 180q13 96 98.5 159.5t192.5 63.5q92 0 159.5 -56.5t67.5 -139.5q0 -13 -2 -27l-26 -182q-15 -99 -98.5 -160.5t-192.5 -61.5q-95 0 -161 54.5t-66 140.5zM268 997q0 -52 34.5 -80t94.5 -28q56 0 106.5 33t57.5 82q29 176 29 196q0 49 -37.5 78 t-93.5 29q-59 0 -109 -31.5t-57 -81.5q-25 -172 -25 -197z" />
<glyph unicode="&#xbb;" horiz-adv-x="925" d="M0 74l264 286l-182 293l70 72l258 -369l-363 -356zM336 74l264 286l-182 293l69 72l256 -369l-360 -356z" />
<glyph unicode="&#xbc;" horiz-adv-x="1230" d="M12 0l1032 1393h140l-1024 -1393h-148zM250 1274l16 119h236l-101 -705h-122l83 586h-112zM543 164l12 82l346 483h158l-68 -467h115l-14 -98h-115l-23 -164h-116l22 164h-317zM680 262h194l48 330h-13z" />
<glyph unicode="&#xbd;" horiz-adv-x="1302" d="M10 0l1034 1393h142l-1030 -1393h-146zM250 1274l16 119h236l-101 -705h-122l83 586h-112zM645 0l12 84q8 56 30 101t56.5 78.5t71.5 57.5t86 48q38 18 61 31.5t53.5 36.5t46 50.5t15.5 59.5q0 78 -94 78q-121 0 -211 -97l-47 78q50 55 125 91t154 36q94 0 144 -45 t50 -119q0 -52 -16 -94t-48 -74t-65.5 -55t-81.5 -47q-30 -16 -40 -21.5t-36 -20.5t-36.5 -23.5t-29 -24t-27.5 -29t-18.5 -31.5t-13.5 -38h375l-14 -111h-502z" />
<glyph unicode="&#xbe;" horiz-adv-x="1368" d="M109 827l90 35q1 -50 45.5 -79t109.5 -29q56 0 96.5 23t47.5 69q6 40 6 45q0 46 -37 72t-86 26h-100l14 96h90q135 0 152 105q4 23 4 37q0 78 -117 78q-61 0 -109.5 -27t-64.5 -80l-74 39q27 82 105 129t170 47q87 0 149 -41.5t62 -124.5q0 -13 -5 -49 q-19 -127 -149 -162q46 -13 80.5 -46.5t34.5 -88.5q0 -13 -7 -57q-33 -197 -264 -197q-97 0 -168.5 50.5t-74.5 129.5zM137 0l1034 1393h142l-1030 -1393h-146zM649 166l13 82l348 483h155l-67 -467h112l-14 -98h-113l-22 -164h-119l25 164h-318zM786 264h195l47 330h-12z " />
<glyph unicode="&#xbf;" horiz-adv-x="718" d="M10 -168q0 31 4 59l15 101q4 31 16 59t25 48t35.5 43t38 36.5t43 35.5t40.5 34q70 59 101 104t41 119l20 137h146l-25 -162q-11 -83 -49 -135.5t-121 -122.5q-47 -39 -66 -56t-44.5 -43.5t-35.5 -47.5t-14 -47l-12 -86q-2 -16 -2 -37q0 -129 149 -129q94 0 226 106 l43 -110q-62 -56 -143 -96.5t-162 -40.5q-131 0 -200 58.5t-69 172.5zM377 836l29 204h215l-31 -204h-213z" />
<glyph unicode="&#xc0;" horiz-adv-x="1009" d="M-51 0l581 1409h156l156 -1409h-156l-35 426h-377l-163 -426h-162zM326 559h309l-60 633zM444 1796l123 78l148 -301l-92 -57z" />
<glyph unicode="&#xc1;" horiz-adv-x="1009" d="M-51 0l581 1409h156l156 -1409h-156l-35 426h-377l-163 -426h-162zM326 559h309l-60 633zM547 1559l237 292l95 -71l-254 -271z" />
<glyph unicode="&#xc2;" horiz-adv-x="1009" d="M-51 0l581 1409h156l156 -1409h-156l-35 426h-377l-163 -426h-162zM326 559h309l-60 633zM371 1577l274 174l229 -174l-67 -76l-176 127l-217 -125z" />
<glyph unicode="&#xc3;" horiz-adv-x="1009" d="M-51 0l581 1409h156l156 -1409h-156l-35 426h-377l-163 -426h-162zM326 559h309l-60 633zM328 1587q47 65 91 96t99 31q43 0 124.5 -47t123.5 -47q45 0 90 68l74 -58q-87 -131 -178 -131q-44 0 -88.5 23.5t-86 47t-77.5 23.5q-52 0 -105 -71z" />
<glyph unicode="&#xc4;" horiz-adv-x="1009" d="M-51 0l581 1409h156l156 -1409h-156l-35 426h-377l-163 -426h-162zM326 559h309l-60 633zM383 1561l23 157h143l-23 -157h-143zM725 1561l23 157h143l-25 -157h-141z" />
<glyph unicode="&#xc5;" horiz-adv-x="1009" d="M-51 0l581 1409h156l156 -1409h-156l-35 426h-377l-163 -426h-162zM326 559h309l-60 633zM479 1661q9 68 61.5 113t116.5 45q62 0 103 -46t31 -112q-9 -68 -62 -114t-119 -46q-61 0 -100.5 47.5t-30.5 112.5zM553 1657q-4 -36 16.5 -59t53.5 -23q32 0 61 24t33 58 q5 36 -16 62t-54 26q-31 0 -59.5 -26.5t-34.5 -61.5z" />
<glyph unicode="&#xc6;" horiz-adv-x="1667" d="M-72 0l990 1393h694l-21 -142h-493l-68 -465h406l-19 -133h-405l-74 -514h541l-19 -139h-690l55 385h-450l-275 -385h-172zM459 518h387l102 713z" />
<glyph unicode="&#xc7;" horiz-adv-x="925" d="M70 283q0 35 6 75l94 664q26 181 153 286t298 105q220 0 321 -156l-96 -108q-82 125 -238 125q-109 0 -190.5 -70.5t-98.5 -187.5l-94 -654q-4 -32 -4 -49q0 -97 60.5 -146.5t162.5 -49.5q165 0 269 96l59 -100q-65 -65 -141 -95.5t-176 -35.5l-35 -82q45 -19 78.5 -58.5 t33.5 -101.5q0 -94 -66.5 -155t-176.5 -93l-27 80q160 56 160 147q0 36 -23 63t-49 38t-53 16l55 148q-131 14 -206.5 90.5t-75.5 208.5z" />
<glyph unicode="&#xc8;" horiz-adv-x="892" d="M74 0l200 1393h564l-21 -142h-416l-69 -473h315l-20 -135h-314l-73 -504h465l-21 -139h-610zM424 1778l123 77l147 -301l-92 -57z" />
<glyph unicode="&#xc9;" horiz-adv-x="892" d="M74 0l200 1393h564l-21 -142h-416l-69 -473h315l-20 -135h-314l-73 -504h465l-21 -139h-610zM526 1540l238 293l94 -72l-254 -270z" />
<glyph unicode="&#xca;" horiz-adv-x="892" d="M74 0l200 1393h564l-21 -142h-416l-69 -473h315l-20 -135h-314l-73 -504h465l-21 -139h-610zM350 1559l275 174l229 -174l-68 -76l-176 127l-217 -125z" />
<glyph unicode="&#xcb;" horiz-adv-x="892" d="M74 0l200 1393h564l-21 -142h-416l-69 -473h315l-20 -135h-314l-73 -504h465l-21 -139h-610zM360 1542l23 158h143l-22 -158h-144zM702 1542l23 158h143l-24 -158h-142z" />
<glyph unicode="&#xcc;" horiz-adv-x="565" d="M106 0l203 1393h146l-201 -1393h-148zM229 1778l123 77l148 -301l-92 -57z" />
<glyph unicode="&#xcd;" horiz-adv-x="565" d="M106 0l203 1393h146l-201 -1393h-148zM326 1540l237 293l94 -72l-254 -270z" />
<glyph unicode="&#xce;" horiz-adv-x="565" d="M106 0l203 1393h146l-201 -1393h-148zM158 1559l274 174l230 -174l-68 -76l-176 127l-217 -125z" />
<glyph unicode="&#xcf;" horiz-adv-x="565" d="M106 0l203 1393h146l-201 -1393h-148zM166 1542l22 158h144l-23 -158h-143zM508 1542l22 158h144l-25 -158h-141z" />
<glyph unicode="&#xd0;" horiz-adv-x="1189" d="M72 639l18 129h170l92 637h338q186 0 305 -96.5t119 -245.5q0 -15 -4 -51l-90 -619q-28 -186 -169.5 -289.5t-367.5 -103.5h-336l95 639h-170zM317 137h187q158 0 254.5 70t115.5 192l87 607q4 32 4 41q0 99 -76.5 158t-218.5 59h-187l-73 -496h229l-18 -129h-232z" />
<glyph unicode="&#xd1;" horiz-adv-x="1187" d="M72 0l200 1393h156l367 -1133l163 1133h140l-203 -1393h-154l-366 1133l-166 -1133h-137zM428 1569q47 65 91 96t99 31q43 0 124.5 -47t123.5 -47q46 0 90 67l74 -57q-87 -131 -178 -131q-44 0 -88.5 23.5t-86 47t-77.5 23.5q-51 0 -104 -72z" />
<glyph unicode="&#xd2;" d="M80 299q0 43 4 68l94 653q27 184 151 288.5t298 104.5h35q148 0 243.5 -88.5t95.5 -239.5q0 -36 -4 -65l-94 -653q-27 -185 -149.5 -286t-300.5 -101h-31q-153 0 -247.5 85t-94.5 234zM227 317q0 -95 57.5 -146.5t157.5 -51.5h31q104 0 184 68t97 182l94 649q4 32 4 51 q0 96 -57 149.5t-154 53.5h-35q-105 0 -184 -68.5t-96 -185.5l-95 -649q-4 -36 -4 -52zM477 1798l123 78l148 -301l-93 -57z" />
<glyph unicode="&#xd3;" d="M80 299q0 43 4 68l94 653q27 184 151 288.5t298 104.5h35q148 0 243.5 -88.5t95.5 -239.5q0 -36 -4 -65l-94 -653q-27 -185 -149.5 -286t-300.5 -101h-31q-153 0 -247.5 85t-94.5 234zM227 317q0 -95 57.5 -146.5t157.5 -51.5h31q104 0 184 68t97 182l94 649q4 32 4 51 q0 96 -57 149.5t-154 53.5h-35q-105 0 -184 -68.5t-96 -185.5l-95 -649q-4 -36 -4 -52zM580 1561l237 292l94 -71l-254 -271z" />
<glyph unicode="&#xd4;" d="M80 299q0 43 4 68l94 653q27 184 151 288.5t298 104.5h35q148 0 243.5 -88.5t95.5 -239.5q0 -36 -4 -65l-94 -653q-27 -185 -149.5 -286t-300.5 -101h-31q-153 0 -247.5 85t-94.5 234zM227 317q0 -95 57.5 -146.5t157.5 -51.5h31q104 0 184 68t97 182l94 649q4 32 4 51 q0 96 -57 149.5t-154 53.5h-35q-105 0 -184 -68.5t-96 -185.5l-95 -649q-4 -36 -4 -52zM403 1579l275 174l229 -174l-67 -76l-176 127l-218 -125z" />
<glyph unicode="&#xd5;" d="M80 299q0 43 4 68l94 653q27 184 151 288.5t298 104.5h35q148 0 243.5 -88.5t95.5 -239.5q0 -36 -4 -65l-94 -653q-27 -185 -149.5 -286t-300.5 -101h-31q-153 0 -247.5 85t-94.5 234zM227 317q0 -95 57.5 -146.5t157.5 -51.5h31q104 0 184 68t97 182l94 649q4 32 4 51 q0 96 -57 149.5t-154 53.5h-35q-105 0 -184 -68.5t-96 -185.5l-95 -649q-4 -36 -4 -52zM360 1589q46 65 91 96t100 31q43 0 124.5 -47t123.5 -47q45 0 90 68l74 -58q-87 -131 -179 -131q-44 0 -88.5 23.5t-86 47t-77.5 23.5q-51 0 -104 -71z" />
<glyph unicode="&#xd6;" d="M80 299q0 43 4 68l94 653q27 184 151 288.5t298 104.5h35q148 0 243.5 -88.5t95.5 -239.5q0 -36 -4 -65l-94 -653q-27 -185 -149.5 -286t-300.5 -101h-31q-153 0 -247.5 85t-94.5 234zM227 317q0 -95 57.5 -146.5t157.5 -51.5h31q104 0 184 68t97 182l94 649q4 32 4 51 q0 96 -57 149.5t-154 53.5h-35q-105 0 -184 -68.5t-96 -185.5l-95 -649q-4 -36 -4 -52zM414 1563l22 157h144l-23 -157h-143zM756 1563l22 157h144l-25 -157h-141z" />
<glyph unicode="&#xd7;" horiz-adv-x="1046" d="M16 0l406 516l-238 488h135l187 -392l303 392h135l-381 -488l256 -516h-143l-199 420l-321 -420h-140z" />
<glyph unicode="&#xd8;" horiz-adv-x="1153" d="M31 -152l137 240q-70 79 -70 203q0 35 6 76l95 653q27 185 150 289t298 104h33q126 0 215 -61l119 207h106l-155 -273q57 -82 57 -201q0 -19 -4 -65l-96 -653q-27 -184 -149.5 -285.5t-299.5 -101.5h-33q-114 0 -196 45l-103 -177h-110zM248 313q0 -42 10 -67l557 968 q-58 58 -156 58h-32q-105 0 -184.5 -68.5t-96.5 -185.5l-94 -649q-4 -20 -4 -56zM319 160q56 -41 142 -41h33q104 0 183.5 68t96.5 182l94 649q2 16 2 45q0 35 -4 51z" />
<glyph unicode="&#xd9;" horiz-adv-x="1150" d="M111 303q0 27 6 68l147 1022h150l-148 -1024q-4 -36 -4 -50q0 -100 65 -150t167 -50q98 0 180 67t100 183l148 1024h147l-147 -1022q-28 -195 -149 -293t-300 -98q-154 0 -258 84t-104 239zM512 1778l123 77l147 -301l-92 -57z" />
<glyph unicode="&#xda;" horiz-adv-x="1150" d="M111 303q0 27 6 68l147 1022h150l-148 -1024q-4 -36 -4 -50q0 -100 65 -150t167 -50q98 0 180 67t100 183l148 1024h147l-147 -1022q-28 -195 -149 -293t-300 -98q-154 0 -258 84t-104 239zM612 1540l238 293l94 -72l-254 -270z" />
<glyph unicode="&#xdb;" horiz-adv-x="1150" d="M111 303q0 27 6 68l147 1022h150l-148 -1024q-4 -36 -4 -50q0 -100 65 -150t167 -50q98 0 180 67t100 183l148 1024h147l-147 -1022q-28 -195 -149 -293t-300 -98q-154 0 -258 84t-104 239zM438 1559l275 174l229 -174l-68 -76l-176 127l-217 -125z" />
<glyph unicode="&#xdc;" horiz-adv-x="1150" d="M111 303q0 27 6 68l147 1022h150l-148 -1024q-4 -36 -4 -50q0 -100 65 -150t167 -50q98 0 180 67t100 183l148 1024h147l-147 -1022q-28 -195 -149 -293t-300 -98q-154 0 -258 84t-104 239zM446 1542l23 158h143l-22 -158h-144zM788 1542l23 158h143l-24 -158h-142z" />
<glyph unicode="&#xdd;" horiz-adv-x="878" d="M164 1393h162l106 -691l311 691h166l-426 -846l-77 -547h-150l78 547zM485 1540l238 293l94 -72l-254 -270z" />
<glyph unicode="&#xde;" horiz-adv-x="993" d="M74 0l202 1393h150l-41 -275h205q125 0 204.5 -85t79.5 -218q0 -21 -4 -57l-6 -43q-23 -157 -125 -246.5t-256 -89.5h-204l-56 -379h-149zM299 518h199q76 0 141 57t78 140l6 37q2 16 2 41q0 77 -43.5 131.5t-118.5 54.5h-198z" />
<glyph unicode="&#xe0;" horiz-adv-x="866" d="M31 197q0 19 4 55l6 47q41 300 545 311l18 129q6 37 6 66q0 64 -29.5 94.5t-97.5 30.5q-58 0 -139.5 -25t-118.5 -51l-26 117q55 38 153 67t174 29q116 0 175 -66t59 -182q0 -33 -6 -71l-107 -748h-125l8 154q-38 -67 -115.5 -117.5t-181.5 -50.5q-96 0 -149 55t-53 156z M182 225q0 -110 111 -110q85 0 163 60.5t87 129.5l28 197q-184 -6 -275.5 -55t-105.5 -148l-4 -25q-4 -32 -4 -49zM391 1477l123 77l148 -301l-93 -57z" />
<glyph unicode="&#xe1;" horiz-adv-x="866" d="M31 197q0 19 4 55l6 47q41 300 545 311l18 129q6 37 6 66q0 64 -29.5 94.5t-97.5 30.5q-58 0 -139.5 -25t-118.5 -51l-26 117q55 38 153 67t174 29q116 0 175 -66t59 -182q0 -33 -6 -71l-107 -748h-125l8 154q-38 -67 -115.5 -117.5t-181.5 -50.5q-96 0 -149 55t-53 156z M182 225q0 -110 111 -110q85 0 163 60.5t87 129.5l28 197q-184 -6 -275.5 -55t-105.5 -148l-4 -25q-4 -32 -4 -49zM430 1239l238 293l94 -72l-254 -270z" />
<glyph unicode="&#xe2;" horiz-adv-x="866" d="M31 197q0 19 4 55l6 47q41 300 545 311l18 129q6 37 6 66q0 64 -29.5 94.5t-97.5 30.5q-58 0 -139.5 -25t-118.5 -51l-26 117q55 38 153 67t174 29q116 0 175 -66t59 -182q0 -33 -6 -71l-107 -748h-125l8 154q-38 -67 -115.5 -117.5t-181.5 -50.5q-96 0 -149 55t-53 156z M182 225q0 -110 111 -110q85 0 163 60.5t87 129.5l28 197q-184 -6 -275.5 -55t-105.5 -148l-4 -25q-4 -32 -4 -49zM307 1257l275 175l229 -175l-68 -75l-176 127l-217 -125z" />
<glyph unicode="&#xe3;" horiz-adv-x="866" d="M31 197q0 19 4 55l6 47q41 300 545 311l18 129q6 37 6 66q0 64 -29.5 94.5t-97.5 30.5q-58 0 -139.5 -25t-118.5 -51l-26 117q55 38 153 67t174 29q116 0 175 -66t59 -182q0 -33 -6 -71l-107 -748h-125l8 154q-38 -67 -115.5 -117.5t-181.5 -50.5q-96 0 -149 55t-53 156z M182 225q0 -110 111 -110q85 0 163 60.5t87 129.5l28 197q-184 -6 -275.5 -55t-105.5 -148l-4 -25q-4 -32 -4 -49zM252 1270q47 65 91 96t99 31q43 0 124.5 -47t123.5 -47q46 0 90 67l74 -57q-87 -131 -178 -131q-44 0 -88.5 23.5t-86 47t-77.5 23.5q-52 0 -105 -72z" />
<glyph unicode="&#xe4;" horiz-adv-x="866" d="M31 197q0 19 4 55l6 47q41 300 545 311l18 129q6 37 6 66q0 64 -29.5 94.5t-97.5 30.5q-58 0 -139.5 -25t-118.5 -51l-26 117q55 38 153 67t174 29q116 0 175 -66t59 -182q0 -33 -6 -71l-107 -748h-125l8 154q-38 -67 -115.5 -117.5t-181.5 -50.5q-96 0 -149 55t-53 156z M182 225q0 -110 111 -110q85 0 163 60.5t87 129.5l28 197q-184 -6 -275.5 -55t-105.5 -148l-4 -25q-4 -32 -4 -49zM295 1241l22 158h144l-23 -158h-143zM637 1241l22 158h144l-25 -158h-141z" />
<glyph unicode="&#xe5;" horiz-adv-x="866" d="M31 197q0 19 4 55l6 47q41 300 545 311l18 129q6 37 6 66q0 64 -29.5 94.5t-97.5 30.5q-58 0 -139.5 -25t-118.5 -51l-26 117q55 38 153 67t174 29q116 0 175 -66t59 -182q0 -33 -6 -71l-107 -748h-125l8 154q-38 -67 -115.5 -117.5t-181.5 -50.5q-96 0 -149 55t-53 156z M182 225q0 -110 111 -110q85 0 163 60.5t87 129.5l28 197q-184 -6 -275.5 -55t-105.5 -148l-4 -25q-4 -32 -4 -49zM410 1341q9 68 61.5 113t116.5 45q62 0 102.5 -46t30.5 -112q-9 -68 -61.5 -113.5t-118.5 -45.5q-61 0 -100.5 47t-30.5 112zM483 1337q-4 -36 16.5 -59 t53.5 -23q32 0 61 24t33 58q5 36 -15.5 62t-53.5 26q-31 0 -60 -26.5t-35 -61.5z" />
<glyph unicode="&#xe6;" horiz-adv-x="1363" d="M31 215q0 24 4 47l33 223l505 82l21 144q6 44 6 67q0 148 -129 148q-58 0 -139.5 -27.5t-124.5 -54.5l-21 117q56 40 145 71t169 31q81 0 136.5 -41.5t72.5 -114.5q46 71 124.5 113.5t167.5 42.5q119 0 195 -71.5t76 -205.5q0 -38 -4 -67l-23 -154l-524 -73l-25 -168 q-2 -18 -2 -37q0 -82 58 -123t151 -41q67 0 136 28.5t108 59.5l43 -105q-60 -59 -144.5 -89.5t-168.5 -30.5q-71 0 -130.5 16t-105 53.5t-63.5 91.5q-106 -161 -308 -161q-104 0 -171.5 61.5t-67.5 167.5zM178 236q0 -60 36.5 -91.5t98.5 -31.5q46 0 92 16t83 53.5t44 89.5 l29 193l-360 -59l-21 -142q-2 -16 -2 -28zM735 592l385 53l13 84q4 40 4 45q0 78 -43 118t-113 40q-78 0 -146.5 -63t-80.5 -150z" />
<glyph unicode="&#xe7;" horiz-adv-x="772" d="M39 229q0 18 4 54l68 473q21 148 127 228.5t258 80.5q81 0 147 -37t96 -98l-90 -99q-47 93 -162 93q-84 0 -151 -48.5t-78 -132.5l-65 -448q-3 -21 -3 -31q0 -40 17 -70t45 -45.5t57.5 -22.5t61.5 -7q110 0 190 71l53 -106q-100 -94 -243 -100l-37 -84q11 -3 27 -13 t37.5 -28.5t36 -50.5t14.5 -70q0 -48 -20 -89t-55.5 -70.5t-78 -50.5t-92.5 -36l-25 80q31 12 51 21.5t48.5 28t43.5 43t15 54.5q0 89 -125 117l57 152q-100 14 -164.5 76.5t-64.5 164.5z" />
<glyph unicode="&#xe8;" horiz-adv-x="872" d="M45 260q0 15 4 47l66 451q14 91 74 162t142 107t169 36q118 0 199 -73t81 -187q0 -17 -4 -45l-37 -254h-512l-28 -195q-2 -16 -2 -30q0 -78 57.5 -117t146.5 -39q70 0 130 20.5t96 53.5l47 -107q-65 -56 -136 -79t-165 -23q-84 0 -157 29.5t-122 93t-49 149.5zM244 623 h372l19 135q2 16 2 26q0 63 -44 103.5t-114 40.5q-77 0 -140 -48.5t-75 -125.5zM338 1477l123 77l147 -301l-92 -57z" />
<glyph unicode="&#xe9;" horiz-adv-x="872" d="M45 260q0 15 4 47l66 451q14 91 74 162t142 107t169 36q118 0 199 -73t81 -187q0 -17 -4 -45l-37 -254h-512l-28 -195q-2 -16 -2 -30q0 -78 57.5 -117t146.5 -39q70 0 130 20.5t96 53.5l47 -107q-65 -56 -136 -79t-165 -23q-84 0 -157 29.5t-122 93t-49 149.5zM244 623 h372l19 135q2 16 2 26q0 63 -44 103.5t-114 40.5q-77 0 -140 -48.5t-75 -125.5zM440 1239l238 293l94 -72l-254 -270z" />
<glyph unicode="&#xea;" horiz-adv-x="872" d="M45 260q0 15 4 47l66 451q14 91 74 162t142 107t169 36q118 0 199 -73t81 -187q0 -17 -4 -45l-37 -254h-512l-28 -195q-2 -16 -2 -30q0 -78 57.5 -117t146.5 -39q70 0 130 20.5t96 53.5l47 -107q-65 -56 -136 -79t-165 -23q-84 0 -157 29.5t-122 93t-49 149.5zM244 623 h372l19 135q2 16 2 26q0 63 -44 103.5t-114 40.5q-77 0 -140 -48.5t-75 -125.5zM264 1257l275 175l229 -175l-68 -75l-176 127l-217 -125z" />
<glyph unicode="&#xeb;" horiz-adv-x="872" d="M45 260q0 15 4 47l66 451q14 91 74 162t142 107t169 36q118 0 199 -73t81 -187q0 -17 -4 -45l-37 -254h-512l-28 -195q-2 -16 -2 -30q0 -78 57.5 -117t146.5 -39q70 0 130 20.5t96 53.5l47 -107q-65 -56 -136 -79t-165 -23q-84 0 -157 29.5t-122 93t-49 149.5zM244 623 h372l19 135q2 16 2 26q0 63 -44 103.5t-114 40.5q-77 0 -140 -48.5t-75 -125.5zM272 1241l23 158h143l-22 -158h-144zM614 1241l23 158h143l-24 -158h-142z" />
<glyph unicode="&#xec;" horiz-adv-x="507" d="M80 0l151 1044h150l-152 -1044h-149zM150 1456l122 78l148 -301l-92 -57z" />
<glyph unicode="&#xed;" horiz-adv-x="507" d="M80 0l151 1044h150l-152 -1044h-149zM244 1219l237 292l94 -71l-253 -271z" />
<glyph unicode="&#xee;" horiz-adv-x="507" d="M78 1239l274 174l230 -174l-68 -76l-176 127l-217 -125zM80 0l151 1044h150l-152 -1044h-149z" />
<glyph unicode="&#xef;" horiz-adv-x="507" d="M80 0l151 1044h150l-152 -1044h-149zM86 1223l23 157h143l-23 -157h-143zM428 1223l23 157h143l-25 -157h-141z" />
<glyph unicode="&#xf0;" horiz-adv-x="905" d="M43 254q0 15 4 43l55 383q20 138 122 227.5t237 89.5q54 0 108.5 -24t85.5 -66q-16 191 -137 318l-293 -125l-24 86l250 106q-107 101 -248 133l59 115q198 -55 334 -194l254 112l31 -86l-224 -98q142 -175 142 -432q0 -52 -11 -142l-57 -403q-21 -142 -131.5 -229.5 t-257.5 -87.5q-125 0 -212 77.5t-87 196.5zM197 281q0 -73 46.5 -117.5t118.5 -44.5q76 0 144 54.5t80 133.5l49 348q2 14 2 31q0 75 -48.5 122.5t-119.5 47.5q-76 0 -141.5 -55t-77.5 -133l-51 -359q-2 -14 -2 -28z" />
<glyph unicode="&#xf1;" horiz-adv-x="991" d="M53 0l152 1044h127l-13 -151q122 170 299 170q108 0 169 -63t61 -179q0 -23 -6 -73l-107 -748h-149l106 735q4 28 4 51q0 138 -131 138q-79 0 -163 -64t-97 -151l-102 -709h-150zM276 1270q46 65 91 96t100 31q44 0 125.5 -46.5t122.5 -47.5q49 5 90 67l74 -57 q-87 -131 -179 -131q-44 0 -88 23.5t-85.5 47t-77.5 23.5q-52 0 -105 -72z" />
<glyph unicode="&#xf2;" horiz-adv-x="905" d="M43 244q0 17 4 45l68 471q21 141 131.5 222t255.5 81q125 0 211 -71.5t86 -188.5q0 -15 -4 -43l-68 -471q-21 -142 -131 -223.5t-252 -81.5q-122 0 -211.5 71t-89.5 189zM195 264q0 -68 48.5 -105.5t121.5 -37.5q74 0 139.5 47.5t75.5 122.5l67 467q2 14 2 24 q0 65 -49 102.5t-119 37.5q-76 0 -141.5 -45t-75.5 -119l-67 -467q-2 -16 -2 -27zM346 1477l123 77l147 -301l-92 -57z" />
<glyph unicode="&#xf3;" horiz-adv-x="905" d="M43 244q0 17 4 45l68 471q21 141 131.5 222t255.5 81q125 0 211 -71.5t86 -188.5q0 -15 -4 -43l-68 -471q-21 -142 -131 -223.5t-252 -81.5q-122 0 -211.5 71t-89.5 189zM195 264q0 -68 48.5 -105.5t121.5 -37.5q74 0 139.5 47.5t75.5 122.5l67 467q2 14 2 24 q0 65 -49 102.5t-119 37.5q-76 0 -141.5 -45t-75.5 -119l-67 -467q-2 -16 -2 -27zM451 1239l237 293l94 -72l-254 -270z" />
<glyph unicode="&#xf4;" horiz-adv-x="905" d="M43 244q0 17 4 45l68 471q21 141 131.5 222t255.5 81q125 0 211 -71.5t86 -188.5q0 -15 -4 -43l-68 -471q-21 -142 -131 -223.5t-252 -81.5q-122 0 -211.5 71t-89.5 189zM195 264q0 -68 48.5 -105.5t121.5 -37.5q74 0 139.5 47.5t75.5 122.5l67 467q2 14 2 24 q0 65 -49 102.5t-119 37.5q-76 0 -141.5 -45t-75.5 -119l-67 -467q-2 -16 -2 -27zM276 1257l275 175l229 -175l-67 -75l-176 127l-218 -125z" />
<glyph unicode="&#xf5;" horiz-adv-x="905" d="M43 244q0 17 4 45l68 471q21 141 131.5 222t255.5 81q125 0 211 -71.5t86 -188.5q0 -15 -4 -43l-68 -471q-21 -142 -131 -223.5t-252 -81.5q-122 0 -211.5 71t-89.5 189zM195 264q0 -68 48.5 -105.5t121.5 -37.5q74 0 139.5 47.5t75.5 122.5l67 467q2 14 2 24 q0 65 -49 102.5t-119 37.5q-76 0 -141.5 -45t-75.5 -119l-67 -467q-2 -16 -2 -27zM227 1270q46 65 91 96t100 31q44 0 125.5 -46.5t122.5 -47.5q49 5 90 67l73 -57q-87 -131 -178 -131q-44 0 -88.5 23.5t-86 47t-77.5 23.5q-51 0 -104 -72z" />
<glyph unicode="&#xf6;" horiz-adv-x="905" d="M43 244q0 17 4 45l68 471q21 141 131.5 222t255.5 81q125 0 211 -71.5t86 -188.5q0 -15 -4 -43l-68 -471q-21 -142 -131 -223.5t-252 -81.5q-122 0 -211.5 71t-89.5 189zM195 264q0 -68 48.5 -105.5t121.5 -37.5q74 0 139.5 47.5t75.5 122.5l67 467q2 14 2 24 q0 65 -49 102.5t-119 37.5q-76 0 -141.5 -45t-75.5 -119l-67 -467q-2 -16 -2 -27zM283 1241l22 158h144l-23 -158h-143zM625 1241l22 158h144l-25 -158h-141z" />
<glyph unicode="&#xf7;" horiz-adv-x="1384" d="M86 524l14 111h1137l-16 -111h-1135zM502 158l26 194h193l-27 -194h-192zM594 799l29 196h192l-29 -196h-192z" />
<glyph unicode="&#xf8;" horiz-adv-x="1054" d="M-59 -113l176 242q-25 59 -25 115q0 13 4 45l70 471q21 141 131.5 222t253.5 81q122 0 203 -62l112 150h99l-154 -211q37 -55 37 -131q0 -17 -4 -49l-68 -471q-21 -142 -131 -223.5t-252 -81.5q-140 0 -223 77l-127 -174h-102zM248 307l414 565q-47 50 -132 50 q-76 0 -141 -45t-76 -119zM266 193q44 -72 148 -72q74 0 139 47t76 123l65 452q4 28 4 33q0 8 -2 10z" />
<glyph unicode="&#xf9;" horiz-adv-x="991" d="M98 233q0 16 4 52l111 759h147l-108 -757q-2 -18 -2 -33q0 -69 46.5 -102t119.5 -33q51 0 94.5 16.5t77 55.5t41.5 96l110 757h146l-109 -759q-22 -150 -128.5 -227.5t-252.5 -77.5q-127 0 -212 66t-85 187zM399 1456l123 78l148 -301l-92 -57z" />
<glyph unicode="&#xfa;" horiz-adv-x="991" d="M98 233q0 16 4 52l111 759h147l-108 -757q-2 -18 -2 -33q0 -69 46.5 -102t119.5 -33q51 0 94.5 16.5t77 55.5t41.5 96l110 757h146l-109 -759q-22 -150 -128.5 -227.5t-252.5 -77.5q-127 0 -212 66t-85 187zM500 1219l237 292l94 -71l-253 -271z" />
<glyph unicode="&#xfb;" horiz-adv-x="991" d="M98 233q0 16 4 52l111 759h147l-108 -757q-2 -18 -2 -33q0 -69 46.5 -102t119.5 -33q51 0 94.5 16.5t77 55.5t41.5 96l110 757h146l-109 -759q-22 -150 -128.5 -227.5t-252.5 -77.5q-127 0 -212 66t-85 187zM324 1239l274 174l229 -174l-67 -76l-176 127l-217 -125z" />
<glyph unicode="&#xfc;" horiz-adv-x="991" d="M98 233q0 16 4 52l111 759h147l-108 -757q-2 -18 -2 -33q0 -69 46.5 -102t119.5 -33q51 0 94.5 16.5t77 55.5t41.5 96l110 757h146l-109 -759q-22 -150 -128.5 -227.5t-252.5 -77.5q-127 0 -212 66t-85 187zM334 1223l22 157h144l-23 -157h-143zM676 1223l22 157h144 l-25 -157h-141z" />
<glyph unicode="&#xfd;" horiz-adv-x="833" d="M-43 -436l4 125q64 0 132 47t106 143l37 84l-136 1081h160l86 -860l322 860h157l-473 -1159q-66 -160 -162 -240t-233 -81zM408 1235l237 293l94 -72l-254 -270z" />
<glyph unicode="&#xfe;" horiz-adv-x="923" d="M-47 -451l270 1862h148l-70 -477q98 129 252 129q116 0 185 -72.5t69 -191.5q0 -35 -4 -64l-64 -436q-22 -148 -112 -233.5t-232 -85.5q-158 0 -215 120l-80 -551h-147zM205 260q0 -70 47 -109.5t129 -39.5q77 0 137.5 50.5t73.5 143.5l61 426q4 24 4 43q0 74 -40 114 t-111 40q-90 0 -157.5 -52.5t-80.5 -144.5l-59 -416q-4 -28 -4 -55z" />
<glyph unicode="&#xff;" horiz-adv-x="833" d="M-43 -436l4 125q64 0 132 47t106 143l37 84l-136 1081h160l86 -860l322 860h157l-473 -1159q-66 -160 -162 -240t-233 -81zM250 1223l22 157h144l-23 -157h-143zM592 1223l22 157h144l-25 -157h-141z" />
<glyph unicode="&#x152;" horiz-adv-x="1449" d="M80 315q0 35 6 72l86 612q26 180 151 287t298 107h774l-19 -142h-415l-68 -473h313l-18 -135h-314l-73 -504h465l-19 -139h-823q-159 0 -251.5 83t-92.5 232zM229 342q0 -96 57.5 -149.5t155.5 -53.5h211l160 1112h-213q-108 0 -185.5 -68t-95.5 -186l-86 -608 q-4 -32 -4 -47z" />
<glyph unicode="&#x153;" horiz-adv-x="1464" d="M43 258q0 17 4 45l66 459q20 136 126.5 221.5t252.5 85.5q92 0 172 -43t108 -121q49 71 127 118.5t164 47.5q82 0 150.5 -30.5t113.5 -98.5t45 -162q0 -30 -4 -57l-25 -168l-550 -94l-23 -154q-2 -12 -2 -26q0 -78 63.5 -119t153.5 -41q56 0 130.5 25.5t115.5 60.5 l59 -101q-63 -53 -153.5 -82.5t-171.5 -29.5q-106 0 -188.5 39.5t-114.5 122.5q-51 -79 -139 -120.5t-187 -41.5q-126 0 -209.5 74t-83.5 190zM193 287q0 -69 51.5 -113.5t128.5 -44.5q80 0 152.5 52.5t82.5 125.5l62 420q4 29 4 45q0 68 -54 115t-133 47t-148 -53t-79 -125 l-65 -447q-2 -12 -2 -22zM809 578l397 71l11 72q2 16 2 37q0 77 -45 126.5t-113 49.5q-78 -2 -145.5 -56t-79.5 -128z" />
<glyph unicode="&#x178;" horiz-adv-x="878" d="M164 1393h162l106 -691l311 691h166l-426 -846l-77 -547h-150l78 547zM317 1542l23 158h143l-22 -158h-144zM659 1542l23 158h143l-24 -158h-142z" />
<glyph unicode="&#x2c6;" horiz-adv-x="712" d="M182 1245l275 174l229 -174l-68 -76l-176 127l-217 -125z" />
<glyph unicode="&#x2dc;" horiz-adv-x="823" d="M193 1276q47 65 91 96t99 31q44 0 125.5 -46.5t122.5 -47.5q49 5 90 67l74 -57q-87 -131 -179 -131q-44 0 -88 23.5t-85.5 47t-77.5 23.5q-52 0 -105 -72z" />
<glyph unicode="&#x2000;" horiz-adv-x="938" />
<glyph unicode="&#x2001;" horiz-adv-x="1876" />
<glyph unicode="&#x2002;" horiz-adv-x="938" />
<glyph unicode="&#x2003;" horiz-adv-x="1876" />
<glyph unicode="&#x2004;" horiz-adv-x="625" />
<glyph unicode="&#x2005;" horiz-adv-x="469" />
<glyph unicode="&#x2006;" horiz-adv-x="312" />
<glyph unicode="&#x2007;" horiz-adv-x="312" />
<glyph unicode="&#x2008;" horiz-adv-x="234" />
<glyph unicode="&#x2009;" horiz-adv-x="375" />
<glyph unicode="&#x200a;" horiz-adv-x="104" />
<glyph unicode="&#x2010;" horiz-adv-x="583" d="M72 514l18 133h389l-20 -133h-387z" />
<glyph unicode="&#x2011;" horiz-adv-x="583" d="M72 514l18 133h389l-20 -133h-387z" />
<glyph unicode="&#x2012;" horiz-adv-x="583" d="M72 514l18 133h389l-20 -133h-387z" />
<glyph unicode="&#x2013;" horiz-adv-x="1150" d="M-6 545l14 98h1092l-15 -98h-1091z" />
<glyph unicode="&#x2014;" horiz-adv-x="1585" d="M-4 545l14 98h1516l-13 -98h-1517z" />
<glyph unicode="&#x2018;" horiz-adv-x="253" d="M102 1036l9 56q19 135 59.5 220t105.5 142l62 -49q-60 -89 -84 -252l-16 -117h-136z" />
<glyph unicode="&#x2019;" horiz-adv-x="260" d="M68 1090q45 56 69 108t35 139l18 115h134l-9 -53q-11 -76 -28.5 -134t-43.5 -100.5t-46 -66.5t-54 -58z" />
<glyph unicode="&#x201a;" horiz-adv-x="450" d="M53 -203q43 54 67 107t38 141l18 115h133l-8 -54q-11 -76 -28.5 -133.5t-43.5 -100t-46 -66.5t-54 -58z" />
<glyph unicode="&#x201c;" horiz-adv-x="505" d="M102 1036l9 56q19 135 59.5 220t105.5 142l62 -49q-60 -89 -84 -252l-16 -117h-136zM352 1036l8 56q19 135 60 220t106 142l62 -49q-60 -89 -84 -252l-17 -117h-135z" />
<glyph unicode="&#x201d;" horiz-adv-x="532" d="M61 1057q45 57 69.5 109t35.5 139l18 114h133l-8 -53q-11 -76 -28.5 -133.5t-43.5 -100t-46 -66.5t-54 -58zM324 1057q45 56 69 108.5t35 139.5l18 114h134l-9 -53q-11 -76 -28.5 -133.5t-43.5 -100t-46 -66.5t-54 -58z" />
<glyph unicode="&#x201e;" horiz-adv-x="796" d="M53 -203q43 54 67 107t38 141l18 115h133l-8 -54q-11 -76 -28.5 -133.5t-43.5 -100t-46 -66.5t-54 -58zM371 -203q43 54 66.5 106.5t37.5 141.5l19 115h133l-9 -54q-11 -76 -28.5 -133.5t-43.5 -100t-46 -66.5t-54 -58z" />
<glyph unicode="&#x2022;" horiz-adv-x="688" d="M117 356l53 363h352l-51 -363h-354z" />
<glyph unicode="&#x2026;" horiz-adv-x="1492" d="M66 0l28 207h189l-29 -207h-188zM537 0l28 207h191l-29 -207h-190zM1010 0l30 207h189l-29 -207h-190z" />
<glyph unicode="&#x202f;" horiz-adv-x="375" />
<glyph unicode="&#x2039;" horiz-adv-x="593" d="M55 356l357 369l73 -72l-268 -293l182 -286l-92 -74z" />
<glyph unicode="&#x203a;" horiz-adv-x="593" d="M12 74l264 286l-182 293l96 72l248 -369l-354 -356z" />
<glyph unicode="&#x205f;" horiz-adv-x="469" />
<glyph unicode="&#x20ac;" horiz-adv-x="1329" d="M100 532l15 97h170l22 153h-170l13 97h172l20 143q27 181 153 286t298 105q220 0 321 -156l-98 -108q-82 125 -236 125q-109 0 -191.5 -70.5t-99.5 -187.5l-18 -137h530l-14 -97h-530l-23 -153h531l-15 -97h-530l-25 -170q-4 -32 -4 -49q0 -97 61 -146.5t164 -49.5 q165 0 269 96l59 -100q-71 -71 -157 -102t-201 -31q-152 0 -249 81t-97 230q0 29 6 67l24 174h-170z" />
<glyph unicode="&#x2122;" horiz-adv-x="1122" d="M182 1350l13 84h366l-12 -84h-139l-52 -349h-84l50 349h-142zM582 1004l63 430h84l88 -207l154 207h84l-62 -430h-86l41 284l-129 -176h-39l-73 180l-41 -288h-84z" />
<glyph unicode="&#x25fc;" horiz-adv-x="1044" d="M0 0v1044h1044v-1044h-1044z" />
<glyph unicode="&#xfb03;" horiz-adv-x="1505" d="M45 0l131 926h-96l14 118h101l22 146q19 134 139.5 206t292.5 72q136 0 275 -49q104 49 245 49q139 0 269 -45l-45 -112q-121 22 -222 22q-126 0 -199 -41.5t-85 -122.5l-17 -125h183l-19 -118h-182l-133 -926h-150l133 926h-376l-133 -926h-148zM344 1044h377l18 127 q12 91 52 150q-62 12 -140 12q-126 0 -201.5 -41.5t-87.5 -122.5zM1096 0l147 1044h154l-148 -1044h-153z" />
<glyph unicode="&#xfb04;" horiz-adv-x="1527" d="M45 0l131 926h-96l14 118h101l22 146q19 134 139.5 206t292.5 72q136 0 275 -49q104 49 245 49q138 0 281 -47l-205 -1421h-149l192 1325q-70 8 -117 8q-126 0 -199 -41.5t-85 -122.5l-17 -125h183l-19 -118h-182l-133 -926h-150l133 926h-376l-133 -926h-148zM344 1044 h377l18 127q12 91 52 150q-62 12 -140 12q-126 0 -201.5 -41.5t-87.5 -122.5z" />
</font>
</defs>
</svg>
