<?xml version="1.0" standalone="no"?>
<!DOCTYPE svg PUBLIC "-//W3C//DTD SVG 1.1//EN" "http://www.w3.org/Graphics/SVG/1.1/DTD/svg11.dtd" >
<svg xmlns="http://www.w3.org/2000/svg">
<metadata></metadata>
<defs>
<font id="bose_gothiclight_oblique" horiz-adv-x="1343" >
<font-face units-per-em="2048" ascent="1536" descent="-512" />
<missing-glyph horiz-adv-x="446" />
<glyph unicode="&#xdf;" horiz-adv-x="1273" d="M88 0l164 1128q25 168 152.5 273.5t312.5 105.5q78 0 146 -18t122.5 -53.5t86.5 -95t32 -136.5q0 -41 -4 -61q-73 -60 -111 -96t-72 -80t-46.5 -86.5t-12.5 -98.5q0 -42 16.5 -77.5t36 -57t60.5 -59.5q39 -38 62 -65.5t44 -79t21 -109.5q0 -109 -58.5 -190t-155 -121.5 t-216.5 -40.5q-110 0 -198 43t-118 118l78 66q59 -119 254 -119q75 0 141.5 25t112 80t45.5 129q0 37 -8.5 67t-30 58t-41 47.5t-57.5 52.5q-49 44 -77 93t-28 120q0 122 55.5 215.5t182.5 187.5q2 12 2 35q0 68 -42 114t-102.5 64.5t-134.5 18.5q-130 0 -223 -77t-110 -194 l-164 -1126h-117z" />
<glyph unicode="&#xfb01;" horiz-adv-x="1138" d="M102 0l138 946h-138l15 98h137l20 132q21 141 141.5 217.5t293.5 76.5q172 0 338 -49l-35 -92q-183 33 -310 33q-136 0 -219 -50.5t-96 -148.5l-18 -119h245l-14 -98h-246l-137 -946h-115zM723 0l154 1044h114l-151 -1044h-117z" />
<glyph unicode="&#xfb02;" horiz-adv-x="1146" d="M102 0l138 946h-138l15 98h137l20 132q21 141 142 217.5t293 76.5t338 -49l-207 -1421h-117l197 1343q-141 19 -218 19q-135 0 -218.5 -50.5t-96.5 -148.5l-18 -119h245l-14 -98h-246l-137 -946h-115z" />
<glyph horiz-adv-x="0" />
<glyph horiz-adv-x="682" />
<glyph unicode="&#xd;" horiz-adv-x="446" />
<glyph unicode=" "  horiz-adv-x="446" />
<glyph unicode="&#x09;" horiz-adv-x="446" />
<glyph unicode="&#xa0;" horiz-adv-x="446" />
<glyph unicode="!" horiz-adv-x="520" d="M78 0l28 190h185l-29 -190h-184zM182 481l129 912h119l-137 -912h-111z" />
<glyph unicode="&#x22;" horiz-adv-x="612" d="M170 942l61 453h95l-68 -453h-88zM403 942l62 453h94l-67 -453h-89z" />
<glyph unicode="#" horiz-adv-x="1484" d="M80 340l14 94h332l131 404h-350l12 94h371l121 379h100l-123 -379h295l123 379h100l-121 -379h277l-12 -94h-297l-129 -404h311l-14 -94h-330l-107 -340h-100l107 340h-295l-109 -340h-98l106 340h-315zM528 434h295l131 404h-295z" />
<glyph unicode="$" horiz-adv-x="1181" d="M49 217l86 72q51 -98 151.5 -147.5t229.5 -49.5q158 0 257 76.5t99 216.5q0 99 -68 157t-231 111q-177 58 -269.5 141t-92.5 214t66 223.5t174.5 136t248.5 43.5q24 0 70 -4l57 197l95 -15l-58 -198q159 -45 248 -170l-82 -78q-118 157 -346 157q-156 0 -257 -72 t-101 -204q0 -52 21 -93t65.5 -73.5t98.5 -56.5t136 -51q177 -58 259.5 -138t82.5 -211t-65 -227.5t-174.5 -144t-249.5 -47.5q-8 0 -28 1t-28 1l-69 -238l-92 12l69 240q-224 51 -303 219z" />
<glyph unicode="%" horiz-adv-x="1499" d="M158 0l1036 1393h121l-1032 -1393h-125zM203 991l30 211q12 88 95 149.5t186 61.5t167 -61t52 -150l-31 -211q-13 -90 -95 -151.5t-187 -61.5q-104 0 -167 61t-50 152zM301 997q-7 -52 32 -86t101 -34q63 0 114 35.5t58 84.5l29 199q7 52 -32 84.5t-103 32.5 q-61 0 -112 -34t-58 -83zM745 188l33 218q12 88 94 148t187 60q101 0 164 -59t51 -147l-31 -218q-13 -90 -93 -150t-183 -60t-168.5 60t-53.5 148zM844 197q-7 -49 33.5 -84t103.5 -35q61 0 111 35t57 84l29 200q7 52 -32 85.5t-102 33.5t-115 -35t-59 -84z" />
<glyph unicode="&#x26;" horiz-adv-x="1464" d="M63 264q0 76 30.5 143.5t100.5 133t120 103t150 105.5q17 11 25 17l27 16l-178 226l24 168q15 103 111.5 171t222.5 68q140 0 216.5 -60t76.5 -167q0 -53 -19 -103t-45 -87.5t-74.5 -82t-83.5 -71.5t-97 -72l307 -389l240 221l73 -74l-248 -229l207 -258l-94 -76 l-199 254q-263 -241 -528 -241q-173 0 -269 72.5t-96 211.5zM182 285q0 -85 59.5 -141t196.5 -56q118 0 228 57t225 158l-316 402l-30 -23q-22 -16 -74 -51.5t-76 -53.5t-65.5 -50t-61.5 -55.5t-43.5 -55t-33 -64t-9.5 -67.5zM451 1044l157 -198q62 41 103 73t83 73.5 t62.5 85.5t20.5 91q0 68 -50.5 104t-146.5 36q-90 0 -146.5 -42t-64.5 -104z" />
<glyph unicode="'" horiz-adv-x="456" d="M215 991l61 463h103l-74 -463h-90z" />
<glyph unicode="(" horiz-adv-x="675" d="M113 184l106 727q31 215 131 385t242 250l45 -71q-115 -66 -198 -212.5t-113 -351.5l-107 -727q-30 -206 11 -347t137 -210l-66 -76q-118 79 -168.5 249t-19.5 384z" />
<glyph unicode=")" horiz-adv-x="681" d="M-31 -373q116 70 199.5 218.5t114.5 359.5l100 690q29 204 -10 355t-131 218l63 78q117 -79 166 -256t18 -395l-100 -690q-33 -216 -134 -393t-241 -256z" />
<glyph unicode="*" horiz-adv-x="804" d="M188 1200l35 82l201 -68l31 220h86l-31 -220l215 68l12 -82l-213 -67l103 -179l-78 -53l-103 180l-155 -180l-62 53l156 179z" />
<glyph unicode="+" horiz-adv-x="1187" d="M88 735l16 101h447l61 434h103l-62 -434h449l-17 -101h-448l-68 -469h-102l68 469h-447z" />
<glyph unicode="," horiz-adv-x="372" d="M-63 -203q43 53 65 104.5t35 137.5l16 113h113l-8 -54q-20 -135 -57.5 -207t-104.5 -137z" />
<glyph unicode="-" horiz-adv-x="716" d="M78 522l16 107h484l-17 -107h-483z" />
<glyph unicode="." horiz-adv-x="493" d="M57 0l27 188h180l-26 -188h-181z" />
<glyph unicode="/" horiz-adv-x="780" d="M-72 -174l770 1567h115l-770 -1567h-115z" />
<glyph unicode="0" horiz-adv-x="1304" d="M121 408l84 571q30 202 183.5 318t356.5 116q133 0 233 -49.5t150.5 -149.5t30.5 -235l-84 -571q-30 -203 -181 -315.5t-357 -112.5q-99 0 -181.5 28t-140 81t-83.5 135t-11 184zM236 410q-22 -155 68 -237.5t247 -82.5q103 0 188 33.5t146 107t76 179.5l83 567 q22 156 -68 239.5t-247 83.5q-102 0 -187.5 -34.5t-146.5 -109t-76 -179.5z" />
<glyph unicode="1" horiz-adv-x="573" d="M111 0l186 1280h-152l17 113h266l-203 -1393h-114z" />
<glyph unicode="2" horiz-adv-x="1122" d="M33 0l8 55q32 226 140 369.5t337 263.5q171 93 227 134q128 92 149 204q5 27 5 55q0 97 -70.5 149t-187.5 52q-101 0 -204.5 -45.5t-178.5 -110.5l-51 86q95 82 215.5 131.5t241.5 49.5q153 0 252.5 -75t99.5 -216q0 -52 -13.5 -100t-33 -85.5t-55.5 -76t-67.5 -65.5 t-82.5 -59.5t-87.5 -53.5t-94.5 -52q-192 -98 -290.5 -214.5t-125.5 -286.5h737l-16 -109h-854z" />
<glyph unicode="3" horiz-adv-x="1193" d="M63 285l111 18q-10 -96 83.5 -153.5t227.5 -57.5q81 0 156 21.5t134.5 73t70.5 124.5l18 125q11 75 -30.5 130.5t-106.5 80.5t-137 25h-184l14 104h182q71 0 141 23.5t125 74.5t64 119l10 80q18 116 -62 173t-221 57q-72 0 -145.5 -24t-132.5 -75t-72 -117l-100 19 q19 90 94.5 162t176 108.5t202.5 36.5q89 0 162.5 -20.5t126.5 -61t77.5 -105t12.5 -147.5l-12 -80q-14 -101 -95 -175t-184 -105q102 -30 164.5 -102t46.5 -185l-18 -125q-12 -78 -60.5 -141.5t-118 -102.5t-150 -60t-161.5 -21q-120 0 -216 36.5t-149 106t-45 160.5z" />
<glyph unicode="4" horiz-adv-x="1175" d="M10 342l17 104l794 947h140l-138 -940h240l-16 -111h-240l-49 -342h-115l49 342h-682zM158 453h551l112 766h-14z" />
<glyph unicode="5" horiz-adv-x="1193" d="M96 330l115 14q-17 -117 68.5 -185.5t228.5 -68.5q79 0 153 28t130 86.5t67 135.5l21 137q17 117 -52.5 182.5t-203.5 65.5h-400l160 668h674l-17 -113h-571l-109 -446h287q178 0 274 -96t72 -261l-20 -139q-16 -108 -90.5 -191.5t-176 -125t-210.5 -41.5q-188 0 -303 93 t-97 257z" />
<glyph unicode="6" horiz-adv-x="1181" d="M94 354l103 697q24 163 164 262.5t333 99.5q109 0 198.5 -35t147.5 -98l-73 -90q-47 53 -124 83t-163 30q-146 0 -249 -68t-120 -184l-47 -326q71 74 169 114t198 40q82 0 153 -22.5t124.5 -65.5t78.5 -112.5t12 -156.5l-24 -172q-13 -90 -61.5 -162.5t-118 -117 t-150 -67.5t-164.5 -23q-85 0 -159 23.5t-131 68.5t-83.5 118t-13.5 164zM209 356q-10 -68 10.5 -121.5t63 -84.5t97 -46.5t116.5 -15.5q61 0 119.5 15.5t110.5 46.5t88 84.5t46 121.5l25 162q13 85 -27.5 144.5t-109 85.5t-152.5 26q-83 0 -160.5 -30t-134.5 -89.5 t-68 -136.5z" />
<glyph unicode="7" horiz-adv-x="942" d="M109 1278l16 115h848l-12 -86l-631 -1307h-129l624 1278h-716z" />
<glyph unicode="8" horiz-adv-x="1253" d="M115 317l16 113q14 100 93 176.5t188 116.5q-88 38 -134.5 114t-33.5 171l10 71q16 106 88.5 183.5t170.5 114t208 36.5q81 0 151 -21.5t123 -62t78.5 -105.5t13.5 -145l-12 -75q-12 -90 -82.5 -166t-167.5 -115q97 -41 154 -116t43 -177l-16 -113q-13 -85 -61 -151.5 t-118 -106t-150 -59.5t-165 -20q-86 0 -161 20t-133.5 59.5t-87 106t-15.5 151.5zM231 322q-9 -62 13 -108.5t67 -72.5t99 -38.5t116 -12.5q61 0 118.5 12.5t110.5 38.5t89 72.5t45 108.5l16 116q11 69 -28.5 123.5t-104.5 81.5t-139 27h-41q-76 -1 -149 -28t-128.5 -81 t-66.5 -123zM356 997q-14 -98 62 -158t188 -67h41q114 7 207 67t107 158l10 76q17 113 -63 171.5t-203 58.5q-124 0 -222 -59t-116 -171z" />
<glyph unicode="9" horiz-adv-x="1196" d="M113 117l65 84q65 -50 138.5 -80.5t183.5 -30.5q64 0 123.5 15t112 44.5t88.5 80t46 116.5l41 283q-73 -73 -169 -110.5t-193 -37.5q-85 0 -158.5 22.5t-128.5 65.5t-81 113t-13 158l31 215q16 105 92.5 188.5t183 126.5t219.5 43q111 0 204.5 -42.5t146 -126 t36.5 -189.5l-104 -719q-13 -87 -60.5 -156.5t-117 -112t-150 -65t-164.5 -22.5q-106 0 -209 36.5t-163 100.5zM283 842q-10 -65 11.5 -115.5t65 -79.5t98.5 -44t117 -15q126 0 233.5 69.5t125.5 184.5l31 207q16 114 -72 182.5t-215 68.5q-83 0 -160.5 -28t-135.5 -87 t-69 -136z" />
<glyph unicode=":" horiz-adv-x="575" d="M111 0l30 211h168l-30 -211h-168zM236 856l30 209h168l-31 -209h-167z" />
<glyph unicode=";" horiz-adv-x="622" d="M94 -203q43 55 65.5 106t35.5 136l16 113h111l-9 -54q-20 -135 -57 -207t-102 -137zM283 848l32 217h162l-33 -217h-161z" />
<glyph unicode="&#x3c;" horiz-adv-x="1271" d="M100 494l985 540l37 -84l-827 -452l737 -432l-61 -89z" />
<glyph unicode="=" horiz-adv-x="1339" d="M86 428l16 102h1065l-16 -102h-1065zM152 874l14 101h1065l-14 -101h-1065z" />
<glyph unicode="&#x3e;" horiz-adv-x="1222" d="M39 63l815 437l-653 448l65 84l781 -532l-971 -525z" />
<glyph unicode="?" horiz-adv-x="894" d="M160 1276q174 137 368 137q170 0 252.5 -74.5t61.5 -218.5l-15 -94q-5 -40 -25 -76t-54.5 -68.5t-63.5 -54.5t-75 -53q-10 -7 -15 -10q-88 -61 -133 -111.5t-55 -122.5l-21 -131h-117l25 156q10 75 62 134t143 122q7 5 30 20.5t32.5 21.5t30 21t30 23.5t26 22.5 t24.5 25.5t18 25.5t15 28t7 29l12 84q14 99 -48.5 143.5t-168.5 44.5q-81 0 -164 -32t-143 -80zM178 0l29 190h188l-28 -190h-189z" />
<glyph unicode="@" horiz-adv-x="1681" d="M100 467q0 91 68 332q34 128 106.5 241.5t173 198t231.5 133.5t273 49q267 0 431.5 -139t164.5 -360q0 -19 -2 -49.5t-11.5 -88.5t-25 -114t-45.5 -117.5t-70 -107t-102.5 -75.5t-138.5 -30q-66 0 -114.5 31.5t-63.5 87.5q-60 -66 -147 -107t-177 -41q-110 0 -162.5 51.5 t-52.5 131.5q0 37 28 131t58 170q48 131 166.5 222t251.5 91q106 0 164.5 -47t58.5 -129q0 -9 -0.5 -17.5t-3 -20t-3.5 -19t-5.5 -21.5t-6 -20.5t-7.5 -23.5t-7.5 -22.5t-8.5 -25.5t-9 -25q-55 -155 -55 -192q0 -49 27.5 -83t80.5 -34q68 0 123 42.5t86.5 103t52.5 132.5 t28 124t7 85q0 188 -144 304t-378 116q-240 0 -432.5 -156.5t-249.5 -383.5q-3 -10 -14.5 -51t-14.5 -53t-12 -45t-12 -47.5t-7.5 -39t-6 -42t-1.5 -34.5q0 -193 155.5 -305t406.5 -112q170 0 329 81l33 -75q-176 -95 -377 -95q-280 0 -458.5 139.5t-178.5 350.5zM537 524 q0 -65 34 -94t103 -29q102 0 188 62.5t119 157.5q9 25 28 74.5t30 80t20.5 69t9.5 66.5q0 107 -145 107q-102 0 -194.5 -75.5t-125.5 -178.5q-67 -198 -67 -240z" />
<glyph unicode="A" horiz-adv-x="1288" d="M-27 0l711 1411h119l282 -1411h-124l-87 457h-548l-226 -457h-127zM373 565h483l-139 682z" />
<glyph unicode="B" horiz-adv-x="1263" d="M96 0l203 1393h465q174 -1 268 -89q75 -71 75 -189q0 -30 -5 -64l-8 -56q-13 -95 -80 -168.5t-160 -101.5q109 -39 166 -119q43 -61 43 -142q0 -26 -4 -54l-10 -78q-24 -161 -145 -246.5t-296 -85.5h-512zM229 106h387q125 0 211.5 57t104.5 173l10 78q3 23 3 45 q0 90 -61 142q-76 65 -212 65h-363zM326 768h354q118 0 200 59t99 166l8 56q4 25 4 47q0 188 -256 188h-336z" />
<glyph unicode="C" horiz-adv-x="1187" d="M104 428l80 537q29 200 189 324t370 124q283 0 408 -162l-78 -88q-52 64 -141 100.5t-203 36.5q-161 0 -284 -93t-146 -246l-76 -529q-5 -36 -5 -68q0 -117 72 -186q92 -88 263 -88q237 0 385 109l45 -86q-92 -71 -201 -102t-247 -31q-221 0 -341 117q-96 94 -96 249 q0 39 6 82z" />
<glyph unicode="D" horiz-adv-x="1339" d="M98 0l203 1393h434q104 0 192.5 -30.5t151.5 -86.5q63 -58 92 -146q19 -57 19 -122q0 -36 -6 -74l-72 -481q-22 -148 -109.5 -252.5t-209.5 -152.5t-267 -48h-428zM229 111h314q84 0 158.5 20.5t137 61.5t105 108.5t55.5 155.5l68 473q4 28 4 54q0 76 -34 136 q-46 82 -129.5 121t-188.5 39h-320z" />
<glyph unicode="E" horiz-adv-x="1128" d="M94 0l203 1393h739l-16 -113h-623l-73 -514h524l-17 -109h-524l-80 -546h674l-16 -111h-791z" />
<glyph unicode="F" horiz-adv-x="1019" d="M94 0l203 1393h735l-16 -113h-621l-71 -496h526l-16 -110h-525l-98 -674h-117z" />
<glyph unicode="G" horiz-adv-x="1306" d="M106 424l80 545q30 203 192 323.5t376 120.5q140 0 248 -40.5t172 -106.5l-70 -90q-131 124 -365 124q-106 0 -199 -38.5t-158.5 -116t-80.5 -180.5l-80 -537q-3 -25 -3 -48q0 -113 80 -194q97 -96 261 -96q218 0 381 103l59 413h-366l16 107h481l-86 -580 q-104 -71 -220.5 -112t-278.5 -41q-105 0 -193.5 33.5t-147 92t-85.5 141.5q-18 55 -18 114q0 31 5 63z" />
<glyph unicode="H" horiz-adv-x="1445" d="M98 0l203 1393h115l-97 -666h791l96 666h115l-203 -1393h-114l90 616h-791l-90 -616h-115z" />
<glyph unicode="I" horiz-adv-x="587" d="M131 0l203 1393h115l-203 -1393h-115z" />
<glyph unicode="J" horiz-adv-x="1116" d="M10 315l115 15q-2 -14 -2 -28q0 -85 69 -144q80 -68 203 -68q136 0 230 66.5t112 189.5l152 1047h115l-152 -1049q-26 -171 -153 -267.5t-316 -96.5q-175 0 -283 92q-92 80 -92 203q0 20 2 40z" />
<glyph unicode="K" horiz-adv-x="1269" d="M98 0l203 1393h115l-105 -723l766 723h154l-709 -654l580 -739h-160l-510 653l-143 -127l-76 -526h-115z" />
<glyph unicode="L" horiz-adv-x="1081" d="M96 0l203 1393h115l-187 -1282h719l-16 -111h-834z" />
<glyph unicode="M" horiz-adv-x="1689" d="M98 0l203 1393h129l375 -861l622 861h132l-203 -1393h-117l176 1206l-600 -833h-67l-361 827l-174 -1200h-115z" />
<glyph unicode="N" horiz-adv-x="1443" d="M96 0l203 1393h131l600 -1213l176 1213h113l-203 -1393h-127l-602 1217l-178 -1217h-113z" />
<glyph unicode="O" d="M113 424l80 541q29 203 183.5 325.5t368.5 122.5h35q222 -1 344 -123q99 -99 99 -250q0 -36 -6 -75l-80 -541q-30 -208 -185 -326t-381 -118h-32q-222 0 -339 118q-93 94 -93 245q0 38 6 81zM229 428q-5 -34 -5 -64q0 -116 70 -186q88 -88 259 -88h33q176 0 293.5 88 t140.5 250l78 533q5 31 5 59q0 114 -75 188q-93 92 -264 92h-35q-164 0 -281.5 -91.5t-140.5 -247.5z" />
<glyph unicode="P" horiz-adv-x="1232" d="M96 0l203 1393h479q203 1 303 -103q79 -82 79 -210q0 -33 -5 -70l-14 -101q-26 -175 -150.5 -264.5t-328.5 -89.5h-367l-82 -555h-117zM309 664h359q318 0 354 254l12 86q4 27 4 51q0 93 -57 151q-72 74 -223 74h-359z" />
<glyph unicode="Q" d="M113 424l80 541q29 203 183.5 325.5t368.5 122.5h35q221 0 344 -123q99 -99 99 -250q0 -36 -6 -75l-80 -541q-29 -206 -189 -330l119 -170l-86 -59l-121 176q-122 -61 -289 -61h-32q-222 0 -339 118q-93 93 -93 245q0 38 6 81zM229 428q-5 -34 -5 -64q0 -117 70 -186 q88 -88 259 -88h33q124 0 213 41l-109 164l80 59l117 -170q114 87 135 244l78 533q5 31 5 59q0 115 -76 188q-94 92 -265 92h-35q-164 0 -281.5 -91.5t-140.5 -247.5z" />
<glyph unicode="R" horiz-adv-x="1224" d="M100 0l203 1393h506q181 0 271 -96q72 -76 72 -194q0 -30 -5 -63l-12 -82q-20 -133 -107 -214.5t-227 -108.5l229 -635h-129l-217 610h-381l-88 -610h-115zM319 717h402q117 6 199 66.5t98 170.5l12 84q3 20 3 39q1 82 -53 136q-66 67 -196 67h-383z" />
<glyph unicode="S" horiz-adv-x="1181" d="M49 217l86 72q51 -98 151.5 -147.5t229.5 -49.5q158 0 257 76.5t99 216.5q0 99 -68 157t-231 111q-197 63 -289 156q-74 75 -73 190q0 28 4 58q24 172 157.5 263t327.5 91q272 0 412 -190l-82 -78q-118 157 -346 157q-156 0 -257 -72t-101 -204q0 -52 21 -93t65.5 -73.5 t98.5 -56.5t136 -51q177 -58 259.5 -138t82.5 -211t-65 -227.5t-174.5 -144t-249.5 -47.5q-153 0 -274.5 60.5t-176.5 174.5z" />
<glyph unicode="T" horiz-adv-x="1171" d="M135 1280l17 113h1052l-16 -113h-475l-187 -1280h-116l186 1280h-461z" />
<glyph unicode="U" horiz-adv-x="1417" d="M152 426l141 967h115l-140 -963q-5 -32 -5 -61q-1 -49 13 -90q22 -66 70 -106.5t114.5 -61.5t147.5 -21q105 0 197.5 38.5t159 117t82.5 184.5l139 963h117l-142 -967q-21 -144 -103.5 -246.5t-201.5 -151t-262 -48.5q-107 0 -194 27.5t-148.5 81.5t-88.5 140 q-17 54 -17 118q0 38 6 79z" />
<glyph unicode="V" horiz-adv-x="1187" d="M168 1393h127l207 -1225l575 1225h125l-667 -1393h-117z" />
<glyph unicode="W" horiz-adv-x="1822" d="M205 1393h123l82 -1231l528 1231h109l165 -1233l445 1233h123l-516 -1393h-140l-159 1204l-519 -1204h-139z" />
<glyph unicode="X" horiz-adv-x="1159" d="M-18 0l522 700l-291 693h133l246 -596l428 596h137l-510 -693l307 -700h-139l-252 602l-440 -602h-141z" />
<glyph unicode="Y" horiz-adv-x="1179" d="M188 1393h136l249 -713l465 713h138l-562 -838l-82 -555h-116l82 555z" />
<glyph unicode="Z" horiz-adv-x="1175" d="M16 0l11 76l923 1204h-721l17 113h868l-12 -82l-920 -1200h766l-16 -111h-916z" />
<glyph unicode="[" horiz-adv-x="573" d="M41 -342l252 1735h268l-14 -101h-156l-223 -1536h147l-14 -98h-260z" />
<glyph unicode="\" horiz-adv-x="833" d="M186 1393h117l346 -1393h-117z" />
<glyph unicode="]" horiz-adv-x="569" d="M-27 -326l15 101h149l221 1515h-151l14 103h264l-249 -1719h-263z" />
<glyph unicode="^" horiz-adv-x="831" d="M156 918l366 497l207 -497l-96 -15l-139 332l-242 -332z" />
<glyph unicode="_" horiz-adv-x="1103" d="M-4 -150l14 97h838l-14 -97h-838z" />
<glyph unicode="`" horiz-adv-x="509" d="M211 1374l108 72l142 -297l-82 -51z" />
<glyph unicode="a" horiz-adv-x="1067" d="M45 258l6 35q42 296 715 319l18 127q4 28 4 53q0 70 -34 110q-46 54 -172 54q-78 0 -185.5 -27t-158.5 -55l-23 93q64 38 180 68t211 30q174 1 246 -85q55 -65 54 -168q0 -33 -5 -69l-108 -743h-103l17 162q-49 -67 -151.5 -122.5t-244.5 -55.5t-213 71q-57 57 -57 152 q0 24 4 51zM166 266q-3 -20 -3 -38q0 -62 36 -96q46 -44 149 -44q141 0 251 69.5t122 155.5l31 205q-87 -3 -155.5 -9.5t-148.5 -22t-135 -39.5t-96 -65t-49 -95z" />
<glyph unicode="b" horiz-adv-x="1163" d="M63 0l207 1413h115l-74 -506q63 78 161 118t202 40q178 1 271 -101q73 -79 73 -202q0 -34 -6 -72l-49 -336q-26 -175 -146.5 -274.5t-300.5 -99.5q-106 0 -191.5 40t-125.5 123l-31 -143h-105zM225 334q-3 -19 -3 -36q0 -57 30 -101q39 -58 107 -84.5t153 -26.5 q135 0 226.5 70.5t109.5 197.5l49 336q4 24 4 47q0 90 -58 147q-72 72 -202 72q-136 0 -239 -63t-121 -182z" />
<glyph unicode="c" horiz-adv-x="960" d="M74 340l53 358q24 166 154 266.5t305 100.5q104 0 177 -34t130 -101l-72 -82q-91 104 -246 104q-126 0 -220.5 -70.5t-112.5 -189.5l-49 -346q-3 -22 -4 -42q1 -56 27 -100q36 -60 97.5 -88t137.5 -28h10q148 0 274 90l37 -88q-75 -59 -156.5 -84.5t-185.5 -25.5 q-111 0 -196.5 39.5t-131.5 122.5q-33 60 -33 138q0 29 5 60z" />
<glyph unicode="d" horiz-adv-x="1163" d="M78 354l49 336q26 172 148 273.5t300 101.5q104 0 190 -40t128 -118l74 506h114l-207 -1413h-106l12 143q-64 -83 -160 -123t-202 -40q-182 0 -274 100q-72 78 -72 201q0 35 6 73zM193 354q-4 -26 -4 -49q1 -93 57 -149q70 -70 205 -70q133 0 236.5 65t121.5 183l55 377 q3 19 3 37q0 39 -14 72q-20 48 -61.5 77t-96.5 44t-120 15q-130 0 -222.5 -72t-110.5 -194z" />
<glyph unicode="e" horiz-adv-x="1062" d="M72 344l53 373q14 96 85 176.5t173 125t209 44.5q166 0 270 -99q86 -82 85 -198q0 -24 -3 -49l-29 -203h-704l-25 -168q-3 -19 -3 -37q0 -58 30 -103q39 -59 107.5 -85.5t154.5 -26.5q201 0 324 84l35 -86q-152 -106 -377 -106q-84 0 -158.5 23t-130 66t-82.5 113 q-18 47 -18 102q0 26 4 54zM225 614h592l14 103q2 17 2 33q-1 81 -63 138q-76 68 -195.5 68t-218.5 -69t-116 -170z" />
<glyph unicode="f" horiz-adv-x="618" d="M102 0l138 946h-138l15 98h137l20 132q20 136 120.5 211t238.5 75q115 0 201 -39l-35 -94q-86 25 -170 25q-98 0 -163.5 -47.5t-78.5 -137.5l-18 -125h245l-14 -98h-246l-137 -946h-115z" />
<glyph unicode="g" horiz-adv-x="1148" d="M-14 -227q0 105 65.5 174.5t171.5 95.5q-98 51 -98 143q0 61 40.5 116t98.5 79q-112 73 -112 216q0 26 4 54l10 72q24 159 154 249.5t301 90.5q136 0 219 -51l264 75l16 -94l-196 -51q55 -70 55 -164q0 -25 -4 -51l-12 -78q-24 -161 -147 -246.5t-292 -85.5 q-98 0 -178 25q-46 -16 -76 -50t-30 -79q0 -47 37.5 -75t93.5 -40l540 -92l-26 -190q-10 -70 -52.5 -124.5t-105 -86.5t-134 -48t-147.5 -16h-96q-102 0 -181 21.5t-131 75.5t-52 135zM100 -205q0 -41 23.5 -71.5t63.5 -46.5t85 -23.5t97 -7.5h102q250 0 297 172l16 110 l-428 70q-47 -2 -90 -14t-81.5 -35t-61.5 -62.5t-23 -91.5zM272 645q-3 -18 -3 -35q0 -81 59 -130q70 -60 207 -60q124 0 209.5 54t103.5 171l12 80q1 10 1 19q0 97 -68 151q-74 59 -189 59q-74 0 -141 -24.5t-117 -77.5t-61 -127z" />
<glyph unicode="h" horiz-adv-x="1210" d="M76 0l207 1413h114l-84 -567q75 102 182.5 159.5t229.5 57.5q168 -1 248 -95q61 -72 61 -187q0 -36 -6 -76l-102 -705h-115l102 702q4 26 4 50q0 84 -47 134q-60 66 -182 66q-86 0 -174 -38t-151.5 -105.5t-75.5 -144.5l-97 -664h-114z" />
<glyph unicode="i" horiz-adv-x="526" d="M106 0l152 1044h115l-152 -1044h-115zM283 1278l20 135h131l-20 -135h-131z" />
<glyph unicode="j" horiz-adv-x="559" d="M-219 -311q188 50 268 135t107 272l137 948h115l-140 -956q-32 -221 -139 -334.5t-330 -167.5zM319 1278l21 135h121l-21 -135h-121z" />
<glyph unicode="k" horiz-adv-x="993" d="M74 0l207 1413h116l-116 -795h77l478 426h139l-514 -471l403 -573h-141l-361 508h-98l-74 -508h-116z" />
<glyph unicode="l" horiz-adv-x="526" d="M104 0l207 1413h115l-207 -1413h-115z" />
<glyph unicode="m" horiz-adv-x="1835" d="M78 0l151 1044h103l-23 -184q68 92 167 148.5t206 56.5q248 0 281 -195q148 195 395 195q157 -1 229 -89q55 -67 54 -172q0 -34 -5 -71l-106 -733h-115l105 719q3 23 3 44q0 74 -41 125q-53 66 -157 66q-140 0 -243 -72t-121 -196l-101 -686h-115l107 735q3 22 3 41 q0 72 -43 119q-55 59 -161 59q-118 0 -230.5 -88t-127.5 -194l-98 -672h-117z" />
<glyph unicode="n" horiz-adv-x="1212" d="M78 0l151 1044h105l-25 -204q79 106 186 164.5t228 58.5q169 1 251 -93q63 -72 64 -187q0 -35 -6 -74l-102 -709h-117l102 700q4 27 4 51q-1 85 -47 137q-60 66 -184 66q-81 0 -168 -38.5t-152 -106.5t-77 -145l-96 -664h-117z" />
<glyph unicode="o" horiz-adv-x="1120" d="M74 346l51 359q16 106 89 189t175.5 126t214.5 43q113 0 203 -43.5t137 -126.5q35 -62 36 -136q0 -25 -5 -52l-51 -359q-16 -107 -89 -191t-175.5 -127.5t-213.5 -43.5t-201 44q-91 43 -139 127q-36 63 -36 139q0 25 4 52zM188 350q-3 -18 -3 -34q0 -56 29 -103 q37 -60 103 -90.5t146 -30.5q123 0 226 71.5t120 186.5l51 350q3 18 3 34q-1 54 -29 100q-36 58 -101.5 88t-144.5 30q-78 0 -153 -29.5t-129.5 -88.5t-65.5 -134z" />
<glyph unicode="p" horiz-adv-x="1157" d="M-4 -416l213 1460h104l-10 -147q62 84 160 125t205 41q180 0 272 -101q72 -78 72 -202q0 -35 -6 -74l-50 -336q-26 -172 -147 -271t-299 -99q-107 0 -193 37.5t-127 115.5l-79 -549h-115zM219 332q-3 -20 -3 -38q0 -39 14 -72q19 -48 60.5 -77t97 -44t120.5 -15 q129 0 222.5 72t111.5 194l49 332q4 26 4 49q0 93 -57 151q-72 72 -205 72q-85 0 -161 -27t-132 -85t-68 -137z" />
<glyph unicode="q" horiz-adv-x="1157" d="M80 350l49 336q26 176 147.5 276.5t301.5 100.5q106 0 191 -39.5t124 -122.5l29 143h106l-213 -1460h-115l80 549q-63 -78 -158.5 -115.5t-201.5 -37.5q-179 0 -272 100q-74 77 -74 199q0 34 6 71zM195 350q-4 -24 -4 -47q0 -89 58 -146q72 -71 202 -71q137 0 239.5 63 t120.5 183l53 375q3 19 3 37q0 56 -29 100q-38 58 -105.5 85t-152.5 27q-135 0 -226.5 -71t-109.5 -199z" />
<glyph unicode="r" horiz-adv-x="731" d="M84 0l152 1044h104l-21 -200q46 93 128 157t178 64q65 0 114 -14l-34 -121q-45 10 -109 10q-76 0 -144.5 -51.5t-109.5 -127.5t-53 -157l-88 -604h-117z" />
<glyph unicode="s" horiz-adv-x="972" d="M12 115l68 88q54 -56 144 -86.5t177 -30.5q130 0 208.5 54.5t78.5 158.5q0 64 -55.5 102.5t-188.5 71.5q-159 38 -228 96.5t-69 155.5q0 86 33.5 152.5t91 106t128.5 59.5t151 20q92 0 180.5 -26t151.5 -70l-62 -90q-128 79 -278 79q-126 0 -203.5 -51t-77.5 -164 q0 -66 54.5 -102t189.5 -66q157 -36 226 -97.5t69 -156.5q0 -88 -33 -155t-91 -106.5t-130 -58.5t-156 -19q-102 0 -206.5 34.5t-172.5 100.5z" />
<glyph unicode="t" horiz-adv-x="790" d="M104 944l15 100h153l41 277h115l-41 -277h313l-14 -100h-313l-101 -686q-2 -18 -2 -33q0 -123 146 -123q109 0 213 37l16 -96q-130 -51 -260 -51q-127 0 -187 65q-45 49 -45 133q0 28 5 60l100 694h-154z" />
<glyph unicode="u" horiz-adv-x="1196" d="M123 342l102 702h115l-100 -698q-4 -24 -4 -45q0 -89 60 -143q74 -68 210 -68q135 0 230.5 67.5t113.5 188.5l100 698h115l-102 -702q-24 -168 -155 -265t-316 -97q-186 0 -290 97q-84 79 -84 204q0 29 5 61z" />
<glyph unicode="v" horiz-adv-x="1062" d="M113 1044h125l206 -890l465 890h125l-559 -1044h-108z" />
<glyph unicode="w" horiz-adv-x="1503" d="M125 1044h119l92 -886l399 886h101l149 -886l346 886h117l-428 -1046h-111l-145 866l-397 -866h-115z" />
<glyph unicode="x" horiz-adv-x="993" d="M-45 0l440 526l-266 518h135l217 -426l336 426h144l-424 -518l286 -526h-139l-231 434l-359 -434h-139z" />
<glyph unicode="y" horiz-adv-x="1005" d="M-18 -438l8 104q189 0 299 228l33 65l-213 1085h124l173 -929l444 929h125l-569 -1157q-75 -159 -178 -242t-246 -83z" />
<glyph unicode="z" horiz-adv-x="1011" d="M8 0l12 80l719 866h-581l14 98h723l-10 -69l-717 -871h631l-15 -104h-776z" />
<glyph unicode="{" horiz-adv-x="630" d="M127 109l102 391l-69 100l100 121l6 342q1 147 86 254.5t240 189.5l33 -82q-254 -140 -254 -358l-9 -365l-83 -96l59 -84l-109 -418q-56 -220 150 -364l-57 -84q-134 91 -184.5 198t-10.5 255z" />
<glyph unicode="|" horiz-adv-x="483" d="M45 -301l246 1694h104l-245 -1694h-105z" />
<glyph unicode="}" horiz-adv-x="641" d="M29 -260q127 78 193 165t69 199l14 418l80 84l-53 94l100 367q56 195 -151 358l51 82q134 -91 188 -196.5t15 -247.5l-99 -342l70 -121l-100 -100l-11 -391q-5 -134 -85 -244t-249 -207z" />
<glyph unicode="~" horiz-adv-x="817" d="M197 1272q45 64 88 94.5t96 30.5q48 0 128 -49t122 -50q52 5 86 68l69 -45q-83 -123 -174 -123q-48 0 -91.5 24t-82 48t-73.5 24q-62 0 -105 -71z" />
<glyph unicode="&#xa1;" horiz-adv-x="514" d="M47 -350l162 954h110l-118 -954h-154zM229 899l23 150h158l-23 -150h-158z" />
<glyph unicode="&#xa2;" horiz-adv-x="946" d="M72 342l53 356q24 166 153 266.5t304 100.5h12l82 262l94 -14l-82 -260q119 -25 201 -123l-72 -84q-88 104 -246 104q-125 0 -219 -70t-112 -188l-50 -344q-12 -82 23.5 -142.5t97.5 -88t138 -27.5q153 -3 282 88l39 -88q-74 -58 -156 -83t-186 -25q-19 0 -55 4l-78 -258 l-94 14l78 260q-113 35 -169.5 122t-37.5 218z" />
<glyph unicode="&#xa3;" horiz-adv-x="1187" d="M61 0l13 90q88 1 149 25t97.5 70.5t55 102t27.5 134.5l11 190h-271l15 101h260l14 252q17 209 191 324.5t432 115.5l-17 -111q-135 0 -240.5 -34t-173 -108t-75.5 -179l-12 -260h413l-14 -101h-404q-10 -128 -10 -180q-13 -113 -46 -190.5t-116 -130.5h603l-17 -111h-885 z" />
<glyph unicode="&#xa5;" horiz-adv-x="1146" d="M51 322l12 86h402l22 147l-10 23h-389l12 86h344l-266 729h139l250 -711l461 711h139l-489 -729h328l-13 -86h-372l-15 -23l-22 -147h383l-13 -86h-383l-47 -322h-118l47 322h-402z" />
<glyph unicode="&#xa6;" horiz-adv-x="483" d="M51 -233l99 667h94l-99 -667h-94zM195 741l98 670h94l-98 -670h-94z" />
<glyph unicode="&#xa7;" horiz-adv-x="1148" d="M31 -252l88 49q22 -73 98 -119.5t174 -46.5q129 0 219 72t90 193q0 50 -22.5 95.5t-54.5 79.5t-83.5 68.5t-93.5 56.5t-100 48q-43 20 -73 36.5t-66.5 44t-59 57.5t-38 74t-15.5 95q0 110 71 195t150 102q-39 61 -39 166q0 187 121 292t308 105q126 0 211 -52.5 t118 -146.5l-84 -53q-25 72 -92.5 113t-167.5 41q-126 0 -218.5 -78t-92.5 -197q0 -57 24 -104.5t77.5 -87t88 -59.5t105.5 -54q11 -5 16 -8q52 -27 87.5 -47.5t77.5 -52t67 -62.5t42 -73t17 -89q0 -31 -5 -61.5t-20 -68.5t-38.5 -70t-65.5 -62t-96 -49q47 -68 47 -168 q0 -117 -60 -206.5t-155.5 -135t-208.5 -45.5q-127 0 -222 58t-126 155zM199 565q0 -86 57 -138.5t184 -109.5q168 -76 252 -149q70 6 127.5 69t57.5 138q0 43 -15 78t-49 66t-77 57t-111 59q-155 72 -236 145q-75 -6 -132.5 -70t-57.5 -145z" />
<glyph unicode="&#xa8;" horiz-adv-x="706" d="M180 1184l23 145h131l-23 -145h-131zM512 1184l23 145h131l-23 -145h-131z" />
<glyph unicode="&#xa9;" horiz-adv-x="1662" d="M123 621q0 163 67 313.5t177 258.5t257.5 172.5t303.5 64.5q127 0 238.5 -50t189.5 -134t123 -199t45 -242q0 -162 -67.5 -312t-178 -257.5t-258 -171.5t-301.5 -64q-170 0 -307.5 83.5t-213 225t-75.5 312.5zM209 633q0 -150 66 -274.5t187 -198.5t271 -74 q135 0 263.5 56.5t225 151.5t155.5 227t59 274q0 149 -66.5 274t-186.5 198.5t-268 73.5q-182 0 -345 -95t-262 -259t-99 -354zM455 649l14 96q20 137 143.5 237.5t274.5 100.5q195 0 280 -133l-63 -71q-33 49 -98.5 78.5t-133.5 29.5q-112 0 -202.5 -72.5t-104.5 -169.5 l-14 -96q-15 -105 57 -173t187 -70q67 0 138.5 24t119.5 66l39 -76q-59 -54 -144 -82.5t-170 -28.5q-159 0 -251 97.5t-72 242.5z" />
<glyph unicode="&#xaa;" horiz-adv-x="712" d="M150 946l4 19q12 86 111.5 134.5t273.5 57.5l8 47q9 65 -16.5 91t-88.5 26q-40 0 -91.5 -15.5t-84.5 -33.5l-22 82q39 22 104 39.5t127 17.5q94 0 137.5 -47.5t30.5 -140.5l-63 -432h-74l6 75q-85 -82 -209 -82q-80 0 -122.5 40.5t-30.5 121.5zM242 950q-6 -39 18.5 -56 t71.5 -17q59 0 115.5 29.5t60.5 68.5l16 100q-266 -14 -280 -110z" />
<glyph unicode="&#xab;" horiz-adv-x="952" d="M68 356l366 369l45 -70l-278 -295l192 -290l-65 -70zM395 356l367 369l45 -70l-277 -295l191 -290l-66 -70z" />
<glyph unicode="&#xac;" horiz-adv-x="923" d="M100 586l13 94h667l-43 -295h-92l31 201h-576z" />
<glyph unicode="&#xad;" horiz-adv-x="716" d="M78 522l16 107h484l-17 -107h-483z" />
<glyph unicode="&#xae;" horiz-adv-x="1662" d="M123 618q0 163 66.5 314t176.5 259.5t258 173.5t304 65q170 0 307.5 -84.5t213 -227t75.5 -313.5q0 -163 -67 -313t-177 -257.5t-257.5 -171t-303.5 -63.5q-129 0 -240.5 48.5t-189 131.5t-122 196.5t-44.5 241.5zM209 631q0 -149 66.5 -273.5t187.5 -198t270 -73.5 q136 0 265 56.5t225 151t154.5 226.5t58.5 275q0 149 -66.5 274t-186.5 198.5t-268 73.5q-137 0 -266.5 -56.5t-226 -151.5t-155 -227t-58.5 -275zM516 315l117 793h315q93 0 149 -66t42 -157l-4 -31q-12 -78 -70 -134.5t-141 -68.5l151 -336h-112l-146 330h-158l-49 -330 h-94zM672 729h209q57 0 107 35t59 88l4 31q6 56 -30 96.5t-97 40.5h-209z" />
<glyph unicode="&#xaf;" horiz-adv-x="972" d="M229 1303l13 83h680l-13 -83h-680z" />
<glyph unicode="&#xb0;" horiz-adv-x="774" d="M186 1139l9 55q13 93 98 155t194 64q109 -2 176 -64t54 -155l-8 -55q-13 -92 -98.5 -153.5t-194.5 -61.5t-176 61t-54 154zM279 1135q-6 -53 37.5 -88t111.5 -35q69 0 123 35.5t61 87.5l9 63q7 52 -36 88.5t-112 36.5q-68 0 -123.5 -36.5t-62.5 -88.5z" />
<glyph unicode="&#xb1;" horiz-adv-x="1122" d="M18 0l15 94h858l-14 -94h-859zM117 629l14 96h363l51 356h98l-51 -356h369l-15 -96h-368l-56 -381h-98l55 381h-362z" />
<glyph unicode="&#xb2;" horiz-adv-x="778" d="M111 672l12 80q8 54 33.5 98t66.5 78t83 57.5t100 48.5q42 16 62.5 25t57 28t54 35.5t32.5 42t15 54.5q0 98 -154 98q-129 0 -229 -100l-49 65q56 59 137 94t166 35q118 0 174.5 -47t56.5 -125q0 -41 -15.5 -77.5t-38.5 -62.5t-59.5 -51t-68 -40.5t-74.5 -34.5 q-41 -18 -68 -31.5t-60.5 -34t-54.5 -39.5t-37.5 -45.5t-21.5 -56.5h447l-14 -94h-553z" />
<glyph unicode="&#xb3;" horiz-adv-x="755" d="M129 834l82 22q-1 -53 52.5 -84t133.5 -31q76 0 131 25.5t62 79.5l6 31q7 54 -43.5 85t-122.5 31h-133l12 88h123q185 0 199 113l4 18q8 61 -37 84t-123 23q-76 0 -138 -32.5t-75 -88.5l-72 25q21 83 110 136.5t194 53.5q52 0 96.5 -11t81 -33t54 -62t9.5 -93l-2 -14 q-18 -128 -162 -164q56 -13 95 -51.5t30 -107.5l-4 -33q-8 -53 -36.5 -92.5t-70.5 -61.5t-90.5 -32.5t-103.5 -10.5q-107 0 -186 53t-76 134z" />
<glyph unicode="&#xb4;" horiz-adv-x="505" d="M168 1151l233 283l82 -64l-245 -264z" />
<glyph unicode="&#xb6;" horiz-adv-x="1054" d="M168 1040l10 70q18 120 110.5 200t235.5 83h410l-203 -1393h-86l193 1313h-174l-193 -1313h-88l113 770h-62q-137 0 -210.5 72t-55.5 198z" />
<glyph unicode="&#xb7;" horiz-adv-x="393" d="M115 408l26 188h181l-27 -188h-180z" />
<glyph unicode="&#xb8;" horiz-adv-x="473" d="M-41 -438q23 7 47.5 18.5t53 29.5t46 43.5t17.5 53.5q0 92 -125 124q-3 1 -4 1l63 168h97l-50 -109q67 -34 94 -84q19 -36 19 -79q0 -86 -65 -146t-172 -88z" />
<glyph unicode="&#xb9;" horiz-adv-x="456" d="M158 1292l14 101h219l-102 -707h-101l88 606h-118z" />
<glyph unicode="&#xba;" horiz-adv-x="755" d="M160 1006l26 192q13 90 96.5 152.5t188.5 62.5q102 0 167 -62.5t52 -152.5l-28 -194q-12 -90 -95.5 -151.5t-187.5 -61.5q-105 0 -168.5 61.5t-50.5 153.5zM254 1008q-4 -59 34 -93t105 -34q64 0 114.5 35t57.5 88l29 196q6 54 -34.5 87.5t-102.5 33.5q-65 0 -116 -33.5 t-60 -87.5z" />
<glyph unicode="&#xbb;" horiz-adv-x="940" d="M2 70l277 290l-191 295l64 70l260 -369l-367 -356zM332 70l274 290l-188 295l63 70l258 -369l-364 -356z" />
<glyph unicode="&#xbc;" horiz-adv-x="1329" d="M14 0l1037 1393h120l-1032 -1393h-125zM262 1292l14 101h222l-103 -707h-100l88 606h-121zM506 180l10 74l430 473h137l-67 -465h131l-12 -82h-131l-27 -180h-98l26 180h-399zM629 262h289l51 359h-11z" />
<glyph unicode="&#xbd;" horiz-adv-x="1390" d="M16 0l1037 1393h121l-1035 -1393h-123zM264 1292l15 101h221l-103 -707h-100l88 606h-121zM623 -4l10 80q8 54 33 98t66 78t83 57.5t100 48.5q43 17 63 25.5t56.5 27.5t54.5 35.5t33 42t15 54.5q0 98 -154 98q-129 0 -229 -100l-49 65q56 59 136 94t165 35 q120 0 176.5 -46.5t56.5 -125.5q0 -41 -15.5 -77.5t-38.5 -62.5t-59.5 -51t-68 -40.5t-74.5 -34.5q-41 -18 -68.5 -31.5t-61 -34t-54 -39.5t-37.5 -45.5t-23 -56.5h447l-12 -94h-551z" />
<glyph unicode="&#xbe;" horiz-adv-x="1488" d="M121 834l82 22q-1 -53 52.5 -84t133.5 -31q76 0 131 25.5t62 79.5l6 31q7 54 -43.5 85t-122.5 31h-133l12 88h123q185 0 199 113l4 18q8 61 -37 84t-123 23q-76 0 -138 -32.5t-75 -88.5l-72 25q21 83 109.5 136.5t193.5 53.5q52 0 97 -11t81.5 -33t54 -62t9.5 -93l-2 -14 q-18 -128 -162 -164q56 -13 95 -51.5t30 -107.5l-4 -33q-8 -53 -36.5 -92.5t-70.5 -61.5t-90.5 -32.5t-103.5 -10.5q-107 0 -186 53t-76 134zM203 0l1038 1393h123l-1034 -1393h-127zM668 178l10 74l432 475h137l-65 -465h131l-13 -84h-131l-26 -178h-101l27 178h-401z M791 262h290l52 356h-13z" />
<glyph unicode="&#xbf;" horiz-adv-x="813" d="M-18 -106l20 133q6 46 35 88.5t60 69.5t81 66q10 7 15 11q38 29 60.5 48.5t49 48.5t41.5 61t21 69l22 152h117l-27 -172q-10 -71 -60 -129t-138 -125q-49 -38 -75.5 -61t-53 -58.5t-31.5 -68.5l-19 -125q-7 -47 2.5 -83t28.5 -55.5t47.5 -31.5t53 -15.5t51.5 -3.5 q114 0 262 115l39 -86q-171 -141 -326 -141q-159 0 -228 75.5t-48 217.5zM377 856l29 193h188l-29 -193h-188z" />
<glyph unicode="&#xc0;" horiz-adv-x="1288" d="M-27 0l711 1411h119l282 -1411h-124l-87 457h-548l-226 -457h-127zM373 565h483l-139 682zM575 1788l109 72l141 -297l-82 -52z" />
<glyph unicode="&#xc1;" horiz-adv-x="1288" d="M-27 0l711 1411h119l282 -1411h-124l-87 457h-548l-226 -457h-127zM373 565h483l-139 682zM678 1552l233 283l82 -63l-245 -265z" />
<glyph unicode="&#xc2;" horiz-adv-x="1288" d="M-27 0l711 1411h119l282 -1411h-124l-87 457h-548l-226 -457h-127zM373 565h483l-139 682zM524 1569l269 172l221 -172l-62 -68l-176 129l-215 -127z" />
<glyph unicode="&#xc3;" horiz-adv-x="1288" d="M-27 0l711 1411h119l282 -1411h-124l-87 457h-548l-226 -457h-127zM373 565h483l-139 682zM477 1575q45 63 88.5 94t96.5 31q48 0 127.5 -49t121.5 -49q50 0 86 67l70 -45q-83 -123 -174 -123q-38 0 -74.5 15t-60 33t-54.5 33t-59 15q-61 0 -104 -71z" />
<glyph unicode="&#xc4;" horiz-adv-x="1288" d="M-27 0l711 1411h119l282 -1411h-124l-87 457h-548l-226 -457h-127zM373 565h483l-139 682zM522 1546l23 146h131l-23 -146h-131zM854 1546l23 146h131l-23 -146h-131z" />
<glyph unicode="&#xc5;" horiz-adv-x="1288" d="M-27 0l711 1411h119l282 -1411h-124l-87 457h-548l-226 -457h-127zM373 565h483l-139 682zM625 1642q0 75 54.5 127t125.5 52q58 0 96.5 -39.5t38.5 -98.5q0 -73 -55.5 -126.5t-126.5 -53.5q-56 0 -94.5 40.5t-38.5 98.5zM698 1649q0 -31 20.5 -52.5t51.5 -21.5 q36 0 66 27.5t30 66.5q0 31 -20 54.5t-49 23.5q-37 0 -68 -30t-31 -68z" />
<glyph unicode="&#xc6;" horiz-adv-x="1771" d="M-51 0l1034 1393h705l-17 -113h-541l-73 -506h448l-14 -106h-449l-81 -557h589l-16 -111h-707l60 406h-498l-305 -406h-135zM459 512h442l111 754z" />
<glyph unicode="&#xc7;" horiz-adv-x="1187" d="M104 428l80 537q19 133 101 236t202 157.5t256 54.5q283 0 408 -162l-78 -90q-54 64 -143.5 100.5t-202.5 36.5q-160 0 -281.5 -92t-144.5 -245l-76 -529q-24 -165 68 -252.5t264 -87.5q234 0 379 109l47 -88q-92 -71 -198 -101t-244 -32l-39 -89q5 -1 15 -6t27.5 -18 t32.5 -30t26 -45.5t11 -61.5q0 -87 -65 -147.5t-172 -88.5l-25 70q35 10 67.5 26t64.5 48.5t32 70.5q0 90 -123 122q-3 1 -4 1l57 154q-183 22 -276 136.5t-66 305.5z" />
<glyph unicode="&#xc8;" horiz-adv-x="1128" d="M94 0l203 1393h739l-16 -113h-623l-73 -514h524l-17 -109h-524l-80 -546h674l-16 -111h-791zM518 1769l109 72l141 -297l-82 -51z" />
<glyph unicode="&#xc9;" horiz-adv-x="1128" d="M94 0l203 1393h739l-16 -113h-623l-73 -514h524l-17 -109h-524l-80 -546h674l-16 -111h-791zM637 1536l233 283l82 -64l-245 -264z" />
<glyph unicode="&#xca;" horiz-adv-x="1128" d="M94 0l203 1393h739l-16 -113h-623l-73 -514h524l-17 -109h-524l-80 -546h674l-16 -111h-791zM461 1550l268 172l221 -172l-61 -67l-176 129l-215 -127z" />
<glyph unicode="&#xcb;" horiz-adv-x="1128" d="M94 0l203 1393h739l-16 -113h-623l-73 -514h524l-17 -109h-524l-80 -546h674l-16 -111h-791zM465 1526l22 145h131l-22 -145h-131zM797 1526l22 145h131l-22 -145h-131z" />
<glyph unicode="&#xcc;" horiz-adv-x="587" d="M131 0l203 1393h115l-203 -1393h-115zM244 1769l108 72l142 -297l-82 -51z" />
<glyph unicode="&#xcd;" horiz-adv-x="587" d="M131 0l203 1393h115l-203 -1393h-115zM340 1534l233 283l82 -64l-245 -264z" />
<glyph unicode="&#xce;" horiz-adv-x="587" d="M131 0l203 1393h115l-203 -1393h-115zM174 1550l268 172l222 -172l-62 -67l-176 129l-215 -127z" />
<glyph unicode="&#xcf;" horiz-adv-x="587" d="M131 0l203 1393h115l-203 -1393h-115zM178 1526l23 145h131l-23 -145h-131zM510 1526l22 145h132l-23 -145h-131z" />
<glyph unicode="&#xd0;" horiz-adv-x="1339" d="M4 651l16 105h187l92 637h430q228 0 357 -121.5t98 -333.5l-72 -489q-21 -145 -105.5 -248t-209 -152t-277.5 -49h-424l94 651h-186zM227 111h310q187 0 311 86t149 256l72 481q15 108 -28.5 188t-128.5 119t-199 39h-314l-75 -524h327l-16 -105h-330z" />
<glyph unicode="&#xd1;" horiz-adv-x="1443" d="M92 0l203 1393h131l600 -1213l176 1213h113l-203 -1393h-127l-602 1217l-178 -1217h-113zM547 1556q45 64 88 94.5t96 30.5q48 0 128 -49t122 -49q49 0 86 68l70 -45q-83 -123 -174 -123q-38 0 -74.5 15t-60 33t-54.5 33t-59 15q-61 0 -105 -72z" />
<glyph unicode="&#xd2;" d="M113 424l80 541q29 203 183.5 325.5t368.5 122.5h35q221 0 343.5 -122.5t93.5 -325.5l-80 -541q-30 -208 -185 -326t-381 -118h-32q-222 0 -339 117.5t-87 326.5zM229 428q-23 -163 65 -250.5t259 -87.5h33q176 0 293.5 88t140.5 250l78 533q23 156 -70 247.5t-264 91.5 h-35q-164 0 -281.5 -91.5t-140.5 -247.5zM596 1790l109 72l141 -297l-82 -52z" />
<glyph unicode="&#xd3;" d="M113 424l80 541q29 203 183.5 325.5t368.5 122.5h35q221 0 343.5 -122.5t93.5 -325.5l-80 -541q-30 -208 -185 -326t-381 -118h-32q-222 0 -339 117.5t-87 326.5zM229 428q-23 -163 65 -250.5t259 -87.5h33q176 0 293.5 88t140.5 250l78 533q23 156 -70 247.5t-264 91.5 h-35q-164 0 -281.5 -91.5t-140.5 -247.5zM713 1554l233 283l82 -63l-246 -265z" />
<glyph unicode="&#xd4;" d="M113 424l80 541q29 203 183.5 325.5t368.5 122.5h35q221 0 343.5 -122.5t93.5 -325.5l-80 -541q-30 -208 -185 -326t-381 -118h-32q-222 0 -339 117.5t-87 326.5zM229 428q-23 -163 65 -250.5t259 -87.5h33q176 0 293.5 88t140.5 250l78 533q23 156 -70 247.5t-264 91.5 h-35q-164 0 -281.5 -91.5t-140.5 -247.5zM541 1571l268 172l221 -172l-61 -68l-176 129l-215 -127z" />
<glyph unicode="&#xd5;" d="M113 424l80 541q29 203 183.5 325.5t368.5 122.5h35q221 0 343.5 -122.5t93.5 -325.5l-80 -541q-30 -208 -185 -326t-381 -118h-32q-222 0 -339 117.5t-87 326.5zM229 428q-23 -163 65 -250.5t259 -87.5h33q176 0 293.5 88t140.5 250l78 533q23 156 -70 247.5t-264 91.5 h-35q-164 0 -281.5 -91.5t-140.5 -247.5zM487 1577q45 63 88.5 94t96.5 31q48 0 128 -48.5t122 -49.5q53 5 86 67l69 -45q-83 -123 -174 -123q-38 0 -74.5 15t-60 33t-54.5 33t-59 15q-61 0 -104 -71z" />
<glyph unicode="&#xd6;" d="M113 424l80 541q29 203 183.5 325.5t368.5 122.5h35q221 0 343.5 -122.5t93.5 -325.5l-80 -541q-30 -208 -185 -326t-381 -118h-32q-222 0 -339 117.5t-87 326.5zM229 428q-23 -163 65 -250.5t259 -87.5h33q176 0 293.5 88t140.5 250l78 533q23 156 -70 247.5t-264 91.5 h-35q-164 0 -281.5 -91.5t-140.5 -247.5zM545 1548l22 146h131l-22 -146h-131zM877 1548l22 146h131l-22 -146h-131z" />
<glyph unicode="&#xd7;" horiz-adv-x="1155" d="M16 0l463 518l-293 486h115l248 -404l369 404h114l-434 -486l313 -518h-123l-264 436l-389 -436h-119z" />
<glyph unicode="&#xd8;" d="M115 424l80 541q29 203 182.5 325.5t367.5 122.5h35q109 0 217 -41l105 187h94l-127 -226q88 -58 128 -152t22 -216l-80 -541q-30 -208 -185 -326t-383 -118h-32q-130 0 -215 36l-97 -170h-98l119 209q-83 56 -117.5 150t-15.5 219zM229 428q-23 -173 82 -264l625 1104 q-65 32 -172 32h-35q-164 0 -281.5 -91.5t-140.5 -247.5zM383 121q73 -31 170 -31h33q178 0 295.5 88t140.5 250l78 533q27 171 -92 266z" />
<glyph unicode="&#xd9;" horiz-adv-x="1417" d="M152 426l141 967h115l-140 -963q-13 -85 8.5 -151t69.5 -106.5t114.5 -61.5t147.5 -21q105 0 197.5 38.5t159 117t82.5 184.5l139 963h117l-142 -967q-21 -144 -103.5 -246.5t-201.5 -151t-262 -48.5q-107 0 -194 27.5t-148.5 81.5t-88.5 140t-11 197zM633 1769l108 72 l142 -297l-82 -51z" />
<glyph unicode="&#xda;" horiz-adv-x="1417" d="M152 426l141 967h115l-140 -963q-13 -85 8.5 -151t69.5 -106.5t114.5 -61.5t147.5 -21q105 0 197.5 38.5t159 117t82.5 184.5l139 963h117l-142 -967q-21 -144 -103.5 -246.5t-201.5 -151t-262 -48.5q-107 0 -194 27.5t-148.5 81.5t-88.5 140t-11 197zM752 1534l233 283 l82 -64l-246 -264z" />
<glyph unicode="&#xdb;" horiz-adv-x="1417" d="M152 426l141 967h115l-140 -963q-13 -85 8.5 -151t69.5 -106.5t114.5 -61.5t147.5 -21q105 0 197.5 38.5t159 117t82.5 184.5l139 963h117l-142 -967q-21 -144 -103.5 -246.5t-201.5 -151t-262 -48.5q-107 0 -194 27.5t-148.5 81.5t-88.5 140t-11 197zM580 1550l268 172 l221 -172l-61 -67l-177 129l-215 -127z" />
<glyph unicode="&#xdc;" horiz-adv-x="1417" d="M152 426l141 967h115l-140 -963q-13 -85 8.5 -151t69.5 -106.5t114.5 -61.5t147.5 -21q105 0 197.5 38.5t159 117t82.5 184.5l139 963h117l-142 -967q-21 -144 -103.5 -246.5t-201.5 -151t-262 -48.5q-107 0 -194 27.5t-148.5 81.5t-88.5 140t-11 197zM582 1526l22 145 h131l-22 -145h-131zM913 1526l23 145h131l-23 -145h-131z" />
<glyph unicode="&#xdd;" horiz-adv-x="1179" d="M188 1393h136l249 -713l465 713h138l-562 -838l-82 -555h-116l82 555zM641 1534l233 283l82 -64l-245 -264z" />
<glyph unicode="&#xde;" horiz-adv-x="1114" d="M96 -2l203 1395h117l-41 -281h356q158 0 242.5 -102t62.5 -250l-6 -41q-21 -142 -131 -233t-272 -91h-357l-57 -397h-117zM287 506h352q114 0 189 60t87 153l7 41q13 95 -43 168t-168 73h-353z" />
<glyph unicode="&#xe0;" horiz-adv-x="1067" d="M45 258l6 35q42 296 715 319l18 127q16 110 -30.5 163.5t-171.5 53.5q-78 0 -185.5 -27t-158.5 -55l-23 93q64 38 180 68t211 30q173 0 245.5 -85.5t49.5 -236.5l-108 -743h-103l17 162q-49 -67 -151.5 -122.5t-244.5 -55.5t-213 71t-53 203zM166 266q-13 -91 33 -134.5 t149 -43.5q141 0 251 69.5t122 155.5l31 205q-87 -3 -155.5 -9.5t-148.5 -22t-135 -39.5t-96 -65t-49 -95zM442 1466l109 72l141 -297l-82 -51z" />
<glyph unicode="&#xe1;" horiz-adv-x="1067" d="M45 258l6 35q42 296 715 319l18 127q16 110 -30.5 163.5t-171.5 53.5q-78 0 -185.5 -27t-158.5 -55l-23 93q64 38 180 68t211 30q173 0 245.5 -85.5t49.5 -236.5l-108 -743h-103l17 162q-49 -67 -151.5 -122.5t-244.5 -55.5t-213 71t-53 203zM166 266q-13 -91 33 -134.5 t149 -43.5q141 0 251 69.5t122 155.5l31 205q-87 -3 -155.5 -9.5t-148.5 -22t-135 -39.5t-96 -65t-49 -95zM555 1231l233 282l82 -63l-245 -264z" />
<glyph unicode="&#xe2;" horiz-adv-x="1067" d="M45 258l6 35q42 296 715 319l18 127q16 110 -30.5 163.5t-171.5 53.5q-78 0 -185.5 -27t-158.5 -55l-23 93q64 38 180 68t211 30q173 0 245.5 -85.5t49.5 -236.5l-108 -743h-103l17 162q-49 -67 -151.5 -122.5t-244.5 -55.5t-213 71t-53 203zM166 266q-13 -91 33 -134.5 t149 -43.5q141 0 251 69.5t122 155.5l31 205q-87 -3 -155.5 -9.5t-148.5 -22t-135 -39.5t-96 -65t-49 -95zM389 1247l268 172l222 -172l-62 -67l-176 129l-215 -127z" />
<glyph unicode="&#xe3;" horiz-adv-x="1067" d="M45 258l6 35q42 296 715 319l18 127q16 110 -30.5 163.5t-171.5 53.5q-78 0 -185.5 -27t-158.5 -55l-23 93q64 38 180 68t211 30q173 0 245.5 -85.5t49.5 -236.5l-108 -743h-103l17 162q-49 -67 -151.5 -122.5t-244.5 -55.5t-213 71t-53 203zM166 266q-13 -91 33 -134.5 t149 -43.5q141 0 251 69.5t122 155.5l31 205q-87 -3 -155.5 -9.5t-148.5 -22t-135 -39.5t-96 -65t-49 -95zM342 1253q45 64 88 94.5t96 30.5q48 0 128 -48.5t122 -49.5q52 5 86 68l70 -45q-83 -123 -174 -123q-38 0 -74.5 15t-60 33t-54.5 33t-59 15q-60 0 -104 -72z" />
<glyph unicode="&#xe4;" horiz-adv-x="1067" d="M45 258l6 35q42 296 715 319l18 127q16 110 -30.5 163.5t-171.5 53.5q-78 0 -185.5 -27t-158.5 -55l-23 93q64 38 180 68t211 30q173 0 245.5 -85.5t49.5 -236.5l-108 -743h-103l17 162q-49 -67 -151.5 -122.5t-244.5 -55.5t-213 71t-53 203zM166 266q-13 -91 33 -134.5 t149 -43.5q141 0 251 69.5t122 155.5l31 205q-87 -3 -155.5 -9.5t-148.5 -22t-135 -39.5t-96 -65t-49 -95zM387 1223l23 145h131l-23 -145h-131zM719 1223l22 145h131l-22 -145h-131z" />
<glyph unicode="&#xe5;" horiz-adv-x="1067" d="M45 258l6 35q42 296 715 319l18 127q16 110 -30.5 163.5t-171.5 53.5q-78 0 -185.5 -27t-158.5 -55l-23 93q64 38 180 68t211 30q173 0 245.5 -85.5t49.5 -236.5l-108 -743h-103l17 162q-49 -67 -151.5 -122.5t-244.5 -55.5t-213 71t-53 203zM166 266q-13 -91 33 -134.5 t149 -43.5q141 0 251 69.5t122 155.5l31 205q-87 -3 -155.5 -9.5t-148.5 -22t-135 -39.5t-96 -65t-49 -95zM489 1319q0 75 55 126.5t126 51.5q58 0 96.5 -39t38.5 -98q0 -73 -55.5 -126.5t-126.5 -53.5q-57 0 -95.5 41t-38.5 98zM563 1325q0 -31 20.5 -52.5t51.5 -21.5 q36 0 66 28t30 67q0 31 -20 54t-49 23q-37 0 -68 -30t-31 -68z" />
<glyph unicode="&#xe6;" horiz-adv-x="1757" d="M63 289l29 207l684 86l23 147q17 116 -37.5 176t-177.5 60q-82 0 -185.5 -32t-169.5 -65l-20 95q68 42 180.5 76t212.5 34q116 0 189.5 -46.5t97.5 -129.5q62 80 165.5 129t223.5 49q175 0 269 -93t71 -255l-23 -152l-708 -75l-25 -158q-12 -82 28.5 -139.5t113 -83 t167.5 -25.5q103 0 190 29.5t134 62.5l39 -82q-76 -57 -180 -87.5t-203 -30.5q-140 0 -241.5 47.5t-139.5 142.5q-69 -103 -174.5 -146.5t-220.5 -43.5q-152 0 -242.5 82.5t-69.5 220.5zM178 291q-14 -94 53 -148.5t175 -54.5q76 0 145.5 21.5t123 71t62.5 118.5l29 190 l-569 -69zM899 594l600 61l12 82q17 113 -53.5 172.5t-197.5 59.5q-124 0 -225 -72.5t-115 -169.5z" />
<glyph unicode="&#xe7;" horiz-adv-x="960" d="M74 342l53 356q24 166 153 266.5t304 100.5q104 0 177 -34t130 -101l-72 -84q-88 104 -246 104q-125 0 -219 -70t-112 -188l-49 -344q-9 -62 9 -112.5t55.5 -81.5t87.5 -47.5t106 -16.5q157 0 282 88l39 -88q-74 -58 -156 -83t-186 -25l-39 -91q5 -1 15 -6t28 -18t33 -30 t26 -45.5t11 -61.5q0 -87 -65.5 -147.5t-172.5 -88.5l-24 70q35 10 67.5 26t64.5 48.5t32 70.5q0 91 -130 123l60 158q-136 25 -209.5 115t-52.5 237z" />
<glyph unicode="&#xe8;" horiz-adv-x="1062" d="M72 344l53 373q14 96 85 176.5t173 125t209 44.5q166 0 269.5 -99t82.5 -247l-29 -203h-704l-25 -168q-12 -81 27 -140t107.5 -85.5t154.5 -26.5q201 0 324 84l35 -86q-152 -106 -377 -106q-84 0 -158.5 23t-130 66t-82.5 113t-14 156zM225 614h592l14 103 q15 103 -60.5 171t-195.5 68t-219 -69t-116 -170zM424 1466l108 72l142 -297l-82 -51z" />
<glyph unicode="&#xe9;" horiz-adv-x="1062" d="M72 344l53 373q14 96 85 176.5t173 125t209 44.5q166 0 269.5 -99t82.5 -247l-29 -203h-704l-25 -168q-12 -81 27 -140t107.5 -85.5t154.5 -26.5q201 0 324 84l35 -86q-152 -106 -377 -106q-84 0 -158.5 23t-130 66t-82.5 113t-14 156zM225 614h592l14 103 q15 103 -60.5 171t-195.5 68t-219 -69t-116 -170zM541 1231l233 282l82 -63l-246 -264z" />
<glyph unicode="&#xea;" horiz-adv-x="1062" d="M72 344l53 373q14 96 85 176.5t173 125t209 44.5q166 0 269.5 -99t82.5 -247l-29 -203h-704l-25 -168q-12 -81 27 -140t107.5 -85.5t154.5 -26.5q201 0 324 84l35 -86q-152 -106 -377 -106q-84 0 -158.5 23t-130 66t-82.5 113t-14 156zM225 614h592l14 103 q15 103 -60.5 171t-195.5 68t-219 -69t-116 -170zM371 1247l268 172l221 -172l-61 -67l-176 129l-215 -127z" />
<glyph unicode="&#xeb;" horiz-adv-x="1062" d="M72 344l53 373q14 96 85 176.5t173 125t209 44.5q166 0 269.5 -99t82.5 -247l-29 -203h-704l-25 -168q-12 -81 27 -140t107.5 -85.5t154.5 -26.5q201 0 324 84l35 -86q-152 -106 -377 -106q-84 0 -158.5 23t-130 66t-82.5 113t-14 156zM225 614h592l14 103 q15 103 -60.5 171t-195.5 68t-219 -69t-116 -170zM371 1223l22 145h131l-22 -145h-131zM702 1223l23 145h131l-22 -145h-132z" />
<glyph unicode="&#xec;" horiz-adv-x="526" d="M106 0l154 1047h115l-154 -1047h-115zM168 1454l108 72l142 -297l-82 -51z" />
<glyph unicode="&#xed;" horiz-adv-x="526" d="M106 0l154 1047h115l-154 -1047h-115zM279 1219l233 282l82 -63l-246 -264z" />
<glyph unicode="&#xee;" horiz-adv-x="526" d="M106 0l154 1047h115l-154 -1047h-115zM111 1235l268 172l221 -172l-61 -68l-177 129l-215 -127z" />
<glyph unicode="&#xef;" horiz-adv-x="526" d="M106 0l154 1047h115l-154 -1047h-115zM117 1210l22 146h131l-22 -146h-131zM449 1210l22 146h131l-22 -146h-131z" />
<glyph unicode="&#xf0;" horiz-adv-x="1120" d="M74 336l45 315q23 153 151 256t297 103q202 0 293 -129q-14 187 -145 354l-305 -131l-21 74l266 114q-120 120 -270 148l53 100q201 -57 340 -199l269 117l24 -74l-242 -106q190 -239 136 -608l-50 -334q-22 -149 -163.5 -252.5t-317.5 -103.5q-173 0 -278 102t-82 254z M193 344q-17 -108 57.5 -181t198.5 -73q126 0 230.5 74.5t119.5 177.5l45 301q15 107 -68.5 180.5t-208.5 73.5q-123 0 -219.5 -73t-111.5 -179z" />
<glyph unicode="&#xf1;" horiz-adv-x="1212" d="M78 0l151 1044h105l-25 -204q79 106 186 164.5t228 58.5q169 0 251.5 -93.5t57.5 -260.5l-102 -709h-117l102 700q17 121 -42.5 187.5t-184.5 66.5q-81 0 -168 -38.5t-152 -106.5t-77 -145l-96 -664h-117zM393 1253q45 63 88.5 94t96.5 31q48 0 127.5 -49t121.5 -49 q49 0 86 68l70 -45q-83 -123 -174 -123q-38 0 -74.5 15t-60 33t-54.5 33t-59 15q-60 0 -104 -72z" />
<glyph unicode="&#xf2;" horiz-adv-x="1120" d="M74 346l51 359q16 106 89 189t175.5 126t214.5 43q113 0 203 -43.5t137 -126.5t31 -188l-51 -359q-16 -107 -89 -191t-175.5 -127.5t-213.5 -43.5t-201 43.5t-138.5 127.5t-32.5 191zM188 350q-11 -77 26 -137t103 -90.5t146 -30.5q123 0 226 71.5t120 186.5l51 350 q11 76 -25.5 134.5t-102 88t-144.5 29.5q-78 0 -153 -29.5t-129.5 -88.5t-65.5 -134zM438 1466l109 72l141 -297l-82 -51z" />
<glyph unicode="&#xf3;" horiz-adv-x="1120" d="M74 346l51 359q16 106 89 189t175.5 126t214.5 43q113 0 203 -43.5t137 -126.5t31 -188l-51 -359q-16 -107 -89 -191t-175.5 -127.5t-213.5 -43.5t-201 43.5t-138.5 127.5t-32.5 191zM188 350q-11 -77 26 -137t103 -90.5t146 -30.5q123 0 226 71.5t120 186.5l51 350 q11 76 -25.5 134.5t-102 88t-144.5 29.5q-78 0 -153 -29.5t-129.5 -88.5t-65.5 -134zM559 1231l234 282l81 -63l-245 -264z" />
<glyph unicode="&#xf4;" horiz-adv-x="1120" d="M74 346l51 359q16 106 89 189t175.5 126t214.5 43q113 0 203 -43.5t137 -126.5t31 -188l-51 -359q-16 -107 -89 -191t-175.5 -127.5t-213.5 -43.5t-201 43.5t-138.5 127.5t-32.5 191zM188 350q-11 -77 26 -137t103 -90.5t146 -30.5q123 0 226 71.5t120 186.5l51 350 q11 76 -25.5 134.5t-102 88t-144.5 29.5q-78 0 -153 -29.5t-129.5 -88.5t-65.5 -134zM381 1247l268 172l221 -172l-61 -67l-176 129l-215 -127z" />
<glyph unicode="&#xf5;" horiz-adv-x="1120" d="M72 346l51 359q16 106 89 189t175.5 126t214.5 43q113 0 203 -43.5t137 -126.5t31 -188l-51 -359q-16 -107 -89 -191t-175.5 -127.5t-213.5 -43.5t-201 43.5t-138.5 127.5t-32.5 191zM186 350q-11 -77 26 -137t103 -90.5t146 -30.5q123 0 226 71.5t120 186.5l51 350 q11 76 -25.5 134.5t-102 88t-144.5 29.5q-78 0 -153 -29.5t-129.5 -88.5t-65.5 -134zM336 1255q45 64 88 94.5t96 30.5q48 0 128 -49t122 -49q49 0 86 68l70 -45q-83 -123 -174 -123q-38 0 -74.5 15t-60 33t-54.5 33t-59 15q-61 0 -105 -72z" />
<glyph unicode="&#xf6;" horiz-adv-x="1120" d="M74 346l51 359q16 106 89 189t175.5 126t214.5 43q113 0 203 -43.5t137 -126.5t31 -188l-51 -359q-16 -107 -89 -191t-175.5 -127.5t-213.5 -43.5t-201 43.5t-138.5 127.5t-32.5 191zM188 350q-11 -77 26 -137t103 -90.5t146 -30.5q123 0 226 71.5t120 186.5l51 350 q11 76 -25.5 134.5t-102 88t-144.5 29.5q-78 0 -153 -29.5t-129.5 -88.5t-65.5 -134zM385 1223l23 145h131l-23 -145h-131zM717 1223l22 145h131l-22 -145h-131z" />
<glyph unicode="&#xf7;" horiz-adv-x="1406" d="M100 537l15 96h1136l-14 -96h-1137zM518 170l27 182h182l-27 -182h-182zM610 807l29 184h182l-28 -184h-183z" />
<glyph unicode="&#xf8;" horiz-adv-x="1120" d="M-6 -121l156 215q-99 103 -76 252l51 359q16 106 89 189t175.5 126t214.5 43q113 0 205 -45l104 145h95l-136 -186q126 -105 103 -272l-51 -359q-16 -107 -89 -191t-175.5 -127.5t-213.5 -43.5q-140 0 -237 63l-121 -168h-94zM188 350q-12 -88 35 -151l516 721 q-72 32 -151 32q-124 0 -227.5 -70t-120.5 -182zM279 145q74 -53 184 -53q123 0 226 71.5t120 186.5l51 350q15 105 -61 177z" />
<glyph unicode="&#xf9;" horiz-adv-x="1196" d="M123 342l102 702h115l-100 -698q-18 -121 56 -188.5t210 -67.5q135 0 230.5 67.5t113.5 188.5l100 698h115l-102 -702q-24 -168 -155 -265t-316 -97q-186 0 -289.5 97t-79.5 265zM481 1446l109 72l141 -297l-82 -52z" />
<glyph unicode="&#xfa;" horiz-adv-x="1196" d="M123 342l102 702h115l-100 -698q-18 -121 56 -188.5t210 -67.5q135 0 230.5 67.5t113.5 188.5l100 698h115l-102 -702q-24 -168 -155 -265t-316 -97q-186 0 -289.5 97t-79.5 265zM598 1210l233 283l82 -63l-245 -265z" />
<glyph unicode="&#xfb;" horiz-adv-x="1196" d="M123 342l102 702h115l-100 -698q-18 -121 56 -188.5t210 -67.5q135 0 230.5 67.5t113.5 188.5l100 698h115l-102 -702q-24 -168 -155 -265t-316 -97q-186 0 -289.5 97t-79.5 265zM426 1229l268 172l221 -172l-61 -68l-176 129l-215 -127z" />
<glyph unicode="&#xfc;" horiz-adv-x="1196" d="M123 342l102 702h115l-100 -698q-18 -121 56 -188.5t210 -67.5q135 0 230.5 67.5t113.5 188.5l100 698h115l-102 -702q-24 -168 -155 -265t-316 -97q-186 0 -289.5 97t-79.5 265zM428 1202l23 146h131l-23 -146h-131zM760 1202l22 146h131l-22 -146h-131z" />
<glyph unicode="&#xfd;" horiz-adv-x="1005" d="M-18 -438l8 104q189 0 299 228l33 65l-213 1085h124l173 -929l444 929h125l-569 -1157q-75 -159 -178 -242t-246 -83zM498 1219l233 282l82 -63l-246 -264z" />
<glyph unicode="&#xfe;" horiz-adv-x="1175" d="M-4 -481l276 1892h117l-76 -512q69 77 166 122.5t201 45.5q172 0 270.5 -102t75.5 -256l-53 -371q-22 -153 -151 -255.5t-300 -102.5q-108 0 -192.5 42.5t-130.5 118.5l-90 -622h-113zM242 340q-15 -105 69 -179.5t211 -74.5q125 0 223 72.5t113 183.5l53 363 q17 111 -60 183.5t-202 72.5q-127 0 -233 -76t-121 -180z" />
<glyph unicode="&#xff;" horiz-adv-x="1005" d="M-18 -438l8 104q189 0 299 228l33 65l-213 1085h124l173 -929l444 929h125l-569 -1157q-75 -159 -178 -242t-246 -83zM344 1202l23 146h131l-23 -146h-131zM676 1202l22 146h131l-22 -146h-131z" />
<glyph unicode="&#x152;" horiz-adv-x="1865" d="M106 442l72 504q13 86 69 167.5t137 142.5t185 98t209 37h994l-17 -111h-588l-73 -502h497l-14 -110h-498l-82 -557h639l-16 -111h-1042q-147 0 -262 59t-171.5 160.5t-38.5 222.5zM221 449q-17 -148 91.5 -243t281.5 -95h287l170 1169h-289q-100 0 -203.5 -47 t-178 -126.5t-87.5 -166.5z" />
<glyph unicode="&#x153;" horiz-adv-x="1802" d="M74 352l53 359q22 152 154 254t307 102q119 0 215.5 -54.5t132.5 -148.5q57 80 165.5 141.5t227.5 61.5q164 0 270 -94t84 -248l-28 -205h-705l-26 -180q-12 -76 30.5 -133t114 -83t156.5 -26q80 0 171.5 26t143.5 62l35 -90q-70 -49 -172.5 -75.5t-194.5 -26.5 q-135 0 -233 48t-139 151q-65 -93 -173.5 -146t-228.5 -53q-176 0 -279.5 102t-80.5 256zM190 356q-15 -105 63.5 -178.5t203.5 -73.5q123 0 223 69.5t115 168.5l55 377q15 98 -65.5 167.5t-202.5 69.5q-126 0 -225.5 -72.5t-114.5 -176.5zM965 621h591l15 102 q15 101 -62.5 169.5t-191.5 68.5q-121 0 -222 -70t-116 -172z" />
<glyph unicode="&#x178;" horiz-adv-x="1179" d="M188 1393h136l249 -713l465 713h138l-562 -838l-82 -555h-116l82 555zM467 1526l22 145h132l-23 -145h-131zM799 1526l22 145h131l-22 -145h-131z" />
<glyph unicode="&#x2c6;" horiz-adv-x="724" d="M193 1237l268 172l221 -172l-61 -68l-177 129l-215 -127z" />
<glyph unicode="&#x2dc;" horiz-adv-x="827" d="M203 1272q45 64 88 94.5t96 30.5q48 0 128 -49.5t122 -49.5q49 0 86 68l70 -45q-83 -123 -175 -123q-48 0 -91.5 24t-82 48t-73.5 24q-62 0 -105 -71z" />
<glyph unicode="&#x2000;" horiz-adv-x="931" />
<glyph unicode="&#x2001;" horiz-adv-x="1862" />
<glyph unicode="&#x2002;" horiz-adv-x="931" />
<glyph unicode="&#x2003;" horiz-adv-x="1862" />
<glyph unicode="&#x2004;" horiz-adv-x="620" />
<glyph unicode="&#x2005;" horiz-adv-x="465" />
<glyph unicode="&#x2006;" horiz-adv-x="310" />
<glyph unicode="&#x2007;" horiz-adv-x="310" />
<glyph unicode="&#x2008;" horiz-adv-x="232" />
<glyph unicode="&#x2009;" horiz-adv-x="372" />
<glyph unicode="&#x200a;" horiz-adv-x="103" />
<glyph unicode="&#x2010;" horiz-adv-x="716" d="M78 522l16 107h484l-17 -107h-483z" />
<glyph unicode="&#x2011;" horiz-adv-x="716" d="M78 522l16 107h484l-17 -107h-483z" />
<glyph unicode="&#x2012;" horiz-adv-x="716" d="M78 522l16 107h484l-17 -107h-483z" />
<glyph unicode="&#x2013;" horiz-adv-x="1161" d="M0 545l14 96h1084l-15 -96h-1083z" />
<glyph unicode="&#x2014;" horiz-adv-x="1599" d="M8 545l15 96h1513l-14 -96h-1514z" />
<glyph unicode="&#x2018;" horiz-adv-x="249" d="M125 1051l8 57q19 131 51 209.5t90 136.5l56 -43q-60 -83 -82 -246l-17 -114h-106z" />
<glyph unicode="&#x2019;" horiz-adv-x="253" d="M76 1098q45 54 68 104.5t34 136.5l17 113h110l-6 -53q-14 -93 -40 -161.5t-51.5 -103.5t-68.5 -79z" />
<glyph unicode="&#x201a;" horiz-adv-x="458" d="M70 -203q43 53 65 104.5t35 137.5l16 113h113l-8 -54q-20 -135 -57.5 -207t-104.5 -137z" />
<glyph unicode="&#x201c;" horiz-adv-x="487" d="M123 1049l8 57q19 133 51.5 212t91.5 136l56 -43q-62 -85 -84 -246l-17 -116h-106zM362 1049l9 57q19 133 51.5 212t91.5 136l55 -43q-59 -82 -82 -246l-16 -116h-109z" />
<glyph unicode="&#x201d;" horiz-adv-x="518" d="M70 1042q43 54 66 105.5t34 136.5l16 113h111l-6 -54q-14 -93 -40 -161.5t-51.5 -103.5t-68.5 -79zM322 1042q45 54 68 105t34 137l16 113h109l-6 -54q-20 -135 -57 -206.5t-101 -137.5z" />
<glyph unicode="&#x201e;" horiz-adv-x="800" d="M72 -201q42 55 64.5 106t35.5 136l16 113h111l-8 -54q-20 -136 -56.5 -207.5t-101.5 -136.5zM393 -199q43 53 65.5 104.5t35.5 137.5l16 113h111l-9 -54q-20 -136 -56.5 -208t-100.5 -136z" />
<glyph unicode="&#x2022;" horiz-adv-x="706" d="M121 360l51 351h344l-51 -351h-344z" />
<glyph unicode="&#x2026;" horiz-adv-x="1486" d="M80 0l29 193h174l-29 -193h-174zM543 0l28 193h174l-28 -193h-174zM1006 0l28 193h174l-28 -193h-174z" />
<glyph unicode="&#x202f;" horiz-adv-x="372" />
<glyph unicode="&#x2039;" horiz-adv-x="614" d="M70 356l366 369l51 -70l-276 -295l190 -290l-71 -70z" />
<glyph unicode="&#x203a;" horiz-adv-x="614" d="M27 70l276 290l-190 295l73 70l256 -369l-362 -356z" />
<glyph unicode="&#x205f;" horiz-adv-x="465" />
<glyph unicode="&#x20ac;" horiz-adv-x="1341" d="M68 535l12 88h172l24 170h-172l15 86h172l12 86q29 199 189 323.5t368 124.5q285 0 410 -162l-78 -88q-114 137 -344 137q-163 0 -286 -93t-146 -246l-10 -82h608l-15 -86h-608l-24 -170h608l-12 -88h-609l-14 -103q-25 -166 67.5 -254t266.5 -88q238 0 383 109l45 -86 q-172 -133 -449 -133q-144 0 -247 50t-153 152.5t-30 245.5l17 107h-172z" />
<glyph unicode="&#x2122;" horiz-adv-x="1146" d="M190 1354l13 80h364l-12 -80h-141l-52 -353h-77l51 353h-146zM588 1004l63 430h80l90 -213l158 213h82l-64 -430h-82l43 292l-129 -178h-43l-73 185l-45 -299h-80z" />
<glyph unicode="&#x25fc;" horiz-adv-x="1044" d="M0 0v1044h1044v-1044h-1044z" />
<glyph unicode="&#xfb03;" horiz-adv-x="1796" d="M102 0l138 946h-138l15 98h137l20 132q21 142 141.5 218t297.5 76q90 0 200.5 -14.5t180.5 -38.5q112 53 258 53q180 0 352 -49l-37 -92q-186 33 -317 33q-140 0 -226.5 -50.5t-99.5 -148.5l-18 -119h245l-14 -98h-246l-137 -946h-115l138 946h-523l-137 -946h-115z M369 1044h522l20 132q16 105 74 163q-135 23 -274 23q-141 0 -227 -50.5t-99 -148.5zM1378 0l152 1044h115l-152 -1044h-115z" />
<glyph unicode="&#xfb04;" horiz-adv-x="1802" d="M102 0l138 946h-138l15 98h137l18 132q21 142 142.5 218t298.5 76q90 0 200.5 -14.5t180.5 -38.5q112 53 258 53q181 0 350 -49l-207 -1421h-115l197 1343q-117 19 -227 19q-140 0 -226.5 -50.5t-99.5 -148.5l-18 -119h245l-14 -98h-246l-137 -946h-115l138 946h-523 l-137 -946h-115zM369 1044h522l20 132q16 105 74 163q-135 23 -274 23q-141 0 -227 -50.5t-99 -148.5z" />
</font>
</defs>
</svg>
