<?xml version="1.0" standalone="no"?>
<!DOCTYPE svg PUBLIC "-//W3C//DTD SVG 1.1//EN" "http://www.w3.org/Graphics/SVG/1.1/DTD/svg11.dtd" >
<svg xmlns="http://www.w3.org/2000/svg">
<metadata></metadata>
<defs>
<font id="bose_gothic_screenthin" horiz-adv-x="1277" >
<font-face units-per-em="2048" ascent="1536" descent="-512" />
<missing-glyph horiz-adv-x="446" />
<glyph unicode="&#xdf;" horiz-adv-x="1269" d="M205 0v1145q0 78 29.5 146.5t83 118.5t128 79t164.5 29q76 0 153 -19.5t138.5 -60.5t99 -107.5t37.5 -161.5q-61 -57 -100 -101t-60.5 -82t-29.5 -77t-8 -86q0 -45 12 -78.5t33.5 -60.5t48.5 -49.5t55 -44.5q31 -27 62.5 -54.5t57.5 -63.5t41 -83t15 -110 q0 -68 -30.5 -122.5t-83 -93t-124 -59t-153.5 -20.5q-121 0 -217 48t-135 134l72 29q31 -53 96 -94.5t196 -41.5q57 0 111.5 14.5t97.5 42t69 68.5t26 95q0 61 -16.5 103t-43 73.5t-60.5 56.5t-67 51q-55 41 -97 98.5t-42 161.5q0 43 6 85t25.5 87t56.5 92.5t100 96.5 q0 72 -30.5 121t-78.5 79.5t-109.5 44t-123.5 13.5q-74 0 -135 -23.5t-104 -63.5t-66.5 -94.5t-23.5 -115.5v-1145h-76z" />
<glyph unicode="&#xfb01;" horiz-adv-x="1134" d="M66 969v75h145v134q0 70 29.5 124t83 89.5t125 54t155.5 18.5q72 0 160 -10t162 -29l-17 -65q-86 16 -158.5 22.5t-144.5 6.5q-145 0 -232 -53.5t-87 -157.5v-134h254v-75h-254v-969h-76v969h-145zM850 0v1044h76v-1044h-76z" />
<glyph unicode="&#xfb02;" horiz-adv-x="1144" d="M66 969v75h145v134q0 70 29.5 124t83 89.5t125 54t155.5 18.5q72 0 160 -10t162 -29v-1425h-76v1370q-61 10 -124.5 14.5t-119.5 4.5q-145 0 -232 -53.5t-87 -157.5v-134h254v-75h-254v-969h-76v969h-145z" />
<glyph horiz-adv-x="0" />
<glyph unicode="&#xd;" horiz-adv-x="446" />
<glyph unicode=" "  horiz-adv-x="446" />
<glyph unicode="&#x09;" horiz-adv-x="446" />
<glyph unicode="&#xa0;" horiz-adv-x="446" />
<glyph unicode="!" horiz-adv-x="507" d="M197 0v174h159v-174h-159zM238 481v912h75v-912h-75z" />
<glyph unicode="&#x22;" horiz-adv-x="598" d="M143 940v453h76v-453h-76zM377 940v453h76v-453h-76z" />
<glyph unicode="#" horiz-adv-x="1529" d="M135 367v75h369l76 406h-396v76h410l74 407h77l-73 -407h329l76 407h76l-74 -407h314v-76h-328l-74 -406h350v-75h-362l-66 -367h-77l63 367h-330l-67 -367h-76l63 367h-354zM582 442h331l74 406h-330z" />
<glyph unicode="$" horiz-adv-x="1171" d="M119 223l61 41q68 -106 183.5 -156.5t250.5 -50.5q78 0 143.5 17.5t114 52.5t75 86t26.5 117q0 70 -20.5 121t-65.5 90t-117 69.5t-174 61.5q-96 29 -175 63.5t-136.5 82.5t-88 109.5t-30.5 145.5q0 86 31.5 149.5t90 105.5t139.5 63.5t177 21.5q16 0 32.5 -1t33.5 -3 l30 195l78 -11l-30 -194q98 -23 172.5 -70t128.5 -112l-56 -48q-59 74 -158.5 121t-232.5 47q-76 0 -141.5 -16t-114.5 -49t-76.5 -83t-27.5 -116q0 -72 27.5 -123t79.5 -89t127 -68.5t167 -57.5q102 -31 178 -65.5t127 -81.5t76 -109.5t25 -148.5q0 -84 -33 -148.5 t-90.5 -108.5t-138 -67.5t-175.5 -23.5q-23 0 -43 1t-43 3l-37 -240l-77 10l37 244q-104 25 -190.5 80t-139.5 143z" />
<glyph unicode="%" horiz-adv-x="1490" d="M164 985v223q0 43 19.5 80t53 64.5t79.5 44t98 16.5q51 0 96 -16.5t79 -44t53.5 -64.5t19.5 -80v-223q0 -43 -19.5 -81t-53.5 -65.5t-79 -44t-96 -16.5t-97.5 16.5t-80 44t-53 65.5t-19.5 81zM240 985q0 -27 14 -50.5t37.5 -42t55.5 -28.5t67 -10q72 0 122 39t50 92v223 q0 55 -50.5 92t-121.5 37q-72 0 -123 -37.5t-51 -91.5v-223zM268 0l856 1393h97l-854 -1393h-99zM827 186v224q0 43 19.5 79.5t53.5 64.5t80 44t97 16t96.5 -16t79 -44t53 -64.5t19.5 -79.5v-224q0 -43 -19.5 -80.5t-53 -65.5t-79 -44t-96.5 -16t-97 16t-80 44t-53.5 65.5 t-19.5 80.5zM903 186q0 -27 14.5 -50t38 -41.5t55 -29t66.5 -10.5q72 0 122 39t50 92v224q0 55 -50 92t-122 37t-123 -38t-51 -91v-224z" />
<glyph unicode="&#x26;" horiz-adv-x="1454" d="M123 311q0 72 35 135.5t88 119t119.5 105.5t130.5 93l32 22l-225 240v160q0 49 22.5 91t61.5 72.5t92 48t115 17.5q154 0 236.5 -66.5t82.5 -183.5q0 -61 -23.5 -113.5t-62.5 -99.5t-89 -89t-101 -83l416 -434l207 221l59 -49l-213 -229l256 -266l-59 -54l-250 264 q-49 -51 -106.5 -97t-123 -81t-139.5 -55t-156 -20q-188 0 -296.5 81.5t-108.5 249.5zM199 313q0 -47 13 -93t50 -83t101.5 -59.5t164.5 -22.5q72 0 137.5 19.5t124 51.5t110.5 74t99 89l-421 446l-41 -30q-57 -45 -117 -89.5t-109 -91.5t-80.5 -99t-31.5 -112zM381 1049 l207 -218q49 37 95 75t80 78t54.5 84t20.5 91q0 180 -244 180q-109 0 -161 -48t-52 -111v-131z" />
<glyph unicode="'" horiz-adv-x="446" d="M184 999v455h76v-455h-76z" />
<glyph unicode="(" horiz-adv-x="655" d="M205 170v756q0 104 18.5 199.5t54 175t86 142t115.5 101.5l41 -61q-109 -66 -174 -209.5t-65 -347.5v-756q0 -211 65.5 -348t173.5 -205l-41 -66q-66 39 -116 101.5t-85.5 142.5t-54 175.5t-18.5 199.5z" />
<glyph unicode=")" horiz-adv-x="653" d="M133 -379q109 68 173.5 212t64.5 362v710q0 205 -64.5 354.5t-173.5 215.5l41 69q63 -39 114.5 -104.5t86.5 -149.5t53 -182t18 -203v-710q0 -104 -18 -202.5t-53 -182.5t-86 -150t-115 -104z" />
<glyph unicode="*" horiz-adv-x="802" d="M123 1208l22 72l217 -68v222h78v-222l215 68l23 -72l-215 -67l133 -180l-61 -46l-134 181l-135 -181l-61 46l133 180z" />
<glyph unicode="+" horiz-adv-x="1193" d="M82 748v75h475v447h76v-447h477v-75h-477v-482h-76v482h-475z" />
<glyph unicode="," horiz-adv-x="342" d="M59 -203q18 27 30.5 50.5t20 51t11.5 60.5t4 76v108h82v-53q0 -70 -6 -119t-18.5 -86t-30 -65.5t-41.5 -57.5z" />
<glyph unicode="-" horiz-adv-x="718" d="M113 532v76h491v-76h-491z" />
<glyph unicode="." horiz-adv-x="487" d="M164 0v172h158v-172h-158z" />
<glyph unicode="/" horiz-adv-x="761" d="M61 -174l564 1567h86l-564 -1567h-86z" />
<glyph unicode="0" horiz-adv-x="1310" d="M172 406v579q0 104 39 184t105.5 134.5t153.5 82t185 27.5t185.5 -27.5t153 -82t104.5 -134t39 -184.5v-579q0 -104 -38 -184.5t-104.5 -134.5t-153.5 -80.5t-186 -26.5q-98 0 -186 26.5t-153.5 80.5t-104.5 134t-39 185zM248 406q0 -90 32.5 -156t89 -109t130 -64.5 t155.5 -21.5t156 21.5t129 64.5t88 108.5t33 156.5v579q0 88 -33 154.5t-88 110.5t-129 65.5t-156 21.5t-155.5 -21.5t-130 -65.5t-89 -110.5t-32.5 -154.5v-579z" />
<glyph unicode="1" horiz-adv-x="546" d="M72 1317v76h231v-1393h-76v1317h-155z" />
<glyph unicode="2" horiz-adv-x="1116" d="M139 0v37q0 115 20.5 206t66.5 166.5t119 138t179 122.5q70 39 136.5 78.5t116.5 86t81 100.5t31 126q0 63 -24.5 111.5t-68.5 81t-103.5 48t-129.5 15.5q-57 0 -111.5 -13.5t-103.5 -36t-90 -51t-68 -57.5l-49 58q76 74 186.5 125t233.5 51q78 0 150.5 -19.5t129 -60.5 t90.5 -103.5t34 -148.5q0 -82 -34 -147.5t-88.5 -118t-122.5 -95t-136 -79.5q-182 -98 -275.5 -226.5t-93.5 -318.5h782v-76h-858z" />
<glyph unicode="3" horiz-adv-x="1189" d="M135 283h76q0 -53 31.5 -95.5t84 -71t119 -44t138.5 -15.5q61 0 126.5 14.5t120 43t88 73.5t33.5 107v137q0 63 -33.5 112.5t-85 81t-113 48t-114.5 16.5h-188v76h188q55 0 114.5 15.5t108 46t79 74.5t30.5 102v81q0 68 -28.5 116t-77 78t-113 44t-137.5 14 q-57 0 -119 -15t-113 -45t-85 -74t-34 -99h-75q0 72 38.5 129t100 97t137.5 61.5t150 21.5q88 0 166.5 -20.5t137 -60.5t93.5 -102.5t35 -144.5v-81q0 -55 -22.5 -101.5t-58.5 -82.5t-82 -60.5t-91 -36.5q47 -12 95 -35.5t86 -59.5t62.5 -84t24.5 -112v-137 q0 -78 -40 -136.5t-103.5 -98.5t-143 -59t-157.5 -19q-90 0 -171 21.5t-142.5 60t-98.5 94t-37 125.5z" />
<glyph unicode="4" horiz-adv-x="1163" d="M59 360v76l699 957h96v-957h258v-76h-258v-358h-76v358h-719zM152 436h626v836h-14z" />
<glyph unicode="5" horiz-adv-x="1196" d="M156 330h75q0 -66 30 -117t81 -86t118.5 -53.5t145.5 -18.5q63 0 128 18.5t115 54.5t82 87t32 119v135q0 131 -89.5 203.5t-236.5 72.5h-410l66 648h674v-76h-605l-51 -496h326q88 0 162.5 -24.5t127 -70.5t82 -110.5t29.5 -146.5v-135q0 -84 -36.5 -149.5t-98 -110.5 t-139.5 -69.5t-158 -24.5q-88 0 -170 22.5t-144.5 67.5t-99 109.5t-36.5 150.5z" />
<glyph unicode="6" horiz-adv-x="1175" d="M152 348v719q0 80 33.5 144.5t93 108.5t140.5 68.5t175 24.5q111 0 208 -38t159 -97l-52 -61q-53 53 -138 86.5t-177 33.5q-78 0 -145.5 -18.5t-116.5 -52t-77 -85t-28 -114.5v-354q68 78 165.5 117.5t201.5 39.5q82 0 161 -21.5t141 -66.5t100 -111.5t38 -156.5v-166 q0 -94 -38 -162.5t-100 -114.5t-141 -68.5t-161 -22.5q-84 0 -163 22.5t-141.5 68.5t-100 114.5t-37.5 162.5zM227 348q0 -78 32 -134t84 -91t117.5 -51.5t133.5 -16.5q66 0 131.5 16.5t117.5 51.5t83.5 91t31.5 134v166q0 74 -31.5 127t-83.5 87t-118 50.5t-131 16.5 q-68 0 -133.5 -19.5t-117.5 -55.5t-84 -88t-32 -118v-166z" />
<glyph unicode="7" horiz-adv-x="921" d="M20 1317v76h859v-68l-461 -1325h-84l461 1317h-775z" />
<glyph unicode="8" horiz-adv-x="1261" d="M186 309v123q0 102 72 178t174 115q-94 39 -155.5 112.5t-61.5 168.5v79q0 82 36 143.5t94 102.5t133 61.5t153 20.5q76 0 150.5 -20.5t132 -61.5t93 -102.5t35.5 -143.5v-79q0 -94 -61 -168t-154 -113q49 -18 93.5 -48t78 -67t53 -82t19.5 -96v-123q0 -86 -39 -148.5 t-101.5 -102.5t-141 -59t-158.5 -19q-82 0 -162 19t-142.5 59t-101.5 102.5t-39 148.5zM262 309q0 -72 33 -120t86 -77.5t118.5 -43t131.5 -13.5q63 0 128.5 13.5t118 43t85 78t32.5 119.5v123q0 59 -30.5 106.5t-79.5 79t-109.5 49t-122.5 17.5h-45q-61 0 -123.5 -17.5 t-111.5 -49t-80 -78.5t-31 -107v-123zM291 1006q0 -57 27.5 -101.5t71.5 -75t101.5 -49t116.5 -20.5h45q57 2 113.5 20.5t100.5 49t72 75.5t28 101v79q0 68 -30 115t-77 78t-107.5 45t-121.5 14t-123 -14t-110 -45t-77.5 -78t-29.5 -115v-79z" />
<glyph unicode="9" horiz-adv-x="1191" d="M158 842v217q0 82 37.5 147.5t100 111.5t142.5 70.5t164 24.5q82 0 161 -24.5t140.5 -70.5t99 -111.5t37.5 -147.5v-727q0 -90 -37.5 -156.5t-99 -109.5t-140.5 -64.5t-161 -21.5q-51 0 -105.5 9t-106.5 27.5t-98 44t-81 60.5l43 51q25 -18 57.5 -38.5t74.5 -38t95.5 -29 t120.5 -11.5q66 0 131.5 15.5t116.5 48.5t83 86t32 127v311q-70 -80 -165 -118t-198 -38q-84 0 -164 21.5t-142.5 65.5t-100 111t-37.5 157zM233 842q0 -74 32 -127t84 -87t119 -49.5t134 -15.5q66 0 131.5 18.5t116.5 54.5t83 88t32 118v217q0 66 -32 117t-83 86.5 t-116.5 55t-131.5 19.5q-68 0 -134.5 -18.5t-118.5 -54t-84 -88t-32 -117.5v-217z" />
<glyph unicode=":" horiz-adv-x="575" d="M223 0v197h76h68v-197h-144zM223 872v193h144v-193h-144z" />
<glyph unicode=";" horiz-adv-x="620" d="M233 -203q18 27 30.5 50.5t20 51t11.5 60.5t4 76v108h82v-53q0 -70 -6 -119t-18.5 -86t-30 -65.5t-41.5 -57.5zM270 866v199h142v-199h-142z" />
<glyph unicode="&#x3c;" d="M125 489l944 535l39 -63l-825 -469l870 -451l-39 -68z" />
<glyph unicode="=" horiz-adv-x="1388" d="M125 453v75h455h684v-75h-1139zM125 903v76h1139v-76h-1139z" />
<glyph unicode="&#x3e;" horiz-adv-x="1218" d="M125 41l819 451l-774 469l43 63l881 -535l-930 -516z" />
<glyph unicode="?" horiz-adv-x="870" d="M72 1278q63 53 149 94t197 41q166 0 258 -73.5t92 -215.5v-100q0 -45 -19.5 -81t-49 -66.5t-66.5 -59.5t-72 -55q-68 -47 -116 -100.5t-48 -131.5v-143h-80v164q0 80 55.5 141.5t129.5 112.5q31 25 64.5 50.5t61 52t46 57t18.5 67.5v92q0 61 -23.5 102.5t-62.5 66 t-88 34.5t-100 10q-90 0 -171 -35.5t-134 -82.5zM279 0v174h159v-174h-159z" />
<glyph unicode="@" horiz-adv-x="1693" d="M125 522q0 68 7 135.5t15 135.5q14 129 73 242.5t153 199.5t219 135t272 49q152 0 279 -43t219 -119.5t144.5 -183t52.5 -231.5q0 -240 -72 -372t-248 -132q-68 0 -118 34t-79 87q-53 -68 -136 -109t-181 -41q-68 0 -116 18.5t-77.5 49.5t-43 70.5t-13.5 84.5q0 8 4 38 t9.5 66t11.5 74t12 66q12 66 47 125.5t85 103.5t114.5 70.5t138.5 26.5q125 0 191.5 -56.5t66.5 -154.5q0 -23 -8 -66t-19 -94q-10 -53 -20 -102t-10 -72q0 -57 40 -100t101 -43q57 0 103.5 22.5t77 73.5t47 134t16.5 202q0 111 -46 202t-128 156.5t-196 102t-249 36.5 q-133 0 -244.5 -44t-195.5 -119.5t-136 -177t-65 -214.5q-8 -66 -15 -131t-7 -131q0 -102 52 -188t142 -150.5t210 -100.5t255 -36q180 0 332 82l39 -65q-84 -47 -178.5 -70t-192.5 -23q-152 0 -286 41t-233 115t-157.5 174.5t-58.5 216.5zM551 543q0 -78 45 -118t129 -40 q57 0 108.5 17.5t92.5 48t68.5 72.5t35.5 91q16 66 32.5 138.5t16.5 136.5q0 74 -46 105.5t-136 31.5q-57 0 -109.5 -21.5t-93.5 -57.5t-68.5 -84t-37.5 -101q-6 -27 -12.5 -62.5t-11.5 -69.5t-9 -58.5t-4 -28.5z" />
<glyph unicode="A" d="M76 0l532 1413h72l520 -1413h-82l-176 496h-602l-180 -496h-84zM369 571h544l-270 721z" />
<glyph unicode="B" horiz-adv-x="1257" d="M209 0v1393h457q84 0 155.5 -20.5t124.5 -61.5t83 -103.5t30 -148.5v-58q0 -104 -59.5 -175.5t-151.5 -100.5q117 -35 190.5 -114t73.5 -203v-80q0 -84 -29.5 -145.5t-83 -101.5t-125 -60.5t-155.5 -20.5h-510zM285 76h434q66 0 123 14t100 45t68.5 78t25.5 113v80 q0 70 -26.5 121t-73.5 85.5t-110.5 52t-139.5 17.5h-401v-606zM285 758h393q66 0 121 15t96 46t64.5 77t23.5 105v58q0 72 -23.5 121t-64.5 79.5t-100.5 44t-128.5 13.5h-381v-559z" />
<glyph unicode="C" horiz-adv-x="1193" d="M145 426v543q0 100 39 182t107.5 140.5t160 90t195.5 31.5q141 0 256 -41t191 -127l-56 -57q-63 70 -165.5 109.5t-225.5 39.5q-88 0 -164.5 -25.5t-135 -73.5t-92.5 -116.5t-34 -152.5v-543q0 -92 32 -161.5t89 -116t136 -70t171 -23.5q115 0 217.5 27t180.5 90l47 -57 q-88 -76 -199 -105.5t-246 -29.5q-111 0 -203 28.5t-158.5 86t-104.5 140t-38 191.5z" />
<glyph unicode="D" horiz-adv-x="1339" d="M207 0v1393h432q104 0 199.5 -30t168 -88t116.5 -142t44 -191v-498q0 -113 -43 -196.5t-115.5 -139t-169 -82t-202.5 -26.5h-430zM283 76h354q90 0 173 21.5t145.5 66.5t99.5 114.5t37 165.5v498q0 90 -39 159.5t-101.5 118t-144.5 73t-168 24.5h-356v-1241z" />
<glyph unicode="E" horiz-adv-x="1122" d="M207 0v1393h735v-76h-659v-565h563v-76h-563v-600h712v-76h-788z" />
<glyph unicode="F" horiz-adv-x="1005" d="M207 0v1393h733v-76h-657v-543h563v-76h-561v-698h-78z" />
<glyph unicode="G" horiz-adv-x="1298" d="M147 422v551q0 102 40 184t109 138.5t160 87t193 30.5q154 0 270.5 -44t182.5 -105l-45 -60q-63 53 -167 93t-241 40q-86 0 -162.5 -24.5t-135 -71.5t-93.5 -114.5t-35 -153.5v-551q0 -78 33 -144.5t91.5 -115.5t136 -78t167.5 -29q154 0 250 35t162 82v446h-418v76h494 v-563q-37 -27 -83 -54.5t-104.5 -49t-132.5 -34.5t-168 -13q-106 0 -198.5 34.5t-160 95t-106.5 140.5t-39 172z" />
<glyph unicode="H" horiz-adv-x="1443" d="M207 0v1393h76v-684h876v684h76v-1393h-76v633h-876v-633h-76z" />
<glyph unicode="I" horiz-adv-x="577" d="M248 0v1393h76v-1393h-76z" />
<glyph unicode="J" horiz-adv-x="1110" d="M63 317h76q0 -59 29 -108t77 -83t109.5 -52.5t128.5 -18.5q154 0 249 72t95 209v1057h76v-1057q0 -84 -30.5 -150.5t-87 -112.5t-133.5 -69.5t-169 -23.5q-84 0 -159.5 23.5t-134 68.5t-92.5 106.5t-34 138.5z" />
<glyph unicode="K" horiz-adv-x="1253" d="M207 0v1393h76v-748l741 748h109l-660 -650l739 -743h-112l-680 684l-137 -133v-551h-76z" />
<glyph unicode="L" horiz-adv-x="1075" d="M207 0v1393h76v-1317h768v-76h-844z" />
<glyph unicode="M" horiz-adv-x="1677" d="M207 0v1393h88l543 -883l540 883h90v-1393h-75v1270l-533 -875h-45l-532 869v-1264h-76z" />
<glyph unicode="N" horiz-adv-x="1445" d="M209 0v1393h98l854 -1278v1278h76v-1393h-94l-858 1286v-1286h-76z" />
<glyph unicode="O" horiz-adv-x="1333" d="M156 422v547q0 100 36.5 183t101 140.5t155 89t196.5 31.5h35q111 0 205 -31.5t161.5 -89t105.5 -140.5t38 -183v-547q0 -104 -37 -186t-104.5 -138.5t-161.5 -87t-207 -30.5h-33q-111 0 -201 29.5t-154.5 87t-100 139t-35.5 186.5zM231 422q0 -90 30 -157.5t85 -115 t132 -71t169 -23.5h33q96 0 176 23.5t137.5 71t89 115t31.5 157.5v547q0 84 -31.5 152.5t-90 116.5t-138.5 73.5t-174 25.5h-35q-90 0 -166 -25.5t-131 -73.5t-86 -116.5t-31 -152.5v-547z" />
<glyph unicode="P" horiz-adv-x="1220" d="M207 0v1393h473q215 0 327.5 -103.5t112.5 -275.5v-86q0 -176 -110.5 -263t-325.5 -87h-401v-578h-76zM283 653h397q182 0 273 66.5t91 208.5v86q0 135 -92 219t-272 84h-397v-664z" />
<glyph unicode="Q" horiz-adv-x="1333" d="M156 422v547q0 100 36.5 183t101 140.5t155 89t196.5 31.5h35q111 0 205 -31.5t161.5 -89t105.5 -140.5t38 -183v-547q0 -111 -40 -195t-114 -141l150 -180l-60 -45l-153 184q-119 -65 -288 -65h-5h-33q-111 0 -201 29.5t-154.5 87t-100 139t-35.5 186.5zM231 422 q0 -90 30 -157.5t85 -115t132 -71t169 -23.5h33q141 0 244 49l-138 170l60 45l143 -174q59 47 92 116t33 161v547q0 84 -31.5 152.5t-90 116.5t-138.5 73.5t-174 25.5h-35q-90 0 -166 -25.5t-131 -73.5t-86 -116.5t-31 -152.5v-547z" />
<glyph unicode="R" horiz-adv-x="1208" d="M211 0v1393h508q184 0 284.5 -95.5t100.5 -244.5v-86q0 -137 -83 -216t-224 -102l342 -649h-86l-334 635h-432v-635h-76zM287 711h448q61 2 114.5 19.5t93.5 49t62.5 78.5t22.5 109v86q0 115 -83 189.5t-230 74.5h-428v-606z" />
<glyph unicode="S" horiz-adv-x="1171" d="M119 223l61 41q68 -106 183.5 -156.5t250.5 -50.5q78 0 143.5 17.5t114 52.5t75 86t26.5 117q0 70 -20.5 121t-65.5 90t-117 69.5t-174 61.5q-96 29 -175 63.5t-136.5 82.5t-88 109.5t-30.5 145.5q0 86 31.5 149.5t90 105.5t139.5 63.5t177 21.5q154 0 264.5 -54 t180.5 -142l-56 -48q-59 74 -158.5 121t-232.5 47q-76 0 -141.5 -16t-114.5 -49t-76.5 -83t-27.5 -116q0 -72 27.5 -123t79.5 -89t127 -68.5t167 -57.5q102 -31 178 -65.5t127 -81.5t76 -109.5t25 -148.5q0 -84 -33 -148.5t-90.5 -108.5t-138 -67.5t-175.5 -23.5 q-76 0 -148.5 15t-137 46t-117.5 76t-90 104z" />
<glyph unicode="T" horiz-adv-x="1165" d="M43 1317v76h1079v-76h-510v-1317h-75v1317h-494z" />
<glyph unicode="U" horiz-adv-x="1413" d="M197 422v971h75v-971q0 -94 35 -163t94.5 -114t138 -67.5t167.5 -22.5q86 0 163.5 24.5t138 72t95.5 115t35 155.5v971h75v-971q0 -111 -38.5 -194t-107.5 -138t-162 -82.5t-199 -27.5t-199.5 26.5t-162.5 81.5t-108.5 138t-39.5 196z" />
<glyph unicode="V" horiz-adv-x="1163" d="M66 1393h84l425 -1272l439 1272h84l-486 -1393h-73z" />
<glyph unicode="W" horiz-adv-x="1818" d="M106 1393h82l291 -1284l391 1284h76l385 -1284l299 1284h82l-332 -1393h-100l-371 1264l-383 -1264h-98z" />
<glyph unicode="X" horiz-adv-x="1132" d="M86 0l438 702l-411 691h94l366 -625l379 625h95l-429 -691l429 -702h-95l-379 637l-391 -637h-96z" />
<glyph unicode="Y" horiz-adv-x="1150" d="M86 1393h92l393 -742l402 742h92l-457 -826v-567h-76v567z" />
<glyph unicode="Z" horiz-adv-x="1169" d="M119 0v53l807 1264h-772v76h868v-60l-803 -1257h832v-76h-932z" />
<glyph unicode="[" horiz-adv-x="573" d="M201 -346v1739h245v-76h-163v-1587h155v-76h-237z" />
<glyph unicode="\" horiz-adv-x="811" d="M84 1393h84l557 -1393h-84z" />
<glyph unicode="]" horiz-adv-x="569" d="M125 1317v76h242v-1719h-240v76h156v1567h-158z" />
<glyph unicode="^" horiz-adv-x="813" d="M125 938l287 479l274 -479h-88l-188 328l-195 -328h-90z" />
<glyph unicode="_" horiz-adv-x="1089" d="M125 -49h838v-78h-838v78z" />
<glyph unicode="`" horiz-adv-x="495" d="M115 1370l80 64l184 -293l-62 -43z" />
<glyph unicode="a" horiz-adv-x="1067" d="M123 258v29q0 70 36 120t94 84.5t133 57t153.5 35t152.5 18.5t133 8v142q0 117 -57 178t-197 61q-45 0 -97 -8t-102 -21.5t-91 -28.5t-64 -30l-27 66q27 16 71 33.5t96.5 32t107.5 23.5t106 9q86 0 149.5 -23.5t103.5 -65.5t59.5 -99.5t19.5 -126.5v-752h-76v170 q-16 -25 -45.5 -56.5t-78 -61t-116 -49t-155.5 -19.5q-141 0 -225 68.5t-84 205.5zM201 258q0 -104 61.5 -151.5t171.5 -47.5q82 0 155 22.5t125 57.5t82.5 80t30.5 92v224q-109 -4 -219 -16.5t-201.5 -40t-148.5 -76t-57 -126.5v-18z" />
<glyph unicode="b" horiz-adv-x="1153" d="M172 0v1413h76v-510q57 86 157.5 124t206.5 38q90 0 165 -25.5t129.5 -73.5t85 -117t30.5 -155v-342q0 -88 -29.5 -156.5t-84 -116.5t-130.5 -73.5t-166 -25.5q-106 0 -205.5 38.5t-158.5 131.5v-150h-76zM246 328q0 -68 30.5 -119t82 -85t118 -51.5t135.5 -17.5 q147 0 240.5 78t93.5 219v342q0 68 -25.5 123t-69.5 93t-105.5 58.5t-133.5 20.5t-138 -16.5t-116.5 -50t-81 -84t-30.5 -119.5v-391z" />
<glyph unicode="c" horiz-adv-x="950" d="M125 336v369q0 82 30.5 148.5t85 113.5t128 72.5t157.5 25.5q111 0 189 -38t141 -103l-49 -52q-57 59 -126 88t-155 29q-68 0 -127 -20.5t-103 -57.5t-69.5 -89t-25.5 -117v-369q0 -70 28.5 -123t74.5 -88t105.5 -53.5t118.5 -18.5h7q166 0 282 99l43 -58 q-72 -61 -149.5 -87.5t-182.5 -26.5q-78 0 -150.5 22.5t-128.5 67.5t-90 111.5t-34 154.5z" />
<glyph unicode="d" horiz-adv-x="1153" d="M131 352v342q0 86 31 155t85 117t129 73.5t165 25.5q106 0 206.5 -38t157.5 -124v510h76v-1413h-76v150q-59 -92 -158.5 -131t-205.5 -39q-90 0 -166 25.5t-130.5 73.5t-84 116.5t-29.5 156.5zM207 352q0 -141 93 -219t241 -78q70 0 136 17.5t117.5 51.5t82 85t30.5 119 v391q0 70 -30.5 120t-81 83.5t-117 50t-137.5 16.5q-72 0 -133.5 -20.5t-106.5 -58.5t-69.5 -93t-24.5 -123v-342z" />
<glyph unicode="e" horiz-adv-x="1054" d="M125 340v381q0 72 35 134.5t92 109.5t133 73.5t156 26.5q82 0 154.5 -26.5t128 -72.5t89 -108.5t33.5 -136.5v-186h-745v-195q0 -70 30.5 -122t82 -87t115.5 -52.5t132 -17.5q111 0 193 25t131 64l37 -58q-70 -57 -166.5 -81.5t-194.5 -24.5q-82 0 -159.5 22.5t-139 66.5 t-99.5 110.5t-38 154.5zM201 610h667v111q0 57 -25.5 107.5t-70.5 85t-104 55t-127 20.5t-129.5 -20.5t-108.5 -56t-74.5 -85t-27.5 -104.5v-113z" />
<glyph unicode="f" horiz-adv-x="593" d="M66 969v75h145v138q0 68 24.5 121t67.5 87.5t100.5 53t124.5 18.5q41 0 97.5 -10t99.5 -27l-16 -65q-85 26 -173 26h-6q-111 0 -177 -51t-66 -153v-138h254v-75h-254v-969h-76v969h-145z" />
<glyph unicode="g" horiz-adv-x="1140" d="M125 -195q0 98 62.5 160t156.5 82q-57 25 -94 65t-37 109q0 53 33 99.5t80 66.5q-72 41 -113 108.5t-41 159.5v74q0 80 33 142.5t88 105.5t128 65.5t152 22.5q131 0 232 -53l264 71l23 -73l-207 -54q45 -41 69.5 -97t24.5 -124v-80q0 -82 -32 -143t-85 -102t-123.5 -61.5 t-148.5 -20.5q-109 0 -189 26q-47 -14 -79.5 -47t-32.5 -86q0 -31 16.5 -54.5t41 -39.5t55 -26.5t59.5 -16.5l565 -96v-178q0 -72 -36 -123.5t-94 -84t-130 -47t-145 -14.5h-82q-78 0 -153 13.5t-133 44t-93 81t-35 125.5zM201 -195q0 -55 30.5 -92t78.5 -58.5t108.5 -29.5 t120.5 -8h96q55 0 108.5 8t96.5 29.5t72.5 58.5t35.5 94v125l-473 76q-47 -2 -96 -12t-89 -32.5t-64.5 -61.5t-24.5 -97zM248 655q0 -117 88 -184.5t248 -67.5q63 0 121.5 13.5t102.5 43t69.5 78t25.5 117.5v80q-6 63 -34.5 111.5t-73.5 80t-102.5 47t-119.5 15.5 q-61 0 -119.5 -15.5t-104.5 -47t-73.5 -79.5t-27.5 -112v-80z" />
<glyph unicode="h" horiz-adv-x="1206" d="M186 0v1413h76v-573q66 104 168.5 164.5t237.5 60.5q172 0 272 -94t100 -260v-711h-75v711q0 133 -80 205.5t-217 72.5q-74 0 -145.5 -25.5t-130 -69.5t-94.5 -102.5t-36 -123.5v-668h-76z" />
<glyph unicode="i" horiz-adv-x="512" d="M207 1296v117h96v-117h-96zM219 0v1044h76v-1044h-76z" />
<glyph unicode="j" horiz-adv-x="542" d="M-72 -340q94 27 159 60.5t102.5 83t54 119t16.5 167.5v954h76v-956q0 -111 -20.5 -191.5t-65.5 -139t-117 -98.5t-176 -67zM250 1296v117h84v-117h-84z" />
<glyph unicode="k" horiz-adv-x="960" d="M186 0v1413h76v-809h86l471 440h96l-487 -466l530 -578h-96l-489 528h-111v-528h-76z" />
<glyph unicode="l" horiz-adv-x="512" d="M217 0v1413h76v-1413h-76z" />
<glyph unicode="m" horiz-adv-x="1837" d="M188 0v1044h76v-190q57 92 149.5 151.5t211.5 59.5t203.5 -45t119.5 -150q68 104 158 149.5t229 45.5q160 0 247 -91t87 -241v-733h-76v733q0 53 -18.5 100.5t-52 82t-81.5 54t-106 19.5q-78 0 -144.5 -19.5t-117.5 -56t-79.5 -91t-28.5 -124.5v-698h-76v754 q0 109 -73 172t-191 63q-66 0 -129.5 -26.5t-115.5 -69.5t-84 -99.5t-32 -115.5v-678h-76z" />
<glyph unicode="n" horiz-adv-x="1208" d="M186 0v1044h78v-215q66 111 169.5 173.5t234.5 62.5q172 0 272 -92t100 -258v-715h-75v715q0 131 -80 202.5t-217 71.5q-68 0 -139.5 -25.5t-130 -69.5t-96.5 -102.5t-38 -123.5v-668h-78z" />
<glyph unicode="o" horiz-adv-x="1103" d="M125 342v369q0 80 36 145.5t96 111.5t137 71.5t157 25.5q82 0 158.5 -25.5t136 -71.5t95.5 -111.5t36 -145.5v-369q0 -80 -36 -146.5t-95.5 -113.5t-136 -72.5t-158.5 -25.5t-159 25.5t-136 72.5t-95 113.5t-36 146.5zM201 342q0 -66 29.5 -118t78.5 -89t112.5 -56.5 t129.5 -19.5t129 19.5t112.5 56.5t79 89t29.5 118v369q0 63 -29.5 115.5t-79 88t-113 55t-128.5 19.5q-66 0 -128.5 -19.5t-111.5 -56t-79.5 -88t-30.5 -114.5v-369z" />
<glyph unicode="p" horiz-adv-x="1144" d="M162 -410v1454h76v-151q59 92 158.5 132t205.5 40q90 0 166 -25.5t130 -73.5t84 -118t30 -158v-342q0 -86 -31 -154.5t-85 -115.5t-129 -72.5t-165 -25.5q-106 0 -206.5 36.5t-157.5 122.5v-549h-76zM236 324q0 -70 30.5 -120t80.5 -83t116.5 -49.5t138.5 -16.5 t133.5 20.5t105.5 58.5t69.5 92.5t25.5 121.5v342q0 141 -93 220t-241 79q-70 0 -136.5 -17.5t-117.5 -51t-81.5 -86t-30.5 -119.5v-391z" />
<glyph unicode="q" horiz-adv-x="1144" d="M131 348v342q0 88 29.5 158t84 118t130.5 73.5t166 25.5q106 0 205.5 -38t158.5 -130v147h76v-1454h-76v549q-57 -86 -157.5 -122.5t-206.5 -36.5q-90 0 -165 25.5t-129 72.5t-85 115.5t-31 154.5zM207 348q0 -68 24.5 -122t69.5 -92t106.5 -58.5t133.5 -20.5t138 16.5 t116.5 49.5t81 83t30.5 120v391q0 68 -30.5 120t-82 85.5t-118 51t-135.5 17.5q-147 0 -240.5 -79t-93.5 -220v-342z" />
<glyph unicode="r" horiz-adv-x="716" d="M197 0v1044h77v-208q14 45 41 86t64 72.5t83 51t99 19.5q61 0 121 -12l-10 -80q-25 4 -56.5 7t-58.5 3q-68 0 -120 -35t-89 -90t-55.5 -121.5t-18.5 -130.5v-606h-77z" />
<glyph unicode="s" horiz-adv-x="958" d="M96 117l47 61q68 -63 167.5 -93t185.5 -30q125 0 206.5 47.5t81.5 157.5q0 45 -15 79t-50 60.5t-91.5 48t-140.5 41.5q-186 41 -266 110t-80 183q0 78 29 131.5t78 87t113.5 49t136.5 15.5q92 0 185 -26.5t161 -67.5l-37 -66q-68 37 -141.5 60.5t-167.5 23.5 q-57 0 -108.5 -9t-89.5 -32.5t-60.5 -63.5t-22.5 -100q0 -92 68.5 -141t232.5 -82q96 -23 161.5 -52.5t105.5 -65t57.5 -81t17.5 -98.5q0 -78 -28.5 -132t-79 -88t-117 -49t-141.5 -15q-94 0 -204 33.5t-194 103.5z" />
<glyph unicode="t" horiz-adv-x="780" d="M72 969v75h164v287h75v-287h342v-75h-342v-736q0 -86 47.5 -124.5t137.5 -38.5q78 0 130 11t93 28l29 -66q-39 -14 -97.5 -31.5t-150.5 -17.5q-125 0 -194.5 61.5t-69.5 182.5v731h-164z" />
<glyph unicode="u" horiz-adv-x="1187" d="M182 338v706h76v-706q0 -68 25.5 -121t71.5 -89t108.5 -54.5t138.5 -18.5q74 0 137.5 18.5t109.5 54.5t71.5 89t25.5 121v706h76v-706q0 -84 -32 -150.5t-88 -112.5t-133 -70.5t-167 -24.5q-92 0 -169 24.5t-132 70.5t-87 112.5t-32 150.5z" />
<glyph unicode="v" horiz-adv-x="1046" d="M59 1044h84l381 -931l379 931h84l-428 -1044h-72z" />
<glyph unicode="w" horiz-adv-x="1490" d="M72 1044h82l252 -923l301 923h71l307 -923l250 923h82l-293 -1046h-75l-304 911l-303 -911h-77z" />
<glyph unicode="x" horiz-adv-x="964" d="M55 0l381 532l-358 512h92l313 -446l312 446h98l-363 -512l379 -532h-94l-332 467l-333 -467h-95z" />
<glyph unicode="y" horiz-adv-x="976" d="M51 1044h84l344 -983l348 983h86l-415 -1155q-27 -72 -58.5 -132t-74.5 -103t-99.5 -66.5t-130.5 -23.5v76q102 0 170 61t111 186l22 66z" />
<glyph unicode="z" horiz-adv-x="1019" d="M113 0v61l651 918h-639v65h739v-51l-649 -919h692v-74h-794z" />
<glyph unicode="{" horiz-adv-x="630" d="M184 602l84 125l-45 338q-10 76 4.5 138.5t49 113.5t86 95t114.5 85l29 -74q-53 -33 -95 -68.5t-72 -78.5t-42 -94.5t-4 -112.5l49 -364l-68 -99l68 -86l-49 -416q-14 -123 48 -208.5t165 -151.5l-29 -72q-66 43 -117 87t-84.5 95.5t-48 113t-4.5 141.5l45 387z" />
<glyph unicode="|" horiz-adv-x="487" d="M205 -301v1694h76v-1694h-76z" />
<glyph unicode="}" horiz-adv-x="634" d="M186 -256q106 74 167 157t46 203l-49 416l64 86l-64 99l49 364q14 98 -36 181t-177 173l29 74q63 -45 115.5 -90t86.5 -95t48 -110.5t4 -136.5l-45 -338l84 -125l-84 -106l45 -387q8 -66 -2 -121.5t-40 -107.5t-82 -102t-130 -106z" />
<glyph unicode="~" horiz-adv-x="813" d="M102 1270q35 57 73 88t93 31q37 0 71 -15.5t67.5 -35t67.5 -36t69 -16.5q25 4 42 21.5t33 46.5l70 -35q-23 -45 -62.5 -80t-93.5 -35q-45 0 -80.5 15.5t-66.5 34t-59.5 34t-59.5 15.5q-37 0 -59.5 -21.5t-36.5 -50.5z" />
<glyph unicode="&#xa1;" horiz-adv-x="507" d="M225 915v132h129v-132h-129zM229 -348l19 956h78l18 -956h-115z" />
<glyph unicode="&#xa2;" horiz-adv-x="923" d="M125 336v369q0 82 30.5 148.5t85 113.5t128 72.5t157.5 25.5h25l43 262l78 -10l-43 -262q72 -14 126 -48t101 -83l-49 -52q-57 59 -126 88t-155 29q-68 0 -127 -20.5t-103 -57.5t-69.5 -89t-25.5 -117v-369q0 -70 28.5 -123t74.5 -88t105.5 -53.5t118.5 -18.5 q170 -2 289 99l43 -58q-72 -61 -149.5 -87.5t-182.5 -26.5q-37 0 -69 6l-41 -258l-78 10l41 262q-111 35 -183.5 118t-72.5 218z" />
<glyph unicode="&#xa3;" horiz-adv-x="1204" d="M174 621v75h275l-27 271q-8 106 32 188t115.5 137.5t182 84t231.5 28.5v-76q-106 0 -198.5 -21.5t-158 -65.5t-100 -109.5t-28.5 -153.5l28 -283h451v-75h-442q4 -43 6 -79t6 -63q4 -30 6 -53q2 -47 -1 -96t-16.5 -95.5t-41 -87.5t-76.5 -71h663v-76h-899v76 q94 0 152.5 24.5t90.5 70.5t42 109.5t8 141.5l-18 199h-283z" />
<glyph unicode="&#xa5;" horiz-adv-x="1097" d="M68 1393h92l389 -736h6l399 736h93l-408 -736h352v-75h-393l-8 -15v-164h401v-75h-401v-328h-76v328h-420v75h420v164l-8 15h-412v75h371z" />
<glyph unicode="&#xa6;" horiz-adv-x="323" d="M123 -240v666h76v-666h-76zM123 741v666h76v-666h-76z" />
<glyph unicode="&#xa7;" horiz-adv-x="1142" d="M113 596q0 49 18.5 92t47 76t63 53.5t67.5 26.5q-43 49 -60.5 111.5t-17.5 117.5q0 82 28 145.5t78 106.5t119.5 64.5t151.5 21.5q133 0 227.5 -55.5t135.5 -151.5l-72 -30q-33 76 -105.5 118.5t-183.5 42.5q-61 0 -116.5 -19.5t-96.5 -53t-65.5 -81.5t-24.5 -106 q0 -78 37 -134t93.5 -98t124 -74.5t128.5 -59.5q66 -31 128.5 -64t111.5 -73t79.5 -91t30.5 -116q0 -37 -7 -78t-28.5 -79t-59.5 -70t-99 -52q84 -94 84 -233q0 -74 -30 -134.5t-80 -102.5t-118.5 -64.5t-144.5 -22.5q-66 0 -126 15.5t-111.5 44t-89 68.5t-58.5 89l72 29 q33 -78 117.5 -124t195.5 -46q61 0 115.5 17.5t94.5 49t63.5 77.5t23.5 104q0 76 -39 136t-100.5 106t-137 83t-149.5 68q-51 20 -106.5 48t-101.5 67.5t-76.5 96t-30.5 138.5zM188 594q0 -59 19.5 -100t58.5 -75t95.5 -61.5t130.5 -58.5q72 -31 151.5 -70t138.5 -86 q39 2 72 20.5t57.5 44t39 58.5t14.5 68q0 55 -17.5 97t-54.5 76t-96.5 66.5t-141.5 69.5q-74 31 -145.5 68t-130.5 84q-39 -4 -74 -21.5t-60.5 -45.5t-41 -62.5t-15.5 -71.5z" />
<glyph unicode="&#xa8;" horiz-adv-x="677" d="M113 1180v131h118v-131h-118zM444 1180v131h119v-131h-119z" />
<glyph unicode="&#xa9;" horiz-adv-x="1671" d="M123 713q0 147 56.5 277t152.5 227.5t226 153.5t278 56q147 0 276 -56t226.5 -153.5t153.5 -227.5t56 -277t-56 -276.5t-153.5 -226.5t-226.5 -153.5t-276 -56.5t-277.5 56.5t-226.5 152.5t-152.5 226.5t-56.5 277.5zM199 713q0 -131 50 -247t137 -203t203 -137t249 -50 q131 0 246.5 50t201.5 137t136.5 203t50.5 247t-50.5 247.5t-137.5 203.5t-202.5 137.5t-246.5 50.5q-133 0 -249 -50.5t-202 -137.5t-136 -203.5t-50 -247.5zM465 649v96q0 68 29.5 129.5t81 108.5t121 74.5t149.5 27.5q92 0 174 -31.5t135 -97.5l-45 -59q-41 53 -116.5 83 t-147.5 30q-63 0 -118.5 -21.5t-97.5 -58.5t-65.5 -85t-23.5 -100v-96q0 -59 24.5 -107t66.5 -83t98 -55.5t120 -20.5q72 0 144.5 23.5t119.5 68.5l41 -63q-57 -53 -138 -79t-167 -26q-84 0 -154.5 26.5t-122 73t-80 109t-28.5 133.5z" />
<glyph unicode="&#xaa;" horiz-adv-x="708" d="M123 954v15q0 49 28.5 83.5t80 57.5t118 35t144.5 16v37q0 84 -39 110.5t-101 26.5q-43 0 -90 -18.5t-69 -32.5l-33 74q31 16 92 35.5t129 19.5q86 0 138 -44t52 -140v-432h-67l-2 71q-31 -31 -80 -53t-123 -22q-33 0 -64.5 8t-57 26.5t-41 49t-15.5 77.5zM201 954 q0 -47 30.5 -64.5t77.5 -17.5q27 0 58.5 7.5t59.5 20.5t45 32.5t17 44.5v110q-57 -4 -109 -11t-92 -20.5t-63.5 -35t-23.5 -51.5v-15z" />
<glyph unicode="&#xab;" horiz-adv-x="948" d="M123 356l321 369l52 -66l-256 -299l256 -294l-52 -66zM453 356l319 369l51 -66l-254 -299l254 -294l-51 -66z" />
<glyph unicode="&#xac;" horiz-adv-x="919" d="M123 596v76h672v-281h-76v205h-596z" />
<glyph unicode="&#xad;" horiz-adv-x="718" d="M113 532v76h491v-76h-491z" />
<glyph unicode="&#xae;" horiz-adv-x="1671" d="M123 713q0 147 56.5 277t152.5 227.5t226 153.5t278 56q147 0 276 -56t226.5 -153.5t153.5 -227.5t56 -277t-56 -276.5t-153.5 -226.5t-226.5 -153.5t-276 -56.5t-277.5 56.5t-226.5 152.5t-152.5 226.5t-56.5 277.5zM199 713q0 -131 50 -247t137 -203t203 -137t249 -50 q131 0 246.5 50t201.5 137t136.5 203t50.5 247t-50.5 247.5t-137.5 203.5t-202.5 137.5t-246.5 50.5q-133 0 -249 -50.5t-202 -137.5t-136 -203.5t-50 -247.5zM588 313v799h317q49 0 91 -18.5t73 -49t49.5 -70.5t18.5 -83v-31q0 -78 -54.5 -135t-142.5 -68l211 -344h-100 l-205 340h-178v-340h-80zM666 729h231q31 0 59.5 10.5t52 27.5t38 42t14.5 53v27q-2 59 -49 103t-115 44h-231v-307z" />
<glyph unicode="&#xaf;" horiz-adv-x="985" d="M133 1303v75h717v-75h-717z" />
<glyph unicode="&#xb0;" horiz-adv-x="770" d="M123 1147v57q0 43 20.5 81t56.5 66.5t84 45t101 16.5t100 -16.5t83 -45t56.5 -66.5t20.5 -81v-57q0 -43 -20.5 -81t-56.5 -65.5t-83 -44t-100 -16.5t-101 16.5t-84 44t-56.5 65.5t-20.5 81zM199 1147q2 -57 55 -94t131 -37t130 38t52 93v57q0 53 -52 93t-130 40t-132 -40 t-54 -93v-57z" />
<glyph unicode="&#xb1;" horiz-adv-x="1116" d="M123 0v76h868v-76h-868zM123 631v76h385v364h76v-364h389v-76h-389v-391h-76v391h-385z" />
<glyph unicode="&#xb2;" horiz-adv-x="753" d="M102 1276q49 66 125 101.5t158 35.5q76 0 127 -16.5t82 -44t44 -64.5t13 -78q0 -47 -21.5 -83.5t-56 -65.5t-77.5 -52.5t-86 -41.5q-43 -20 -84 -42t-72 -48.5t-50.5 -60.5t-19.5 -77h488v-75h-563v75q0 57 21.5 100.5t56 77t80.5 59t93 48.5q39 14 77 31.5t69 39t50 48 t19 63.5q0 59 -40.5 95t-149.5 36q-137 0 -225 -110z" />
<glyph unicode="&#xb3;" horiz-adv-x="755" d="M106 848h76q0 -31 17.5 -54.5t46 -39t67.5 -23.5t80 -8q80 0 139.5 26.5t59.5 92.5v32q0 29 -17.5 52.5t-47 40t-65.5 24.5t-73 8h-137v76h125q37 0 73.5 5t66.5 18.5t47.5 38t17.5 63.5v17q0 37 -17.5 60t-45 36.5t-63.5 18.5t-73 5q-80 0 -140.5 -34.5t-60.5 -100.5 h-76q0 47 23 86t61.5 66.5t88 43t104.5 15.5q53 0 102.5 -11t88 -35t61 -60.5t22.5 -89.5v-15q0 -43 -13 -71.5t-34.5 -48t-47 -30t-50.5 -16.5q25 -6 51.5 -16t50 -28.5t39 -47.5t15.5 -70v-32q0 -51 -22.5 -88t-60.5 -60.5t-87 -35t-105 -11.5q-55 0 -107.5 14.5t-92 41 t-63.5 63.5t-24 82z" />
<glyph unicode="&#xb4;" horiz-adv-x="489" d="M113 1147l192 274l70 -53l-199 -260z" />
<glyph unicode="&#xb6;" horiz-adv-x="1038" d="M123 1040v76q0 55 20.5 105.5t60.5 88.5t98 60.5t136 22.5h389v-1393h-75v1325h-181v-1325h-75v774h-58q-139 0 -227 69.5t-88 196.5z" />
<glyph unicode="&#xb7;" horiz-adv-x="385" d="M164 408v172h158v-172h-158z" />
<glyph unicode="&#xb8;" horiz-adv-x="454" d="M113 -166l41 166h84l-35 -111q37 -16 67 -41q27 -23 48.5 -57.5t21.5 -85.5q0 -78 -55.5 -129t-141.5 -74l-24 58q20 6 45.5 17t48.5 27.5t38 38t15 48.5q0 45 -24.5 72.5t-53.5 43.5q-35 18 -75 27z" />
<glyph unicode="&#xb9;" horiz-adv-x="438" d="M82 1317v76h190v-709h-75v633h-115z" />
<glyph unicode="&#xba;" horiz-adv-x="749" d="M123 1004v204q0 43 19.5 80t53 65.5t80 45t97.5 16.5t97 -16.5t80 -45t53.5 -65.5t19.5 -80v-209q0 -43 -19.5 -79.5t-53.5 -64.5t-80 -44t-97 -16t-97.5 16t-80 44t-53 67t-19.5 82zM199 999q6 -59 55 -94t119 -35q72 0 122 38t50 96v204q-4 59 -54.5 95t-117.5 36 q-70 0 -122 -35.5t-52 -95.5v-209z" />
<glyph unicode="&#xbb;" horiz-adv-x="935" d="M98 66l252 294l-252 299l49 66l324 -369l-324 -356zM428 66l252 294l-252 299l49 66l322 -369l-322 -356z" />
<glyph unicode="&#xbc;" horiz-adv-x="1294" d="M102 0l856 1393h97l-854 -1393h-99zM164 1317v76h190v-709h-75v633h-115zM563 195v63l383 473h109v-473h137v-63h-137v-189h-76v189h-416zM651 258h328v387h-10z" />
<glyph unicode="&#xbd;" horiz-adv-x="1380" d="M102 0l856 1393h97l-854 -1393h-99zM164 1317v76h190v-709h-75v633h-115zM709 610q49 66 124.5 102t157.5 36q76 0 127 -16.5t82 -44.5t44 -64.5t13 -77.5q0 -47 -21.5 -84t-56 -65.5t-77.5 -52.5t-86 -42q-43 -20 -84 -41.5t-72 -48.5t-50 -60.5t-19 -76.5h487v-76h-563 v76q0 57 21.5 100t56 77t81 59.5t93.5 47.5q39 14 76.5 32t68.5 39.5t50.5 48t19.5 63.5q0 59 -41 95t-150 36q-137 0 -225 -111z" />
<glyph unicode="&#xbe;" horiz-adv-x="1468" d="M102 848h76q0 -31 17.5 -54.5t46 -39t67.5 -23.5t80 -8q80 0 139.5 26.5t59.5 92.5v32q0 29 -17.5 52.5t-47 40t-65.5 24.5t-73 8h-137v76h125q37 0 73.5 5t66.5 18.5t47.5 38t17.5 63.5v17q0 37 -17.5 60t-45.5 36.5t-63.5 18.5t-72.5 5q-80 0 -140.5 -34.5 t-60.5 -100.5h-76q0 47 22.5 86t61.5 66.5t88.5 43t104.5 15.5q53 0 102 -11t88 -35t61.5 -60.5t22.5 -89.5v-15q0 -43 -13 -71.5t-34.5 -48t-47.5 -30t-50 -16.5q25 -6 51.5 -16t50 -28.5t39 -47.5t15.5 -70v-32q0 -51 -23 -88t-60.5 -60.5t-87 -35t-104.5 -11.5 t-107.5 14.5t-92 41t-63.5 63.5t-24 82zM313 0l856 1393h97l-854 -1393h-99zM737 193v63l383 473h109v-473h137v-63h-137v-189h-76v189h-416zM825 256h328v387h-10z" />
<glyph unicode="&#xbf;" horiz-adv-x="796" d="M117 31q0 37 13 67.5t35.5 58t51.5 52t59 49.5q29 23 55.5 46.5t48 51t34 58t12.5 69.5v166h80v-184q0 -39 -15.5 -74t-40 -65.5t-56.5 -59t-64 -55.5q-53 -45 -95 -90t-42 -98v-146q0 -72 24.5 -112.5t61 -63.5t76.5 -29t71 -6q72 0 138.5 40t111.5 81l41 -57 q-20 -23 -50 -47.5t-68 -45t-81 -34t-92 -13.5q-164 0 -236.5 76t-72.5 211v154zM381 870v177h160v-177h-160z" />
<glyph unicode="&#xc0;" d="M76 0l532 1413h72l520 -1413h-82l-176 496h-602l-180 -496h-84zM369 571h544l-270 721zM428 1788l80 63l184 -292l-61 -43z" />
<glyph unicode="&#xc1;" d="M76 0l532 1413h72l520 -1413h-82l-176 496h-602l-180 -496h-84zM369 571h544l-270 721zM592 1550l192 275l70 -53l-199 -261z" />
<glyph unicode="&#xc2;" d="M76 0l532 1413h72l520 -1413h-82l-176 496h-602l-180 -496h-84zM369 571h544l-270 721zM391 1565l244 166l248 -166l-45 -60l-201 135l-205 -133z" />
<glyph unicode="&#xc3;" d="M76 0l532 1413h72l520 -1413h-82l-176 496h-602l-180 -496h-84zM344 1571q35 57 73 88t93 31q37 0 70.5 -15.5t67.5 -35t68 -36t68 -16.5q25 4 42.5 21.5t33.5 46.5l70 -35q-23 -45 -63 -80t-93 -35q-45 0 -81 15.5t-66.5 34t-59 34t-59.5 15.5q-37 0 -59.5 -21.5 t-36.5 -50.5zM369 571h544l-270 721z" />
<glyph unicode="&#xc4;" d="M76 0l532 1413h72l520 -1413h-82l-176 496h-602l-180 -496h-84zM369 571h544l-270 721zM412 1554v132h118v-132h-118zM743 1554v132h119v-132h-119z" />
<glyph unicode="&#xc5;" d="M76 0l532 1413h72l520 -1413h-82l-176 496h-602l-180 -496h-84zM369 571h544l-270 721zM475 1665q0 68 48 113t114 45t115 -45t49 -113q0 -66 -49 -113t-115 -47q-33 0 -61.5 12.5t-51 34t-36 51t-13.5 62.5zM551 1661q0 -35 26.5 -59.5t61.5 -24.5t60.5 24.5t25.5 59.5 q0 37 -25.5 63.5t-60.5 26.5t-61.5 -26.5t-26.5 -63.5z" />
<glyph unicode="&#xc6;" horiz-adv-x="1748" d="M41 0l860 1393h686v-76h-577v-555h481v-76h-481v-610h630v-76h-706v430h-533l-270 -430h-90zM446 506h488v799z" />
<glyph unicode="&#xc7;" horiz-adv-x="1241" d="M145 426v543q0 100 39 182t107.5 140.5t160 90t195.5 31.5q141 0 256 -41t191 -127l-56 -57q-63 70 -165.5 109.5t-225.5 39.5q-88 0 -164.5 -25.5t-135 -73.5t-92.5 -116.5t-34 -152.5v-543q0 -92 32 -161.5t89 -116t136 -70t171 -23.5q115 0 217.5 27t180.5 90l47 -57 q-88 -76 -199 -105.5t-246 -29.5h-8l-29 -91q37 -16 68 -41q27 -23 48.5 -57.5t21.5 -85.5q0 -78 -55.5 -129t-141.5 -74l-25 58q20 6 46 17t48.5 27.5t38 38t15.5 48.5q0 45 -24.5 72.5t-53.5 43.5q-35 18 -76 27l37 152q-92 10 -168 43.5t-131 90t-85 133.5t-30 173z" />
<glyph unicode="&#xc8;" horiz-adv-x="1122" d="M207 0v1393h735v-76h-659v-565h563v-76h-563v-600h712v-76h-788zM373 1767l80 64l184 -293l-62 -43z" />
<glyph unicode="&#xc9;" horiz-adv-x="1122" d="M207 0v1393h735v-76h-659v-565h563v-76h-563v-600h712v-76h-788zM537 1530l192 274l70 -53l-199 -260z" />
<glyph unicode="&#xca;" horiz-adv-x="1122" d="M207 0v1393h735v-76h-659v-565h563v-76h-563v-600h712v-76h-788zM336 1544l244 166l247 -166l-45 -59l-200 135l-205 -133z" />
<glyph unicode="&#xcb;" horiz-adv-x="1122" d="M207 0v1393h735v-76h-659v-565h563v-76h-563v-600h712v-76h-788zM356 1534v131h119v-131h-119zM688 1534v131h119v-131h-119z" />
<glyph unicode="&#xcc;" horiz-adv-x="577" d="M78 1767l80 64l184 -293l-61 -43zM248 0v1393h76v-1393h-76z" />
<glyph unicode="&#xcd;" horiz-adv-x="577" d="M240 1530l192 274l70 -53l-199 -260zM248 0v1393h76v-1393h-76z" />
<glyph unicode="&#xce;" horiz-adv-x="577" d="M39 1544l244 166l247 -166l-45 -59l-200 135l-205 -133zM248 0v1393h76v-1393h-76z" />
<glyph unicode="&#xcf;" horiz-adv-x="577" d="M61 1534v131h119v-131h-119zM248 0v1393h76v-1393h-76zM393 1534v131h119v-131h-119z" />
<glyph unicode="&#xd0;" horiz-adv-x="1402" d="M78 666v75h244v652h423q117 0 215.5 -31t169 -87t110.5 -138t40 -187v-514q0 -106 -38 -187t-108.5 -136.5t-169 -84t-221.5 -28.5h-421v666h-244zM399 76h344q213 0 337 89t124 271v514q0 86 -33.5 155t-95 116t-145.5 71.5t-185 24.5h-344v-576h355v-75h-357v-590z" />
<glyph unicode="&#xd1;" horiz-adv-x="1445" d="M209 0v1393h98l854 -1278v1278h76v-1393h-94l-858 1286v-1286h-76zM428 1550q35 57 73 88t93 31q37 0 70.5 -15.5t67.5 -35t68 -35.5t68 -16q25 4 42.5 21.5t33.5 45.5l70 -35q-23 -45 -63 -79.5t-93 -34.5q-45 0 -81 15.5t-66.5 33.5t-59 33.5t-59.5 15.5 q-37 0 -59.5 -21.5t-36.5 -50.5z" />
<glyph unicode="&#xd2;" horiz-adv-x="1333" d="M156 422v547q0 100 36.5 183t101 140.5t155 89t196.5 31.5h35q111 0 205 -31.5t161.5 -89t105.5 -140.5t38 -183v-547q0 -104 -37 -186t-104.5 -138.5t-161.5 -87t-207 -30.5h-33q-111 0 -201 29.5t-154.5 87t-100 139t-35.5 186.5zM231 422q0 -90 30 -157.5t85 -115 t132 -71t169 -23.5h33q96 0 176 23.5t137.5 71t89 115t31.5 157.5v547q0 84 -31.5 152.5t-90 116.5t-138.5 73.5t-174 25.5h-35q-90 0 -166 -25.5t-131 -73.5t-86 -116.5t-31 -152.5v-547zM449 1788l79 63l185 -292l-62 -43z" />
<glyph unicode="&#xd3;" horiz-adv-x="1333" d="M156 422v547q0 100 36.5 183t101 140.5t155 89t196.5 31.5h35q111 0 205 -31.5t161.5 -89t105.5 -140.5t38 -183v-547q0 -104 -37 -186t-104.5 -138.5t-161.5 -87t-207 -30.5h-33q-111 0 -201 29.5t-154.5 87t-100 139t-35.5 186.5zM231 422q0 -90 30 -157.5t85 -115 t132 -71t169 -23.5h33q96 0 176 23.5t137.5 71t89 115t31.5 157.5v547q0 84 -31.5 152.5t-90 116.5t-138.5 73.5t-174 25.5h-35q-90 0 -166 -25.5t-131 -73.5t-86 -116.5t-31 -152.5v-547zM612 1550l193 275l69 -53l-198 -261z" />
<glyph unicode="&#xd4;" horiz-adv-x="1333" d="M156 422v547q0 100 36.5 183t101 140.5t155 89t196.5 31.5h35q111 0 205 -31.5t161.5 -89t105.5 -140.5t38 -183v-547q0 -104 -37 -186t-104.5 -138.5t-161.5 -87t-207 -30.5h-33q-111 0 -201 29.5t-154.5 87t-100 139t-35.5 186.5zM231 422q0 -90 30 -157.5t85 -115 t132 -71t169 -23.5h33q96 0 176 23.5t137.5 71t89 115t31.5 157.5v547q0 84 -31.5 152.5t-90 116.5t-138.5 73.5t-174 25.5h-35q-90 0 -166 -25.5t-131 -73.5t-86 -116.5t-31 -152.5v-547zM412 1565l243 166l248 -166l-45 -60l-201 135l-204 -133z" />
<glyph unicode="&#xd5;" horiz-adv-x="1333" d="M156 422v547q0 100 36.5 183t101 140.5t155 89t196.5 31.5h35q111 0 205 -31.5t161.5 -89t105.5 -140.5t38 -183v-547q0 -104 -37 -186t-104.5 -138.5t-161.5 -87t-207 -30.5h-33q-111 0 -201 29.5t-154.5 87t-100 139t-35.5 186.5zM231 422q0 -90 30 -157.5t85 -115 t132 -71t169 -23.5h33q96 0 176 23.5t137.5 71t89 115t31.5 157.5v547q0 84 -31.5 152.5t-90 116.5t-138.5 73.5t-174 25.5h-35q-90 0 -166 -25.5t-131 -73.5t-86 -116.5t-31 -152.5v-547zM365 1571q35 57 72.5 88t92.5 31q37 0 71 -15.5t67.5 -35t67.5 -36t69 -16.5 q25 4 42 21.5t34 46.5l69 -35q-23 -45 -62.5 -80t-92.5 -35q-45 0 -81 15.5t-67 34t-59.5 34t-59.5 15.5q-37 0 -59.5 -21.5t-36.5 -50.5z" />
<glyph unicode="&#xd6;" horiz-adv-x="1333" d="M156 422v547q0 100 36.5 183t101 140.5t155 89t196.5 31.5h35q111 0 205 -31.5t161.5 -89t105.5 -140.5t38 -183v-547q0 -104 -37 -186t-104.5 -138.5t-161.5 -87t-207 -30.5h-33q-111 0 -201 29.5t-154.5 87t-100 139t-35.5 186.5zM231 422q0 -90 30 -157.5t85 -115 t132 -71t169 -23.5h33q96 0 176 23.5t137.5 71t89 115t31.5 157.5v547q0 84 -31.5 152.5t-90 116.5t-138.5 73.5t-174 25.5h-35q-90 0 -166 -25.5t-131 -73.5t-86 -116.5t-31 -152.5v-547zM432 1554v132h119v-132h-119zM764 1554v132h119v-132h-119z" />
<glyph unicode="&#xd7;" horiz-adv-x="1136" d="M123 0l397 522l-370 482h90l325 -416l330 416h90l-371 -482l398 -522h-97l-350 457l-350 -457h-92z" />
<glyph unicode="&#xd8;" horiz-adv-x="1280" d="M145 422v547q0 100 37 183t101.5 140.5t154.5 89t197 31.5h35q66 0 123 -11t108 -32l80 189h82l-94 -222q98 -57 154.5 -150t56.5 -218v-547q0 -104 -37 -186t-104.5 -138.5t-162 -87t-206.5 -30.5h-33q-63 0 -119.5 10t-105.5 28l-74 -174h-84l88 207 q-94 55 -145.5 148.5t-51.5 222.5zM221 422q0 -104 39 -179t111 -120l501 1177q-90 37 -202 37h-35q-90 0 -166 -25.5t-131 -73.5t-86 -116.5t-31 -152.5v-547zM440 88q84 -33 197 -33h33q96 0 176 23.5t137 71t89 115t32 157.5v547q0 98 -43 175t-121 124z" />
<glyph unicode="&#xd9;" horiz-adv-x="1413" d="M197 422v971h75v-971q0 -94 35 -163t94.5 -114t138 -67.5t167.5 -22.5q86 0 163.5 24.5t138 72t95.5 115t35 155.5v971h75v-971q0 -111 -38.5 -194t-107.5 -138t-162 -82.5t-199 -27.5t-199.5 26.5t-162.5 81.5t-108.5 138t-39.5 196zM496 1767l79 64l185 -293l-62 -43z " />
<glyph unicode="&#xda;" horiz-adv-x="1413" d="M197 422v971h75v-971q0 -94 35 -163t94.5 -114t138 -67.5t167.5 -22.5q86 0 163.5 24.5t138 72t95.5 115t35 155.5v971h75v-971q0 -111 -38.5 -194t-107.5 -138t-162 -82.5t-199 -27.5t-199.5 26.5t-162.5 81.5t-108.5 138t-39.5 196zM659 1530l193 274l70 -53l-199 -260 z" />
<glyph unicode="&#xdb;" horiz-adv-x="1413" d="M197 422v971h75v-971q0 -94 35 -163t94.5 -114t138 -67.5t167.5 -22.5q86 0 163.5 24.5t138 72t95.5 115t35 155.5v971h75v-971q0 -111 -38.5 -194t-107.5 -138t-162 -82.5t-199 -27.5t-199.5 26.5t-162.5 81.5t-108.5 138t-39.5 196zM459 1544l243 166l248 -166l-45 -59 l-200 135l-205 -133z" />
<glyph unicode="&#xdc;" horiz-adv-x="1413" d="M197 422v971h75v-971q0 -94 35 -163t94.5 -114t138 -67.5t167.5 -22.5q86 0 163.5 24.5t138 72t95.5 115t35 155.5v971h75v-971q0 -111 -38.5 -194t-107.5 -138t-162 -82.5t-199 -27.5t-199.5 26.5t-162.5 81.5t-108.5 138t-39.5 196zM479 1534v131h119v-131h-119z M811 1534v131h119v-131h-119z" />
<glyph unicode="&#xdd;" horiz-adv-x="1150" d="M86 1393h92l393 -742l402 742h92l-457 -826v-567h-76v567zM532 1530l193 274l70 -53l-199 -260z" />
<glyph unicode="&#xde;" horiz-adv-x="1075" d="M123 -2v1395h76v-287h399q78 0 143.5 -27.5t111.5 -75t71.5 -108.5t25.5 -129v-41q0 -66 -24.5 -122t-70.5 -98t-110.5 -66.5t-146.5 -24.5h-399v-416h-76zM199 489h399q131 0 203.5 69t72.5 167v41q0 47 -18 94t-53 85t-86 61.5t-119 23.5h-399v-541z" />
<glyph unicode="&#xe0;" horiz-adv-x="1067" d="M123 258v29q0 70 36 120t94 84.5t133 57t153.5 35t152.5 18.5t133 8v142q0 117 -57 178t-197 61q-45 0 -97 -8t-102 -21.5t-91 -28.5t-64 -30l-27 66q27 16 71 33.5t96.5 32t107.5 23.5t106 9q86 0 149.5 -23.5t103.5 -65.5t59.5 -99.5t19.5 -126.5v-752h-76v170 q-16 -25 -45.5 -56.5t-78 -61t-116 -49t-155.5 -19.5q-141 0 -225 68.5t-84 205.5zM201 258q0 -104 61.5 -151.5t171.5 -47.5q82 0 155 22.5t125 57.5t82.5 80t30.5 92v224q-109 -4 -219 -16.5t-201.5 -40t-148.5 -76t-57 -126.5v-18zM362 1460l80 64l185 -293l-62 -43z" />
<glyph unicode="&#xe1;" horiz-adv-x="1067" d="M123 258v29q0 70 36 120t94 84.5t133 57t153.5 35t152.5 18.5t133 8v142q0 117 -57 178t-197 61q-45 0 -97 -8t-102 -21.5t-91 -28.5t-64 -30l-27 66q27 16 71 33.5t96.5 32t107.5 23.5t106 9q86 0 149.5 -23.5t103.5 -65.5t59.5 -99.5t19.5 -126.5v-752h-76v170 q-16 -25 -45.5 -56.5t-78 -61t-116 -49t-155.5 -19.5q-141 0 -225 68.5t-84 205.5zM201 258q0 -104 61.5 -151.5t171.5 -47.5q82 0 155 22.5t125 57.5t82.5 80t30.5 92v224q-109 -4 -219 -16.5t-201.5 -40t-148.5 -76t-57 -126.5v-18zM485 1223l193 274l70 -53l-199 -260z " />
<glyph unicode="&#xe2;" horiz-adv-x="1067" d="M123 258v29q0 70 36 120t94 84.5t133 57t153.5 35t152.5 18.5t133 8v142q0 117 -57 178t-197 61q-45 0 -97 -8t-102 -21.5t-91 -28.5t-64 -30l-27 66q27 16 71 33.5t96.5 32t107.5 23.5t106 9q86 0 149.5 -23.5t103.5 -65.5t59.5 -99.5t19.5 -126.5v-752h-76v170 q-16 -25 -45.5 -56.5t-78 -61t-116 -49t-155.5 -19.5q-141 0 -225 68.5t-84 205.5zM201 258q0 -104 61.5 -151.5t171.5 -47.5q82 0 155 22.5t125 57.5t82.5 80t30.5 92v224q-109 -4 -219 -16.5t-201.5 -40t-148.5 -76t-57 -126.5v-18zM305 1237l244 166l248 -166l-45 -59 l-201 135l-205 -133z" />
<glyph unicode="&#xe3;" horiz-adv-x="1067" d="M123 258v29q0 70 36 120t94 84.5t133 57t153.5 35t152.5 18.5t133 8v142q0 117 -57 178t-197 61q-45 0 -97 -8t-102 -21.5t-91 -28.5t-64 -30l-27 66q27 16 71 33.5t96.5 32t107.5 23.5t106 9q86 0 149.5 -23.5t103.5 -65.5t59.5 -99.5t19.5 -126.5v-752h-76v170 q-16 -25 -45.5 -56.5t-78 -61t-116 -49t-155.5 -19.5q-141 0 -225 68.5t-84 205.5zM201 258q0 -104 61.5 -151.5t171.5 -47.5q82 0 155 22.5t125 57.5t82.5 80t30.5 92v224q-109 -4 -219 -16.5t-201.5 -40t-148.5 -76t-57 -126.5v-18zM258 1243q35 57 73 88t93 31 q37 0 70.5 -15.5t67.5 -35t68 -35.5t68 -16q25 4 42.5 21t33.5 46l70 -35q-23 -45 -63 -79.5t-93 -34.5q-45 0 -81 15t-66.5 33.5t-59 34t-59.5 15.5q-37 0 -59.5 -21.5t-36.5 -50.5z" />
<glyph unicode="&#xe4;" horiz-adv-x="1067" d="M123 258v29q0 70 36 120t94 84.5t133 57t153.5 35t152.5 18.5t133 8v142q0 117 -57 178t-197 61q-45 0 -97 -8t-102 -21.5t-91 -28.5t-64 -30l-27 66q27 16 71 33.5t96.5 32t107.5 23.5t106 9q86 0 149.5 -23.5t103.5 -65.5t59.5 -99.5t19.5 -126.5v-752h-76v170 q-16 -25 -45.5 -56.5t-78 -61t-116 -49t-155.5 -19.5q-141 0 -225 68.5t-84 205.5zM201 258q0 -104 61.5 -151.5t171.5 -47.5q82 0 155 22.5t125 57.5t82.5 80t30.5 92v224q-109 -4 -219 -16.5t-201.5 -40t-148.5 -76t-57 -126.5v-18zM326 1227v131h118v-131h-118zM657 1227 v131h119v-131h-119z" />
<glyph unicode="&#xe5;" horiz-adv-x="1067" d="M123 258v29q0 70 36 120t94 84.5t133 57t153.5 35t152.5 18.5t133 8v142q0 117 -57 178t-197 61q-45 0 -97 -8t-102 -21.5t-91 -28.5t-64 -30l-27 66q27 16 71 33.5t96.5 32t107.5 23.5t106 9q86 0 149.5 -23.5t103.5 -65.5t59.5 -99.5t19.5 -126.5v-752h-76v170 q-16 -25 -45.5 -56.5t-78 -61t-116 -49t-155.5 -19.5q-141 0 -225 68.5t-84 205.5zM201 258q0 -104 61.5 -151.5t171.5 -47.5q82 0 155 22.5t125 57.5t82.5 80t30.5 92v224q-109 -4 -219 -16.5t-201.5 -40t-148.5 -76t-57 -126.5v-18zM389 1337q0 68 48 113t114 45t115 -45 t49 -113q0 -66 -49 -112.5t-115 -46.5q-33 0 -61.5 12t-51 33.5t-36 51.5t-13.5 62zM465 1333q0 -35 26.5 -59.5t61.5 -24.5t60.5 24.5t25.5 59.5q0 37 -25.5 63.5t-60.5 26.5t-61.5 -26.5t-26.5 -63.5z" />
<glyph unicode="&#xe6;" horiz-adv-x="1757" d="M123 285v204l708 89v157q0 127 -70.5 193.5t-205.5 66.5q-51 0 -105.5 -11t-103.5 -27.5t-89 -34t-62 -31.5l-31 70q27 18 71 37.5t96 36t109.5 26.5t114.5 10q121 0 204 -50t118 -142q49 86 148 141t228 55q86 0 159 -24.5t125 -68.5t81 -108.5t29 -144.5v-137l-740 -80 v-176q0 -72 32 -123t84 -85t121.5 -50.5t143.5 -16.5q63 0 116.5 10.5t93.5 25t68.5 29.5t43.5 28l43 -56q-70 -57 -171.5 -84.5t-193.5 -27.5q-135 0 -247.5 47t-168.5 147q-33 -59 -77.5 -96t-97 -59.5t-106.5 -30.5t-104 -8q-74 0 -139 20.5t-115.5 58t-80 93 t-29.5 127.5zM201 285q0 -55 24.5 -97.5t64.5 -71t92 -44t110 -15.5q61 0 122.5 14.5t109.5 43t79 72.5t31 106v211l-633 -76v-143zM907 588l664 67v84q0 63 -24.5 112.5t-67.5 82.5t-100.5 49t-125.5 16q-72 0 -134 -22.5t-109 -59t-75 -86t-28 -102.5v-141z" />
<glyph unicode="&#xe7;" horiz-adv-x="950" d="M125 336v369q0 82 30.5 148.5t85 113.5t128 72.5t157.5 25.5q111 0 189 -38t141 -103l-49 -52q-57 59 -126 88t-155 29q-68 0 -127 -20.5t-103 -57.5t-69.5 -89t-25.5 -117v-369q0 -70 28.5 -123t74.5 -88t105.5 -53.5t118.5 -18.5q170 -2 289 99l43 -58 q-72 -61 -149.5 -87.5t-182.5 -26.5h-8l-28 -91q37 -16 67 -41q27 -23 48.5 -57.5t21.5 -85.5q0 -78 -55.5 -129t-141.5 -74l-24 58q20 6 45.5 17t48 27.5t38 38t15.5 48.5q0 45 -24.5 72.5t-53.5 43.5q-35 18 -76 27l37 154q-66 12 -122 39.5t-99 70.5t-67.5 102.5 t-24.5 135.5z" />
<glyph unicode="&#xe8;" horiz-adv-x="1054" d="M125 340v381q0 72 35 134.5t92 109.5t133 73.5t156 26.5q82 0 154.5 -26.5t128 -72.5t89 -108.5t33.5 -136.5v-186h-745v-195q0 -70 30.5 -122t82 -87t115.5 -52.5t132 -17.5q111 0 193 25t131 64l37 -58q-70 -57 -166.5 -81.5t-194.5 -24.5q-82 0 -159.5 22.5t-139 66.5 t-99.5 110.5t-38 154.5zM201 610h667v111q0 57 -25.5 107.5t-70.5 85t-104 55t-127 20.5t-129.5 -20.5t-108.5 -56t-74.5 -85t-27.5 -104.5v-113zM315 1460l80 64l185 -293l-62 -43z" />
<glyph unicode="&#xe9;" horiz-adv-x="1054" d="M125 340v381q0 72 35 134.5t92 109.5t133 73.5t156 26.5q82 0 154.5 -26.5t128 -72.5t89 -108.5t33.5 -136.5v-186h-745v-195q0 -70 30.5 -122t82 -87t115.5 -52.5t132 -17.5q111 0 193 25t131 64l37 -58q-70 -57 -166.5 -81.5t-194.5 -24.5q-82 0 -159.5 22.5t-139 66.5 t-99.5 110.5t-38 154.5zM201 610h667v111q0 57 -25.5 107.5t-70.5 85t-104 55t-127 20.5t-129.5 -20.5t-108.5 -56t-74.5 -85t-27.5 -104.5v-113zM479 1223l193 274l69 -53l-198 -260z" />
<glyph unicode="&#xea;" horiz-adv-x="1054" d="M125 340v381q0 72 35 134.5t92 109.5t133 73.5t156 26.5q82 0 154.5 -26.5t128 -72.5t89 -108.5t33.5 -136.5v-186h-745v-195q0 -70 30.5 -122t82 -87t115.5 -52.5t132 -17.5q111 0 193 25t131 64l37 -58q-70 -57 -166.5 -81.5t-194.5 -24.5q-82 0 -159.5 22.5t-139 66.5 t-99.5 110.5t-38 154.5zM201 610h667v111q0 57 -25.5 107.5t-70.5 85t-104 55t-127 20.5t-129.5 -20.5t-108.5 -56t-74.5 -85t-27.5 -104.5v-113zM279 1237l243 166l248 -166l-45 -59l-201 135l-205 -133z" />
<glyph unicode="&#xeb;" horiz-adv-x="1054" d="M125 340v381q0 72 35 134.5t92 109.5t133 73.5t156 26.5q82 0 154.5 -26.5t128 -72.5t89 -108.5t33.5 -136.5v-186h-745v-195q0 -70 30.5 -122t82 -87t115.5 -52.5t132 -17.5q111 0 193 25t131 64l37 -58q-70 -57 -166.5 -81.5t-194.5 -24.5q-82 0 -159.5 22.5t-139 66.5 t-99.5 110.5t-38 154.5zM201 610h667v111q0 57 -25.5 107.5t-70.5 85t-104 55t-127 20.5t-129.5 -20.5t-108.5 -56t-74.5 -85t-27.5 -104.5v-113zM299 1227v131h119v-131h-119zM631 1227v131h119v-131h-119z" />
<glyph unicode="&#xec;" horiz-adv-x="507" d="M35 1450l80 63l184 -292l-61 -43zM205 0v1044h76v-1044h-76z" />
<glyph unicode="&#xed;" horiz-adv-x="507" d="M197 1212l192 275l70 -53l-199 -260zM205 0v1044h76v-1044h-76z" />
<glyph unicode="&#xee;" horiz-adv-x="507" d="M-4 1227l244 166l247 -166l-45 -60l-200 136l-205 -134zM205 0v1044h76v-1044h-76z" />
<glyph unicode="&#xef;" horiz-adv-x="507" d="M18 1217v131h119v-131h-119zM205 0v1044h76v-1044h-76zM350 1217v131h119v-131h-119z" />
<glyph unicode="&#xf0;" horiz-adv-x="1120" d="M123 332v340q0 74 31.5 138t87 112.5t130 75t160.5 26.5q98 0 182.5 -30.5t147.5 -108.5q-20 104 -71.5 195t-124.5 171l-295 -131l-25 62l268 118q-72 63 -154.5 105.5t-174.5 58.5l16 76q117 -29 213 -81t174 -124l258 117l29 -59l-238 -109q111 -111 168.5 -264.5 t57.5 -347.5v-340q0 -72 -35 -136.5t-93.5 -112.5t-137.5 -75.5t-165 -27.5t-160.5 27.5t-130 74.5t-87 111.5t-31.5 138.5zM199 332q0 -59 25.5 -109.5t70.5 -87.5t106.5 -58.5t130.5 -21.5q72 0 136.5 21.5t112.5 59.5t77 88t29 108v340q0 57 -30 108t-79 88t-112.5 58.5 t-133.5 21.5t-131 -21.5t-106 -59.5t-70.5 -88t-25.5 -107v-340z" />
<glyph unicode="&#xf1;" horiz-adv-x="1208" d="M186 0v1044h78v-215q66 111 169.5 173.5t234.5 62.5q172 0 272 -92t100 -258v-715h-75v715q0 131 -80 202.5t-217 71.5q-68 0 -139.5 -25.5t-130 -69.5t-96.5 -102.5t-38 -123.5v-668h-78zM309 1243q35 57 73 88t93 31q37 0 71 -15.5t67.5 -35t67.5 -35.5t69 -16 q25 4 42 21t33 46l70 -35q-23 -45 -62.5 -79.5t-93.5 -34.5q-45 0 -80.5 15t-66.5 33.5t-59.5 34t-59.5 15.5q-37 0 -59.5 -21.5t-36.5 -50.5z" />
<glyph unicode="&#xf2;" horiz-adv-x="1103" d="M125 342v369q0 80 36 145.5t96 111.5t137 71.5t157 25.5q82 0 158.5 -25.5t136 -71.5t95.5 -111.5t36 -145.5v-369q0 -80 -36 -146.5t-95.5 -113.5t-136 -72.5t-158.5 -25.5t-159 25.5t-136 72.5t-95 113.5t-36 146.5zM201 342q0 -66 29.5 -118t78.5 -89t112.5 -56.5 t129.5 -19.5t129 19.5t112.5 56.5t79 89t29.5 118v369q0 63 -29.5 115.5t-79 88t-113 55t-128.5 19.5q-66 0 -128.5 -19.5t-111.5 -56t-79.5 -88t-30.5 -114.5v-369zM332 1460l80 64l184 -293l-61 -43z" />
<glyph unicode="&#xf3;" horiz-adv-x="1103" d="M125 342v369q0 80 36 145.5t96 111.5t137 71.5t157 25.5q82 0 158.5 -25.5t136 -71.5t95.5 -111.5t36 -145.5v-369q0 -80 -36 -146.5t-95.5 -113.5t-136 -72.5t-158.5 -25.5t-159 25.5t-136 72.5t-95 113.5t-36 146.5zM201 342q0 -66 29.5 -118t78.5 -89t112.5 -56.5 t129.5 -19.5t129 19.5t112.5 56.5t79 89t29.5 118v369q0 63 -29.5 115.5t-79 88t-113 55t-128.5 19.5q-66 0 -128.5 -19.5t-111.5 -56t-79.5 -88t-30.5 -114.5v-369zM496 1223l192 274l70 -53l-199 -260z" />
<glyph unicode="&#xf4;" horiz-adv-x="1103" d="M125 342v369q0 80 36 145.5t96 111.5t137 71.5t157 25.5q82 0 158.5 -25.5t136 -71.5t95.5 -111.5t36 -145.5v-369q0 -80 -36 -146.5t-95.5 -113.5t-136 -72.5t-158.5 -25.5t-159 25.5t-136 72.5t-95 113.5t-36 146.5zM201 342q0 -66 29.5 -118t78.5 -89t112.5 -56.5 t129.5 -19.5t129 19.5t112.5 56.5t79 89t29.5 118v369q0 63 -29.5 115.5t-79 88t-113 55t-128.5 19.5q-66 0 -128.5 -19.5t-111.5 -56t-79.5 -88t-30.5 -114.5v-369zM293 1237l244 166l247 -166l-45 -59l-200 135l-205 -133z" />
<glyph unicode="&#xf5;" horiz-adv-x="1103" d="M125 342v369q0 80 36 145.5t96 111.5t137 71.5t157 25.5q82 0 158.5 -25.5t136 -71.5t95.5 -111.5t36 -145.5v-369q0 -80 -36 -146.5t-95.5 -113.5t-136 -72.5t-158.5 -25.5t-159 25.5t-136 72.5t-95 113.5t-36 146.5zM201 342q0 -66 29.5 -118t78.5 -89t112.5 -56.5 t129.5 -19.5t129 19.5t112.5 56.5t79 89t29.5 118v369q0 63 -29.5 115.5t-79 88t-113 55t-128.5 19.5q-66 0 -128.5 -19.5t-111.5 -56t-79.5 -88t-30.5 -114.5v-369zM246 1243q35 57 72.5 88t93.5 31q37 0 70.5 -15.5t67.5 -35t67.5 -35.5t68.5 -16q25 4 42 21t34 46l69 -35 q-23 -45 -62.5 -79.5t-92.5 -34.5q-45 0 -81 15t-66.5 33.5t-59 34t-59.5 15.5q-37 0 -59.5 -21.5t-37.5 -50.5z" />
<glyph unicode="&#xf6;" horiz-adv-x="1103" d="M125 342v369q0 80 36 145.5t96 111.5t137 71.5t157 25.5q82 0 158.5 -25.5t136 -71.5t95.5 -111.5t36 -145.5v-369q0 -80 -36 -146.5t-95.5 -113.5t-136 -72.5t-158.5 -25.5t-159 25.5t-136 72.5t-95 113.5t-36 146.5zM201 342q0 -66 29.5 -118t78.5 -89t112.5 -56.5 t129.5 -19.5t129 19.5t112.5 56.5t79 89t29.5 118v369q0 63 -29.5 115.5t-79 88t-113 55t-128.5 19.5q-66 0 -128.5 -19.5t-111.5 -56t-79.5 -88t-30.5 -114.5v-369zM315 1227v131h119v-131h-119zM647 1227v131h119v-131h-119z" />
<glyph unicode="&#xf7;" horiz-adv-x="1411" d="M123 553v76h1163v-76h-1163zM610 188v164h168v-164h-168zM610 821v166h168v-166h-168z" />
<glyph unicode="&#xf8;" horiz-adv-x="1091" d="M137 -121l129 221q-51 47 -79.5 108.5t-28.5 133.5v369q0 80 35.5 145.5t96 111.5t137.5 71.5t157 25.5q57 0 111.5 -13.5t103.5 -35.5l90 151h86l-111 -190q66 -47 106 -113.5t40 -152.5v-369q0 -80 -36 -146.5t-95.5 -113.5t-136 -72.5t-158.5 -25.5q-70 0 -136.5 18 t-121.5 53l-103 -176h-86zM233 342q0 -53 18.5 -96t53.5 -78l457 782q-88 39 -178 39q-66 0 -128.5 -19.5t-111.5 -56t-80 -88t-31 -114.5v-369zM365 121q47 -31 103 -46.5t116 -15.5q66 0 129 19.5t112 56.5t79 89t30 118v369q0 63 -30 114.5t-79 87.5z" />
<glyph unicode="&#xf9;" horiz-adv-x="1187" d="M182 338v706h76v-706q0 -68 25.5 -121t71.5 -89t108.5 -54.5t138.5 -18.5q74 0 137.5 18.5t109.5 54.5t71.5 89t25.5 121v706h76v-706q0 -84 -32 -150.5t-88 -112.5t-133 -70.5t-167 -24.5q-92 0 -169 24.5t-132 70.5t-87 112.5t-32 150.5zM383 1440l80 63l184 -293 l-61 -43z" />
<glyph unicode="&#xfa;" horiz-adv-x="1187" d="M182 338v706h76v-706q0 -68 25.5 -121t71.5 -89t108.5 -54.5t138.5 -18.5q74 0 137.5 18.5t109.5 54.5t71.5 89t25.5 121v706h76v-706q0 -84 -32 -150.5t-88 -112.5t-133 -70.5t-167 -24.5q-92 0 -169 24.5t-132 70.5t-87 112.5t-32 150.5zM547 1202l192 275l70 -54 l-199 -260z" />
<glyph unicode="&#xfb;" horiz-adv-x="1187" d="M182 338v706h76v-706q0 -68 25.5 -121t71.5 -89t108.5 -54.5t138.5 -18.5q74 0 137.5 18.5t109.5 54.5t71.5 89t25.5 121v706h76v-706q0 -84 -32 -150.5t-88 -112.5t-133 -70.5t-167 -24.5q-92 0 -169 24.5t-132 70.5t-87 112.5t-32 150.5zM344 1217l244 165l248 -165 l-45 -60l-201 135l-205 -133z" />
<glyph unicode="&#xfc;" horiz-adv-x="1187" d="M182 338v706h76v-706q0 -68 25.5 -121t71.5 -89t108.5 -54.5t138.5 -18.5q74 0 137.5 18.5t109.5 54.5t71.5 89t25.5 121v706h76v-706q0 -84 -32 -150.5t-88 -112.5t-133 -70.5t-167 -24.5q-92 0 -169 24.5t-132 70.5t-87 112.5t-32 150.5zM367 1206v131h118v-131h-118z M698 1206v131h119v-131h-119z" />
<glyph unicode="&#xfd;" horiz-adv-x="976" d="M51 1044h84l344 -983l348 983h86l-415 -1155q-27 -72 -58.5 -132t-74.5 -103t-99.5 -66.5t-130.5 -23.5v76q102 0 170 61t111 186l22 66zM428 1212l193 275l69 -53l-198 -260z" />
<glyph unicode="&#xfe;" horiz-adv-x="1163" d="M184 -487v1898h76v-520q59 78 156.5 127t212.5 49q86 0 160.5 -27.5t130 -74.5t87 -112t31.5 -138v-383q0 -74 -31.5 -138.5t-87 -111.5t-130 -74.5t-160.5 -27.5q-117 0 -213.5 47t-155.5 125v-639h-76zM268 332q0 -57 30 -107.5t79 -88.5t114.5 -59.5t137.5 -21.5 q70 0 131 21.5t106 58.5t71 87t26 110v383q0 57 -27 108t-72 88t-106.5 58.5t-128.5 21.5q-72 0 -137.5 -22.5t-114.5 -60.5t-79 -88t-30 -105v-383z" />
<glyph unicode="&#xff;" horiz-adv-x="976" d="M51 1044h84l344 -983l348 983h86l-415 -1155q-27 -72 -58.5 -132t-74.5 -103t-99.5 -66.5t-130.5 -23.5v76q102 0 170 61t111 186l22 66zM256 1206v131h119v-131h-119zM588 1206v131h119v-131h-119z" />
<glyph unicode="&#x152;" horiz-adv-x="1869" d="M143 438v512q0 88 44 168t119 140.5t174.5 96.5t207.5 36h1004v-76h-625v-553h528v-76h-528v-610h678v-76h-1055q-115 0 -214 35t-173 94t-117 139t-43 170zM219 438q2 -82 41 -148.5t102.5 -114.5t147.5 -73.5t180 -25.5h301v1239h-303q-82 0 -166 -30t-151.5 -79 t-109.5 -115.5t-42 -140.5v-512z" />
<glyph unicode="&#x153;" horiz-adv-x="1824" d="M125 350v361q0 74 32.5 138t90 112.5t134.5 76t165 27.5q127 0 230.5 -58.5t152.5 -150.5q51 92 154.5 150.5t226.5 58.5q82 0 154.5 -26.5t128 -72.5t89 -108.5t33.5 -136.5v-186h-745v-195q0 -70 30.5 -122t82 -87t116 -52.5t131.5 -17.5q111 0 193 25t131 64l37 -58 q-70 -57 -166 -81.5t-195 -24.5q-61 0 -122.5 13t-115 40t-96.5 65.5t-69 90.5q-51 -88 -152.5 -144.5t-228.5 -56.5q-88 0 -165 27.5t-134.5 75.5t-90 113.5t-32.5 139.5zM201 350q0 -59 26.5 -109.5t73.5 -89t110.5 -60t135.5 -21.5q70 0 132 20.5t109.5 57t75 85 t27.5 103.5v387q0 55 -27.5 104.5t-75 85t-110 57t-131.5 21.5q-72 0 -135.5 -22.5t-110.5 -60.5t-73.5 -89t-26.5 -108v-361zM971 610h667v111q0 57 -25.5 107.5t-70.5 85t-104.5 55t-126.5 20.5q-68 0 -129.5 -20.5t-108.5 -56t-74.5 -85t-27.5 -104.5v-113z" />
<glyph unicode="&#x178;" horiz-adv-x="1150" d="M86 1393h92l393 -742l402 742h92l-457 -826v-567h-76v567zM348 1534v131h119v-131h-119zM680 1534v131h119v-131h-119z" />
<glyph unicode="&#x2c6;" horiz-adv-x="718" d="M113 1229l243 166l248 -166l-45 -60l-201 136l-204 -134z" />
<glyph unicode="&#x2dc;" horiz-adv-x="813" d="M113 1270q35 57 72.5 88t93.5 31q37 0 70.5 -15.5t67.5 -35t67.5 -36t68.5 -16.5q25 4 42 21.5t34 46.5l69 -35q-23 -45 -62.5 -80t-92.5 -35q-45 0 -81 15.5t-66.5 34t-59.5 34t-60 15.5q-37 0 -59 -21.5t-37 -50.5z" />
<glyph unicode="&#x2000;" horiz-adv-x="925" />
<glyph unicode="&#x2001;" horiz-adv-x="1851" />
<glyph unicode="&#x2002;" horiz-adv-x="925" />
<glyph unicode="&#x2003;" horiz-adv-x="1851" />
<glyph unicode="&#x2004;" horiz-adv-x="617" />
<glyph unicode="&#x2005;" horiz-adv-x="462" />
<glyph unicode="&#x2006;" horiz-adv-x="308" />
<glyph unicode="&#x2007;" horiz-adv-x="308" />
<glyph unicode="&#x2008;" horiz-adv-x="231" />
<glyph unicode="&#x2009;" horiz-adv-x="370" />
<glyph unicode="&#x200a;" horiz-adv-x="102" />
<glyph unicode="&#x2010;" horiz-adv-x="718" d="M113 532v76h491v-76h-491z" />
<glyph unicode="&#x2011;" horiz-adv-x="718" d="M113 532v76h491v-76h-491z" />
<glyph unicode="&#x2012;" horiz-adv-x="718" d="M113 532v76h491v-76h-491z" />
<glyph unicode="&#x2013;" horiz-adv-x="1146" d="M16 553v76h1102v-76h-1102z" />
<glyph unicode="&#x2014;" horiz-adv-x="1589" d="M18 553v76h1549v-76h-1549z" />
<glyph unicode="&#x2018;" horiz-adv-x="231" d="M72 1069v57q0 61 3 109.5t11 87.5t22.5 70.5t38.5 60.5l52 -35q-31 -53 -38 -109.5t-7 -127.5v-113h-82z" />
<glyph unicode="&#x2019;" horiz-adv-x="231" d="M10 1108q18 27 30.5 50.5t20 51t11.5 60.5t4 76v108h82v-53q0 -70 -6.5 -119t-18.5 -86t-29.5 -65.5t-42.5 -57.5z" />
<glyph unicode="&#x201a;" horiz-adv-x="450" d="M213 -203q18 27 30.5 50.5t19.5 51t11.5 60.5t4.5 76v108h81v-53q0 -70 -6 -119t-18 -86t-29.5 -65.5t-42.5 -57.5z" />
<glyph unicode="&#x201c;" horiz-adv-x="442" d="M72 1069v57q0 61 3 109.5t11 87.5t22.5 70.5t38.5 60.5l52 -35q-31 -53 -38 -109.5t-7 -127.5v-113h-82zM303 1069v57q0 61 3 109.5t11.5 87.5t22.5 70.5t39 60.5l51 -35q-31 -53 -38 -109.5t-7 -127.5v-113h-82z" />
<glyph unicode="&#x201d;" horiz-adv-x="481" d="M10 1044q18 27 30.5 50.5t20 51.5t11.5 60.5t4 75.5v109h82v-54q0 -70 -6.5 -119t-18.5 -85.5t-29.5 -65.5t-42.5 -57zM260 1044q18 27 30.5 50.5t19.5 51.5t11.5 60.5t4.5 75.5v109h82v-54q0 -70 -6.5 -119t-18.5 -85.5t-29.5 -65.5t-42.5 -57z" />
<glyph unicode="&#x201e;" horiz-adv-x="782" d="M213 -201q18 27 30.5 50.5t19.5 51t11.5 60.5t4.5 76v108h81v-53q0 -70 -6 -119t-18 -86t-29.5 -65.5t-42.5 -57.5zM545 -199q18 27 30.5 50.5t19.5 51t11 60.5t4 76v108h82v-53q0 -70 -6 -119t-18.5 -85.5t-29.5 -65.5t-42 -57z" />
<glyph unicode="&#x2022;" horiz-adv-x="710" d="M184 367v333h340v-333h-340z" />
<glyph unicode="&#x2026;" horiz-adv-x="1449" d="M184 0v178h158v-178h-158zM645 0v178h158v-178h-158zM1106 0v178h158v-178h-158z" />
<glyph unicode="&#x202f;" horiz-adv-x="370" />
<glyph unicode="&#x2039;" horiz-adv-x="620" d="M123 356l323 369l50 -66l-254 -299l254 -294l-50 -66z" />
<glyph unicode="&#x203a;" horiz-adv-x="620" d="M123 66l252 294l-252 299l49 66l324 -369l-324 -356z" />
<glyph unicode="&#x205f;" horiz-adv-x="462" />
<glyph unicode="&#x20ac;" horiz-adv-x="1329" d="M90 543v75h176v183h-176v76h176v92q0 100 39 182t107.5 140.5t160 90t195.5 31.5q141 0 256 -41t190 -127l-55 -57q-63 70 -165.5 109.5t-225.5 39.5q-88 0 -165 -25.5t-135 -73.5t-92 -116.5t-34 -152.5v-92h662v-76h-662v-183h662v-75h-662v-117q0 -92 32 -161.5 t89 -116t136 -70t171 -23.5q115 0 217.5 27t179.5 90l47 -57q-88 -76 -198.5 -105.5t-245.5 -29.5q-111 0 -203 28.5t-158.5 86t-104.5 140t-38 191.5v117h-176z" />
<glyph unicode="&#x2122;" horiz-adv-x="1153" d="M98 1360v76h375v-76h-147v-356h-76v356h-152zM559 1004v430h76l129 -220l137 220h76v-430h-78v305l-113 -185h-45l-106 191v-311h-76z" />
<glyph unicode="&#x25fc;" horiz-adv-x="1044" d="M0 0v1044h1044v-1044h-1044z" />
<glyph unicode="&#xfb03;" horiz-adv-x="1769" d="M66 969v75h141v134q0 70 40 124t105.5 89.5t147.5 54t166 18.5q27 0 66.5 -4t84.5 -10t90 -16.5t82 -22.5q55 29 120 41t130 12q72 0 160 -10t162 -29l-17 -65q-86 16 -158.5 22.5t-144.5 6.5q-145 0 -232 -53.5t-87 -157.5v-134h256v-75h-256v-969h-76v969h-563v-969 h-76v969h-141zM283 1044h563v134q0 59 20.5 104t51.5 76q-20 6 -53.5 11t-69 10t-69.5 7.5t-58 2.5q-72 0 -141.5 -13.5t-124 -40t-87 -66.5t-32.5 -91v-134zM1485 0v1044h76v-1044h-76z" />
<glyph unicode="&#xfb04;" horiz-adv-x="1779" d="M66 969v75h141v134q0 70 40 124t105.5 89.5t147.5 54t166 18.5q27 0 66.5 -4t84.5 -10t90 -16.5t82 -22.5q55 29 120 41t130 12q72 0 160 -10t162 -29v-1425h-76v1370q-66 10 -125.5 14.5t-118.5 4.5q-145 0 -232 -53.5t-87 -157.5v-134h256v-75h-256v-969h-76v969h-563 v-969h-76v969h-141zM283 1044h563v134q0 59 20.5 104t51.5 76q-20 6 -53.5 11t-69 10t-69.5 7.5t-58 2.5q-72 0 -141.5 -13.5t-124 -40t-87 -66.5t-32.5 -91v-134z" />
</font>
</defs>
</svg>
