<?xml version="1.0" standalone="no"?>
<!DOCTYPE svg PUBLIC "-//W3C//DTD SVG 1.1//EN" "http://www.w3.org/Graphics/SVG/1.1/DTD/svg11.dtd" >
<svg xmlns="http://www.w3.org/2000/svg">
<metadata></metadata>
<defs>
<font id="bose_gothic_screenbold" horiz-adv-x="1150" >
<font-face units-per-em="2048" ascent="1536" descent="-512" />
<missing-glyph horiz-adv-x="448" />
<glyph unicode="&#xdf;" horiz-adv-x="1292" d="M113 0v1075q0 207 128 304.5t363 97.5q113 0 210 -29t169 -83t113 -134t41 -182q-88 -72 -140.5 -137.5t-52.5 -137.5q0 -35 11.5 -60.5t31 -47t44 -41t50.5 -37.5q37 -27 68 -54.5t53.5 -60.5t34.5 -73t12 -89q0 -176 -112.5 -256t-300.5 -80q-43 0 -90.5 5.5 t-93.5 16.5t-88 26.5t-70 35.5l61 205q41 -23 106.5 -41t137.5 -18q66 0 117 29.5t51 87.5q0 31 -12.5 54t-33 43.5t-48 38t-58.5 40.5q-72 47 -114 105.5t-42 158.5q0 98 53.5 183t133.5 157q0 31 -20.5 56.5t-52.5 43t-73 26.5t-84 9q-96 0 -157.5 -44t-61.5 -134v-1059 h-284z" />
<glyph unicode="&#xfb01;" horiz-adv-x="1327" d="M43 862v182h125v127q0 82 36 142.5t97 99.5t142 58.5t171 19.5q137 0 264.5 -21.5t231.5 -56.5l-47 -194q-45 8 -87 16t-88 14t-100.5 10.5t-121.5 4.5q-111 0 -163 -35t-52 -111v-74h249v-182h-249v-862h-283v862h-125zM889 0v1044h287v-1044h-287z" />
<glyph unicode="&#xfb02;" horiz-adv-x="1327" d="M43 862v182h125v127q0 82 36 142.5t97 99.5t142 58.5t169 19.5q135 0 271.5 -22.5t292.5 -75.5v-1393h-287v1249q-47 6 -101.5 10.5t-121.5 4.5q-113 0 -164 -35t-51 -111v-74h249v-182h-249v-862h-283v862h-125z" />
<glyph horiz-adv-x="0" />
<glyph unicode="&#xd;" horiz-adv-x="448" />
<glyph unicode=" "  horiz-adv-x="448" />
<glyph unicode="&#x09;" horiz-adv-x="448" />
<glyph unicode="&#xa0;" horiz-adv-x="448" />
<glyph unicode="!" horiz-adv-x="571" d="M150 1393h307l-27 -908h-256zM158 0v252h297v-252h-297z" />
<glyph unicode="&#x22;" horiz-adv-x="673" d="M111 1407h184l-14 -453h-158zM381 1407h182l-12 -453h-156z" />
<glyph unicode="#" horiz-adv-x="1320" d="M80 248l4 164h246l69 393h-245l6 164h274l47 272h205l-47 -272h205l51 272h199l-45 -272h192l-6 -164h-223l-70 -393h215l-4 -164h-248l-37 -248h-204l38 248h-206l-41 -248h-203l41 248h-213zM532 412h207l70 393h-207z" />
<glyph unicode="$" horiz-adv-x="1220" d="M100 197l140 182q76 -78 175 -118t203 -40q106 0 164 42t58 118q0 39 -13.5 67.5t-44 52t-83 44t-128.5 43.5q-104 31 -186 68.5t-137 87t-84 113t-29 144.5q0 102 40 179t107.5 128.5t155.5 77t185 25.5h16t16 -2l33 213l182 -29l-32 -209q143 -43 270 -145l-131 -192 q-86 66 -167 94t-179 28q-100 0 -156.5 -41t-56.5 -116q0 -37 14 -65.5t46 -52.5t85 -44.5t131 -44.5q211 -61 319.5 -158.5t108.5 -255.5q0 -96 -35.5 -172t-101 -128t-157 -79.5t-199.5 -27.5h-17l-39 -252l-172 26l37 248q-98 25 -186 72t-152 119z" />
<glyph unicode="%" horiz-adv-x="1533" d="M94 1020v160q0 55 24.5 98t66.5 73.5t97.5 46t116.5 15.5q57 0 111.5 -16.5t95.5 -47t65.5 -73.5t24.5 -96v-160q0 -55 -23.5 -99t-64.5 -74t-95 -46.5t-114 -16.5q-66 0 -121 15.5t-96 44t-64.5 73t-23.5 103.5zM207 0l883 1393h233l-872 -1393h-244zM299 1044 q0 -43 27.5 -60t72.5 -17q37 0 69 21.5t32 55.5v115q0 35 -31 52.5t-70 17.5t-69.5 -19.5t-30.5 -54.5v-111zM858 199v194q0 111 83 168t208 57q55 0 107.5 -13t92.5 -39.5t64.5 -67.5t24.5 -97v-188q0 -113 -83 -171t-206 -58q-55 0 -108.5 15t-93.5 43t-64.5 68t-24.5 89z M1047 352l4 -112q0 -35 28.5 -56.5t69.5 -21.5q37 0 68.5 22.5t31.5 57.5v112q0 41 -28.5 61.5t-71.5 20.5q-41 0 -71.5 -24.5t-30.5 -59.5z" />
<glyph unicode="&#x26;" horiz-adv-x="1503" d="M84 352q0 106 85 198.5t234 199.5l19 14l-186 182v193q0 63 30.5 114.5t83.5 87t124 55t149 19.5q184 0 293.5 -81t109.5 -238q0 -109 -64.5 -191t-175.5 -164l234 -223l235 221l181 -161l-238 -230l236 -225l-183 -160l-227 219q-88 -98 -199.5 -150t-255.5 -52 q-111 0 -200.5 22.5t-152 68.5t-97.5 115.5t-35 165.5zM377 350q0 -63 45 -98t131 -35q78 0 142.5 32t146.5 107l-248 242l-19 -14q-100 -78 -149 -127t-49 -107zM485 1028l133 -127q66 47 106 92t40 97q0 106 -143 106q-59 0 -97.5 -23.5t-38.5 -64.5v-80z" />
<glyph unicode="'" horiz-adv-x="497" d="M139 1454h219l-28 -487h-162z" />
<glyph unicode="(" horiz-adv-x="759" d="M150 240v626q0 242 97 421t255 272l123 -109q-100 -66 -165 -213t-65 -371v-626q0 -233 64.5 -374.5t165.5 -203.5l-123 -113q-78 45 -143.5 114t-111.5 158t-71.5 194.5t-25.5 224.5z" />
<glyph unicode=")" horiz-adv-x="798" d="M123 -352q98 70 161.5 222.5t63.5 375.5v618q0 221 -55 367.5t-156 216.5l107 113q156 -92 253 -273.5t97 -423.5v-618q0 -119 -25.5 -225.5t-71.5 -194.5t-110.5 -157.5t-142.5 -114.5z" />
<glyph unicode="*" horiz-adv-x="813" d="M92 1169l39 123l207 -65v211h135v-213l207 67l39 -123l-203 -63l127 -172l-108 -80l-129 174l-127 -174l-109 78l127 174z" />
<glyph unicode="+" horiz-adv-x="1169" d="M61 696v193h414v381h217v-381h416v-193h-416v-430h-217v430h-414z" />
<glyph unicode="," horiz-adv-x="491" d="M47 -205q31 43 56.5 101.5t25.5 164.5v127h238v-55q0 -90 -17.5 -156.5t-44 -115.5t-56.5 -82t-56 -58z" />
<glyph unicode="-" horiz-adv-x="710" d="M90 485v226h528v-226h-528z" />
<glyph unicode="." horiz-adv-x="524" d="M121 0v252h280v-252h-280z" />
<glyph unicode="/" horiz-adv-x="858" d="M35 -174l545 1567h243l-549 -1567h-239z" />
<glyph unicode="0" horiz-adv-x="1288" d="M104 420v543q0 104 42 187t114 141.5t170 90t213 31.5q113 0 212 -31.5t172 -90t115 -141.5t42 -187v-543q0 -104 -42 -186t-116 -138.5t-172 -86t-211 -29.5t-211 29.5t-171 86t-115 138t-42 186.5zM391 430q0 -109 70.5 -160t181.5 -51q53 0 100.5 12.5t82 39t54 66.5 t19.5 93v524q0 106 -73.5 161.5t-182.5 55.5q-113 0 -182.5 -55t-69.5 -162v-524z" />
<glyph unicode="1" horiz-adv-x="716" d="M61 1151v242h465v-1393h-284v1151h-181z" />
<glyph unicode="2" d="M88 1200q109 94 241 146.5t298 52.5q90 0 170 -22.5t140 -68.5t95 -115t35 -161q0 -80 -23.5 -142.5t-69.5 -114.5t-113.5 -100.5t-155.5 -101.5q-88 -47 -144.5 -84.5t-90.5 -75.5t-48 -80t-21 -95h678v-238h-977v129q0 102 25 189.5t78 164t139 146t207 135.5 q63 33 107 61.5t72 56t40 58.5t12 70q0 74 -53 111.5t-147 37.5q-104 0 -197.5 -45t-167.5 -104z" />
<glyph unicode="3" horiz-adv-x="1212" d="M66 293l241 92q14 -43 43 -74.5t67 -51t81 -29t88 -9.5t88 8.5t75.5 25.5t52 47t19.5 73v78q0 152 -223 151h-199v217h189q41 0 81 7.5t70.5 23.5t49 43t18.5 68v65q0 39 -17.5 67.5t-47 46t-69.5 26t-85 8.5q-76 0 -147.5 -36t-100.5 -114l-227 94q20 66 65 120 t110.5 93t147.5 60.5t176 21.5q102 0 189.5 -20.5t152 -64.5t101.5 -111.5t37 -161.5v-68q0 -98 -57.5 -171t-157.5 -105q100 -33 164.5 -101.5t64.5 -173.5v-88q0 -94 -42 -162.5t-111.5 -113.5t-161 -66.5t-189.5 -21.5q-100 0 -188 20.5t-159 60t-120 97t-69 129.5z" />
<glyph unicode="4" horiz-adv-x="1230" d="M49 274v211l602 908h334v-879h203v-240h-203v-274h-285v274h-651zM350 514h350v514h-24z" />
<glyph unicode="5" horiz-adv-x="1189" d="M117 328l264 67q10 -78 71.5 -127t163.5 -49q84 0 143.5 37t59.5 111v141q0 72 -56 108.5t-151 36.5h-434l72 740h778v-242h-534l-25 -274h188q94 0 176 -23t142.5 -68t94.5 -113.5t34 -160.5v-154q0 -90 -40 -160.5t-106.5 -118.5t-152.5 -73.5t-176 -25.5 q-219 0 -350.5 91t-161.5 257z" />
<glyph unicode="6" horiz-adv-x="1208" d="M102 375v614q0 94 39 173t108.5 134.5t165 86t208.5 30.5q139 0 238.5 -26.5t191.5 -92.5l-109 -196q-74 41 -148.5 59.5t-156.5 18.5q-113 0 -182.5 -50.5t-69.5 -136.5v-211q47 59 128 96t179 37q90 0 168 -22.5t135.5 -66.5t90 -110.5t32.5 -154.5v-195 q0 -94 -44 -165.5t-115.5 -119.5t-163.5 -72.5t-191 -24.5q-98 0 -188 25.5t-161 75.5t-113 124t-42 170zM387 391q0 -45 19.5 -77.5t50 -54t69.5 -32t80 -10.5t82 10.5t74 32t53.5 54t20.5 77.5v144q0 86 -65.5 128t-162.5 42q-45 0 -85 -11.5t-70.5 -33t-48 -53.5 t-17.5 -72v-144z" />
<glyph unicode="7" horiz-adv-x="1019" d="M20 1135v258h949v-150l-430 -1243h-316l420 1135h-623z" />
<glyph unicode="8" horiz-adv-x="1228" d="M94 350v80q0 57 21.5 104.5t57.5 84t80 61.5t91 41q-98 33 -160.5 111.5t-62.5 179.5v49q0 86 40 152.5t108.5 110.5t158.5 66.5t188 22.5t187.5 -22.5t158 -66.5t109.5 -109.5t41 -153.5v-60q0 -47 -20.5 -91t-53 -80.5t-71.5 -65.5t-78 -43q41 -16 86 -39t82 -57.5 t60.5 -82.5t23.5 -112v-80q0 -96 -43 -165.5t-116 -114.5t-167 -67.5t-199 -22.5q-109 0 -203 22.5t-165.5 68.5t-112.5 115.5t-41 163.5zM379 373q0 -43 20.5 -73t54 -48.5t75.5 -25.5t87 -7q41 0 83 7t76 24.5t55.5 46.5t21.5 70v94q0 37 -20.5 66.5t-53.5 49t-71.5 29.5 t-75.5 10h-27q-41 -2 -81 -12t-71.5 -28.5t-52 -47t-20.5 -67.5v-88zM406 971q0 -35 17 -61.5t45 -45t63.5 -30t72.5 -13.5h25q39 2 74.5 11.5t63.5 28t44 45t16 65.5v59q0 37 -18 63.5t-48 45t-68 27t-77 8.5t-76.5 -9.5t-67.5 -27t-48 -44t-18 -63.5v-59z" />
<glyph unicode="9" horiz-adv-x="1212" d="M92 834v206q0 86 42 156t112.5 118t162 73.5t189.5 25.5t190.5 -25.5t164 -73.5t114.5 -117t43 -157v-684q0 -92 -43 -162.5t-114.5 -117.5t-164 -71.5t-190.5 -24.5q-123 0 -244 32.5t-207 96.5l91 198q78 -45 170 -66.5t190 -21.5q53 0 100 10.5t82 33t55.5 56 t20.5 80.5v179q-53 -61 -136 -90t-163 -29q-98 0 -183 24.5t-147.5 71.5t-98.5 117.5t-36 161.5zM377 842q0 -41 19.5 -71t52 -50.5t72.5 -29.5t83 -9q41 0 80 10t69.5 29.5t49 49.5t18.5 71v174q0 39 -19.5 68.5t-51 49t-71.5 28.5t-81 9t-81 -10t-70.5 -29.5t-50 -48 t-19.5 -67.5v-174z" />
<glyph unicode=":" horiz-adv-x="579" d="M156 0v272h143h139v-272h-282zM156 795v270h282v-270h-282z" />
<glyph unicode=";" horiz-adv-x="636" d="M174 -205q31 43 56.5 101.5t25.5 164.5v127h238v-55q0 -90 -17.5 -156.5t-44 -115.5t-56.5 -82t-57 -58zM223 786v279h266v-279h-266z" />
<glyph unicode="&#x3c;" horiz-adv-x="1249" d="M127 514l911 565l80 -164l-629 -393l656 -364l-86 -162z" />
<glyph unicode="=" horiz-adv-x="1155" d="M94 342v197h371h594v-197h-965zM94 772v195h965v-195h-965z" />
<glyph unicode="&#x3e;" horiz-adv-x="1236" d="M123 903l104 166l912 -526l-906 -561l-104 165l619 385z" />
<glyph unicode="?" horiz-adv-x="989" d="M47 1274q80 55 190.5 97t227.5 42q205 0 322.5 -72.5t117.5 -232.5v-68q0 -47 -17.5 -86t-44 -70.5t-59 -59t-65.5 -52.5q-39 -29 -66.5 -53.5t-46 -50t-27 -57t-8.5 -72.5v-90h-274v122q0 90 40 152.5t116 116.5q61 43 110 86t49 90v53q0 57 -52 79.5t-134 22.5 q-76 0 -153.5 -27.5t-131.5 -62.5zM279 0v252h329v-252h-329z" />
<glyph unicode="@" horiz-adv-x="1642" d="M94 541q0 35 4 117.5t21 168.5q20 125 80.5 237t152.5 194.5t215.5 131t270.5 48.5q154 0 282.5 -43t222 -120t146.5 -183.5t53 -231.5q0 -117 -19.5 -211t-61.5 -160.5t-108.5 -103.5t-160.5 -37q-31 0 -66.5 5t-68.5 17.5t-58.5 35t-35.5 57.5q-45 -53 -123 -97 t-164 -44q-133 0 -192.5 57t-59.5 137q0 20 4 58t12.5 85.5t21.5 101.5t34 107q20 61 61 110.5t94.5 84.5t113.5 54.5t120 19.5q121 0 193.5 -52.5t72.5 -140.5q0 -41 -8 -86t-19 -94q-10 -41 -16 -86t-6 -90q0 -43 24.5 -74t65.5 -31q109 0 153 100.5t44 278.5 q0 98 -41 179t-114 139.5t-174.5 91.5t-221.5 33q-117 0 -215.5 -38t-171 -103.5t-118.5 -153.5t-61 -191q-12 -82 -18 -161.5t-6 -112.5q0 -90 38 -168t111.5 -134.5t183 -89t253.5 -32.5q78 0 158.5 21.5t164.5 66.5l70 -121q-94 -53 -194.5 -76.5t-198.5 -23.5 q-180 0 -318.5 42t-232 115.5t-141.5 175t-48 220.5zM610 582q0 -117 109 -117q78 0 139.5 53t73.5 133q12 57 26.5 124t14.5 122q0 96 -115 96q-41 0 -77 -18.5t-65.5 -49t-50 -69.5t-26.5 -78q-6 -29 -11 -61.5t-9.5 -62t-6.5 -50t-2 -22.5z" />
<glyph unicode="A" horiz-adv-x="1329" d="M43 0l467 1405h317l457 -1405h-309l-92 319h-434l-95 -319h-311zM502 543h327l-161 542z" />
<glyph unicode="B" horiz-adv-x="1294" d="M147 0v1393h560q98 0 178 -26t136 -73t88 -114.5t32 -153.5v-47q0 -37 -14.5 -77t-41 -74.5t-63.5 -61.5t-82 -41q111 -39 176.5 -114.5t65.5 -186.5v-76q0 -172 -120 -260t-317 -88h-598zM434 221h266q39 0 75 7.5t62.5 25.5t43 48t16.5 77v72q0 37 -16.5 66.5t-44 49 t-63.5 29.5t-75 10h-264v-385zM434 813h254q78 0 124 40t46 112v47q0 90 -56.5 122.5t-148.5 32.5h-219v-354z" />
<glyph unicode="C" horiz-adv-x="1163" d="M121 438v514q0 106 43 192.5t115.5 146t171 91t208.5 31.5q154 0 259.5 -35t195.5 -104l-117 -199q-61 43 -137 69.5t-180 26.5q-117 0 -194.5 -61t-77.5 -174v-483q0 -121 77.5 -177.5t200.5 -56.5q190 0 311 84l107 -197q-88 -68 -189.5 -97t-252.5 -29 q-117 0 -215.5 28.5t-171 86t-113.5 143.5t-41 200z" />
<glyph unicode="D" horiz-adv-x="1343" d="M150 0v1393h512q121 0 222 -30t175 -90.5t114.5 -151.5t40.5 -216v-420q0 -125 -45 -216t-122.5 -151.5t-182 -89t-223.5 -28.5h-491zM430 240h211q59 0 111.5 14t92.5 46t63.5 83t23.5 123v377q0 70 -21.5 120t-58.5 82.5t-86 49t-104 16.5h-232v-911z" />
<glyph unicode="E" d="M147 0v1393h873v-242h-588v-328h469v-231h-469v-352h633v-240h-918z" />
<glyph unicode="F" horiz-adv-x="1075" d="M147 0v1393h871v-242h-586v-328h467v-233h-467v-590h-285z" />
<glyph unicode="G" horiz-adv-x="1345" d="M121 436v518q0 111 45 196t124 143.5t183.5 89t224.5 30.5q152 0 268.5 -38t209.5 -97l-101 -207q-78 45 -161 72.5t-201 27.5q-63 0 -118.5 -15t-97.5 -45t-65.5 -75t-23.5 -102v-479q0 -59 22.5 -104.5t61 -74t91 -43t111.5 -14.5q76 0 131.5 11.5t110.5 35.5v295h-223 v223h508v-643q-104 -72 -231.5 -116.5t-295.5 -44.5q-121 0 -226.5 28.5t-182 86t-120.5 143.5t-44 198z" />
<glyph unicode="H" horiz-adv-x="1454" d="M147 0v1393h285v-592h586v592h285v-1393h-285v561h-586v-561h-285z" />
<glyph unicode="I" horiz-adv-x="634" d="M174 0v1393h283v-1393h-283z" />
<glyph unicode="J" horiz-adv-x="1146" d="M35 313l276 66q2 -29 17.5 -57.5t41 -51t62.5 -37t82 -14.5q84 0 140.5 42t56.5 128v1004h286v-1014q0 -193 -124.5 -294t-346.5 -101q-213 0 -341 85t-150 244z" />
<glyph unicode="K" horiz-adv-x="1335" d="M147 0v1393h285v-629l469 629h348l-542 -664l602 -729h-361l-426 547l-90 -105v-442h-285z" />
<glyph unicode="L" horiz-adv-x="1114" d="M147 0v1393h285v-1153h649v-240h-934z" />
<glyph unicode="M" horiz-adv-x="1736" d="M147 0v1393h310l409 -775l416 775h307v-1393h-286v973l-353 -678h-170l-348 678v-973h-285z" />
<glyph unicode="N" horiz-adv-x="1435" d="M147 0v1393h273l604 -965v965h262v-1393h-268l-608 961v-961h-263z" />
<glyph unicode="O" horiz-adv-x="1388" d="M123 436v522q0 106 42 191.5t115.5 144t175 89t220.5 30.5h35q117 0 218 -31.5t176 -90t118 -142.5t43 -191v-522q0 -111 -41 -196.5t-115 -143t-175 -87t-224 -29.5h-33q-123 0 -225.5 28.5t-175 86t-113.5 143.5t-41 198zM410 455q0 -123 72.5 -179.5t195.5 -56.5h33 q123 0 196.5 57.5t73.5 178.5v481q0 115 -77 175t-193 60h-35q-117 0 -191.5 -60t-74.5 -173v-483z" />
<glyph unicode="P" horiz-adv-x="1277" d="M147 0v1393h574q104 0 190 -26t148.5 -76t96.5 -123.5t34 -170.5v-149q0 -92 -37 -162t-99.5 -116t-147.5 -69.5t-181 -23.5h-293v-477h-285zM432 702h273q86 0 143 41t57 136v88q0 88 -55 136t-145 48h-273v-449z" />
<glyph unicode="Q" horiz-adv-x="1388" d="M121 436v522q0 106 42 191.5t115.5 144t175 89t220.5 30.5h33q119 0 220 -31.5t176 -90t118 -142.5t43 -191v-522q0 -98 -31 -173t-88 -132l139 -143l-141 -109l-146 152q-61 -25 -133.5 -38t-156.5 -13h-31q-123 0 -225.5 28.5t-175 86t-113.5 143.5t-41 198zM406 455 q0 -123 72.5 -179.5t197.5 -56.5h31q29 0 53 2t47 8l-135 144l139 110l137 -145q31 45 31 117v481q0 115 -77 175t-195 60h-33q-117 0 -192.5 -60t-75.5 -173v-483z" />
<glyph unicode="R" horiz-adv-x="1286" d="M150 0v1393h583q209 0 334 -96.5t125 -295.5v-67q0 -137 -66.5 -224t-183.5 -122l295 -588h-307l-252 524h-244v-524h-284zM434 748h285q74 2 131 40.5t57 118.5v84q0 78 -54 119t-140 41h-279v-403z" />
<glyph unicode="S" horiz-adv-x="1222" d="M100 197l140 182q76 -78 175 -118t203 -40q106 0 164 42t58 118q0 39 -13.5 67.5t-44 52t-83 44t-128.5 43.5q-104 31 -185 68.5t-136 87t-84 113t-31 144.5q0 102 40 179t107.5 128.5t155.5 77t185 25.5q139 0 256.5 -40t228.5 -132l-131 -192q-86 66 -167 94t-179 28 q-100 0 -156.5 -41t-56.5 -116q0 -37 14 -65.5t46 -52.5t85 -44t131 -45q211 -61 318.5 -158.5t109.5 -255.5q0 -96 -35.5 -172t-101 -128t-157 -79.5t-199.5 -27.5q-76 0 -151 14t-143.5 41t-129 66.5t-105.5 91.5z" />
<glyph unicode="T" horiz-adv-x="1196" d="M33 1151v242h1130v-242h-426v-1151h-282v1151h-422z" />
<glyph unicode="U" horiz-adv-x="1433" d="M147 449v944h285v-930q0 -63 23.5 -109.5t62.5 -76t90 -44t109 -14.5q55 0 106 15.5t90 45t62.5 75.5t23.5 108v930h285v-944q0 -117 -45 -205t-122 -146.5t-179 -88t-219 -29.5q-119 0 -222.5 28.5t-181 87t-123 146.5t-45.5 207z" />
<glyph unicode="V" horiz-adv-x="1282" d="M37 1393h309l289 -1045l301 1045h307l-459 -1393h-297z" />
<glyph unicode="W" horiz-adv-x="1839" d="M63 1393h295l183 -1033l252 1033h254l253 -1037l181 1037h293l-291 -1393h-316l-249 991l-246 -991h-316z" />
<glyph unicode="X" horiz-adv-x="1261" d="M43 0l418 696l-389 697h321l244 -486l258 486h322l-406 -699l403 -694h-323l-256 479l-264 -479h-328z" />
<glyph unicode="Y" horiz-adv-x="1294" d="M59 1393h324l260 -602l264 602h328l-449 -877v-516h-286v518z" />
<glyph unicode="Z" horiz-adv-x="1202" d="M88 0v162l657 987h-643v244h1006v-160l-653 -993h653v-240h-1020z" />
<glyph unicode="[" horiz-adv-x="579" d="M150 -326v1719h387v-187h-148v-1349h139v-183h-378z" />
<glyph unicode="\" horiz-adv-x="925" d="M59 1393h250l604 -1393h-245z" />
<glyph unicode="]" horiz-adv-x="575" d="M92 1194v199h383v-1715h-381v189h139v1327h-141z" />
<glyph unicode="^" horiz-adv-x="903" d="M92 842l365 571l354 -569l-145 -64l-209 340l-215 -340z" />
<glyph unicode="_" horiz-adv-x="1159" d="M92 -68h975v-165h-975v165z" />
<glyph unicode="`" horiz-adv-x="565" d="M76 1393l180 100l217 -313l-131 -80z" />
<glyph unicode="a" horiz-adv-x="1075" d="M59 264v53q0 96 61.5 155.5t155 92.5t206 45t216.5 13v75q0 72 -41 104t-153 32q-35 0 -78 -6.5t-87 -15.5t-82 -20.5t-62 -23.5l-70 199q37 23 89 41t108.5 30.5t115 19.5t109.5 7q223 0 326.5 -91t103.5 -259v-715h-219l-35 137q-41 -68 -127 -109.5t-195 -41.5 q-170 0 -256 77.5t-86 200.5zM344 301q0 -100 152 -100q84 0 141 36.5t57 84.5v139q-55 -2 -117.5 -8.5t-113.5 -19.5t-85 -37.5t-34 -65.5v-29z" />
<glyph unicode="b" horiz-adv-x="1210" d="M129 0v1413h283v-483q53 68 131 101.5t164 33.5q197 0 299 -101.5t102 -281.5v-317q0 -182 -102.5 -281.5t-298.5 -99.5q-82 0 -165 32.5t-132 104.5l-45 -121h-236zM412 358q0 -80 62.5 -116.5t141.5 -36.5q92 0 149.5 37t57.5 125v313q0 78 -57 120t-139 42 q-88 0 -151.5 -38t-63.5 -122v-324z" />
<glyph unicode="c" horiz-adv-x="1007" d="M102 360v322q0 92 36 164t100.5 121t153.5 73.5t196 24.5q117 0 207 -28.5t159 -82.5l-102 -196q-47 31 -103.5 48t-132.5 17q-98 0 -162.5 -43t-64.5 -129v-262q0 -90 67.5 -131t164.5 -41h15q63 1 115 15q58 16 107 44l98 -196q-72 -53 -164 -75.5t-202 -22.5 q-106 0 -196.5 22.5t-155 69.5t-100.5 118.5t-36 167.5z" />
<glyph unicode="d" horiz-adv-x="1206" d="M100 365v317q0 180 102.5 281.5t301.5 101.5q86 0 163.5 -34t131.5 -101v483h282v-1413h-237l-45 121q-49 -72 -131 -104.5t-164 -32.5q-199 0 -301.5 99t-102.5 282zM385 367q0 -88 56.5 -125t148.5 -37q84 0 145.5 37t61.5 116v324q0 84 -63.5 122t-151.5 38 q-82 0 -139.5 -42t-57.5 -120v-313z" />
<glyph unicode="e" horiz-adv-x="1144" d="M98 360v347q0 82 41 147.5t109.5 111.5t157 71.5t182.5 25.5q96 0 181 -24.5t147.5 -70.5t99.5 -113t37 -148v-261h-670v-73q0 -41 19.5 -71t53 -48t79 -27.5t98.5 -9.5q100 0 182 19.5t135 48.5l88 -189q-94 -59 -197.5 -83.5t-228.5 -24.5q-100 0 -192 23.5t-164 69.5 t-115 115.5t-43 163.5zM385 633h403v65q0 33 -17 59.5t-46 45t-64.5 28t-72.5 9.5t-72 -9.5t-63.5 -28t-47 -45t-20.5 -59.5v-65z" />
<glyph unicode="f" horiz-adv-x="927" d="M43 862v182h125v113q0 78 29.5 135.5t79 95t115 56t136.5 18.5q76 0 150 -10t127 -29l-45 -209q-37 8 -76 13.5t-100 5.5q-55 0 -94 -24.5t-39 -78.5v-86h249v-182h-249v-862h-283v862h-125z" />
<glyph unicode="g" horiz-adv-x="1185" d="M70 -188q0 86 43 139t116 84q-49 27 -73.5 62.5t-24.5 88.5q0 47 34 98.5t99 80.5q-143 94 -143 278v59q0 92 36 160t98 113t148 66.5t187 21.5q139 0 246 -45l254 90l69 -170l-160 -49q55 -78 56 -184v-78q0 -92 -36 -156.5t-98.5 -105.5t-146.5 -60.5t-180 -19.5 q-47 0 -88 4t-80 12q-14 -10 -23.5 -27.5t-9.5 -33.5q0 -33 25.5 -53.5t66.5 -28.5l600 -82v-238q0 -76 -35.5 -132t-95 -93t-139.5 -55.5t-166 -18.5h-153q-90 0 -168 17.5t-135.5 51.5t-90 85t-32.5 119zM344 -152q0 -51 48 -73.5t112 -22.5h133q74 0 117 23.5t47 77.5v59 l-369 45q-88 -20 -88 -109zM410 610q0 -68 53 -98.5t129 -30.5q68 0 122 29t54 100v84q-2 70 -57.5 100.5t-120.5 30.5q-70 0 -125 -30.5t-55 -100.5v-84z" />
<glyph unicode="h" horiz-adv-x="1232" d="M127 0v1413h287v-536q20 41 56 75.5t81 59t95 38t99 13.5q195 0 279 -97.5t84 -277.5v-688h-287v672q0 74 -46 112.5t-122 38.5q-45 0 -88 -12t-76.5 -35.5t-54 -55.5t-20.5 -69v-651h-287z" />
<glyph unicode="i" horiz-adv-x="587" d="M147 1217v196h289v-196h-289zM150 0v1044h286v-1044h-286z" />
<glyph unicode="j" horiz-adv-x="620" d="M-131 -207q82 18 141.5 41t98 58.5t57 90t18.5 136.5v925h285v-956q0 -119 -33 -206t-100.5 -149.5t-167.5 -102.5t-236 -62zM182 1217v196h287v-196h-287z" />
<glyph unicode="k" horiz-adv-x="1120" d="M127 0v1413h287v-733h67l271 364h325l-368 -489l401 -555h-330l-301 434h-65v-434h-287z" />
<glyph unicode="l" horiz-adv-x="587" d="M150 0v1413h286v-1413h-286z" />
<glyph unicode="m" horiz-adv-x="1830" d="M127 0v1044h217l23 -157q20 39 56 71.5t79 55t92 36t96 13.5q117 0 200 -44t107 -142q20 37 57.5 71.5t84.5 60t101.5 41t111.5 15.5q178 0 266 -79t88 -249v-737h-285v670q0 78 -35.5 117.5t-121.5 39.5q-88 0 -147.5 -51t-59.5 -129v-647h-285v672q0 80 -36 118.5 t-118 38.5q-41 0 -77.5 -14t-65.5 -38.5t-45 -57.5t-16 -70v-649h-287z" />
<glyph unicode="n" horiz-adv-x="1234" d="M127 0v1044h225l27 -165q66 86 148.5 135t199.5 49q199 0 291 -96.5t92 -278.5v-688h-287v655q0 170 -186 170q-41 0 -81 -13t-71.5 -35.5t-51 -55.5t-19.5 -70v-651h-287z" />
<glyph unicode="o" horiz-adv-x="1181" d="M98 362v322q0 90 38 160.5t103.5 119t157 74t197.5 25.5q111 0 201 -25.5t153.5 -75t98 -120t34.5 -158.5v-322q0 -90 -40 -160.5t-106.5 -119.5t-154.5 -74.5t-186 -25.5q-100 0 -190.5 25.5t-158 74.5t-107.5 119.5t-40 160.5zM383 381q0 -41 17.5 -70.5t46 -50 t66.5 -31t81 -10.5q80 0 141.5 41t61.5 121v285q0 78 -61.5 117.5t-141.5 39.5q-41 0 -79 -10t-67.5 -30.5t-47 -50.5t-17.5 -66v-285z" />
<glyph unicode="p" horiz-adv-x="1204" d="M123 -440v1484h237l46 -124q47 72 129.5 106.5t164.5 34.5q197 0 299.5 -100.5t102.5 -284.5v-318q0 -180 -102.5 -279t-299.5 -99q-88 0 -163.5 31.5t-128.5 101.5v-553h-285zM408 360q0 -84 63.5 -121.5t149.5 -37.5q82 0 140 44t58 122v303q0 90 -57 129t-150 39 q-82 0 -143 -38t-61 -118v-322z" />
<glyph unicode="q" horiz-adv-x="1204" d="M100 358v318q0 184 102.5 284.5t301.5 100.5q82 0 164 -34t131 -105l45 122h237v-1484h-282v553q-53 -70 -131 -101.5t-164 -31.5q-199 0 -301.5 99t-102.5 279zM385 362q0 -78 57.5 -119.5t139.5 -41.5q88 0 151.5 37.5t63.5 121.5v322q0 80 -61.5 118t-145.5 38 q-92 0 -148.5 -38t-56.5 -126v-312z" />
<glyph unicode="r" horiz-adv-x="792" d="M129 0v1044h223l43 -163q31 74 99.5 129t160.5 55q72 0 119 -16l-41 -273q-16 4 -50 7t-67 3q-80 0 -140 -50t-60 -136v-600h-287z" />
<glyph unicode="s" horiz-adv-x="1026" d="M70 113l102 188q29 -20 68 -38.5t83 -33t88 -22.5t85 -8q98 0 139 25.5t41 76.5q0 43 -50.5 67.5t-168.5 49.5q-197 41 -277 122t-80 205q0 82 36 141.5t94.5 98.5t133 58.5t154.5 19.5q115 0 219.5 -25.5t190.5 -81.5l-92 -186q-59 31 -128 51.5t-151 20.5 q-78 0 -129 -23.5t-51 -79.5q0 -45 42 -70t159 -48q199 -37 281.5 -114t82.5 -202q0 -78 -32.5 -138.5t-89 -102t-132.5 -63t-164 -21.5q-57 0 -117.5 8t-120 24.5t-115.5 41t-101 59.5z" />
<glyph unicode="t" horiz-adv-x="837" d="M31 860v184h145v244h285v-244h256v-184h-256v-514q0 -61 34 -89t91 -28q74 0 121 11.5t53 15.5l49 -211q-20 -8 -47 -18.5t-65 -18.5t-87 -13t-114 -5q-150 0 -235 69.5t-85 237.5v563h-145z" />
<glyph unicode="u" horiz-adv-x="1228" d="M127 360v684h285v-665q0 -80 59 -120t143 -40t144.5 41t60.5 119v665h285v-684q0 -92 -39 -162.5t-105.5 -119.5t-155.5 -73.5t-190 -24.5q-102 0 -191 24.5t-154.5 73.5t-103.5 119.5t-38 162.5z" />
<glyph unicode="v" horiz-adv-x="1124" d="M37 1044h301l225 -739l225 739h297l-389 -1044h-272z" />
<glyph unicode="w" horiz-adv-x="1552" d="M47 1044h279l137 -753l199 753h227l211 -747l127 747h276l-264 -1044h-266l-195 702l-186 -702h-277z" />
<glyph unicode="x" horiz-adv-x="1103" d="M23 0l362 510l-348 534h321l195 -348l190 348h330l-354 -534l362 -510h-327l-203 319l-203 -319h-325z" />
<glyph unicode="y" horiz-adv-x="1118" d="M45 1044h301l211 -731l213 731h301l-412 -1167q-31 -88 -81 -148.5t-113.5 -98.5t-140 -55t-162.5 -19l-33 206q37 0 78 10.5t76.5 29t63.5 46t42 66.5l25 68z" />
<glyph unicode="z" horiz-adv-x="983" d="M80 0v156l463 669h-453v219h780v-137l-462 -684h493v-223h-821z" />
<glyph unicode="{" horiz-adv-x="634" d="M106 600l109 100l-61 359q-12 80 4 155.5t59 140t110.5 116t157.5 81.5l111 -112q-61 -31 -101 -75t-62.5 -94t-29 -104.5t-0.5 -103.5l43 -367l-90 -90l95 -76l-48 -426q-6 -57 2.5 -112t34 -105.5t67.5 -92.5t101 -73l-116 -122q-104 41 -174 99t-110 128t-53.5 144.5 t-0.5 146.5l57 401z" />
<glyph unicode="|" horiz-adv-x="473" d="M121 -301v1694h229v-1694h-229z" />
<glyph unicode="}" horiz-adv-x="667" d="M90 -279q141 78 194.5 181.5t39.5 201.5l-52 428l99 74l-95 86l48 371q6 45 -4.5 97t-37 102.5t-70.5 95.5t-106 80l99 108q94 -29 166.5 -83t119 -120.5t63.5 -141.5t3 -142l-63 -359l112 -100l-112 -82l63 -401q12 -70 -6.5 -146.5t-64.5 -147.5t-118.5 -128 t-170.5 -88z" />
<glyph unicode="~" horiz-adv-x="837" d="M104 1288q41 66 90.5 104t114.5 38q33 0 68 -13.5t68.5 -29t65.5 -28.5t60 -13q45 2 66.5 23.5t34.5 43.5l104 -82q-10 -16 -24.5 -41.5t-37 -50.5t-52 -43t-68.5 -18t-75 13t-70.5 29.5t-70.5 30t-75 13.5t-63.5 -27t-38.5 -43z" />
<glyph unicode="&#xa1;" horiz-adv-x="542" d="M139 -352l31 944h256l33 -944h-320zM154 838v223h286v-223h-286z" />
<glyph unicode="&#xa2;" horiz-adv-x="1026" d="M115 358v324q0 88 32.5 157.5t91 118t140.5 75t182 30.5l39 272l180 -28l-43 -254q133 -27 230 -99l-103 -196q-49 31 -104 48t-131 17q-98 0 -164 -43t-66 -129v-260q0 -45 18.5 -77.5t50.5 -54t75 -32t90 -10.5q72 0 130 15.5t107 43.5l99 -194q-72 -55 -165 -77.5 t-202 -22.5h-16l-43 -254l-174 26l41 248q-135 35 -215 122t-80 234z" />
<glyph unicode="&#xa3;" horiz-adv-x="1126" d="M70 582v192h247l-14 187q-2 113 45 196.5t133 139t205 84t260 30.5v-240q-180 0 -270 -52t-86 -169l18 -176h346v-192h-327q4 -41 7 -75t5 -50q0 -39 -1 -69t-7 -54.5t-18.5 -47t-34.5 -46.5h473v-240h-977v150q88 6 143 28.5t85 58t40 84t10 103.5l-16 158h-266z" />
<glyph unicode="&#xa5;" horiz-adv-x="1320" d="M84 1393h326l258 -602l264 602h325l-358 -703h293v-125h-356l-25 -49v-92h381v-119h-381v-305h-287v305h-399v119h399v94l-24 47h-377v125h315z" />
<glyph unicode="&#xa6;" horiz-adv-x="364" d="M92 -215v680h180v-680h-180zM92 745v682h180v-682h-180z" />
<glyph unicode="&#xa7;" horiz-adv-x="1175" d="M98 614q0 37 11.5 75t32 73t47 62.5t57.5 41.5q-25 41 -35 92.5t-10 98.5q0 86 32.5 152.5t90 111.5t134.5 67.5t165 22.5q133 0 236.5 -43t170.5 -123l-104 -133q-53 55 -134 89t-165 34q-88 0 -146.5 -47t-58.5 -133q0 -55 31.5 -95t79 -71t104.5 -54.5t106 -43.5 q74 -33 137.5 -71t110.5 -87t74 -112.5t27 -145.5q0 -78 -35 -151.5t-111 -114.5q49 -78 49 -166q0 -96 -32.5 -168t-90 -121t-135.5 -73.5t-168 -24.5q-133 0 -245.5 51t-178.5 145l127 125q16 -29 49 -55.5t72 -47t82 -31.5t80 -11q41 0 81 8t70.5 29.5t50 58.5t19.5 96 q0 55 -40 102.5t-100.5 86.5t-128 70.5t-122.5 56.5q-72 31 -125 63.5t-89 75.5t-54.5 100.5t-18.5 134.5zM315 618q0 -47 19.5 -80.5t52.5 -59t77 -46t91 -39.5q66 -31 128 -61.5t122 -71.5q12 2 26.5 14.5t26.5 27.5t19.5 33t7.5 32q0 45 -20.5 79.5t-55.5 62.5t-83 51.5 t-103 45.5q-66 29 -119 56.5t-113 68.5q-35 -8 -55.5 -43t-20.5 -70z" />
<glyph unicode="&#xa8;" horiz-adv-x="821" d="M111 1206v199h200v-199h-200zM510 1206v199h197v-199h-197z" />
<glyph unicode="&#xa9;" horiz-adv-x="1638" d="M92 715q0 154 56.5 286t154.5 230t231.5 153.5t286.5 55.5q154 0 286 -56.5t229.5 -153.5t153.5 -229.5t56 -285.5q0 -152 -56 -283t-153.5 -227t-229.5 -151.5t-286 -55.5t-287 54t-231 150.5t-154.5 227.5t-56.5 285zM229 715q0 -125 46.5 -232.5t126 -186.5t188 -124 t233.5 -45q123 0 230.5 45t187.5 124t125 186.5t45 232.5t-45 232.5t-125 187t-187.5 125t-232.5 45.5t-233.5 -45.5t-188.5 -125t-125 -187t-45 -232.5zM453 651v97q0 72 30.5 132t82.5 104t121 68.5t144 24.5q53 0 95.5 -8t78 -24.5t68.5 -44t68 -66.5l-101 -119 q-35 43 -93.5 68.5t-115.5 25.5q-76 0 -131 -45t-55 -116v-97q0 -37 16.5 -66.5t44 -51t63.5 -33t75 -11.5q57 0 116.5 23t102.5 63l90 -122q-29 -31 -66.5 -54.5t-80.5 -41t-88.5 -25.5t-83.5 -8q-78 0 -148 23.5t-122 66.5t-81.5 103.5t-29.5 133.5z" />
<glyph unicode="&#xaa;" horiz-adv-x="731" d="M92 926v26q0 98 97.5 142.5t277.5 48.5v49q0 43 -25.5 62.5t-87.5 19.5q-53 0 -105 -14.5t-81 -30.5l-43 121q45 25 113.5 42t146.5 17q119 0 182.5 -54.5t63.5 -164.5v-422h-131l-21 78q-31 -45 -82 -65.5t-114 -20.5q-86 0 -138.5 43t-52.5 123zM256 948 q0 -29 25.5 -40t64.5 -11q45 0 80 22.5t35 57.5v61q-90 -2 -147.5 -18t-57.5 -53v-19z" />
<glyph unicode="&#xab;" horiz-adv-x="972" d="M92 356l326 371l80 -82l-201 -285l199 -274l-78 -86zM475 356l326 371l78 -82l-199 -285l199 -274l-78 -86z" />
<glyph unicode="&#xac;" horiz-adv-x="942" d="M92 551v164h756v-350h-164v186h-592z" />
<glyph unicode="&#xad;" horiz-adv-x="710" d="M90 485v226h528v-226h-528z" />
<glyph unicode="&#xae;" horiz-adv-x="1638" d="M92 715q0 156 54.5 289t151.5 230t230.5 151.5t292.5 54.5q156 0 289 -54.5t230.5 -151.5t151.5 -230.5t54 -288.5q0 -158 -54 -289t-151.5 -226.5t-230.5 -148.5t-289 -53q-160 0 -293 53t-230 148.5t-151.5 226.5t-54.5 289zM229 715q0 -127 44 -235.5t124 -186.5 t188.5 -122t237.5 -44q127 0 234.5 44t186.5 122t123 186.5t44 235.5t-44 234.5t-123 186t-187.5 124t-235.5 45.5q-129 0 -237.5 -45.5t-187.5 -124t-123 -186t-44 -234.5zM537 332v764h346q104 0 171.5 -63.5t67.5 -164.5v-37q0 -76 -42 -124t-111 -70l194 -305h-180 l-184 286h-105v-286h-157zM694 735h168q41 0 74 21.5t33 62.5v43q0 41 -33 71t-74 30h-168v-228z" />
<glyph unicode="&#xaf;" horiz-adv-x="927" d="M111 1305v114h704v-114h-704z" />
<glyph unicode="&#xb0;" horiz-adv-x="788" d="M92 1106v57q0 57 23.5 103.5t64.5 78t95.5 49t115.5 19.5q59 -2 114.5 -19.5t97.5 -49t66.5 -77.5t24.5 -104v-57q0 -57 -24.5 -102.5t-66.5 -77t-96 -48t-116 -16.5q-61 0 -115.5 16.5t-95.5 48t-64.5 77t-23.5 102.5zM266 1092q0 -43 39 -65.5t86 -22.5t89 21.5 t42 66.5v90q0 45 -41 68.5t-90 23.5q-47 0 -86 -24.5t-39 -67.5v-90z" />
<glyph unicode="&#xb1;" horiz-adv-x="1146" d="M92 0v162h961v-162h-961zM121 623v176h340v321h203v-321h356v-176h-356v-342h-203v342h-340z" />
<glyph unicode="&#xb2;" horiz-adv-x="878" d="M147 1309q43 39 127 70.5t201 31.5q121 0 199 -49t78 -158q0 -78 -47.5 -126t-116.5 -81q-35 -18 -69 -31.5t-62.5 -28.5t-48 -31.5t-23.5 -41.5h369v-162h-602v97q0 111 62 170t173 106q25 8 52.5 19.5t51 25t39 28.5t15.5 34q0 66 -113 65q-78 0 -127 -20.5t-96 -48.5z " />
<glyph unicode="&#xb3;" horiz-adv-x="757" d="M92 791l107 96q25 -35 80 -59.5t118 -24.5q53 0 93 14t40 47v21q0 23 -12 39t-32.5 27.5t-44 16.5t-48.5 5h-137v131h131q20 0 44 3t43.5 12t32.5 23.5t13 37.5v18q0 18 -11 29.5t-29.5 17.5t-40 9t-42.5 3q-66 0 -118 -17t-76 -50l-84 108q41 53 128 84t179 31 q55 0 109.5 -8t97.5 -30.5t68.5 -61.5t25.5 -101v-18q0 -31 -13.5 -56.5t-32.5 -46t-44 -34t-49 -19.5q25 -8 50.5 -22.5t47 -33.5t34.5 -44t13 -53v-31q0 -61 -26.5 -101t-69.5 -62.5t-98.5 -32t-110.5 -9.5q-53 0 -104.5 9.5t-96.5 28t-79.5 44t-55.5 60.5z" />
<glyph unicode="&#xb4;" horiz-adv-x="575" d="M94 1167l225 320l177 -101l-269 -284z" />
<glyph unicode="&#xb6;" horiz-adv-x="1124" d="M92 1040v50q0 66 23.5 121t64.5 95t99.5 62.5t130.5 24.5h559v-1393h-146v1270h-168v-1270h-155v756h-90q-70 0 -128.5 19.5t-100.5 55t-65.5 89t-23.5 120.5z" />
<glyph unicode="&#xb7;" horiz-adv-x="430" d="M121 408v251h280v-251h-280z" />
<glyph unicode="&#xb8;" horiz-adv-x="550" d="M115 -178l37 178h155l-24 -102q14 -6 40.5 -17.5t52 -35t45 -58.5t19.5 -86q0 -86 -71.5 -144.5t-188.5 -95.5l-65 113q10 6 32.5 16.5t46 25.5t42 34.5t18.5 44.5q0 57 -40 84.5t-99 42.5z" />
<glyph unicode="&#xb9;" horiz-adv-x="505" d="M61 1208v185h353v-695h-213v510h-140z" />
<glyph unicode="&#xba;" horiz-adv-x="786" d="M92 1022v141q0 57 24.5 102.5t65.5 77t95.5 49t113.5 17.5q57 0 112.5 -17.5t96.5 -49t66.5 -76.5t25.5 -103v-141q0 -57 -25.5 -103.5t-66.5 -78t-96 -48t-113 -16.5q-59 0 -113.5 17.5t-95.5 49t-65.5 77t-24.5 102.5zM272 1038q2 -117 123 -116q41 0 80 20.5t39 61.5 v172q0 41 -39 62.5t-80 21.5q-47 0 -85 -23t-38 -63v-136z" />
<glyph unicode="&#xbb;" horiz-adv-x="962" d="M72 645l80 82l325 -371l-325 -356l-78 86l198 274zM455 645l77 82l328 -371l-328 -356l-75 86l198 274z" />
<glyph unicode="&#xbc;" horiz-adv-x="1380" d="M59 0l883 1393h234l-873 -1393h-244zM90 1208v185h352v-695h-213v510h-139zM616 143v113l334 477h269v-440h122v-150h-122v-141h-201v141h-402zM827 293h191v256h-19z" />
<glyph unicode="&#xbd;" horiz-adv-x="1435" d="M59 0l883 1393h234l-873 -1393h-244zM90 1208v185h352v-695h-213v510h-139zM735 592q43 39 127 70.5t201 31.5q59 0 110.5 -12t88 -38t57 -64.5t20.5 -94.5q0 -78 -47 -126t-116 -80q-35 -16 -69 -31t-62.5 -29t-48 -30.5t-23.5 -41.5h368v-161h-602v96q0 111 62.5 170 t173.5 106q25 8 52.5 19.5t51 25t39 28.5t15.5 34q0 63 -113 63q-78 0 -127 -19.5t-96 -47.5z" />
<glyph unicode="&#xbe;" horiz-adv-x="1572" d="M61 791l105 96q25 -35 80 -59.5t121 -24.5q53 0 92 14t39 47v21q0 23 -12.5 39t-32 27.5t-44 16.5t-47.5 5h-137v131h129q20 0 44 3t43.5 12t32.5 23.5t13 37.5v18q0 35 -39.5 47t-80.5 12q-66 0 -118 -17t-79 -50l-82 108q18 27 52 47.5t75 36t87 23.5t93 8 q55 0 109.5 -8t96.5 -30.5t67.5 -61.5t25.5 -101v-18q0 -31 -12 -56.5t-32.5 -46t-44 -34t-48.5 -19.5q25 -8 49.5 -22.5t46 -33.5t34.5 -44t13 -53v-31q0 -61 -26.5 -101t-69.5 -62.5t-98 -32t-111 -9.5q-109 0 -201 37t-133 105zM281 0l882 1393h234l-873 -1393h-243z M836 141v113l333 477h269v-440h123v-150h-123v-141h-201v141h-401zM1047 291h190v256h-18z" />
<glyph unicode="&#xbf;" horiz-adv-x="882" d="M43 14q0 47 14.5 84t36 68t49 57.5t56.5 52.5q35 29 60.5 54.5t41.5 53.5t24.5 59.5t8.5 72.5v92h274v-125q0 -76 -36.5 -134t-104.5 -116q-43 -43 -87 -91t-44 -97v-55q0 -63 44 -85t103 -22q68 0 139.5 31t120.5 66l105 -191q-78 -55 -184.5 -101t-221.5 -46 q-180 0 -289.5 74.5t-109.5 238.5v59zM297 809v254h330v-254h-330z" />
<glyph unicode="&#xc0;" horiz-adv-x="1329" d="M43 0l467 1405h317l457 -1405h-309l-92 319h-434l-95 -319h-311zM397 1796l181 100l217 -313l-131 -80zM502 543h327l-161 542z" />
<glyph unicode="&#xc1;" horiz-adv-x="1329" d="M43 0l467 1405h317l457 -1405h-309l-92 319h-434l-95 -319h-311zM502 543h327l-161 542zM535 1569l225 319l176 -100l-268 -285z" />
<glyph unicode="&#xc2;" horiz-adv-x="1329" d="M43 0l467 1405h317l457 -1405h-309l-92 319h-434l-95 -319h-311zM387 1602l277 186l276 -193l-82 -100l-194 115l-195 -113zM502 543h327l-161 542z" />
<glyph unicode="&#xc3;" horiz-adv-x="1329" d="M43 0l467 1405h317l457 -1405h-309l-92 319h-434l-95 -319h-311zM330 1604q41 66 90 103.5t112 37.5q35 0 70 -13.5t69 -28.5t65.5 -28.5t60.5 -13.5q45 2 66.5 23.5t33.5 44.5l102 -82q-8 -16 -22 -42t-36.5 -50.5t-52.5 -43t-69 -18.5t-74.5 13.5t-70.5 29.5t-71 29.5 t-75 13.5t-63.5 -26.5t-38.5 -43.5zM502 543h327l-161 542z" />
<glyph unicode="&#xc4;" horiz-adv-x="1329" d="M43 0l467 1405h317l457 -1405h-309l-92 319h-434l-95 -319h-311zM367 1522v198h200v-198h-200zM502 543h327l-161 542zM766 1522v198h197v-198h-197z" />
<glyph unicode="&#xc5;" horiz-adv-x="1329" d="M43 0l467 1405h317l457 -1405h-309l-92 319h-434l-95 -319h-311zM502 543h327l-161 542zM504 1657q0 68 46 113t112 45t114.5 -45.5t48.5 -112.5q0 -66 -48.5 -113t-114.5 -47q-33 0 -62 12.5t-50.5 34t-33.5 51t-12 62.5zM586 1655q0 -35 22.5 -56.5t53.5 -21.5 q35 0 58 21.5t23 56.5t-23.5 58.5t-57.5 23.5q-31 0 -53.5 -23.5t-22.5 -58.5z" />
<glyph unicode="&#xc6;" horiz-adv-x="1857" d="M10 0l862 1393h881v-242h-489v-326h403v-223h-403v-362h536v-240h-819v315h-449l-188 -315h-334zM641 539h340v585z" />
<glyph unicode="&#xc7;" horiz-adv-x="1187" d="M131 438v514q0 106 43 192.5t115.5 146t171 91t209.5 31.5q154 0 258 -35t194 -104l-114 -201q-61 45 -137.5 70.5t-180.5 25.5q-117 0 -194.5 -60t-77.5 -173v-483q0 -121 77.5 -177.5t200.5 -56.5q193 0 312 84l106 -197q-80 -61 -171 -90.5t-222 -33.5l-19 -84 q14 -6 41 -17.5t52.5 -35t45 -58.5t19.5 -86q0 -86 -71.5 -144.5t-188.5 -95.5l-65 113q10 6 32.5 16.5t46 25.5t42 34.5t18.5 44.5q0 57 -40 84.5t-99 42.5l32 164q-96 12 -176 46t-138 90t-90 135t-32 181z" />
<glyph unicode="&#xc8;" d="M147 0v1393h873v-242h-588v-328h469v-231h-469v-352h633v-240h-918zM336 1784l180 100l217 -313l-131 -80z" />
<glyph unicode="&#xc9;" horiz-adv-x="1153" d="M147 0v1393h873v-242h-588v-328h469v-231h-469v-352h633v-240h-918zM475 1554l225 320l174 -100l-266 -285z" />
<glyph unicode="&#xca;" d="M147 0v1393h873v-242h-588v-328h469v-231h-469v-352h633v-240h-918zM324 1589l276 187l277 -193l-82 -100l-195 114l-194 -112z" />
<glyph unicode="&#xcb;" d="M147 0v1393h873v-242h-588v-328h469v-231h-469v-352h633v-240h-918zM305 1509v199h201v-199h-201zM705 1509v199h196v-199h-196z" />
<glyph unicode="&#xcc;" horiz-adv-x="634" d="M51 1784l180 100l218 -313l-132 -80zM174 0v1393h283v-1393h-283z" />
<glyph unicode="&#xcd;" horiz-adv-x="634" d="M174 0v1393h283v-1393h-283zM186 1554l226 320l176 -100l-269 -285z" />
<glyph unicode="&#xce;" horiz-adv-x="634" d="M41 1589l276 187l277 -193l-82 -100l-195 114l-194 -112zM174 0v1393h283v-1393h-283z" />
<glyph unicode="&#xcf;" horiz-adv-x="634" d="M18 1509v199h201v-199h-201zM174 0v1393h283v-1393h-283zM418 1509v199h196v-199h-196z" />
<glyph unicode="&#xd0;" horiz-adv-x="1343" d="M12 586v215h138v592h512q121 0 222 -30t175 -90.5t114.5 -151.5t40.5 -216v-420q0 -125 -45 -216t-122.5 -151.5t-182 -89t-223.5 -28.5h-491v586h-138zM430 240h211q59 0 111.5 14t92.5 46t63.5 83t23.5 123v377q0 70 -21.5 120t-58.5 82.5t-86 49t-104 16.5h-232v-350 h281v-215h-281v-346z" />
<glyph unicode="&#xd1;" horiz-adv-x="1435" d="M145 0v1393h271l606 -965v965h262v-1393h-270l-606 961v-961h-263zM403 1589q41 68 90.5 105t114.5 37q35 0 70 -13.5t68.5 -29t65.5 -27.5t58 -12q45 0 66.5 22.5t34.5 44.5l104 -82q-10 -16 -24.5 -41.5t-37 -50t-52 -43t-68.5 -18.5t-74 13t-69.5 29.5t-71.5 30 t-76 13.5t-63.5 -27t-38.5 -45z" />
<glyph unicode="&#xd2;" horiz-adv-x="1388" d="M123 436v522q0 106 42 191.5t115.5 144t175 89t220.5 30.5h35q117 0 218 -31.5t176 -90t118 -142.5t43 -191v-522q0 -111 -41 -196.5t-115 -143t-175 -87t-224 -29.5h-33q-123 0 -225.5 28.5t-175 86t-113.5 143.5t-41 198zM410 455q0 -123 72.5 -179.5t195.5 -56.5h33 q123 0 196.5 57.5t73.5 178.5v481q0 115 -77 175t-193 60h-35q-117 0 -191.5 -60t-74.5 -173v-483zM426 1804l180 101l217 -314l-131 -80z" />
<glyph unicode="&#xd3;" horiz-adv-x="1388" d="M123 436v522q0 106 42 191.5t115.5 144t175 89t220.5 30.5h35q117 0 218 -31.5t176 -90t118 -142.5t43 -191v-522q0 -111 -41 -196.5t-115 -143t-175 -87t-224 -29.5h-33q-123 0 -225.5 28.5t-175 86t-113.5 143.5t-41 198zM410 455q0 -123 72.5 -179.5t195.5 -56.5h33 q123 0 196.5 57.5t73.5 178.5v481q0 115 -77 175t-193 60h-35q-117 0 -191.5 -60t-74.5 -173v-483zM563 1575l225 319l177 -100l-269 -285z" />
<glyph unicode="&#xd4;" horiz-adv-x="1388" d="M123 436v522q0 106 42 191.5t115.5 144t175 89t220.5 30.5h35q117 0 218 -31.5t176 -90t118 -142.5t43 -191v-522q0 -111 -41 -196.5t-115 -143t-175 -87t-224 -29.5h-33q-123 0 -225.5 28.5t-175 86t-113.5 143.5t-41 198zM410 455q0 -123 72.5 -179.5t195.5 -56.5h33 q123 0 196.5 57.5t73.5 178.5v481q0 115 -77 175t-193 60h-35q-117 0 -191.5 -60t-74.5 -173v-483zM416 1610l276 186l277 -192l-82 -101l-195 115l-194 -113z" />
<glyph unicode="&#xd5;" horiz-adv-x="1388" d="M123 436v522q0 106 42 191.5t115.5 144t175 89t220.5 30.5h35q117 0 218 -31.5t176 -90t118 -142.5t43 -191v-522q0 -111 -41 -196.5t-115 -143t-175 -87t-224 -29.5h-33q-123 0 -225.5 28.5t-175 86t-113.5 143.5t-41 198zM356 1612q41 66 90.5 103.5t114.5 37.5 q33 0 68 -13.5t68.5 -28.5t65.5 -28.5t60 -13.5q45 2 66.5 23.5t34.5 44.5l104 -82q-10 -16 -24.5 -42t-37 -50.5t-52 -43t-68.5 -18.5t-75 13.5t-70.5 30t-70.5 29.5t-75 13t-63.5 -26.5t-38.5 -42.5zM410 455q0 -123 72.5 -179.5t195.5 -56.5h33q123 0 196.5 57.5 t73.5 178.5v481q0 115 -77 175t-193 60h-35q-117 0 -191.5 -60t-74.5 -173v-483z" />
<glyph unicode="&#xd6;" horiz-adv-x="1388" d="M123 436v522q0 106 42 191.5t115.5 144t175 89t220.5 30.5h35q117 0 218 -31.5t176 -90t118 -142.5t43 -191v-522q0 -111 -41 -196.5t-115 -143t-175 -87t-224 -29.5h-33q-123 0 -225.5 28.5t-175 86t-113.5 143.5t-41 198zM395 1528v198h201v-198h-201zM410 455 q0 -123 72.5 -179.5t195.5 -56.5h33q123 0 196.5 57.5t73.5 178.5v481q0 115 -77 175t-193 60h-35q-117 0 -191.5 -60t-74.5 -173v-483zM793 1528v198h198v-198h-198z" />
<glyph unicode="&#xd7;" horiz-adv-x="1230" d="M88 0l410 510l-394 494h226l282 -355l287 355h223l-393 -494l410 -510h-238l-289 367l-288 -367h-236z" />
<glyph unicode="&#xd8;" horiz-adv-x="1388" d="M123 436v522q0 106 42 191.5t115.5 144t175 89t220.5 30.5h35q117 0 225 -35l88 183h160l-117 -244q92 -59 145.5 -149.5t53.5 -209.5v-522q0 -111 -41 -196.5t-115 -143t-175 -87t-224 -29.5h-33q-66 0 -124 8t-112 24l-75 -159h-168l106 223q-86 55 -134 146t-48 214z M410 455q0 -63 28 -109l387 807q-53 18 -114 18h-35q-117 0 -191.5 -60t-74.5 -173v-483zM551 238q29 -10 60.5 -14.5t66.5 -4.5h33q123 0 196.5 57.5t73.5 178.5v481q0 74 -39 123z" />
<glyph unicode="&#xd9;" horiz-adv-x="1433" d="M147 449v944h285v-930q0 -63 23.5 -109.5t62.5 -76t90 -44t109 -14.5q55 0 106 15.5t90 45t62.5 75.5t23.5 108v930h285v-944q0 -117 -45 -205t-122 -146.5t-179 -88t-219 -29.5q-119 0 -222.5 28.5t-181 87t-123 146.5t-45.5 207zM451 1784l180 100l217 -313l-131 -80z " />
<glyph unicode="&#xda;" horiz-adv-x="1433" d="M147 449v944h285v-930q0 -63 23.5 -109.5t62.5 -76t90 -44t109 -14.5q55 0 106 15.5t90 45t62.5 75.5t23.5 108v930h285v-944q0 -117 -45 -205t-122 -146.5t-179 -88t-219 -29.5q-119 0 -222.5 28.5t-181 87t-123 146.5t-45.5 207zM588 1554l225 320l176 -100l-268 -285z " />
<glyph unicode="&#xdb;" horiz-adv-x="1433" d="M147 449v944h285v-930q0 -63 23.5 -109.5t62.5 -76t90 -44t109 -14.5q55 0 106 15.5t90 45t62.5 75.5t23.5 108v930h285v-944q0 -117 -45 -205t-122 -146.5t-179 -88t-219 -29.5q-119 0 -222.5 28.5t-181 87t-123 146.5t-45.5 207zM438 1589l277 187l276 -193l-82 -100 l-194 114l-195 -112z" />
<glyph unicode="&#xdc;" horiz-adv-x="1433" d="M147 449v944h285v-930q0 -63 23.5 -109.5t62.5 -76t90 -44t109 -14.5q55 0 106 15.5t90 45t62.5 75.5t23.5 108v930h285v-944q0 -117 -45 -205t-122 -146.5t-179 -88t-219 -29.5q-119 0 -222.5 28.5t-181 87t-123 146.5t-45.5 207zM418 1509v199h200v-199h-200zM817 1509 v199h197v-199h-197z" />
<glyph unicode="&#xdd;" horiz-adv-x="1294" d="M59 1393h324l260 -602l264 602h328l-449 -877v-516h-286v518zM518 1554l225 320l177 -100l-269 -285z" />
<glyph unicode="&#xde;" horiz-adv-x="1210" d="M147 0v1393h287v-256h254q203 0 318.5 -106.5t115.5 -291.5v-37q0 -186 -114.5 -280t-319.5 -94h-254v-328h-287zM434 567h236q76 0 122 37t46 98v37q0 66 -46.5 115t-123.5 49h-234v-336z" />
<glyph unicode="&#xe0;" horiz-adv-x="1075" d="M59 264v53q0 96 61.5 155.5t155 92.5t206 45.5t216.5 12.5v75q0 72 -41 104t-153 32q-35 0 -78 -6.5t-87 -15.5t-82 -20.5t-62 -23.5l-70 199q37 23 89 41t108.5 30.5t115 19.5t109.5 7q223 0 326.5 -91t103.5 -259v-715h-219l-35 137q-41 -68 -127 -109.5t-195 -41.5 q-170 0 -256 77.5t-86 200.5zM281 1491l180 100l217 -313l-131 -80zM344 301q0 -100 152 -100q84 0 141 36.5t57 84.5v139q-55 -2 -117.5 -8.5t-113.5 -19.5t-85 -37.5t-34 -65.5v-29z" />
<glyph unicode="&#xe1;" horiz-adv-x="1075" d="M59 264v53q0 96 61.5 155.5t155 92.5t206 45.5t216.5 12.5v75q0 72 -41 104t-153 32q-35 0 -78 -6.5t-87 -15.5t-82 -20.5t-62 -23.5l-70 199q37 23 89 41t108.5 30.5t115 19.5t109.5 7q223 0 326.5 -91t103.5 -259v-715h-219l-35 137q-41 -68 -127 -109.5t-195 -41.5 q-170 0 -256 77.5t-86 200.5zM344 301q0 -100 152 -100q84 0 141 36.5t57 84.5v139q-55 -2 -117.5 -8.5t-113.5 -19.5t-85 -37.5t-34 -65.5v-29zM418 1264l225 319l176 -100l-268 -285z" />
<glyph unicode="&#xe2;" horiz-adv-x="1075" d="M59 264v53q0 96 61.5 155.5t155 92.5t206 45.5t216.5 12.5v75q0 72 -41 104t-153 32q-35 0 -78 -6.5t-87 -15.5t-82 -20.5t-62 -23.5l-70 199q37 23 89 41t108.5 30.5t115 19.5t109.5 7q223 0 326.5 -91t103.5 -259v-715h-219l-35 137q-41 -68 -127 -109.5t-195 -41.5 q-170 0 -256 77.5t-86 200.5zM268 1296l277 187l276 -193l-82 -100l-194 115l-195 -113zM344 301q0 -100 152 -100q84 0 141 36.5t57 84.5v139q-55 -2 -117.5 -8.5t-113.5 -19.5t-85 -37.5t-34 -65.5v-29z" />
<glyph unicode="&#xe3;" horiz-adv-x="1075" d="M59 264v53q0 96 61.5 155.5t155 92.5t206 45.5t216.5 12.5v75q0 72 -41 104t-153 32q-35 0 -78 -6.5t-87 -15.5t-82 -20.5t-62 -23.5l-70 199q37 23 89 41t108.5 30.5t115 19.5t109.5 7q223 0 326.5 -91t103.5 -259v-715h-219l-35 137q-41 -68 -127 -109.5t-195 -41.5 q-170 0 -256 77.5t-86 200.5zM211 1298q41 66 90 104t115 38q33 0 67.5 -13.5t68.5 -29t65.5 -28.5t60.5 -13q45 2 66.5 23.5t33.5 43.5l105 -82q-10 -16 -24.5 -41.5t-37 -50t-52.5 -43t-69 -18.5t-74.5 13t-70.5 29.5t-70.5 30t-74.5 13.5t-63.5 -26.5t-39.5 -43.5z M344 301q0 -100 152 -100q84 0 141 36.5t57 84.5v139q-55 -2 -117.5 -8.5t-113.5 -19.5t-85 -37.5t-34 -65.5v-29z" />
<glyph unicode="&#xe4;" horiz-adv-x="1075" d="M59 264v53q0 96 61.5 155.5t155 92.5t206 45.5t216.5 12.5v75q0 72 -41 104t-153 32q-35 0 -78 -6.5t-87 -15.5t-82 -20.5t-62 -23.5l-70 199q37 23 89 41t108.5 30.5t115 19.5t109.5 7q223 0 326.5 -91t103.5 -259v-715h-219l-35 137q-41 -68 -127 -109.5t-195 -41.5 q-170 0 -256 77.5t-86 200.5zM248 1219v198h201v-198h-201zM344 301q0 -100 152 -100q84 0 141 36.5t57 84.5v139q-55 -2 -117.5 -8.5t-113.5 -19.5t-85 -37.5t-34 -65.5v-29zM647 1219v198h197v-198h-197z" />
<glyph unicode="&#xe5;" horiz-adv-x="1075" d="M59 264v53q0 96 61.5 155.5t155 92.5t206 45.5t216.5 12.5v75q0 72 -41 104t-153 32q-35 0 -78 -6.5t-87 -15.5t-82 -20.5t-62 -23.5l-70 199q37 23 89 41t108.5 30.5t115 19.5t109.5 7q223 0 326.5 -91t103.5 -259v-715h-219l-35 137q-41 -68 -127 -109.5t-195 -41.5 q-170 0 -256 77.5t-86 200.5zM344 301q0 -100 152 -100q84 0 141 36.5t57 84.5v139q-55 -2 -117.5 -8.5t-113.5 -19.5t-85 -37.5t-34 -65.5v-29zM385 1352q0 68 46 112.5t112 44.5t115 -45t49 -112q0 -66 -49 -113t-115 -47q-33 0 -61.5 12.5t-50 34t-34 51t-12.5 62.5z M467 1350q0 -35 22.5 -56.5t53.5 -21.5q35 0 58.5 21.5t23.5 56.5t-23.5 58.5t-58.5 23.5q-31 0 -53.5 -23.5t-22.5 -58.5z" />
<glyph unicode="&#xe6;" horiz-adv-x="1734" d="M59 307v219l639 74v105q0 76 -50 110.5t-142 34.5q-37 0 -81 -7t-88 -16.5t-83 -20.5t-64 -20l-61 185q78 45 187.5 77.5t213.5 32.5q123 0 202 -32.5t120 -85.5q57 57 150.5 87.5t211.5 30.5q94 0 175 -21.5t141.5 -65.5t95.5 -111.5t35 -157.5v-205l-651 -59v-90 q0 -70 65.5 -110t184.5 -40q45 0 93 8.5t91 21.5t79 28.5t58 31.5l96 -180q-92 -74 -201.5 -109.5t-230.5 -35.5q-158 0 -272.5 43t-173.5 135q-53 -96 -150.5 -137t-208.5 -41q-176 0 -278.5 86t-102.5 235zM328 315q0 -55 50 -84.5t130 -29.5q35 0 68.5 7t61.5 22.5t45 39 t17 56.5v110l-372 -41v-80zM1010 621l391 34v80q0 66 -52.5 96.5t-138.5 30.5q-80 0 -140 -38t-60 -99v-104z" />
<glyph unicode="&#xe7;" horiz-adv-x="1028" d="M115 358v324q0 92 35.5 164t99 121t153 73.5t197.5 24.5q117 0 207 -28.5t160 -82.5l-103 -196q-49 31 -104 48t-131 17q-98 0 -164 -43t-66 -129v-260q0 -45 18.5 -77.5t50.5 -54t75 -32t90 -10.5q72 0 130 15.5t107 43.5l99 -194q-68 -53 -153 -74.5t-183 -25.5 l-21 -84q14 -6 41 -17.5t52.5 -35t45 -58.5t19.5 -86q0 -86 -71.5 -144.5t-188.5 -95.5l-66 113q10 6 33 16.5t46.5 25.5t42 34.5t18.5 44.5q0 57 -40 84.5t-100 42.5l35 168q-166 23 -265 114t-99 254z" />
<glyph unicode="&#xe8;" d="M98 360v347q0 82 41 147.5t109.5 111.5t157 71.5t182.5 25.5q96 0 181 -24.5t147.5 -70.5t99.5 -113t37 -148v-261h-670v-73q0 -41 19.5 -71t53 -48t79 -27.5t98.5 -9.5q100 0 182 19.5t135 48.5l88 -189q-94 -59 -197.5 -83.5t-228.5 -24.5q-100 0 -192 23.5t-164 69.5 t-115 115.5t-43 163.5zM307 1493l180 100l218 -313l-132 -80zM385 633h403v65q0 33 -17 59.5t-46 45t-64.5 28t-72.5 9.5t-72 -9.5t-63.5 -28t-47 -45t-20.5 -59.5v-65z" />
<glyph unicode="&#xe9;" d="M98 360v347q0 82 41 147.5t109.5 111.5t157 71.5t182.5 25.5q96 0 181 -24.5t147.5 -70.5t99.5 -113t37 -148v-261h-670v-73q0 -41 19.5 -71t53 -48t79 -27.5t98.5 -9.5q100 0 182 19.5t135 48.5l88 -189q-94 -59 -197.5 -83.5t-228.5 -24.5q-100 0 -192 23.5t-164 69.5 t-115 115.5t-43 163.5zM385 633h403v65q0 33 -17 59.5t-46 45t-64.5 28t-72.5 9.5t-72 -9.5t-63.5 -28t-47 -45t-20.5 -59.5v-65zM444 1266l226 319l176 -100l-268 -285z" />
<glyph unicode="&#xea;" d="M98 360v347q0 82 41 147.5t109.5 111.5t157 71.5t182.5 25.5q96 0 181 -24.5t147.5 -70.5t99.5 -113t37 -148v-261h-670v-73q0 -41 19.5 -71t53 -48t79 -27.5t98.5 -9.5q100 0 182 19.5t135 48.5l88 -189q-94 -59 -197.5 -83.5t-228.5 -24.5q-100 0 -192 23.5t-164 69.5 t-115 115.5t-43 163.5zM295 1298l276 187l277 -193l-82 -100l-195 115l-194 -113zM385 633h403v65q0 33 -17 59.5t-46 45t-64.5 28t-72.5 9.5t-72 -9.5t-63.5 -28t-47 -45t-20.5 -59.5v-65z" />
<glyph unicode="&#xeb;" d="M98 360v347q0 82 41 147.5t109.5 111.5t157 71.5t182.5 25.5q96 0 181 -24.5t147.5 -70.5t99.5 -113t37 -148v-261h-670v-73q0 -41 19.5 -71t53 -48t79 -27.5t98.5 -9.5q100 0 182 19.5t135 48.5l88 -189q-94 -59 -197.5 -83.5t-228.5 -24.5q-100 0 -192 23.5t-164 69.5 t-115 115.5t-43 163.5zM272 1221v198h201v-198h-201zM385 633h403v65q0 33 -17 59.5t-46 45t-64.5 28t-72.5 9.5t-72 -9.5t-63.5 -28t-47 -45t-20.5 -59.5v-65zM672 1221v198h196v-198h-196z" />
<glyph unicode="&#xec;" horiz-adv-x="587" d="M31 1475l180 100l217 -313l-131 -80zM150 0v1059h286v-1059h-286z" />
<glyph unicode="&#xed;" horiz-adv-x="587" d="M150 0v1059h286v-1059h-286zM164 1247l225 320l176 -101l-268 -284z" />
<glyph unicode="&#xee;" horiz-adv-x="587" d="M18 1278l277 186l276 -192l-82 -101l-194 115l-195 -112zM150 0v1059h286v-1059h-286z" />
<glyph unicode="&#xef;" horiz-adv-x="587" d="M-4 1202v199h201v-199h-201zM150 0v1059h286v-1059h-286zM395 1202v199h197v-199h-197z" />
<glyph unicode="&#xf0;" horiz-adv-x="1181" d="M100 356v226q0 80 28 147.5t80 118.5t127 79.5t169 28.5q70 0 153.5 -21.5t135.5 -68.5q-31 88 -93.5 168t-142.5 140l-287 -130l-65 123l215 99q-51 31 -92 50t-99 36l121 188q102 -29 190.5 -71t170.5 -105l266 119l67 -123l-215 -98q115 -123 182.5 -270.5 t67.5 -329.5v-306q0 -86 -37.5 -155.5t-105.5 -118.5t-158 -75.5t-194 -26.5q-98 0 -186.5 26.5t-154 75.5t-104.5 118.5t-39 155.5zM385 387q0 -78 60.5 -123t140.5 -45q39 0 76.5 12.5t66.5 34t47.5 52t18.5 67.5v160q0 80 -63.5 126t-149.5 46q-80 0 -138.5 -46 t-58.5 -122v-162z" />
<glyph unicode="&#xf1;" horiz-adv-x="1234" d="M127 0v1044h225l27 -165q66 86 148.5 135t199.5 49q199 0 291 -96.5t92 -278.5v-688h-287v655q0 170 -186 170q-41 0 -81 -13t-71.5 -35.5t-51 -55.5t-19.5 -70v-651h-287zM279 1300q41 66 90 104t112 38q35 0 70 -13.5t68.5 -29t65.5 -28.5t60 -13q45 2 67 23.5t34 43.5 l102 -82q-8 -16 -22.5 -41.5t-37 -50t-52 -43t-68.5 -18.5t-75 13.5t-70.5 29.5t-70.5 29.5t-75 13.5t-63.5 -26.5t-38.5 -43.5z" />
<glyph unicode="&#xf2;" horiz-adv-x="1181" d="M98 362v322q0 90 38 160.5t103.5 119t157 74t197.5 25.5q111 0 201 -25.5t153.5 -75t98 -120t34.5 -158.5v-322q0 -90 -40 -160.5t-106.5 -119.5t-154.5 -74.5t-186 -25.5q-100 0 -190.5 25.5t-158 74.5t-107.5 119.5t-40 160.5zM319 1493l181 100l217 -313l-131 -80z M383 381q0 -41 17.5 -70.5t46 -50t66.5 -31t81 -10.5q80 0 141.5 41t61.5 121v285q0 78 -61.5 117.5t-141.5 39.5q-41 0 -79 -10t-67.5 -30.5t-47 -50.5t-17.5 -66v-285z" />
<glyph unicode="&#xf3;" horiz-adv-x="1181" d="M98 362v322q0 90 38 160.5t103.5 119t157 74t197.5 25.5q111 0 201 -25.5t153.5 -75t98 -120t34.5 -158.5v-322q0 -90 -40 -160.5t-106.5 -119.5t-154.5 -74.5t-186 -25.5q-100 0 -190.5 25.5t-158 74.5t-107.5 119.5t-40 160.5zM383 381q0 -41 17.5 -70.5t46 -50 t66.5 -31t81 -10.5q80 0 141.5 41t61.5 121v285q0 78 -61.5 117.5t-141.5 39.5q-41 0 -79 -10t-67.5 -30.5t-47 -50.5t-17.5 -66v-285zM459 1266l225 319l176 -100l-268 -285z" />
<glyph unicode="&#xf4;" horiz-adv-x="1181" d="M98 362v322q0 90 38 160.5t103.5 119t157 74t197.5 25.5q111 0 201 -25.5t153.5 -75t98 -120t34.5 -158.5v-322q0 -90 -40 -160.5t-106.5 -119.5t-154.5 -74.5t-186 -25.5q-100 0 -190.5 25.5t-158 74.5t-107.5 119.5t-40 160.5zM309 1298l277 187l276 -193l-82 -100 l-194 115l-195 -113zM383 381q0 -41 17.5 -70.5t46 -50t66.5 -31t81 -10.5q80 0 141.5 41t61.5 121v285q0 78 -61.5 117.5t-141.5 39.5q-41 0 -79 -10t-67.5 -30.5t-47 -50.5t-17.5 -66v-285z" />
<glyph unicode="&#xf5;" horiz-adv-x="1181" d="M98 362v322q0 90 38 160.5t103.5 119t157 74t197.5 25.5q111 0 201 -25.5t153.5 -75t98 -120t34.5 -158.5v-322q0 -90 -40 -160.5t-106.5 -119.5t-154.5 -74.5t-186 -25.5q-100 0 -190.5 25.5t-158 74.5t-107.5 119.5t-40 160.5zM252 1300q41 66 90 104t113 38 q35 0 69.5 -13.5t68.5 -29t65.5 -28.5t60.5 -13q45 2 66.5 23.5t33.5 43.5l103 -82q-8 -16 -22.5 -41.5t-37 -50t-52.5 -43t-69 -18.5t-74.5 13.5t-70.5 29.5t-70.5 29.5t-74.5 13.5t-64 -26.5t-39 -43.5zM383 381q0 -41 17.5 -70.5t46 -50t66.5 -31t81 -10.5q80 0 141.5 41 t61.5 121v285q0 78 -61.5 117.5t-141.5 39.5q-41 0 -79 -10t-67.5 -30.5t-47 -50.5t-17.5 -66v-285z" />
<glyph unicode="&#xf6;" horiz-adv-x="1181" d="M98 362v322q0 90 38 160.5t103.5 119t157 74t197.5 25.5q111 0 201 -25.5t153.5 -75t98 -120t34.5 -158.5v-322q0 -90 -40 -160.5t-106.5 -119.5t-154.5 -74.5t-186 -25.5q-100 0 -190.5 25.5t-158 74.5t-107.5 119.5t-40 160.5zM289 1221v198h200v-198h-200zM383 381 q0 -41 17.5 -70.5t46 -50t66.5 -31t81 -10.5q80 0 141.5 41t61.5 121v285q0 78 -61.5 117.5t-141.5 39.5q-41 0 -79 -10t-67.5 -30.5t-47 -50.5t-17.5 -66v-285zM688 1221v198h197v-198h-197z" />
<glyph unicode="&#xf7;" horiz-adv-x="1396" d="M92 483v164h1213v-164h-1213zM575 115v241h259v-241h-259zM575 764v244h259v-244h-259z" />
<glyph unicode="&#xf8;" horiz-adv-x="1181" d="M98 362v322q0 90 38 160.5t103.5 119t157 74t197.5 25.5q125 0 225 -35l78 127h131l-104 -176q76 -47 116.5 -122t40.5 -173v-322q0 -90 -40 -160.5t-106.5 -119.5t-154.5 -74.5t-186 -25.5q-135 0 -242 43l-84 -144h-139l119 199q-70 49 -110 119.5t-40 162.5zM383 381 q0 -33 14 -55l291 481q-23 10 -46.5 13t-47.5 3q-41 0 -79 -10t-67.5 -30.5t-47 -50.5t-17.5 -66v-285zM481 242q51 -23 113 -23q80 0 141.5 41t61.5 121v285q0 39 -23 65z" />
<glyph unicode="&#xf9;" horiz-adv-x="1228" d="M127 360v684h285v-665q0 -80 59 -120t143 -40t144.5 41t60.5 119v665h285v-684q0 -92 -39 -162.5t-105.5 -119.5t-155.5 -73.5t-190 -24.5q-102 0 -191 24.5t-154.5 73.5t-103.5 119.5t-38 162.5zM346 1473l180 100l217 -313l-131 -80z" />
<glyph unicode="&#xfa;" horiz-adv-x="1228" d="M127 360v684h285v-665q0 -80 59 -120t143 -40t144.5 41t60.5 119v665h285v-684q0 -92 -39 -162.5t-105.5 -119.5t-155.5 -73.5t-190 -24.5q-102 0 -191 24.5t-154.5 73.5t-103.5 119.5t-38 162.5zM485 1245l226 320l176 -101l-269 -284z" />
<glyph unicode="&#xfb;" horiz-adv-x="1228" d="M127 360v684h285v-665q0 -80 59 -120t143 -40t144.5 41t60.5 119v665h285v-684q0 -92 -39 -162.5t-105.5 -119.5t-155.5 -73.5t-190 -24.5q-102 0 -191 24.5t-154.5 73.5t-103.5 119.5t-38 162.5zM334 1278l276 186l277 -192l-82 -101l-195 115l-194 -112z" />
<glyph unicode="&#xfc;" horiz-adv-x="1228" d="M127 360v684h285v-665q0 -80 59 -120t143 -40t144.5 41t60.5 119v665h285v-684q0 -92 -39 -162.5t-105.5 -119.5t-155.5 -73.5t-190 -24.5q-102 0 -191 24.5t-154.5 73.5t-103.5 119.5t-38 162.5zM313 1200v199h201v-199h-201zM713 1200v199h196v-199h-196z" />
<glyph unicode="&#xfd;" horiz-adv-x="1118" d="M45 1044h301l211 -731l213 731h301l-412 -1167q-31 -88 -81 -148.5t-113.5 -98.5t-140 -55t-162.5 -19l-33 206q37 0 78 10.5t76.5 29t63.5 46t42 66.5l25 68zM426 1247l225 320l176 -101l-268 -284z" />
<glyph unicode="&#xfe;" horiz-adv-x="1236" d="M127 -459v1870h287v-479q61 68 131 102.5t168 34.5q94 0 172 -26.5t133 -75.5t86 -118t31 -155v-329q0 -86 -31 -157t-86 -122t-133 -78.5t-172 -27.5q-109 0 -182.5 30.5t-133.5 95.5v-565h-270zM432 375q0 -78 62.5 -126t148.5 -48q39 0 76 11t66.5 33.5t47 56.5 t17.5 79v289q0 92 -60.5 134t-146.5 42q-41 0 -80 -12.5t-67.5 -36t-46 -56t-17.5 -71.5v-295z" />
<glyph unicode="&#xff;" horiz-adv-x="1118" d="M45 1044h301l211 -731l213 731h301l-412 -1167q-31 -88 -81 -148.5t-113.5 -98.5t-140 -55t-162.5 -19l-33 206q37 0 78 10.5t76.5 29t63.5 46t42 66.5l25 68zM256 1202v199h201v-199h-201zM655 1202v199h197v-199h-197z" />
<glyph unicode="&#x152;" horiz-adv-x="1857" d="M66 459v475q0 88 48 171t129 146.5t187.5 101.5t222.5 38h1114v-240h-548v-311h464v-234h-462v-366h594v-240h-1158q-125 0 -232.5 36t-187 98.5t-125.5 145t-46 179.5zM350 489q0 -53 24.5 -99t65.5 -80t97.5 -52t119.5 -18h275v911h-279q-59 0 -113.5 -20.5 t-96.5 -55.5t-67.5 -80t-25.5 -94v-412z" />
<glyph unicode="&#x153;" horiz-adv-x="1792" d="M94 360v355q0 170 119 266t317 96q51 0 108.5 -8t113 -27.5t102.5 -54.5t76 -88q55 86 147 134t201 48q98 0 185 -22.5t151.5 -67.5t101.5 -112.5t37 -159.5v-207l-655 -88v-74q0 -37 22.5 -64.5t57 -46t77.5 -26.5t86 -8q39 0 85.5 6t89.5 15.5t81.5 22.5t67.5 27 l98 -172q-92 -57 -202.5 -83.5t-231.5 -26.5q-61 0 -119.5 8t-110.5 29.5t-96.5 57.5t-76.5 89q-29 -53 -72 -89t-95 -58.5t-109.5 -31.5t-114.5 -9q-98 0 -180.5 25.5t-139.5 73.5t-89 116.5t-32 154.5zM381 377q0 -70 59.5 -111t139.5 -41q37 0 71.5 10.5t62 29t45 44 t19.5 58.5v340q-2 33 -20.5 58.5t-46 42.5t-62.5 26.5t-71 9.5q-80 0 -138.5 -40t-58.5 -106v-321zM1096 604l368 47l-2 64q0 61 -51.5 95t-114.5 34q-37 -2 -71.5 -12.5t-62 -28t-45 -42t-19.5 -54.5z" />
<glyph unicode="&#x178;" horiz-adv-x="1294" d="M59 1393h324l260 -602l264 602h328l-449 -877v-516h-286v518zM348 1509v199h201v-199h-201zM748 1509v199h196v-199h-196z" />
<glyph unicode="&#x2c6;" horiz-adv-x="749" d="M98 1276l277 186l276 -192l-82 -101l-194 115l-195 -113z" />
<glyph unicode="&#x2dc;" horiz-adv-x="888" d="M106 1288q41 66 90.5 104t112.5 38q35 0 70 -13.5t68.5 -29t65.5 -28.5t60 -13q45 2 67 23.5t34 43.5l102 -82q-8 -16 -22.5 -41.5t-37 -50.5t-52 -43t-68.5 -18t-75 13t-70.5 29.5t-70.5 30t-75 13.5t-63.5 -27t-38.5 -43z" />
<glyph unicode="&#x2000;" horiz-adv-x="952" />
<glyph unicode="&#x2001;" horiz-adv-x="1905" />
<glyph unicode="&#x2002;" horiz-adv-x="952" />
<glyph unicode="&#x2003;" horiz-adv-x="1905" />
<glyph unicode="&#x2004;" horiz-adv-x="635" />
<glyph unicode="&#x2005;" horiz-adv-x="476" />
<glyph unicode="&#x2006;" horiz-adv-x="317" />
<glyph unicode="&#x2007;" horiz-adv-x="317" />
<glyph unicode="&#x2008;" horiz-adv-x="238" />
<glyph unicode="&#x2009;" horiz-adv-x="381" />
<glyph unicode="&#x200a;" horiz-adv-x="105" />
<glyph unicode="&#x2010;" horiz-adv-x="710" d="M90 485v226h528v-226h-528z" />
<glyph unicode="&#x2011;" horiz-adv-x="710" d="M90 485v226h528v-226h-528z" />
<glyph unicode="&#x2012;" horiz-adv-x="710" d="M90 485v226h528v-226h-528z" />
<glyph unicode="&#x2013;" horiz-adv-x="1216" d="M10 520v172h1186v-172h-1186z" />
<glyph unicode="&#x2014;" horiz-adv-x="1646" d="M12 520v172h1620v-172h-1620z" />
<glyph unicode="&#x2018;" horiz-adv-x="327" d="M45 985v55q0 82 13.5 148.5t36 118t51 88.5t59.5 59l108 -68q-25 -45 -40 -114.5t-15 -159.5v-127h-213z" />
<glyph unicode="&#x2019;" horiz-adv-x="344" d="M2 1059q31 43 56.5 101.5t25.5 164.5v127h238v-55q0 -90 -17.5 -156.5t-44.5 -116t-57.5 -82t-55.5 -57.5z" />
<glyph unicode="&#x201a;" horiz-adv-x="491" d="M143 -205q31 43 57.5 101.5t26.5 164.5v127h236v-55q0 -90 -17.5 -156.5t-44 -115.5t-56.5 -82t-56 -58z" />
<glyph unicode="&#x201c;" horiz-adv-x="655" d="M43 985v55q0 82 13.5 148.5t36 118t51 88.5t59.5 59l110 -68q-25 -45 -40 -114.5t-15 -159.5v-127h-215zM356 985v55q0 82 13.5 148.5t36 118t51 88.5t59.5 59l111 -68q-25 -45 -40.5 -114.5t-15.5 -159.5v-127h-215z" />
<glyph unicode="&#x201d;" horiz-adv-x="659" d="M2 1034q31 43 56.5 102.5t25.5 166.5v127h238v-56q0 -90 -17.5 -156.5t-44.5 -115.5t-57.5 -82t-55.5 -57zM315 1034q29 43 55.5 102.5t26.5 166.5v127h238v-56q0 -90 -17.5 -156.5t-44 -115.5t-57.5 -82t-55 -57z" />
<glyph unicode="&#x201e;" horiz-adv-x="870" d="M143 -203q31 43 57.5 101.5t26.5 164.5v127h236v-55q0 -90 -17.5 -156.5t-44 -115.5t-56.5 -82t-56 -57zM477 -201q31 43 56.5 101.5t25.5 165.5v127h238v-56q0 -90 -17.5 -156.5t-44 -115.5t-57.5 -82t-55 -57z" />
<glyph unicode="&#x2022;" horiz-adv-x="694" d="M139 342v410h416v-410h-416z" />
<glyph unicode="&#x2026;" horiz-adv-x="1630" d="M139 0v254h262v-254h-262zM684 0v254h262v-254h-262zM1227 0v254h262v-254h-262z" />
<glyph unicode="&#x202f;" horiz-adv-x="381" />
<glyph unicode="&#x2039;" horiz-adv-x="591" d="M76 356l313 371l121 -82l-199 -285l199 -272l-121 -88z" />
<glyph unicode="&#x203a;" horiz-adv-x="591" d="M80 88l199 272l-199 285l121 82l313 -371l-313 -356z" />
<glyph unicode="&#x205f;" horiz-adv-x="476" />
<glyph unicode="&#x20ac;" horiz-adv-x="1388" d="M63 512v129h187v121h-187v129h187v61q0 106 42 192.5t115.5 146t172 91t208.5 31.5q154 0 258.5 -35t194.5 -104l-115 -199q-63 43 -139 69.5t-180 26.5q-117 0 -194.5 -61t-77.5 -174v-45h497v-129h-497v-121h497v-129h-497v-59q0 -121 77.5 -177.5t200.5 -56.5 q193 0 311 84l107 -197q-43 -35 -89 -58t-99.5 -38.5t-115 -22.5t-136.5 -7q-117 0 -216.5 28.5t-171 86t-112.5 143.5t-41 200v74h-187z" />
<glyph unicode="&#x2122;" horiz-adv-x="1128" d="M74 1333v101h387v-101h-139v-336h-111v336h-137zM547 1004v430h112l109 -185l109 185h114v-430h-108v253l-95 -159h-40l-91 162v-256h-110z" />
<glyph unicode="&#x25fc;" horiz-adv-x="1044" d="M0 0v1044h1044v-1044h-1044z" />
<glyph unicode="&#xfb03;" horiz-adv-x="2052" d="M43 862v182h125v127q0 82 36 142.5t97 99.5t142 58.5t171 19.5q119 0 236 -17.5t205 -43.5q59 31 132 46t152 15q137 0 264.5 -21.5t231.5 -56.5l-47 -194q-45 8 -87 16t-88 14t-100.5 10.5t-121.5 4.5q-111 0 -163 -35t-52 -111v-74h249v-182h-249v-862h-283v862h-442 v-862h-283v862h-125zM451 1044h442v127q0 20 2 39t8 37q-51 8 -108.5 12.5t-128.5 4.5q-111 0 -163 -35t-52 -111v-74zM1614 0v1044h287v-1044h-287z" />
<glyph unicode="&#xfb04;" horiz-adv-x="2052" d="M43 862v182h125v127q0 82 36 142.5t97 99.5t142 58.5t171 19.5q119 0 231.5 -17.5t209.5 -43.5q59 31 132 46t150 15q135 0 271.5 -22.5t292.5 -75.5v-1393h-287v1249q-47 6 -101.5 10.5t-121.5 4.5q-113 0 -164 -35t-51 -111v-74h249v-182h-249v-862h-283v862h-442v-862 h-283v862h-125zM451 1044h442v127q0 43 8 76q-49 8 -106.5 12.5t-128.5 4.5q-111 0 -163 -35t-52 -111v-74z" />
</font>
</defs>
</svg>
