<?xml version="1.0" standalone="no"?>
<!DOCTYPE svg PUBLIC "-//W3C//DTD SVG 1.1//EN" "http://www.w3.org/Graphics/SVG/1.1/DTD/svg11.dtd" >
<svg xmlns="http://www.w3.org/2000/svg">
<metadata></metadata>
<defs>
<font id="bose_gothic_screenBdOb" horiz-adv-x="1388" >
<font-face units-per-em="2048" ascent="1536" descent="-512" />
<missing-glyph horiz-adv-x="448" />
<glyph unicode="&#xdf;" horiz-adv-x="1292" d="M18 0l158 1075q29 207 166 304.5t367 97.5q98 0 182 -25t145.5 -71t96 -113.5t34.5 -153.5v-32.5t-4 -32.5q-104 -78 -166.5 -146.5t-62.5 -152.5q0 -55 33.5 -91t74.5 -71q53 -47 89 -101.5t36 -134.5q0 -96 -31.5 -166.5t-91 -118t-143.5 -70t-186 -22.5q-41 0 -87 5.5 t-89 16.5t-81 26.5t-63 35.5l90 205q35 -23 97.5 -41t130.5 -18q70 0 125 33.5t55 101.5q0 49 -36 84t-87 74q-53 41 -85 91t-32 126q0 59 18.5 111.5t50.5 100.5t74 91t91 84v14q0 29 -17.5 51.5t-45 38t-63.5 23.5t-75 8q-92 0 -157.5 -44t-79.5 -134l-154 -1059h-277z " />
<glyph unicode="&#xfb01;" horiz-adv-x="1275" d="M63 0l125 862h-120l26 182h121l18 127q12 82 57.5 142.5t112 99.5t149.5 58.5t173 19.5q137 0 261 -21.5t222 -56.5l-73 -194q-43 8 -85 16t-87 14t-98.5 10.5t-121.5 4.5q-221 0 -241 -146l-13 -74h242l-26 -182h-242l-125 -862h-275zM784 0l152 1044h278l-151 -1044 h-279z" />
<glyph unicode="&#xfb02;" horiz-adv-x="1327" d="M63 0l125 862h-120l26 182h121l18 127q12 82 57.5 142.5t112 99.5t149.5 58.5t173 19.5q137 0 278.5 -24.5t262.5 -71.5l-203 -1395h-279l181 1249q-47 6 -100.5 10.5t-121.5 4.5q-221 0 -241 -146l-13 -74h242l-26 -182h-242l-125 -862h-275z" />
<glyph horiz-adv-x="0" />
<glyph unicode="&#xd;" horiz-adv-x="448" />
<glyph unicode=" "  horiz-adv-x="448" />
<glyph unicode="&#x09;" horiz-adv-x="448" />
<glyph unicode="&#xa0;" horiz-adv-x="448" />
<glyph unicode="!" horiz-adv-x="571" d="M49 0l37 252h289l-37 -252h-289zM137 485l107 908h299l-158 -908h-248z" />
<glyph unicode="&#x22;" horiz-adv-x="673" d="M156 954l55 453h178l-80 -453h-153zM420 954l51 453h176l-76 -453h-151z" />
<glyph unicode="#" horiz-adv-x="1320" d="M23 248l26 164h238l125 393h-238l31 164h266l84 272h199l-86 -272h198l88 272h193l-82 -272h186l-30 -164h-217l-123 -393h206l-26 -164h-240l-71 -248h-199l74 248h-199l-78 -248h-196l77 248h-206zM483 412h201l125 393h-201z" />
<glyph unicode="$" horiz-adv-x="1220" d="M33 197l162 182q61 -78 152 -118t192 -40q115 0 176 48t61 139q0 63 -51 101t-178 79q-178 55 -272.5 140t-94.5 222q0 115 46 202t121 144.5t171 86t199 28.5q20 0 28 -2l66 213l170 -29l-61 -209q68 -23 126 -57.5t113 -87.5l-153 -192q-74 66 -149 94t-169 28 q-106 0 -168.5 -47t-62.5 -133q0 -63 55 -102t184 -82q176 -55 267.5 -143.5t91.5 -219.5q0 -106 -41 -191t-114 -144.5t-172 -91t-214 -31.5h-16l-74 -252l-164 26l72 248q-92 25 -170 72t-129 119z" />
<glyph unicode="%" horiz-adv-x="1533" d="M113 0l1056 1393h226l-1047 -1393h-235zM154 1020l22 160q8 55 39 98t75 73.5t100 46t116 15.5q55 0 104 -16.5t85 -47t53.5 -73.5t9.5 -96l-23 -160q-8 -55 -37.5 -99t-73.5 -74t-98.5 -46.5t-111.5 -16.5q-125 0 -201 59.5t-59 176.5zM352 1044q-6 -43 19.5 -60 t68.5 -17q35 0 69 21.5t38 55.5l18 115q4 35 -22.5 52.5t-63.5 17.5t-71.5 -19.5t-38.5 -54.5zM772 199l29 194q8 55 35.5 97t69.5 71t95.5 43t112.5 14q55 0 103.5 -13t83 -39.5t52 -67.5t9.5 -97l-29 -188q-16 -113 -104 -171t-207 -58q-55 0 -103.5 15t-83 43t-52 68 t-11.5 89zM963 240q-4 -35 21.5 -56.5t64.5 -21.5q35 0 68.5 22.5t37.5 57.5l16 112q6 41 -18.5 61.5t-65.5 20.5q-39 0 -72.5 -24.5t-37.5 -59.5z" />
<glyph unicode="&#x26;" horiz-adv-x="1503" d="M41 295q0 70 25.5 128t72.5 111.5t117 105.5t156 110l18 14l-154 182l29 193q8 63 46 114.5t95.5 87t128 55t146.5 19.5q160 0 254 -69.5t94 -202.5q0 -66 -20.5 -119t-57.5 -100t-90 -91.5t-119 -91.5l193 -223l260 221l149 -161l-262 -230l195 -225l-201 -160l-186 219 q-98 -98 -214 -150t-255 -52q-197 0 -308.5 77.5t-111.5 237.5zM326 332q0 -53 38.5 -84t112.5 -31q76 0 143.5 32t157.5 107l-203 242l-20 -14q-59 -43 -102 -75t-72 -60.5t-42 -56t-13 -60.5zM530 1028l111 -127q78 53 124 100.5t46 106.5q0 88 -125 88q-57 0 -97 -23.5 t-46 -64.5z" />
<glyph unicode="'" horiz-adv-x="497" d="M199 967l45 487h211l-99 -487h-157z" />
<glyph unicode="(" horiz-adv-x="759" d="M80 240l92 626q16 119 56 225.5t97.5 195.5t130 157.5t156.5 114.5l103 -109q-106 -66 -189.5 -213t-115.5 -371l-93 -626q-35 -231 7.5 -373.5t130.5 -204.5l-136 -113q-139 92 -206.5 271.5t-32.5 419.5z" />
<glyph unicode=")" horiz-adv-x="798" d="M-33 -352q104 70 187.5 222.5t117.5 375.5l90 618q31 221 -0.5 367.5t-117.5 216.5l118 113q70 -45 122.5 -115t83 -159t39.5 -196.5t-7 -226.5l-90 -618q-18 -119 -58 -225.5t-97.5 -194.5t-130 -157.5t-154.5 -114.5z" />
<glyph unicode="*" horiz-adv-x="813" d="M160 1169l55 123l191 -65l30 211h131l-30 -213l211 67l18 -123l-205 -63l98 -172l-116 -80l-101 174l-147 -174l-94 78l149 174z" />
<glyph unicode="+" horiz-adv-x="1169" d="M68 696l26 193h402l55 381h209l-55 -381h403l-27 -193h-403l-64 -430h-208l63 430h-401z" />
<glyph unicode="," horiz-adv-x="491" d="M-90 -205q35 43 67.5 101.5t49.5 164.5l18 127h229l-8 -55q-12 -90 -38.5 -156.5t-58.5 -115.5t-66.5 -82t-63.5 -58z" />
<glyph unicode="-" horiz-adv-x="710" d="M57 485l33 226h512l-33 -226h-512z" />
<glyph unicode="." horiz-adv-x="524" d="M12 0l37 252h273l-37 -252h-273z" />
<glyph unicode="/" horiz-adv-x="858" d="M-90 -174l756 1567h235l-760 -1567h-231z" />
<glyph unicode="0" horiz-adv-x="1288" d="M72 420l80 543q14 104 66 187t131 141.5t178 90t210 31.5t201 -31.5t151.5 -90t90 -141.5t14.5 -187l-80 -543q-16 -104 -68.5 -186t-131 -138.5t-178 -86t-208.5 -29.5t-199.5 29.5t-153 86t-91.5 138t-12 186.5zM350 430q-16 -109 45.5 -160t167.5 -51q104 0 183 51.5 t96 159.5l76 524q14 106 -49.5 161.5t-168.5 55.5q-111 0 -184.5 -55t-89.5 -162z" />
<glyph unicode="1" horiz-adv-x="716" d="M125 1151l35 242h448l-202 -1393h-275l168 1151h-174z" />
<glyph unicode="2" horiz-adv-x="1150" d="M6 0l19 129q14 102 51 189.5t100.5 164t155.5 146t219 135.5q76 37 126 67.5t80.5 61.5t43 63.5t12.5 75.5q0 61 -46 94t-128 33q-100 0 -197.5 -45t-177.5 -104l-98 190q119 94 255 146.5t296 52.5q80 0 148.5 -19.5t119.5 -59.5t80 -98.5t29 -136.5q0 -92 -26 -161.5 t-78 -127t-132 -110t-186 -113.5q-92 -47 -151.5 -84.5t-97.5 -75.5t-59.5 -80t-33.5 -95h655l-35 -238h-944z" />
<glyph unicode="3" horiz-adv-x="1212" d="M14 293l246 92q8 -43 31.5 -73.5t57.5 -50t74 -29t83 -9.5q45 0 87 8.5t77 25.5t58.5 47t29.5 73q6 39 9 67.5t3 36.5q0 66 -48 94.5t-147 28.5h-192l31 219h184q37 0 76 6.5t71.5 22.5t55 43t28.5 68q8 55 9.5 69.5t1.5 20.5q0 70 -55.5 96.5t-135.5 26.5 q-37 0 -74.5 -8.5t-73.5 -27t-65.5 -47t-48.5 -67.5l-209 94q29 68 81 122t121 93t151.5 60.5t173.5 21.5q86 0 162.5 -17.5t133 -54t89 -94t32.5 -137.5q0 -18 -2 -41.5t-10 -83.5q-14 -100 -79.5 -172t-168.5 -104q84 -29 133 -86.5t49 -139.5q0 -10 -2 -40.5t-12 -94.5 q-14 -96 -65.5 -165.5t-125 -113.5t-165 -65.5t-185.5 -21.5q-92 0 -174 20.5t-145.5 60t-104 97t-51.5 129.5z" />
<glyph unicode="4" horiz-adv-x="1230" d="M-4 274l31 211l712 908h324l-127 -879h197l-35 -240h-197l-41 -274h-274l41 274h-631zM322 514h340l73 514h-24z" />
<glyph unicode="5" horiz-adv-x="1189" d="M68 328l266 67q-4 -78 50 -127t153 -49q80 0 143 37t74 111l20 141q10 72 -38 108.5t-140 36.5h-420l176 740h752l-35 -242h-516l-66 -274h183q92 0 167.5 -23t127 -68t75 -113.5t9.5 -160.5l-21 -154q-14 -90 -63.5 -160.5t-120 -118.5t-156.5 -73.5t-174 -25.5 q-213 0 -326.5 91t-119.5 257z" />
<glyph unicode="6" horiz-adv-x="1208" d="M61 375l89 614q14 94 64 173t126 134.5t172 86t205 30.5q133 0 225 -27.5t172 -91.5l-133 -196q-66 41 -135.5 59.5t-147.5 18.5q-111 0 -185.5 -50.5t-86.5 -136.5l-31 -211q53 59 138.5 96t179.5 37q88 0 159.5 -22.5t120.5 -66.5t70.5 -110.5t9.5 -154.5l-29 -195 q-14 -94 -66 -165.5t-129 -119.5t-170 -72.5t-187 -24.5t-179.5 25.5t-146 75.5t-90 124t-15.5 170zM340 391q-6 -45 7 -77.5t39 -54t62.5 -32t75.5 -10.5t81 10.5t77 32t59.5 54t30.5 77.5l21 144q12 86 -45.5 128t-149.5 42q-86 0 -155.5 -44.5t-82.5 -125.5z" />
<glyph unicode="7" horiz-adv-x="1019" d="M90 1135l37 258h915l-20 -150l-598 -1243h-305l573 1135h-602z" />
<glyph unicode="8" horiz-adv-x="1228" d="M49 350l12 80q8 57 36 104.5t67 84t86 61.5t94 41q-92 33 -139 111.5t-33 179.5l8 49q12 86 60.5 152.5t121 110.5t162.5 66.5t187 22.5q94 0 177 -22.5t143.5 -66.5t90 -109.5t17.5 -153.5l-11 -60q-6 -47 -32.5 -91t-63.5 -80.5t-79 -65.5t-81 -43q37 -16 77 -39 t71 -57.5t47 -82.5t8 -112l-12 -80q-14 -96 -65.5 -165.5t-128 -114.5t-172 -67.5t-195.5 -22.5q-104 0 -192.5 22.5t-151 68.5t-93 115.5t-16.5 163.5zM330 373q-6 -43 9 -73t45 -48.5t70 -25.5t83 -7q39 0 79.5 7t76.5 24.5t60.5 46.5t30.5 70l15 94q6 37 -10.5 66.5 t-44 49t-64.5 29.5t-72 10h-26q-39 -2 -80 -12t-75 -28.5t-56.5 -47t-28.5 -67.5zM440 971q-4 -35 8.5 -61.5t37 -45t57 -30t67.5 -13.5h25q39 2 74.5 11.5t65.5 28t49.5 45t25.5 65.5l8 59q6 37 -8 63.5t-41 45t-61.5 27t-71.5 8.5t-76 -9.5t-70.5 -27t-53 -44t-27.5 -63.5 z" />
<glyph unicode="9" horiz-adv-x="1212" d="M66 109l116 198q70 -45 156 -66.5t180 -21.5q104 0 183 43t92 137l26 179q-61 -61 -144 -90t-161 -29q-96 0 -175 24.5t-133 71.5t-78 117.5t-11 161.5l30 206q12 86 63.5 156t127.5 118t168 73.5t186 25.5t180 -25.5t147.5 -73.5t93.5 -117t20 -157l-101 -684 q-12 -92 -64.5 -162.5t-128 -117.5t-168.5 -71.5t-188 -24.5q-119 0 -231.5 32.5t-185.5 96.5zM395 842q-6 -41 8.5 -71t43 -50.5t66.5 -29.5t79 -9q39 0 78 10t71.5 29.5t55 49.5t28.5 71l25 174q6 39 -8.5 68.5t-43 49t-66.5 28.5t-77 9q-41 0 -79.5 -10t-71.5 -29.5 t-55.5 -48t-28.5 -67.5z" />
<glyph unicode=":" horiz-adv-x="579" d="M47 0l39 272h139h135l-38 -272h-275zM164 795l39 270h274l-39 -270h-274z" />
<glyph unicode=";" horiz-adv-x="636" d="M37 -205q35 43 67.5 101.5t49.5 164.5l18 127h229l-8 -55q-12 -90 -38.5 -156.5t-58.5 -115.5t-66.5 -82t-63.5 -58zM229 786l41 279h258l-41 -279h-258z" />
<glyph unicode="&#x3c;" horiz-adv-x="1249" d="M106 514l965 565l51 -164l-665 -393l581 -364l-106 -162z" />
<glyph unicode="=" horiz-adv-x="1155" d="M47 342l29 197h358h574l-29 -197h-932zM111 772l28 195h932l-29 -195h-931z" />
<glyph unicode="&#x3e;" horiz-adv-x="1236" d="M55 147l654 385l-551 371l125 166l807 -526l-959 -561z" />
<glyph unicode="?" horiz-adv-x="989" d="M135 1274q43 27 93.5 52.5t105.5 45t112.5 30.5t112.5 11q199 0 301.5 -72.5t79.5 -232.5l-10 -68q-6 -47 -28.5 -86t-53.5 -70.5t-67 -59t-70 -52.5q-41 -29 -72 -53.5t-52.5 -50t-34.5 -57t-20 -72.5l-12 -90h-264l18 122q12 90 60.5 152.5t128.5 116.5q66 43 120 86 t60 90l8 53q10 57 -39 79.5t-127 22.5q-74 0 -153.5 -27.5t-134.5 -62.5zM172 0l37 252h319l-36 -252h-320z" />
<glyph unicode="@" horiz-adv-x="1642" d="M78 471q0 59 18.5 156.5t53.5 199.5q39 125 112.5 237t175 194.5t227.5 131t269 48.5q135 0 246.5 -38t191.5 -105.5t123 -161t43 -203.5q0 -104 -20.5 -209t-69.5 -187.5t-130 -134t-200 -51.5q-31 0 -64.5 5t-63 17.5t-51 35t-26.5 57.5q-25 -27 -59.5 -52.5t-73.5 -45 t-82 -31.5t-84 -12q-117 0 -167 49t-50 118q0 20 7.5 59.5t22.5 90.5t38.5 109.5t54.5 119.5q27 61 74 110.5t104.5 84.5t119 54.5t118.5 19.5q106 0 168.5 -46.5t62.5 -123.5q0 -43 -16 -92.5t-39 -110.5q-20 -57 -34.5 -107.5t-14.5 -85.5q0 -37 19.5 -62.5t54.5 -25.5 q84 0 134 48.5t75.5 117t34 142t8.5 124.5q0 86 -34 157t-95.5 123t-149.5 81t-195 29q-115 0 -214 -38t-180 -103.5t-138 -153.5t-86 -191q-29 -94 -48.5 -184t-19.5 -141q0 -78 32 -146.5t95.5 -119t159.5 -79t223 -28.5q152 0 326 88l49 -121q-100 -53 -199.5 -76.5 t-195.5 -23.5q-160 0 -280 36.5t-199.5 101t-120.5 154t-41 191.5zM586 559q0 -94 92 -94q37 0 73.5 14.5t67.5 39t54.5 58t35.5 74.5q12 33 26.5 69t26 70.5t19.5 67.5t8 57q0 78 -100 78q-39 0 -77 -18.5t-70.5 -49t-58.5 -69.5t-38 -78q-10 -29 -20.5 -63.5t-19.5 -65.5 t-14 -55.5t-5 -34.5z" />
<glyph unicode="A" horiz-adv-x="1329" d="M-49 0l655 1405h307l238 -1405h-299l-41 319h-422l-137 -319h-301zM475 543h316l-78 542z" />
<glyph unicode="B" horiz-adv-x="1294" d="M51 0l203 1393h541q191 1 291 -97q80 -78 80 -204q0 -31 -5 -66l-6 -47q-6 -37 -25.5 -77t-49 -74.5t-69.5 -61.5t-85 -41q100 -39 152 -115q40 -58 40 -136q0 -24 -4 -50l-10 -76q-27 -172 -155 -260t-318 -88h-580zM362 221h256q78 0 138.5 33t74.5 125l11 72 q2 12 2 24q0 59 -43 91q-51 40 -129 40h-254zM449 813h245q74 0 125 40t62 112l6 47q3 19 3 35q0 61 -40 87q-51 34 -139 33h-211z" />
<glyph unicode="C" horiz-adv-x="1163" d="M88 438l76 514q14 106 68.5 192.5t134 146t179 91t206.5 31.5q150 0 246 -33.5t173 -105.5l-141 -199q-53 43 -123 69.5t-172 26.5q-115 0 -197.5 -61t-99.5 -174l-71 -483q-3 -23 -3 -44q0 -87 54 -133q67 -56 186 -57q182 0 314 84l73 -197q-47 -35 -95 -58 t-101.5 -38.5t-115 -22.5t-134.5 -7q-113 0 -204 28.5t-153 85.5q-64 58 -90 144q-17 54 -16 118q0 39 6 82z" />
<glyph unicode="D" horiz-adv-x="1343" d="M53 0l203 1393h496q117 0 211 -30t156.5 -90.5t88.5 -151.5q16 -54 16 -120q0 -45 -7 -96l-60 -420q-18 -125 -75.5 -216t-141.5 -151.5t-189.5 -89t-220.5 -28.5h-477zM360 240h205q57 0 109.5 14t95.5 46t73.5 83t41.5 123l55 377q4 30 4 57q0 35 -7 63 q-13 50 -44 82.5t-77 49t-99 16.5h-223z" />
<glyph unicode="E" horiz-adv-x="1150" d="M49 0l203 1393h844l-35 -242h-567l-48 -328h453l-35 -231h-452l-52 -352h613l-35 -240h-889z" />
<glyph unicode="F" horiz-adv-x="1075" d="M49 0l203 1393h842l-35 -242h-567l-48 -328h453l-35 -233h-452l-86 -590h-275z" />
<glyph unicode="G" horiz-adv-x="1345" d="M90 436l76 518q16 111 72.5 196t140.5 143.5t190.5 89t223.5 30.5q145 0 252.5 -38t187.5 -97l-127 -207q-70 47 -145.5 73.5t-192.5 26.5q-61 0 -116.5 -15t-99.5 -45t-73.5 -75t-38.5 -102l-71 -479q-3 -21 -3 -39q0 -36 10 -66q15 -45 49 -73.5t82 -43t107 -14.5 q72 0 127.5 11.5t112.5 35.5l43 295h-217l33 223h491l-94 -643q-113 -72 -241 -116.5t-289 -44.5q-117 0 -214.5 28.5t-164 86t-97.5 143.5q-20 56 -20 124q0 35 6 74z" />
<glyph unicode="H" horiz-adv-x="1454" d="M53 0l203 1393h276l-86 -592h566l86 592h276l-203 -1393h-276l82 561h-565l-82 -561h-277z" />
<glyph unicode="I" horiz-adv-x="634" d="M66 0l202 1393h275l-203 -1393h-274z" />
<glyph unicode="J" horiz-adv-x="1146" d="M-16 313l276 66q-2 -29 8.5 -57.5t33 -51t56 -37t76.5 -14.5q80 0 141.5 42t73.5 128l146 1004h276l-147 -1014q-29 -193 -164 -294t-348 -101q-207 0 -320 85q-108 82 -108 233v11z" />
<glyph unicode="K" horiz-adv-x="1335" d="M53 0l203 1393h276l-92 -629l545 629h338l-623 -664l478 -729h-349l-333 547l-101 -105l-65 -442h-277z" />
<glyph unicode="L" horiz-adv-x="1114" d="M49 0l203 1393h276l-168 -1153h629l-35 -240h-905z" />
<glyph unicode="M" horiz-adv-x="1736" d="M57 0l203 1393h301l283 -775l514 775h299l-203 -1393h-278l141 973l-438 -678h-166l-238 678l-141 -973h-277z" />
<glyph unicode="N" horiz-adv-x="1435" d="M53 0l203 1393h264l443 -965l141 965h254l-203 -1393h-260l-449 961l-139 -961h-254z" />
<glyph unicode="O" d="M92 436l76 522q16 106 69.5 191.5t133.5 144t182 89t217 30.5h35q113 0 207 -31.5t156 -89.5q64 -59 92 -143q19 -56 19 -123q0 -33 -5 -68l-76 -522q-16 -111 -67.5 -196.5t-131 -143t-182 -87t-221.5 -29.5h-33q-119 0 -213 28.5t-158 85.5q-64 58 -90 144 q-17 54 -16 117q0 39 6 81zM373 455q-3 -26 -3 -48q0 -85 48 -131q61 -56 180 -57h33q119 0 197.5 57.5t95.5 178.5l71 481q3 20 3 39q0 85 -53 135q-64 61 -177 61h-35q-113 0 -192.5 -60t-96.5 -173z" />
<glyph unicode="P" horiz-adv-x="1277" d="M51 0l203 1393h555q100 0 181 -26t134 -76q52 -49 74 -123q14 -44 14 -97q0 -35 -6 -74l-22 -149q-12 -92 -58.5 -162t-114 -116t-152.5 -69.5t-179 -23.5h-283l-69 -477h-277zM430 702h262q84 0 145.5 41t75.5 136l13 88q2 18 2 35q0 63 -36 101q-46 48 -134 48h-262z " />
<glyph unicode="Q" d="M90 436l76 522q16 106 69.5 191.5t133.5 144t182 89t217 30.5h33q115 0 208 -31.5t156.5 -90t92.5 -142.5q19 -56 19 -123q0 -33 -5 -68l-76 -522q-27 -188 -160 -305l115 -143l-154 -109l-118 152q-61 -25 -134 -38t-153 -13h-31q-119 0 -213 28.5t-156.5 86 t-89.5 143.5q-18 54 -18 119q0 38 6 79zM369 455q-3 -26 -3 -48q0 -87 48 -131q61 -57 182 -57h31q27 0 51 2t45 8l-109 144l150 110l113 -145q39 47 47 117l71 481q3 21 3 40q0 33 -9 61q-14 44 -45 74t-77 45t-103 15h-33q-113 0 -193.5 -60t-97.5 -173z" />
<glyph unicode="R" horiz-adv-x="1286" d="M55 0l203 1393h563q203 -1 309 -97q84 -76 84 -215q0 -38 -6 -80l-8 -67q-20 -137 -98 -224t-195 -122l199 -588h-297l-168 524h-235l-76 -524h-275zM438 748h277q72 2 133 40.5t74 118.5l12 84q2 14 2 27q0 59 -38 92q-46 41 -130 41h-270z" />
<glyph unicode="S" horiz-adv-x="1222" d="M33 197l162 182q61 -78 152 -118t192 -40q115 0 176 48t61 139q0 63 -51 101t-178 79q-98 31 -171 68.5t-119 87.5q-47 48 -65 112q-12 41 -12 90q0 26 4 55q14 102 64.5 179t124 128.5t163 77t181.5 25.5q135 0 242.5 -40t199.5 -132l-153 -192q-74 66 -149 94t-169 28 q-106 0 -168.5 -47t-62.5 -133q0 -63 55 -102t184 -82q195 -61 286 -159q73 -79 73 -196q0 -28 -4 -59q-12 -96 -58.5 -172t-118 -128t-164 -79.5t-196.5 -27.5q-74 0 -143.5 14t-133 41t-115.5 66.5t-89 91.5z" />
<glyph unicode="T" horiz-adv-x="1196" d="M106 1151l35 242h1094l-35 -242h-412l-167 -1151h-275l168 1151h-408z" />
<glyph unicode="U" horiz-adv-x="1433" d="M113 369q0 29 3 58.5t7 64.5l131 901h276l-124 -873q-4 -35 -7.5 -58.5t-3.5 -45.5q0 -51 19.5 -88t51.5 -61.5t76 -36t93 -11.5q55 0 106.5 15.5t94.5 45t71.5 75.5t38.5 108l133 930h279l-139 -944q-16 -117 -72.5 -205t-139.5 -146.5t-186.5 -88t-216.5 -29.5 q-104 0 -194.5 23.5t-156 72.5t-103 121.5t-37.5 171.5z" />
<glyph unicode="V" horiz-adv-x="1282" d="M147 1393h299l127 -1045l443 1045h297l-645 -1393h-289z" />
<glyph unicode="W" horiz-adv-x="1839" d="M182 1393h285l27 -1033l393 1033h246l94 -1037l325 1037h283l-483 -1393h-305l-97 991l-383 -991h-305z" />
<glyph unicode="X" horiz-adv-x="1261" d="M-51 0l508 696l-277 697h312l165 -486l320 486h311l-495 -699l290 -694h-313l-178 479l-326 -479h-317z" />
<glyph unicode="Y" horiz-adv-x="1294" d="M168 1393h313l164 -602l344 602h318l-562 -877l-75 -516h-279l76 518z" />
<glyph unicode="Z" horiz-adv-x="1202" d="M-8 0l24 162l781 987h-623l35 244h973l-23 -160l-778 -993h633l-35 -240h-987z" />
<glyph unicode="[" horiz-adv-x="579" d="M-4 -326l250 1719h375l-27 -187h-143l-197 -1349h135l-27 -183h-366z" />
<glyph unicode="\" horiz-adv-x="925" d="M164 1393h242l380 -1393h-237z" />
<glyph unicode="]" horiz-adv-x="575" d="M-59 -322l28 189h135l193 1327h-137l28 199h371l-250 -1715h-368z" />
<glyph unicode="^" horiz-adv-x="903" d="M115 842l436 571l258 -569l-147 -64l-154 340l-258 -340z" />
<glyph unicode="_" horiz-adv-x="1159" d="M-39 -233l25 165h942l-25 -165h-942z" />
<glyph unicode="`" horiz-adv-x="565" d="M182 1393l189 100l166 -313l-140 -80z" />
<glyph unicode="a" horiz-adv-x="1075" d="M-2 217q0 14 1 32.5t9 67.5q14 96 82 155.5t163 92.5t205.5 45t211.5 13l10 63q2 10 3 22.5t1 22.5q0 53 -38 78t-132 25q-33 0 -76 -6.5t-87 -15.5t-83 -20.5t-63 -23.5l-39 199q39 23 92 41t110.5 30.5t115 19.5t106.5 7q190 0 279 -71.5t89 -207.5q0 -12 -1 -32.5 t-5 -40.5l-104 -713h-213l-12 137q-49 -68 -138.5 -109.5t-193.5 -41.5q-147 0 -220 63.5t-73 167.5zM281 283q0 -82 131 -82q41 0 77.5 10t65.5 26.5t46 38t22 46.5l20 139q-55 -2 -116.5 -8.5t-113 -19.5t-87 -37.5t-41.5 -63.5q-4 -25 -4 -33v-16z" />
<glyph unicode="b" horiz-adv-x="1210" d="M33 0l207 1413h272l-72 -483q63 68 142.5 101.5t165.5 33.5q188 1 273 -101q65 -77 64 -200q0 -39 -6 -82l-47 -317q-27 -182 -140.5 -281.5t-301.5 -99.5q-80 0 -156 32.5t-112 104.5l-62 -121h-227zM358 358q-2 -13 -2 -25q0 -25 8 -45q12 -28 37 -46.5t60 -27.5t74 -9 q90 0 150 37t73 125l45 313q2 15 2 29q0 57 -40 91q-50 42 -128 42q-84 0 -152.5 -39t-78.5 -121z" />
<glyph unicode="c" horiz-adv-x="1007" d="M57 360l47 322q12 92 57.5 164t115 121t159.5 73.5t193 24.5q115 0 196.5 -28.5t141.5 -82.5l-127 -196q-41 31 -93 48t-124 17q-94 0 -164 -43t-84 -129l-37 -262q-2 -15 -2 -29q0 -26 8 -48q12 -32 40 -53t66.5 -31.5t86.5 -10.5h15q61 1 113 15q58 16 111 44l66 -196 q-78 -53 -170 -75.5t-199 -22.5q-102 0 -186 22.5t-139 69.5q-56 46 -80 118q-16 46 -16 101q0 32 5 67z" />
<glyph unicode="d" horiz-adv-x="1206" d="M57 365l47 317q27 180 140.5 281.5t304.5 101.5q86 0 155.5 -34t110.5 -101l72 483h272l-207 -1413h-229l-25 121q-59 -72 -143 -104.5t-164 -32.5q-190 0 -275 99q-65 76 -65 201q0 38 6 81zM332 367q-2 -17 -2 -33q0 -63 39 -92q49 -37 139 -37q80 0 145.5 37t77.5 116 l47 324q2 13 2 25q0 65 -47 97q-55 38 -141 38q-78 0 -140.5 -42t-74.5 -120z" />
<glyph unicode="e" horiz-adv-x="1144" d="M49 307q0 18 3 39l7 49l45 312q12 82 62.5 147.5t123 111.5t162 71.5t179.5 25.5q86 0 159.5 -21.5t127 -61.5t84 -96.5t30.5 -127.5q0 -12 -2 -28.5t-6 -47.5l-35 -234h-647l-6 -47q-2 -10 -4 -26.5t-2 -26.5q0 -35 17.5 -59.5t48 -40t70.5 -22.5t85 -7q96 0 177 19.5 t138 48.5l60 -189q-102 -59 -205 -83.5t-223 -24.5q-90 0 -172 19.5t-143.5 59t-97.5 100t-36 140.5zM371 633h389l6 41q2 10 3 21.5t1 23.5q0 59 -52 90t-122 31q-35 0 -71 -9.5t-66.5 -28t-51 -45t-26.5 -59.5z" />
<glyph unicode="f" horiz-adv-x="716" d="M63 0l125 862h-120l26 182h121l16 113q12 78 48 135.5t90.5 95t120 56t135.5 18.5q74 0 143.5 -10t118.5 -29l-72 -209q-37 8 -73.5 13.5t-96.5 5.5q-53 0 -93 -24.5t-48 -78.5l-15 -86h242l-26 -182h-242l-125 -862h-275z" />
<glyph unicode="g" horiz-adv-x="1185" d="M-55 -219q0 98 51 158.5t137 95.5q-74 43 -74 125q0 59 42 115.5t116 89.5q-103 76 -103 215q0 30 5 63l8 59q14 92 58 160t112 113t154 66.5t182 21.5q137 0 231 -45l258 90l43 -170l-161 -49q31 -54 31 -125q0 -28 -5 -59l-10 -78q-14 -92 -58 -156.5t-111 -105.5 t-151 -60.5t-178 -19.5q-45 0 -84 4t-76 12q-16 -12 -27 -30.5t-11 -39.5q0 -29 20.5 -47t54.5 -26l570 -82l-35 -238q-10 -76 -53 -132t-106.5 -93t-143.5 -55.5t-164 -18.5h-148q-80 0 -148.5 15.5t-118.5 46t-78.5 75.5t-28.5 105zM217 -162q0 -45 42 -65.5t99 -20.5h129 q72 0 117 23.5t55 77.5l11 59l-351 45q-47 -10 -74.5 -41t-27.5 -78zM391 610q-2 -12 -2 -22q0 -51 40 -76q48 -31 120 -31q33 0 65.5 6.5t58 21.5t44 39.5t22.5 61.5l13 84q1 10 1 19q0 55 -42 81q-49 31 -113 31q-33 0 -65.5 -7t-59.5 -23.5t-45 -41t-25 -59.5z" />
<glyph unicode="h" horiz-adv-x="1232" d="M31 0l207 1413h276l-80 -536q27 41 67 75.5t87 59t97 38t99 13.5q188 1 255 -97q48 -69 48 -181q0 -45 -8 -97l-100 -688h-277l99 672q2 15 2 29q0 53 -31 83q-39 38 -113 39q-43 0 -86 -12t-79.5 -35.5t-61 -55.5t-31.5 -69l-94 -651h-276z" />
<glyph unicode="i" horiz-adv-x="587" d="M41 0l152 1044h278l-152 -1044h-278zM217 1217l29 196h280l-28 -196h-281z" />
<glyph unicode="j" horiz-adv-x="620" d="M-264 -207q82 18 142.5 41t103.5 58.5t68.5 90t37.5 136.5l135 925h275l-140 -956q-16 -119 -61 -206t-119 -149.5t-177 -102.5t-237 -62zM248 1217l28 196h277l-29 -196h-276z" />
<glyph unicode="k" horiz-adv-x="1120" d="M31 0l207 1413h276l-108 -733h65l315 364h316l-426 -489l305 -555h-319l-228 434h-63l-64 -434h-276z" />
<glyph unicode="l" horiz-adv-x="587" d="M41 0l207 1413h278l-207 -1413h-278z" />
<glyph unicode="m" horiz-adv-x="1830" d="M41 0l152 1044h208v-157q27 39 66 71.5t85 55t94 36t95 13.5q111 0 184.5 -44t84.5 -142q27 37 67.5 71.5t90 60t103.5 41t109 15.5q172 0 246 -79q55 -59 56 -169q0 -37 -7 -80l-108 -737h-275l99 670q3 20 3 37q0 51 -22 81q-29 40 -112 39q-84 0 -148.5 -51 t-77.5 -129l-94 -647h-276l98 672q3 21 3 39q1 51 -21 79q-28 38 -107 39q-41 0 -79 -14t-68.5 -38.5t-51 -57.5t-26.5 -70l-95 -649h-276z" />
<glyph unicode="n" horiz-adv-x="1234" d="M31 0l151 1044h217l4 -165q74 86 163 135t200 49q194 -1 268 -97q55 -71 54 -187q0 -42 -7 -91l-100 -688h-276l96 655q3 21 3 39q0 131 -159 131q-41 0 -82 -13t-74.5 -35.5t-57 -55.5t-30.5 -70l-94 -651h-276z" />
<glyph unicode="o" horiz-adv-x="1181" d="M55 362l47 322q12 90 59.5 160.5t118 119t162 74t195.5 25.5q106 0 190 -25.5t139 -75.5q54 -50 76 -120q15 -46 15 -99q0 -28 -4 -59l-47 -322q-12 -90 -61.5 -160.5t-121 -119.5t-161 -74.5t-183.5 -25.5q-96 0 -180 25.5t-143 74.5q-58 50 -86 120q-19 49 -19 107 q0 26 4 53zM332 381q-2 -12 -2 -24q0 -63 47 -97q55 -41 137 -41q39 0 76 10.5t66.5 31t50 50t26.5 70.5l41 285q2 14 2 26q0 24 -7 42q-11 28 -35.5 48.5t-58.5 30.5t-73 10t-78 -10t-70.5 -30.5t-53 -50.5t-27.5 -66z" />
<glyph unicode="p" horiz-adv-x="1204" d="M-37 -440l215 1484h230l26 -124q55 72 141.5 106.5t165.5 34.5q188 0 273 -101q64 -75 64 -196q0 -41 -7 -88l-45 -318q-27 -180 -140.5 -279t-301.5 -99q-86 0 -156 31.5t-111 101.5l-79 -553h-275zM354 360q-2 -15 -2 -28q0 -63 46 -94q55 -37 139 -37q78 0 142 44 t75 122l45 303q2 18 2 33q0 65 -39 96q-49 39 -139 39q-39 0 -77 -9.5t-67.5 -29t-50 -49t-27.5 -68.5z" />
<glyph unicode="q" horiz-adv-x="1204" d="M57 358l45 318q29 184 142.5 284.5t304.5 100.5q80 0 153.5 -34t112.5 -105l59 122h230l-215 -1484h-273l80 553q-63 -70 -141 -101.5t-164 -31.5q-190 0 -275 99q-65 76 -65 199q0 38 6 80zM332 362q-2 -15 -2 -29q0 -57 40 -91q50 -41 128 -41q43 0 81.5 9t70.5 28.5 t53.5 49t27.5 72.5l47 322q2 12 2 24q0 62 -46 94q-54 38 -134 38q-90 0 -150.5 -38t-72.5 -126z" />
<glyph unicode="r" horiz-adv-x="792" d="M27 0l151 1044h217l19 -163q41 74 114.5 129t163.5 55q35 0 61.5 -3t51.5 -13l-80 -273q-16 4 -48 7t-65 3q-39 0 -75.5 -13t-66.5 -36.5t-50.5 -58.5t-26.5 -78l-88 -600h-278z" />
<glyph unicode="s" horiz-adv-x="1026" d="M-12 113l125 188q25 -20 60.5 -38.5t75.5 -33t82 -22.5t81 -8q104 0 147 28.5t43 81.5q0 39 -45 62.5t-149 46.5q-164 37 -234 107.5t-70 172.5q0 94 40 163t104.5 114t146.5 66.5t166 21.5q111 0 207 -25.5t172 -81.5l-115 -186q-53 31 -117.5 51.5t-142.5 20.5 q-82 0 -136 -27t-54 -88q0 -39 39 -61t139 -45q168 -33 239.5 -99.5t71.5 -169.5q0 -90 -36.5 -159.5t-99 -116.5t-144.5 -71.5t-174 -24.5q-111 0 -226.5 32.5t-195.5 100.5z" />
<glyph unicode="t" horiz-adv-x="837" d="M55 860l27 184h141l37 244h275l-37 -244h247l-26 -184h-248l-74 -514q-2 -15 -2 -28q0 -40 22 -61q30 -28 83 -28q72 0 120 11.5t54 15.5l16 -211q-41 -16 -112.5 -35.5t-198.5 -19.5q-145 0 -217 70q-53 52 -53 157q0 37 6 80l82 563h-142z" />
<glyph unicode="u" horiz-adv-x="1228" d="M78 299q0 16 2 33.5t6 48.5l96 663h277l-90 -618q-2 -23 -4.5 -41t-2.5 -35q0 -66 49.5 -98.5t123.5 -32.5q80 0 144 41t77 119l94 665h276l-98 -684q-14 -92 -61 -162.5t-119 -119.5t-161 -73.5t-185 -24.5q-92 0 -169 21.5t-134.5 61t-89 99t-31.5 137.5z" />
<glyph unicode="v" horiz-adv-x="1124" d="M92 1044h293l111 -739l323 739h289l-528 -1044h-265z" />
<glyph unicode="w" horiz-adv-x="1552" d="M111 1044h268l24 -753l302 753h219l96 -747l231 747h267l-406 -1044h-258l-86 702l-283 -702h-268z" />
<glyph unicode="x" horiz-adv-x="1103" d="M-74 0l426 510l-260 534h311l140 -348l233 348h320l-422 -534l278 -510h-317l-150 319l-243 -319h-316z" />
<glyph unicode="y" horiz-adv-x="1118" d="M-4 -238q37 0 77 10.5t77.5 29t69.5 46t50 66.5l33 68l-203 1062h291l98 -731l314 731h291l-570 -1167q-86 -176 -222 -246.5t-306 -74.5v206z" />
<glyph unicode="z" horiz-adv-x="983" d="M-18 0l22 156l545 669h-438l30 219h756l-18 -137l-549 -684h477l-33 -223h-792z" />
<glyph unicode="{" horiz-adv-x="634" d="M44 -29.5q-1 74.5 19 146.5l115 401l-88 82l119 100l-8 359q0 80 27.5 155.5t78.5 140t125 116t164 81.5l90 -112q-63 -31 -108.5 -75t-75 -94t-44 -104.5t-14.5 -103.5l-10 -367l-102 -90l82 -76l-111 -426q-14 -57 -13 -112t18.5 -105.5t51 -92.5t86.5 -73l-131 -122 q-94 41 -153.5 99t-88 128t-29.5 144.5z" />
<glyph unicode="|" horiz-adv-x="473" d="M-31 -301l246 1694h221l-246 -1694h-221z" />
<glyph unicode="}" horiz-adv-x="667" d="M-55 -279q147 78 213.5 181.5t66.5 201.5l15 428l106 74l-80 86l101 371q12 45 10 97t-21.5 102.5t-55.5 95.5t-89 80l111 108q88 -29 150.5 -83t96 -120.5t39.5 -141.5t-16 -142l-113 -359l94 -100l-120 -82l2 -401q0 -70 -29 -146.5t-83 -147.5t-133 -128t-179 -88z " />
<glyph unicode="~" horiz-adv-x="837" d="M199 1288q47 66 101 104t118 38q33 0 64.5 -13.5t62 -29t59.5 -28.5t55 -13q43 2 68 23.5t39 43.5l90 -82q-12 -16 -30.5 -41.5t-43 -50.5t-56.5 -43t-69 -18q-39 0 -71.5 13t-63 29.5t-63.5 30t-72 13.5q-37 0 -64.5 -27t-43.5 -43z" />
<glyph unicode="&#xa1;" horiz-adv-x="542" d="M-18 -352l165 944h248l-106 -944h-307zM168 838l33 223h278l-33 -223h-278z" />
<glyph unicode="&#xa2;" horiz-adv-x="1026" d="M70 358l47 324q12 88 53 157.5t105.5 118t147.5 75t181 30.5l76 272l170 -28l-78 -254q123 -27 207 -99l-127 -196q-43 31 -94 48t-123 17q-96 0 -166 -43t-84 -129l-37 -260q-6 -45 7.5 -77.5t41 -54t66.5 -32t86 -10.5q70 0 128 15.5t111 43.5l66 -194 q-78 -55 -171 -77.5t-198 -22.5h-16l-78 -254l-166 26l76 248q-127 35 -190.5 122t-40.5 234z" />
<glyph unicode="&#xa3;" horiz-adv-x="1126" d="M-23 0l23 150q86 6 142.5 28.5t90 58t50 84t24.5 103.5l8 158h-258l29 192h240l12 187q14 113 72.5 196.5t149.5 139t210 84t258 30.5l-37 -240q-174 0 -267 -52t-108 -169l-10 -176h336l-29 -192h-317q-2 -41 -3 -75t-1 -50q-6 -39 -12.5 -69t-15.5 -54.5t-24.5 -47 t-39.5 -46.5h456l-34 -240h-945z" />
<glyph unicode="&#xa5;" horiz-adv-x="1320" d="M76 305l16 119h385l15 94l-17 47h-364l18 125h305l-241 703h315l162 -602l344 602h315l-450 -703h284l-18 -125h-346l-29 -49l-14 -92h368l-16 -119h-369l-45 -305h-278l45 305h-385z" />
<glyph unicode="&#xa6;" horiz-adv-x="473" d="M-6 -215l98 680h176l-98 -680h-176zM133 745l100 682h177l-101 -682h-176z" />
<glyph unicode="&#xa7;" horiz-adv-x="1175" d="M10 -248l142 125q12 -29 39.5 -55.5t62.5 -47t75 -31.5t77 -11q45 0 88 9t76.5 32.5t55 63.5t21.5 104q0 51 -33.5 95t-85 82t-109 68.5t-106.5 53.5q-111 53 -169 120.5t-58 184.5q0 55 15.5 107.5t42 94t60.5 72.5t68 47q-12 29 -17 66t-5 65q0 102 38 179t102.5 129.5 t148.5 79t178 26.5q129 0 222 -43t146 -123l-120 -133q-43 55 -117 89t-156 34q-94 0 -159.5 -54.5t-65.5 -146.5q0 -49 26.5 -85t67.5 -64.5t89 -51t91 -42.5q59 -29 110.5 -64t89.5 -78t59.5 -97t21.5 -122q0 -98 -45 -186t-139 -135q14 -29 20 -65t6 -64 q0 -102 -36.5 -181.5t-101 -132.5t-151 -81.5t-184.5 -28.5q-129 0 -230.5 51t-150.5 145zM299 594q0 -41 16.5 -70.5t45 -52t64.5 -41t77 -37.5q59 -31 114.5 -61.5t108.5 -71.5q12 2 28.5 15.5t31 31t23.5 38.5t9 44q0 78 -63.5 126t-155.5 91q-59 29 -106.5 56.5 t-100.5 68.5q-39 -10 -65.5 -50t-26.5 -87z" />
<glyph unicode="&#xa8;" horiz-adv-x="821" d="M190 1206l29 199h195l-29 -199h-195zM575 1206l29 199h191l-29 -199h-191z" />
<glyph unicode="&#xa9;" horiz-adv-x="1638" d="M100 618q0 172 66.5 323t178.5 261.5t260.5 174t314.5 63.5q133 0 243.5 -49.5t190.5 -133t124 -199.5t44 -247q0 -172 -66.5 -320.5t-179.5 -258t-259.5 -172t-307.5 -62.5q-135 0 -247 48t-193 131t-125 196.5t-44 244.5zM233 637q0 -109 36 -201t101.5 -161.5 t156.5 -108.5t202 -39q131 0 251 51t211 141.5t145.5 212t54.5 263.5q0 106 -36 199t-100.5 162t-154.5 109t-201 40q-133 0 -254 -52.5t-212 -142.5t-145.5 -212t-54.5 -261zM446 651l15 97q10 72 49 132t96.5 104t127 68.5t143.5 24.5q51 0 90 -8t71.5 -24.5t60 -44 t56.5 -66.5l-117 -119q-29 43 -80 68.5t-106 25.5q-74 0 -134.5 -45t-70.5 -116l-14 -97q-10 -76 41 -117.5t129 -44.5q53 0 114.5 23t108.5 63l70 -122q-31 -31 -72 -54.5t-85 -41t-88 -25.5t-83 -8q-76 0 -139.5 23.5t-107.5 66.5t-64.5 103.5t-10.5 133.5z" />
<glyph unicode="&#xaa;" horiz-adv-x="731" d="M123 926l4 26q14 98 114.5 142.5t274.5 48.5l8 49q6 43 -15.5 62.5t-80.5 19.5q-51 0 -104.5 -14.5t-81.5 -30.5l-25 121q47 25 114.5 42t145.5 17q115 0 169 -54.5t38 -164.5l-61 -422h-127l-11 78q-35 -45 -88 -65.5t-114 -20.5q-84 0 -128 43t-32 123zM287 948 q-4 -29 18.5 -40t59.5 -11q43 0 79.5 22.5t42.5 57.5l9 61q-86 -2 -144.5 -18t-62.5 -53z" />
<glyph unicode="&#xab;" horiz-adv-x="972" d="M43 356l371 371l65 -82l-235 -285l151 -274l-88 -86zM414 356l370 371l64 -82l-234 -285l152 -274l-88 -86z" />
<glyph unicode="&#xac;" horiz-adv-x="942" d="M72 551l24 164h731l-51 -350h-158l27 186h-573z" />
<glyph unicode="&#xad;" horiz-adv-x="710" d="M57 485l33 226h512l-33 -226h-512z" />
<glyph unicode="&#xae;" horiz-adv-x="1638" d="M98 610q0 178 64.5 330t176.5 263.5t261.5 174t319.5 62.5q135 0 246.5 -47t190.5 -130t122 -197t43 -247q0 -178 -64.5 -328.5t-175.5 -260t-259.5 -171t-313.5 -61.5q-139 0 -252 46t-193 127t-123 193.5t-43 245.5zM231 631q0 -109 36 -201t100.5 -159.5t156.5 -105.5 t205 -38q135 0 256 51t211 140.5t142.5 212t52.5 268.5q0 106 -35 199.5t-99.5 161t-155.5 106.5t-202 39q-137 0 -259 -51.5t-212 -142.5t-143.5 -214t-53.5 -266zM481 332l111 764h336q100 0 156.5 -63.5t41.5 -164.5l-6 -37q-10 -76 -58 -124t-118 -70l146 -305h-177 l-137 286h-100l-41 -286h-154zM692 735h162q39 0 75 21.5t42 62.5l6 43q6 41 -20.5 71t-67.5 30h-162z" />
<glyph unicode="&#xaf;" horiz-adv-x="927" d="M207 1305l16 114h680l-16 -114h-680z" />
<glyph unicode="&#xb0;" horiz-adv-x="788" d="M152 1106l8 57q8 57 37.5 103.5t73.5 78t99.5 49t114.5 19.5q57 -2 107.5 -19.5t86.5 -49t53.5 -77.5t8.5 -104l-8 -57q-8 -57 -38.5 -102.5t-76 -77t-101.5 -48t-114 -16.5q-59 0 -109 16.5t-84 48t-50.5 77t-7.5 102.5zM317 1092q-6 -43 28 -65.5t79 -22.5 q47 0 91 21.5t50 66.5l13 90q6 45 -30 68.5t-83 23.5q-45 0 -87 -24.5t-48 -67.5z" />
<glyph unicode="&#xb1;" horiz-adv-x="1146" d="M-4 0l24 162h928l-24 -162h-928zM113 623l26 176h330l47 321h197l-47 -321h344l-27 -176h-344l-49 -342h-197l49 342h-329z" />
<glyph unicode="&#xb2;" horiz-adv-x="878" d="M152 702l14 97q16 111 86 171t186 105q27 10 55.5 22.5t53 26t41 30.5t16.5 36q0 57 -102 57q-76 0 -126 -20.5t-100 -48.5l-40 131q47 39 132.5 70.5t200.5 31.5q104 0 171 -42t67 -134q0 -94 -56.5 -148.5t-134.5 -89.5q-72 -35 -135 -60.5t-80 -72.5h357l-25 -162 h-581z" />
<glyph unicode="&#xb3;" horiz-adv-x="757" d="M104 791l117 96q20 -35 70.5 -59.5t109.5 -24.5q53 0 93.5 14t46.5 47l2 21q6 45 -34 66.5t-87 21.5h-133l20 131h127q20 0 44 3t43.5 12t33.5 23.5t18 37.5l3 18q6 35 -31 47t-78 12q-61 0 -115.5 -17t-83.5 -50l-65 108q23 27 58.5 47.5t78.5 36t89 23.5t89 8 q53 0 104.5 -8t89.5 -30.5t56 -61.5t10 -101l-2 -18q-4 -31 -20.5 -56.5t-39 -46t-48 -34t-49.5 -19.5q23 -8 46 -22.5t40.5 -33.5t26.5 -44t5 -53l-4 -31q-10 -61 -41.5 -101t-77 -62.5t-99.5 -32t-107 -9.5q-104 0 -189.5 37t-116.5 105z" />
<glyph unicode="&#xb4;" horiz-adv-x="575" d="M168 1167l266 320l156 -101l-303 -284z" />
<glyph unicode="&#xb6;" horiz-adv-x="1124" d="M145 1040l9 50q8 66 38.5 121t76.5 95t106.5 62.5t128.5 24.5h540l-202 -1393h-142l185 1270h-162l-184 -1270h-152l111 756h-86q-133 0 -210 74.5t-57 209.5z" />
<glyph unicode="&#xb7;" horiz-adv-x="430" d="M82 408l37 251h272l-37 -251h-272z" />
<glyph unicode="&#xb8;" horiz-adv-x="550" d="M-41 -426q10 6 34.5 16.5t51.5 27.5t46.5 40t19.5 53q0 47 -33 73t-84 38l61 178h152l-39 -102q12 -4 32.5 -15.5t41 -31t36 -50t15.5 -73.5q0 -98 -81 -162t-206 -105z" />
<glyph unicode="&#xb9;" horiz-adv-x="505" d="M131 1208l27 185h340l-101 -695h-204l73 510h-135z" />
<glyph unicode="&#xba;" horiz-adv-x="786" d="M139 1022l21 141q8 57 38.5 102.5t74.5 77t98.5 49t111.5 17.5t107.5 -17.5t86.5 -49t53.5 -76.5t8.5 -103l-20 -141q-8 -57 -39 -103.5t-76 -78t-100 -48t-113 -16.5q-57 0 -106 17.5t-85 49t-52.5 77t-8.5 102.5zM315 1038q-8 -59 16.5 -87.5t86.5 -28.5q20 0 40.5 5 t39 15t31 25.5t14.5 36.5l26 172q6 41 -27.5 62.5t-74.5 21.5q-45 0 -86 -23t-45 -63z" />
<glyph unicode="&#xbb;" horiz-adv-x="962" d="M-14 86l233 274l-153 285l90 82l260 -371l-367 -356zM356 86l234 274l-154 285l88 82l262 -371l-368 -356z" />
<glyph unicode="&#xbc;" horiz-adv-x="1380" d="M-33 0l1057 1393h225l-1046 -1393h-236zM174 1208l27 185h340l-101 -695h-207l74 510h-133zM526 143l17 113l393 477h260l-63 -440h118l-22 -150h-119l-20 -141h-195l20 141h-389zM754 293h184l37 256h-19z" />
<glyph unicode="&#xbd;" horiz-adv-x="1435" d="M-33 0l1057 1393h225l-1046 -1393h-236zM174 1208l27 185h340l-101 -695h-207l74 510h-133zM623 -14l14 96q16 111 85 170t185 106q25 8 54.5 20.5t55 26t42 31t16.5 37.5q0 55 -100 55q-76 0 -127 -19.5t-100 -47.5l-41 131q49 39 133.5 70.5t197.5 31.5 q109 0 175.5 -43t66.5 -135t-56.5 -147.5t-136.5 -89.5q-35 -16 -69.5 -31t-64 -29t-51 -30.5t-28.5 -41.5h357l-25 -161h-583z" />
<glyph unicode="&#xbe;" horiz-adv-x="1572" d="M86 791l117 96q18 -35 68.5 -58.5t111.5 -23.5q47 0 90 13t47 44l4 23q2 23 -7 39t-27.5 27.5t-41 16.5t-45.5 5h-133l19 131h127q18 0 41.5 3t45 12t36 23.5t18.5 37.5l2 18q2 18 -7 29.5t-25.5 17.5t-37 9t-40.5 3q-59 0 -114.5 -18t-84.5 -49l-66 108q47 53 136.5 84 t179.5 31q51 0 101 -8t89 -30.5t59.5 -61.5t12.5 -101l-2 -18q-4 -33 -20.5 -59.5t-39 -46t-48 -32t-50.5 -18.5q23 -8 45.5 -21t40 -33.5t27.5 -45.5t6 -53l-4 -31q-10 -66 -41 -105.5t-76 -61t-99.5 -30t-109.5 -8.5q-49 0 -98 9.5t-90 28t-72 44t-45 60.5zM184 0 l1057 1393h227l-1046 -1393h-238zM743 141l17 113l391 477h260l-63 -440h118l-22 -150h-119l-20 -141h-195l20 141h-387zM969 291h184l37 256h-16z" />
<glyph unicode="&#xbf;" horiz-adv-x="882" d="M-63 -45l8 59q6 47 25.5 84t46 68t57 57.5t61.5 52.5q37 29 65.5 54.5t48 53.5t33 59.5t19.5 72.5l12 92h265l-19 -125q-10 -76 -54 -134t-116 -116q-25 -23 -50.5 -45t-48 -45.5t-37.5 -48t-20 -49.5l-8 -55q-4 -31 4.5 -51.5t26.5 -32.5t43 -17.5t53 -5.5 q66 0 139.5 31t126.5 66l74 -191q-41 -29 -91 -54.5t-103.5 -47t-110 -33.5t-111.5 -12q-174 0 -269 74.5t-70 238.5zM307 809l37 254h320l-37 -254h-320z" />
<glyph unicode="&#xc0;" horiz-adv-x="1329" d="M-49 0l655 1405h307l238 -1405h-299l-41 319h-422l-137 -319h-301zM475 543h316l-78 542zM553 1796l188 100l166 -313l-139 -80z" />
<glyph unicode="&#xc1;" horiz-adv-x="1329" d="M-49 0l655 1405h307l238 -1405h-299l-41 319h-422l-137 -319h-301zM475 543h316l-78 542zM649 1569l266 319l156 -100l-303 -285z" />
<glyph unicode="&#xc2;" horiz-adv-x="1329" d="M-49 0l655 1405h307l238 -1405h-299l-41 319h-422l-137 -319h-301zM475 543h316l-78 542zM522 1602l295 186l240 -193l-94 -100l-172 115l-205 -113z" />
<glyph unicode="&#xc3;" horiz-adv-x="1329" d="M-49 0l655 1405h307l238 -1405h-299l-41 319h-422l-137 -319h-301zM459 1604q47 66 101 103.5t116 37.5q33 0 65.5 -13.5t63.5 -28.5t59.5 -28.5t55.5 -13.5q43 2 67.5 23.5t38.5 44.5l88 -82q-10 -16 -28.5 -42t-43 -50.5t-56.5 -43t-68 -18.5q-39 0 -72 13.5 t-63.5 29.5t-63.5 29.5t-72 13.5q-37 0 -64.5 -26.5t-43.5 -43.5zM475 543h316l-78 542z" />
<glyph unicode="&#xc4;" horiz-adv-x="1329" d="M-49 0l655 1405h307l238 -1405h-299l-41 319h-422l-137 -319h-301zM475 543h316l-78 542zM487 1522l29 198h195l-29 -198h-195zM872 1522l29 198h191l-29 -198h-191z" />
<glyph unicode="&#xc5;" horiz-adv-x="1329" d="M-49 0l655 1405h307l238 -1405h-299l-41 319h-422l-137 -319h-301zM475 543h316l-78 542zM637 1636q0 76 53 127.5t123 51.5q59 0 97 -39t38 -99q0 -37 -15 -69.5t-41 -57t-58.5 -39t-67.5 -14.5q-57 0 -93 41t-36 98zM715 1645q0 -29 18.5 -48.5t44.5 -19.5 q35 0 63.5 24.5t28.5 63.5q0 29 -20.5 50.5t-48.5 21.5q-31 0 -58.5 -26.5t-27.5 -65.5z" />
<glyph unicode="&#xc6;" horiz-adv-x="1857" d="M-74 0l1039 1393h852l-35 -242h-475l-47 -326h391l-33 -223h-391l-53 -362h520l-35 -240h-793l45 315h-434l-227 -315h-324zM614 539h330l86 585z" />
<glyph unicode="&#xc7;" horiz-adv-x="1163" d="M86 438l76 514q14 106 68.5 192.5t134 146t179 91t206.5 31.5q150 0 245 -33.5t172 -105.5l-141 -201q-53 45 -122 70.5t-171 25.5q-115 0 -197.5 -60t-99.5 -173l-71 -483q-16 -121 51 -177.5t186 -56.5q186 0 313 84l74 -197q-86 -61 -178 -90.5t-219 -33.5l-31 -84 q12 -4 32.5 -15.5t41 -31t36 -50t15.5 -73.5q0 -98 -81 -162t-208 -105l-47 113q10 6 36 16.5t51.5 27.5t46 40t20.5 53q0 47 -33 73t-86 38l57 164q-92 12 -164.5 46t-119.5 90t-66.5 135t-5.5 181z" />
<glyph unicode="&#xc8;" horiz-adv-x="1150" d="M49 0l203 1393h844l-35 -242h-567l-48 -328h453l-35 -231h-452l-52 -352h613l-35 -240h-889zM467 1784l188 100l166 -313l-139 -80z" />
<glyph unicode="&#xc9;" horiz-adv-x="1150" d="M49 0l203 1393h844l-35 -242h-567l-48 -328h453l-35 -231h-452l-52 -352h613l-35 -240h-889zM592 1556l266 320l156 -100l-303 -285z" />
<glyph unicode="&#xca;" horiz-adv-x="1150" d="M49 0l203 1393h844l-35 -242h-567l-48 -328h453l-35 -231h-452l-52 -352h613l-35 -240h-889zM440 1589l295 187l240 -193l-94 -100l-172 114l-205 -112z" />
<glyph unicode="&#xcb;" horiz-adv-x="1150" d="M49 0l203 1393h844l-35 -242h-567l-48 -328h453l-35 -231h-452l-52 -352h613l-35 -240h-889zM403 1509l29 199h195l-29 -199h-195zM788 1509l29 199h191l-29 -199h-191z" />
<glyph unicode="&#xcc;" horiz-adv-x="634" d="M66 0l202 1393h275l-203 -1393h-274zM199 1784l188 100l166 -313l-139 -80z" />
<glyph unicode="&#xcd;" horiz-adv-x="634" d="M66 0l202 1393h275l-203 -1393h-274zM291 1554l266 320l156 -100l-303 -285z" />
<glyph unicode="&#xce;" horiz-adv-x="634" d="M66 0l202 1393h275l-203 -1393h-274zM170 1589l295 187l240 -193l-95 -100l-172 114l-205 -112z" />
<glyph unicode="&#xcf;" horiz-adv-x="634" d="M66 0l202 1393h275l-203 -1393h-274zM129 1509l29 199h194l-28 -199h-195zM514 1509l29 199h190l-28 -199h-191z" />
<glyph unicode="&#xd0;" horiz-adv-x="1343" d="M10 586l31 215h131l86 592h496q117 0 211 -30t155.5 -90.5t88 -151.5t8.5 -216l-60 -420q-18 -125 -74.5 -216t-140.5 -151.5t-189.5 -89t-220.5 -28.5h-477l86 586h-131zM362 240h205q57 0 109.5 14t95.5 46t74 83t41 123l55 377q10 70 -3 120t-44 82.5t-77 49t-99 16.5 h-223l-52 -350h271l-31 -215h-270z" />
<glyph unicode="&#xd1;" horiz-adv-x="1435" d="M51 0l203 1393h264l443 -965l141 965h254l-203 -1393h-260l-449 961l-139 -961h-254zM530 1591q47 66 101.5 104t116.5 38q33 0 65.5 -13.5t63 -29t59.5 -28.5t55 -13q43 2 67.5 23.5t39.5 43.5l88 -82q-10 -16 -28.5 -41.5t-43 -50t-56.5 -43t-69 -18.5q-39 0 -71.5 13 t-63.5 29.5t-63.5 30t-71.5 13.5q-37 0 -64.5 -27t-44.5 -43z" />
<glyph unicode="&#xd2;" d="M92 436l76 522q16 106 69.5 191.5t133.5 144t182 89t217 30.5h35q113 0 207 -31.5t156.5 -90t91 -142.5t14.5 -191l-76 -522q-16 -111 -67.5 -196.5t-131 -143t-182 -87t-221.5 -29.5h-33q-119 0 -213 28.5t-157.5 86t-90 143.5t-10.5 198zM373 455q-16 -123 45 -179.5 t180 -56.5h33q119 0 197.5 57.5t95.5 178.5l71 481q14 113 -50 174t-177 61h-35q-113 0 -192.5 -60t-96.5 -173zM573 1804l189 101l166 -314l-140 -80z" />
<glyph unicode="&#xd3;" d="M92 436l76 522q16 106 69.5 191.5t133.5 144t182 89t217 30.5h35q113 0 207 -31.5t156.5 -90t91 -142.5t14.5 -191l-76 -522q-16 -111 -67.5 -196.5t-131 -143t-182 -87t-221.5 -29.5h-33q-119 0 -213 28.5t-157.5 86t-90 143.5t-10.5 198zM373 455q-16 -123 45 -179.5 t180 -56.5h33q119 0 197.5 57.5t95.5 178.5l71 481q14 113 -50 174t-177 61h-35q-113 0 -192.5 -60t-96.5 -173zM682 1575l266 319l156 -100l-303 -285z" />
<glyph unicode="&#xd4;" d="M92 436l76 522q16 106 69.5 191.5t133.5 144t182 89t217 30.5h35q113 0 207 -31.5t156.5 -90t91 -142.5t14.5 -191l-76 -522q-16 -111 -67.5 -196.5t-131 -143t-182 -87t-221.5 -29.5h-33q-119 0 -213 28.5t-157.5 86t-90 143.5t-10.5 198zM373 455q-16 -123 45 -179.5 t180 -56.5h33q119 0 197.5 57.5t95.5 178.5l71 481q14 113 -50 174t-177 61h-35q-113 0 -192.5 -60t-96.5 -173zM559 1610l295 186l240 -192l-95 -101l-172 115l-204 -113z" />
<glyph unicode="&#xd5;" d="M92 436l76 522q16 106 69.5 191.5t133.5 144t182 89t217 30.5h35q113 0 207 -31.5t156.5 -90t91 -142.5t14.5 -191l-76 -522q-16 -111 -67.5 -196.5t-131 -143t-182 -87t-221.5 -29.5h-33q-119 0 -213 28.5t-157.5 86t-90 143.5t-10.5 198zM373 455q-16 -123 45 -179.5 t180 -56.5h33q119 0 197.5 57.5t95.5 178.5l71 481q14 113 -50 174t-177 61h-35q-113 0 -192.5 -60t-96.5 -173zM481 1612q47 66 101.5 103.5t117.5 37.5q33 0 65 -13.5t62.5 -28.5t59 -28.5t55.5 -13.5q43 2 67.5 23.5t39.5 44.5l90 -82q-12 -16 -30.5 -42t-43.5 -50.5 t-56.5 -43t-68.5 -18.5q-39 0 -71.5 13.5t-63.5 30t-63.5 29.5t-71.5 13q-37 0 -64.5 -26.5t-44.5 -42.5z" />
<glyph unicode="&#xd6;" d="M92 436l76 522q16 106 69.5 191.5t133.5 144t182 89t217 30.5h35q113 0 207 -31.5t156.5 -90t91 -142.5t14.5 -191l-76 -522q-16 -111 -67.5 -196.5t-131 -143t-182 -87t-221.5 -29.5h-33q-119 0 -213 28.5t-157.5 86t-90 143.5t-10.5 198zM373 455q-16 -123 45 -179.5 t180 -56.5h33q119 0 197.5 57.5t95.5 178.5l71 481q14 113 -50 174t-177 61h-35q-113 0 -192.5 -60t-96.5 -173zM510 1528l29 198h194l-28 -198h-195zM895 1528l29 198h190l-29 -198h-190z" />
<glyph unicode="&#xd7;" horiz-adv-x="1230" d="M-8 0l471 510l-309 494h219l221 -355l328 355h217l-453 -494l324 -510h-232l-225 367l-332 -367h-229z" />
<glyph unicode="&#xd8;" d="M80 -147l135 223q-74 55 -107.5 146t-15.5 214l76 522q16 106 69.5 191.5t133.5 144t182 89t217 30.5h35q113 0 211 -35l112 183h154l-147 -244q80 -59 118.5 -149.5t20.5 -209.5l-76 -522q-16 -111 -67.5 -196.5t-131 -143t-182 -87t-221.5 -29.5h-33q-61 0 -118.5 8 t-104.5 24l-98 -159h-162zM373 455q-10 -66 12 -109l492 807q-49 18 -109 18h-35q-113 0 -192.5 -60t-96.5 -173zM477 238q27 -10 56.5 -14.5t64.5 -4.5h33q119 0 197.5 57.5t95.5 178.5l71 481q10 78 -20 123z" />
<glyph unicode="&#xd9;" horiz-adv-x="1433" d="M113 369q0 29 3 58.5t7 64.5l131 901h276l-124 -873q-4 -35 -7.5 -58.5t-3.5 -45.5q0 -51 19.5 -88t51.5 -61.5t76 -36t93 -11.5q55 0 106.5 15.5t94.5 45t71.5 75.5t38.5 108l133 930h279l-139 -944q-16 -117 -72.5 -205t-139.5 -146.5t-186.5 -88t-216.5 -29.5 q-104 0 -194.5 23.5t-156 72.5t-103 121.5t-37.5 171.5zM598 1784l188 100l166 -313l-139 -80z" />
<glyph unicode="&#xda;" horiz-adv-x="1433" d="M113 369q0 29 3 58.5t7 64.5l131 901h276l-124 -873q-4 -35 -7.5 -58.5t-3.5 -45.5q0 -51 19.5 -88t51.5 -61.5t76 -36t93 -11.5q55 0 106.5 15.5t94.5 45t71.5 75.5t38.5 108l133 930h279l-139 -944q-16 -117 -72.5 -205t-139.5 -146.5t-186.5 -88t-216.5 -29.5 q-104 0 -194.5 23.5t-156 72.5t-103 121.5t-37.5 171.5zM696 1554l267 320l155 -100l-303 -285z" />
<glyph unicode="&#xdb;" horiz-adv-x="1433" d="M113 369q0 29 3 58.5t7 64.5l131 901h276l-124 -873q-4 -35 -7.5 -58.5t-3.5 -45.5q0 -51 19.5 -88t51.5 -61.5t76 -36t93 -11.5q55 0 106.5 15.5t94.5 45t71.5 75.5t38.5 108l133 930h279l-139 -944q-16 -117 -72.5 -205t-139.5 -146.5t-186.5 -88t-216.5 -29.5 q-104 0 -194.5 23.5t-156 72.5t-103 121.5t-37.5 171.5zM559 1589l295 187l240 -193l-95 -100l-172 114l-204 -112z" />
<glyph unicode="&#xdc;" horiz-adv-x="1433" d="M113 369q0 29 3 58.5t7 64.5l131 901h276l-124 -873q-4 -35 -7.5 -58.5t-3.5 -45.5q0 -51 19.5 -88t51.5 -61.5t76 -36t93 -11.5q55 0 106.5 15.5t94.5 45t71.5 75.5t38.5 108l133 930h279l-139 -944q-16 -117 -72.5 -205t-139.5 -146.5t-186.5 -88t-216.5 -29.5 q-104 0 -194.5 23.5t-156 72.5t-103 121.5t-37.5 171.5zM530 1509l29 199h195l-29 -199h-195zM915 1509l29 199h191l-29 -199h-191z" />
<glyph unicode="&#xdd;" horiz-adv-x="1294" d="M168 1393h313l164 -602l344 602h318l-562 -877l-75 -516h-279l76 518zM633 1554l266 320l156 -100l-303 -285z" />
<glyph unicode="&#xde;" horiz-adv-x="1173" d="M51 0l203 1393h276l-36 -256h245q197 0 293 -106.5t70 -291.5l-6 -37q-27 -186 -152 -280t-323 -94h-246l-47 -328h-277zM410 567h227q74 0 124 37t60 98l6 37q10 66 -28.5 115t-114.5 49h-225z" />
<glyph unicode="&#xe0;" horiz-adv-x="1075" d="M-2 217q0 14 1 32.5t9 67.5q14 96 82 155.5t163 92.5t205.5 45.5t211.5 12.5l10 63q2 10 3 22.5t1 22.5q0 53 -38 78t-132 25q-33 0 -76 -6.5t-87 -15.5t-83 -20.5t-63 -23.5l-39 199q39 23 92 41t110.5 30.5t115 19.5t106.5 7q190 0 279 -71.5t89 -207.5q0 -12 -1 -32.5 t-5 -40.5l-104 -713h-213l-12 137q-49 -68 -138.5 -109.5t-193.5 -41.5q-147 0 -220 63.5t-73 167.5zM281 283q0 -82 131 -82q41 0 77.5 10t65.5 26.5t46 38t22 46.5l20 139q-55 -2 -116.5 -8.5t-113 -19.5t-87 -37.5t-41.5 -63.5q-4 -25 -4 -33v-16zM387 1491l188 100 l166 -313l-139 -80z" />
<glyph unicode="&#xe1;" horiz-adv-x="1075" d="M-2 217q0 14 1 32.5t9 67.5q14 96 82 155.5t163 92.5t205.5 45.5t211.5 12.5l10 63q2 10 3 22.5t1 22.5q0 53 -38 78t-132 25q-33 0 -76 -6.5t-87 -15.5t-83 -20.5t-63 -23.5l-39 199q39 23 92 41t110.5 30.5t115 19.5t106.5 7q190 0 279 -71.5t89 -207.5q0 -12 -1 -32.5 t-5 -40.5l-104 -713h-213l-12 137q-49 -68 -138.5 -109.5t-193.5 -41.5q-147 0 -220 63.5t-73 167.5zM281 283q0 -82 131 -82q41 0 77.5 10t65.5 26.5t46 38t22 46.5l20 139q-55 -2 -116.5 -8.5t-113 -19.5t-87 -37.5t-41.5 -63.5q-4 -25 -4 -33v-16zM492 1264l266 319 l155 -100l-303 -285z" />
<glyph unicode="&#xe2;" horiz-adv-x="1075" d="M-2 217q0 14 1 32.5t9 67.5q14 96 82 155.5t163 92.5t205.5 45.5t211.5 12.5l10 63q2 10 3 22.5t1 22.5q0 53 -38 78t-132 25q-33 0 -76 -6.5t-87 -15.5t-83 -20.5t-63 -23.5l-39 199q39 23 92 41t110.5 30.5t115 19.5t106.5 7q190 0 279 -71.5t89 -207.5q0 -12 -1 -32.5 t-5 -40.5l-104 -713h-213l-12 137q-49 -68 -138.5 -109.5t-193.5 -41.5q-147 0 -220 63.5t-73 167.5zM281 283q0 -82 131 -82q41 0 77.5 10t65.5 26.5t46 38t22 46.5l20 139q-55 -2 -116.5 -8.5t-113 -19.5t-87 -37.5t-41.5 -63.5q-4 -25 -4 -33v-16zM358 1296l295 187 l240 -193l-94 -100l-172 115l-205 -113z" />
<glyph unicode="&#xe3;" horiz-adv-x="1075" d="M-2 217q0 14 1 32.5t9 67.5q14 96 82 155.5t163 92.5t205.5 45.5t211.5 12.5l10 63q2 10 3 22.5t1 22.5q0 53 -38 78t-132 25q-33 0 -76 -6.5t-87 -15.5t-83 -20.5t-63 -23.5l-39 199q39 23 92 41t110.5 30.5t115 19.5t106.5 7q190 0 279 -71.5t89 -207.5q0 -12 -1 -32.5 t-5 -40.5l-104 -713h-213l-12 137q-49 -68 -138.5 -109.5t-193.5 -41.5q-147 0 -220 63.5t-73 167.5zM281 283q0 -82 131 -82q41 0 77.5 10t65.5 26.5t46 38t22 46.5l20 139q-55 -2 -116.5 -8.5t-113 -19.5t-87 -37.5t-41.5 -63.5q-4 -25 -4 -33v-16zM299 1298 q47 66 101.5 104t117.5 38q33 0 64.5 -13.5t62.5 -29t59.5 -28.5t55.5 -13q43 2 67.5 23.5t38.5 43.5l90 -82q-12 -16 -30.5 -41.5t-43 -50t-56 -43t-68.5 -18.5q-39 0 -72 13t-63.5 29.5t-63.5 30t-72 13.5q-37 0 -64.5 -26.5t-43.5 -43.5z" />
<glyph unicode="&#xe4;" horiz-adv-x="1075" d="M-2 217q0 14 1 32.5t9 67.5q14 96 82 155.5t163 92.5t205.5 45.5t211.5 12.5l10 63q2 10 3 22.5t1 22.5q0 53 -38 78t-132 25q-33 0 -76 -6.5t-87 -15.5t-83 -20.5t-63 -23.5l-39 199q39 23 92 41t110.5 30.5t115 19.5t106.5 7q190 0 279 -71.5t89 -207.5q0 -12 -1 -32.5 t-5 -40.5l-104 -713h-213l-12 137q-49 -68 -138.5 -109.5t-193.5 -41.5q-147 0 -220 63.5t-73 167.5zM281 283q0 -82 131 -82q41 0 77.5 10t65.5 26.5t46 38t22 46.5l20 139q-55 -2 -116.5 -8.5t-113 -19.5t-87 -37.5t-41.5 -63.5q-4 -25 -4 -33v-16zM328 1219l28 198h195 l-29 -198h-194zM713 1219l28 198h191l-29 -198h-190z" />
<glyph unicode="&#xe5;" horiz-adv-x="1075" d="M-2 217q0 14 1 32.5t9 67.5q14 96 82 155.5t163 92.5t205.5 45.5t211.5 12.5l10 63q2 10 3 22.5t1 22.5q0 53 -38 78t-132 25q-33 0 -76 -6.5t-87 -15.5t-83 -20.5t-63 -23.5l-39 199q39 23 92 41t110.5 30.5t115 19.5t106.5 7q190 0 279 -71.5t89 -207.5q0 -12 -1 -32.5 t-5 -40.5l-104 -713h-213l-12 137q-49 -68 -138.5 -109.5t-193.5 -41.5q-147 0 -220 63.5t-73 167.5zM281 283q0 -82 131 -82q41 0 77.5 10t65.5 26.5t46 38t22 46.5l20 139q-55 -2 -116.5 -8.5t-113 -19.5t-87 -37.5t-41.5 -63.5q-4 -25 -4 -33v-16zM477 1331 q0 76 53.5 127t122.5 51q59 0 97 -38.5t38 -98.5q0 -37 -15 -69.5t-40.5 -57t-58.5 -39t-68 -14.5q-57 0 -93 41t-36 98zM555 1339q0 -29 18.5 -48t44.5 -19q35 0 64 24.5t29 63.5q0 29 -20.5 50.5t-49.5 21.5q-31 0 -58.5 -27t-27.5 -66z" />
<glyph unicode="&#xe6;" horiz-adv-x="1734" d="M18 307l31 219l631 74l14 105q10 76 -31.5 110.5t-132.5 34.5q-35 0 -78.5 -7t-88 -16.5t-83 -20.5t-65.5 -20l-33 185q39 23 89.5 42t103.5 34.5t107.5 24.5t103.5 9q121 0 191.5 -32.5t103.5 -85.5q63 57 157.5 87.5t210.5 30.5q90 0 166 -21.5t127 -65.5t74.5 -111.5 t11.5 -157.5l-31 -205l-636 -59l-15 -90q-10 -70 47 -110t174 -40q45 0 92.5 8.5t90.5 21.5t79.5 28.5t61.5 31.5l65 -180q-98 -74 -209.5 -109.5t-228.5 -35.5q-154 0 -258 43t-147 135q-66 -96 -166.5 -137t-206.5 -41q-172 0 -258 86t-64 235zM279 315q-8 -55 35.5 -84.5 t121.5 -29.5q33 0 68 7t63.5 22.5t49 39t24.5 56.5l16 110l-366 -41zM983 621l385 34l10 80q10 66 -36 96.5t-130 30.5q-39 0 -75.5 -10t-66.5 -27.5t-48 -43t-23 -56.5z" />
<glyph unicode="&#xe7;" horiz-adv-x="1007" d="M57 358l47 324q12 92 57.5 164t114 121t158.5 73.5t195 24.5q115 0 196.5 -28.5t141.5 -82.5l-127 -196q-43 31 -94 48t-123 17q-96 0 -166 -43t-84 -129l-37 -260q-6 -45 7 -77.5t41 -54t66.5 -32t86.5 -10.5q70 0 128 15.5t111 43.5l66 -194q-72 -53 -158 -74.5 t-180 -25.5l-33 -84q12 -4 32.5 -15.5t41 -31t36 -50t15.5 -73.5q0 -98 -81 -162t-206 -105l-47 113q10 6 35 16.5t51.5 27.5t46 40t19.5 53q0 47 -33 73t-84 38l57 168q-158 23 -239.5 114t-57.5 254z" />
<glyph unicode="&#xe8;" horiz-adv-x="1144" d="M49 307q0 18 3 39l7 49l45 312q12 82 62.5 147.5t123 111.5t162 71.5t179.5 25.5q86 0 159.5 -21.5t127 -61.5t84 -96.5t30.5 -127.5q0 -12 -2 -28.5t-6 -47.5l-35 -234h-647l-6 -47q-2 -10 -4 -26.5t-2 -26.5q0 -35 17.5 -59.5t48 -40t70.5 -22.5t85 -7q96 0 177 19.5 t138 48.5l60 -189q-102 -59 -205 -83.5t-223 -24.5q-90 0 -172 19.5t-143.5 59t-97.5 100t-36 140.5zM371 633h389l6 41q2 10 3 21.5t1 23.5q0 59 -52 90t-122 31q-35 0 -71 -9.5t-66.5 -28t-51 -45t-26.5 -59.5zM440 1493l189 100l166 -313l-140 -80z" />
<glyph unicode="&#xe9;" horiz-adv-x="1144" d="M49 307q0 18 3 39l7 49l45 312q12 82 62.5 147.5t123 111.5t162 71.5t179.5 25.5q86 0 159.5 -21.5t127 -61.5t84 -96.5t30.5 -127.5q0 -12 -2 -28.5t-6 -47.5l-35 -234h-647l-6 -47q-2 -10 -4 -26.5t-2 -26.5q0 -35 17.5 -59.5t48 -40t70.5 -22.5t85 -7q96 0 177 19.5 t138 48.5l60 -189q-102 -59 -205 -83.5t-223 -24.5q-90 0 -172 19.5t-143.5 59t-97.5 100t-36 140.5zM371 633h389l6 41q2 10 3 21.5t1 23.5q0 59 -52 90t-122 31q-35 0 -71 -9.5t-66.5 -28t-51 -45t-26.5 -59.5zM532 1266l267 319l155 -100l-303 -285z" />
<glyph unicode="&#xea;" horiz-adv-x="1144" d="M49 307q0 18 3 39l7 49l45 312q12 82 62.5 147.5t123 111.5t162 71.5t179.5 25.5q86 0 159.5 -21.5t127 -61.5t84 -96.5t30.5 -127.5q0 -12 -2 -28.5t-6 -47.5l-35 -234h-647l-6 -47q-2 -10 -4 -26.5t-2 -26.5q0 -35 17.5 -59.5t48 -40t70.5 -22.5t85 -7q96 0 177 19.5 t138 48.5l60 -189q-102 -59 -205 -83.5t-223 -24.5q-90 0 -172 19.5t-143.5 59t-97.5 100t-36 140.5zM371 633h389l6 41q2 10 3 21.5t1 23.5q0 59 -52 90t-122 31q-35 0 -71 -9.5t-66.5 -28t-51 -45t-26.5 -59.5zM406 1298l294 187l240 -193l-94 -100l-172 115l-205 -113z " />
<glyph unicode="&#xeb;" horiz-adv-x="1144" d="M49 307q0 18 3 39l7 49l45 312q12 82 62.5 147.5t123 111.5t162 71.5t179.5 25.5q86 0 159.5 -21.5t127 -61.5t84 -96.5t30.5 -127.5q0 -12 -2 -28.5t-6 -47.5l-35 -234h-647l-6 -47q-2 -10 -4 -26.5t-2 -26.5q0 -35 17.5 -59.5t48 -40t70.5 -22.5t85 -7q96 0 177 19.5 t138 48.5l60 -189q-102 -59 -205 -83.5t-223 -24.5q-90 0 -172 19.5t-143.5 59t-97.5 100t-36 140.5zM371 633h389l6 41q2 10 3 21.5t1 23.5q0 59 -52 90t-122 31q-35 0 -71 -9.5t-66.5 -28t-51 -45t-26.5 -59.5zM373 1221l28 198h195l-29 -198h-194zM758 1221l28 198h191 l-29 -198h-190z" />
<glyph unicode="&#xec;" horiz-adv-x="587" d="M41 0l154 1059h278l-154 -1059h-278zM137 1475l189 100l166 -313l-140 -80z" />
<glyph unicode="&#xed;" horiz-adv-x="587" d="M41 0l154 1059h278l-154 -1059h-278zM238 1247l266 320l155 -101l-303 -284z" />
<glyph unicode="&#xee;" horiz-adv-x="587" d="M41 0l154 1059h278l-154 -1059h-278zM98 1278l295 186l240 -192l-94 -101l-172 115l-205 -112z" />
<glyph unicode="&#xef;" horiz-adv-x="587" d="M41 0l154 1059h278l-154 -1059h-278zM66 1202l28 199h195l-29 -199h-194zM451 1202l28 199h191l-29 -199h-190z" />
<glyph unicode="&#xf0;" horiz-adv-x="1181" d="M55 356l33 226q12 80 49 147.5t94.5 118.5t134 79.5t166.5 28.5q33 0 72 -5t75 -16t67.5 -27.5t54.5 -41.5q-18 88 -66.5 168t-116.5 140l-299 -130l-45 123l224 99q-45 31 -82 50t-90 36l145 188q94 -29 173 -71t149 -105l276 119l47 -123l-223 -98q92 -123 136 -270.5 t18 -329.5l-46 -306q-12 -86 -59 -155.5t-117.5 -118.5t-163 -75.5t-192.5 -26.5q-96 0 -177 26.5t-137.5 75.5t-84 118.5t-15.5 155.5zM336 387q-12 -78 40 -123t130 -45q37 0 74.5 12.5t69.5 34t53.5 52t27.5 67.5l25 160q10 80 -44.5 126t-138.5 46q-39 0 -74.5 -12.5 t-65.5 -34t-49 -53t-26 -68.5z" />
<glyph unicode="&#xf1;" horiz-adv-x="1234" d="M31 0l151 1044h217l4 -165q74 86 163 135t200 49q193 0 267.5 -96.5t47.5 -278.5l-100 -688h-276l96 655q25 170 -156 170q-41 0 -82 -13t-74.5 -35.5t-57 -55.5t-30.5 -70l-94 -651h-276zM371 1300q47 66 101 104t116 38q33 0 65.5 -13.5t63.5 -29t59.5 -28.5t54.5 -13 q43 2 68 23.5t39 43.5l88 -82q-10 -16 -28.5 -41.5t-43 -50t-56.5 -43t-69 -18.5q-39 0 -71.5 13.5t-63 29.5t-63.5 29.5t-72 13.5q-37 0 -64.5 -26.5t-43.5 -43.5z" />
<glyph unicode="&#xf2;" horiz-adv-x="1181" d="M55 362l47 322q12 90 59.5 160.5t118 119t162 74t195.5 25.5q106 0 190 -25.5t138.5 -75t77 -120t10.5 -158.5l-47 -322q-12 -90 -61.5 -160.5t-121 -119.5t-161 -74.5t-183.5 -25.5q-96 0 -180 25.5t-142.5 74.5t-86 119.5t-15.5 160.5zM332 381q-10 -80 45 -121 t137 -41q39 0 76 10.5t66.5 31t50 50t26.5 70.5l41 285q6 39 -5 67.5t-35.5 49t-58.5 30.5t-73 10t-78 -10t-70.5 -30.5t-53 -50.5t-27.5 -66zM426 1493l188 100l166 -313l-139 -80z" />
<glyph unicode="&#xf3;" horiz-adv-x="1181" d="M55 362l47 322q12 90 59.5 160.5t118 119t162 74t195.5 25.5q106 0 190 -25.5t138.5 -75t77 -120t10.5 -158.5l-47 -322q-12 -90 -61.5 -160.5t-121 -119.5t-161 -74.5t-183.5 -25.5q-96 0 -180 25.5t-142.5 74.5t-86 119.5t-15.5 160.5zM332 381q-10 -80 45 -121 t137 -41q39 0 76 10.5t66.5 31t50 50t26.5 70.5l41 285q6 39 -5 67.5t-35.5 49t-58.5 30.5t-73 10t-78 -10t-70.5 -30.5t-53 -50.5t-27.5 -66zM532 1266l267 319l155 -100l-303 -285z" />
<glyph unicode="&#xf4;" horiz-adv-x="1181" d="M55 362l47 322q12 90 59.5 160.5t118 119t162 74t195.5 25.5q106 0 190 -25.5t138.5 -75t77 -120t10.5 -158.5l-47 -322q-12 -90 -61.5 -160.5t-121 -119.5t-161 -74.5t-183.5 -25.5q-96 0 -180 25.5t-142.5 74.5t-86 119.5t-15.5 160.5zM332 381q-10 -80 45 -121 t137 -41q39 0 76 10.5t66.5 31t50 50t26.5 70.5l41 285q6 39 -5 67.5t-35.5 49t-58.5 30.5t-73 10t-78 -10t-70.5 -30.5t-53 -50.5t-27.5 -66zM399 1298l295 187l240 -193l-94 -100l-172 115l-205 -113z" />
<glyph unicode="&#xf5;" horiz-adv-x="1181" d="M55 362l47 322q12 90 59.5 160.5t118 119t162 74t195.5 25.5q106 0 190 -25.5t138.5 -75t77 -120t10.5 -158.5l-47 -322q-12 -90 -61.5 -160.5t-121 -119.5t-161 -74.5t-183.5 -25.5q-96 0 -180 25.5t-142.5 74.5t-86 119.5t-15.5 160.5zM332 381q-10 -80 45 -121 t137 -41q39 0 76 10.5t66.5 31t50 50t26.5 70.5l41 285q6 39 -5 67.5t-35.5 49t-58.5 30.5t-73 10t-78 -10t-70.5 -30.5t-53 -50.5t-27.5 -66zM344 1300q47 66 101.5 104t115.5 38q33 0 65.5 -13.5t63.5 -29t59.5 -28.5t55.5 -13q43 2 67.5 23.5t38.5 43.5l88 -82 q-10 -16 -28.5 -41.5t-43 -50t-56 -43t-68.5 -18.5q-39 0 -72 13.5t-63.5 29.5t-63.5 29.5t-72 13.5q-37 0 -64.5 -26.5t-43.5 -43.5z" />
<glyph unicode="&#xf6;" horiz-adv-x="1181" d="M55 362l47 322q12 90 59.5 160.5t118 119t162 74t195.5 25.5q106 0 190 -25.5t138.5 -75t77 -120t10.5 -158.5l-47 -322q-12 -90 -61.5 -160.5t-121 -119.5t-161 -74.5t-183.5 -25.5q-96 0 -180 25.5t-142.5 74.5t-86 119.5t-15.5 160.5zM332 381q-10 -80 45 -121 t137 -41q39 0 76 10.5t66.5 31t50 50t26.5 70.5l41 285q6 39 -5 67.5t-35.5 49t-58.5 30.5t-73 10t-78 -10t-70.5 -30.5t-53 -50.5t-27.5 -66zM369 1221l28 198h195l-29 -198h-194zM754 1221l28 198h191l-29 -198h-190z" />
<glyph unicode="&#xf7;" horiz-adv-x="1396" d="M70 483l24 164h1172l-25 -164h-1171zM483 115l35 241h250l-35 -241h-250zM578 764l36 244h250l-37 -244h-249z" />
<glyph unicode="&#xf8;" horiz-adv-x="1181" d="M14 -119l144 199q-59 49 -88 119.5t-15 162.5l47 322q12 90 59.5 160.5t118 119t162 74t195.5 25.5q119 0 211 -35l94 127h127l-125 -176q66 -47 94.5 -122t14.5 -173l-47 -322q-12 -90 -61.5 -160.5t-121 -119.5t-161 -74.5t-183.5 -25.5q-129 0 -227 43l-102 -144h-136 zM331 351.5q1 -13.5 7 -25.5l350 481q-18 10 -40.5 13t-45.5 3q-39 0 -78 -10t-70.5 -30.5t-53 -50.5t-27.5 -66l-41 -285q-2 -16 -1 -29.5zM408 242q45 -23 106 -23q39 0 76 10.5t66.5 31t50 50t26.5 70.5l41 285q6 41 -12 65z" />
<glyph unicode="&#xf9;" horiz-adv-x="1228" d="M78 299q0 16 2 33.5t6 48.5l96 663h277l-90 -618q-2 -23 -4.5 -41t-2.5 -35q0 -66 49.5 -98.5t123.5 -32.5q80 0 144 41t77 119l94 665h276l-98 -684q-14 -92 -61 -162.5t-119 -119.5t-161 -73.5t-185 -24.5q-92 0 -169 21.5t-134.5 61t-89 99t-31.5 137.5zM453 1473 l188 100l166 -313l-139 -80z" />
<glyph unicode="&#xfa;" horiz-adv-x="1228" d="M78 299q0 16 2 33.5t6 48.5l96 663h277l-90 -618q-2 -23 -4.5 -41t-2.5 -35q0 -66 49.5 -98.5t123.5 -32.5q80 0 144 41t77 119l94 665h276l-98 -684q-14 -92 -61 -162.5t-119 -119.5t-161 -73.5t-185 -24.5q-92 0 -169 21.5t-134.5 61t-89 99t-31.5 137.5zM559 1245 l266 320l156 -101l-303 -284z" />
<glyph unicode="&#xfb;" horiz-adv-x="1228" d="M78 299q0 16 2 33.5t6 48.5l96 663h277l-90 -618q-2 -23 -4.5 -41t-2.5 -35q0 -66 49.5 -98.5t123.5 -32.5q80 0 144 41t77 119l94 665h276l-98 -684q-14 -92 -61 -162.5t-119 -119.5t-161 -73.5t-185 -24.5q-92 0 -169 21.5t-134.5 61t-89 99t-31.5 137.5zM420 1278 l295 186l239 -192l-94 -101l-172 115l-205 -112z" />
<glyph unicode="&#xfc;" horiz-adv-x="1228" d="M78 299q0 16 2 33.5t6 48.5l96 663h277l-90 -618q-2 -23 -4.5 -41t-2.5 -35q0 -66 49.5 -98.5t123.5 -32.5q80 0 144 41t77 119l94 665h276l-98 -684q-14 -92 -61 -162.5t-119 -119.5t-161 -73.5t-185 -24.5q-92 0 -169 21.5t-134.5 61t-89 99t-31.5 137.5zM385 1200 l29 199h194l-28 -199h-195zM770 1200l29 199h190l-28 -199h-191z" />
<glyph unicode="&#xfd;" horiz-adv-x="1118" d="M-4 -238q37 0 77 10.5t77.5 29t69.5 46t50 66.5l33 68l-203 1062h291l98 -731l314 731h291l-570 -1167q-86 -176 -222 -246.5t-306 -74.5v206zM500 1247l266 320l156 -101l-304 -284z" />
<glyph unicode="&#xfe;" horiz-adv-x="1236" d="M-37 -459l275 1870h276l-72 -479q72 68 145 102.5t167 34.5q90 0 161.5 -26.5t117.5 -75.5t65.5 -118t7.5 -155l-47 -329q-12 -86 -52 -157t-101.5 -122t-140.5 -78.5t-169 -27.5q-104 0 -173 30.5t-114 95.5l-84 -565h-262zM381 375q-6 -39 5 -71t35.5 -55.5t60.5 -35.5 t77 -12q37 0 75 11t69.5 33.5t54 56.5t28.5 79l43 289q12 92 -41 134t-135 42q-41 0 -78.5 -12.5t-69.5 -36t-53.5 -56t-27.5 -71.5z" />
<glyph unicode="&#xff;" horiz-adv-x="1118" d="M-4 -238q37 0 77 10.5t77.5 29t69.5 46t50 66.5l33 68l-203 1062h291l98 -731l314 731h291l-570 -1167q-86 -176 -222 -246.5t-306 -74.5v206zM336 1202l29 199h194l-29 -199h-194zM721 1202l29 199h190l-29 -199h-190z" />
<glyph unicode="&#x152;" horiz-adv-x="1857" d="M49 459l70 475q12 88 70.5 171t145.5 146.5t195.5 101.5t223.5 38h1077l-35 -240h-530l-45 -311h448l-35 -234h-446l-53 -366h573l-35 -240h-1120q-121 0 -219 36t-166 98.5t-100.5 145t-18.5 179.5zM328 489q-8 -53 8 -99t52 -80t87 -52t113 -18h266l133 911h-268 q-57 0 -113.5 -20.5t-102.5 -55.5t-78 -80t-38 -94z" />
<glyph unicode="&#x153;" horiz-adv-x="1843" d="M57 360l52 355q12 84 52 151.5t102.5 114.5t143 71.5t177.5 24.5q49 0 104 -8t105.5 -27.5t90.5 -54.5t60 -88q66 86 162 134t201 48q96 0 178 -23.5t139 -69.5t85 -114.5t13 -160.5l-36 -264l-648 -3l-12 -96q-6 -37 11.5 -64.5t48 -46t71.5 -26.5t84 -8q82 0 173 24.5 t151 57.5l57 -189q-98 -57 -201.5 -82.5t-220.5 -25.5q-61 0 -116.5 9t-102.5 30.5t-84 58.5t-61 90q-35 -53 -82 -89t-101.5 -58.5t-112 -31.5t-112.5 -9q-96 0 -171 25.5t-124 73.5t-68.5 116.5t-7.5 154.5zM338 377q-10 -70 41 -111t129 -41q72 0 134.5 38t76.5 104 l49 340q4 66 -48 101.5t-124 35.5q-39 0 -75 -10.5t-64.5 -30t-48 -46t-23.5 -59.5zM1067 633h393l10 82q4 35 -10 61.5t-39.5 45t-60.5 27.5t-70 9q-80 0 -140 -41t-71 -110z" />
<glyph unicode="&#x178;" horiz-adv-x="1294" d="M168 1393h313l164 -602l344 602h318l-562 -877l-75 -516h-279l76 518zM463 1509l29 199h194l-29 -199h-194zM848 1509l29 199h190l-29 -199h-190z" />
<glyph unicode="&#x2c6;" horiz-adv-x="749" d="M188 1276l295 186l240 -192l-94 -101l-172 115l-205 -113z" />
<glyph unicode="&#x2dc;" horiz-adv-x="888" d="M199 1288q47 66 101 104t116 38q33 0 65.5 -13.5t63 -29t59.5 -28.5t55 -13q43 2 68 23.5t39 43.5l88 -82q-10 -16 -28.5 -41.5t-43 -50.5t-56.5 -43t-69 -18q-39 0 -71.5 13t-63 29.5t-63.5 30t-72 13.5q-37 0 -64.5 -27t-43.5 -43z" />
<glyph unicode="&#x2000;" horiz-adv-x="952" />
<glyph unicode="&#x2001;" horiz-adv-x="1905" />
<glyph unicode="&#x2002;" horiz-adv-x="952" />
<glyph unicode="&#x2003;" horiz-adv-x="1905" />
<glyph unicode="&#x2004;" horiz-adv-x="635" />
<glyph unicode="&#x2005;" horiz-adv-x="476" />
<glyph unicode="&#x2006;" horiz-adv-x="317" />
<glyph unicode="&#x2007;" horiz-adv-x="317" />
<glyph unicode="&#x2008;" horiz-adv-x="238" />
<glyph unicode="&#x2009;" horiz-adv-x="381" />
<glyph unicode="&#x200a;" horiz-adv-x="105" />
<glyph unicode="&#x2010;" horiz-adv-x="710" d="M57 485l33 226h512l-33 -226h-512z" />
<glyph unicode="&#x2011;" horiz-adv-x="710" d="M57 485l33 226h512l-33 -226h-512z" />
<glyph unicode="&#x2012;" horiz-adv-x="710" d="M57 485l33 226h512l-33 -226h-512z" />
<glyph unicode="&#x2013;" horiz-adv-x="1216" d="M-8 520l24 172h1149l-24 -172h-1149z" />
<glyph unicode="&#x2014;" horiz-adv-x="1646" d="M2 520l25 172h1566l-24 -172h-1567z" />
<glyph unicode="&#x2018;" horiz-adv-x="327" d="M92 985l8 55q12 82 36 148.5t52.5 118t62.5 88.5t66 59l95 -68q-31 -45 -55.5 -114.5t-39.5 -159.5l-18 -127h-207z" />
<glyph unicode="&#x2019;" horiz-adv-x="344" d="M66 1059q37 43 68.5 101.5t47.5 164.5l19 127h229l-8 -55q-12 -90 -39 -156.5t-59.5 -116t-66.5 -82t-62 -57.5z" />
<glyph unicode="&#x201a;" horiz-adv-x="491" d="M16 -205q35 43 69 101.5t50 164.5l19 127h227l-8 -55q-12 -90 -39 -156.5t-58.5 -115.5t-66.5 -82t-64 -58z" />
<glyph unicode="&#x201c;" horiz-adv-x="655" d="M92 985l8 55q25 166 87.5 266.5t127.5 147.5l97 -68q-29 -45 -54.5 -114.5t-40.5 -159.5l-18 -127h-207zM395 985l8 55q25 166 87.5 266.5t127.5 147.5l97 -68q-29 -45 -54.5 -114.5t-39.5 -159.5l-19 -127h-207z" />
<glyph unicode="&#x201d;" horiz-adv-x="659" d="M59 1034q35 43 69 102.5t50 166.5l19 127h229l-8 -56q-12 -90 -40 -156.5t-59.5 -115.5t-66.5 -82t-62 -57zM362 1034q35 43 69 102.5t50 166.5l19 127h229l-8 -56q-12 -90 -40 -156.5t-59.5 -115.5t-66.5 -82t-61 -57z" />
<glyph unicode="&#x201e;" horiz-adv-x="870" d="M14 -203q37 43 71 101.5t50 164.5l19 127h227l-8 -55q-12 -90 -39 -156.5t-59.5 -115.5t-67.5 -82t-64 -57zM338 -201q35 43 68.5 101.5t50.5 165.5l18 127h230l-9 -56q-12 -90 -39.5 -156.5t-59.5 -115.5t-66.5 -82t-63.5 -57z" />
<glyph unicode="&#x2022;" horiz-adv-x="694" d="M82 342l61 410h404l-62 -410h-403z" />
<glyph unicode="&#x2026;" horiz-adv-x="1630" d="M49 0l37 254h254l-37 -254h-254zM575 0l37 254h254l-37 -254h-254zM1100 0l37 254h254l-37 -254h-254z" />
<glyph unicode="&#x202f;" horiz-adv-x="381" />
<glyph unicode="&#x2039;" horiz-adv-x="591" d="M33 356l358 371l107 -82l-234 -285l152 -272l-131 -88z" />
<glyph unicode="&#x203a;" horiz-adv-x="591" d="M-4 88l233 272l-151 285l131 82l248 -371l-355 -356z" />
<glyph unicode="&#x205f;" horiz-adv-x="476" />
<glyph unicode="&#x20ac;" d="M43 512l20 129h181l16 121h-180l18 129h181l10 61q14 106 68.5 192.5t134 146t179 91t208.5 31.5q150 0 245 -33.5t172 -105.5l-141 -199q-53 43 -123.5 69.5t-171.5 26.5q-115 0 -197.5 -61t-99.5 -174l-8 -45h481l-18 -129h-481l-17 -121h481l-20 -129h-481l-8 -59 q-16 -121 51 -177.5t184 -56.5q188 0 315 84l74 -197q-47 -35 -95 -58t-101.5 -38.5t-114 -22.5t-133.5 -7q-113 0 -205 28.5t-154.5 86t-89 143.5t-10.5 200l10 74h-180z" />
<glyph unicode="&#x2122;" horiz-adv-x="1128" d="M170 1333l14 101h375l-14 -101h-135l-50 -336h-106l49 336h-133zM580 1004l63 430h109l77 -185l134 185h110l-63 -430h-107l39 253l-115 -159h-39l-63 162l-39 -256h-106z" />
<glyph unicode="&#x25fc;" horiz-adv-x="1044" d="M0 0v1044h1044v-1044h-1044z" />
<glyph unicode="&#xfb03;" horiz-adv-x="1996" d="M63 0l125 862h-120l26 182h121l18 127q12 82 57.5 142.5t112 99.5t149.5 58.5t173 19.5q119 0 228.5 -16.5t201.5 -44.5q63 31 137 46t154 15q137 0 261 -21.5t222 -56.5l-74 -194q-43 8 -84.5 16t-87 14t-98.5 10.5t-121 4.5q-221 0 -241 -146l-13 -74h242l-27 -182 h-241l-125 -862h-275l125 862h-446l-125 -862h-275zM489 1044h447l18 127q6 43 21 76q-47 6 -103.5 11.5t-128.5 5.5q-221 0 -241 -146zM1505 0l152 1044h278l-151 -1044h-279z" />
<glyph unicode="&#xfb04;" horiz-adv-x="2048" d="M63 0l125 862h-120l26 182h121l18 127q12 82 57.5 142.5t112 99.5t149.5 58.5t173 19.5q119 0 228.5 -16.5t201.5 -44.5q63 31 137 46t154 15q137 0 278.5 -24.5t262.5 -71.5l-203 -1395h-279l181 1249q-47 6 -100.5 10.5t-121.5 4.5q-221 0 -241 -146l-13 -74h242 l-27 -182h-241l-125 -862h-275l125 862h-446l-125 -862h-275zM489 1044h447l18 127q6 43 21 76q-47 6 -103.5 11.5t-128.5 5.5q-221 0 -241 -146z" />
</font>
</defs>
</svg>
