<?xml version="1.0" standalone="no"?>
<!DOCTYPE svg PUBLIC "-//W3C//DTD SVG 1.1//EN" "http://www.w3.org/Graphics/SVG/1.1/DTD/svg11.dtd" >
<svg xmlns="http://www.w3.org/2000/svg">
<metadata></metadata>
<defs>
<font id="bose_gothicblack_oblique" horiz-adv-x="1400" >
<font-face units-per-em="2048" ascent="1536" descent="-512" />
<missing-glyph horiz-adv-x="448" />
<glyph unicode="&#xdf;" horiz-adv-x="1298" d="M-2 0l156 1061q30 211 169 309t384 98q217 0 348 -100t131 -276q0 -32 -6 -70q-109 -78 -168.5 -144.5t-59.5 -136.5q0 -33 17 -62t34.5 -44.5t57.5 -46.5q125 -94 125 -230q0 -194 -120 -289.5t-339 -95.5q-79 0 -171.5 17.5t-145.5 46.5l92 244q110 -43 217 -43 q61 0 104 28t43 78q0 35 -26 63.5t-90 75.5q-119 88 -119 219q0 58 19 112.5t55.5 103.5t72 85.5t84.5 79.5v9q0 42 -54.5 71t-125.5 29q-87 0 -143.5 -37t-67.5 -115l-152 -1040h-321z" />
<glyph unicode="&#xfb01;" horiz-adv-x="1294" d="M53 0l123 840h-115l29 204h115l18 125q16 108 92.5 184t180.5 110t223 34q278 0 522 -86l-86 -223q-71 15 -111 22t-125.5 16t-173.5 9q-98 0 -149.5 -30.5t-60.5 -98.5l-11 -62h242l-29 -204h-241l-123 -840h-320zM774 0l152 1044h319l-151 -1044h-320z" />
<glyph unicode="&#xfb02;" horiz-adv-x="1345" d="M53 0l123 840h-115l29 204h115l18 125q12 81 58.5 145.5t115.5 103.5t150 59t168 20q267 0 581 -104l-202 -1393h-320l176 1210q-106 25 -205 25q-98 0 -149.5 -30.5t-60.5 -98.5l-11 -62h242l-29 -204h-241l-123 -840h-320z" />
<glyph horiz-adv-x="0" />
<glyph horiz-adv-x="682" />
<glyph unicode="&#xd;" horiz-adv-x="448" />
<glyph unicode=" "  horiz-adv-x="448" />
<glyph unicode="&#x09;" horiz-adv-x="448" />
<glyph unicode="&#xa0;" horiz-adv-x="448" />
<glyph unicode="!" horiz-adv-x="585" d="M43 0l39 270h315l-39 -270h-315zM123 487l104 906h344l-159 -906h-289z" />
<glyph unicode="&#x22;" horiz-adv-x="692" d="M154 958l51 453h203l-84 -453h-170zM424 958l51 453h199l-82 -453h-168z" />
<glyph unicode="#" horiz-adv-x="1273" d="M6 223l31 183h211l123 391h-203l33 182h237l74 244h223l-73 -244h172l79 244h217l-71 -244h160l-33 -182h-195l-123 -391h179l-31 -183h-215l-64 -223h-225l68 223h-174l-68 -223h-223l65 223h-174zM471 406h174l123 391h-172z" />
<glyph unicode="$" horiz-adv-x="1232" d="M29 193l182 210q64 -70 152 -108.5t182 -38.5q101 0 154 42t53 116q0 51 -45.5 83.5t-167.5 71.5q-185 59 -276 146t-91 219q0 92 31.5 171t84.5 134.5t124 94.5t149 58t160 19h14l64 217l192 -31l-63 -213q135 -41 246 -141l-175 -223q-80 63 -150 88t-159 25 q-93 0 -144.5 -41t-51.5 -113q0 -51 46.5 -84.5t170.5 -73.5q362 -117 362 -368q0 -213 -156.5 -341t-398.5 -128h-12l-74 -256l-184 28l74 254q-193 54 -293 183z" />
<glyph unicode="%" horiz-adv-x="1544" d="M98 0l1063 1393h256l-1048 -1393h-271zM139 1028l23 146q17 112 114 175.5t226 63.5q121 0 199.5 -66.5t64.5 -172.5l-23 -146q-17 -113 -112 -177.5t-221 -64.5q-137 0 -212.5 62t-58.5 180zM367 1057q-6 -37 13.5 -51.5t59.5 -14.5q30 0 59.5 19.5t32.5 48.5l15 90 q4 29 -18.5 43t-57.5 14q-31 0 -59.5 -17.5t-32.5 -45.5zM778 203l29 188q17 112 104.5 171t218.5 59q56 0 104.5 -13t86 -39t55 -70t8.5 -100l-24 -180q-18 -115 -106 -175t-216 -60q-117 0 -195 59.5t-65 159.5zM997 252q-4 -30 16 -49t54 -19q29 0 57.5 20.5t32.5 49.5 l12 88q6 35 -13 53.5t-56 18.5q-34 0 -62 -21.5t-32 -52.5z" />
<glyph unicode="&#x26;" horiz-adv-x="1513" d="M33 303q0 125 80.5 219.5t273.5 220.5l23 15l-148 172l29 198q20 129 146 208t290 79q168 0 266.5 -74.5t98.5 -210.5q0 -85 -33 -153t-89.5 -121t-158.5 -123l162 -178l266 221l174 -186l-268 -230l190 -215l-229 -184l-184 209q-190 -190 -451 -190q-206 0 -322 81.5 t-116 241.5zM367 344q0 -47 33.5 -69.5t88.5 -22.5q62 0 118 25t138 94l-170 198l-20 -14q-119 -86 -153.5 -124t-34.5 -87zM555 1024l94 -109q74 51 109 91t35 84q0 75 -105 75q-49 0 -84 -18t-39 -53z" />
<glyph unicode="'" horiz-adv-x="509" d="M193 958l40 496h244l-106 -496h-178z" />
<glyph unicode="(" horiz-adv-x="782" d="M70 254l88 600q34 240 158.5 426t299.5 283l121 -121q-108 -66 -191 -219t-114 -369l-88 -600q-32 -226 6 -372.5t129 -211.5l-155 -121q-146 97 -217 282.5t-37 422.5z" />
<glyph unicode=")" horiz-adv-x="831" d="M-35 -346q107 72 189.5 230.5t113.5 373.5l88 598q64 442 -110 586l133 123q147 -97 216.5 -283t35.5 -426l-88 -598q-34 -239 -158 -424.5t-299 -282.5z" />
<glyph unicode="*" horiz-adv-x="815" d="M154 1161l59 135l190 -65l31 209h144l-31 -211l207 67l22 -135l-205 -63l97 -170l-127 -86l-99 172l-147 -172l-102 84l147 172z" />
<glyph unicode="+" horiz-adv-x="1165" d="M61 686l31 217h387l53 367h242l-53 -367h389l-31 -217h-389l-61 -420h-242l62 420h-388z" />
<glyph unicode="," horiz-adv-x="524" d="M-92 -207q29 36 48 64t41.5 85.5t33.5 125.5l18 131h264l-8 -56q-39 -268 -248 -430z" />
<glyph unicode="-" horiz-adv-x="708" d="M51 475l37 258h520l-37 -258h-520z" />
<glyph unicode="." horiz-adv-x="532" d="M2 0l39 270h301l-39 -270h-301z" />
<glyph unicode="/" horiz-adv-x="880" d="M-96 -174l751 1567h269l-754 -1567h-266z" />
<glyph unicode="0" horiz-adv-x="1284" d="M57 424l78 534q20 137 105.5 241t214.5 159t280 55q152 0 264.5 -55t167.5 -159.5t35 -240.5l-78 -534q-30 -205 -198.5 -324.5t-399.5 -119.5q-151 0 -263.5 52t-169 154t-36.5 238zM379 434q-13 -88 38 -134t148 -46q96 0 162.5 46t79.5 134l76 514q12 89 -41 139 t-148 50q-99 0 -163 -49.5t-76 -139.5z" />
<glyph unicode="1" horiz-adv-x="759" d="M121 1116l39 277h504l-203 -1393h-322l164 1116h-182z" />
<glyph unicode="2" horiz-adv-x="1159" d="M-2 0l22 150q28 200 154.5 350t384.5 284q133 65 181 112t48 120q0 52 -39.5 80t-111.5 28q-172 0 -371 -147l-112 219q266 205 577 205q169 0 276 -84.5t107 -237.5q0 -91 -20.5 -157t-74 -126.5t-125.5 -111t-196 -121.5q-177 -89 -237 -143.5t-88 -147.5h635l-39 -272 h-971z" />
<glyph unicode="3" horiz-adv-x="1216" d="M0 295l285 113q23 -78 85 -114t144 -36q86 0 147 31.5t72 103.5q12 82 12 92q0 54 -39.5 77.5t-134.5 23.5h-194l35 248h182q187 0 207 120q10 61 10 80q0 54 -45.5 80.5t-120.5 26.5q-69 0 -133 -32.5t-104 -98.5l-238 114q69 133 212.5 213t330.5 80q123 0 217 -31 t152.5 -101.5t58.5 -174.5q0 -18 -15 -123q-36 -209 -239 -276q170 -63 170 -230q0 -33 -13 -119q-16 -99 -66.5 -173t-127 -117.5t-165.5 -64.5t-191 -21q-193 0 -329 82.5t-165 226.5z" />
<glyph unicode="4" horiz-adv-x="1247" d="M-10 256l35 240l694 897h375l-125 -861h182l-41 -276h-182l-37 -256h-322l37 256h-616zM369 532h278l64 443h-27z" />
<glyph unicode="5" horiz-adv-x="1187" d="M59 328l308 82q3 -69 48 -112.5t128 -43.5q73 0 123 31t59 90l20 141q7 58 -34.5 87.5t-122.5 29.5h-426l180 760h776l-39 -277h-501l-54 -227h152q129 0 221 -38.5t139 -123t29 -207.5l-23 -155q-18 -119 -98 -208.5t-191 -133t-235 -43.5q-217 0 -332 90t-127 258z" />
<glyph unicode="6" horiz-adv-x="1216" d="M51 381l86 592q29 195 194.5 317.5t391.5 122.5q141 0 234.5 -25.5t177.5 -89.5l-150 -227q-124 70 -285 70q-97 0 -164 -46.5t-77 -121.5l-27 -180q52 56 133 91.5t170 35.5q186 0 284.5 -91.5t72.5 -261.5l-29 -202q-18 -119 -105.5 -208.5t-208.5 -133t-255 -43.5 q-98 0 -184 27t-149 76.5t-93 126.5t-17 171zM375 399q-10 -70 37.5 -108.5t119.5 -38.5q78 0 142 38.5t74 108.5l20 140q10 70 -36.5 107.5t-133.5 37.5q-78 0 -135.5 -38.5t-67.5 -106.5z" />
<glyph unicode="7" horiz-adv-x="1040" d="M84 1096l43 297h936l-25 -168l-587 -1225h-355l557 1096h-569z" />
<glyph unicode="8" horiz-adv-x="1222" d="M33 358l10 72q8 57 36.5 106.5t69.5 85t85 59.5t92 40q-91 31 -139 111.5t-35 181.5l6 43q17 112 98.5 194.5t198 122t252.5 39.5t241.5 -39t163.5 -121t41 -196l-8 -56q-13 -89 -94.5 -170t-165.5 -110q233 -91 205 -291l-11 -72q-14 -94 -67 -167.5t-132.5 -118.5 t-176.5 -68.5t-205 -23.5q-111 0 -201 23.5t-155 69t-94 119t-15 166.5zM356 387q-11 -70 42 -101.5t139 -31.5q38 0 73 6.5t67 20.5t54 39t27 59l12 88q10 61 -45 98t-123 37h-24q-81 -7 -141 -39t-70 -96zM467 963q-8 -57 36 -90.5t111 -36.5h21q166 8 184 127l8 55 q7 58 -41 89.5t-120 31.5q-71 0 -127.5 -32t-63.5 -89z" />
<glyph unicode="9" horiz-adv-x="1216" d="M51 106l131 230q139 -82 338 -82q104 0 172 40.5t78 119.5l23 149q-52 -54 -132.5 -82t-158.5 -28q-133 0 -228.5 43.5t-142 130t-29.5 204.5l31 205q17 114 102 201.5t205 131.5t252 44q133 0 241 -43.5t169.5 -131.5t44.5 -202l-98 -676q-18 -118 -105 -206.5 t-207.5 -131t-253.5 -42.5q-126 0 -240 32.5t-192 93.5zM426 842q-8 -64 42 -98.5t126 -34.5q74 0 133.5 35t67.5 98l24 166q8 62 -42 95.5t-126 33.5q-75 0 -133 -34t-67 -95z" />
<glyph unicode=":" horiz-adv-x="581" d="M33 0l43 289h151h154l-43 -289h-305zM145 778l43 287h306l-43 -287h-306z" />
<glyph unicode=";" horiz-adv-x="641" d="M25 -207q29 35 48 64t41 86t33 125l19 131h264l-8 -56q-39 -268 -248 -430zM217 768l43 297h285l-43 -297h-285z" />
<glyph unicode="&#x3c;" horiz-adv-x="1243" d="M106 520l961 572l55 -187l-618 -375l536 -348l-120 -182z" />
<glyph unicode="=" horiz-adv-x="1103" d="M37 317l33 224h354h543l-33 -224h-897zM98 743l33 222h897l-33 -222h-897z" />
<glyph unicode="&#x3e;" horiz-adv-x="1241" d="M59 170l609 373l-523 348l142 188l815 -524l-957 -571z" />
<glyph unicode="?" horiz-adv-x="1015" d="M131 1274q94 60 212.5 99.5t225.5 39.5q214 0 319.5 -75t82.5 -234l-10 -60q-6 -43 -25 -81t-49 -69.5t-58.5 -55.5t-65.5 -51q-12 -9 -18 -13q-90 -62 -125.5 -107t-46.5 -126l-12 -78h-307l16 112q13 90 57.5 155t127.5 118q161 101 170 164l6 45q6 41 -32.5 59.5 t-115.5 18.5q-64 0 -143 -25t-141 -59zM172 0l39 270h356l-39 -270h-356z" />
<glyph unicode="@" horiz-adv-x="1630" d="M74 471q0 63 18.5 165t52.5 200q54 169 165 305t273.5 218.5t346.5 82.5q269 0 436.5 -143t167.5 -365q0 -88 -13 -168.5t-44.5 -157.5t-79 -133t-122 -90.5t-167.5 -34.5q-35 0 -66 4.5t-65 15.5t-56 35.5t-26 59.5q-51 -57 -132.5 -98t-160.5 -41q-108 0 -162.5 45.5 t-54.5 117.5q0 50 34.5 163t98.5 237q57 114 180.5 185t237.5 71q104 0 168.5 -46.5t64.5 -121.5q0 -22 -6 -48.5t-12 -45t-19.5 -56t-19.5 -55.5q-47 -139 -47 -192q0 -34 17 -57t48 -23q45 0 82.5 19t61.5 48t42.5 70t28 79t15 81t7 70.5t1.5 52.5q0 166 -126 271 t-335 105q-215 0 -377.5 -132.5t-222.5 -338.5q-67 -239 -67 -329q0 -160 125 -259.5t370 -99.5q152 0 324 88l53 -133q-194 -102 -399 -102q-159 0 -282.5 37t-200.5 102.5t-116.5 152t-39.5 189.5zM602 565q0 -39 20 -60.5t56 -21.5q68 0 129.5 51t81.5 125q6 18 24 65 t27.5 72.5t18 60.5t8.5 58q0 72 -88 72q-66 0 -131.5 -64.5t-88.5 -140.5q-22 -55 -39.5 -124t-17.5 -93z" />
<glyph unicode="A" horiz-adv-x="1341" d="M-57 0l645 1403h358l223 -1403h-348l-30 281h-383l-115 -281h-350zM502 537h270l-59 503z" />
<glyph unicode="B" horiz-adv-x="1302" d="M39 0l203 1393h563q195 0 297 -102q82 -82 83 -207q0 -31 -5 -64l-9 -45q-9 -73 -74.5 -148t-152.5 -102q103 -41 153 -117q37 -57 38 -129q0 -25 -5 -51l-10 -76q-24 -169 -154 -260.5t-329 -91.5h-598zM397 254h224q165 0 184 137l10 70q2 10 2 20q-1 45 -37 74 q-44 35 -108 35h-226zM481 825h217q62 0 102.5 35t49.5 96l6 45q2 16 2 30q0 49 -30 73q-40 30 -123 31h-179z" />
<glyph unicode="C" horiz-adv-x="1157" d="M84 440l76 510q30 210 201 336.5t395 126.5q148 0 243 -31.5t177 -101.5l-158 -229q-63 42 -126 63t-153 21q-104 0 -175.5 -54.5t-86.5 -150.5l-67 -471q-3 -22 -3 -41q0 -72 44 -112q56 -52 165 -52q168 0 295 78l80 -228q-95 -67 -194.5 -95.5t-247.5 -28.5 q-115 0 -207 29t-156 85q-64 58 -91 146q-17 56 -17 120q0 38 6 80z" />
<glyph unicode="D" horiz-adv-x="1343" d="M43 0l203 1393h510q123 0 217 -30t157.5 -89.5t89.5 -155.5q15 -56 15 -122q0 -47 -8 -99l-60 -403q-18 -124 -75.5 -220t-144 -155t-191.5 -89t-224 -30h-489zM397 274h176q107 0 184.5 60t96.5 186l51 350q5 31 5 59q0 79 -40 125q-52 62 -153 62h-197z" />
<glyph unicode="E" horiz-adv-x="1157" d="M39 0l203 1393h872l-39 -277h-553l-41 -276h432l-39 -267h-432l-43 -299h594l-41 -274h-913z" />
<glyph unicode="F" horiz-adv-x="1089" d="M37 0l203 1393h872l-39 -277h-553l-43 -282h432l-39 -267h-432l-82 -567h-319z" />
<glyph unicode="G" horiz-adv-x="1355" d="M86 440l76 510q21 146 114.5 252.5t229.5 158.5t297 52q258 0 446 -131l-143 -240q-83 50 -153.5 72.5t-174.5 22.5q-76 0 -139.5 -23.5t-106.5 -72t-53 -115.5l-67 -463q-3 -23 -3 -43q0 -76 47 -116q61 -50 173 -50t198 33l39 262h-174l37 254h496l-97 -660 q-256 -163 -538 -163q-254 0 -395 118q-115 95 -115 262q0 38 6 80z" />
<glyph unicode="H" horiz-adv-x="1456" d="M41 0l203 1393h321l-84 -572h504l84 572h322l-203 -1393h-322l80 547h-504l-80 -547h-321z" />
<glyph unicode="I" horiz-adv-x="647" d="M51 0l203 1393h317l-202 -1393h-318z" />
<glyph unicode="J" horiz-adv-x="1155" d="M-23 311l324 82v-7q0 -46 35 -86q38 -44 108 -44q71 0 121.5 36.5t61.5 108.5l143 992h322l-146 -1004q-29 -196 -165.5 -300.5t-358.5 -104.5q-215 0 -329 84t-116 243z" />
<glyph unicode="K" horiz-adv-x="1353" d="M41 0l203 1393h321l-88 -602l481 602h390l-596 -668l446 -725h-403l-281 516l-90 -98l-62 -418h-321z" />
<glyph unicode="L" horiz-adv-x="1122" d="M39 0l203 1393h319l-162 -1119h602l-40 -274h-922z" />
<glyph unicode="M" horiz-adv-x="1751" d="M47 0l203 1393h346l258 -750l485 750h342l-202 -1393h-320l133 909l-399 -637h-191l-202 637l-133 -909h-320z" />
<glyph unicode="N" horiz-adv-x="1433" d="M41 0l203 1393h299l401 -897l131 897h295l-203 -1393h-299l-405 889l-129 -889h-293z" />
<glyph unicode="O" d="M86 440l76 516q32 212 203.5 334.5t412.5 122.5h33q154 0 269.5 -54t173.5 -159q43 -78 43 -175q0 -33 -5 -69l-75 -516q-21 -148 -107.5 -253t-216 -156t-291.5 -51h-31q-165 0 -280 50t-171 155q-40 75 -40 174q0 39 6 81zM412 463q-3 -24 -3 -45q0 -72 40 -112 q52 -52 161 -52h31q106 0 174.5 52.5t83.5 156.5l68 467q3 21 3 40q0 70 -44 112q-56 54 -156 55h-33q-102 0 -172.5 -54.5t-85.5 -150.5z" />
<glyph unicode="P" horiz-adv-x="1290" d="M39 0l203 1393h575q209 0 321 -104q91 -84 90 -224q0 -34 -5 -70l-25 -166q-27 -178 -172 -275t-340 -97h-258l-68 -457h-321zM465 713h233q70 0 122 38t63 117l12 88q2 16 2 30q0 54 -30 88q-38 42 -109 42h-234z" />
<glyph unicode="Q" d="M82 440l76 516q21 141 109 246t219 158t288 53h33q154 0 269.5 -54t173.5 -159q43 -78 43 -175q0 -33 -5 -69l-76 -516q-26 -179 -149 -299l111 -137l-170 -121l-119 146q-125 -49 -287 -49h-31q-165 0 -280 50t-171 155q-40 75 -40 174q0 39 6 81zM408 463 q-3 -24 -3 -45q0 -73 40 -112q52 -52 161 -52h31q45 0 65 4l-108 137l170 125l106 -137q20 37 25 80l68 467q3 21 3 40q0 70 -44 112q-55 55 -156 55h-33q-101 0 -172 -54.5t-86 -150.5z" />
<glyph unicode="R" horiz-adv-x="1304" d="M41 0l203 1393h579q218 0 327 -99q85 -78 85 -220q0 -39 -6 -83l-10 -63q-20 -135 -94.5 -226t-186.5 -129l188 -573h-342l-153 500h-195l-74 -500h-321zM473 756h240q65 0 117.5 36.5t62.5 102.5l12 84q2 13 2 24q0 50 -32 78q-39 35 -111 35h-238z" />
<glyph unicode="S" horiz-adv-x="1234" d="M29 193l182 210q64 -70 152 -108.5t182 -38.5q101 0 154 42t53 116q0 51 -45.5 83.5t-167.5 71.5q-205 65 -294 163q-73 80 -73 199q0 27 4 56q11 82 47.5 152.5t89.5 119.5t120.5 84t140 51.5t147.5 16.5q135 0 245.5 -39.5t207.5 -128.5l-175 -223q-80 63 -150 88 t-159 25q-93 0 -144.5 -41t-51.5 -113q0 -51 46.5 -84.5t170.5 -73.5q200 -65 289 -165q73 -82 73 -199q0 -26 -4 -54q-27 -194 -179 -306.5t-372 -112.5q-148 0 -280 55.5t-209 153.5z" />
<glyph unicode="T" horiz-adv-x="1204" d="M100 1116l39 277h1106l-39 -277h-395l-164 -1116h-317l164 1116h-394z" />
<glyph unicode="U" horiz-adv-x="1437" d="M102 375q0 47 13 133l129 885h321l-123 -850q-12 -80 -12 -115q0 -85 60 -129.5t153 -44.5q102 0 180.5 56t94.5 161l133 922h321l-137 -938q-16 -116 -74 -207.5t-143.5 -149.5t-190.5 -88t-221 -30q-146 0 -257.5 42.5t-179 133t-67.5 219.5z" />
<glyph unicode="V" horiz-adv-x="1308" d="M141 1393h348l105 -996l405 996h347l-644 -1393h-333z" />
<glyph unicode="W" horiz-adv-x="1843" d="M174 1393h328l14 -977l352 977h287l74 -983l293 983h327l-475 -1393h-352l-80 932l-344 -932h-352z" />
<glyph unicode="X" horiz-adv-x="1290" d="M-57 0l497 694l-268 699h358l146 -455l289 455h358l-487 -701l282 -692h-360l-156 444l-295 -444h-364z" />
<glyph unicode="Y" horiz-adv-x="1327" d="M164 1393h364l138 -572l309 572h366l-561 -887l-73 -506h-322l74 508z" />
<glyph unicode="Z" horiz-adv-x="1210" d="M-14 0l26 186l738 926h-594l41 281h1003l-26 -183l-736 -934h594l-41 -276h-1005z" />
<glyph unicode="[" horiz-adv-x="581" d="M-16 -322l249 1715h408l-31 -211h-139l-188 -1297h131l-31 -207h-399z" />
<glyph unicode="\" horiz-adv-x="952" d="M158 1393h278l393 -1393h-274z" />
<glyph unicode="]" horiz-adv-x="577" d="M-68 -322l31 213h131l187 1276h-131l32 226h402l-250 -1715h-402z" />
<glyph unicode="^" horiz-adv-x="923" d="M102 821l459 592l275 -590l-166 -78l-156 345l-264 -345z" />
<glyph unicode="_" horiz-adv-x="1175" d="M-49 -256l26 184h975l-26 -184h-975z" />
<glyph unicode="`" horiz-adv-x="581" d="M164 1397l213 108l172 -317l-156 -86z" />
<glyph unicode="a" horiz-adv-x="1077" d="M-14 219q0 35 10 105q44 301 647 301l8 49q4 24 4 41q0 46 -35.5 65t-125.5 19q-62 0 -155.5 -19t-141.5 -43l-45 230q81 44 205.5 71t226.5 27q389 0 389 -285q0 -32 -6 -73l-103 -707h-243l-23 131q-49 -70 -134.5 -107.5t-178.5 -37.5q-147 0 -223 64t-76 169z M313 299q0 -68 117 -68q64 0 111.5 28t52.5 65l18 120q-54 -2 -94.5 -6t-89.5 -14t-78 -31t-33 -51q-4 -31 -4 -43z" />
<glyph unicode="b" horiz-adv-x="1222" d="M23 0l206 1413h320l-70 -477q120 129 287 129q190 1 275 -101q64 -76 64 -199q0 -40 -7 -85l-45 -313q-26 -184 -140 -283.5t-305 -99.5q-77 0 -147.5 34t-104.5 97l-69 -115h-264zM395 365q-2 -11 -2 -21q-1 -48 35 -74q42 -32 113 -32q172 0 190 133l45 305q2 11 2 21 q0 47 -34 77q-42 36 -109 37q-77 0 -131 -35t-64 -102z" />
<glyph unicode="c" horiz-adv-x="1019" d="M53 365l45 313q27 186 174.5 286.5t370.5 100.5q220 0 346 -104l-143 -228q-88 55 -211 55q-90 0 -149.5 -37.5t-69.5 -111.5l-35 -238q-2 -14 -2 -27q0 -56 40 -86q49 -36 142 -36q118 0 230 51l71 -225q-139 -96 -375 -96q-227 0 -345 96q-95 78 -94 217q0 33 5 70z " />
<glyph unicode="d" horiz-adv-x="1218" d="M51 367l45 313q28 183 142 284t305 101q167 0 250 -129l69 477h320l-207 -1413h-266l-35 115q-53 -63 -132.5 -97t-156.5 -34q-193 0 -277 99q-64 75 -64 199q0 40 7 85zM373 371q-2 -15 -2 -28q-1 -51 31 -75q40 -30 122 -30q71 0 122.5 32t60.5 95l45 309q2 13 2 24 q0 50 -36 78q-44 35 -120 35q-68 0 -119.5 -36.5t-60.5 -98.5z" />
<glyph unicode="e" horiz-adv-x="1171" d="M45 311q0 29 10 97l43 294q16 107 99 191t200 127t244 43q183 0 298.5 -83t115.5 -226q0 -23 -8 -80l-37 -246h-631l-2 -16q-6 -36 -6 -56q0 -104 200 -104q185 0 314 63l65 -219q-103 -59 -207.5 -83.5t-234.5 -24.5q-129 0 -231.5 34.5t-167 109t-64.5 179.5zM412 637 h331l5 29q4 28 4 45q0 45 -44.5 70.5t-105.5 25.5q-63 0 -118.5 -31t-63.5 -84z" />
<glyph unicode="f" horiz-adv-x="745" d="M53 0l123 840h-115l29 204h115l16 109q15 101 77.5 173t146 104t180.5 32q171 0 280 -39l-84 -239q-90 16 -170 16q-45 0 -76.5 -20t-37.5 -60l-13 -76h242l-29 -204h-241l-123 -840h-320z" />
<glyph unicode="g" horiz-adv-x="1196" d="M-68 -219q0 171 179 252q-70 43 -70 121q0 59 43 115.5t119 90.5q-99 74 -99 215q0 31 5 66l8 55q27 183 167 275t353 92q135 0 235 -43l254 92l52 -190l-152 -48q26 -54 26 -123q0 -26 -3 -53l-13 -77q-11 -73 -42.5 -131.5t-78.5 -98t-109.5 -66t-132.5 -38t-151 -11.5 q-80 0 -153 13q-25 -29 -25 -53q0 -23 16.5 -39.5t47.5 -22.5l575 -78l-37 -252q-15 -98 -84.5 -169t-169.5 -104.5t-219 -33.5h-164q-169 0 -273 64.5t-104 179.5zM248 -152q0 -31 30 -49t76 -18h138q62 0 98 21.5t41 60.5l6 45l-330 37q-59 -21 -59 -97zM428 602 q-1 -10 -1 -19q0 -40 29 -60q36 -25 97 -25q60 0 104 24.5t52 79.5l12 84q1 8 1 16q0 40 -32 62q-38 27 -94 27q-59 0 -104 -26.5t-52 -78.5z" />
<glyph unicode="h" horiz-adv-x="1239" d="M18 0l207 1413h322l-78 -528q49 76 145.5 127t186.5 51q186 -1 253 -95q48 -67 48 -183q0 -47 -8 -101l-101 -684h-321l96 664q2 13 2 25q0 42 -25 67q-32 32 -94 32q-77 0 -142.5 -40t-74.5 -101l-94 -647h-322z" />
<glyph unicode="i" horiz-adv-x="604" d="M29 0l151 1044h320l-152 -1044h-319zM203 1200l33 213h319l-33 -213h-319z" />
<glyph unicode="j" horiz-adv-x="636" d="M-272 -178q85 18 139 37t99.5 52.5t71 85t36.5 128.5l133 919h321l-139 -956q-34 -236 -187.5 -359t-443.5 -167zM229 1198l33 215h322l-33 -215h-322z" />
<glyph unicode="k" horiz-adv-x="1157" d="M18 0l207 1413h322l-105 -717h62l268 348h365l-404 -493l281 -551h-369l-190 414h-56l-59 -414h-322z" />
<glyph unicode="l" horiz-adv-x="604" d="M29 0l207 1413h319l-207 -1413h-319z" />
<glyph unicode="m" horiz-adv-x="1828" d="M29 0l151 1044h240l4 -149q49 72 145 120t185 48q118 0 189.5 -45.5t78.5 -138.5q48 72 154 129t208 57q177 0 250 -78q55 -59 55 -170q0 -36 -6 -78l-108 -739h-320l97 655q3 22 3 41q0 42 -17 64q-25 32 -97 32.5t-126.5 -45.5t-63.5 -112l-93 -635h-319l96 653 q4 24 4 44q0 43 -16 65q-23 34 -92 33q-67 0 -123.5 -45t-65.5 -107l-94 -643h-319z" />
<glyph unicode="n" horiz-adv-x="1241" d="M18 0l152 1044h250l8 -153q159 172 352 172q192 1 268 -95q56 -70 55 -191q0 -43 -7 -93l-101 -684h-321l94 643q3 18 3 34q0 114 -140 114q-70 0 -129 -41.5t-68 -102.5l-94 -647h-322z" />
<glyph unicode="o" horiz-adv-x="1200" d="M49 367l45 311q18 120 95 208t195 132.5t263 44.5q228 1 342 -101q92 -81 92 -215q0 -33 -6 -69l-45 -311q-17 -119 -97.5 -208t-196.5 -133t-249 -44q-135 0 -239.5 43.5t-160.5 132.5q-42 67 -42 152q0 28 4 57zM375 389q-2 -12 -1 -23q0 -48 34 -77q44 -35 118 -35 q70 0 123.5 35.5t63.5 99.5l39 266q2 11 2 21q0 48 -36 77q-43 35 -112 35q-73 0 -128 -35.5t-64 -97.5z" />
<glyph unicode="p" horiz-adv-x="1218" d="M-47 -449l217 1493h264l37 -118q51 64 132 99.5t157 35.5q191 0 275 -101q64 -76 64 -201q0 -40 -7 -85l-45 -314q-27 -182 -140.5 -281t-304.5 -99q-172 0 -248 126l-82 -555h-319zM393 369q-2 -13 -2 -25q0 -51 35 -78q42 -35 119 -35q67 0 120 38t62 102l43 295 q2 16 2 30q0 51 -32 76q-40 33 -122 33q-70 0 -120.5 -33t-59.5 -96z" />
<glyph unicode="q" horiz-adv-x="1218" d="M51 360l45 314q27 185 141.5 286t305.5 101q76 0 145.5 -35t104.5 -98l67 116h266l-217 -1493h-319l82 555q-117 -126 -287 -126q-191 0 -276 99q-65 75 -65 198q0 39 7 83zM373 365q-2 -11 -2 -22q0 -47 33 -76q41 -36 108 -36q77 0 131 34.5t64 103.5l45 307q2 11 2 21 q0 48 -36 75q-42 33 -112 33q-169 0 -188 -133z" />
<glyph unicode="r" horiz-adv-x="808" d="M12 0l152 1044h248l28 -153q42 74 116 124t155 50q73 0 114 -16l-94 -316q-27 10 -110 10q-73 0 -131 -36t-68 -107l-88 -600h-322z" />
<glyph unicode="s" horiz-adv-x="1040" d="M-18 111l141 217q50 -39 135.5 -69t157.5 -30q92 0 128 22.5t36 63.5q0 30 -40.5 48.5t-140.5 39.5q-160 34 -231.5 105t-71.5 178q0 93 41 167t109.5 118.5t150 68t168.5 23.5q248 0 393 -109l-131 -213q-115 68 -254 68q-74 0 -118.5 -22t-44.5 -66q0 -30 34 -49 t125 -37q164 -32 240 -99.5t76 -173.5q0 -116 -65 -204.5t-171 -133t-233 -44.5q-121 0 -238 33.5t-196 97.5z" />
<glyph unicode="t" horiz-adv-x="849" d="M45 836l29 208h137l35 236h319l-35 -236h230l-29 -208h-229l-70 -465q-2 -12 -1 -23q0 -84 95 -84q42 0 82.5 6t59.5 12l20 7l17 -244q-136 -57 -326 -57q-158 0 -230 76q-53 56 -53 164q0 38 6 81l78 527h-135z" />
<glyph unicode="u" horiz-adv-x="1236" d="M68 303q0 28 8 88l94 653h322l-86 -598q-9 -74 -9 -84q0 -53 40.5 -80.5t105.5 -27.5q69 0 122.5 35.5t63.5 97.5l94 657h322l-98 -679q-27 -180 -181 -282.5t-362 -102.5q-192 0 -314 85.5t-122 237.5z" />
<glyph unicode="v" horiz-adv-x="1140" d="M90 1044h336l84 -698l287 698h331l-518 -1044h-307z" />
<glyph unicode="w" horiz-adv-x="1566" d="M106 1044h312l2 -716l274 716h254l82 -708l197 708h309l-399 -1044h-299l-68 657l-252 -657h-309z" />
<glyph unicode="x" horiz-adv-x="1134" d="M-80 0l422 506l-258 538h362l115 -327l205 327h369l-420 -538l274 -506h-366l-127 287l-209 -287h-367z" />
<glyph unicode="y" horiz-adv-x="1148" d="M-2 -211q77 2 157 36t111 95l35 68l-203 1056h340l78 -675l275 675h337l-569 -1169q-43 -89 -103.5 -152t-134 -99t-151 -52t-168.5 -18z" />
<glyph unicode="z" horiz-adv-x="974" d="M-25 0l27 176l494 617h-400l37 251h766l-22 -155l-500 -633h434l-37 -256h-799z" />
<glyph unicode="{" horiz-adv-x="636" d="M28 0q3 60 21 119l119 405l-96 76l125 96l-11 361q-5 163 109.5 308.5t302.5 199.5l109 -121q-62 -29 -109.5 -75t-74.5 -99.5t-40 -105.5t-14 -103l-16 -367l-103 -88l86 -74l-108 -428q-18 -78 -14.5 -149.5t43.5 -136.5t112 -103l-152 -133q-80 31 -138.5 78.5 t-91 101.5t-47.5 116t-12 122z" />
<glyph unicode="|" horiz-adv-x="468" d="M-49 -301l246 1694h254l-246 -1694h-254z" />
<glyph unicode="}" horiz-adv-x="675" d="M-76 -283q143 72 215 178t72 209l12 433l113 69l-86 84l102 371q26 98 -14.5 208t-142.5 173l127 114q62 -16 114 -47.5t88 -71.5t61 -88t35 -98t8 -100t-18 -94l-118 -361l104 -96l-131 -76l8 -405q2 -72 -29.5 -153.5t-88 -155.5t-143.5 -133.5t-187 -84.5z" />
<glyph unicode="~" horiz-adv-x="843" d="M190 1292q111 146 228 146q47 0 129 -39t112 -39q68 0 113 67l94 -92q-3 -4 -17 -24.5t-24.5 -35t-30 -35t-38 -33.5t-43.5 -23t-51 -10q-47 0 -135 40.5t-142 40.5q-17 0 -35.5 -9t-29 -17.5t-27 -24.5t-19.5 -18z" />
<glyph unicode="&#xa1;" horiz-adv-x="550" d="M-39 -354l170 942h287l-103 -942h-354zM150 821l36 242h312l-37 -242h-311z" />
<glyph unicode="&#xa2;" horiz-adv-x="1048" d="M68 365l45 313q26 175 158 274.5t335 110.5l76 274l192 -32l-77 -252q118 -22 207 -92l-144 -228q-88 55 -211 55q-90 0 -149.5 -37.5t-69.5 -111.5l-35 -238q-11 -76 38 -112.5t142 -36.5q118 0 230 51l72 -225q-139 -96 -375 -96h-6l-78 -254l-185 30l74 244 q-134 35 -197 126t-42 237z" />
<glyph unicode="&#xa3;" horiz-adv-x="1110" d="M-47 0l24 166q83 7 141 28.5t90.5 58.5t49 77.5t23.5 95.5l8 147h-256l30 218h236l12 167q33 220 223.5 335t485.5 120l-41 -276q-168 0 -249.5 -45.5t-96.5 -147.5l-6 -153h313l-31 -218h-295q0 -29 -6 -110q-11 -78 -22 -111t-45 -78h415l-41 -274h-962z" />
<glyph unicode="&#xa5;" horiz-adv-x="1370" d="M82 301l20 129h381l11 78l-19 53h-356l20 135h291l-231 697h364l137 -572l310 572h366l-440 -697h272l-20 -135h-338l-35 -55l-10 -76h362l-20 -129h-363l-43 -301h-321l43 301h-381z" />
<glyph unicode="&#xa6;" horiz-adv-x="468" d="M-16 -209l100 682h195l-101 -682h-194zM123 748l100 684h195l-101 -684h-194z" />
<glyph unicode="&#xa7;" horiz-adv-x="1183" d="M4 -248l158 148q26 -54 103 -98t145 -44q45 0 80 7.5t69.5 27t53 60.5t18.5 102q0 35 -24.5 72t-54.5 63.5t-83 59t-82.5 48t-79.5 40.5q-119 55 -171 124t-52 181q0 106 51.5 199.5t122.5 129.5q-16 50 -16 117q0 103 39 185t105.5 133t151.5 77.5t181 26.5 q127 0 224.5 -40.5t154.5 -115.5l-129 -157q-47 52 -123 84t-150 32q-90 0 -147 -49.5t-57 -132.5q0 -22 7.5 -42t18 -35.5t30 -32t35 -27t43 -25t43.5 -22t46 -20.5t43 -19q133 -62 205.5 -150t72.5 -221q0 -105 -48 -192t-128 -133q21 -49 21 -109q0 -138 -66 -240.5 t-175 -153t-245 -50.5q-129 0 -232.5 50.5t-158.5 141.5zM330 602q0 -36 15 -65t45 -52t56.5 -37.5t69.5 -33.5q146 -75 215 -127q18 7 45 42t27 64q0 37 -16.5 67.5t-49.5 55.5t-64.5 42.5t-80.5 39.5q-105 49 -199 119q-28 -9 -45.5 -43.5t-17.5 -71.5z" />
<glyph unicode="&#xa8;" horiz-adv-x="851" d="M184 1212l33 213h213l-33 -213h-213zM584 1212l32 213h209l-32 -213h-209z" />
<glyph unicode="&#xa9;" horiz-adv-x="1632" d="M94 618q0 171 66.5 325t178 263t262.5 173.5t314 64.5q175 0 314.5 -83.5t216 -227t76.5 -318.5q0 -136 -42.5 -262.5t-119.5 -226.5t-178.5 -175t-224.5 -115t-252 -40q-178 0 -318 82t-216.5 223.5t-76.5 316.5zM242 637q0 -215 135.5 -356.5t349.5 -141.5 q171 0 320 85.5t239 237.5t90 333q0 214 -134.5 356.5t-346.5 142.5q-173 0 -323 -86.5t-240 -238.5t-90 -332zM446 653l13 97q21 139 144 232t269 93q103 0 159.5 -30.5t119.5 -114.5l-127 -133q-29 41 -78.5 66.5t-101.5 25.5q-64 0 -115.5 -39t-60.5 -100l-13 -97 q-10 -64 35 -101.5t115 -37.5q52 0 109.5 23t103.5 61l80 -137q-60 -60 -156.5 -96.5t-177.5 -36.5q-154 0 -247.5 89.5t-70.5 235.5z" />
<glyph unicode="&#xaa;" horiz-adv-x="735" d="M117 922l4 26q14 101 113.5 145t275.5 46l6 45q6 41 -16 58.5t-82 17.5q-94 0 -182 -43l-27 133q115 59 268 59q250 0 217 -229l-61 -420h-144l-12 78q-67 -86 -201 -86q-84 0 -127.5 44.5t-31.5 125.5zM299 950q-4 -25 16.5 -36t57.5 -11q40 0 72 20t38 54l6 51 q-180 0 -188 -59z" />
<glyph unicode="&#xab;" horiz-adv-x="978" d="M37 356l373 371l71 -84l-225 -283l143 -268l-96 -92zM418 356l373 371l71 -84l-223 -283l141 -268l-96 -92z" />
<glyph unicode="&#xac;" horiz-adv-x="946" d="M66 541l26 184h750l-54 -365h-178l27 181h-571z" />
<glyph unicode="&#xad;" horiz-adv-x="708" d="M51 475l37 258h520l-37 -258h-520z" />
<glyph unicode="&#xae;" horiz-adv-x="1632" d="M92 608q0 177 64 333t174 266t262 173.5t323 63.5q181 0 320.5 -81t214 -222t74.5 -318q0 -236 -110 -426.5t-297 -295.5t-412 -105q-277 0 -445 170.5t-168 441.5zM240 629q0 -216 133.5 -353t353.5 -137q178 0 327 84.5t236.5 236.5t87.5 339q0 216 -133 355.5 t-350 139.5q-136 0 -257 -50.5t-208.5 -138t-138.5 -211.5t-51 -265zM471 336l111 758h342q100 0 156.5 -64t43.5 -166l-6 -39q-20 -137 -170 -192l142 -297h-189l-137 274h-84l-39 -274h-170zM700 737h148q38 0 67 19t35 55l6 47q4 35 -20 61.5t-59 26.5h-148z" />
<glyph unicode="&#xaf;" horiz-adv-x="915" d="M199 1307l18 123h672l-19 -123h-671z" />
<glyph unicode="&#xb0;" horiz-adv-x="792" d="M143 1098l9 57q18 118 112 185.5t223 72.5q125 -5 203 -73t60 -185l-9 -57q-17 -118 -114 -185t-224 -67t-202 66.5t-58 185.5zM330 1079q-6 -37 24 -57.5t72 -20.5q44 0 82.5 20t44.5 58l14 99q6 39 -26 60.5t-76 21.5q-42 0 -78.5 -22.5t-42.5 -59.5z" />
<glyph unicode="&#xb1;" horiz-adv-x="1153" d="M-10 0l26 180h949l-27 -180h-948zM113 621l28 198h320l47 314h223l-47 -314h338l-29 -198h-338l-47 -330h-223l47 330h-319z" />
<glyph unicode="&#xb2;" horiz-adv-x="907" d="M164 711l14 102q14 102 75 161t187 113q156 53 156 97q0 43 -86 43q-49 0 -92.5 -10t-65.5 -19.5t-65 -30.5l-39 150q52 38 141.5 66t200.5 28q106 0 172.5 -44t66.5 -134q0 -83 -45.5 -137t-130.5 -92q-29 -15 -82.5 -35t-83 -37t-38.5 -41h329l-24 -180h-590z" />
<glyph unicode="&#xb3;" horiz-adv-x="759" d="M100 778l127 117q26 -31 75 -52.5t104 -21.5q48 0 82.5 12t37.5 35l2 19q6 38 -26.5 59t-77.5 21h-131l20 143h125q43 0 81.5 16t43.5 50l2 18q4 24 -25.5 34.5t-70.5 10.5q-125 0 -195 -51l-61 131q51 43 140 68.5t177 25.5q47 0 86 -4.5t77 -18t62 -35.5t35.5 -59 t4.5 -86l-2 -18q-7 -53 -54.5 -97t-99.5 -57q50 -16 86 -59t29 -92l-4 -31q-30 -207 -332 -207q-107 0 -194 34t-124 95z" />
<glyph unicode="&#xb4;" horiz-adv-x="593" d="M164 1171l276 330l176 -110l-317 -291z" />
<glyph unicode="&#xb6;" horiz-adv-x="1144" d="M139 1040l6 43q20 134 119.5 220.5t233.5 89.5h577l-203 -1393h-155l184 1257h-160l-184 -1257h-168l111 752h-94q-137 0 -212 77t-55 211z" />
<glyph unicode="&#xb7;" horiz-adv-x="440" d="M72 408l39 270h301l-39 -270h-301z" />
<glyph unicode="&#xb8;" horiz-adv-x="573" d="M-45 -422q2 1 24 10.5t40.5 19.5t41 25.5t35.5 36t13 43.5q0 41 -28 66.5t-89 38.5l61 182h166l-35 -100q129 -53 129 -172q0 -96 -79.5 -162.5t-223.5 -114.5z" />
<glyph unicode="&#xb9;" horiz-adv-x="518" d="M123 1184l31 209h372l-100 -691h-236l70 482h-137z" />
<glyph unicode="&#xba;" horiz-adv-x="794" d="M133 1026l19 129q18 114 115.5 184t219.5 70q78 0 142.5 -30t99.5 -89t23 -135l-19 -129q-11 -78 -63 -137t-124 -88t-151 -29q-123 0 -201 69.5t-61 184.5zM334 1047q-9 -60 11.5 -86.5t78.5 -26.5q39 0 74 18t39 52l24 165q6 33 -24.5 52.5t-69.5 19.5q-41 0 -77 -21.5 t-40 -54.5z" />
<glyph unicode="&#xbb;" horiz-adv-x="968" d="M-16 92l219 268l-142 283l95 84l262 -371l-369 -356zM365 92l221 268l-144 283l97 84l262 -371l-369 -356z" />
<glyph unicode="&#xbc;" horiz-adv-x="1386" d="M-53 0l1061 1393h256l-1049 -1393h-268zM137 1184l31 209h373l-101 -691h-235l69 482h-137zM524 131l19 123l383 479h293l-64 -434h115l-25 -168h-115l-18 -131h-221l18 131h-385zM780 299h154l35 229h-19z" />
<glyph unicode="&#xbd;" horiz-adv-x="1447" d="M-55 0l1063 1393h256l-1049 -1393h-270zM137 1184l31 209h373l-101 -691h-235l69 482h-137zM616 -18l15 102q14 103 76 161.5t190 112.5q152 53 152 97q0 43 -84 43q-49 0 -93 -10t-67.5 -20t-65.5 -30l-39 150q54 38 143 66t199 28q107 0 174.5 -44t67.5 -134 q0 -83 -45.5 -137.5t-128.5 -92.5q-30 -15 -85 -35t-84 -36.5t-38 -40.5h332l-27 -180h-592z" />
<glyph unicode="&#xbe;" horiz-adv-x="1595" d="M76 778l129 117q25 -31 73 -52.5t103 -21.5q49 0 84.5 12t38.5 35l2 19q6 38 -28 59t-79 21h-131l21 143h127q41 0 79.5 16t43.5 50l2 18q4 24 -26 34.5t-71 10.5q-124 0 -194 -51l-62 131q51 43 140.5 68.5t177.5 25.5q60 0 106.5 -8.5t88 -29t60 -62.5t9.5 -103l-2 -18 q-7 -53 -54.5 -97t-99.5 -57q50 -16 86 -59t29 -92l-4 -31q-30 -207 -332 -207q-107 0 -193.5 34t-123.5 95zM178 0l1063 1393h256l-1051 -1393h-268zM764 129l18 123l381 479h295l-63 -434h114l-24 -168h-115l-18 -131h-224l19 131h-383zM1018 297h153l33 229h-18z" />
<glyph unicode="&#xbf;" horiz-adv-x="903" d="M-76 -29l6 39q4 28 11 52.5t21 47.5t23.5 38.5t31.5 38t31 31t36.5 33t34.5 30.5q83 63 117 111.5t45 131.5l12 76h307l-16 -113q-10 -73 -50 -130.5t-116 -118.5q-4 -3 -23.5 -20.5t-25.5 -23.5t-23 -22.5t-24 -24.5t-19.5 -23t-18.5 -25.5t-11.5 -24t-6.5 -25.5l-6 -35 q-6 -44 23.5 -64t87.5 -20q60 0 133 27t133 63l84 -219q-99 -64 -215 -105.5t-223 -41.5q-123 0 -207 31t-126 103.5t-26 182.5zM289 795l39 272h354l-39 -272h-354z" />
<glyph unicode="&#xc0;" horiz-adv-x="1341" d="M-57 0l645 1403h358l223 -1403h-348l-30 281h-383l-115 -281h-350zM502 537h270l-59 503zM549 1798l213 109l172 -318l-156 -86z" />
<glyph unicode="&#xc1;" horiz-adv-x="1341" d="M-57 0l645 1403h358l223 -1403h-348l-30 281h-383l-115 -281h-350zM502 537h270l-59 503zM643 1573l277 330l176 -111l-318 -291z" />
<glyph unicode="&#xc2;" horiz-adv-x="1341" d="M-57 0l645 1403h358l223 -1403h-348l-30 281h-383l-115 -281h-350zM502 537h270l-59 503zM518 1610l301 190l244 -196l-102 -111l-170 111l-203 -109z" />
<glyph unicode="&#xc3;" horiz-adv-x="1341" d="M-57 0l645 1403h358l223 -1403h-348l-30 281h-383l-115 -281h-350zM453 1612q110 145 227 145q47 0 129.5 -39t112.5 -39q67 0 112 68l94 -92q-1 -2 -20.5 -30.5t-33.5 -44.5t-38.5 -40t-52.5 -35.5t-59 -11.5q-47 0 -135 41t-142 41q-17 0 -35 -9t-29 -18t-26.5 -24.5 t-19.5 -18.5zM502 537h270l-59 503z" />
<glyph unicode="&#xc4;" horiz-adv-x="1341" d="M-57 0l645 1403h358l223 -1403h-348l-30 281h-383l-115 -281h-350zM471 1516l33 213h213l-33 -213h-213zM502 537h270l-59 503zM870 1516l33 213h209l-33 -213h-209z" />
<glyph unicode="&#xc5;" horiz-adv-x="1341" d="M-57 0l645 1403h358l223 -1403h-348l-30 281h-383l-115 -281h-350zM502 537h270l-59 503zM641 1634q0 74 53 126t123 52q58 0 96.5 -39t38.5 -98q0 -73 -55.5 -126.5t-126.5 -53.5q-56 0 -92.5 40.5t-36.5 98.5zM721 1642q0 -28 17.5 -46.5t43.5 -18.5q35 0 62.5 25 t27.5 61q0 30 -19 51t-48 21q-32 0 -58 -28t-26 -65z" />
<glyph unicode="&#xc6;" horiz-adv-x="1882" d="M-78 0l1036 1393h893l-39 -277h-452l-41 -276h373l-37 -256h-373l-45 -310h496l-41 -274h-815l43 291h-414l-211 -291h-373zM662 547h294l78 538z" />
<glyph unicode="&#xc7;" horiz-adv-x="1157" d="M84 440l76 510q30 210 201 336.5t395 126.5q148 0 243 -31.5t177 -101.5l-158 -229q-63 42 -126 63t-153 21q-104 0 -175.5 -54.5t-86.5 -150.5l-67 -471q-15 -102 41 -153.5t165 -51.5q168 0 295 78l80 -228q-84 -61 -171.5 -89.5t-209.5 -32.5l-28 -82 q129 -53 129 -172q0 -96 -79.5 -162.5t-225.5 -114.5l-54 127q1 1 23.5 10.5t40.5 20t40 26t35 36.5t13 44q0 40 -28 65t-89 38l57 168q-191 24 -289.5 140t-70.5 314z" />
<glyph unicode="&#xc8;" horiz-adv-x="1157" d="M39 0l203 1393h872l-39 -277h-553l-41 -276h432l-39 -267h-432l-43 -299h594l-41 -274h-913zM483 1788l213 108l172 -317l-155 -86z" />
<glyph unicode="&#xc9;" horiz-adv-x="1157" d="M39 0l203 1393h872l-39 -277h-553l-41 -276h432l-39 -267h-432l-43 -299h594l-41 -274h-913zM580 1561l276 329l176 -110l-317 -291z" />
<glyph unicode="&#xca;" horiz-adv-x="1157" d="M39 0l203 1393h872l-39 -277h-553l-41 -276h432l-39 -267h-432l-43 -299h594l-41 -274h-913zM451 1599l301 191l243 -197l-102 -110l-170 110l-203 -108z" />
<glyph unicode="&#xcb;" horiz-adv-x="1157" d="M39 0l203 1393h872l-39 -277h-553l-41 -276h432l-39 -267h-432l-43 -299h594l-41 -274h-913zM408 1503l32 213h213l-32 -213h-213zM807 1503l33 213h209l-33 -213h-209z" />
<glyph unicode="&#xcc;" horiz-adv-x="647" d="M51 0l203 1393h317l-202 -1393h-318zM203 1788l213 108l172 -317l-156 -86z" />
<glyph unicode="&#xcd;" horiz-adv-x="647" d="M51 0l203 1393h317l-202 -1393h-318zM293 1561l276 329l176 -110l-317 -291z" />
<glyph unicode="&#xce;" horiz-adv-x="647" d="M51 0l203 1393h317l-202 -1393h-318zM168 1599l301 191l244 -197l-103 -110l-170 110l-202 -108z" />
<glyph unicode="&#xcf;" horiz-adv-x="647" d="M51 0l203 1393h317l-202 -1393h-318zM129 1503l33 213h213l-33 -213h-213zM528 1503l33 213h209l-33 -213h-209z" />
<glyph unicode="&#xd0;" horiz-adv-x="1343" d="M-8 565l37 248h133l84 580h510q123 0 217 -30t157.5 -89.5t89 -155t7.5 -221.5l-60 -403q-18 -124 -75.5 -220t-144 -155t-191.5 -89t-224 -30h-489l82 565h-133zM397 274h176q107 0 183.5 60t95.5 186l51 350q18 124 -33.5 185t-152.5 61h-197l-45 -303h256l-37 -248 h-256z" />
<glyph unicode="&#xd1;" horiz-adv-x="1433" d="M41 0l203 1393h299l401 -897l131 897h295l-203 -1393h-299l-405 889l-129 -889h-293zM514 1599q111 146 227 146q47 0 129.5 -39t112.5 -39q68 0 113 68l94 -93l-20 -30q-21 -30 -34.5 -45t-38.5 -39t-53 -35.5t-59 -11.5q-47 0 -134.5 41t-141.5 41q-17 0 -35.5 -9 t-29 -18t-27 -24.5t-19.5 -18.5z" />
<glyph unicode="&#xd2;" d="M86 440l76 516q32 212 203.5 334.5t412.5 122.5h33q154 0 269.5 -54t173.5 -159t38 -244l-75 -516q-21 -148 -107.5 -253t-216 -156t-291.5 -51h-31q-165 0 -280 50t-171 155t-34 255zM412 463q-15 -106 37 -157.5t161 -51.5h31q106 0 174.5 52.5t83.5 156.5l68 467 q15 98 -40.5 152.5t-156.5 54.5h-33q-102 0 -172.5 -54.5t-85.5 -150.5zM578 1808l213 109l172 -318l-156 -86z" />
<glyph unicode="&#xd3;" d="M86 440l76 516q32 212 203.5 334.5t412.5 122.5h33q154 0 269.5 -54t173.5 -159t38 -244l-75 -516q-21 -148 -107.5 -253t-216 -156t-291.5 -51h-31q-165 0 -280 50t-171 155t-34 255zM412 463q-15 -106 37 -157.5t161 -51.5h31q106 0 174.5 52.5t83.5 156.5l68 467 q15 98 -40.5 152.5t-156.5 54.5h-33q-102 0 -172.5 -54.5t-85.5 -150.5zM666 1581l276 330l176 -111l-317 -291z" />
<glyph unicode="&#xd4;" d="M86 440l76 516q32 212 203.5 334.5t412.5 122.5h33q154 0 269.5 -54t173.5 -159t38 -244l-75 -516q-21 -148 -107.5 -253t-216 -156t-291.5 -51h-31q-165 0 -280 50t-171 155t-34 255zM412 463q-15 -106 37 -157.5t161 -51.5h31q106 0 174.5 52.5t83.5 156.5l68 467 q15 98 -40.5 152.5t-156.5 54.5h-33q-102 0 -172.5 -54.5t-85.5 -150.5zM543 1620l301 190l243 -196l-102 -111l-170 111l-203 -109z" />
<glyph unicode="&#xd5;" d="M86 440l76 516q32 212 203.5 334.5t412.5 122.5h33q154 0 269.5 -54t173.5 -159t38 -244l-75 -516q-21 -148 -107.5 -253t-216 -156t-291.5 -51h-31q-165 0 -280 50t-171 155t-34 255zM412 463q-15 -106 37 -157.5t161 -51.5h31q106 0 174.5 52.5t83.5 156.5l68 467 q15 98 -40.5 152.5t-156.5 54.5h-33q-102 0 -172.5 -54.5t-85.5 -150.5zM481 1620q110 145 228 145q47 0 129 -38.5t112 -38.5q68 0 113 67l94 -92q-1 -1 -21 -30.5t-33.5 -45t-38.5 -39.5t-53 -35.5t-59 -11.5q-47 0 -134.5 41t-141.5 41q-17 0 -35.5 -9t-29 -18t-27 -24.5 t-19.5 -18.5z" />
<glyph unicode="&#xd6;" d="M86 440l76 516q32 212 203.5 334.5t412.5 122.5h33q154 0 269.5 -54t173.5 -159t38 -244l-75 -516q-21 -148 -107.5 -253t-216 -156t-291.5 -51h-31q-165 0 -280 50t-171 155t-34 255zM412 463q-15 -106 37 -157.5t161 -51.5h31q106 0 174.5 52.5t83.5 156.5l68 467 q15 98 -40.5 152.5t-156.5 54.5h-33q-102 0 -172.5 -54.5t-85.5 -150.5zM502 1524l33 213h213l-33 -213h-213zM901 1524l33 213h209l-33 -213h-209z" />
<glyph unicode="&#xd7;" horiz-adv-x="1251" d="M-14 0l473 508l-316 496h248l215 -340l318 340h245l-456 -496l323 -508h-258l-217 346l-317 -346h-258z" />
<glyph unicode="&#xd8;" d="M68 -145l139 225q-155 120 -121 360l76 516q32 212 203.5 334.5t412.5 122.5h33q107 0 211 -33l115 181h170l-152 -248q80 -60 117 -151.5t20 -205.5l-75 -516q-21 -148 -107.5 -253t-216 -156t-291.5 -51h-31q-128 0 -227 30l-96 -155h-180zM408 399l452 723 q-47 15 -90 15h-33q-102 0 -172.5 -54.5t-85.5 -150.5l-67 -469q-4 -23 -4 -64zM504 268q41 -14 106 -14h31q106 0 174.5 52.5t83.5 156.5l68 467q5 38 -2 80z" />
<glyph unicode="&#xd9;" horiz-adv-x="1437" d="M102 375q0 47 13 133l129 885h321l-123 -850q-12 -80 -12 -115q0 -85 60 -129.5t153 -44.5q102 0 180.5 56t94.5 161l133 922h321l-137 -938q-16 -116 -74 -207.5t-143.5 -149.5t-190.5 -88t-221 -30q-146 0 -257.5 42.5t-179 133t-67.5 219.5zM594 1788l213 108 l172 -317l-156 -86z" />
<glyph unicode="&#xda;" horiz-adv-x="1437" d="M102 375q0 47 13 133l129 885h321l-123 -850q-12 -80 -12 -115q0 -85 60 -129.5t153 -44.5q102 0 180.5 56t94.5 161l133 922h321l-137 -938q-16 -116 -74 -207.5t-143.5 -149.5t-190.5 -88t-221 -30q-146 0 -257.5 42.5t-179 133t-67.5 219.5zM686 1561l277 329 l176 -110l-318 -291z" />
<glyph unicode="&#xdb;" horiz-adv-x="1437" d="M102 375q0 47 13 133l129 885h321l-123 -850q-12 -80 -12 -115q0 -85 60 -129.5t153 -44.5q102 0 180.5 56t94.5 161l133 922h321l-137 -938q-16 -116 -74 -207.5t-143.5 -149.5t-190.5 -88t-221 -30q-146 0 -257.5 42.5t-179 133t-67.5 219.5zM569 1599l301 191 l244 -197l-102 -110l-170 110l-203 -108z" />
<glyph unicode="&#xdc;" horiz-adv-x="1437" d="M102 375q0 47 13 133l129 885h321l-123 -850q-12 -80 -12 -115q0 -85 60 -129.5t153 -44.5q102 0 180.5 56t94.5 161l133 922h321l-137 -938q-16 -116 -74 -207.5t-143.5 -149.5t-190.5 -88t-221 -30q-146 0 -257.5 42.5t-179 133t-67.5 219.5zM516 1503l33 213h213 l-33 -213h-213zM915 1503l33 213h209l-33 -213h-209z" />
<glyph unicode="&#xdd;" horiz-adv-x="1327" d="M164 1393h364l138 -572l309 572h366l-561 -887l-73 -506h-322l74 508zM588 1561l276 329l176 -110l-317 -291z" />
<glyph unicode="&#xde;" horiz-adv-x="1189" d="M39 0l203 1393h321l-35 -248h215q204 0 305 -109t72 -301l-4 -37q-29 -193 -157.5 -291t-337.5 -98h-215l-46 -309h-321zM446 584h193q63 0 106 30.5t50 83.5l4 37q9 58 -25.5 98.5t-95.5 40.5h-191z" />
<glyph unicode="&#xe0;" horiz-adv-x="1077" d="M-14 219q0 35 10 105q44 301 647 301l8 49q4 24 4 41q0 46 -35.5 65t-125.5 19q-62 0 -155.5 -19t-141.5 -43l-45 230q81 44 205.5 71t226.5 27q389 0 389 -285q0 -32 -6 -73l-103 -707h-243l-23 131q-49 -70 -134.5 -107.5t-178.5 -37.5q-147 0 -223 64t-76 169z M313 299q0 -68 117 -68q64 0 111.5 28t52.5 65l18 120q-54 -2 -94.5 -6t-89.5 -14t-78 -31t-33 -51q-4 -31 -4 -43zM373 1497l213 109l172 -318l-156 -86z" />
<glyph unicode="&#xe1;" horiz-adv-x="1077" d="M-14 219q0 35 10 105q44 301 647 301l8 49q4 24 4 41q0 46 -35.5 65t-125.5 19q-62 0 -155.5 -19t-141.5 -43l-45 230q81 44 205.5 71t226.5 27q389 0 389 -285q0 -32 -6 -73l-103 -707h-243l-23 131q-49 -70 -134.5 -107.5t-178.5 -37.5q-147 0 -223 64t-76 169z M313 299q0 -68 117 -68q64 0 111.5 28t52.5 65l18 120q-54 -2 -94.5 -6t-89.5 -14t-78 -31t-33 -51q-4 -31 -4 -43zM481 1272l277 330l176 -111l-318 -291z" />
<glyph unicode="&#xe2;" horiz-adv-x="1077" d="M-14 219q0 35 10 105q44 301 647 301l8 49q4 24 4 41q0 46 -35.5 65t-125.5 19q-62 0 -155.5 -19t-141.5 -43l-45 230q81 44 205.5 71t226.5 27q389 0 389 -285q0 -32 -6 -73l-103 -707h-243l-23 131q-49 -70 -134.5 -107.5t-178.5 -37.5q-147 0 -223 64t-76 169z M313 299q0 -68 117 -68q64 0 111.5 28t52.5 65l18 120q-54 -2 -94.5 -6t-89.5 -14t-78 -31t-33 -51q-4 -31 -4 -43zM354 1309l301 190l244 -196l-102 -111l-170 111l-203 -109z" />
<glyph unicode="&#xe3;" horiz-adv-x="1077" d="M-14 219q0 35 10 105q44 301 647 301l8 49q4 24 4 41q0 46 -35.5 65t-125.5 19q-62 0 -155.5 -19t-141.5 -43l-45 230q81 44 205.5 71t226.5 27q389 0 389 -285q0 -32 -6 -73l-103 -707h-243l-23 131q-49 -70 -134.5 -107.5t-178.5 -37.5q-147 0 -223 64t-76 169z M295 1311q110 145 227 145q47 0 129.5 -39t112.5 -39q68 0 113 68l94 -92q-1 -1 -21 -30.5t-33.5 -45t-38.5 -39.5t-53 -35.5t-59 -11.5q-47 0 -135 41t-142 41q-17 0 -35 -9t-29 -18t-26.5 -24.5t-19.5 -18.5zM313 299q0 -68 117 -68q64 0 111.5 28t52.5 65l18 120 q-54 -2 -94.5 -6t-89.5 -14t-78 -31t-33 -51q-4 -31 -4 -43z" />
<glyph unicode="&#xe4;" horiz-adv-x="1077" d="M-14 219q0 35 10 105q44 301 647 301l8 49q4 24 4 41q0 46 -35.5 65t-125.5 19q-62 0 -155.5 -19t-141.5 -43l-45 230q81 44 205.5 71t226.5 27q389 0 389 -285q0 -32 -6 -73l-103 -707h-243l-23 131q-49 -70 -134.5 -107.5t-178.5 -37.5q-147 0 -223 64t-76 169z M313 299q0 -68 117 -68q64 0 111.5 28t52.5 65l18 120q-54 -2 -94.5 -6t-89.5 -14t-78 -31t-33 -51q-4 -31 -4 -43zM313 1217l33 213h213l-33 -213h-213zM713 1217l32 213h209l-32 -213h-209z" />
<glyph unicode="&#xe5;" horiz-adv-x="1077" d="M-14 219q0 35 10 105q44 301 647 301l8 49q4 24 4 41q0 46 -35.5 65t-125.5 19q-62 0 -155.5 -19t-141.5 -43l-45 230q81 44 205.5 71t226.5 27q389 0 389 -285q0 -32 -6 -73l-103 -707h-243l-23 131q-49 -70 -134.5 -107.5t-178.5 -37.5q-147 0 -223 64t-76 169z M313 299q0 -68 117 -68q64 0 111.5 28t52.5 65l18 120q-54 -2 -94.5 -6t-89.5 -14t-78 -31t-33 -51q-4 -31 -4 -43zM477 1333q0 74 53 126t123 52q58 0 96.5 -39t38.5 -98q0 -73 -55.5 -126.5t-126.5 -53.5q-56 0 -92.5 40.5t-36.5 98.5zM557 1341q0 -28 17.5 -46.5 t43.5 -18.5q35 0 63 25t28 61q0 30 -19.5 51t-48.5 21q-32 0 -58 -28t-26 -65z" />
<glyph unicode="&#xe6;" horiz-adv-x="1726" d="M4 311l33 224l614 69l15 94q9 62 -31 90.5t-121 28.5q-58 0 -148 -17t-155 -36l-37 209q90 48 202 79t206 31q214 0 295 -102q132 102 364 102q94 0 169.5 -22t129.5 -65t78 -112.5t10 -160.5l-31 -219l-618 -55l-10 -70q-8 -56 42 -89.5t154 -33.5q78 0 174 28t152 62 l74 -207q-204 -153 -455 -153q-328 0 -416 174q-61 -88 -156 -131t-208 -43q-174 0 -261 87t-65 238zM307 322q-6 -43 30.5 -67t106.5 -24q61 0 112 26t58 75l13 90l-310 -35zM1006 629l325 26l10 80q14 96 -143 96q-68 0 -120.5 -29t-59.5 -79z" />
<glyph unicode="&#xe7;" horiz-adv-x="1019" d="M53 365l45 313q27 186 174.5 286.5t370.5 100.5q220 0 346 -104l-143 -228q-88 55 -211 55q-90 0 -149.5 -37.5t-69.5 -111.5l-35 -238q-11 -76 38 -112.5t142 -36.5q118 0 230 51l71 -225q-130 -89 -338 -96l-28 -82q129 -53 129 -172q0 -96 -80 -162.5t-226 -114.5 l-53 127q1 1 23.5 10.5t40.5 20t40 26t35 36.5t13 44q0 40 -27 65t-88 38l57 172q-168 24 -249.5 118t-57.5 257z" />
<glyph unicode="&#xe8;" horiz-adv-x="1171" d="M45 311q0 29 10 97l43 294q16 107 99 191t200 127t244 43q183 0 298.5 -83t115.5 -226q0 -23 -8 -80l-37 -246h-631l-2 -16q-6 -36 -6 -56q0 -104 200 -104q185 0 314 63l65 -219q-103 -59 -207.5 -83.5t-234.5 -24.5q-129 0 -231.5 34.5t-167 109t-64.5 179.5zM412 637 h331l5 29q4 28 4 45q0 45 -44.5 70.5t-105.5 25.5q-63 0 -118.5 -31t-63.5 -84zM420 1499l213 109l172 -318l-156 -86z" />
<glyph unicode="&#xe9;" horiz-adv-x="1171" d="M45 311q0 29 10 97l43 294q16 107 99 191t200 127t244 43q183 0 298.5 -83t115.5 -226q0 -23 -8 -80l-37 -246h-631l-2 -16q-6 -36 -6 -56q0 -104 200 -104q185 0 314 63l65 -219q-103 -59 -207.5 -83.5t-234.5 -24.5q-129 0 -231.5 34.5t-167 109t-64.5 179.5zM412 637 h331l5 29q4 28 4 45q0 45 -44.5 70.5t-105.5 25.5q-63 0 -118.5 -31t-63.5 -84zM510 1274l276 330l177 -111l-318 -291z" />
<glyph unicode="&#xea;" horiz-adv-x="1171" d="M45 311q0 29 10 97l43 294q16 107 99 191t200 127t244 43q183 0 298.5 -83t115.5 -226q0 -23 -8 -80l-37 -246h-631l-2 -16q-6 -36 -6 -56q0 -104 200 -104q185 0 314 63l65 -219q-103 -59 -207.5 -83.5t-234.5 -24.5q-129 0 -231.5 34.5t-167 109t-64.5 179.5zM385 1311 l301 190l244 -196l-103 -111l-170 111l-202 -109zM412 637h331l5 29q4 28 4 45q0 45 -44.5 70.5t-105.5 25.5q-63 0 -118.5 -31t-63.5 -84z" />
<glyph unicode="&#xeb;" horiz-adv-x="1171" d="M45 311q0 29 10 97l43 294q16 107 99 191t200 127t244 43q183 0 298.5 -83t115.5 -226q0 -23 -8 -80l-37 -246h-631l-2 -16q-6 -36 -6 -56q0 -104 200 -104q185 0 314 63l65 -219q-103 -59 -207.5 -83.5t-234.5 -24.5q-129 0 -231.5 34.5t-167 109t-64.5 179.5zM342 1219 l33 213h213l-33 -213h-213zM412 637h331l5 29q4 28 4 45q0 45 -44.5 70.5t-105.5 25.5q-63 0 -118.5 -31t-63.5 -84zM741 1219l33 213h209l-33 -213h-209z" />
<glyph unicode="&#xec;" horiz-adv-x="604" d="M29 0l155 1063h320l-156 -1063h-319zM135 1479l213 108l172 -317l-155 -86z" />
<glyph unicode="&#xed;" horiz-adv-x="604" d="M29 0l155 1063h320l-156 -1063h-319zM227 1253l277 330l176 -110l-318 -291z" />
<glyph unicode="&#xee;" horiz-adv-x="604" d="M29 0l155 1063h320l-156 -1063h-319zM104 1290l302 191l243 -197l-102 -110l-170 110l-203 -108z" />
<glyph unicode="&#xef;" horiz-adv-x="604" d="M29 0l155 1063h320l-156 -1063h-319zM63 1200l33 213h213l-33 -213h-213zM463 1200l33 213h209l-33 -213h-209z" />
<glyph unicode="&#xf0;" horiz-adv-x="1200" d="M51 362l29 199q24 166 144 273.5t300 107.5q68 0 144 -21t114 -59q-20 84 -71.5 161.5t-122.5 133.5l-293 -129l-51 137l211 92q-79 47 -146 70l172 213q191 -62 318 -170l276 121l53 -139l-217 -95q207 -278 160 -598l-43 -297q-26 -175 -180.5 -278.5t-368.5 -103.5 q-203 0 -328 104t-100 278zM377 399q-9 -65 33.5 -105t109.5 -40t124.5 39.5t66.5 103.5l18 119q10 70 -34.5 110t-119.5 40q-67 0 -119 -40t-61 -104z" />
<glyph unicode="&#xf1;" horiz-adv-x="1241" d="M18 0l152 1044h250l8 -153q159 172 352 172q192 0 267.5 -95.5t48.5 -283.5l-101 -684h-321l94 643q22 148 -137 148q-70 0 -129 -41.5t-68 -102.5l-94 -647h-322zM358 1313q110 145 228 145q47 0 129 -39t112 -39q68 0 113 68l94 -92q-1 -1 -21 -30.5t-33.5 -45 t-38.5 -39.5t-53 -35.5t-59 -11.5q-47 0 -134.5 41t-141.5 41q-17 0 -35.5 -9t-29 -18t-27 -24.5t-19.5 -18.5z" />
<glyph unicode="&#xf2;" horiz-adv-x="1200" d="M49 367l45 311q18 120 95 208t195 132.5t263 44.5q228 0 342 -101.5t86 -283.5l-45 -311q-17 -119 -97.5 -208t-196.5 -133t-249 -44q-135 0 -239.5 43.5t-160.5 132.5t-38 209zM375 389q-10 -65 33.5 -100t117.5 -35q70 0 123.5 35.5t63.5 99.5l39 266q9 63 -34 98 t-112 35q-73 0 -128 -35.5t-64 -97.5zM430 1499l213 109l172 -318l-156 -86z" />
<glyph unicode="&#xf3;" horiz-adv-x="1200" d="M49 367l45 311q18 120 95 208t195 132.5t263 44.5q228 0 342 -101.5t86 -283.5l-45 -311q-17 -119 -97.5 -208t-196.5 -133t-249 -44q-135 0 -239.5 43.5t-160.5 132.5t-38 209zM375 389q-10 -65 33.5 -100t117.5 -35q70 0 123.5 35.5t63.5 99.5l39 266q9 63 -34 98 t-112 35q-73 0 -128 -35.5t-64 -97.5zM524 1274l277 330l176 -111l-318 -291z" />
<glyph unicode="&#xf4;" horiz-adv-x="1200" d="M49 367l45 311q18 120 95 208t195 132.5t263 44.5q228 0 342 -101.5t86 -283.5l-45 -311q-17 -119 -97.5 -208t-196.5 -133t-249 -44q-135 0 -239.5 43.5t-160.5 132.5t-38 209zM375 389q-10 -65 33.5 -100t117.5 -35q70 0 123.5 35.5t63.5 99.5l39 266q9 63 -34 98 t-112 35q-73 0 -128 -35.5t-64 -97.5zM414 1311l301 190l243 -196l-102 -111l-170 111l-203 -109z" />
<glyph unicode="&#xf5;" horiz-adv-x="1200" d="M49 367l45 311q18 120 95 208t195 132.5t263 44.5q228 0 342 -101.5t86 -283.5l-45 -311q-17 -119 -97.5 -208t-196.5 -133t-249 -44q-135 0 -239.5 43.5t-160.5 132.5t-38 209zM348 1313q110 145 227 145q47 0 129.5 -39t112.5 -39q68 0 113 68l94 -92q-1 -1 -21 -30.5 t-33.5 -45t-38.5 -39.5t-53 -35.5t-59 -11.5q-47 0 -134.5 41t-141.5 41q-17 0 -35.5 -9t-29 -18t-27 -24.5t-19.5 -18.5zM375 389q-10 -65 33.5 -100t117.5 -35q70 0 123.5 35.5t63.5 99.5l39 266q9 63 -34 98t-112 35q-73 0 -128 -35.5t-64 -97.5z" />
<glyph unicode="&#xf6;" horiz-adv-x="1200" d="M49 367l45 311q18 120 95 208t195 132.5t263 44.5q228 0 342 -101.5t86 -283.5l-45 -311q-17 -119 -97.5 -208t-196.5 -133t-249 -44q-135 0 -239.5 43.5t-160.5 132.5t-38 209zM365 1219l32 213h213l-32 -213h-213zM375 389q-10 -65 33.5 -100t117.5 -35 q70 0 123.5 35.5t63.5 99.5l39 266q9 63 -34 98t-112 35q-73 0 -128 -35.5t-64 -97.5zM764 1219l33 213h209l-33 -213h-209z" />
<glyph unicode="&#xf7;" horiz-adv-x="1394" d="M61 469l27 182h1182l-27 -182h-1182zM475 98l39 260h268l-39 -260h-268zM571 752l37 262h269l-37 -262h-269z" />
<glyph unicode="&#xf8;" horiz-adv-x="1200" d="M20 -119l142 195q-139 106 -113 291l45 311q18 120 95 208t195 132.5t263 44.5q120 0 215 -31l88 121h137l-122 -172q140 -103 110 -303l-45 -311q-17 -119 -97.5 -208t-196.5 -133t-249 -44q-128 0 -223 36l-98 -137h-146zM373 362l303 414q-30 12 -70 12 q-73 0 -128 -35.5t-64 -97.5l-39 -266q-4 -19 -2 -27zM444 268q32 -14 82 -14q70 0 123.5 35.5t63.5 99.5l39 266q2 14 -2 35z" />
<glyph unicode="&#xf9;" horiz-adv-x="1236" d="M68 303q0 28 8 88l94 653h322l-86 -598q-9 -74 -9 -84q0 -53 40.5 -80.5t105.5 -27.5q69 0 122.5 35.5t63.5 97.5l94 657h322l-98 -679q-27 -180 -181 -282.5t-362 -102.5q-192 0 -314 85.5t-122 237.5zM449 1479l213 108l172 -317l-156 -86z" />
<glyph unicode="&#xfa;" horiz-adv-x="1236" d="M68 303q0 28 8 88l94 653h322l-86 -598q-9 -74 -9 -84q0 -53 40.5 -80.5t105.5 -27.5q69 0 122.5 35.5t63.5 97.5l94 657h322l-98 -679q-27 -180 -181 -282.5t-362 -102.5q-192 0 -314 85.5t-122 237.5zM545 1253l276 330l176 -110l-317 -291z" />
<glyph unicode="&#xfb;" horiz-adv-x="1236" d="M68 303q0 28 8 88l94 653h322l-86 -598q-9 -74 -9 -84q0 -53 40.5 -80.5t105.5 -27.5q69 0 122.5 35.5t63.5 97.5l94 657h322l-98 -679q-27 -180 -181 -282.5t-362 -102.5q-192 0 -314 85.5t-122 237.5zM418 1290l301 191l244 -197l-103 -110l-170 110l-203 -108z" />
<glyph unicode="&#xfc;" horiz-adv-x="1236" d="M68 303q0 28 8 88l94 653h322l-86 -598q-9 -74 -9 -84q0 -53 40.5 -80.5t105.5 -27.5q69 0 122.5 35.5t63.5 97.5l94 657h322l-98 -679q-27 -180 -181 -282.5t-362 -102.5q-192 0 -314 85.5t-122 237.5zM377 1200l33 213h213l-33 -213h-213zM776 1200l33 213h209 l-33 -213h-209z" />
<glyph unicode="&#xfd;" horiz-adv-x="1148" d="M-2 -211q77 2 157 36t111 95l35 68l-203 1056h340l78 -675l275 675h337l-569 -1169q-43 -89 -103.5 -152t-134 -99t-151 -52t-168.5 -18zM500 1255l276 330l176 -110l-317 -291z" />
<glyph unicode="&#xfe;" horiz-adv-x="1251" d="M-47 -453l272 1864h322l-70 -471q73 69 139 99t154 30q186 0 284 -103t72 -276l-47 -319q-25 -177 -153.5 -284t-313.5 -107q-101 0 -165 26.5t-113 89.5l-80 -549h-301zM416 385q-9 -70 34 -112t115 -42q69 0 127.5 40.5t69.5 119.5l39 271q11 81 -31 117t-119 36 q-71 0 -127.5 -42.5t-66.5 -113.5z" />
<glyph unicode="&#xff;" horiz-adv-x="1148" d="M-2 -211q77 2 157 36t111 95l35 68l-203 1056h340l78 -675l275 675h337l-569 -1169q-43 -89 -103.5 -152t-134 -99t-151 -52t-168.5 -18zM330 1202l32 213h213l-32 -213h-213zM729 1202l33 213h209l-33 -213h-209z" />
<glyph unicode="&#x152;" horiz-adv-x="1855" d="M31 463l67 467q17 118 113 225t240 171.5t294 64.5h1104l-39 -275h-516l-39 -260h435l-39 -266h-432l-45 -316h555l-41 -274h-1141q-160 0 -285.5 62t-187 168.5t-43.5 232.5zM358 502q-13 -95 54 -161.5t176 -66.5h260l123 842h-264q-102 0 -190.5 -69t-102.5 -156z" />
<glyph unicode="&#x153;" horiz-adv-x="1853" d="M59 367l45 311q18 120 95 208t195 132.5t263 44.5q225 0 320 -98q133 98 334 98q199 0 317 -98t94 -263l-41 -274h-632l-7 -49q-10 -66 44.5 -96.5t156.5 -30.5q184 0 313 63l66 -219q-103 -58 -208 -83t-234 -25q-225 0 -334 100q-138 -106 -348 -106q-135 0 -240 43.5 t-161 132.5t-38 209zM385 389q-10 -65 34.5 -101t117.5 -36q70 0 122.5 33.5t61.5 95.5l41 281q9 60 -34 93t-112 33q-72 0 -127.5 -35.5t-64.5 -97.5zM1081 637h334l8 57q8 53 -39 83t-112 30q-62 0 -118 -31t-64 -84z" />
<glyph unicode="&#x178;" horiz-adv-x="1327" d="M164 1393h364l138 -572l309 572h366l-561 -887l-73 -506h-322l74 508zM463 1503l33 213h213l-33 -213h-213zM862 1503l33 213h209l-33 -213h-209z" />
<glyph unicode="&#x2c6;" horiz-adv-x="757" d="M180 1286l301 191l244 -197l-102 -111l-170 111l-203 -109z" />
<glyph unicode="&#x2dc;" horiz-adv-x="907" d="M190 1292q111 146 228 146q47 0 129 -39t112 -39q68 0 113 67l94 -92q-3 -4 -17 -24.5t-24.5 -35t-30 -35t-38 -33.5t-43.5 -23t-51 -10q-47 0 -135 40.5t-142 40.5q-17 0 -35.5 -9t-29 -17.5t-27 -24.5t-19.5 -18z" />
<glyph unicode="&#x2000;" horiz-adv-x="958" />
<glyph unicode="&#x2001;" horiz-adv-x="1917" />
<glyph unicode="&#x2002;" horiz-adv-x="958" />
<glyph unicode="&#x2003;" horiz-adv-x="1917" />
<glyph unicode="&#x2004;" horiz-adv-x="639" />
<glyph unicode="&#x2005;" horiz-adv-x="479" />
<glyph unicode="&#x2006;" horiz-adv-x="319" />
<glyph unicode="&#x2007;" horiz-adv-x="319" />
<glyph unicode="&#x2008;" horiz-adv-x="239" />
<glyph unicode="&#x2009;" horiz-adv-x="383" />
<glyph unicode="&#x200a;" horiz-adv-x="106" />
<glyph unicode="&#x2010;" horiz-adv-x="708" d="M51 475l37 258h520l-37 -258h-520z" />
<glyph unicode="&#x2011;" horiz-adv-x="708" d="M51 475l37 258h520l-37 -258h-520z" />
<glyph unicode="&#x2012;" horiz-adv-x="708" d="M51 475l37 258h520l-37 -258h-520z" />
<glyph unicode="&#x2013;" horiz-adv-x="1230" d="M-10 512l28 195h1166l-29 -195h-1165z" />
<glyph unicode="&#x2014;" horiz-adv-x="1660" d="M0 514l27 193h1583l-27 -193h-1583z" />
<glyph unicode="&#x2018;" horiz-adv-x="348" d="M86 967l8 55q23 161 90.5 272t147.5 160l104 -74q-70 -102 -96 -282l-18 -131h-236z" />
<glyph unicode="&#x2019;" horiz-adv-x="368" d="M61 1047q31 40 48 65t40.5 83t32.5 126l19 131h264l-8 -55q-12 -89 -41 -163t-69.5 -126.5t-70 -82t-67.5 -58.5z" />
<glyph unicode="&#x201a;" horiz-adv-x="499" d="M2 -207q29 36 48 64t41.5 85.5t33.5 125.5l18 131h265l-9 -56q-39 -269 -247 -430z" />
<glyph unicode="&#x201c;" horiz-adv-x="702" d="M86 967l8 55q23 160 90.5 271t145.5 161l104 -74q-71 -109 -96 -282l-19 -131h-233zM408 967l8 55q23 161 89.5 272t145.5 160l105 -74q-71 -104 -97 -282l-18 -131h-233z" />
<glyph unicode="&#x201d;" horiz-adv-x="698" d="M57 1032q31 37 49 64t41.5 85t32.5 126l19 131h264l-8 -56q-12 -89 -41 -163t-69.5 -126.5t-70 -82t-67.5 -58.5zM375 1032q31 37 49 64t41.5 85t32.5 126l18 131h264l-8 -56q-12 -89 -41 -163t-69.5 -126.5t-70 -82t-67.5 -58.5z" />
<glyph unicode="&#x201e;" horiz-adv-x="890" d="M0 -205q30 35 49.5 64t42 86t33.5 125l18 131h265l-9 -56q-39 -269 -247 -430zM326 -203q31 37 49 64t41.5 85t32.5 126l18 131h264l-6 -56q-11 -72 -34 -136t-48 -106.5t-59.5 -83.5t-56.5 -60.5t-52 -43.5z" />
<glyph unicode="&#x2022;" horiz-adv-x="692" d="M72 338l61 426h420l-61 -426h-420z" />
<glyph unicode="&#x2026;" horiz-adv-x="1671" d="M39 0l39 270h278l-39 -270h-278zM584 0l39 270h278l-39 -270h-278zM1126 0l39 270h279l-39 -270h-279z" />
<glyph unicode="&#x202f;" horiz-adv-x="383" />
<glyph unicode="&#x2039;" horiz-adv-x="585" d="M23 356l356 371l119 -84l-224 -283l142 -268l-144 -92z" />
<glyph unicode="&#x203a;" horiz-adv-x="585" d="M-8 92l219 268l-141 283l143 84l246 -371l-353 -356z" />
<glyph unicode="&#x205f;" horiz-adv-x="479" />
<glyph unicode="&#x20ac;" d="M37 506l20 141h183l16 107h-182l20 141h182l9 55q20 140 108.5 247t216 161.5t273.5 54.5t242 -31.5t178 -101.5l-158 -229q-62 41 -126.5 62.5t-154.5 21.5q-102 0 -174.5 -54.5t-87.5 -150.5l-4 -35h446l-20 -141h-446l-17 -107h447l-21 -141h-446l-6 -47 q-14 -102 42.5 -153.5t163.5 -51.5q170 0 297 78l80 -228q-95 -67 -195 -95.5t-247 -28.5q-115 0 -207.5 29t-156.5 85.5t-91.5 145t-11.5 200.5l10 66h-182z" />
<glyph unicode="&#x2122;" horiz-adv-x="1124" d="M164 1329l14 105h379l-14 -105h-135l-50 -332h-112l49 332h-131zM578 1004l63 430h117l73 -177l127 177h119l-63 -430h-115l37 243l-109 -155h-36l-64 155l-37 -243h-112z" />
<glyph unicode="&#x25fc;" horiz-adv-x="1044" d="M0 0v1044h1044v-1044h-1044z" />
<glyph unicode="&#xfb03;" horiz-adv-x="2015" d="M53 0l123 840h-115l29 204h115l18 125q16 108 92.5 184t180.5 110t223 34q225 0 436 -59q127 59 285 59q278 0 522 -86l-86 -223q-71 15 -111 22t-125.5 16t-173.5 9q-99 0 -150.5 -30.5t-60.5 -98.5l-10 -62h242l-29 -204h-241l-123 -840h-320l123 840h-401l-123 -840 h-320zM524 1044h402l18 125q3 31 12 54q-91 12 -211 12q-98 0 -149.5 -30.5t-60.5 -98.5zM1495 0l152 1044h319l-151 -1044h-320z" />
<glyph unicode="&#xfb04;" horiz-adv-x="2066" d="M53 0l123 840h-115l29 204h115l18 125q16 108 92.5 184t180.5 110t223 34q225 0 436 -59q127 59 281 59q267 0 581 -104l-202 -1393h-320l176 1210q-106 25 -205 25t-150.5 -30.5t-60.5 -98.5l-10 -62h242l-29 -204h-241l-123 -840h-320l123 840h-401l-123 -840h-320z M524 1044h402l18 125q5 32 12 54q-91 12 -211 12q-98 0 -149 -30.5t-61 -98.5z" />
</font>
</defs>
</svg>
