<?xml version="1.0" standalone="no"?>
<!DOCTYPE svg PUBLIC "-//W3C//DTD SVG 1.1//EN" "http://www.w3.org/Graphics/SVG/1.1/DTD/svg11.dtd" >
<svg xmlns="http://www.w3.org/2000/svg">
<metadata></metadata>
<defs>
<font id="bose_gothicitalic" horiz-adv-x="1355" >
<font-face units-per-em="2048" ascent="1536" descent="-512" />
<missing-glyph horiz-adv-x="446" />
<glyph unicode="&#xdf;" horiz-adv-x="1277" d="M70 0l161 1114q26 178 157 281.5t327 103.5q175 0 291 -82.5t116 -238.5q0 -20 -4 -60q-99 -81 -148 -133t-70 -100t-21 -111q0 -42 18 -78.5t36.5 -55t57.5 -52.5q40 -38 63 -66t43.5 -77t20.5 -105q0 -171 -123 -264.5t-315 -93.5q-105 0 -193 37t-122 102l81 102 q27 -44 90 -73t156 -29q67 0 127 22.5t101 71.5t41 115q0 44 -19 81t-43 60.5t-74 63.5q-106 85 -106 215q0 107 50 201.5t185 197.5q2 10 2 29q0 59 -38.5 100.5t-95 58.5t-124.5 17q-121 0 -206.5 -69t-100.5 -177l-162 -1108h-159z" />
<glyph unicode="&#xfb01;" horiz-adv-x="1169" d="M86 0l135 924h-131l16 120h132l18 127q21 146 147 226t302 80q186 0 372 -58l-45 -121q-205 37 -327 37q-128 0 -204 -47t-89 -139l-17 -105h244l-16 -120h-244l-135 -924h-158zM709 0l151 1044h160l-152 -1044h-159z" />
<glyph unicode="&#xfb02;" horiz-adv-x="1173" d="M86 0l135 924h-131l16 120h132l18 127q21 146 147 226t302 80q184 0 370 -58l-207 -1419h-159l192 1321q-107 14 -196 14q-128 0 -204 -47t-89 -139l-17 -105h244l-16 -120h-244l-135 -924h-158z" />
<glyph horiz-adv-x="0" />
<glyph horiz-adv-x="682" />
<glyph unicode="&#xd;" horiz-adv-x="446" />
<glyph unicode=" "  horiz-adv-x="446" />
<glyph unicode="&#x09;" horiz-adv-x="446" />
<glyph unicode="&#xa0;" horiz-adv-x="446" />
<glyph unicode="!" horiz-adv-x="534" d="M84 0l31 207h209l-31 -207h-209zM182 483l123 910h168l-143 -910h-148z" />
<glyph unicode="&#x22;" horiz-adv-x="628" d="M174 946l62 453h116l-71 -453h-107zM416 946l61 453h115l-72 -453h-104z" />
<glyph unicode="#" horiz-adv-x="1441" d="M66 315l16 113h307l129 401h-319l18 113h342l111 350h127l-113 -350h270l115 350h123l-111 -350h252l-18 -113h-275l-129 -401h285l-18 -113h-306l-96 -315h-127l96 315h-268l-100 -315h-123l96 315h-284zM516 428h270l129 401h-270z" />
<glyph unicode="$" horiz-adv-x="1191" d="M45 211l105 102q54 -92 151.5 -139t220.5 -47q146 0 237 68.5t91 195.5q0 88 -65 141.5t-220 102.5q-178 57 -270 141.5t-92 216.5q0 102 40 182.5t109.5 131.5t159.5 77.5t193 26.5q25 0 75 -4l60 197l116 -19l-61 -203q142 -47 227 -157l-98 -109q-128 150 -340 150 q-142 0 -234 -65.5t-92 -184.5q0 -91 71.5 -146t229.5 -106q178 -57 262.5 -138.5t84.5 -211.5q0 -133 -67 -232t-179.5 -148.5t-255.5 -49.5h-27l-69 -238l-113 16l70 236q-108 21 -192 75t-128 138z" />
<glyph unicode="%" horiz-adv-x="1507" d="M141 0l1041 1393h149l-1036 -1393h-154zM184 969q0 16 6 59l25 168q15 97 100.5 157t194.5 60q98 0 163.5 -53t65.5 -133q0 -21 -6 -58l-24 -170q-15 -99 -98 -159t-193 -60q-101 0 -167.5 51.5t-66.5 137.5zM313 993q0 -42 34 -67t87 -25q58 0 103 30.5t51 78.5l20 149 q4 27 4 43q0 39 -34 63.5t-86 24.5q-57 0 -102 -28.5t-52 -77.5l-21 -146q-4 -25 -4 -45zM743 172q0 8 7 59l24 168q15 97 100.5 157t194.5 60q98 0 163.5 -53t65.5 -133q0 -19 -6 -57l-24 -170q-15 -99 -98 -159t-193 -60q-101 0 -167.5 51t-66.5 137zM872 197 q0 -42 34 -67.5t87 -25.5q58 0 103 30.5t51 78.5l20 149q4 27 4 44q0 39 -34 63.5t-86 24.5q-57 0 -102 -29t-52 -78l-20 -145q-5 -31 -5 -45z" />
<glyph unicode="&#x26;" horiz-adv-x="1474" d="M57 272q0 38 7.5 74t26 70t36.5 61.5t52 60.5t58 55t69.5 55.5t72 52t79.5 54.5q13 9 19 13l15 10l-168 213l24 174q17 109 118.5 179.5t235.5 70.5q147 0 227.5 -63t80.5 -176q0 -53 -18 -102.5t-43.5 -86.5t-71.5 -80.5t-82.5 -71.5t-96.5 -71l279 -344l246 221l92 -98 l-252 -228l207 -249l-123 -99l-199 244q-245 -231 -512 -231q-179 0 -279 74.5t-100 217.5zM221 297q0 -77 54 -125.5t176 -48.5q107 0 205.5 50t207.5 144l-289 359l-20 -14q-17 -12 -64 -44.5t-64 -45t-54.5 -41t-52.5 -43.5t-39 -41.5t-34 -47.5t-18 -47.5t-8 -54.5z M473 1040l145 -180q56 38 92.5 66.5t74.5 66.5t56.5 77.5t18.5 82.5q0 60 -45.5 92.5t-132.5 32.5q-81 0 -133 -36.5t-60 -92.5z" />
<glyph unicode="'" horiz-adv-x="466" d="M221 985l60 469h131l-82 -469h-109z" />
<glyph unicode="(" horiz-adv-x="698" d="M100 45q0 68 13 154l102 700q32 219 136.5 393t252.5 258l64 -82q-116 -66 -199 -214t-113 -355l-102 -700q-12 -91 -12 -168q0 -282 157 -393l-86 -87q-101 67 -157 197t-56 297z" />
<glyph unicode=")" horiz-adv-x="712" d="M-23 -367q113 70 196.5 221t113.5 361l98 672q14 107 14 174q0 143 -39 245.5t-110 155.5l78 88q101 -67 156 -200t55 -303q0 -71 -13 -160l-98 -672q-31 -218 -137 -397t-254 -262z" />
<glyph unicode="*" horiz-adv-x="806" d="M190 1192l39 92l199 -65l31 217h98l-31 -219l213 67l15 -92l-211 -68l102 -176l-90 -59l-100 178l-156 -178l-68 59l152 176z" />
<glyph unicode="+" horiz-adv-x="1183" d="M84 725l18 125h435l59 420h131l-59 -420h436l-19 -125h-436l-67 -459h-131l67 459h-434z" />
<glyph unicode="," horiz-adv-x="403" d="M-68 -203q43 53 67.5 107t37.5 141l18 117h140l-7 -43q-21 -147 -64 -226.5t-112 -146.5z" />
<glyph unicode="-" horiz-adv-x="714" d="M82 512l20 139h492l-21 -139h-491z" />
<glyph unicode="." horiz-adv-x="501" d="M49 0l31 205h201l-31 -205h-201z" />
<glyph unicode="/" horiz-adv-x="800" d="M-66 -174l762 1567h148l-766 -1567h-144z" />
<glyph unicode="0" horiz-adv-x="1300" d="M102 344q0 45 4 68l82 563q20 138 102 239t199.5 150t253.5 49q189 0 308.5 -101t119.5 -270q0 -44 -4 -67l-82 -563q-30 -208 -183.5 -320t-366.5 -112q-191 0 -312 97.5t-121 266.5zM262 365q0 -119 81.5 -179.5t211.5 -60.5q145 0 250 74.5t127 216.5l80 555 q4 36 4 51q0 118 -82 181t-213 63q-145 0 -249.5 -76.5t-125.5 -218.5l-80 -555q-4 -36 -4 -51z" />
<glyph unicode="1" horiz-adv-x="602" d="M106 0l183 1245h-150l21 148h305l-203 -1393h-156z" />
<glyph unicode="2" horiz-adv-x="1130" d="M25 0l10 76q32 220 144.5 365t346.5 268q45 24 67 36t60 34t56.5 35t47.5 34t42.5 37t31.5 38.5t26 44t14 47.5t6 54q0 87 -63.5 133.5t-172.5 46.5q-99 0 -201 -44t-180 -109l-63 112q100 86 225 136.5t256 50.5q156 0 258 -77t102 -220q0 -73 -23 -136.5t-58.5 -110.5 t-96 -94.5t-116 -80.5t-138.5 -76q-191 -101 -281 -202.5t-116 -254.5h715l-21 -143h-878z" />
<glyph unicode="3" horiz-adv-x="1198" d="M51 279v8l144 37q0 -92 86 -144.5t208 -52.5q76 0 145.5 20t123.5 67.5t63 115.5l17 110q2 10 2 31q0 87 -74.5 134.5t-179.5 47.5h-187l19 135h182q108 0 199 52t104 145l12 76q3 15 3 31q0 90 -72.5 133t-190.5 43q-66 0 -133 -21.5t-121.5 -68t-70.5 -107.5l-129 39 q36 134 178.5 218.5t308.5 84.5q175 0 283 -72.5t108 -212.5q0 -15 -4 -55l-10 -76q-14 -99 -92 -174t-180 -106q89 -27 146.5 -88.5t57.5 -153.5q0 -27 -2 -41l-16 -115q-12 -82 -60.5 -147.5t-119.5 -105.5t-153.5 -61t-168.5 -21q-185 0 -305.5 80.5t-120.5 214.5z" />
<glyph unicode="4" horiz-adv-x="1189" d="M8 324l21 133l770 936h188l-135 -924h227l-20 -145h-228l-47 -324h-155l47 324h-668zM201 469h495l103 698h-19z" />
<glyph unicode="5" horiz-adv-x="1191" d="M86 301q0 5 1 14.5t1 14.5l156 28q0 -4 -1 -13t-1 -13q0 -95 76 -151t198 -56q113 0 206 60t109 163l21 137q2 12 2 37q0 88 -64 136.5t-174 48.5h-407l166 686h694l-20 -148h-557l-97 -399h258q165 0 263 -78.5t98 -220.5q0 -20 -4 -60l-21 -143q-13 -83 -60.5 -153 t-115.5 -115.5t-149 -70.5t-164 -25q-185 0 -299.5 84.5t-114.5 236.5z" />
<glyph unicode="6" horiz-adv-x="1187" d="M82 303q0 37 6 74l96 657q16 112 89 199t184.5 133.5t242.5 46.5q227 0 359 -129l-88 -119q-52 49 -127.5 76t-159.5 27q-136 0 -231.5 -63.5t-110.5 -170.5l-43 -295q65 70 159 109t191 39q162 0 268.5 -77t106.5 -220q0 -28 -6 -72l-25 -164q-18 -120 -98 -207 t-186.5 -127t-225.5 -40q-109 0 -198 35t-146 110t-57 178zM242 328q0 -101 76.5 -153t185.5 -52q77 0 146 24t122.5 81t65.5 139l20 141q4 27 4 51q0 96 -76 146.5t-188 50.5q-120 0 -217.5 -64t-114.5 -170l-20 -137q-4 -24 -4 -57z" />
<glyph unicode="7" horiz-adv-x="962" d="M106 1239l23 154h866l-14 -103l-623 -1290h-174l611 1239h-689z" />
<glyph unicode="8" horiz-adv-x="1247" d="M94 276q0 16 4 52l17 102q16 103 93.5 179t186.5 114q-78 33 -125 99t-47 149q0 25 2 39l11 65q17 107 90 185.5t175 115.5t218 37q104 0 190.5 -32t141.5 -100t55 -161q0 -23 -6 -59l-10 -60q-17 -92 -88.5 -167.5t-165.5 -110.5q87 -37 143.5 -101t56.5 -155 q0 -23 -2 -37l-16 -102q-14 -88 -62.5 -156t-119.5 -109t-153.5 -62t-172.5 -21q-84 0 -157.5 18t-132 53t-92.5 93t-34 132zM256 305q0 -63 41 -105t100 -58.5t133 -16.5q77 0 144.5 18.5t122 67.5t65.5 123l17 110q2 12 2 25q0 85 -76.5 135.5t-177.5 50.5h-31 q-72 0 -140.5 -24t-120 -73.5t-61.5 -113.5l-16 -108q-2 -10 -2 -31zM379 965q0 -80 71 -129.5t166 -49.5h19q104 0 193.5 55t103.5 150l8 56q4 24 4 43q0 88 -72.5 133t-175.5 45q-72 0 -135.5 -21t-111.5 -69.5t-58 -116.5l-8 -55q-4 -28 -4 -41z" />
<glyph unicode="9" horiz-adv-x="1200" d="M102 115l78 114q141 -104 326 -104q82 0 153 23t125 78t66 134l37 254q-70 -68 -162 -103.5t-186 -35.5q-108 0 -194 32.5t-139.5 102.5t-53.5 168q0 40 4 60l30 213q16 107 94.5 191.5t187.5 127.5t226 43q107 0 198.5 -37t149.5 -110t58 -168q0 -15 -4 -47l-105 -709 q-13 -88 -61.5 -158.5t-119.5 -114t-154.5 -66.5t-170.5 -23q-111 0 -216.5 35.5t-166.5 99.5zM311 809q0 -96 78 -145.5t191 -49.5q74 0 143 25.5t120 79t62 123.5l29 198q2 10 2 29q0 91 -78 144t-186 53q-118 0 -217 -61.5t-113 -164.5l-29 -198q-2 -12 -2 -33z" />
<glyph unicode=":" horiz-adv-x="577" d="M96 0l33 227h107h88l-33 -227h-195zM219 840l33 225h194l-32 -225h-195z" />
<glyph unicode=";" horiz-adv-x="626" d="M82 -203q43 55 67.5 108.5t36.5 139.5l19 117h139l-8 -53q-11 -75 -29 -133.5t-44 -101t-48 -69.5t-55 -59zM270 831l35 234h189l-35 -234h-189z" />
<glyph unicode="&#x3c;" horiz-adv-x="1265" d="M102 500l979 547l39 -107l-782 -436l694 -414l-71 -106z" />
<glyph unicode="=" horiz-adv-x="1292" d="M76 406l18 126h371h661l-18 -126h-1032zM139 848l19 125h1032l-19 -125h-1032z" />
<glyph unicode="&#x3e;" horiz-adv-x="1226" d="M43 86l772 422l-627 428l82 106l787 -530l-967 -535z" />
<glyph unicode="?" horiz-adv-x="919" d="M154 1276q185 137 383 137q161 0 248 -61.5t87 -182.5q0 -17 -4 -53l-14 -86q-5 -41 -25 -78t-53 -69t-63.5 -55.5t-73.5 -53.5q-8 -5 -12 -8q-90 -63 -133 -111.5t-54 -122.5l-18 -118h-158l23 145q11 78 63.5 138.5t141.5 121.5q52 35 74 50.5t57.5 45.5t51 55.5 t19.5 53.5l11 76q2 10 2 26q0 73 -58 106.5t-149 33.5q-78 0 -159 -30.5t-142 -76.5zM178 0l31 207h221l-31 -207h-221z" />
<glyph unicode="@" horiz-adv-x="1671" d="M90 469q0 103 68 338q36 128 110.5 240.5t175.5 196.5t231.5 132.5t270.5 48.5q263 0 429.5 -143t166.5 -364q0 -132 -59 -300q-43 -126 -127 -201t-213 -75q-68 0 -121.5 30.5t-67.5 88.5q-59 -66 -144 -107t-173 -41q-109 0 -162 51t-53 130q0 39 28.5 134t65.5 187 q51 128 171 214.5t249 86.5q107 0 166 -47t59 -129q0 -19 -5.5 -44.5t-11 -42.5t-18.5 -55t-18 -53q-3 -10 -14.5 -44t-15 -46.5t-10 -36.5t-9 -39t-2.5 -28q0 -109 102 -109q70 0 126 49.5t87 126.5q31 74 49.5 157.5t18.5 133.5q0 191 -139 304.5t-369 113.5 q-237 0 -423.5 -150.5t-246.5 -373.5q-6 -24 -23 -86.5t-24 -92t-14.5 -71.5t-7.5 -70q0 -173 153 -288t399 -115q160 0 330 84l35 -88q-172 -94 -379 -94q-289 0 -465 137.5t-176 349.5zM545 518q0 -45 33 -71.5t94 -26.5q92 0 176 60t113 149q7 21 32.5 91t37 114t11.5 79 q0 99 -133 99q-93 0 -178 -73t-119 -171q-67 -189 -67 -250z" />
<glyph unicode="A" horiz-adv-x="1298" d="M-33 0l695 1409h169l275 -1409h-172l-76 420h-516l-203 -420h-172zM399 559h443l-125 645z" />
<glyph unicode="B" horiz-adv-x="1271" d="M84 0l203 1393h485q154 0 252 -76.5t98 -214.5q0 -28 -6 -72l-6 -39q-13 -93 -79 -165.5t-159 -100.5q97 -33 152 -100t55 -162q0 -23 -6 -66l-10 -61q-25 -170 -145 -253t-304 -83h-530zM264 137h352q111 0 194 52.5t97 158.5l11 58q4 24 4 55q0 92 -69 140t-181 48 h-334zM356 780h326q103 0 181 54.5t91 150.5l9 53q4 32 4 47q0 92 -62 130t-176 38h-303z" />
<glyph unicode="C" horiz-adv-x="1181" d="M94 356q0 34 6 74l78 531q20 139 103.5 243.5t203.5 156.5t260 52q279 0 414 -156l-94 -118q-117 127 -334 127q-144 0 -259 -86t-136 -226l-74 -516q-4 -20 -4 -63q0 -126 83 -188t228 -62q223 0 367 102l53 -116q-93 -70 -201 -100.5t-249 -30.5q-127 0 -226.5 41.5 t-159 128t-59.5 206.5z" />
<glyph unicode="D" horiz-adv-x="1341" d="M84 0l203 1393h450q206 0 333.5 -102t127.5 -290q0 -34 -6 -75l-68 -465q-17 -115 -72 -205t-136.5 -145t-179.5 -83t-208 -28h-444zM262 145h287q73 0 140.5 18.5t126.5 55.5t99.5 102t53.5 150l65 447q4 28 4 57q0 128 -91.5 199t-229.5 71h-295z" />
<glyph unicode="E" horiz-adv-x="1134" d="M84 0l203 1393h768l-21 -148h-612l-68 -463h510l-20 -143h-510l-72 -494h660l-21 -145h-817z" />
<glyph unicode="F" horiz-adv-x="1034" d="M84 0l203 1393h764l-21 -148h-608l-66 -450h508l-22 -144h-504l-94 -651h-160z" />
<glyph unicode="G" horiz-adv-x="1316" d="M96 362q0 33 4 66l78 533q16 107 70.5 194t134.5 142.5t177 85.5t202 30q138 0 247.5 -39.5t178.5 -103.5l-82 -123q-140 119 -361 119q-150 0 -269 -84t-140 -226l-74 -520q-4 -32 -4 -45q0 -120 88.5 -193t226.5 -73q194 0 342 88l56 381h-326l21 139h483l-86 -598 q-108 -72 -229 -113.5t-281 -41.5q-195 0 -326 103.5t-131 278.5z" />
<glyph unicode="H" horiz-adv-x="1447" d="M84 0l203 1393h157l-94 -645h733l93 645h157l-200 -1393h-158l88 602h-733l-88 -602h-158z" />
<glyph unicode="I" horiz-adv-x="600" d="M119 0l200 1393h158l-203 -1393h-155z" />
<glyph unicode="J" horiz-adv-x="1124" d="M2 287q0 14 2 28l162 29q-2 -12 -2 -25q0 -84 69.5 -139t174.5 -55q121 0 205.5 60.5t101.5 172.5l149 1035h160l-152 -1039q-27 -182 -158 -277t-331 -95q-166 0 -273.5 83t-107.5 222z" />
<glyph unicode="K" horiz-adv-x="1286" d="M84 0l203 1393h157l-102 -697l711 697h200l-686 -656l555 -737h-209l-469 625l-129 -121l-73 -504h-158z" />
<glyph unicode="L" horiz-adv-x="1089" d="M84 0l203 1393h157l-182 -1248h699l-23 -145h-854z" />
<glyph unicode="M" horiz-adv-x="1701" d="M84 0l203 1393h174l352 -836l594 836h174l-201 -1393h-159l165 1143l-557 -791h-94l-327 787l-166 -1139h-158z" />
<glyph unicode="N" horiz-adv-x="1441" d="M84 0l203 1393h164l563 -1145l166 1145h149l-201 -1393h-161l-568 1147l-166 -1147h-149z" />
<glyph unicode="O" d="M106 428l78 535q31 211 188 330.5t378 119.5h34q140 0 248.5 -54t163.5 -158q40 -76 40 -169q0 -34 -5 -69l-78 -535q-31 -218 -186.5 -333t-391.5 -115h-30q-143 0 -249 51t-158 153q-38 74 -38 169q0 36 6 75zM266 436q-5 -34 -6 -65q0 -107 64 -168q80 -78 241 -78h33 q157 0 267.5 81t131.5 230l76 518q4 29 4 55q1 109 -69 175q-86 82 -246 82h-33q-146 0 -256 -85t-131 -227z" />
<glyph unicode="P" horiz-adv-x="1245" d="M84 0l203 1393h497q197 -1 303 -105q85 -84 86 -215q0 -32 -6 -67l-16 -113q-26 -181 -152.5 -269.5t-332.5 -88.5h-347l-77 -535h-158zM340 674h336q132 0 216.5 58t102.5 175l13 86q4 24 4 46q0 85 -52 139q-66 67 -202 67h-336z" />
<glyph unicode="Q" d="M106 428l78 535q31 211 188 330.5t378 119.5h34q140 0 248.5 -54t163.5 -158q40 -76 40 -169q0 -33 -5 -69l-78 -535q-28 -203 -178 -324l115 -161l-103 -74l-121 170q-127 -59 -291 -59h-30q-143 0 -248.5 51t-158.5 153q-38 75 -38 169q0 36 6 75zM266 436 q-5 -34 -5 -65q0 -107 63 -168q80 -78 241 -78h33q105 0 184 33l-110 157l98 74l119 -166q90 81 108 213l76 518q4 29 4 55q0 108 -69 175q-87 82 -246 82h-33q-146 0 -256 -85t-131 -227z" />
<glyph unicode="R" horiz-adv-x="1241" d="M86 0l203 1393h524q180 1 277 -97q78 -78 78 -202q0 -31 -5 -64l-10 -78q-41 -269 -324 -329l224 -623h-174l-205 588h-344l-86 -588h-158zM348 725h373q105 5 180.5 60.5t89.5 156.5l13 84q3 20 3 39q0 74 -48 121q-60 59 -179 59h-356z" />
<glyph unicode="S" horiz-adv-x="1193" d="M45 211l107 102q54 -92 151.5 -139t220.5 -47q127 0 218 59.5t108 165.5q4 25 4 47q0 79 -48 123q-61 57 -239 113q-97 32 -165 67.5t-118 83.5t-68 112q-11 39 -12 84q0 29 5 60q16 120 88 205t176.5 124.5t231.5 39.5q133 0 241.5 -48t179.5 -138l-100 -109 q-124 150 -340 150q-125 0 -216 -58t-105 -161q-3 -21 -3 -39q0 -24 5 -44q9 -36 29.5 -63.5t62.5 -52t87 -43t116 -41.5q202 -64 284 -156q64 -72 64 -184q0 -32 -6 -68q-23 -174 -160.5 -273t-337.5 -99q-146 0 -273 59.5t-188 167.5z" />
<glyph unicode="T" horiz-adv-x="1177" d="M127 1245l20 148h1067l-22 -148h-459l-180 -1245h-158l180 1245h-448z" />
<glyph unicode="U" horiz-adv-x="1421" d="M141 432l140 961h157l-139 -955q-4 -31 -5 -59q0 -47 13 -85q20 -62 65.5 -98t106 -53.5t135.5 -17.5q144 0 263.5 84.5t140.5 228.5l139 955h158l-139 -961q-16 -114 -68.5 -202t-131.5 -142t-175 -81t-207 -27q-104 0 -192 28t-153 82t-95 142q-19 57 -19 125 q0 36 6 75z" />
<glyph unicode="V" horiz-adv-x="1212" d="M162 1393h172l188 -1176l539 1176h172l-662 -1393h-163z" />
<glyph unicode="W" horiz-adv-x="1826" d="M195 1393h165l70 -1178l492 1178h145l152 -1180l411 1180h164l-508 -1393h-182l-146 1147l-483 -1147h-182z" />
<glyph unicode="X" horiz-adv-x="1185" d="M-27 0l519 698l-289 695h180l227 -566l400 566h182l-506 -695l305 -698h-186l-232 569l-413 -569h-187z" />
<glyph unicode="Y" horiz-adv-x="1210" d="M182 1393h183l229 -682l432 682h184l-561 -848l-80 -545h-159l79 545z" />
<glyph unicode="Z" horiz-adv-x="1181" d="M10 0l17 100l886 1145h-698l23 148h897l-15 -103l-882 -1145h733l-23 -145h-938z" />
<glyph unicode="[" horiz-adv-x="575" d="M31 -336l252 1729h297l-19 -123h-151l-215 -1485h143l-19 -121h-288z" />
<glyph unicode="\" horiz-adv-x="858" d="M182 1393h146l356 -1393h-145z" />
<glyph unicode="]" horiz-adv-x="571" d="M-31 -324l19 123h145l213 1465h-147l18 129h293l-250 -1717h-291z" />
<glyph unicode="^" horiz-adv-x="849" d="M145 897l385 518l222 -518l-111 -27l-143 334l-246 -334z" />
<glyph unicode="_" horiz-adv-x="1118" d="M-12 -172l16 117h866l-16 -117h-866z" />
<glyph unicode="`" horiz-adv-x="524" d="M205 1378l129 80l145 -301l-94 -59z" />
<glyph unicode="a" horiz-adv-x="1069" d="M33 209q0 30 8 88q43 301 700 317l15 105q6 48 6 59q0 73 -46.5 109.5t-150.5 36.5q-74 0 -180.5 -25.5t-155.5 -52.5l-24 121q69 41 184.5 69.5t212.5 28.5q161 0 239.5 -68t78.5 -192q0 -21 -9 -82l-104 -723h-131l10 156q-50 -67 -149 -118.5t-230 -51.5 q-132 0 -203 58t-71 165zM195 242q0 -123 170 -123q126 0 223 60t108 136l29 187q-103 -3 -182.5 -12.5t-158.5 -30.5t-127 -61t-58 -97q-4 -23 -4 -59z" />
<glyph unicode="b" horiz-adv-x="1175" d="M55 0l207 1413h158l-74 -500q62 75 154 113.5t192 38.5q180 1 272 -101q71 -79 71 -203q0 -35 -5 -73l-47 -330q-26 -177 -145.5 -276.5t-302.5 -99.5q-101 0 -183.5 38t-120.5 117l-38 -137h-138zM260 340q-2 -17 -2 -32q0 -84 64 -132q76 -57 196 -57q123 0 206 61.5 t101 177.5l47 330q3 22 3 42q0 79 -52 131q-66 65 -182 65q-126 0 -219 -57.5t-109 -166.5z" />
<glyph unicode="c" horiz-adv-x="972" d="M66 285q0 38 4 61l49 348q24 171 157.5 271t319.5 100q195 0 317 -129l-86 -113q-95 95 -241 95q-118 0 -205.5 -63.5t-104.5 -174.5l-45 -322q-4 -28 -4 -39q0 -95 71.5 -145.5t176.5 -50.5q151 0 270 82l46 -117q-139 -106 -349 -106q-165 0 -270.5 80.5t-105.5 222.5z " />
<glyph unicode="d" horiz-adv-x="1175" d="M74 358l47 330q26 174 147 275.5t301 101.5q100 0 181.5 -38.5t119.5 -113.5l74 500h158l-207 -1413h-139l2 137q-60 -79 -152.5 -117t-193.5 -38q-184 0 -274 100q-70 77 -70 201q0 35 6 75zM231 358q-4 -25 -4 -48q0 -81 50 -129q64 -62 188 -62q122 0 214.5 57.5 t106.5 163.5l54 362q3 19 3 37q0 83 -62 130q-75 57 -201 57q-116 0 -200 -64.5t-101 -173.5z" />
<glyph unicode="e" horiz-adv-x="1073" d="M68 348l53 367q14 98 87.5 179t178 125t215.5 44q112 0 200 -43q88 -44 134 -124q34 -61 35 -133q0 -24 -4 -48l-33 -219h-690l-21 -142q-3 -18 -3 -35q0 -84 66 -133q80 -59 208 -59q195 0 323 80l39 -113q-154 -106 -389 -106q-70 0 -133.5 14t-117 43.5t-90.5 71.5 q-36 41 -52 101q-10 37 -10 78q0 25 4 52zM262 618h541l14 95q2 15 2 28q0 73 -58 125q-69 60 -179 60q-109 0 -200 -61.5t-106 -151.5z" />
<glyph unicode="f" horiz-adv-x="645" d="M86 0l135 924h-131l16 120h132l18 127q21 139 124.5 215t244.5 76q126 0 215 -39l-45 -125q-81 23 -166 23q-88 0 -146.5 -41.5t-68.5 -120.5l-19 -115h244l-16 -120h-244l-135 -924h-158z" />
<glyph unicode="g" horiz-adv-x="1159" d="M-25 -223q0 100 62 167.5t164 96.5q-92 50 -92 141q0 60 40.5 115t102.5 80q-112 76 -112 214q0 28 5 58l11 68q24 165 156 255.5t311 90.5q138 0 223 -49l264 80l23 -115l-187 -51q47 -69 47 -156q0 -25 -4 -51l-10 -78q-17 -111 -84 -187.5t-161.5 -111.5t-209.5 -35 q-104 0 -174 23q-38 -16 -64 -46.5t-26 -68.5q0 -41 34 -66.5t85 -35.5l549 -90l-31 -203q-14 -94 -83.5 -159.5t-162 -93.5t-198.5 -28h-111q-103 0 -183 23t-132 77.5t-52 135.5zM133 -193q0 -69 67 -101t167 -32h108q225 0 266 154l15 96l-410 64q-88 -7 -150.5 -51.5 t-62.5 -129.5zM303 635q-2 -16 -2 -31q0 -72 53 -116q63 -52 185 -52q109 0 186.5 48.5t91.5 150.5l12 82q1 12 1 23q0 82 -58 128q-66 52 -170 52q-66 0 -126 -21.5t-105.5 -69t-55.5 -112.5z" />
<glyph unicode="h" horiz-adv-x="1216" d="M63 0l207 1413h160l-82 -559q67 96 171.5 152.5t221.5 56.5q172 0 249 -95q58 -72 58 -188q0 -38 -6 -80l-102 -700h-158l101 694q4 25 4 47q-1 73 -43 118q-56 59 -164 59q-122 0 -234 -77.5t-127 -181.5l-96 -659h-160z" />
<glyph unicode="i" horiz-adv-x="542" d="M80 0l151 1044h160l-151 -1044h-160zM256 1262l23 151h172l-23 -151h-172z" />
<glyph unicode="j" horiz-adv-x="575" d="M-242 -283q93 24 153.5 51.5t106.5 72t71 107t38 154.5l137 942h158l-139 -956q-32 -223 -149.5 -338.5t-354.5 -167.5zM291 1262l22 151h162l-22 -151h-162z" />
<glyph unicode="k" horiz-adv-x="1026" d="M63 0l207 1413h158l-115 -778h76l434 409h187l-492 -475l377 -569h-188l-324 487h-90l-72 -487h-158z" />
<glyph unicode="l" horiz-adv-x="542" d="M78 0l207 1413h159l-206 -1413h-160z" />
<glyph unicode="m" horiz-adv-x="1832" d="M74 0l151 1044h131l-16 -176q64 88 162 142.5t200 54.5q119 0 192.5 -47.5t86.5 -145.5q147 193 389 193q160 0 233 -86q56 -65 55 -172q0 -34 -5 -72l-107 -735h-157l102 705q3 23 3 44q0 69 -34 114q-46 59 -145 59q-125 0 -218 -67.5t-110 -178.5l-98 -676h-160 l105 719q3 22 3 42q0 65 -36 107q-47 54 -148 54q-107 0 -208.5 -79.5t-116.5 -176.5l-97 -666h-157z" />
<glyph unicode="n" horiz-adv-x="1218" d="M63 0l152 1044h135l-16 -194q160 213 399 213q174 -1 255 -95q62 -72 62 -189q0 -36 -6 -77l-102 -702h-160l101 688q4 27 4 51q0 76 -41 121q-54 60 -170 60q-74 0 -152.5 -34.5t-136.5 -96t-68 -130.5l-96 -659h-160z" />
<glyph unicode="o" horiz-adv-x="1136" d="M68 350l51 348q24 164 166.5 264.5t326.5 100.5q186 -1 296 -101q91 -83 91 -207q0 -27 -4 -57l-51 -348q-16 -110 -90.5 -195t-179 -128t-219.5 -43q-117 0 -210 44t-143 128q-38 64 -38 142q0 25 4 52zM227 358q-3 -19 -3 -37q0 -79 60 -131q74 -64 191 -63 q111 0 202.5 63.5t108.5 167.5l48 332q2 17 2 32q0 82 -60 134q-72 62 -185.5 62t-208 -63.5t-108.5 -164.5z" />
<glyph unicode="p" horiz-adv-x="1169" d="M-14 -422l213 1466h139l-2 -141q60 80 153.5 120t194.5 40q182 0 273 -101q71 -78 71 -203q0 -35 -6 -75l-49 -332q-26 -174 -146 -273t-301 -99q-102 0 -183 36.5t-120 110.5l-80 -549h-157zM254 340q-3 -19 -3 -37q0 -82 62 -129q75 -57 201 -57q117 0 201.5 64.5 t99.5 174.5l47 324q4 26 4 49q0 82 -50 131q-64 64 -187 64q-77 0 -144.5 -24t-117 -76t-60.5 -124z" />
<glyph unicode="q" horiz-adv-x="1169" d="M72 352l49 332q26 178 146 278.5t302 100.5q101 0 183 -38.5t118 -117.5l37 137h140l-213 -1466h-158l80 549q-60 -74 -151 -110.5t-193 -36.5q-181 0 -274 100q-72 77 -72 200q0 34 6 72zM229 354q-3 -21 -3 -40q0 -82 53 -134q65 -63 182 -63q81 0 148.5 23t116.5 74.5 t60 125.5l54 360q3 19 3 36q0 81 -63 130q-75 58 -196 58q-123 0 -205.5 -62.5t-99.5 -179.5z" />
<glyph unicode="r" horiz-adv-x="747" d="M63 0l152 1044h135l-10 -190q44 89 125 150t174 61q63 0 115 -14l-47 -162q-48 10 -111 10q-105 0 -186 -90.5t-97 -206.5l-88 -602h-162z" />
<glyph unicode="s" horiz-adv-x="987" d="M2 115l82 114q53 -52 142 -82t173 -30q263 0 263 180q0 58 -53 94.5t-179 67.5q-157 36 -227 100.5t-70 163.5q0 88 35 155.5t94.5 106.5t132 58.5t154.5 19.5q201 0 346 -98l-78 -117q-128 78 -274 78q-115 0 -186.5 -43.5t-71.5 -139.5q0 -60 52.5 -95.5t176.5 -61.5 q180 -40 246 -112q54 -59 54 -150q0 -20 -3 -43q-15 -100 -77 -169.5t-149.5 -100.5t-193.5 -31q-105 0 -211.5 34.5t-177.5 100.5z" />
<glyph unicode="t" horiz-adv-x="802" d="M90 922l16 122h150l41 269h158l-41 -269h297l-17 -122h-297l-94 -639q-2 -17 -2 -32q0 -114 135 -114q108 0 201 35l16 -129q-130 -51 -272 -51q-135 0 -197 67q-47 50 -46 139q0 30 5 64l97 660h-150z" />
<glyph unicode="u" horiz-adv-x="1204" d="M113 346l100 698h158l-101 -690q-3 -20 -3 -38q-1 -82 55 -131q68 -60 190 -60t208 61t101 168l101 690h157l-100 -698q-26 -170 -161.5 -268t-325.5 -98q-125 0 -216 42q-92 42 -136 126q-32 60 -32 137q0 29 5 61z" />
<glyph unicode="v" horiz-adv-x="1079" d="M109 1044h167l183 -849l428 849h168l-551 -1044h-150z" />
<glyph unicode="w" horiz-adv-x="1515" d="M121 1044h158l75 -849l373 849h131l137 -847l316 847h155l-424 -1044h-149l-129 821l-367 -821h-153z" />
<glyph unicode="x" horiz-adv-x="1021" d="M-53 0l438 522l-266 522h180l199 -405l309 405h190l-426 -522l287 -522h-186l-211 403l-330 -403h-184z" />
<glyph unicode="y" horiz-adv-x="1034" d="M-14 -438l4 131q91 0 168 52.5t127 154.5l32 65l-213 1079h170l154 -874l408 874h170l-568 -1159q-159 -323 -452 -323z" />
<glyph unicode="z" horiz-adv-x="1003" d="M2 0l14 100l674 813h-543l19 131h731l-12 -88l-672 -819h590l-21 -137h-780z" />
<glyph unicode="{" horiz-adv-x="632" d="M94 -14q0 64 17 125l106 393l-76 96l109 115v346q0 152 91 268t253 191l47 -90q-246 -134 -252 -365l-8 -365l-88 -94l63 -82l-108 -420q-12 -49 -12 -94q0 -167 163 -274l-77 -94q-228 132 -228 344z" />
<glyph unicode="|" horiz-adv-x="481" d="M29 -301l245 1694h136l-246 -1694h-135z" />
<glyph unicode="}" horiz-adv-x="647" d="M10 -264q265 156 271 368l10 420l88 82l-60 92l103 367q10 34 10 80q0 159 -166 285l68 88q114 -62 174.5 -150t60.5 -194q0 -61 -16 -113l-102 -346l77 -115l-108 -96l-6 -393q-2 -137 -91.5 -258t-265.5 -207z" />
<glyph unicode="~" horiz-adv-x="823" d="M199 1276q47 65 92 97t100 32q39 0 84 -23.5t87.5 -47t76.5 -23.5q54 0 92 67l74 -55q-85 -131 -178 -131q-47 0 -91.5 23.5t-85 47t-77.5 23.5q-61 0 -107 -72z" />
<glyph unicode="&#xa1;" horiz-adv-x="522" d="M31 -350l162 950h147l-117 -950h-192zM215 883l25 170h186l-25 -170h-186z" />
<glyph unicode="&#xa2;" horiz-adv-x="964" d="M68 283q0 29 6 63l49 348q26 172 156 271.5t321 99.5l80 264l113 -18l-80 -258q119 -24 205 -117l-87 -113q-95 95 -239 95q-117 0 -205.5 -64t-105.5 -174l-45 -322q-5 -35 -5 -39q0 -96 71 -146t177 -50q152 0 271 82l47 -117q-139 -106 -351 -106q-8 0 -23 1t-22 1 l-77 -256l-113 18l78 256q-102 30 -161.5 102t-59.5 179z" />
<glyph unicode="&#xa3;" horiz-adv-x="1171" d="M41 0l16 106q87 1 150 27t99 74t53.5 106t21.5 133l8 158h-266l18 125h254l15 234q10 139 99 241.5t229 152.5t311 50l-21 -145q-198 0 -324 -77t-135 -224l-14 -232h393l-18 -125h-379q-10 -156 -12 -174q-13 -104 -40.5 -168.5t-101.5 -116.5h568l-23 -145h-901z" />
<glyph unicode="&#xa5;" horiz-adv-x="1189" d="M57 317l13 95h397l20 133l-10 28h-383l15 97h333l-262 723h182l232 -682l430 682h184l-479 -723h318l-15 -97h-366l-19 -28l-20 -133h379l-13 -95h-379l-47 -317h-159l47 317h-398z" />
<glyph unicode="&#xa6;" horiz-adv-x="481" d="M41 -227l98 669h115l-98 -669h-115zM182 743l99 672h114l-98 -672h-115z" />
<glyph unicode="&#xa7;" horiz-adv-x="1157" d="M27 -250l100 70q23 -69 99.5 -114.5t168.5 -45.5q123 0 207 64.5t84 183.5q0 47 -22.5 91t-55 76.5t-83.5 66t-91.5 54.5t-95.5 46q-44 21 -75.5 39t-65.5 45.5t-55 57.5t-34.5 72.5t-13.5 92.5q0 110 66 196.5t145 106.5q-35 56 -35 158q0 127 59.5 219.5t157.5 137 t222 44.5q126 0 213.5 -50t124.5 -140l-93 -74q-30 67 -100 106t-164 39q-117 0 -202 -72t-85 -184q0 -32 11 -62.5t24.5 -52.5t43 -47t48.5 -39t59 -35t56.5 -29t59.5 -28q64 -32 109 -61.5t88 -70t65 -91t22 -110.5q0 -42 -9.5 -83.5t-31 -86.5t-65.5 -84t-105 -62 q41 -65 41 -160q0 -119 -60.5 -210t-159.5 -137t-218 -46q-127 0 -223 56.5t-131 152.5zM225 573q0 -80 56 -130t176 -105q163 -76 243 -145q61 6 110.5 62.5t49.5 123.5q0 81 -56 133t-186 115q-157 77 -229 139q-65 -6 -114.5 -63.5t-49.5 -129.5z" />
<glyph unicode="&#xa8;" horiz-adv-x="737" d="M182 1190l23 160h147l-22 -160h-148zM528 1190l23 160h147l-22 -160h-148z" />
<glyph unicode="&#xa9;" horiz-adv-x="1656" d="M113 618q0 171 63.5 322t172 259t259 170.5t318.5 62.5q171 0 308 -81t213.5 -224t76.5 -320q0 -166 -63 -315t-170 -257t-257 -171.5t-317 -63.5q-176 0 -314.5 80.5t-214 221t-75.5 316.5zM215 635q0 -235 144.5 -386t373.5 -151q137 0 264 55.5t220 149t148.5 223 t55.5 271.5q0 234 -140 385t-370 151q-137 0 -265 -54.5t-222.5 -147t-151.5 -223t-57 -273.5zM444 600q0 9 5 49l14 96q22 141 142.5 238.5t275.5 97.5q188 0 278 -135l-78 -84q-30 47 -91.5 76t-125.5 29q-101 0 -183.5 -66.5t-96.5 -155.5l-13 -77q-4 -23 -4 -52 q0 -84 64.5 -135t159.5 -53q65 0 134 24t117 66l45 -90q-59 -55 -145.5 -85t-169.5 -30q-145 0 -236.5 80.5t-91.5 206.5z" />
<glyph unicode="&#xaa;" horiz-adv-x="716" d="M143 938l4 25q11 79 106.5 131t281.5 59l8 57q7 54 -14 76.5t-78 22.5q-48 0 -103.5 -14.5t-89.5 -34.5l-22 92q46 24 112 41.5t129 17.5q100 0 145 -50t33 -142l-63 -433h-84l4 78q-81 -86 -211 -86q-88 0 -128.5 42.5t-29.5 117.5zM252 946q-8 -63 88 -63 q58 0 107.5 28.5t54.5 63.5l14 90q-118 -6 -186 -33t-74 -69z" />
<glyph unicode="&#xab;" horiz-adv-x="958" d="M61 356l369 369l51 -72l-270 -293l182 -286l-69 -74zM399 356l369 369l49 -72l-266 -293l180 -286l-69 -74z" />
<glyph unicode="&#xac;" horiz-adv-x="927" d="M94 575l17 115h682l-45 -311h-109l29 196h-574z" />
<glyph unicode="&#xad;" horiz-adv-x="714" d="M82 512l20 139h492l-21 -139h-491z" />
<glyph unicode="&#xae;" horiz-adv-x="1656" d="M113 618q0 171 63.5 322t172 259t259 170.5t318.5 62.5q171 0 308 -81t213.5 -224t76.5 -320q0 -166 -63 -315t-170 -257t-257 -171.5t-317 -63.5q-176 0 -314.5 80.5t-214 221t-75.5 316.5zM215 635q0 -235 144.5 -386t373.5 -151q137 0 264 55.5t220 149t148.5 223 t55.5 271.5q0 234 -140 385t-370 151q-137 0 -265 -54.5t-222.5 -147t-151.5 -223t-57 -273.5zM508 319l115 785h311q90 0 147.5 -57.5t57.5 -141.5q0 -25 -4 -45l-5 -20q-14 -77 -65.5 -127.5t-134.5 -65.5l149 -328h-129l-145 318h-143l-46 -318h-108zM676 731h192 q60 0 105.5 31t52.5 82l2 12q2 12 2 35q0 48 -33 80.5t-84 32.5h-198z" />
<glyph unicode="&#xaf;" horiz-adv-x="960" d="M207 1303l12 92h711l-12 -92h-711z" />
<glyph unicode="&#xb0;" horiz-adv-x="778" d="M170 1098q0 12 2 32l6 56q15 99 102 163t201 64q100 0 169 -55t69 -141q0 -15 -2 -35l-6 -52q-15 -98 -102.5 -160.5t-200.5 -62.5q-103 0 -170.5 53t-67.5 138zM283 1110q0 -45 39 -72.5t100 -27.5q64 0 114.5 31.5t57.5 80.5l8 58q2 16 2 30q0 42 -39.5 70.5 t-99.5 28.5q-64 0 -114.5 -33t-57.5 -82l-8 -57q-2 -14 -2 -27z" />
<glyph unicode="&#xb1;" horiz-adv-x="1128" d="M12 0l17 113h876l-16 -113h-877zM117 627l16 118h352l52 347h125l-52 -347h363l-17 -118h-362l-55 -371h-125l55 371h-352z" />
<glyph unicode="&#xb2;" horiz-adv-x="804" d="M129 680l12 84q16 104 86.5 167.5t190.5 112.5q42 17 60.5 25t53.5 26t51.5 32.5t31 36.5t14.5 46q0 88 -144 88q-120 0 -227 -92l-45 84q54 54 136 87.5t173 33.5q116 0 175 -46.5t59 -127.5q0 -49 -20 -90t-57.5 -72t-73.5 -52.5t-87 -43.5q-47 -21 -67 -30t-57 -29.5 t-54.5 -36t-35 -39.5t-23.5 -51h421l-16 -113h-557z" />
<glyph unicode="&#xb3;" horiz-adv-x="755" d="M125 823l90 41q3 -49 56 -77.5t130 -28.5q71 0 121.5 22.5t57.5 69.5l2 14q2 12 2 27q0 45 -45.5 70.5t-108.5 25.5h-133l14 100h123q43 0 79 7.5t67.5 32.5t37.5 65l3 12q2 14 2 21q0 78 -148 78q-72 0 -132 -29t-77 -78l-71 47q27 74 116 122t191 48q67 0 120.5 -14.5 t91.5 -53.5t38 -98q0 -13 -2 -33l-2 -16q-20 -127 -164 -162q50 -13 88.5 -47t38.5 -88q0 -15 -4 -43l-2 -12q-12 -73 -60 -119.5t-109 -63t-139 -16.5q-105 0 -186.5 49.5t-85.5 126.5z" />
<glyph unicode="&#xb4;" horiz-adv-x="524" d="M166 1155l242 293l98 -74l-256 -270z" />
<glyph unicode="&#xb6;" horiz-adv-x="1073" d="M162 995q0 13 4 45l10 64q18 124 112.5 206.5t235.5 82.5h447l-203 -1393h-102l190 1300h-170l-190 -1300h-105l113 766h-70q-123 0 -197.5 61t-74.5 168z" />
<glyph unicode="&#xb7;" horiz-adv-x="403" d="M106 408l31 204h201l-31 -204h-201z" />
<glyph unicode="&#xb8;" horiz-adv-x="493" d="M-41 -434q160 57 160 143q0 94 -127 121l65 170h109l-45 -106q11 -4 25.5 -12.5t37 -27.5t37.5 -51.5t15 -72.5q0 -88 -67.5 -149.5t-182.5 -94.5z" />
<glyph unicode="&#xb9;" horiz-adv-x="475" d="M164 1270l18 123h258l-102 -703h-129l84 580h-129z" />
<glyph unicode="&#xba;" horiz-adv-x="763" d="M154 1010l26 178q13 95 99.5 159t195.5 64q106 0 174.5 -64t55.5 -159l-27 -180q-13 -95 -100 -158.5t-195 -63.5q-109 0 -175.5 63.5t-53.5 160.5zM268 1016q-4 -60 30 -92.5t99 -32.5q60 0 109 32t55 81l29 190q4 49 -34.5 80t-96.5 31q-60 0 -108.5 -31.5t-55.5 -81.5 z" />
<glyph unicode="&#xbb;" horiz-adv-x="946" d="M-2 74l264 286l-178 293l70 72l258 -369l-365 -356zM338 74l266 286l-182 293l70 72l258 -369l-365 -356z" />
<glyph unicode="&#xbc;" horiz-adv-x="1363" d="M41 0l1042 1393h148l-1036 -1393h-154zM262 1270l19 123h258l-103 -703h-129l84 580h-129zM551 174l12 84l422 475h170l-65 -459h127l-17 -100h-127l-24 -170h-125l24 170h-397zM702 274h263l47 330h-13z" />
<glyph unicode="&#xbd;" horiz-adv-x="1402" d="M20 0l1041 1393h147l-1036 -1393h-152zM264 1270l19 123h256l-103 -703h-127l84 580h-129zM643 -6l12 84q14 103 85.5 167t193.5 113q40 16 58 24t53 26.5t52 33t31.5 36.5t14.5 46q0 88 -142 88q-122 0 -229 -92l-45 84q54 54 136 87.5t173 33.5q116 0 175 -46.5 t59 -127.5q0 -49 -19.5 -90t-56.5 -72t-74 -52.5t-88 -43.5q-45 -20 -66.5 -30t-57.5 -30t-54 -36t-35 -40t-22 -51h422l-17 -112h-559z" />
<glyph unicode="&#xbe;" horiz-adv-x="1511" d="M113 823l90 41q3 -49 56 -77.5t130 -28.5q70 0 120.5 22.5t57.5 69.5l2 14q2 12 2 27q0 45 -45 70.5t-108 25.5h-133l14 100h123q43 0 79 7.5t67.5 32.5t37.5 65l2 12q2 14 2 21q0 78 -147 78q-72 0 -132 -29t-77 -78l-72 47q27 74 116 122t191 48q67 0 120.5 -14.5 t91.5 -53.5t38 -98q0 -13 -2 -33l-2 -16q-20 -127 -164 -162q50 -13 88.5 -47t38.5 -88q0 -15 -4 -43l-2 -12q-9 -56 -38 -96t-72 -61.5t-91.5 -31.5t-105.5 -10q-105 0 -186.5 49.5t-85.5 126.5zM201 0l1040 1393h150l-1039 -1393h-151zM686 172l12 84l422 475h170 l-67 -459h129l-17 -100h-127l-24 -170h-125l24 170h-397zM836 272h262l49 330h-12z" />
<glyph unicode="&#xbf;" horiz-adv-x="831" d="M-29 -90l17 113q2 18 6.5 34.5t13.5 33.5t15 28.5t21.5 28t22 24.5t26.5 25.5t25.5 22t29.5 24t28 22.5q81 61 121.5 110.5t50.5 121.5l21 135h155l-22 -160q-11 -70 -59.5 -127.5t-133.5 -124.5q-51 -42 -74.5 -62.5t-51.5 -57t-33 -68.5l-15 -107q-7 -51 6 -86t41 -51 t56.5 -22.5t62.5 -6.5q116 0 264 111l47 -115q-73 -59 -165.5 -101t-184.5 -42q-164 0 -238.5 75.5t-52.5 221.5zM358 844l31 209h223l-30 -209h-224z" />
<glyph unicode="&#xc0;" horiz-adv-x="1298" d="M-33 0l695 1409h169l275 -1409h-172l-76 420h-516l-203 -420h-172zM399 559h443l-125 645zM569 1790l129 80l146 -301l-94 -60z" />
<glyph unicode="&#xc1;" horiz-adv-x="1298" d="M-33 0l695 1409h169l275 -1409h-172l-76 420h-516l-203 -420h-172zM399 559h443l-125 645zM682 1556l242 293l98 -73l-256 -271z" />
<glyph unicode="&#xc2;" horiz-adv-x="1298" d="M-33 0l695 1409h169l275 -1409h-172l-76 420h-516l-203 -420h-172zM399 559h443l-125 645zM516 1577l275 176l227 -178l-72 -76l-174 125l-213 -123z" />
<glyph unicode="&#xc3;" horiz-adv-x="1298" d="M-33 0l695 1409h169l275 -1409h-172l-76 420h-516l-203 -420h-172zM399 559h443l-125 645zM465 1583q47 65 92 97t100 32q48 0 128 -47.5t120 -46.5q55 2 92 68l74 -56q-85 -131 -178 -131q-47 0 -91.5 23.5t-85 47t-77.5 23.5q-61 0 -107 -71z" />
<glyph unicode="&#xc4;" horiz-adv-x="1298" d="M-33 0l695 1409h169l275 -1409h-172l-76 420h-516l-203 -420h-172zM399 559h443l-125 645zM512 1538l23 160h147l-23 -160h-147zM858 1538l23 160h147l-22 -160h-148z" />
<glyph unicode="&#xc5;" horiz-adv-x="1298" d="M-33 0l695 1409h169l275 -1409h-172l-76 420h-516l-203 -420h-172zM399 559h443l-125 645zM621 1640q0 74 54 126.5t124 52.5q58 0 96.5 -39.5t38.5 -98.5q0 -73 -55.5 -126.5t-126.5 -53.5q-56 0 -93.5 40.5t-37.5 98.5zM694 1647q0 -30 21 -51t51 -21q35 0 64.5 27.5 t29.5 64.5q0 31 -21 53.5t-51 22.5q-35 0 -64.5 -28.5t-29.5 -67.5z" />
<glyph unicode="&#xc6;" horiz-adv-x="1794" d="M-57 0l1036 1393h741l-20 -148h-522l-68 -457h434l-20 -139h-434l-74 -504h571l-20 -145h-729l55 381h-481l-285 -381h-184zM500 520h413l103 707z" />
<glyph unicode="&#xc7;" horiz-adv-x="1181" d="M96 348q0 38 6 82l76 531q20 134 103 238.5t204 159t258 54.5q279 0 414 -156l-94 -118q-114 127 -334 127q-149 0 -260.5 -85.5t-132.5 -226.5l-76 -516q-4 -36 -4 -57q0 -125 84 -190.5t227 -65.5q223 0 367 102l51 -116q-92 -69 -195 -99t-237 -32l-37 -86 q12 -5 25 -13.5t36.5 -27.5t38.5 -51.5t15 -71.5q0 -88 -67.5 -149.5t-182.5 -94.5l-29 80q162 55 162 143q0 87 -125 121l57 156q-162 19 -256 112.5t-94 249.5z" />
<glyph unicode="&#xc8;" horiz-adv-x="1134" d="M84 0l203 1393h768l-21 -148h-612l-68 -463h510l-20 -143h-510l-72 -494h660l-21 -145h-817zM512 1772l129 79l145 -301l-94 -59z" />
<glyph unicode="&#xc9;" horiz-adv-x="1134" d="M84 0l203 1393h768l-21 -148h-612l-68 -463h510l-20 -143h-510l-72 -494h660l-21 -145h-817zM627 1540l241 293l99 -74l-256 -270z" />
<glyph unicode="&#xca;" horiz-adv-x="1134" d="M84 0l203 1393h768l-21 -148h-612l-68 -463h510l-20 -143h-510l-72 -494h660l-21 -145h-817zM457 1561l274 176l227 -178l-71 -76l-174 125l-213 -123z" />
<glyph unicode="&#xcb;" horiz-adv-x="1134" d="M84 0l203 1393h768l-21 -148h-612l-68 -463h510l-20 -143h-510l-72 -494h660l-21 -145h-817zM455 1522l22 159h148l-23 -159h-147zM801 1522l22 159h148l-23 -159h-147z" />
<glyph unicode="&#xcc;" horiz-adv-x="600" d="M119 0l200 1393h158l-203 -1393h-155zM231 1772l129 79l146 -301l-94 -59z" />
<glyph unicode="&#xcd;" horiz-adv-x="600" d="M119 0l200 1393h158l-203 -1393h-155zM340 1540l242 293l98 -74l-256 -270z" />
<glyph unicode="&#xce;" horiz-adv-x="600" d="M119 0l200 1393h158l-203 -1393h-155zM176 1561l275 176l227 -178l-72 -76l-174 125l-213 -123z" />
<glyph unicode="&#xcf;" horiz-adv-x="600" d="M119 0l200 1393h158l-203 -1393h-155zM174 1522l23 159h147l-22 -159h-148zM520 1522l23 159h147l-22 -159h-148z" />
<glyph unicode="&#xd0;" horiz-adv-x="1341" d="M39 637l20 133h138l90 623h448q133 0 236 -43t164 -131.5t61 -212.5q0 -36 -6 -80l-68 -465q-16 -114 -71 -203.5t-136.5 -145t-180 -84t-208.5 -28.5h-442l92 637h-137zM260 145h287q104 0 190 32.5t149.5 108t80.5 185.5l63 447q4 36 4 55q0 128 -91 200t-228 72h-293 l-70 -475h312l-21 -133h-311z" />
<glyph unicode="&#xd1;" horiz-adv-x="1441" d="M84 0l203 1393h164l563 -1145l166 1145h149l-201 -1393h-161l-568 1147l-166 -1147h-149zM541 1565q47 65 92 97t100 32q48 0 128 -48t120 -47q55 2 92 68l74 -55q-85 -131 -178 -131q-47 0 -91.5 23.5t-85 47t-77.5 23.5q-61 0 -107 -72z" />
<glyph unicode="&#xd2;" d="M106 428l78 535q31 211 188 330.5t378 119.5h34q140 0 248.5 -54t163.5 -158t35 -238l-78 -535q-31 -218 -186.5 -333t-391.5 -115h-30q-143 0 -248.5 51t-158 153.5t-32.5 243.5zM266 436q-23 -155 57.5 -233t241.5 -78h33q157 0 267.5 81t131.5 230l76 518 q21 147 -65.5 229.5t-245.5 82.5h-33q-146 0 -256 -85t-131 -227zM594 1792l129 80l145 -301l-94 -60z" />
<glyph unicode="&#xd3;" d="M106 428l78 535q31 211 188 330.5t378 119.5h34q140 0 248.5 -54t163.5 -158t35 -238l-78 -535q-31 -218 -186.5 -333t-391.5 -115h-30q-143 0 -248.5 51t-158 153.5t-32.5 243.5zM266 436q-23 -155 57.5 -233t241.5 -78h33q157 0 267.5 81t131.5 230l76 518 q21 147 -65.5 229.5t-245.5 82.5h-33q-146 0 -256 -85t-131 -227zM707 1561l241 292l99 -73l-256 -271z" />
<glyph unicode="&#xd4;" d="M106 428l78 535q31 211 188 330.5t378 119.5h34q140 0 248.5 -54t163.5 -158t35 -238l-78 -535q-31 -218 -186.5 -333t-391.5 -115h-30q-143 0 -248.5 51t-158 153.5t-32.5 243.5zM266 436q-23 -155 57.5 -233t241.5 -78h33q157 0 267.5 81t131.5 230l76 518 q21 147 -65.5 229.5t-245.5 82.5h-33q-146 0 -256 -85t-131 -227zM539 1581l274 176l227 -178l-71 -76l-174 125l-213 -123z" />
<glyph unicode="&#xd5;" d="M106 428l78 535q31 211 188 330.5t378 119.5h34q140 0 248.5 -54t163.5 -158t35 -238l-78 -535q-31 -218 -186.5 -333t-391.5 -115h-30q-143 0 -248.5 51t-158 153.5t-32.5 243.5zM266 436q-23 -155 57.5 -233t241.5 -78h33q157 0 267.5 81t131.5 230l76 518 q21 147 -65.5 229.5t-245.5 82.5h-33q-146 0 -256 -85t-131 -227zM487 1585q47 65 92.5 97t100.5 32q39 0 84 -23.5t87.5 -47t76.5 -23.5q53 0 92 68l74 -56q-85 -131 -179 -131q-37 0 -73.5 14.5t-61 32.5t-56.5 32.5t-62 14.5q-61 0 -107 -71z" />
<glyph unicode="&#xd6;" d="M106 428l78 535q31 211 188 330.5t378 119.5h34q140 0 248.5 -54t163.5 -158t35 -238l-78 -535q-31 -218 -186.5 -333t-391.5 -115h-30q-143 0 -248.5 51t-158 153.5t-32.5 243.5zM266 436q-23 -155 57.5 -233t241.5 -78h33q157 0 267.5 81t131.5 230l76 518 q21 147 -65.5 229.5t-245.5 82.5h-33q-146 0 -256 -85t-131 -227zM537 1542l22 160h148l-23 -160h-147zM883 1542l22 160h148l-23 -160h-147z" />
<glyph unicode="&#xd7;" horiz-adv-x="1175" d="M12 0l465 516l-297 488h142l241 -390l361 390h141l-440 -488l315 -516h-149l-256 418l-375 -418h-148z" />
<glyph unicode="&#xd8;" d="M109 428l79 535q29 206 186.5 328t377.5 122h34q117 0 215 -39l107 185h109l-132 -228q85 -60 124 -154t22 -214l-80 -535q-30 -212 -186 -330t-387 -118h-33q-129 0 -219 34l-97 -166h-114l125 213q-165 115 -131 367zM268 436q-21 -147 58 -229l594 1030 q-72 29 -156 29h-35q-150 0 -257 -84t-128 -228zM406 154q72 -29 159 -29h33q162 0 269 80.5t130 230.5l76 518q21 148 -72 232z" />
<glyph unicode="&#xd9;" horiz-adv-x="1421" d="M141 432l140 961h157l-139 -955q-12 -82 8 -143.5t65.5 -98t106 -54t135.5 -17.5q144 0 263.5 84.5t140.5 228.5l139 955h158l-139 -961q-16 -114 -68.5 -202t-131.5 -142t-175 -81t-207 -27q-104 0 -192 28t-153 82t-94.5 142.5t-13.5 199.5zM625 1772l129 79l145 -301 l-94 -59z" />
<glyph unicode="&#xda;" horiz-adv-x="1421" d="M141 432l140 961h157l-139 -955q-12 -82 8 -143.5t65.5 -98t106 -54t135.5 -17.5q144 0 263.5 84.5t140.5 228.5l139 955h158l-139 -961q-16 -114 -68.5 -202t-131.5 -142t-175 -81t-207 -27q-104 0 -192 28t-153 82t-94.5 142.5t-13.5 199.5zM741 1540l242 293l98 -74 l-256 -270z" />
<glyph unicode="&#xdb;" horiz-adv-x="1421" d="M141 432l140 961h157l-139 -955q-12 -82 8 -143.5t65.5 -98t106 -54t135.5 -17.5q144 0 263.5 84.5t140.5 228.5l139 955h158l-139 -961q-16 -114 -68.5 -202t-131.5 -142t-175 -81t-207 -27q-104 0 -192 28t-153 82t-94.5 142.5t-13.5 199.5zM569 1561l275 176l227 -178 l-72 -76l-174 125l-213 -123z" />
<glyph unicode="&#xdc;" horiz-adv-x="1421" d="M141 432l140 961h157l-139 -955q-12 -82 8 -143.5t65.5 -98t106 -54t135.5 -17.5q144 0 263.5 84.5t140.5 228.5l139 955h158l-139 -961q-16 -114 -68.5 -202t-131.5 -142t-175 -81t-207 -27q-104 0 -192 28t-153 82t-94.5 142.5t-13.5 199.5zM569 1522l23 159h147 l-22 -159h-148zM915 1522l23 159h147l-22 -159h-148z" />
<glyph unicode="&#xdd;" horiz-adv-x="1210" d="M182 1393h183l229 -682l432 682h184l-561 -848l-80 -545h-159l79 545zM621 1540l241 293l99 -74l-256 -270z" />
<glyph unicode="&#xde;" horiz-adv-x="1130" d="M84 0l203 1393h157l-38 -275h329q147 0 235.5 -90.5t88.5 -218.5q0 -39 -6 -72l-4 -22q-24 -155 -134.5 -246.5t-287.5 -91.5h-330l-55 -377h-158zM317 522h318q103 0 172.5 53t83.5 140l4 24q4 20 4 43q0 81 -51 137t-146 56h-319z" />
<glyph unicode="&#xe0;" horiz-adv-x="1069" d="M33 209q0 30 8 88q43 301 700 317l15 105q6 48 6 59q0 73 -46.5 109.5t-150.5 36.5q-74 0 -180.5 -25.5t-155.5 -52.5l-24 121q69 41 184.5 69.5t212.5 28.5q161 0 239.5 -68t78.5 -192q0 -21 -9 -82l-104 -723h-131l10 156q-50 -67 -149 -118.5t-230 -51.5 q-132 0 -203 58t-71 165zM195 242q0 -123 170 -123q126 0 223 60t108 136l29 187q-103 -3 -182.5 -12.5t-158.5 -30.5t-127 -61t-58 -97q-4 -23 -4 -59zM440 1473l129 79l146 -301l-94 -59z" />
<glyph unicode="&#xe1;" horiz-adv-x="1069" d="M33 209q0 30 8 88q43 301 700 317l15 105q6 48 6 59q0 73 -46.5 109.5t-150.5 36.5q-74 0 -180.5 -25.5t-155.5 -52.5l-24 121q69 41 184.5 69.5t212.5 28.5q161 0 239.5 -68t78.5 -192q0 -21 -9 -82l-104 -723h-131l10 156q-50 -67 -149 -118.5t-230 -51.5 q-132 0 -203 58t-71 165zM195 242q0 -123 170 -123q126 0 223 60t108 136l29 187q-103 -3 -182.5 -12.5t-158.5 -30.5t-127 -61t-58 -97q-4 -23 -4 -59zM549 1239l242 293l98 -74l-256 -270z" />
<glyph unicode="&#xe2;" horiz-adv-x="1069" d="M33 209q0 30 8 88q43 301 700 317l15 105q6 48 6 59q0 73 -46.5 109.5t-150.5 36.5q-74 0 -180.5 -25.5t-155.5 -52.5l-24 121q69 41 184.5 69.5t212.5 28.5q161 0 239.5 -68t78.5 -192q0 -21 -9 -82l-104 -723h-131l10 156q-50 -67 -149 -118.5t-230 -51.5 q-132 0 -203 58t-71 165zM195 242q0 -123 170 -123q126 0 223 60t108 136l29 187q-103 -3 -182.5 -12.5t-158.5 -30.5t-127 -61t-58 -97q-4 -23 -4 -59zM393 1260l275 176l227 -179l-72 -75l-174 125l-213 -123z" />
<glyph unicode="&#xe3;" horiz-adv-x="1069" d="M33 209q0 30 8 88q43 301 700 317l15 105q6 48 6 59q0 73 -46.5 109.5t-150.5 36.5q-74 0 -180.5 -25.5t-155.5 -52.5l-24 121q69 41 184.5 69.5t212.5 28.5q161 0 239.5 -68t78.5 -192q0 -21 -9 -82l-104 -723h-131l10 156q-50 -67 -149 -118.5t-230 -51.5 q-132 0 -203 58t-71 165zM195 242q0 -123 170 -123q126 0 223 60t108 136l29 187q-103 -3 -182.5 -12.5t-158.5 -30.5t-127 -61t-58 -97q-4 -23 -4 -59zM350 1266q47 65 92.5 97t100.5 32q40 0 84.5 -23.5t87 -47.5t76.5 -24q53 0 92 68l73 -55q-85 -131 -178 -131 q-47 0 -91.5 23.5t-85 47t-77.5 23.5q-60 0 -106 -72z" />
<glyph unicode="&#xe4;" horiz-adv-x="1069" d="M33 209q0 30 8 88q43 301 700 317l15 105q6 48 6 59q0 73 -46.5 109.5t-150.5 36.5q-74 0 -180.5 -25.5t-155.5 -52.5l-24 121q69 41 184.5 69.5t212.5 28.5q161 0 239.5 -68t78.5 -192q0 -21 -9 -82l-104 -723h-131l10 156q-50 -67 -149 -118.5t-230 -51.5 q-132 0 -203 58t-71 165zM195 242q0 -123 170 -123q126 0 223 60t108 136l29 187q-103 -3 -182.5 -12.5t-158.5 -30.5t-127 -61t-58 -97q-4 -23 -4 -59zM383 1221l23 159h147l-23 -159h-147zM729 1221l23 159h147l-22 -159h-148z" />
<glyph unicode="&#xe5;" horiz-adv-x="1069" d="M33 209q0 30 8 88q43 301 700 317l15 105q6 48 6 59q0 73 -46.5 109.5t-150.5 36.5q-74 0 -180.5 -25.5t-155.5 -52.5l-24 121q69 41 184.5 69.5t212.5 28.5q161 0 239.5 -68t78.5 -192q0 -21 -9 -82l-104 -723h-131l10 156q-50 -67 -149 -118.5t-230 -51.5 q-132 0 -203 58t-71 165zM195 242q0 -123 170 -123q126 0 223 60t108 136l29 187q-103 -3 -182.5 -12.5t-158.5 -30.5t-127 -61t-58 -97q-4 -23 -4 -59zM500 1323q0 74 54 126t124 52q58 0 96.5 -39t38.5 -98q0 -73 -55.5 -126.5t-126.5 -53.5q-56 0 -93.5 40.5t-37.5 98.5z M573 1329q0 -30 21 -51t51 -21q35 0 64.5 28t29.5 65q0 31 -20.5 53t-50.5 22q-35 0 -65 -28.5t-30 -67.5z" />
<glyph unicode="&#xe6;" horiz-adv-x="1759" d="M51 295l31 209l672 82l18 137q15 104 -37 157.5t-166 53.5q-77 0 -178.5 -29t-165.5 -59l-22 119q72 43 184.5 76.5t212.5 33.5q115 0 187.5 -42t99.5 -118q63 74 164.5 118t218.5 44q180 0 278 -92.5t74 -257.5l-25 -166l-690 -72l-20 -139q-17 -108 63 -164.5 t219 -56.5q97 0 185 28.5t141 61.5l47 -106q-83 -62 -189 -94.5t-210 -32.5q-144 0 -246.5 46.5t-140.5 141.5q-68 -99 -172 -143.5t-217 -44.5q-158 0 -247.5 83.5t-68.5 225.5zM205 297q-12 -83 48 -130.5t161 -47.5q110 0 199 48.5t102 139.5l24 168l-518 -61zM924 602 l540 53l13 82q13 99 -51 151t-179 52q-113 0 -203 -62.5t-102 -150.5z" />
<glyph unicode="&#xe7;" horiz-adv-x="972" d="M66 285q0 38 4 61l49 348q24 171 157.5 271t319.5 100q195 0 317 -129l-86 -113q-95 95 -241 95q-118 0 -205.5 -63.5t-104.5 -174.5l-45 -322q-4 -28 -4 -39q0 -95 71.5 -145.5t176.5 -50.5q151 0 270 82l46 -117q-132 -103 -342 -106l-37 -88q12 -5 25 -13.5t36 -27.5 t38 -51.5t15 -71.5q0 -88 -67.5 -149.5t-182.5 -94.5l-28 80q162 55 162 143t-127 121l61 160q-128 21 -203 96.5t-75 198.5z" />
<glyph unicode="&#xe8;" horiz-adv-x="1073" d="M68 348l53 367q14 98 87.5 179t178 125t215.5 44q112 0 200.5 -43.5t134 -124t30.5 -180.5l-33 -219h-690l-21 -142q-16 -109 63.5 -168t207.5 -59q195 0 323 80l39 -113q-154 -106 -389 -106q-70 0 -133.5 14t-117 43.5t-90 71.5t-52.5 101.5t-6 129.5zM262 618h541 l14 95q13 92 -56 152.5t-179 60.5q-109 0 -200 -61.5t-106 -151.5zM438 1473l129 79l146 -301l-95 -59z" />
<glyph unicode="&#xe9;" horiz-adv-x="1073" d="M68 348l53 367q14 98 87.5 179t178 125t215.5 44q112 0 200.5 -43.5t134 -124t30.5 -180.5l-33 -219h-690l-21 -142q-16 -109 63.5 -168t207.5 -59q195 0 323 80l39 -113q-154 -106 -389 -106q-70 0 -133.5 14t-117 43.5t-90 71.5t-52.5 101.5t-6 129.5zM262 618h541 l14 95q13 92 -56 152.5t-179 60.5q-109 0 -200 -61.5t-106 -151.5zM547 1241l241 293l99 -74l-256 -270z" />
<glyph unicode="&#xea;" horiz-adv-x="1073" d="M68 348l53 367q14 98 87.5 179t178 125t215.5 44q112 0 200.5 -43.5t134 -124t30.5 -180.5l-33 -219h-690l-21 -142q-16 -109 63.5 -168t207.5 -59q195 0 323 80l39 -113q-154 -106 -389 -106q-70 0 -133.5 14t-117 43.5t-90 71.5t-52.5 101.5t-6 129.5zM262 618h541 l14 95q13 92 -56 152.5t-179 60.5q-109 0 -200 -61.5t-106 -151.5zM391 1262l275 176l227 -178l-72 -76l-174 125l-213 -123z" />
<glyph unicode="&#xeb;" horiz-adv-x="1073" d="M68 348l53 367q14 98 87.5 179t178 125t215.5 44q112 0 200.5 -43.5t134 -124t30.5 -180.5l-33 -219h-690l-21 -142q-16 -109 63.5 -168t207.5 -59q195 0 323 80l39 -113q-154 -106 -389 -106q-70 0 -133.5 14t-117 43.5t-90 71.5t-52.5 101.5t-6 129.5zM262 618h541 l14 95q13 92 -56 152.5t-179 60.5q-109 0 -200 -61.5t-106 -151.5zM379 1223l22 159h148l-23 -159h-147zM725 1223l23 159h147l-23 -159h-147z" />
<glyph unicode="&#xec;" horiz-adv-x="542" d="M72 0l153 1051h160l-154 -1051h-159zM139 1458l129 80l146 -301l-95 -59z" />
<glyph unicode="&#xed;" horiz-adv-x="542" d="M72 0l153 1051h160l-154 -1051h-159zM244 1227l241 293l99 -74l-256 -270z" />
<glyph unicode="&#xee;" horiz-adv-x="542" d="M72 0l153 1051h160l-154 -1051h-159zM86 1247l274 176l228 -178l-72 -76l-174 125l-213 -123z" />
<glyph unicode="&#xef;" horiz-adv-x="542" d="M72 0l153 1051h160l-154 -1051h-159zM80 1208l22 160h148l-23 -160h-147zM426 1208l23 160h147l-23 -160h-147z" />
<glyph unicode="&#xf0;" horiz-adv-x="1136" d="M55 293q0 17 4 49l43 291q23 155 149.5 258.5t299.5 103.5q201 0 285 -118q-17 179 -156 342l-303 -132l-27 89l252 108q-102 102 -240 131l76 125q202 -58 336 -192l268 116l31 -86l-235 -104q151 -193 151 -463q0 -61 -10 -143l-49 -326q-23 -155 -167 -258.5 t-329 -103.5q-164 0 -271.5 87.5t-107.5 225.5zM219 326q0 -89 67 -145t169 -56q115 0 209.5 66.5t107.5 162.5l39 262q2 10 2 29q0 88 -74 145.5t-180 57.5q-111 0 -198.5 -66.5t-100.5 -163.5l-39 -262q-2 -10 -2 -30z" />
<glyph unicode="&#xf1;" horiz-adv-x="1218" d="M63 0l152 1044h135l-16 -194q160 213 399 213q174 0 255 -94.5t56 -266.5l-102 -702h-160l101 688q17 112 -37 172t-170 60q-74 0 -152.5 -34.5t-136.5 -96t-68 -130.5l-96 -659h-160zM389 1268q47 65 92.5 97t100.5 32q48 0 127.5 -47.5t119.5 -46.5q56 2 93 67l73 -55 q-85 -131 -178 -131q-47 0 -91.5 23.5t-85 47t-77.5 23.5q-60 0 -106 -72z" />
<glyph unicode="&#xf2;" horiz-adv-x="1136" d="M68 350l51 348q24 164 166.5 264.5t326.5 100.5q186 0 296.5 -100.5t86.5 -264.5l-51 -348q-16 -110 -90.5 -195t-179 -128t-219.5 -43q-117 0 -210 43.5t-143 128t-34 194.5zM227 358q-17 -104 57.5 -167.5t190.5 -63.5q111 0 202.5 63.5t108.5 167.5l48 332 q14 103 -58.5 165.5t-185.5 62.5t-207.5 -63.5t-108.5 -164.5zM442 1473l129 79l146 -301l-94 -59z" />
<glyph unicode="&#xf3;" horiz-adv-x="1136" d="M68 350l51 348q24 164 166.5 264.5t326.5 100.5q186 0 296.5 -100.5t86.5 -264.5l-51 -348q-16 -110 -90.5 -195t-179 -128t-219.5 -43q-117 0 -210 43.5t-143 128t-34 194.5zM227 358q-17 -104 57.5 -167.5t190.5 -63.5q111 0 202.5 63.5t108.5 167.5l48 332 q14 103 -58.5 165.5t-185.5 62.5t-207.5 -63.5t-108.5 -164.5zM551 1241l242 293l98 -74l-256 -270z" />
<glyph unicode="&#xf4;" horiz-adv-x="1136" d="M68 350l51 348q24 164 166.5 264.5t326.5 100.5q186 0 296.5 -100.5t86.5 -264.5l-51 -348q-16 -110 -90.5 -195t-179 -128t-219.5 -43q-117 0 -210 43.5t-143 128t-34 194.5zM227 358q-17 -104 57.5 -167.5t190.5 -63.5q111 0 202.5 63.5t108.5 167.5l48 332 q14 103 -58.5 165.5t-185.5 62.5t-207.5 -63.5t-108.5 -164.5zM395 1262l275 176l227 -178l-72 -76l-174 125l-213 -123z" />
<glyph unicode="&#xf5;" horiz-adv-x="1136" d="M68 350l51 348q24 164 166.5 264.5t326.5 100.5q186 0 296.5 -100.5t86.5 -264.5l-51 -348q-16 -110 -90.5 -195t-179 -128t-219.5 -43q-117 0 -210 43.5t-143 128t-34 194.5zM227 358q-17 -104 57.5 -167.5t190.5 -63.5q111 0 202.5 63.5t108.5 167.5l48 332 q14 103 -58.5 165.5t-185.5 62.5t-207.5 -63.5t-108.5 -164.5zM350 1268q47 65 92.5 97t100.5 32q48 0 128 -47.5t120 -46.5q55 2 92 67l73 -55q-85 -131 -178 -131q-47 0 -91.5 23.5t-85 47t-77.5 23.5q-60 0 -106 -72z" />
<glyph unicode="&#xf6;" horiz-adv-x="1136" d="M68 350l51 348q24 164 166.5 264.5t326.5 100.5q186 0 296.5 -100.5t86.5 -264.5l-51 -348q-16 -110 -90.5 -195t-179 -128t-219.5 -43q-117 0 -210 43.5t-143 128t-34 194.5zM227 358q-17 -104 57.5 -167.5t190.5 -63.5q111 0 202.5 63.5t108.5 167.5l48 332 q14 103 -58.5 165.5t-185.5 62.5t-207.5 -63.5t-108.5 -164.5zM385 1223l23 159h147l-23 -159h-147zM731 1223l23 159h147l-22 -159h-148z" />
<glyph unicode="&#xf7;" horiz-adv-x="1404" d="M92 522l17 113h1146l-16 -113h-1147zM510 156l29 198h196l-28 -198h-197zM604 797l29 198h196l-28 -198h-197z" />
<glyph unicode="&#xf8;" horiz-adv-x="1136" d="M0 -119l150 209q-105 101 -82 260l51 348q24 164 166.5 264.5t326.5 100.5q120 0 207 -43l103 141h100l-131 -184q60 -49 88 -120.5t16 -158.5l-51 -348q-16 -110 -90.5 -195t-179 -128t-219.5 -43q-140 0 -236 57l-115 -160h-104zM227 358q-12 -76 23 -129l475 660 q-63 29 -135 29q-113 0 -207.5 -63.5t-108.5 -164.5zM311 170q72 -43 164 -43q111 0 202.5 63.5t108.5 167.5l48 332q15 89 -43 150z" />
<glyph unicode="&#xf9;" horiz-adv-x="1204" d="M113 346l100 698h158l-101 -690q-15 -109 52.5 -169t189.5 -60t208 61t101 168l101 690h157l-100 -698q-26 -170 -161.5 -268t-325.5 -98q-125 0 -216 42.5t-135.5 126t-27.5 197.5zM489 1452l129 80l146 -301l-94 -60z" />
<glyph unicode="&#xfa;" horiz-adv-x="1204" d="M113 346l100 698h158l-101 -690q-15 -109 52.5 -169t189.5 -60t208 61t101 168l101 690h157l-100 -698q-26 -170 -161.5 -268t-325.5 -98q-125 0 -216 42.5t-135.5 126t-27.5 197.5zM575 1221l242 292l98 -73l-256 -271z" />
<glyph unicode="&#xfb;" horiz-adv-x="1204" d="M113 346l100 698h158l-101 -690q-15 -109 52.5 -169t189.5 -60t208 61t101 168l101 690h157l-100 -698q-26 -170 -161.5 -268t-325.5 -98q-125 0 -216 42.5t-135.5 126t-27.5 197.5zM436 1243l275 176l227 -178l-72 -76l-174 125l-213 -123z" />
<glyph unicode="&#xfc;" horiz-adv-x="1204" d="M113 346l100 698h158l-101 -690q-15 -109 52.5 -169t189.5 -60t208 61t101 168l101 690h157l-100 -698q-26 -170 -161.5 -268t-325.5 -98q-125 0 -216 42.5t-135.5 126t-27.5 197.5zM430 1202l23 160h147l-22 -160h-148zM776 1202l23 160h147l-22 -160h-148z" />
<glyph unicode="&#xfd;" horiz-adv-x="1034" d="M-14 -438l4 131q91 0 168 52.5t127 154.5l32 65l-213 1079h170l154 -874l408 874h170l-568 -1159q-159 -323 -452 -323zM498 1227l241 293l99 -74l-256 -270z" />
<glyph unicode="&#xfe;" horiz-adv-x="1191" d="M-14 -475l276 1886h160l-74 -504q69 75 159.5 117.5t190.5 42.5q158 0 255.5 -85t97.5 -222q0 -19 -4 -55l-52 -359q-23 -158 -152 -262t-302 -104q-107 0 -188.5 39.5t-125.5 113.5l-88 -608h-153zM274 324q0 -89 74 -148t182 -59q113 0 203 66t105 169l49 342 q2 12 2 37q0 91 -67.5 145t-172.5 54q-116 0 -212 -69t-111 -167l-50 -344q-2 -8 -2 -26z" />
<glyph unicode="&#xff;" horiz-adv-x="1034" d="M-14 -438l4 131q91 0 168 52.5t127 154.5l32 65l-213 1079h170l154 -874l408 874h170l-568 -1159q-159 -323 -452 -323zM328 1202l22 160h148l-23 -160h-147zM674 1202l22 160h148l-23 -160h-147z" />
<glyph unicode="&#x152;" horiz-adv-x="1863" d="M90 446l72 496q17 116 107 220t225.5 166.5t277.5 62.5h1016l-21 -146h-575l-66 -450h488l-23 -144h-485l-74 -506h623l-21 -145h-1063q-150 0 -267 59.5t-174.5 162t-39.5 224.5zM252 461q-17 -138 81.5 -227t258.5 -89h282l162 1100h-284q-93 0 -189 -43.5t-164 -117 t-80 -154.5z" />
<glyph unicode="&#x153;" horiz-adv-x="1814" d="M80 350l51 348q16 109 89 193.5t179 128t226 43.5q111 0 200 -42t131 -118q66 76 167 118t208 42q112 0 200.5 -43.5t134 -124t30.5 -180.5l-33 -219h-690l-21 -142q-16 -109 64 -168t209 -59q193 0 321 80l41 -113q-156 -106 -391 -106q-118 0 -213.5 39t-138.5 118 q-65 -79 -166.5 -120t-210.5 -41q-118 0 -211 43.5t-142.5 128t-33.5 194.5zM238 358q-17 -104 58 -167.5t191 -63.5q70 0 135.5 25.5t115.5 79.5t61 126l47 332q16 104 -58.5 166t-185.5 62q-113 0 -208 -63.5t-109 -164.5zM991 618h541l14 95q13 92 -56 152.5t-179 60.5 q-108 0 -199 -61.5t-106 -151.5z" />
<glyph unicode="&#x178;" horiz-adv-x="1210" d="M182 1393h183l229 -682l432 682h184l-561 -848l-80 -545h-159l79 545zM469 1522l23 159h147l-23 -159h-147zM815 1522l23 159h147l-22 -159h-148z" />
<glyph unicode="&#x2c6;" horiz-adv-x="731" d="M193 1247l274 176l227 -178l-71 -76l-174 125l-213 -123z" />
<glyph unicode="&#x2dc;" horiz-adv-x="843" d="M203 1276q47 65 92 97t100 32q48 0 128 -47.5t120 -46.5q55 2 92 67l74 -55q-85 -131 -178 -131q-47 0 -91.5 23.5t-85 47t-77.5 23.5q-61 0 -107 -72z" />
<glyph unicode="&#x2000;" horiz-adv-x="936" />
<glyph unicode="&#x2001;" horiz-adv-x="1872" />
<glyph unicode="&#x2002;" horiz-adv-x="936" />
<glyph unicode="&#x2003;" horiz-adv-x="1872" />
<glyph unicode="&#x2004;" horiz-adv-x="624" />
<glyph unicode="&#x2005;" horiz-adv-x="468" />
<glyph unicode="&#x2006;" horiz-adv-x="312" />
<glyph unicode="&#x2007;" horiz-adv-x="312" />
<glyph unicode="&#x2008;" horiz-adv-x="234" />
<glyph unicode="&#x2009;" horiz-adv-x="374" />
<glyph unicode="&#x200a;" horiz-adv-x="104" />
<glyph unicode="&#x2010;" horiz-adv-x="714" d="M82 512l20 139h492l-21 -139h-491z" />
<glyph unicode="&#x2011;" horiz-adv-x="714" d="M82 512l20 139h492l-21 -139h-491z" />
<glyph unicode="&#x2012;" horiz-adv-x="714" d="M82 512l20 139h492l-21 -139h-491z" />
<glyph unicode="&#x2013;" horiz-adv-x="1175" d="M-2 539l18 116h1100l-18 -116h-1100z" />
<glyph unicode="&#x2014;" horiz-adv-x="1611" d="M8 539l19 116h1523l-18 -116h-1524z" />
<glyph unicode="&#x2018;" horiz-adv-x="270" d="M115 1032l8 58q36 251 162 364l65 -49q-60 -85 -86 -254l-16 -119h-133z" />
<glyph unicode="&#x2019;" horiz-adv-x="276" d="M72 1087q44 54 69 107.5t37 140.5l17 117h139l-6 -53q-11 -75 -29 -133.5t-44 -101t-48 -69.5t-55 -59z" />
<glyph unicode="&#x201a;" horiz-adv-x="466" d="M57 -203q43 55 68 108.5t37 139.5l18 117h139l-8 -53q-11 -75 -29 -133.5t-44 -101t-48 -69.5t-55 -59z" />
<glyph unicode="&#x201c;" horiz-adv-x="530" d="M117 1032l8 58q36 253 160 364l65 -49q-60 -85 -86 -254l-16 -119h-131zM371 1032l8 58q36 251 162 364l63 -49q-59 -86 -84 -254l-16 -119h-133z" />
<glyph unicode="&#x201d;" horiz-adv-x="555" d="M66 1040q44 54 69 107.5t37 140.5l16 117h140l-9 -53q-15 -99 -44 -172t-58 -110.5t-74 -80.5zM332 1040q43 53 67 107t37 141l17 117h141l-8 -53q-15 -99 -44 -172t-58 -110.5t-74 -80.5z" />
<glyph unicode="&#x201e;" horiz-adv-x="819" d="M57 -201q43 53 67.5 107t37.5 141l18 117h142l-9 -53q-11 -75 -29 -133.5t-44 -101t-48 -69.5t-55 -59zM379 -199q44 56 69 109t37 139l17 117h141l-8 -53q-11 -75 -29 -133.5t-44 -101t-48 -69.5t-55 -59z" />
<glyph unicode="&#x2022;" horiz-adv-x="702" d="M121 356l53 365h358l-53 -365h-358z" />
<glyph unicode="&#x2026;" horiz-adv-x="1523" d="M72 0l30 209h195l-31 -209h-194zM553 0l31 209h192l-31 -209h-192zM1030 0l31 209h196l-30 -209h-197z" />
<glyph unicode="&#x202f;" horiz-adv-x="374" />
<glyph unicode="&#x2039;" horiz-adv-x="608" d="M59 356l365 369l68 -72l-267 -293l181 -286l-89 -74z" />
<glyph unicode="&#x203a;" horiz-adv-x="608" d="M20 74l267 286l-181 293l89 72l254 -369l-361 -356z" />
<glyph unicode="&#x205f;" horiz-adv-x="468" />
<glyph unicode="&#x20ac;" horiz-adv-x="1353" d="M63 528l15 99h172l22 157h-172l15 99h172l10 78q20 134 103.5 238.5t205 159t258.5 54.5q279 0 414 -156l-96 -118q-52 60 -138 93.5t-194 33.5q-150 0 -261 -85t-132 -227l-11 -71h574l-14 -99h-574l-22 -157h573l-14 -99h-574l-14 -90q-23 -153 61.5 -233t245.5 -80 q223 0 365 102l53 -116q-93 -70 -201 -100.5t-248 -30.5q-224 0 -345.5 117.5t-90.5 332.5l15 98h-173z" />
<glyph unicode="&#x2122;" horiz-adv-x="1142" d="M190 1348l13 86h366l-12 -86h-139l-51 -349h-86l51 349h-142zM590 1004l63 430h88l88 -205l150 205h90l-63 -430h-88l43 282l-130 -174h-40l-72 178l-43 -286h-86z" />
<glyph unicode="&#x25fc;" horiz-adv-x="1044" d="M0 0v1044h1044v-1044h-1044z" />
<glyph unicode="&#xfb03;" horiz-adv-x="1792" d="M86 0l135 924h-131l16 120h132l18 127q21 146 147 226t302 80q173 0 364 -56q112 56 258 56q187 0 373 -58l-45 -121q-205 37 -328 37q-128 0 -204 -47t-89 -139l-16 -105h244l-17 -120h-244l-135 -924h-157l135 924h-465l-135 -924h-158zM395 1044h465l19 127 q12 85 57 144q-120 20 -231 20q-128 0 -204 -47t-89 -139zM1331 0l152 1044h159l-151 -1044h-160z" />
<glyph unicode="&#xfb04;" horiz-adv-x="1796" d="M86 0l135 924h-131l16 120h132l18 127q21 146 147 226t302 80q173 0 364 -56q112 56 258 56q185 0 371 -58l-207 -1419h-160l193 1321q-107 14 -197 14q-128 0 -204 -47t-89 -139l-16 -105h244l-17 -120h-244l-135 -924h-157l135 924h-465l-135 -924h-158zM395 1044h465 l19 127q12 85 57 144q-120 20 -231 20q-128 0 -204 -47t-89 -139z" />
</font>
</defs>
</svg>
