<?xml version="1.0" standalone="no"?>
<!DOCTYPE svg PUBLIC "-//W3C//DTD SVG 1.1//EN" "http://www.w3.org/Graphics/SVG/1.1/DTD/svg11.dtd" >
<svg xmlns="http://www.w3.org/2000/svg">
<metadata></metadata>
<defs>
<font id="bose_gothicbold_italic" horiz-adv-x="1388" >
<font-face units-per-em="2048" ascent="1536" descent="-512" />
<missing-glyph horiz-adv-x="448" />
<glyph unicode="&#xdf;" horiz-adv-x="1292" d="M18 0l158 1075q29 202 165.5 302t367.5 100q203 0 330.5 -97t127.5 -266q0 -42 -4 -65q-116 -85 -172.5 -153t-56.5 -146q0 -35 18 -66.5t35.5 -48.5t54.5 -47q60 -51 92.5 -106.5t32.5 -129.5q0 -187 -120 -282t-332 -95q-87 0 -179 23t-141 61l90 205q39 -24 102 -41.5 t126 -17.5q74 0 127 35.5t53 99.5q0 31 -19 60.5t-39.5 47t-64.5 50.5q-117 89 -117 217q0 109 61.5 201t172.5 186v14q0 55 -60 88t-141 33q-96 0 -160 -45.5t-77 -132.5l-154 -1059h-277z" />
<glyph unicode="&#xfb01;" horiz-adv-x="1275" d="M63 0l125 862h-120l26 182h121l18 127q24 156 162.5 238t329.5 82q259 0 483 -78l-73 -194q-12 2 -80.5 14.5t-96.5 16.5t-90 9t-125 5q-221 0 -241 -146l-13 -74h242l-26 -182h-242l-125 -862h-275zM784 0l152 1044h278l-151 -1044h-279z" />
<glyph unicode="&#xfb02;" horiz-adv-x="1327" d="M63 0l125 862h-120l26 182h121l18 127q24 156 162.5 238t329.5 82q289 0 541 -96l-203 -1395h-279l181 1249q-114 15 -222 15q-221 0 -241 -146l-13 -74h242l-26 -182h-242l-125 -862h-275z" />
<glyph horiz-adv-x="0" />
<glyph horiz-adv-x="682" />
<glyph unicode="&#xd;" horiz-adv-x="448" />
<glyph unicode=" "  horiz-adv-x="448" />
<glyph unicode="&#x09;" horiz-adv-x="448" />
<glyph unicode="&#xa0;" horiz-adv-x="448" />
<glyph unicode="!" horiz-adv-x="571" d="M49 0l37 252h289l-37 -252h-289zM137 485l107 908h299l-158 -908h-248z" />
<glyph unicode="&#x22;" horiz-adv-x="673" d="M156 954l55 453h178l-80 -453h-153zM420 954l51 453h176l-76 -453h-151z" />
<glyph unicode="#" horiz-adv-x="1320" d="M23 248l26 164h238l125 393h-238l31 164h266l84 272h199l-86 -272h198l88 272h193l-82 -272h186l-30 -164h-217l-123 -393h206l-26 -164h-240l-71 -248h-199l74 248h-199l-78 -248h-196l77 248h-206zM483 412h201l125 393h-201z" />
<glyph unicode="$" horiz-adv-x="1220" d="M33 197l162 182q60 -77 151 -117.5t193 -40.5q114 0 175.5 49t61.5 138q0 62 -50 100t-179 80q-184 58 -275.5 144t-91.5 218q0 89 30 165.5t81.5 130t120 91.5t146 56t159.5 18q20 0 28 -2l66 213l170 -29l-61 -209q130 -42 239 -145l-153 -192q-73 65 -148 93.5 t-170 28.5q-107 0 -169 -47.5t-62 -132.5q0 -61 53 -100.5t186 -83.5q359 -114 359 -363q0 -209 -152.5 -333.5t-388.5 -124.5h-16l-74 -252l-164 26l72 248q-200 55 -299 191z" />
<glyph unicode="%" horiz-adv-x="1533" d="M113 0l1056 1393h226l-1047 -1393h-235zM154 1020l22 160q17 107 111 170t219 63q75 0 136 -28.5t93.5 -82.5t22.5 -122l-23 -160q-17 -107 -109 -171.5t-212 -64.5q-130 0 -203.5 61.5t-56.5 174.5zM352 1044q-6 -41 18 -59t70 -18q37 0 70 22.5t37 54.5l18 115 q4 33 -21 51.5t-65 18.5q-39 0 -72.5 -21t-37.5 -53zM772 199l29 194q17 107 103 166t210 59q117 0 189.5 -56t58.5 -161l-29 -188q-15 -109 -101.5 -169t-209.5 -60q-114 0 -188.5 59.5t-61.5 155.5zM963 240q-4 -34 21.5 -56t64.5 -22q37 0 69.5 23t36.5 57l16 112 q6 39 -17.5 60.5t-66.5 21.5q-39 0 -72.5 -24.5t-37.5 -59.5z" />
<glyph unicode="&#x26;" horiz-adv-x="1503" d="M41 295q0 55 17.5 104.5t45.5 91t78.5 87t101.5 83.5t128 89l18 14l-154 182l29 193q18 124 138.5 200t277.5 76q162 0 255 -71t93 -201q0 -64 -19 -118t-60 -103t-87.5 -89t-120.5 -92l193 -223l260 221l149 -161l-262 -230l195 -225l-201 -160l-186 219 q-202 -202 -469 -202q-200 0 -310 79.5t-110 235.5zM326 332q0 -54 39 -84.5t112 -30.5q74 0 141.5 31.5t159.5 107.5l-203 242l-20 -14q-136 -97 -182.5 -144t-46.5 -108zM530 1028l111 -127q87 60 128.5 106t41.5 101q0 88 -125 88q-58 0 -97.5 -23.5t-45.5 -64.5z" />
<glyph unicode="'" horiz-adv-x="497" d="M199 967l45 487h211l-99 -487h-157z" />
<glyph unicode="(" horiz-adv-x="759" d="M80 240l92 626q33 234 151.5 417t288.5 276l103 -109q-110 -67 -192 -218.5t-113 -365.5l-93 -626q-32 -222 6.5 -367.5t131.5 -210.5l-136 -113q-141 93 -207 275.5t-32 415.5z" />
<glyph unicode=")" horiz-adv-x="798" d="M-33 -352q107 72 189.5 228t115.5 370l90 618q30 218 -0.5 366t-117.5 218l118 113q141 -93 206 -277.5t32 -419.5l-90 -618q-35 -233 -153.5 -416t-286.5 -276z" />
<glyph unicode="*" horiz-adv-x="813" d="M160 1169l55 123l191 -65l30 211h131l-30 -213l211 67l18 -123l-205 -63l98 -172l-116 -80l-101 174l-147 -174l-94 78l149 174z" />
<glyph unicode="+" horiz-adv-x="1169" d="M68 696l26 193h402l55 381h209l-55 -381h403l-27 -193h-403l-64 -430h-208l63 430h-401z" />
<glyph unicode="," horiz-adv-x="491" d="M-90 -205q29 36 47.5 64t39.5 82t30 120l18 127h229l-8 -55q-12 -85 -37.5 -155t-61 -119t-64 -79t-64.5 -59z" />
<glyph unicode="-" horiz-adv-x="710" d="M57 485l33 226h512l-33 -226h-512z" />
<glyph unicode="." horiz-adv-x="524" d="M12 0l37 252h273l-37 -252h-273z" />
<glyph unicode="/" horiz-adv-x="858" d="M-90 -174l756 1567h235l-760 -1567h-231z" />
<glyph unicode="0" horiz-adv-x="1288" d="M72 420l80 543q29 205 194.5 327.5t390.5 122.5q147 0 257 -53.5t164.5 -157t35.5 -239.5l-80 -543q-20 -137 -105 -238t-209.5 -151.5t-271.5 -50.5t-256.5 51t-164.5 152t-35 237zM350 430q-17 -103 42.5 -157t170.5 -54q109 0 185.5 54t93.5 157l76 524 q15 102 -47.5 159.5t-170.5 57.5q-111 0 -185 -56.5t-89 -160.5z" />
<glyph unicode="1" horiz-adv-x="716" d="M125 1151l35 242h448l-202 -1393h-275l168 1151h-174z" />
<glyph unicode="2" horiz-adv-x="1150" d="M6 0l19 129q31 206 153 355t373 280q155 77 208.5 130.5t53.5 137.5q0 61 -46 94t-128 33q-178 0 -375 -149l-98 190q252 199 551 199q166 0 271.5 -82t105.5 -232q0 -74 -18 -134t-47.5 -106t-86 -94t-115.5 -86t-155 -92q-124 -62 -191 -111t-100 -99t-51 -125h655 l-35 -238h-944z" />
<glyph unicode="3" horiz-adv-x="1212" d="M14 293l246 92q16 -81 85 -121.5t161 -40.5q99 0 169 37t83 117q12 76 12 104q0 123 -195 123h-192l31 219h184q40 0 76.5 7t70 22t56 43.5t28.5 67.5q11 81 11 90q0 123 -191 123q-79 0 -152.5 -38.5t-109.5 -111.5l-209 94q59 134 202.5 215.5t324.5 81.5 q120 0 211.5 -31t148.5 -100.5t57 -171.5q0 -31 -12 -125q-13 -99 -79 -171t-169 -105q85 -30 133.5 -88t48.5 -138q0 -37 -14 -135q-11 -75 -46.5 -136.5t-87.5 -103.5t-119 -71t-139 -42t-149 -13q-189 0 -322 82.5t-153 224.5z" />
<glyph unicode="4" horiz-adv-x="1230" d="M-4 274l31 211l712 908h324l-127 -879h197l-35 -240h-197l-41 -274h-274l41 274h-631zM322 514h340l73 514h-24z" />
<glyph unicode="5" horiz-adv-x="1189" d="M68 328l266 67q-3 -78 51.5 -127t151.5 -49q84 0 145.5 39t71.5 109l20 141q10 71 -37.5 108t-140.5 37h-420l176 740h752l-35 -242h-516l-66 -274h183q93 0 168 -23t127.5 -67t75 -114.5t8.5 -160.5l-21 -154q-18 -116 -97.5 -204t-188.5 -131t-228 -43 q-211 0 -325.5 90.5t-120.5 257.5z" />
<glyph unicode="6" horiz-adv-x="1208" d="M61 375l89 614q29 189 188.5 306.5t378.5 117.5q134 0 226 -27.5t171 -91.5l-133 -196q-125 78 -283 78q-109 0 -184.5 -51.5t-87.5 -135.5l-31 -211q55 60 140.5 96.5t177.5 36.5q182 0 283 -91.5t77 -262.5l-29 -195q-13 -91 -66 -165t-130 -120.5t-168.5 -71.5 t-187.5 -25t-179.5 26t-145 74.5t-91 125t-15.5 169.5zM340 391q-13 -85 42.5 -129.5t141.5 -44.5q89 0 162 44.5t86 129.5l21 144q12 83 -43 126.5t-152 43.5q-90 0 -158 -45.5t-80 -124.5z" />
<glyph unicode="7" horiz-adv-x="1019" d="M90 1135l37 258h915l-20 -150l-598 -1243h-305l573 1135h-602z" />
<glyph unicode="8" horiz-adv-x="1228" d="M49 350l12 80q16 108 96 182t187 109q-91 32 -138 112t-34 179l8 49q16 111 95 192.5t192 120.5t244 39q96 0 178 -22.5t142.5 -65.5t90 -111t17.5 -153l-11 -60q-13 -88 -91.5 -168t-164.5 -112q232 -95 203 -291l-12 -80q-13 -92 -65 -164.5t-129.5 -116.5 t-170.5 -66.5t-196 -22.5q-105 0 -192.5 23t-151 67t-93 116t-16.5 164zM330 373q-12 -81 48.5 -117.5t158.5 -36.5q91 0 163.5 36t83.5 112l15 94q10 70 -51.5 112.5t-139.5 42.5h-26q-89 -5 -159.5 -44t-80.5 -111zM440 971q-8 -65 43.5 -105t126.5 -45h25q85 5 145 42 t70 108l8 59q10 69 -45.5 106.5t-136.5 37.5q-82 0 -149.5 -38t-77.5 -106z" />
<glyph unicode="9" horiz-adv-x="1212" d="M66 109l116 198q137 -88 336 -88q111 0 187.5 45.5t87.5 134.5l26 179q-59 -59 -141.5 -89t-163.5 -30q-198 0 -310.5 99.5t-86.5 275.5l30 206q17 111 100 198t200 131t245 44t233.5 -43.5t165 -130.5t42.5 -199l-101 -684q-17 -118 -101.5 -205.5t-201 -129 t-246.5 -41.5q-121 0 -233 33.5t-184 95.5zM395 842q-11 -77 48 -118.5t149 -41.5q84 0 153 42.5t80 117.5l25 174q11 73 -48.5 114t-146.5 41q-86 0 -155 -41.5t-80 -113.5z" />
<glyph unicode=":" horiz-adv-x="579" d="M47 0l39 272h139h135l-38 -272h-275zM164 795l39 270h274l-39 -270h-274z" />
<glyph unicode=";" horiz-adv-x="636" d="M37 -205q29 36 47.5 64t39.5 82t30 120l18 127h229l-8 -55q-12 -85 -37.5 -155t-61 -119t-64 -79t-64.5 -59zM229 786l41 279h258l-41 -279h-258z" />
<glyph unicode="&#x3c;" horiz-adv-x="1249" d="M106 514l965 565l51 -164l-665 -393l581 -364l-106 -162z" />
<glyph unicode="=" horiz-adv-x="1155" d="M47 342l29 197h358h574l-29 -197h-932zM111 772l28 195h932l-29 -195h-931z" />
<glyph unicode="&#x3e;" horiz-adv-x="1236" d="M55 147l654 385l-551 371l125 166l807 -526l-959 -561z" />
<glyph unicode="?" horiz-adv-x="989" d="M135 1274q91 60 205.5 99.5t218.5 39.5q203 0 303.5 -75t77.5 -230l-10 -68q-5 -37 -22.5 -71.5t-33.5 -57t-52 -53.5t-52 -43t-59 -43q-46 -32 -72.5 -53.5t-51 -49t-37 -58.5t-18.5 -72l-12 -90h-264l18 122q12 86 58.5 150t130.5 119q83 54 129 94.5t51 81.5l8 53 q9 54 -36.5 78t-129.5 24q-69 0 -148 -26.5t-140 -63.5zM172 0l37 252h319l-36 -252h-320z" />
<glyph unicode="@" horiz-adv-x="1642" d="M78 471q0 60 19.5 158.5t52.5 197.5q39 127 113.5 237.5t174 194t228.5 131.5t268 48q269 0 436.5 -143t167.5 -365q0 -88 -13 -168.5t-44 -157.5t-78 -132.5t-120 -89.5t-165 -34q-34 0 -65 5t-62.5 17t-52.5 36t-25 57q-55 -58 -137.5 -99.5t-161.5 -41.5 q-110 0 -163.5 46.5t-53.5 120.5q0 48 33.5 157.5t89.5 221.5q54 118 176 193.5t240 75.5q105 0 168 -46.5t63 -123.5q0 -14 -2.5 -30.5t-5 -28t-9.5 -35t-10 -32t-14 -39t-14 -38.5q-49 -138 -49 -193q0 -38 20 -63t54 -25q53 0 95.5 22t69 60.5t45 82.5t27 96t12 91.5 t3.5 79.5q0 172 -130.5 281t-343.5 109q-222 0 -390.5 -138t-227.5 -348q-68 -230 -68 -325q0 -164 132 -268.5t378 -104.5q151 0 326 88l49 -121q-190 -100 -395 -100q-307 0 -474 134.5t-167 348.5zM586 559q0 -44 24 -69t68 -25q75 0 141.5 53.5t89.5 132.5q5 13 20.5 53 t22.5 60.5t17.5 52t15 55.5t4.5 43q0 78 -100 78q-73 0 -144.5 -66.5t-99.5 -148.5q-21 -61 -40 -130.5t-19 -88.5z" />
<glyph unicode="A" horiz-adv-x="1329" d="M-49 0l655 1405h307l238 -1405h-299l-41 319h-422l-137 -319h-301zM475 543h316l-78 542z" />
<glyph unicode="B" horiz-adv-x="1294" d="M51 0l203 1393h541q191 0 291 -99q80 -79 80 -203q0 -31 -5 -65l-6 -47q-11 -78 -76 -152.5t-153 -101.5q103 -40 154 -117q38 -58 39 -132q0 -25 -5 -52l-10 -76q-26 -168 -152 -258t-321 -90h-580zM362 221h256q190 0 213 158l11 72q2 12 2 23q0 56 -42 90 q-50 42 -130 42h-254zM449 813h245q75 0 126 40.5t61 111.5l6 47q3 19 3 35q0 58 -36 85q-46 35 -143 35h-211z" />
<glyph unicode="C" horiz-adv-x="1163" d="M88 438l76 514q20 139 106.5 245.5t212 161t269.5 54.5q146 0 242.5 -33t176.5 -106l-141 -199q-121 96 -295 96q-117 0 -199.5 -62.5t-97.5 -172.5l-71 -483q-4 -24 -3 -46q0 -83 51 -129q65 -59 189 -59q183 0 314 84l73 -197q-96 -68 -197.5 -97t-248.5 -29 q-152 0 -261.5 50t-163.5 155q-38 75 -38 171q0 39 6 82z" />
<glyph unicode="D" horiz-adv-x="1343" d="M53 0l203 1393h496q244 0 372 -124q101 -97 100 -266q0 -46 -7 -98l-60 -420q-18 -122 -75 -216t-142 -152t-189 -87.5t-221 -29.5h-477zM360 240h205q124 0 212 65t108 201l55 377q4 30 4 57q0 90 -49 142q-64 68 -178 69h-223z" />
<glyph unicode="E" horiz-adv-x="1150" d="M49 0l203 1393h844l-35 -242h-567l-48 -328h453l-35 -231h-452l-52 -352h613l-35 -240h-889z" />
<glyph unicode="F" horiz-adv-x="1075" d="M49 0l203 1393h842l-35 -242h-567l-48 -328h453l-35 -233h-452l-86 -590h-275z" />
<glyph unicode="G" horiz-adv-x="1345" d="M90 436l76 518q16 108 72.5 196t141.5 145t190.5 87.5t222.5 30.5q261 0 440 -135l-127 -207q-76 51 -152.5 75.5t-185.5 24.5q-127 0 -219 -62t-109 -175l-71 -479q-3 -23 -3 -43q0 -84 56 -132q69 -61 192 -61q132 0 240 47l43 295h-217l33 223h491l-94 -643 q-252 -161 -530 -161q-159 0 -275.5 50t-176.5 155q-43 78 -43 178q0 35 5 73z" />
<glyph unicode="H" horiz-adv-x="1454" d="M53 0l203 1393h276l-86 -592h566l86 592h276l-203 -1393h-276l82 561h-565l-82 -561h-277z" />
<glyph unicode="I" horiz-adv-x="634" d="M66 0l202 1393h275l-203 -1393h-274z" />
<glyph unicode="J" horiz-adv-x="1146" d="M-16 313l276 66v-11q0 -55 44 -100q48 -49 130 -49q84 0 144 43.5t71 126.5l146 1004h276l-147 -1014q-27 -190 -162.5 -292.5t-349.5 -102.5q-206 0 -318 86q-110 83 -110 235v8z" />
<glyph unicode="K" horiz-adv-x="1335" d="M53 0l203 1393h276l-92 -629l545 629h338l-623 -664l478 -729h-349l-333 547l-101 -105l-65 -442h-277z" />
<glyph unicode="L" horiz-adv-x="1114" d="M49 0l203 1393h276l-168 -1153h629l-35 -240h-905z" />
<glyph unicode="M" horiz-adv-x="1736" d="M57 0l203 1393h301l283 -775l514 775h299l-203 -1393h-278l141 973l-438 -678h-166l-238 678l-141 -973h-277z" />
<glyph unicode="N" horiz-adv-x="1435" d="M53 0l203 1393h264l443 -965l141 965h254l-203 -1393h-260l-449 961l-139 -961h-254z" />
<glyph unicode="O" d="M92 436l76 522q32 209 200 332t402 123h35q152 0 265 -54q112 -55 168 -159q41 -77 41 -171q0 -34 -5 -71l-76 -522q-32 -218 -195.5 -337t-406.5 -119h-33q-245 0 -373 118q-104 95 -104 256q0 39 6 82zM373 455q-4 -26 -4 -49q0 -82 47 -128q60 -59 182 -59h33 q122 0 199 59.5t94 176.5l71 481q3 21 3 41q0 82 -51 132q-63 62 -179 62h-35q-115 0 -194.5 -61.5t-94.5 -171.5z" />
<glyph unicode="P" horiz-adv-x="1277" d="M51 0l203 1393h555q207 0 315 -104q87 -83 88 -220q0 -34 -6 -72l-22 -149q-17 -119 -90.5 -204.5t-179.5 -126t-234 -40.5h-283l-69 -477h-277zM430 702h262q88 0 148 44t73 133l13 88q3 18 3 35q-1 62 -37 100q-46 48 -134 49h-262z" />
<glyph unicode="Q" d="M90 436l76 522q32 209 200 332t402 123h33q234 0 367 -123q110 -101 110 -259q0 -35 -6 -73l-76 -522q-26 -187 -160 -305l115 -143l-154 -109l-118 152q-127 -51 -287 -51h-31q-244 0 -373 118q-104 95 -104 257q0 38 6 81zM369 455q-4 -26 -4 -49q0 -82 47 -128 q60 -59 184 -59h31q62 0 96 10l-109 144l150 110l113 -145q38 47 47 117l71 481q3 21 3 40q0 83 -52 133q-65 62 -182 62h-33q-116 0 -196 -61.5t-95 -171.5z" />
<glyph unicode="R" horiz-adv-x="1286" d="M55 0l203 1393h563q208 0 312 -99q81 -77 82 -213q0 -38 -7 -80l-8 -67q-20 -134 -97 -223t-196 -123l199 -588h-297l-168 524h-235l-76 -524h-275zM438 748h277q76 2 136 43t71 116l12 84q2 14 2 26q0 57 -38 92q-46 42 -130 42h-270z" />
<glyph unicode="S" horiz-adv-x="1222" d="M33 197l162 182q60 -77 151 -117.5t193 -40.5q114 0 175.5 49t61.5 138q0 62 -50 100t-179 80q-203 64 -293 160q-74 79 -74 198q0 27 4 55q11 80 46.5 147.5t87 115.5t116.5 81.5t136.5 49.5t146.5 16q267 0 442 -172l-153 -192q-73 65 -148 93.5t-170 28.5 q-107 0 -169 -47.5t-62 -132.5q0 -61 53 -100.5t186 -83.5q200 -63 288 -162q72 -80 71 -195q0 -27 -4 -57q-26 -189 -174 -298t-363 -109q-149 0 -279 56t-202 157z" />
<glyph unicode="T" horiz-adv-x="1196" d="M106 1151l35 242h1094l-35 -242h-412l-167 -1151h-275l168 1151h-408z" />
<glyph unicode="U" horiz-adv-x="1433" d="M113 369q0 48 10 123l131 901h276l-124 -873q-11 -83 -11 -104q0 -97 67.5 -147t172.5 -50q116 0 204.5 63.5t106.5 180.5l133 930h279l-139 -944q-16 -114 -72.5 -204.5t-140 -147.5t-186 -87t-216.5 -30q-219 0 -355 100t-136 289z" />
<glyph unicode="V" horiz-adv-x="1282" d="M147 1393h299l127 -1045l443 1045h297l-645 -1393h-289z" />
<glyph unicode="W" horiz-adv-x="1839" d="M182 1393h285l27 -1033l393 1033h246l94 -1037l325 1037h283l-483 -1393h-305l-97 991l-383 -991h-305z" />
<glyph unicode="X" horiz-adv-x="1261" d="M-51 0l508 696l-277 697h312l165 -486l320 486h311l-495 -699l290 -694h-313l-178 479l-326 -479h-317z" />
<glyph unicode="Y" horiz-adv-x="1294" d="M168 1393h313l164 -602l344 602h318l-562 -877l-75 -516h-279l76 518z" />
<glyph unicode="Z" horiz-adv-x="1202" d="M-8 0l24 162l781 987h-623l35 244h973l-23 -160l-778 -993h633l-35 -240h-987z" />
<glyph unicode="[" horiz-adv-x="579" d="M-4 -326l250 1719h375l-27 -187h-143l-197 -1349h135l-27 -183h-366z" />
<glyph unicode="\" horiz-adv-x="925" d="M164 1393h242l380 -1393h-237z" />
<glyph unicode="]" horiz-adv-x="575" d="M-59 -322l28 189h135l193 1327h-137l28 199h371l-250 -1715h-368z" />
<glyph unicode="^" horiz-adv-x="903" d="M115 842l436 571l258 -569l-147 -64l-154 340l-258 -340z" />
<glyph unicode="_" horiz-adv-x="1159" d="M-39 -233l25 165h942l-25 -165h-942z" />
<glyph unicode="`" horiz-adv-x="565" d="M182 1393l189 100l166 -313l-140 -80z" />
<glyph unicode="a" horiz-adv-x="1075" d="M-2 217q0 34 10 100q11 74 58.5 130t112.5 88t153.5 52.5t168 27t169.5 8.5l10 63q4 28 4 45q0 55 -38.5 79t-131.5 24q-66 0 -163 -20.5t-146 -45.5l-39 199q77 43 199.5 70.5t224.5 27.5q368 0 368 -279q0 -32 -6 -73l-104 -713h-213l-12 137q-50 -68 -139.5 -109.5 t-192.5 -41.5q-144 0 -218.5 62.5t-74.5 168.5zM281 283q0 -82 131 -82q82 0 143.5 36.5t67.5 84.5l20 139q-67 -3 -118.5 -8.5t-108.5 -18.5t-91 -39t-40 -63q-4 -33 -4 -49z" />
<glyph unicode="b" horiz-adv-x="1210" d="M33 0l207 1413h272l-72 -483q126 135 308 135q186 1 272 -101q66 -78 65 -202q0 -38 -6 -80l-47 -317q-26 -182 -140.5 -281.5t-301.5 -99.5q-85 0 -159 35t-109 102l-62 -121h-227zM358 358q-2 -13 -2 -25q0 -57 43 -89q52 -39 136 -39q201 0 223 162l45 313q2 15 2 28 q-1 55 -39 90q-48 44 -129 44q-91 0 -156 -40.5t-75 -119.5z" />
<glyph unicode="c" horiz-adv-x="1007" d="M57 360l47 322q26 182 170 282.5t355 100.5q214 0 338 -111l-127 -196q-87 65 -217 65q-98 0 -166.5 -44.5t-81.5 -127.5l-37 -262q-2 -16 -3 -31q0 -63 46 -98q56 -43 156 -43h12q121 0 227 59l66 -196q-139 -98 -369 -98q-215 0 -329 96q-92 77 -93 212q0 33 6 70z" />
<glyph unicode="d" horiz-adv-x="1206" d="M57 365l47 317q27 180 142.5 281.5t302.5 101.5q87 0 156.5 -34.5t109.5 -100.5l72 483h272l-207 -1413h-229l-25 121q-56 -67 -139 -102t-168 -35q-188 0 -274 100q-66 76 -66 201q0 38 6 80zM332 367q-2 -16 -2 -31q0 -131 178 -131q86 0 149 39t74 114l47 324 q2 13 2 24q0 62 -45 96q-53 40 -143 40q-81 0 -142 -44t-73 -118z" />
<glyph unicode="e" horiz-adv-x="1144" d="M49 307q0 26 10 88l45 312q16 105 96.5 187.5t194.5 125.5t236 43q175 0 288 -83.5t113 -223.5q0 -21 -8 -76l-35 -234h-647l-6 -47q-6 -42 -6 -53q0 -65 61.5 -97t159.5 -32q182 0 315 68l60 -189q-182 -108 -428 -108q-125 0 -224.5 34t-162 107.5t-62.5 177.5z M371 633h389l6 41q4 28 4 45q0 56 -50.5 88.5t-123.5 32.5q-74 0 -139.5 -39.5t-75.5 -102.5z" />
<glyph unicode="f" horiz-adv-x="716" d="M63 0l125 862h-120l26 182h121l16 113q15 100 74.5 170.5t141.5 102.5t178 32q159 0 262 -39l-72 -209q-93 19 -170 19q-56 0 -95 -26t-46 -77l-15 -86h242l-26 -182h-242l-125 -862h-275z" />
<glyph unicode="g" horiz-adv-x="1185" d="M-55 -219q0 177 188 254q-74 44 -74 125q0 60 43 116.5t115 88.5q-103 75 -103 215q0 30 5 63l8 59q18 119 90.5 202t178 121t237.5 38q139 0 231 -45l258 90l43 -170l-161 -49q30 -53 30 -126q0 -27 -4 -58l-10 -78q-18 -118 -90.5 -196.5t-175 -112t-232.5 -33.5 q-82 0 -160 16q-38 -26 -38 -70q0 -56 75 -73l570 -82l-35 -238q-14 -97 -84 -166t-168.5 -101t-214.5 -32h-148q-167 0 -270.5 63t-103.5 179zM217 -162q0 -42 40 -64t101 -22h129q155 0 172 101l11 59l-351 45q-48 -11 -75 -42.5t-27 -76.5zM391 610q-1 -11 -1 -20 q0 -49 37 -76q45 -33 122 -33q74 0 128 31t62 98l13 84q1 9 1 18q0 51 -39 80q-46 33 -116 33q-73 0 -129 -33t-66 -98z" />
<glyph unicode="h" horiz-adv-x="1232" d="M31 0l207 1413h276l-80 -536q53 82 152.5 134t197.5 52q182 0 252 -95q50 -68 50 -184q0 -45 -7 -96l-100 -688h-277l99 672q2 15 2 28q-1 52 -31 84q-38 40 -113 39q-90 0 -168 -49.5t-90 -122.5l-94 -651h-276z" />
<glyph unicode="i" horiz-adv-x="587" d="M41 0l152 1044h278l-152 -1044h-278zM217 1217l29 196h280l-28 -196h-281z" />
<glyph unicode="j" horiz-adv-x="620" d="M-264 -207q87 19 143 40.5t101.5 58.5t70.5 91.5t37 135.5l135 925h275l-140 -956q-33 -231 -177 -353t-417 -167zM248 1217l28 196h277l-29 -196h-276z" />
<glyph unicode="k" horiz-adv-x="1120" d="M31 0l207 1413h276l-108 -733h65l315 364h316l-426 -489l305 -555h-319l-228 434h-63l-64 -434h-276z" />
<glyph unicode="l" horiz-adv-x="587" d="M41 0l207 1413h278l-207 -1413h-278z" />
<glyph unicode="m" horiz-adv-x="1830" d="M41 0l152 1044h208v-157q53 77 150 126.5t190 49.5q116 0 188 -46t81 -140q56 78 160 133t210 55q172 -1 246 -81q55 -60 55 -168q0 -37 -6 -79l-108 -737h-275l99 670q3 21 3 39q0 51 -22 79q-30 38 -112 39q-85 0 -149.5 -51t-76.5 -129l-94 -647h-276l98 672 q3 22 3 41q1 50 -21 78q-30 38 -107 38q-79 0 -147 -54t-78 -126l-95 -649h-276z" />
<glyph unicode="n" horiz-adv-x="1234" d="M31 0l151 1044h217l4 -165q157 184 363 184q322 0 322 -285q0 -42 -7 -90l-100 -688h-276l96 655q3 21 3 39q0 131 -159 131q-84 0 -158 -50.5t-86 -123.5l-94 -651h-276z" />
<glyph unicode="o" horiz-adv-x="1181" d="M55 362l47 322q26 176 174.5 277.5t360.5 101.5q217 0 329 -101q91 -82 92 -214q0 -31 -5 -64l-47 -322q-17 -117 -95.5 -205t-191 -131.5t-240.5 -43.5q-201 0 -325 102q-103 85 -103 221q0 28 4 57zM332 381q-2 -12 -1 -23q0 -60 44 -96q53 -43 139 -43q82 0 145.5 43 t73.5 119l41 285q2 13 2 25q0 56 -42 90q-51 42 -132 42q-83 0 -150.5 -42.5t-78.5 -114.5z" />
<glyph unicode="p" horiz-adv-x="1204" d="M-37 -440l215 1484h230l26 -124q53 68 137.5 104.5t169.5 36.5q187 0 273 -101q64 -75 64 -198q0 -41 -7 -86l-45 -318q-26 -180 -141 -279t-301 -99q-190 0 -267 133l-79 -553h-275zM354 360q-2 -14 -2 -27q0 -60 43 -93q52 -39 142 -39q81 0 144 45.5t73 120.5l45 303 q2 17 2 33q0 61 -37 94q-48 41 -141 41q-84 0 -148 -40.5t-74 -115.5z" />
<glyph unicode="q" horiz-adv-x="1204" d="M57 358l45 318q28 184 143.5 284.5t303.5 100.5q84 0 156.5 -35.5t109.5 -103.5l59 122h230l-215 -1484h-273l80 553q-121 -133 -305 -133q-188 0 -274 99q-66 76 -66 200q0 37 6 79zM332 362q-2 -15 -2 -29q0 -55 38 -89q48 -43 130 -43q92 0 157 39.5t76 119.5l47 322 q2 12 2 24q0 59 -44 92q-51 40 -136 40q-94 0 -152.5 -40t-70.5 -124z" />
<glyph unicode="r" horiz-adv-x="792" d="M27 0l151 1044h217l19 -163q42 78 117.5 131t160.5 53q69 0 113 -16l-80 -273q-33 10 -113 10t-143.5 -51.5t-75.5 -134.5l-88 -600h-278z" />
<glyph unicode="s" horiz-adv-x="1026" d="M-12 113l125 188q52 -42 138 -72t161 -30q101 0 145.5 27.5t44.5 82.5q0 37 -44 61t-150 48q-159 36 -231.5 106t-72.5 174q0 73 26 134.5t70.5 103.5t103.5 71t124 42.5t133 13.5q234 0 379 -107l-115 -186q-123 72 -260 72q-87 0 -138.5 -28t-51.5 -87q0 -38 39 -61 t139 -45q163 -31 237 -98t74 -171q0 -116 -63 -202t-165 -128t-226 -42q-116 0 -231 34t-191 99z" />
<glyph unicode="t" horiz-adv-x="837" d="M55 860l27 184h141l37 244h275l-37 -244h247l-26 -184h-248l-74 -514q-2 -14 -2 -27q0 -39 21 -61q28 -29 84 -29q43 0 85 6t62 12t27 9l16 -211q-127 -55 -311 -55q-151 0 -219 72q-51 54 -51 157q0 36 6 78l82 563h-142z" />
<glyph unicode="u" horiz-adv-x="1228" d="M78 299q0 27 8 82l96 663h277l-90 -618q-1 -12 -4 -38.5t-3 -37.5q0 -64 48 -97.5t125 -33.5q84 0 146.5 42.5t74.5 117.5l94 665h276l-98 -684q-27 -178 -175.5 -279t-350.5 -101q-188 0 -306 84.5t-118 234.5z" />
<glyph unicode="v" horiz-adv-x="1124" d="M92 1044h293l111 -739l323 739h289l-528 -1044h-265z" />
<glyph unicode="w" horiz-adv-x="1552" d="M111 1044h268l24 -753l302 753h219l96 -747l231 747h267l-406 -1044h-258l-86 702l-283 -702h-268z" />
<glyph unicode="x" horiz-adv-x="1103" d="M-74 0l426 510l-260 534h311l140 -348l233 348h320l-422 -534l278 -510h-317l-150 319l-243 -319h-316z" />
<glyph unicode="y" horiz-adv-x="1118" d="M-4 -238q80 2 159 41.5t115 110.5l33 68l-203 1062h291l98 -731l314 731h291l-570 -1167q-152 -314 -528 -321v206z" />
<glyph unicode="z" horiz-adv-x="983" d="M-18 0l22 156l545 669h-438l30 219h756l-18 -137l-549 -684h477l-33 -223h-792z" />
<glyph unicode="{" horiz-adv-x="634" d="M43.5 -0.5q2.5 58.5 19.5 117.5l115 401l-88 82l119 100l-8 359q-2 160 106.5 297t288.5 196l90 -112q-118 -58 -179 -162.5t-63 -214.5l-10 -367l-102 -90l82 -76l-111 -426q-29 -119 6 -222t137 -161l-131 -122q-74 32 -128 77.5t-85.5 96.5t-46 109.5t-12 117z" />
<glyph unicode="|" horiz-adv-x="473" d="M-31 -301l246 1694h221l-246 -1694h-221z" />
<glyph unicode="}" horiz-adv-x="667" d="M-55 -279q139 73 209.5 175.5t70.5 207.5l15 428l106 74l-80 86l101 371q28 97 -12.5 203t-143.5 172l111 108q69 -22 124.5 -62.5t90 -89.5t55 -107t18.5 -115t-18 -113l-113 -359l94 -100l-120 -82l2 -401q2 -148 -116 -299.5t-308 -210.5z" />
<glyph unicode="~" horiz-adv-x="837" d="M199 1288q102 142 219 142q46 0 127 -41.5t114 -42.5q67 2 107 67l90 -82q-1 -1 -18 -24.5t-25.5 -34t-29.5 -32.5t-37.5 -32.5t-40.5 -20t-48 -9.5q-51 0 -135 43t-135 43q-14 0 -27 -4.5t-26 -14.5t-20.5 -16t-20 -19.5t-14.5 -15.5z" />
<glyph unicode="&#xa1;" horiz-adv-x="542" d="M-18 -352l165 944h248l-106 -944h-307zM168 838l33 223h278l-33 -223h-278z" />
<glyph unicode="&#xa2;" horiz-adv-x="1026" d="M70 358l47 324q24 174 156 273.5t331 107.5l76 272l170 -28l-78 -254q122 -26 207 -99l-127 -196q-90 65 -217 65q-99 0 -168 -44.5t-82 -127.5l-37 -260q-13 -86 44.5 -130t156.5 -44q127 0 239 59l66 -194q-138 -100 -369 -100h-16l-78 -254l-166 26l76 248 q-130 35 -191 124.5t-40 231.5z" />
<glyph unicode="&#xa3;" horiz-adv-x="1126" d="M-23 0l23 150q84 5 142 27t91 61t49.5 82t24.5 104l8 158h-258l29 192h240l12 187q30 217 216.5 332t473.5 118l-37 -240q-176 0 -269 -53t-106 -168l-10 -176h336l-29 -192h-317q-4 -110 -4 -125q-14 -89 -29.5 -130t-62.5 -87h456l-34 -240h-945z" />
<glyph unicode="&#xa5;" horiz-adv-x="1320" d="M76 305l16 119h385l15 94l-17 47h-364l18 125h305l-241 703h315l162 -602l344 602h315l-450 -703h284l-18 -125h-346l-29 -49l-14 -92h368l-16 -119h-369l-45 -305h-278l45 305h-385z" />
<glyph unicode="&#xa6;" horiz-adv-x="473" d="M-6 -215l98 680h176l-98 -680h-176zM133 745l100 682h177l-101 -682h-176z" />
<glyph unicode="&#xa7;" horiz-adv-x="1175" d="M10 -248l142 125q24 -58 102 -101.5t152 -43.5q49 0 88.5 9.5t75.5 31.5t56.5 65t20.5 103q0 39 -23.5 77.5t-55.5 68t-83 61.5t-86.5 50t-85.5 42q-117 56 -172 124.5t-55 180.5q0 108 55.5 198t130.5 123q-22 51 -22 131q0 131 65.5 227t169.5 141.5t232 45.5 q255 0 368 -166l-120 -133q-43 56 -117.5 89.5t-155.5 33.5q-96 0 -160.5 -55.5t-64.5 -145.5q0 -21 5 -40.5t17 -36.5t23 -31t32.5 -29t35 -25t41 -23.5t40 -20t42 -20t38.5 -17.5q64 -31 112 -64t88 -76.5t60.5 -99t20.5 -121.5q0 -103 -47 -189t-137 -132q26 -56 26 -129 q0 -131 -64.5 -228.5t-170.5 -146.5t-238 -49q-129 0 -230.5 51.5t-150.5 144.5zM299 594q0 -38 15.5 -68.5t48 -55t61.5 -40t78 -37.5q157 -82 223 -133q29 7 60.5 48t31.5 81q0 38 -16 69t-48.5 57.5t-67 46.5t-87.5 44q-108 50 -207 125q-38 -9 -65 -49.5t-27 -87.5z" />
<glyph unicode="&#xa8;" horiz-adv-x="821" d="M190 1206l29 199h195l-29 -199h-195zM575 1206l29 199h191l-29 -199h-191z" />
<glyph unicode="&#xa9;" horiz-adv-x="1638" d="M100 618q0 169 66.5 322t178 262.5t262 173.5t313.5 64q173 0 311.5 -83.5t214.5 -227t76 -318.5q0 -167 -67 -319t-178 -259.5t-260 -171t-308 -63.5q-177 0 -316.5 82t-216 223t-76.5 315zM233 637q0 -218 139.5 -364t356.5 -146q130 0 251 52t211.5 140.5t145 213.5 t54.5 262q0 142 -61 258t-174.5 184t-256.5 68q-131 0 -253 -52.5t-213 -141t-145.5 -213t-54.5 -261.5zM446 651l15 97q14 93 76.5 169t152.5 118t187 42q100 0 159 -31.5t119 -111.5l-117 -119q-28 43 -79 68.5t-107 25.5q-75 0 -135 -46t-70 -115l-14 -97 q-10 -72 40 -116t130 -46q54 0 115 23.5t108 62.5l70 -122q-60 -59 -153.5 -94t-174.5 -35q-156 0 -249.5 90.5t-72.5 236.5z" />
<glyph unicode="&#xaa;" horiz-adv-x="731" d="M123 926l4 26q26 185 389 191l8 49q6 44 -15.5 63t-80.5 19q-47 0 -101 -14t-85 -31l-25 121q109 59 260 59q115 0 168.5 -55t38.5 -164l-61 -422h-127l-11 78q-69 -86 -202 -86q-85 0 -128.5 44t-31.5 122zM287 948q-8 -51 78 -51q44 0 80 23t42 57l9 61 q-199 -3 -207 -71z" />
<glyph unicode="&#xab;" horiz-adv-x="972" d="M43 356l371 371l65 -82l-235 -285l151 -274l-88 -86zM414 356l370 371l64 -82l-234 -285l152 -274l-88 -86z" />
<glyph unicode="&#xac;" horiz-adv-x="942" d="M72 551l24 164h731l-51 -350h-158l27 186h-573z" />
<glyph unicode="&#xad;" horiz-adv-x="710" d="M57 485l33 226h512l-33 -226h-512z" />
<glyph unicode="&#xae;" horiz-adv-x="1638" d="M98 610q0 175 65 329.5t175.5 264t262 173t319.5 63.5q178 0 316 -81.5t212 -222.5t74 -317q0 -232 -110.5 -421.5t-296.5 -294.5t-406 -105q-274 0 -442.5 172t-168.5 440zM231 631q0 -220 137.5 -362t360.5 -142q179 0 331 87t241.5 242t89.5 343q0 143 -60.5 258 t-173.5 181.5t-258 66.5q-181 0 -334.5 -88t-243.5 -243t-90 -343zM481 332l111 764h336q100 0 155.5 -64t42.5 -164l-6 -37q-10 -72 -57 -121.5t-119 -72.5l146 -305h-177l-137 286h-100l-41 -286h-154zM692 735h162q42 0 76.5 22.5t40.5 61.5l6 43q6 41 -21 71t-67 30 h-162z" />
<glyph unicode="&#xaf;" horiz-adv-x="927" d="M207 1305l16 114h680l-16 -114h-680z" />
<glyph unicode="&#xb0;" horiz-adv-x="788" d="M152 1106l8 57q17 113 108.5 179t216.5 71q121 -5 196.5 -71.5t59.5 -178.5l-8 -57q-17 -111 -112.5 -177.5t-217.5 -66.5q-123 0 -195.5 66t-55.5 178zM317 1092q-6 -41 26.5 -64.5t80.5 -23.5q51 0 93 23.5t48 64.5l13 90q6 42 -28.5 67t-84.5 25q-47 0 -88 -25.5 t-47 -66.5z" />
<glyph unicode="&#xb1;" horiz-adv-x="1146" d="M-4 0l24 162h928l-24 -162h-928zM113 623l26 176h330l47 321h197l-47 -321h344l-27 -176h-344l-49 -342h-197l49 342h-329z" />
<glyph unicode="&#xb2;" horiz-adv-x="878" d="M152 702l14 97q14 104 80 166t192 110q37 14 57.5 23t50 24.5t44 32.5t14.5 35q0 57 -102 57q-68 0 -117.5 -17t-108.5 -52l-40 131q53 43 140 72.5t193 29.5q109 0 173.5 -44t64.5 -132q0 -86 -51 -142t-140 -96q-25 -12 -69 -31t-68 -30t-47.5 -30.5t-30.5 -41.5h357 l-25 -162h-581z" />
<glyph unicode="&#xb3;" horiz-adv-x="757" d="M104 791l117 96q21 -36 71 -60t109 -24q56 0 95 15t45 46l2 21q6 41 -32 64.5t-89 23.5h-133l20 131h127q50 0 92 18t47 58l3 18q5 32 -28 45.5t-81 13.5q-63 0 -116.5 -17.5t-82.5 -49.5l-65 108q45 51 135 83t180 32q59 0 105.5 -9t87 -30t58.5 -62t9 -100l-2 -18 q-8 -57 -56 -99.5t-101 -56.5q52 -17 88.5 -58.5t29.5 -94.5l-4 -31q-9 -59 -40.5 -101t-78.5 -63.5t-97.5 -31t-108.5 -9.5q-107 0 -191.5 38t-114.5 104z" />
<glyph unicode="&#xb4;" horiz-adv-x="575" d="M168 1167l266 320l156 -101l-303 -284z" />
<glyph unicode="&#xb6;" horiz-adv-x="1124" d="M145 1040l9 50q19 131 116.5 215.5t233.5 87.5h540l-202 -1393h-142l185 1270h-162l-184 -1270h-152l111 756h-86q-137 0 -212 76t-55 208z" />
<glyph unicode="&#xb7;" horiz-adv-x="430" d="M82 408l37 251h272l-37 -251h-272z" />
<glyph unicode="&#xb8;" horiz-adv-x="550" d="M-41 -426q1 1 25 11.5t41 20.5t39 26t34.5 36t12.5 43q0 83 -117 111l61 178h152l-39 -102q125 -48 125 -170q0 -175 -287 -267z" />
<glyph unicode="&#xb9;" horiz-adv-x="505" d="M131 1208l27 185h340l-101 -695h-204l73 510h-135z" />
<glyph unicode="&#xba;" horiz-adv-x="786" d="M139 1022l21 141q17 110 111 178t212 68q119 0 196 -68t60 -178l-20 -141q-17 -111 -112.5 -178.5t-215.5 -67.5q-119 0 -194 68t-58 178zM315 1038q-8 -60 17 -88t86 -28q44 0 82.5 22.5t42.5 59.5l26 172q6 37 -26.5 60.5t-75.5 23.5q-47 0 -87 -24t-44 -62z" />
<glyph unicode="&#xbb;" horiz-adv-x="962" d="M-14 86l233 274l-153 285l90 82l260 -371l-367 -356zM356 86l234 274l-154 285l88 82l262 -371l-368 -356z" />
<glyph unicode="&#xbc;" horiz-adv-x="1380" d="M-33 0l1057 1393h225l-1046 -1393h-236zM174 1208l27 185h340l-101 -695h-207l74 510h-133zM526 143l17 113l393 477h260l-63 -440h118l-22 -150h-119l-20 -141h-195l20 141h-389zM754 293h184l37 256h-19z" />
<glyph unicode="&#xbd;" horiz-adv-x="1435" d="M-33 0l1057 1393h225l-1046 -1393h-236zM174 1208l27 185h340l-101 -695h-207l74 510h-133zM623 -14l14 96q14 103 78.5 163.5t191.5 112.5q39 14 57 21.5t50 23.5t46.5 33.5t14.5 36.5q0 55 -100 55q-69 0 -119.5 -16.5t-107.5 -50.5l-41 131q56 43 141.5 72.5 t189.5 29.5q112 0 177 -44.5t65 -133.5q0 -85 -51.5 -141t-141.5 -96q-23 -11 -67.5 -30t-68.5 -30t-47.5 -30.5t-29.5 -41.5h357l-25 -161h-583z" />
<glyph unicode="&#xbe;" horiz-adv-x="1572" d="M86 791l117 96q19 -36 69 -59t111 -23q53 0 93 14t44 43l4 23q6 42 -32 65t-89 23h-133l19 131h127q29 0 57.5 6t54 24.5t29.5 45.5l2 18q5 32 -28 45.5t-82 13.5q-61 0 -115.5 -18t-83.5 -49l-66 108q45 51 135 83t181 32q44 0 82 -5t75.5 -18.5t62.5 -35.5t37 -58.5 t5 -83.5l-2 -18q-8 -60 -55.5 -101t-102.5 -55q51 -17 88.5 -58t30.5 -95l-4 -31q-30 -205 -326 -205q-104 0 -190.5 38.5t-114.5 103.5zM184 0l1057 1393h227l-1046 -1393h-238zM743 141l17 113l391 477h260l-63 -440h118l-22 -150h-119l-20 -141h-195l20 141h-387z M969 291h184l37 256h-16z" />
<glyph unicode="&#xbf;" horiz-adv-x="882" d="M-63 -45l8 59q4 26 11 49.5t21 46t23.5 37.5t31.5 36.5t31.5 30.5t37 32.5t34.5 29.5q81 63 118 112.5t48 127.5l12 92h265l-19 -125q-10 -72 -52 -131t-118 -119q-6 -6 -31.5 -28.5t-35.5 -31.5t-30 -29.5t-29 -33.5t-18.5 -31t-11.5 -34l-8 -55q-8 -58 27.5 -82.5 t99.5 -24.5q111 0 266 97l74 -191q-94 -63 -204 -105t-212 -42q-181 0 -272 77t-67 236zM307 809l37 254h320l-37 -254h-320z" />
<glyph unicode="&#xc0;" horiz-adv-x="1329" d="M-49 0l655 1405h307l238 -1405h-299l-41 319h-422l-137 -319h-301zM475 543h316l-78 542zM553 1796l188 100l166 -313l-139 -80z" />
<glyph unicode="&#xc1;" horiz-adv-x="1329" d="M-49 0l655 1405h307l238 -1405h-299l-41 319h-422l-137 -319h-301zM475 543h316l-78 542zM649 1569l266 319l156 -100l-303 -285z" />
<glyph unicode="&#xc2;" horiz-adv-x="1329" d="M-49 0l655 1405h307l238 -1405h-299l-41 319h-422l-137 -319h-301zM475 543h316l-78 542zM522 1602l295 186l240 -193l-94 -100l-172 115l-205 -113z" />
<glyph unicode="&#xc3;" horiz-adv-x="1329" d="M-49 0l655 1405h307l238 -1405h-299l-41 319h-422l-137 -319h-301zM459 1604q101 141 217 141q48 0 129.5 -41.5t114.5 -42.5q65 2 106 68l88 -82q-2 -2 -12.5 -18t-16.5 -24t-19 -24.5t-23.5 -26.5t-26 -23t-30 -20t-32.5 -12.5t-36 -5.5q-51 0 -135.5 43t-135.5 43 q-47 0 -108 -70zM475 543h316l-78 542z" />
<glyph unicode="&#xc4;" horiz-adv-x="1329" d="M-49 0l655 1405h307l238 -1405h-299l-41 319h-422l-137 -319h-301zM475 543h316l-78 542zM487 1522l29 198h195l-29 -198h-195zM872 1522l29 198h191l-29 -198h-191z" />
<glyph unicode="&#xc5;" horiz-adv-x="1329" d="M-49 0l655 1405h307l238 -1405h-299l-41 319h-422l-137 -319h-301zM475 543h316l-78 542zM637 1636q0 74 53 126.5t123 52.5q58 0 96.5 -39.5t38.5 -98.5q0 -73 -55.5 -126.5t-126.5 -53.5q-56 0 -92.5 40.5t-36.5 98.5zM715 1645q0 -29 18.5 -48.5t44.5 -19.5 q36 0 64 25.5t28 62.5q0 30 -20 51t-49 21q-32 0 -59 -27.5t-27 -64.5z" />
<glyph unicode="&#xc6;" horiz-adv-x="1857" d="M-74 0l1039 1393h852l-35 -242h-475l-47 -326h391l-33 -223h-391l-53 -362h520l-35 -240h-793l45 315h-434l-227 -315h-324zM614 539h330l86 585z" />
<glyph unicode="&#xc7;" horiz-adv-x="1163" d="M86 438l76 514q20 139 106.5 245.5t212 161t269.5 54.5q146 0 242 -33.5t175 -105.5l-141 -201q-114 96 -293 96q-118 0 -200 -61.5t-97 -171.5l-71 -483q-17 -116 48 -175t189 -59q185 0 313 84l74 -197q-86 -62 -178.5 -91t-218.5 -33l-31 -84q125 -48 125 -170 q0 -176 -289 -267l-47 113q2 1 21 9.5t32.5 15t34 19.5t33.5 25.5t23 30.5t10 37q0 84 -119 111l57 164q-190 24 -287 140t-69 312z" />
<glyph unicode="&#xc8;" horiz-adv-x="1150" d="M49 0l203 1393h844l-35 -242h-567l-48 -328h453l-35 -231h-452l-52 -352h613l-35 -240h-889zM467 1784l188 100l166 -313l-139 -80z" />
<glyph unicode="&#xc9;" horiz-adv-x="1150" d="M49 0l203 1393h844l-35 -242h-567l-48 -328h453l-35 -231h-452l-52 -352h613l-35 -240h-889zM592 1556l266 320l156 -100l-303 -285z" />
<glyph unicode="&#xca;" horiz-adv-x="1150" d="M49 0l203 1393h844l-35 -242h-567l-48 -328h453l-35 -231h-452l-52 -352h613l-35 -240h-889zM440 1589l295 187l240 -193l-94 -100l-172 114l-205 -112z" />
<glyph unicode="&#xcb;" horiz-adv-x="1150" d="M49 0l203 1393h844l-35 -242h-567l-48 -328h453l-35 -231h-452l-52 -352h613l-35 -240h-889zM403 1509l29 199h195l-29 -199h-195zM788 1509l29 199h191l-29 -199h-191z" />
<glyph unicode="&#xcc;" horiz-adv-x="634" d="M66 0l202 1393h275l-203 -1393h-274zM199 1784l188 100l166 -313l-139 -80z" />
<glyph unicode="&#xcd;" horiz-adv-x="634" d="M66 0l202 1393h275l-203 -1393h-274zM291 1554l266 320l156 -100l-303 -285z" />
<glyph unicode="&#xce;" horiz-adv-x="634" d="M66 0l202 1393h275l-203 -1393h-274zM170 1589l295 187l240 -193l-95 -100l-172 114l-205 -112z" />
<glyph unicode="&#xcf;" horiz-adv-x="634" d="M66 0l202 1393h275l-203 -1393h-274zM129 1509l29 199h194l-28 -199h-195zM514 1509l29 199h190l-28 -199h-191z" />
<glyph unicode="&#xd0;" horiz-adv-x="1343" d="M10 586l31 215h131l86 592h496q243 0 370.5 -124t92.5 -364l-60 -420q-18 -122 -75 -216t-141.5 -152t-188 -87.5t-220.5 -29.5h-477l86 586h-131zM362 240h205q124 0 212 65t108 201l55 377q19 131 -45 199.5t-178 68.5h-223l-52 -350h271l-31 -215h-270z" />
<glyph unicode="&#xd1;" horiz-adv-x="1435" d="M51 0l203 1393h264l443 -965l141 965h254l-203 -1393h-260l-449 961l-139 -961h-254zM530 1591q102 142 218 142q48 0 129 -41.5t114 -42.5q67 2 107 67l88 -82l-12 -18q-12 -17 -17 -23.5t-19.5 -24.5t-24 -26.5t-25.5 -22.5t-30 -20.5t-32.5 -12t-36.5 -5.5 q-51 0 -135 43t-135 43q-48 0 -109 -70z" />
<glyph unicode="&#xd2;" d="M92 436l76 522q32 209 200 332t402 123h35q152 0 265 -54t168.5 -158.5t35.5 -242.5l-76 -522q-32 -218 -195.5 -337t-406.5 -119h-33q-245 0 -373.5 118t-97.5 338zM373 455q-17 -118 43 -177t182 -59h33q122 0 199 59.5t94 176.5l71 481q15 111 -48 173t-179 62h-35 q-115 0 -194.5 -61.5t-94.5 -171.5zM573 1804l189 101l166 -314l-140 -80z" />
<glyph unicode="&#xd3;" d="M92 436l76 522q32 209 200 332t402 123h35q152 0 265 -54t168.5 -158.5t35.5 -242.5l-76 -522q-32 -218 -195.5 -337t-406.5 -119h-33q-245 0 -373.5 118t-97.5 338zM373 455q-17 -118 43 -177t182 -59h33q122 0 199 59.5t94 176.5l71 481q15 111 -48 173t-179 62h-35 q-115 0 -194.5 -61.5t-94.5 -171.5zM682 1575l266 319l156 -100l-303 -285z" />
<glyph unicode="&#xd4;" d="M92 436l76 522q32 209 200 332t402 123h35q152 0 265 -54t168.5 -158.5t35.5 -242.5l-76 -522q-32 -218 -195.5 -337t-406.5 -119h-33q-245 0 -373.5 118t-97.5 338zM373 455q-17 -118 43 -177t182 -59h33q122 0 199 59.5t94 176.5l71 481q15 111 -48 173t-179 62h-35 q-115 0 -194.5 -61.5t-94.5 -171.5zM559 1610l295 186l240 -192l-95 -101l-172 115l-204 -113z" />
<glyph unicode="&#xd5;" d="M92 436l76 522q32 209 200 332t402 123h35q152 0 265 -54t168.5 -158.5t35.5 -242.5l-76 -522q-32 -218 -195.5 -337t-406.5 -119h-33q-245 0 -373.5 118t-97.5 338zM373 455q-17 -118 43 -177t182 -59h33q122 0 199 59.5t94 176.5l71 481q15 111 -48 173t-179 62h-35 q-115 0 -194.5 -61.5t-94.5 -171.5zM481 1612q101 141 219 141q46 0 127.5 -41.5t114.5 -42.5q66 2 107 68l90 -82q-1 -2 -18 -25t-26 -34t-29.5 -32.5t-37 -32.5t-40.5 -20.5t-48 -9.5q-51 0 -135 43t-135 43q-12 0 -24 -4t-20.5 -8.5t-20 -13.5t-16.5 -14.5t-15.5 -16 l-12.5 -12.5z" />
<glyph unicode="&#xd6;" d="M92 436l76 522q32 209 200 332t402 123h35q152 0 265 -54t168.5 -158.5t35.5 -242.5l-76 -522q-32 -218 -195.5 -337t-406.5 -119h-33q-245 0 -373.5 118t-97.5 338zM373 455q-17 -118 43 -177t182 -59h33q122 0 199 59.5t94 176.5l71 481q15 111 -48 173t-179 62h-35 q-115 0 -194.5 -61.5t-94.5 -171.5zM510 1528l29 198h194l-28 -198h-195zM895 1528l29 198h190l-29 -198h-190z" />
<glyph unicode="&#xd7;" horiz-adv-x="1230" d="M-8 0l471 510l-309 494h219l221 -355l328 355h217l-453 -494l324 -510h-232l-225 367l-332 -367h-229z" />
<glyph unicode="&#xd8;" d="M80 -147l135 223q-76 57 -108.5 148.5t-14.5 211.5l76 522q32 209 200 332t402 123h35q115 0 211 -35l112 183h154l-147 -244q82 -61 119.5 -152.5t19.5 -206.5l-76 -522q-32 -218 -195.5 -337t-406.5 -119h-33q-135 0 -223 32l-98 -159h-162zM373 455q-9 -65 12 -109 l492 807q-49 18 -109 18h-35q-115 0 -194.5 -61.5t-94.5 -171.5zM477 238q47 -19 121 -19h33q122 0 199 59.5t94 176.5l71 481q9 77 -20 123z" />
<glyph unicode="&#xd9;" horiz-adv-x="1433" d="M113 369q0 48 10 123l131 901h276l-124 -873q-11 -83 -11 -104q0 -97 67.5 -147t172.5 -50q116 0 204.5 63.5t106.5 180.5l133 930h279l-139 -944q-16 -114 -72.5 -204.5t-140 -147.5t-186 -87t-216.5 -30q-219 0 -355 100t-136 289zM598 1784l188 100l166 -313l-139 -80 z" />
<glyph unicode="&#xda;" horiz-adv-x="1433" d="M113 369q0 48 10 123l131 901h276l-124 -873q-11 -83 -11 -104q0 -97 67.5 -147t172.5 -50q116 0 204.5 63.5t106.5 180.5l133 930h279l-139 -944q-16 -114 -72.5 -204.5t-140 -147.5t-186 -87t-216.5 -30q-219 0 -355 100t-136 289zM696 1554l267 320l155 -100 l-303 -285z" />
<glyph unicode="&#xdb;" horiz-adv-x="1433" d="M113 369q0 48 10 123l131 901h276l-124 -873q-11 -83 -11 -104q0 -97 67.5 -147t172.5 -50q116 0 204.5 63.5t106.5 180.5l133 930h279l-139 -944q-16 -114 -72.5 -204.5t-140 -147.5t-186 -87t-216.5 -30q-219 0 -355 100t-136 289zM559 1589l295 187l240 -193l-95 -100 l-172 114l-204 -112z" />
<glyph unicode="&#xdc;" horiz-adv-x="1433" d="M113 369q0 48 10 123l131 901h276l-124 -873q-11 -83 -11 -104q0 -97 67.5 -147t172.5 -50q116 0 204.5 63.5t106.5 180.5l133 930h279l-139 -944q-16 -114 -72.5 -204.5t-140 -147.5t-186 -87t-216.5 -30q-219 0 -355 100t-136 289zM530 1509l29 199h195l-29 -199h-195z M915 1509l29 199h191l-29 -199h-191z" />
<glyph unicode="&#xdd;" horiz-adv-x="1294" d="M168 1393h313l164 -602l344 602h318l-562 -877l-75 -516h-279l76 518zM633 1554l266 320l156 -100l-303 -285z" />
<glyph unicode="&#xde;" horiz-adv-x="1173" d="M51 0l203 1393h276l-36 -256h245q195 0 292 -107.5t71 -290.5l-6 -37q-26 -182 -151 -278t-324 -96h-246l-47 -328h-277zM410 567h227q74 0 124.5 37t59.5 98l6 37q9 67 -30.5 115.5t-112.5 48.5h-225z" />
<glyph unicode="&#xe0;" horiz-adv-x="1075" d="M-2 217q0 34 10 100q11 74 58.5 130t112.5 88t153.5 52.5t168 27.5t169.5 8l10 63q4 28 4 45q0 55 -38.5 79t-131.5 24q-66 0 -163 -20.5t-146 -45.5l-39 199q77 43 199.5 70.5t224.5 27.5q368 0 368 -279q0 -32 -6 -73l-104 -713h-213l-12 137q-50 -68 -139.5 -109.5 t-192.5 -41.5q-144 0 -218.5 62.5t-74.5 168.5zM281 283q0 -82 131 -82q82 0 143.5 36.5t67.5 84.5l20 139q-67 -3 -118.5 -8.5t-108.5 -18.5t-91 -39t-40 -63q-4 -33 -4 -49zM387 1491l188 100l166 -313l-139 -80z" />
<glyph unicode="&#xe1;" horiz-adv-x="1075" d="M-2 217q0 34 10 100q11 74 58.5 130t112.5 88t153.5 52.5t168 27.5t169.5 8l10 63q4 28 4 45q0 55 -38.5 79t-131.5 24q-66 0 -163 -20.5t-146 -45.5l-39 199q77 43 199.5 70.5t224.5 27.5q368 0 368 -279q0 -32 -6 -73l-104 -713h-213l-12 137q-50 -68 -139.5 -109.5 t-192.5 -41.5q-144 0 -218.5 62.5t-74.5 168.5zM281 283q0 -82 131 -82q82 0 143.5 36.5t67.5 84.5l20 139q-67 -3 -118.5 -8.5t-108.5 -18.5t-91 -39t-40 -63q-4 -33 -4 -49zM492 1264l266 319l155 -100l-303 -285z" />
<glyph unicode="&#xe2;" horiz-adv-x="1075" d="M-2 217q0 34 10 100q11 74 58.5 130t112.5 88t153.5 52.5t168 27.5t169.5 8l10 63q4 28 4 45q0 55 -38.5 79t-131.5 24q-66 0 -163 -20.5t-146 -45.5l-39 199q77 43 199.5 70.5t224.5 27.5q368 0 368 -279q0 -32 -6 -73l-104 -713h-213l-12 137q-50 -68 -139.5 -109.5 t-192.5 -41.5q-144 0 -218.5 62.5t-74.5 168.5zM281 283q0 -82 131 -82q82 0 143.5 36.5t67.5 84.5l20 139q-67 -3 -118.5 -8.5t-108.5 -18.5t-91 -39t-40 -63q-4 -33 -4 -49zM358 1296l295 187l240 -193l-94 -100l-172 115l-205 -113z" />
<glyph unicode="&#xe3;" horiz-adv-x="1075" d="M-2 217q0 34 10 100q11 74 58.5 130t112.5 88t153.5 52.5t168 27.5t169.5 8l10 63q4 28 4 45q0 55 -38.5 79t-131.5 24q-66 0 -163 -20.5t-146 -45.5l-39 199q77 43 199.5 70.5t224.5 27.5q368 0 368 -279q0 -32 -6 -73l-104 -713h-213l-12 137q-50 -68 -139.5 -109.5 t-192.5 -41.5q-144 0 -218.5 62.5t-74.5 168.5zM281 283q0 -82 131 -82q82 0 143.5 36.5t67.5 84.5l20 139q-67 -3 -118.5 -8.5t-108.5 -18.5t-91 -39t-40 -63q-4 -33 -4 -49zM299 1298q102 142 219 142q46 0 127.5 -41.5t114.5 -42.5q66 2 106 67l90 -82q-1 -2 -17.5 -25 t-25.5 -34t-29.5 -32t-37 -32t-40.5 -20.5t-48 -9.5q-51 0 -135.5 43t-135.5 43q-14 0 -27 -4.5t-26 -14.5t-20.5 -16t-20 -19.5t-14.5 -15.5z" />
<glyph unicode="&#xe4;" horiz-adv-x="1075" d="M-2 217q0 34 10 100q11 74 58.5 130t112.5 88t153.5 52.5t168 27.5t169.5 8l10 63q4 28 4 45q0 55 -38.5 79t-131.5 24q-66 0 -163 -20.5t-146 -45.5l-39 199q77 43 199.5 70.5t224.5 27.5q368 0 368 -279q0 -32 -6 -73l-104 -713h-213l-12 137q-50 -68 -139.5 -109.5 t-192.5 -41.5q-144 0 -218.5 62.5t-74.5 168.5zM281 283q0 -82 131 -82q82 0 143.5 36.5t67.5 84.5l20 139q-67 -3 -118.5 -8.5t-108.5 -18.5t-91 -39t-40 -63q-4 -33 -4 -49zM328 1219l28 198h195l-29 -198h-194zM713 1219l28 198h191l-29 -198h-190z" />
<glyph unicode="&#xe5;" horiz-adv-x="1075" d="M-2 217q0 34 10 100q11 74 58.5 130t112.5 88t153.5 52.5t168 27.5t169.5 8l10 63q4 28 4 45q0 55 -38.5 79t-131.5 24q-66 0 -163 -20.5t-146 -45.5l-39 199q77 43 199.5 70.5t224.5 27.5q368 0 368 -279q0 -32 -6 -73l-104 -713h-213l-12 137q-50 -68 -139.5 -109.5 t-192.5 -41.5q-144 0 -218.5 62.5t-74.5 168.5zM281 283q0 -82 131 -82q82 0 143.5 36.5t67.5 84.5l20 139q-67 -3 -118.5 -8.5t-108.5 -18.5t-91 -39t-40 -63q-4 -33 -4 -49zM477 1331q0 74 53 126t123 52q58 0 96.5 -39t38.5 -98q0 -73 -55.5 -126.5t-126.5 -53.5 q-56 0 -92.5 40.5t-36.5 98.5zM555 1339q0 -29 18 -48t45 -19q36 0 64.5 25.5t28.5 62.5q0 29 -20.5 50.5t-49.5 21.5q-32 0 -59 -28t-27 -65z" />
<glyph unicode="&#xe6;" horiz-adv-x="1734" d="M18 307l31 219l631 74l14 105q10 74 -31.5 109.5t-132.5 35.5q-120 0 -315 -64l-33 185q83 46 196 78t208 32q223 0 295 -118q130 118 368 118q191 0 297.5 -91t81.5 -265l-31 -205l-636 -59l-15 -90q-9 -70 49 -110t172 -40q84 0 178 28t146 62l65 -180 q-194 -145 -438 -145q-323 0 -405 178q-63 -91 -161.5 -134.5t-211.5 -43.5q-171 0 -257.5 86t-64.5 235zM279 315q-7 -55 35.5 -84.5t121.5 -29.5q75 0 136 32t69 93l16 110l-366 -41zM983 621l385 34l10 80q10 64 -34.5 95.5t-131.5 31.5q-80 0 -143 -38.5t-70 -98.5z" />
<glyph unicode="&#xe7;" horiz-adv-x="1007" d="M57 358l47 324q26 182 169.5 282.5t355.5 100.5q214 0 338 -111l-127 -196q-90 65 -217 65q-99 0 -168 -44.5t-82 -127.5l-37 -260q-13 -86 44.5 -130t156.5 -44q127 0 239 59l66 -194q-128 -93 -338 -100l-33 -84q125 -48 125 -170q0 -175 -287 -267l-47 113 q1 1 25 11.5t41 20.5t39 26t34.5 36t12.5 43q0 83 -117 111l57 168q-162 24 -241.5 117t-55.5 251z" />
<glyph unicode="&#xe8;" horiz-adv-x="1144" d="M49 307q0 26 10 88l45 312q16 105 96.5 187.5t194.5 125.5t236 43q175 0 288 -83.5t113 -223.5q0 -21 -8 -76l-35 -234h-647l-6 -47q-6 -42 -6 -53q0 -65 61.5 -97t159.5 -32q182 0 315 68l60 -189q-182 -108 -428 -108q-125 0 -224.5 34t-162 107.5t-62.5 177.5z M371 633h389l6 41q4 28 4 45q0 56 -50.5 88.5t-123.5 32.5q-74 0 -139.5 -39.5t-75.5 -102.5zM440 1493l189 100l166 -313l-140 -80z" />
<glyph unicode="&#xe9;" horiz-adv-x="1144" d="M49 307q0 26 10 88l45 312q16 105 96.5 187.5t194.5 125.5t236 43q175 0 288 -83.5t113 -223.5q0 -21 -8 -76l-35 -234h-647l-6 -47q-6 -42 -6 -53q0 -65 61.5 -97t159.5 -32q182 0 315 68l60 -189q-182 -108 -428 -108q-125 0 -224.5 34t-162 107.5t-62.5 177.5z M371 633h389l6 41q4 28 4 45q0 56 -50.5 88.5t-123.5 32.5q-74 0 -139.5 -39.5t-75.5 -102.5zM532 1266l267 319l155 -100l-303 -285z" />
<glyph unicode="&#xea;" horiz-adv-x="1144" d="M49 307q0 26 10 88l45 312q16 105 96.5 187.5t194.5 125.5t236 43q175 0 288 -83.5t113 -223.5q0 -21 -8 -76l-35 -234h-647l-6 -47q-6 -42 -6 -53q0 -65 61.5 -97t159.5 -32q182 0 315 68l60 -189q-182 -108 -428 -108q-125 0 -224.5 34t-162 107.5t-62.5 177.5z M371 633h389l6 41q4 28 4 45q0 56 -50.5 88.5t-123.5 32.5q-74 0 -139.5 -39.5t-75.5 -102.5zM406 1298l294 187l240 -193l-94 -100l-172 115l-205 -113z" />
<glyph unicode="&#xeb;" horiz-adv-x="1144" d="M49 307q0 26 10 88l45 312q16 105 96.5 187.5t194.5 125.5t236 43q175 0 288 -83.5t113 -223.5q0 -21 -8 -76l-35 -234h-647l-6 -47q-6 -42 -6 -53q0 -65 61.5 -97t159.5 -32q182 0 315 68l60 -189q-182 -108 -428 -108q-125 0 -224.5 34t-162 107.5t-62.5 177.5z M371 633h389l6 41q4 28 4 45q0 56 -50.5 88.5t-123.5 32.5q-74 0 -139.5 -39.5t-75.5 -102.5zM373 1221l28 198h195l-29 -198h-194zM758 1221l28 198h191l-29 -198h-190z" />
<glyph unicode="&#xec;" horiz-adv-x="587" d="M41 0l154 1059h278l-154 -1059h-278zM137 1475l189 100l166 -313l-140 -80z" />
<glyph unicode="&#xed;" horiz-adv-x="587" d="M41 0l154 1059h278l-154 -1059h-278zM238 1247l266 320l155 -101l-303 -284z" />
<glyph unicode="&#xee;" horiz-adv-x="587" d="M41 0l154 1059h278l-154 -1059h-278zM98 1278l295 186l240 -192l-94 -101l-172 115l-205 -112z" />
<glyph unicode="&#xef;" horiz-adv-x="587" d="M41 0l154 1059h278l-154 -1059h-278zM66 1202l28 199h195l-29 -199h-194zM451 1202l28 199h191l-29 -199h-190z" />
<glyph unicode="&#xf0;" horiz-adv-x="1181" d="M55 356l33 226q24 162 145 268t299 106q75 0 152 -23t117 -67q-19 87 -67 167t-116 141l-299 -130l-45 123l224 99q-92 64 -172 86l145 188q196 -61 322 -176l276 119l47 -123l-223 -98q202 -269 154 -600l-46 -306q-16 -112 -91.5 -198.5t-190.5 -132t-250 -45.5 q-128 0 -227 45t-151 132t-36 199zM336 387q-12 -74 39 -121t131 -47q79 0 147 47t78 119l25 160q10 77 -43.5 124.5t-139.5 47.5q-79 0 -142 -47.5t-73 -120.5z" />
<glyph unicode="&#xf1;" horiz-adv-x="1234" d="M31 0l151 1044h217l4 -165q157 184 363 184q369 0 315 -375l-100 -688h-276l96 655q25 170 -156 170q-84 0 -158 -50.5t-86 -123.5l-94 -651h-276zM371 1300q102 142 217 142q48 0 129 -41.5t114 -42.5q67 2 107 67l88 -82l-12 -17q-12 -18 -17 -24.5t-19.5 -24.5 t-24 -26.5t-25.5 -22.5t-30 -20.5t-32.5 -12t-36.5 -5.5q-51 0 -135 43t-135 43q-47 0 -108 -70z" />
<glyph unicode="&#xf2;" horiz-adv-x="1181" d="M55 362l47 322q26 176 174.5 277.5t360.5 101.5q217 0 329.5 -101t86.5 -278l-47 -322q-17 -117 -95.5 -205t-191 -131.5t-240.5 -43.5q-202 0 -325.5 102.5t-98.5 277.5zM332 381q-10 -76 43 -119t139 -43q82 0 145.5 43t73.5 119l41 285q11 73 -40 115t-132 42 q-83 0 -150.5 -42.5t-78.5 -114.5zM426 1493l188 100l166 -313l-139 -80z" />
<glyph unicode="&#xf3;" horiz-adv-x="1181" d="M55 362l47 322q26 176 174.5 277.5t360.5 101.5q217 0 329.5 -101t86.5 -278l-47 -322q-17 -117 -95.5 -205t-191 -131.5t-240.5 -43.5q-202 0 -325.5 102.5t-98.5 277.5zM332 381q-10 -76 43 -119t139 -43q82 0 145.5 43t73.5 119l41 285q11 73 -40 115t-132 42 q-83 0 -150.5 -42.5t-78.5 -114.5zM532 1266l267 319l155 -100l-303 -285z" />
<glyph unicode="&#xf4;" horiz-adv-x="1181" d="M55 362l47 322q26 176 174.5 277.5t360.5 101.5q217 0 329.5 -101t86.5 -278l-47 -322q-17 -117 -95.5 -205t-191 -131.5t-240.5 -43.5q-202 0 -325.5 102.5t-98.5 277.5zM332 381q-10 -76 43 -119t139 -43q82 0 145.5 43t73.5 119l41 285q11 73 -40 115t-132 42 q-83 0 -150.5 -42.5t-78.5 -114.5zM399 1298l295 187l240 -193l-94 -100l-172 115l-205 -113z" />
<glyph unicode="&#xf5;" horiz-adv-x="1181" d="M55 362l47 322q26 176 174.5 277.5t360.5 101.5q217 0 329.5 -101t86.5 -278l-47 -322q-17 -117 -95.5 -205t-191 -131.5t-240.5 -43.5q-202 0 -325.5 102.5t-98.5 277.5zM332 381q-10 -76 43 -119t139 -43q82 0 145.5 43t73.5 119l41 285q11 73 -40 115t-132 42 q-83 0 -150.5 -42.5t-78.5 -114.5zM344 1300q102 142 217 142q48 0 129.5 -41.5t114.5 -42.5q66 2 106 67l88 -82q-1 -2 -12.5 -18t-17 -23.5t-19 -24.5t-23.5 -26.5t-25.5 -22.5t-30 -20t-32.5 -12.5t-36 -5.5q-51 0 -135.5 43t-135.5 43q-47 0 -108 -70z" />
<glyph unicode="&#xf6;" horiz-adv-x="1181" d="M55 362l47 322q26 176 174.5 277.5t360.5 101.5q217 0 329.5 -101t86.5 -278l-47 -322q-17 -117 -95.5 -205t-191 -131.5t-240.5 -43.5q-202 0 -325.5 102.5t-98.5 277.5zM332 381q-10 -76 43 -119t139 -43q82 0 145.5 43t73.5 119l41 285q11 73 -40 115t-132 42 q-83 0 -150.5 -42.5t-78.5 -114.5zM369 1221l28 198h195l-29 -198h-194zM754 1221l28 198h191l-29 -198h-190z" />
<glyph unicode="&#xf7;" horiz-adv-x="1396" d="M70 483l24 164h1172l-25 -164h-1171zM483 115l35 241h250l-35 -241h-250zM578 764l36 244h250l-37 -244h-249z" />
<glyph unicode="&#xf8;" horiz-adv-x="1181" d="M14 -119l144 199q-129 106 -103 282l47 322q26 176 174.5 277.5t360.5 101.5q121 0 211 -35l94 127h127l-125 -176q136 -100 109 -295l-47 -322q-17 -117 -95.5 -205t-191 -131.5t-240.5 -43.5q-129 0 -227 43l-102 -144h-136zM332 381q-3 -37 6 -55l350 481 q-33 16 -86 16q-83 0 -150.5 -42.5t-78.5 -114.5zM408 242q48 -23 106 -23q82 0 145.5 43t73.5 119l41 285q6 40 -12 65z" />
<glyph unicode="&#xf9;" horiz-adv-x="1228" d="M78 299q0 27 8 82l96 663h277l-90 -618q-1 -12 -4 -38.5t-3 -37.5q0 -64 48 -97.5t125 -33.5q84 0 146.5 42.5t74.5 117.5l94 665h276l-98 -684q-27 -178 -175.5 -279t-350.5 -101q-188 0 -306 84.5t-118 234.5zM453 1473l188 100l166 -313l-139 -80z" />
<glyph unicode="&#xfa;" horiz-adv-x="1228" d="M78 299q0 27 8 82l96 663h277l-90 -618q-1 -12 -4 -38.5t-3 -37.5q0 -64 48 -97.5t125 -33.5q84 0 146.5 42.5t74.5 117.5l94 665h276l-98 -684q-27 -178 -175.5 -279t-350.5 -101q-188 0 -306 84.5t-118 234.5zM559 1245l266 320l156 -101l-303 -284z" />
<glyph unicode="&#xfb;" horiz-adv-x="1228" d="M78 299q0 27 8 82l96 663h277l-90 -618q-1 -12 -4 -38.5t-3 -37.5q0 -64 48 -97.5t125 -33.5q84 0 146.5 42.5t74.5 117.5l94 665h276l-98 -684q-27 -178 -175.5 -279t-350.5 -101q-188 0 -306 84.5t-118 234.5zM420 1278l295 186l239 -192l-94 -101l-172 115l-205 -112z " />
<glyph unicode="&#xfc;" horiz-adv-x="1228" d="M78 299q0 27 8 82l96 663h277l-90 -618q-1 -12 -4 -38.5t-3 -37.5q0 -64 48 -97.5t125 -33.5q84 0 146.5 42.5t74.5 117.5l94 665h276l-98 -684q-27 -178 -175.5 -279t-350.5 -101q-188 0 -306 84.5t-118 234.5zM385 1200l29 199h194l-28 -199h-195zM770 1200l29 199h190 l-28 -199h-191z" />
<glyph unicode="&#xfd;" horiz-adv-x="1118" d="M-4 -238q80 2 159 41.5t115 110.5l33 68l-203 1062h291l98 -731l314 731h291l-570 -1167q-152 -314 -528 -321v206zM500 1247l266 320l156 -101l-304 -284z" />
<glyph unicode="&#xfe;" horiz-adv-x="1236" d="M-37 -459l275 1870h276l-72 -479q73 70 147 103.5t165 33.5q183 0 280.5 -103t71.5 -272l-47 -329q-25 -172 -153 -278.5t-310 -106.5q-105 0 -174 30t-113 96l-84 -565h-262zM381 375q-12 -76 40.5 -125t137.5 -49q82 0 149 47.5t78 132.5l43 289q11 88 -38.5 132 t-137.5 44q-83 0 -151 -49.5t-78 -126.5z" />
<glyph unicode="&#xff;" horiz-adv-x="1118" d="M-4 -238q80 2 159 41.5t115 110.5l33 68l-203 1062h291l98 -731l314 731h291l-570 -1167q-152 -314 -528 -321v206zM336 1202l29 199h194l-29 -199h-194zM721 1202l29 199h190l-29 -199h-190z" />
<glyph unicode="&#x152;" horiz-adv-x="1857" d="M49 459l70 475q16 117 110 223t235.5 170t289.5 64h1077l-35 -240h-530l-45 -311h448l-35 -234h-446l-53 -366h573l-35 -240h-1120q-157 0 -279.5 61.5t-182.5 167t-42 230.5zM328 489q-15 -106 60.5 -177.5t199.5 -71.5h266l133 911h-268q-75 0 -148.5 -35.5t-124 -93.5 t-59.5 -121z" />
<glyph unicode="&#x153;" horiz-adv-x="1843" d="M57 360l52 355q25 167 154 264.5t321 97.5q54 0 105 -8.5t103 -27.5t92.5 -55.5t59.5 -86.5q66 86 162.5 134t200.5 48q131 0 229.5 -40t151 -125t34.5 -203l-36 -264l-648 -3l-12 -96q-10 -70 55.5 -107.5t159.5 -37.5q79 0 171 24t153 58l57 -189q-183 -108 -422 -108 q-281 0 -364 188q-64 -98 -174 -143t-234 -45q-194 0 -295.5 100t-75.5 270zM338 377q-10 -67 40 -109.5t130 -42.5q73 0 135.5 40t75.5 102l49 340q4 62 -47 99.5t-125 37.5q-80 0 -141 -40.5t-70 -105.5zM1067 633h393l10 82q8 65 -47.5 104t-132.5 39q-81 0 -141 -41.5 t-70 -109.5z" />
<glyph unicode="&#x178;" horiz-adv-x="1294" d="M168 1393h313l164 -602l344 602h318l-562 -877l-75 -516h-279l76 518zM463 1509l29 199h194l-29 -199h-194zM848 1509l29 199h190l-29 -199h-190z" />
<glyph unicode="&#x2c6;" horiz-adv-x="749" d="M188 1276l295 186l240 -192l-94 -101l-172 115l-205 -113z" />
<glyph unicode="&#x2dc;" horiz-adv-x="888" d="M199 1288q102 142 217 142q48 0 129 -41.5t114 -42.5q67 2 107 67l88 -82l-12 -17q-12 -18 -17 -24.5t-19.5 -24.5t-24 -26.5t-25.5 -22.5t-30 -20.5t-32.5 -12t-36.5 -5.5q-51 0 -135 43t-135 43q-47 0 -108 -70z" />
<glyph unicode="&#x2000;" horiz-adv-x="952" />
<glyph unicode="&#x2001;" horiz-adv-x="1905" />
<glyph unicode="&#x2002;" horiz-adv-x="952" />
<glyph unicode="&#x2003;" horiz-adv-x="1905" />
<glyph unicode="&#x2004;" horiz-adv-x="635" />
<glyph unicode="&#x2005;" horiz-adv-x="476" />
<glyph unicode="&#x2006;" horiz-adv-x="317" />
<glyph unicode="&#x2007;" horiz-adv-x="317" />
<glyph unicode="&#x2008;" horiz-adv-x="238" />
<glyph unicode="&#x2009;" horiz-adv-x="381" />
<glyph unicode="&#x200a;" horiz-adv-x="105" />
<glyph unicode="&#x2010;" horiz-adv-x="710" d="M57 485l33 226h512l-33 -226h-512z" />
<glyph unicode="&#x2011;" horiz-adv-x="710" d="M57 485l33 226h512l-33 -226h-512z" />
<glyph unicode="&#x2012;" horiz-adv-x="710" d="M57 485l33 226h512l-33 -226h-512z" />
<glyph unicode="&#x2013;" horiz-adv-x="1216" d="M-8 520l24 172h1149l-24 -172h-1149z" />
<glyph unicode="&#x2014;" horiz-adv-x="1646" d="M2 520l25 172h1566l-24 -172h-1567z" />
<glyph unicode="&#x2018;" horiz-adv-x="327" d="M92 985l8 55q23 154 83 258t134 156l95 -68q-68 -99 -95 -274l-18 -127h-207z" />
<glyph unicode="&#x2019;" horiz-adv-x="344" d="M66 1059q45 52 73.5 111t42.5 155l19 127h229l-8 -55q-12 -85 -38 -155t-61.5 -119.5t-63 -78.5t-64.5 -59z" />
<glyph unicode="&#x201a;" horiz-adv-x="491" d="M16 -205q30 37 48.5 64.5t40 81.5t30.5 120l19 127h227l-8 -55q-12 -85 -38 -155t-61.5 -119.5t-63.5 -78.5t-65 -59z" />
<glyph unicode="&#x201c;" horiz-adv-x="655" d="M92 985l8 55q23 154 82 258.5t133 155.5l97 -68q-69 -105 -95 -274l-18 -127h-207zM395 985l8 55q23 154 82 258.5t133 155.5l97 -68q-68 -103 -94 -274l-19 -127h-207z" />
<glyph unicode="&#x201d;" horiz-adv-x="659" d="M59 1034q29 36 48 65t40.5 83.5t30.5 120.5l19 127h229l-8 -56q-12 -85 -38 -154.5t-63 -119.5t-63.5 -77.5t-63.5 -59.5zM362 1034q30 38 48 65t40 83t31 121l19 127h229l-8 -56q-12 -85 -38 -154.5t-62.5 -119.5t-63 -77.5t-63.5 -59.5z" />
<glyph unicode="&#x201e;" horiz-adv-x="870" d="M14 -203q46 53 75.5 112t45.5 154l19 127h227l-8 -55q-10 -69 -30.5 -129t-42.5 -101t-53 -78.5t-53 -58.5t-51 -44zM338 -201q30 36 48.5 64t40 82.5t30.5 120.5l18 127h230l-9 -56q-12 -85 -38 -154.5t-62.5 -119.5t-64 -78t-64.5 -59z" />
<glyph unicode="&#x2022;" horiz-adv-x="694" d="M82 342l61 410h404l-62 -410h-403z" />
<glyph unicode="&#x2026;" horiz-adv-x="1630" d="M49 0l37 254h254l-37 -254h-254zM575 0l37 254h254l-37 -254h-254zM1100 0l37 254h254l-37 -254h-254z" />
<glyph unicode="&#x202f;" horiz-adv-x="381" />
<glyph unicode="&#x2039;" horiz-adv-x="591" d="M33 356l358 371l107 -82l-234 -285l152 -272l-131 -88z" />
<glyph unicode="&#x203a;" horiz-adv-x="591" d="M-4 88l233 272l-151 285l131 82l248 -371l-355 -356z" />
<glyph unicode="&#x205f;" horiz-adv-x="476" />
<glyph unicode="&#x20ac;" d="M43 512l20 129h181l16 121h-180l18 129h181l10 61q30 209 199 335t391 126q145 0 241 -33t176 -106l-141 -199q-121 96 -295 96q-117 0 -199.5 -62.5t-97.5 -172.5l-8 -45h481l-18 -129h-481l-17 -121h481l-20 -129h-481l-8 -59q-17 -116 48 -175t187 -59q187 0 315 84 l74 -197q-96 -68 -197.5 -97t-246.5 -29q-153 0 -263 50t-164 155t-32 253l10 74h-180z" />
<glyph unicode="&#x2122;" horiz-adv-x="1128" d="M170 1333l14 101h375l-14 -101h-135l-50 -336h-106l49 336h-133zM580 1004l63 430h109l77 -185l134 185h110l-63 -430h-107l39 253l-115 -159h-39l-63 162l-39 -256h-106z" />
<glyph unicode="&#x25fc;" horiz-adv-x="1044" d="M0 0v1044h1044v-1044h-1044z" />
<glyph unicode="&#xfb03;" horiz-adv-x="1996" d="M63 0l125 862h-120l26 182h121l18 127q24 156 162.5 238t329.5 82q231 0 430 -61q125 61 291 61q259 0 483 -78l-74 -194q-13 2 -80.5 14.5t-95.5 16.5t-90 9t-125 5q-221 0 -241 -146l-13 -74h242l-27 -182h-241l-125 -862h-275l125 862h-446l-125 -862h-275zM489 1044 h447l18 127q6 37 21 76q-134 17 -232 17q-221 0 -241 -146zM1505 0l152 1044h278l-151 -1044h-279z" />
<glyph unicode="&#xfb04;" horiz-adv-x="2048" d="M63 0l125 862h-120l26 182h121l18 127q24 156 162.5 238t329.5 82q231 0 430 -61q125 61 291 61q289 0 541 -96l-203 -1395h-279l181 1249q-114 15 -222 15q-221 0 -241 -146l-13 -74h242l-27 -182h-241l-125 -862h-275l125 862h-446l-125 -862h-275zM489 1044h447 l18 127q6 37 21 76q-134 17 -232 17q-221 0 -241 -146z" />
</font>
</defs>
</svg>
