<?xml version="1.0" standalone="no"?>
<!DOCTYPE svg PUBLIC "-//W3C//DTD SVG 1.1//EN" "http://www.w3.org/Graphics/SVG/1.1/DTD/svg11.dtd" >
<svg xmlns="http://www.w3.org/2000/svg">
<metadata></metadata>
<defs>
<font id="bose_gothic_screenLtOb" horiz-adv-x="1343" >
<font-face units-per-em="2048" ascent="1536" descent="-512" />
<missing-glyph horiz-adv-x="446" />
<glyph unicode="&#xdf;" horiz-adv-x="1273" d="M88 0l164 1128q12 84 51 154t100.5 120t141.5 77.5t172 27.5q76 0 145.5 -17t122.5 -54t86 -94.5t33 -137.5v-29.5t-4 -31.5q-63 -53 -109.5 -95t-75 -82t-43 -84t-14.5 -100q0 -66 32 -106.5t81 -87.5q23 -23 45 -47.5t40.5 -55t30 -67.5t11.5 -84q0 -84 -34 -149.5 t-92.5 -110.5t-137 -68.5t-166.5 -23.5q-109 0 -197 42t-119 119l78 66q23 -47 81 -83t173 -36q53 0 106.5 14.5t96.5 44t69.5 72.5t26.5 103q0 76 -38 124t-99 101q-41 37 -73 86t-32 127q0 123 55.5 216t182.5 187q2 10 2 18.5v16.5q0 53 -23.5 91t-63.5 61.5t-90 34 t-102 10.5q-66 0 -123 -20.5t-101 -57.5t-72.5 -86t-36.5 -107l-164 -1126h-117z" />
<glyph unicode="&#xfb01;" horiz-adv-x="1138" d="M102 0l138 946h-138l15 98h137l20 132q10 74 48 129t96.5 92t132.5 55t158 18q82 0 173 -13t165 -36l-35 -92q-84 16 -155 24.5t-155 8.5q-135 0 -218 -49t-97 -150l-18 -119h245l-14 -98h-246l-137 -946h-115zM723 0l154 1044h114l-151 -1044h-117z" />
<glyph unicode="&#xfb02;" horiz-adv-x="1146" d="M102 0l138 946h-138l15 98h137l20 132q10 74 49 129t97.5 92t132.5 55t156 18t173 -13t165 -36l-207 -1421h-117l197 1343q-55 8 -106.5 13.5t-111.5 5.5q-133 0 -217 -49t-98 -150l-18 -119h245l-14 -98h-246l-137 -946h-115z" />
<glyph horiz-adv-x="0" />
<glyph unicode="&#xd;" horiz-adv-x="446" />
<glyph unicode=" "  horiz-adv-x="446" />
<glyph unicode="&#x09;" horiz-adv-x="446" />
<glyph unicode="&#xa0;" horiz-adv-x="446" />
<glyph unicode="!" horiz-adv-x="520" d="M78 0l28 190h185l-29 -190h-184zM182 481l129 912h119l-137 -912h-111z" />
<glyph unicode="&#x22;" horiz-adv-x="612" d="M170 942l61 453h95l-68 -453h-88zM403 942l62 453h94l-67 -453h-89z" />
<glyph unicode="#" horiz-adv-x="1484" d="M80 340l14 94h332l131 404h-350l12 94h371l121 379h100l-123 -379h295l123 379h100l-121 -379h277l-12 -94h-297l-129 -404h311l-14 -94h-330l-107 -340h-100l107 340h-295l-109 -340h-98l106 340h-315zM528 434h295l131 404h-295z" />
<glyph unicode="$" horiz-adv-x="1181" d="M49 217l86 72q53 -102 154.5 -149.5t226.5 -47.5q76 0 141.5 18.5t112.5 55.5t74.5 92t27.5 127q0 51 -17 90t-53 69.5t-92.5 57.5t-136.5 51q-82 27 -148.5 59.5t-114.5 75.5t-73.5 96.5t-25.5 123.5q0 100 38 176t103.5 127t155.5 75.5t192 24.5q18 0 36 -1t34 -3 l57 197l95 -15l-58 -198q82 -23 143.5 -67t104.5 -103l-82 -78q-53 72 -138 114.5t-208 42.5q-74 0 -139.5 -17t-113.5 -52t-76.5 -86t-28.5 -121q0 -53 21.5 -94t63.5 -73t101 -57.5t135 -49.5q172 -55 257 -134t85 -215q0 -102 -38 -180t-103.5 -131t-154.5 -80.5 t-193 -27.5q-12 0 -27.5 1t-28.5 1l-69 -238l-92 12l69 240q-102 23 -182 77t-121 142z" />
<glyph unicode="%" horiz-adv-x="1499" d="M158 0l1036 1393h121l-1032 -1393h-125zM203 991l30 211q6 45 32 83t64 66.5t86 45t99 16.5t94 -16.5t73 -45t44 -66.5t8 -83l-31 -211q-6 -45 -31.5 -84t-64.5 -67.5t-87 -45t-99 -16.5t-94 16.5t-73 44t-43 66.5t-7 86zM301 997q-8 -53 32 -86.5t101 -33.5 q63 0 113.5 35.5t58.5 84.5l29 199q8 53 -32 85t-103 32q-31 0 -59.5 -9.5t-52 -24.5t-39 -36.5t-19.5 -46.5zM745 188l33 218q6 45 31 82.5t63.5 65.5t86 44t100.5 16q49 0 92 -15t71.5 -43t43 -65.5t8.5 -82.5l-31 -218q-14 -92 -93 -151t-183 -59q-51 0 -94.5 16t-74 44 t-45 65.5t-8.5 82.5zM844 197q-8 -49 33 -84t104 -35q59 0 109.5 34.5t58.5 84.5l29 200q8 53 -32 86t-102 33q-63 0 -114 -35t-60 -84z" />
<glyph unicode="&#x26;" horiz-adv-x="1464" d="M63 264q0 84 38 153.5t98.5 129t136.5 113t153 106.5l27 16l-178 226l24 168q8 51 38 95t75 76.5t102.5 50t118.5 17.5q141 0 217 -60.5t76 -166.5q0 -68 -27.5 -125t-71.5 -107.5t-101.5 -95.5t-118.5 -88l307 -389l240 221l73 -74l-248 -229l207 -258l-94 -76l-199 254 q-111 -100 -241.5 -170.5t-286.5 -70.5q-172 0 -268.5 71.5t-96.5 212.5zM182 285q0 -37 12.5 -73t41 -63.5t78.5 -44t124 -16.5q129 0 239.5 62.5t213.5 152.5l-316 402l-30 -23q-66 -47 -131.5 -91t-116.5 -91t-83 -99.5t-32 -115.5zM451 1044l157 -198q53 35 101.5 71.5 t85 76.5t59.5 83t23 92q0 139 -197 140q-94 0 -148.5 -43t-62.5 -103z" />
<glyph unicode="'" horiz-adv-x="456" d="M215 991l61 463h103l-74 -463h-90z" />
<glyph unicode="(" horiz-adv-x="675" d="M102.5 -19.5q-6.5 97.5 10.5 203.5l106 727q14 106 48 204.5t83 180.5t109.5 145.5t132.5 104.5l45 -71q-113 -66 -197 -209.5t-114 -354.5l-107 -727q-31 -215 12 -353t136 -204l-66 -76q-59 39 -101 103.5t-66.5 146.5t-31 179.5z" />
<glyph unicode=")" horiz-adv-x="681" d="M-31 -373q113 68 197 214.5t117 363.5l100 690q29 209 -10 358.5t-131 214.5l63 78q59 -41 101.5 -106.5t66 -151.5t27.5 -186.5t-11 -206.5l-100 -690q-16 -106 -50 -206.5t-83 -185.5t-110.5 -152t-131.5 -105z" />
<glyph unicode="*" horiz-adv-x="804" d="M188 1200l35 82l201 -68l31 220h86l-31 -220l215 68l12 -82l-213 -67l103 -179l-78 -53l-103 180l-155 -180l-62 53l156 179z" />
<glyph unicode="+" horiz-adv-x="1187" d="M88 735l16 101h447l61 434h103l-62 -434h449l-17 -101h-448l-68 -469h-102l68 469h-447z" />
<glyph unicode="," horiz-adv-x="372" d="M-63 -203q39 49 62.5 100.5t37.5 141.5l16 113h113l-8 -54q-10 -74 -26.5 -126t-37 -92t-45 -69.5t-53.5 -56.5z" />
<glyph unicode="-" horiz-adv-x="716" d="M78 522l16 107h484l-17 -107h-483z" />
<glyph unicode="." horiz-adv-x="493" d="M57 0l27 188h180l-26 -188h-181z" />
<glyph unicode="/" horiz-adv-x="780" d="M-72 -174l770 1567h115l-770 -1567h-115z" />
<glyph unicode="0" horiz-adv-x="1304" d="M121 408l84 571q14 104 64 185t124 136.5t164 84t188 28.5t181.5 -28.5t139.5 -84t82 -136.5t11 -185l-84 -571q-16 -104 -65 -185.5t-121 -134.5t-163 -80.5t-189 -27.5t-181.5 27.5t-140.5 81.5t-84 134t-10 185zM236 410q-12 -82 8 -141.5t64 -99.5t106.5 -59.5 t136.5 -19.5t143.5 19.5t124.5 58.5t92 99.5t50 142.5l83 567q12 82 -8 142.5t-63 100.5t-106.5 60t-137.5 20t-143.5 -20t-124.5 -60t-92 -100.5t-50 -142.5z" />
<glyph unicode="1" horiz-adv-x="573" d="M111 0l186 1280h-152l17 113h266l-203 -1393h-114z" />
<glyph unicode="2" horiz-adv-x="1122" d="M33 0l8 55q16 113 50 204t90.5 166t139 139.5t197.5 123.5q80 43 148.5 83t121 85t82 99.5t29.5 125.5q0 100 -71.5 150.5t-186.5 50.5q-111 0 -213 -48t-170 -108l-51 86q92 78 211 129.5t246 51.5q72 0 136 -17.5t112.5 -54.5t76 -91t27.5 -128q0 -94 -37 -166 t-97.5 -129t-139 -104.5t-160.5 -92.5q-94 -49 -166 -100t-123 -111.5t-82 -132t-45 -157.5h737l-16 -109h-854z" />
<glyph unicode="3" horiz-adv-x="1193" d="M63 285l111 18q-6 -51 18.5 -90t68.5 -65.5t102.5 -41t121.5 -14.5q57 0 118 12.5t112 39t87 68.5t44 99l18 125q8 59 -14.5 103.5t-63.5 74t-93 44t-103 14.5h-184l14 104h182q51 0 105.5 13.5t102.5 41t81 68.5t41 94l10 80q8 61 -10.5 104.5t-57 71t-94 41 t-121.5 13.5q-51 0 -108 -14.5t-107.5 -41t-87.5 -67.5t-47 -93l-100 19q14 70 62 127t114 97t143.5 61.5t153.5 21.5q88 0 163 -20.5t127 -61.5t76.5 -103.5t12.5 -148.5l-12 -80q-8 -53 -35 -99t-66 -81t-85 -60.5t-93 -39.5q45 -12 86 -36t71.5 -59.5t46 -82.5t7.5 -109 l-18 -125q-12 -82 -60.5 -142.5t-118 -101t-150.5 -61t-161 -20.5q-90 0 -168 21.5t-133 60t-85 95t-24 126.5z" />
<glyph unicode="4" horiz-adv-x="1175" d="M10 342l17 104l794 947h140l-138 -940h240l-16 -111h-240l-49 -342h-115l49 342h-682zM158 453h551l112 766h-14z" />
<glyph unicode="5" horiz-adv-x="1193" d="M96 330l115 14q-8 -59 11.5 -106.5t59.5 -80t98 -50t128 -17.5q57 0 115.5 16.5t107.5 48t84 78t43 107.5l21 137q16 119 -53.5 183.5t-202.5 64.5h-400l160 668h674l-17 -113h-571l-109 -446h287q88 0 157.5 -25t116 -71t66 -111.5t6.5 -149.5l-20 -139 q-12 -84 -58.5 -150.5t-113 -112.5t-146.5 -70.5t-159 -24.5q-90 0 -167 22.5t-132.5 67.5t-83 109.5t-17.5 150.5z" />
<glyph unicode="6" horiz-adv-x="1181" d="M94 354l103 697q12 82 56 149.5t109.5 114.5t150.5 72.5t181 25.5q111 0 200 -36t146 -97l-73 -90q-47 53 -124 83t-163 30q-72 0 -135.5 -17.5t-112.5 -49.5t-81 -79t-40 -106l-47 -326q72 76 170.5 115t196.5 39q80 0 152.5 -21.5t125 -67t78 -112t12.5 -156.5 l-24 -172q-14 -94 -62.5 -163.5t-117 -115.5t-150.5 -68.5t-164 -22.5q-84 0 -159.5 23.5t-131 69.5t-83 116.5t-13.5 164.5zM209 356q-10 -72 11.5 -123t62.5 -82.5t97 -47t116 -15.5q57 0 118.5 15.5t112.5 47t87 83t46 122.5l25 162q10 68 -11.5 116t-63.5 78.5t-98.5 46 t-115.5 15.5q-61 0 -121.5 -17.5t-112 -50t-86 -80.5t-43.5 -108z" />
<glyph unicode="7" horiz-adv-x="942" d="M109 1278l16 115h848l-12 -86l-631 -1307h-129l624 1278h-716z" />
<glyph unicode="8" horiz-adv-x="1253" d="M115 317l16 113q16 106 97 181t184 112q-86 37 -134.5 111.5t-33.5 173.5l10 71q12 82 56 145.5t108.5 104.5t143.5 62.5t159 21.5t151.5 -21.5t124 -62.5t78 -104.5t12.5 -145.5l-12 -75q-12 -94 -84.5 -169t-165.5 -112q43 -18 83 -46t68 -65t41 -82t5 -100l-16 -113 q-12 -88 -60.5 -151.5t-117 -105.5t-151.5 -61t-165 -19q-84 0 -162 19t-134 61t-85 105.5t-16 151.5zM231 322q-10 -66 13.5 -110t66.5 -70.5t99.5 -39t115.5 -12.5q57 0 118 12.5t112 39t87 70.5t46 110l16 116q8 55 -13.5 98.5t-61 73t-92 45t-105.5 15.5h-41 q-55 0 -112.5 -16.5t-106.5 -46t-83 -71.5t-42 -98zM356 997q-8 -53 11.5 -93t55.5 -68.5t84 -45t99 -18.5h41q51 2 104.5 18.5t97.5 45t73.5 68.5t38.5 93l10 76q8 61 -11.5 104.5t-57.5 71t-90 41t-107 13.5t-111.5 -13.5t-104 -41t-81 -71.5t-41.5 -104z" />
<glyph unicode="9" horiz-adv-x="1196" d="M113 117l65 84q49 -39 124 -75t198 -36q61 0 122.5 14.5t113.5 45t88 80t46 116.5l41 283q-76 -76 -172 -112t-190 -36q-84 0 -159 21.5t-129 66.5t-79.5 113t-13.5 158l31 215q12 82 59 148.5t116.5 112.5t152.5 71.5t167 25.5q82 0 158 -24.5t131 -71.5t83 -113.5 t15 -148.5l-104 -719q-12 -90 -60.5 -156.5t-117 -111.5t-150.5 -66.5t-164 -21.5q-51 0 -104 9t-102.5 26.5t-92.5 43t-73 58.5zM283 842q-10 -68 12 -116t64 -79t99.5 -45t116.5 -14q57 0 118 17.5t111 49t85 78.5t45 109l31 207q8 59 -13.5 106t-62.5 79t-96.5 49 t-114.5 17t-120.5 -16t-113 -49t-87 -79t-44.5 -107z" />
<glyph unicode=":" horiz-adv-x="575" d="M111 0l30 211h168l-30 -211h-168zM236 856l30 209h168l-31 -209h-167z" />
<glyph unicode=";" horiz-adv-x="622" d="M94 -203q39 49 62.5 100.5t38.5 141.5l16 113h111l-9 -54q-10 -74 -26.5 -126t-37 -92t-45 -69.5t-50.5 -56.5zM283 848l32 217h162l-33 -217h-161z" />
<glyph unicode="&#x3c;" horiz-adv-x="1271" d="M100 494l985 540l37 -84l-827 -452l737 -432l-61 -89z" />
<glyph unicode="=" horiz-adv-x="1339" d="M86 428l16 102h1065l-16 -102h-1065zM152 874l14 101h1065l-14 -101h-1065z" />
<glyph unicode="&#x3e;" horiz-adv-x="1222" d="M39 63l815 437l-653 448l65 84l781 -532l-971 -525z" />
<glyph unicode="?" horiz-adv-x="894" d="M160 1276q72 55 165.5 96t202.5 41q168 0 252 -72.5t62 -220.5l-15 -94q-6 -45 -28.5 -82t-55 -67.5t-71.5 -58t-78 -54.5q-74 -51 -126 -102.5t-62 -131.5l-21 -131h-117l25 156q10 82 68.5 142.5t136.5 113.5q33 23 68.5 47.5t66.5 51t52.5 55t25.5 63.5l12 84 q8 53 -7.5 90t-46 58.5t-73.5 30.5t-90 9q-86 0 -168 -32.5t-139 -79.5zM178 0l29 190h188l-28 -190h-189z" />
<glyph unicode="@" horiz-adv-x="1681" d="M100 467q0 63 19.5 148t48.5 184q33 129 105.5 241.5t175 197.5t230.5 134t273 49q135 0 245 -36.5t187.5 -103.5t120.5 -158t43 -201q0 -12 -3 -61.5t-16 -114t-39 -136t-70 -132t-109.5 -99.5t-157.5 -39q-66 0 -114 30.5t-64 88.5q-59 -66 -145.5 -107t-178.5 -41 q-117 0 -166 54.5t-49 128.5q0 20 8.5 56t20.5 79t27.5 87t29.5 79q25 63 68 120.5t98 100.5t119.5 67.5t132.5 24.5q109 0 166 -47t57 -129q0 -41 -15 -88t-36 -107q-20 -57 -37.5 -109.5t-17.5 -82.5q0 -47 26.5 -82t81.5 -35q61 0 106.5 29.5t78 77t54 104.5t35 111.5 t18.5 98.5t5 66q0 94 -38 171t-106.5 132.5t-164.5 86t-213 30.5q-123 0 -233.5 -43t-201.5 -116.5t-155.5 -172t-91.5 -208.5q-27 -94 -47.5 -173t-20.5 -139q0 -98 42 -176t116 -131t177.5 -81.5t226.5 -28.5q170 0 329 81l33 -75q-88 -47 -184 -71t-193 -24 q-141 0 -258 37t-201.5 103.5t-131 155.5t-46.5 194zM537 524q0 -66 34.5 -94.5t102.5 -28.5q104 0 189 62.5t118 157.5q12 37 27.5 75.5t29 76.5t22.5 73t9 65q0 55 -38 81t-107 26q-53 0 -103.5 -20.5t-93.5 -55.5t-74.5 -81t-48.5 -97q-10 -29 -21.5 -64.5t-21.5 -70.5 t-17 -63.5t-7 -41.5z" />
<glyph unicode="A" horiz-adv-x="1288" d="M-27 0l711 1411h119l282 -1411h-124l-87 457h-548l-226 -457h-127zM373 565h483l-139 682z" />
<glyph unicode="B" horiz-adv-x="1263" d="M96 0l203 1393h465q82 0 150.5 -21.5t113.5 -64.5q46 -43 66 -107q13 -40 12 -89q0 -29 -4 -60l-8 -56q-14 -98 -81 -169.5t-159 -100.5q104 -37 164 -115q46 -60 46 -146q0 -26 -5 -54l-10 -78q-12 -84 -51.5 -146.5t-97.5 -103.5t-133 -61.5t-159 -20.5h-512zM229 106 h387q57 0 110.5 13.5t96.5 41t71 70.5t38 105l10 78q3 21 3 40q0 38 -11 70q-16 47 -53 79t-90.5 47.5t-118.5 15.5h-363zM326 768h354q57 0 107.5 14.5t90.5 43t66.5 70.5t34.5 97l8 56q3 25 3 47q0 36 -8 64q-13 44 -47 72t-85 40t-115 12h-336z" />
<glyph unicode="C" horiz-adv-x="1187" d="M104 428l80 537q14 102 65.5 185t126.5 141.5t170 90t197 31.5q137 0 240.5 -40t167.5 -122l-78 -88q-51 63 -139 100t-205 37q-78 0 -150.5 -23.5t-131 -67.5t-97.5 -107.5t-51 -140.5l-76 -529q-5 -34 -5 -64q0 -46 12 -86q18 -64 62 -106.5t110.5 -64t150.5 -21.5 q109 0 207 24.5t178 84.5l45 -86q-96 -74 -204.5 -103.5t-243.5 -29.5q-109 0 -195 28.5t-144 85.5q-56 58 -82 140q-16 51 -16 113q0 38 6 81z" />
<glyph unicode="D" horiz-adv-x="1339" d="M98 0l203 1393h434q104 0 193.5 -30t151.5 -88q60 -59 90 -145q19 -56 20 -122q0 -36 -6 -74l-72 -481q-16 -115 -70.5 -200t-134.5 -141.5t-178 -84t-203 -27.5h-428zM229 111h314q82 0 157.5 20.5t138 62.5t104.5 107.5t56 155.5l68 473q4 28 4 54q-1 52 -17 96 q-24 64 -73 109.5t-117.5 68t-144.5 22.5h-320z" />
<glyph unicode="E" horiz-adv-x="1128" d="M94 0l203 1393h739l-16 -113h-623l-73 -514h524l-17 -109h-524l-80 -546h674l-16 -111h-791z" />
<glyph unicode="F" horiz-adv-x="1019" d="M94 0l203 1393h735l-16 -113h-621l-71 -496h526l-16 -110h-525l-98 -674h-117z" />
<glyph unicode="G" horiz-adv-x="1306" d="M106 424l80 545q14 104 66.5 187t129.5 139.5t172 87t200 30.5q147 0 253.5 -43t166.5 -104l-70 -90q-55 53 -145.5 88.5t-219.5 35.5q-78 0 -151.5 -22.5t-134 -65.5t-100.5 -105.5t-52 -141.5l-80 -537q-3 -23 -3 -46q0 -48 14 -90q22 -61 67 -106t111.5 -70.5 t148.5 -25.5q133 0 223 30t158 73l59 413h-366l16 107h481l-86 -580q-43 -29 -93 -56.5t-110.5 -49t-134 -34.5t-161.5 -13q-106 0 -193.5 33.5t-147 93t-86.5 140.5q-17 53 -17 112q0 32 5 65z" />
<glyph unicode="H" horiz-adv-x="1445" d="M98 0l203 1393h115l-97 -666h791l96 666h115l-203 -1393h-114l90 616h-791l-90 -616h-115z" />
<glyph unicode="I" horiz-adv-x="587" d="M131 0l203 1393h115l-203 -1393h-115z" />
<glyph unicode="J" horiz-adv-x="1116" d="M10 315l115 15q-1 -13 -1 -25q0 -39 14 -73q18 -44 55.5 -75.5t90 -49t111.5 -17.5q133 0 228.5 64.5t113.5 191.5l152 1047h115l-152 -1049q-27 -174 -155 -269t-314 -95q-86 0 -157.5 23.5t-123 67.5t-76.5 105q-18 47 -18 102q0 18 2 37z" />
<glyph unicode="K" horiz-adv-x="1269" d="M98 0l203 1393h115l-105 -723l766 723h154l-709 -654l580 -739h-160l-510 653l-143 -127l-76 -526h-115z" />
<glyph unicode="L" horiz-adv-x="1081" d="M96 0l203 1393h115l-187 -1282h719l-16 -111h-834z" />
<glyph unicode="M" horiz-adv-x="1689" d="M98 0l203 1393h129l375 -861l622 861h132l-203 -1393h-117l176 1206l-600 -833h-67l-361 827l-174 -1200h-115z" />
<glyph unicode="N" horiz-adv-x="1443" d="M96 0l203 1393h131l600 -1213l176 1213h113l-203 -1393h-127l-602 1217l-178 -1217h-113z" />
<glyph unicode="O" d="M113 424l80 541q14 102 63 185t123 141.5t168 90t198 31.5h35q109 0 196 -31.5t145.5 -90t84.5 -141.5q16 -54 16 -115q0 -34 -5 -70l-80 -541q-16 -104 -64.5 -187t-122 -140.5t-171 -87t-208.5 -29.5h-32q-109 0 -195 29.5t-142 86.5q-58 56 -82 138q-14 49 -14 106 q0 40 7 84zM229 428q-5 -34 -5 -65q0 -119 72 -187q90 -86 257 -86h33q86 0 160.5 21.5t131 64.5t93.5 105.5t49 146.5l78 533q5 32 5 60q1 117 -75 189q-94 90 -264 90h-35q-80 0 -151.5 -23.5t-128 -67.5t-93.5 -106.5t-49 -141.5z" />
<glyph unicode="P" horiz-adv-x="1232" d="M96 0l203 1393h479q204 1 304 -103q78 -81 79 -208q0 -34 -6 -72l-14 -101q-27 -178 -152 -266t-327 -88h-367l-82 -555h-117zM309 664h359q156 0 246 60t108 194l12 86q4 25 4 49q0 91 -56 151q-70 76 -224 76h-359z" />
<glyph unicode="Q" d="M113 424l80 541q14 102 63 185t123 141.5t168 90t198 31.5h35q109 0 196 -31.5t145.5 -90t84.5 -141.5q16 -54 16 -115q0 -34 -5 -70l-80 -541q-16 -106 -65.5 -189t-123.5 -141l119 -170l-86 -59l-121 176q-61 -31 -135 -46t-154 -15h-32q-109 0 -195 29.5t-142.5 86 t-81.5 138.5q-14 49 -14 106q0 40 7 84zM229 428q-5 -34 -5 -65q0 -119 72 -187q89 -86 257 -86h33q123 0 213 41l-109 164l80 59l117 -170q53 41 89 103.5t46 140.5l78 533q5 31 5 60q0 118 -77 189q-94 90 -264 90h-35q-80 0 -151.5 -23.5t-128 -67.5t-93.5 -106.5 t-49 -141.5z" />
<glyph unicode="R" horiz-adv-x="1224" d="M100 0l203 1393h506q184 -1 272 -97q70 -77 70 -195q0 -29 -4 -61l-12 -82q-20 -137 -108.5 -216.5t-225.5 -106.5l229 -635h-129l-217 610h-381l-88 -610h-115zM319 717h402q55 2 105.5 18.5t90 46t66.5 72.5t35 100l12 84q3 21 3 41q0 79 -51 133q-64 68 -198 68h-383z " />
<glyph unicode="S" horiz-adv-x="1181" d="M49 217l86 72q53 -102 154.5 -149.5t226.5 -47.5q76 0 141.5 18.5t112.5 55.5t74.5 92t27.5 127q0 51 -17 90t-53 69.5t-92.5 57.5t-136.5 51q-90 29 -161.5 65t-119.5 84t-68 110q-13 39 -13 87q0 28 4 58q12 88 55 154.5t107.5 111.5t147.5 66.5t175 21.5 q147 0 247 -51t165 -139l-82 -78q-53 72 -138 114.5t-208 42.5q-74 0 -139.5 -17t-113.5 -52t-76.5 -86t-28.5 -121q0 -53 21.5 -94t63.5 -73t101 -57t135 -50q172 -55 257 -134t85 -215q0 -102 -38 -180t-103.5 -131t-154.5 -80.5t-193 -27.5q-147 0 -270.5 59t-180.5 176z " />
<glyph unicode="T" horiz-adv-x="1171" d="M135 1280l17 113h1052l-16 -113h-475l-187 -1280h-116l186 1280h-461z" />
<glyph unicode="U" horiz-adv-x="1417" d="M152 426l141 967h115l-140 -963q-4 -32 -4 -60q0 -52 14 -92q22 -64 68.5 -105.5t114 -62t147.5 -20.5q76 0 149.5 22.5t134 65.5t101.5 106.5t54 145.5l139 963h117l-142 -967q-16 -111 -67.5 -195t-127 -140t-172 -83.5t-200.5 -27.5t-193.5 26.5t-150 81.5t-88.5 139 q-17 52 -16 116q0 39 6 83z" />
<glyph unicode="V" horiz-adv-x="1187" d="M168 1393h127l207 -1225l575 1225h125l-667 -1393h-117z" />
<glyph unicode="W" horiz-adv-x="1822" d="M205 1393h123l82 -1231l528 1231h109l165 -1233l445 1233h123l-516 -1393h-140l-159 1204l-519 -1204h-139z" />
<glyph unicode="X" horiz-adv-x="1159" d="M-18 0l522 700l-291 693h133l246 -596l428 596h137l-510 -693l307 -700h-139l-252 602l-440 -602h-141z" />
<glyph unicode="Y" horiz-adv-x="1179" d="M188 1393h136l249 -713l465 713h138l-562 -838l-82 -555h-116l82 555z" />
<glyph unicode="Z" horiz-adv-x="1175" d="M16 0l11 76l923 1204h-721l17 113h868l-12 -82l-920 -1200h766l-16 -111h-916z" />
<glyph unicode="[" horiz-adv-x="573" d="M41 -342l252 1735h268l-14 -101h-156l-223 -1536h147l-14 -98h-260z" />
<glyph unicode="\" horiz-adv-x="833" d="M186 1393h117l346 -1393h-117z" />
<glyph unicode="]" horiz-adv-x="569" d="M-27 -326l15 101h149l221 1515h-151l14 103h264l-249 -1719h-263z" />
<glyph unicode="^" horiz-adv-x="831" d="M156 918l366 497l207 -497l-96 -15l-139 332l-242 -332z" />
<glyph unicode="_" horiz-adv-x="1103" d="M-4 -150l14 97h838l-14 -97h-838z" />
<glyph unicode="`" horiz-adv-x="509" d="M211 1374l108 72l142 -297l-82 -51z" />
<glyph unicode="a" horiz-adv-x="1067" d="M45 258l6 35q14 102 94 163.5t188.5 95.5t225.5 45t207 15l18 127q4 28 4 53q0 68 -32 108q-44 56 -174 56q-41 0 -91.5 -8t-98.5 -20.5t-89 -26.5t-65 -27l-23 93q31 18 77 35.5t100 32t109.5 22.5t104.5 8q88 0 149.5 -23.5t97.5 -65.5t47 -102q6 -31 6 -65 q0 -31 -5 -66l-108 -743h-103l17 162q-18 -27 -53.5 -57.5t-84.5 -57.5t-113.5 -45t-144.5 -18q-141 0 -213 70q-57 56 -57 152q0 25 4 52zM166 266q-3 -21 -4 -40q0 -62 37 -95q47 -43 149 -43q72 0 137.5 19.5t115.5 51t82 72.5t38 82l31 205q-94 -4 -192.5 -14 t-182.5 -35t-141.5 -69t-67.5 -113z" />
<glyph unicode="b" horiz-adv-x="1163" d="M63 0l207 1413h115l-74 -506q66 82 165 120t198 38q88 0 156.5 -25.5t113.5 -75.5q44 -48 62 -118q10 -41 11 -89q0 -32 -5 -67l-49 -336q-27 -178 -147 -276t-300 -98q-98 0 -186 37.5t-131 125.5l-31 -143h-105zM225 334q-3 -19 -3 -37q0 -39 14 -71q22 -48 62 -78.5 t96.5 -46t117.5 -15.5q133 0 225 69.5t111 198.5l49 336q4 25 4 48q-1 92 -59 148q-72 70 -201 70q-63 0 -123.5 -14t-110 -45t-84 -77t-42.5 -109z" />
<glyph unicode="c" horiz-adv-x="960" d="M74 340l53 358q12 84 53 152t102.5 116t139.5 73.5t164 25.5q111 0 182.5 -36t124.5 -99l-72 -82q-47 53 -105.5 78.5t-140.5 25.5q-61 0 -117.5 -17t-101.5 -51t-75.5 -82t-38.5 -110l-49 -346q-4 -24 -4 -45q0 -38 12 -69q18 -48 55 -79.5t88 -48t107 -16.5h13 q72 0 136 20q70 22 135 70l37 -88q-78 -59 -159 -84.5t-183 -25.5q-82 0 -152.5 22.5t-119.5 68.5q-49 47 -73 113q-16 43 -16 96q0 28 5 60z" />
<glyph unicode="d" horiz-adv-x="1163" d="M78 354l49 336q12 86 51 155.5t97.5 119t135 75t164.5 25.5q98 0 185.5 -38t132.5 -120l74 506h114l-207 -1413h-106l12 143q-68 -88 -166 -125.5t-196 -37.5q-90 0 -159 25.5t-114 73.5q-45 47 -62 117q-10 41 -10 88q0 34 5 70zM193 354q-4 -26 -4 -50q0 -92 57 -148 q71 -70 205 -70q61 0 121.5 15.5t109.5 46t83 77.5t44 109l55 377q2 19 2 36q0 41 -13 73q-19 46 -60 77t-97.5 45t-120.5 14q-63 0 -119.5 -18t-101.5 -52t-74.5 -84t-37.5 -112z" />
<glyph unicode="e" horiz-adv-x="1062" d="M72 344l53 373q10 74 54 137.5t108.5 109.5t144.5 72.5t160 26.5q82 0 150.5 -25.5t117.5 -71.5q50 -46 72 -110q16 -44 16 -93q0 -22 -4 -46l-29 -203h-704l-25 -168q-3 -20 -3 -38q1 -40 15 -72q22 -48 62.5 -79.5t97 -47t117.5 -15.5q104 0 187 23.5t137 60.5l35 -86 q-82 -57 -180.5 -81.5t-196.5 -24.5q-84 0 -159 22.5t-130 67.5q-55 46 -82 112q-18 45 -18 100q0 27 4 56zM225 614h592l14 103q3 16 3 32q0 33 -12 63q-17 44 -52 77t-85.5 50t-109.5 17t-115.5 -18t-102.5 -50t-77.5 -76t-39.5 -95z" />
<glyph unicode="f" horiz-adv-x="618" d="M102 0l138 946h-138l15 98h137l20 132q10 70 43 124t81 89.5t108.5 54t126.5 18.5q47 0 103.5 -10t97.5 -29l-35 -94q-41 12 -82 18.5t-88 6.5q-96 0 -162 -46t-80 -139l-18 -125h245l-14 -98h-246l-137 -946h-115z" />
<glyph unicode="g" horiz-adv-x="1148" d="M-14 -227q0 111 67.5 178t169.5 92q-45 23 -71.5 56.5t-26.5 86.5q0 63 42 117.5t97 77.5q-63 41 -92 109q-20 48 -20 106q0 27 4 55l10 72q12 82 54 145.5t103.5 106.5t138.5 65.5t159 22.5q63 0 119.5 -12.5t99.5 -38.5l264 75l16 -94l-196 -51q33 -41 47 -95 q8 -31 8 -67q0 -26 -4 -53l-12 -78q-12 -84 -52.5 -146.5t-99.5 -103.5t-133 -61.5t-154 -20.5q-102 0 -178 25q-43 -16 -74.5 -49t-31.5 -80q0 -51 42 -77.5t89 -37.5l540 -92l-26 -190q-10 -74 -53.5 -125t-104.5 -85t-134 -49.5t-147 -15.5h-96q-72 0 -138.5 12.5 t-116.5 40t-79.5 71.5t-29.5 108zM100 -205q0 -43 23.5 -71.5t62.5 -46t86 -24.5t97 -7h102q49 0 96 8t87 27.5t70 52.5t44 84l16 110l-428 70q-43 -2 -89 -13.5t-83 -36t-60.5 -61.5t-23.5 -92zM272 645q-3 -20 -3 -38q0 -79 57 -127q71 -60 209 -60q55 0 108 12t95 39 t71 70t39 104l12 80q1 10 1 19q0 45 -17 82q-19 44 -54.5 72t-84 42t-101.5 14t-106.5 -14t-98.5 -43t-75.5 -72t-38.5 -100z" />
<glyph unicode="h" horiz-adv-x="1210" d="M76 0l207 1413h114l-84 -567q74 100 180.5 158.5t231.5 58.5q170 -1 249 -95q60 -72 60 -186q0 -36 -6 -77l-102 -705h-115l102 702q3 26 3 49q0 87 -46 137q-59 64 -182 64q-66 0 -132.5 -22.5t-123.5 -61.5t-97 -92t-48 -112l-97 -664h-114z" />
<glyph unicode="i" horiz-adv-x="526" d="M106 0l152 1044h115l-152 -1044h-115zM283 1278l20 135h131l-20 -135h-131z" />
<glyph unicode="j" horiz-adv-x="559" d="M-219 -311q92 25 156.5 55.5t108.5 77.5t69.5 112.5t40.5 161.5l137 948h115l-140 -956q-16 -111 -50 -193.5t-90 -142t-137 -99.5t-192 -67zM319 1278l21 135h121l-21 -135h-121z" />
<glyph unicode="k" horiz-adv-x="993" d="M74 0l207 1413h116l-116 -795h77l478 426h139l-514 -471l403 -573h-141l-361 508h-98l-74 -508h-116z" />
<glyph unicode="l" horiz-adv-x="526" d="M104 0l207 1413h115l-207 -1413h-115z" />
<glyph unicode="m" horiz-adv-x="1835" d="M78 0l151 1044h103l-23 -184q66 90 164 147.5t209 57.5q115 0 189.5 -45t91.5 -150q74 98 170 146.5t225 48.5q160 0 230 -89q53 -67 54 -171q0 -34 -6 -72l-106 -733h-115l105 719q4 24 4 46q0 73 -40 123q-52 66 -159 66q-68 0 -130 -18t-111.5 -52t-82 -84t-40.5 -114 l-101 -686h-115l107 735q4 23 4 44q0 71 -43 117q-55 58 -162 58q-59 0 -119.5 -23.5t-110.5 -63.5t-85 -91t-43 -104l-98 -672h-117z" />
<glyph unicode="n" horiz-adv-x="1212" d="M78 0l151 1044h105l-25 -204q78 104 184.5 163.5t229.5 59.5q170 0 252 -93q63 -71 62 -187q0 -35 -5 -74l-102 -709h-117l102 700q3 26 3 50q0 86 -46 138q-59 66 -184 66q-61 0 -126.5 -22.5t-123 -62.5t-98.5 -93t-49 -112l-96 -664h-117z" />
<glyph unicode="o" horiz-adv-x="1120" d="M74 346l51 359q12 82 57 148.5t111.5 112.5t146.5 71.5t164 25.5t158 -25.5t125 -72.5t75 -113q16 -44 17 -95q0 -25 -4 -52l-51 -359q-12 -84 -57.5 -150.5t-112 -113.5t-146.5 -72.5t-162 -25.5t-155.5 25.5t-125.5 72.5q-52 48 -78 114q-17 44 -17 96q0 26 4 54z M188 350q-2 -17 -2 -33q0 -40 14 -74q20 -48 58.5 -82t91.5 -51.5t113 -17.5q57 0 115.5 17.5t106.5 51.5t82 82t42 107l51 350q2 17 2 33q0 39 -14 73q-20 48 -58 80t-91.5 49t-110.5 17t-115.5 -17t-108 -50t-83 -80t-41.5 -105z" />
<glyph unicode="p" horiz-adv-x="1157" d="M-4 -416l213 1460h104l-10 -147q66 88 166 127t199 39q88 0 157.5 -25.5t113.5 -75t61 -118.5q11 -42 11 -89q0 -33 -5 -69l-50 -336q-27 -174 -147.5 -272t-298.5 -98q-100 0 -188.5 35.5t-131.5 117.5l-79 -549h-115zM219 332q-3 -21 -3 -40q0 -38 14 -70 q20 -46 61 -76.5t97 -45t120 -14.5q63 0 119.5 18.5t100.5 52t73.5 84t40.5 111.5l49 332q4 26 4 50q0 95 -59 152q-72 70 -203 70q-61 0 -121.5 -15t-111 -47t-85 -79t-43.5 -108z" />
<glyph unicode="q" horiz-adv-x="1157" d="M80 350l49 336q27 178 147.5 277.5t301.5 99.5q98 0 186 -37t129 -125l29 143h106l-213 -1460h-115l80 549q-66 -82 -164 -117.5t-196 -35.5q-88 0 -157.5 25.5t-114 72.5t-62.5 116q-11 42 -11 90q0 32 5 66zM195 350q-4 -25 -4 -48q0 -91 59 -146q72 -70 201 -70 q63 0 123.5 14.5t109.5 45t83 76.5t44 110l53 375q2 18 2 35q0 40 -13 73q-19 47 -60 79t-96.5 47t-116.5 15q-133 0 -225.5 -69.5t-110.5 -200.5z" />
<glyph unicode="r" horiz-adv-x="731" d="M84 0l152 1044h104l-21 -200q20 43 52 83t71 70.5t85.5 49t97.5 18.5q29 0 58.5 -3t55.5 -11l-34 -121q-20 4 -52 7t-57 3q-59 0 -111.5 -30.5t-93.5 -79t-67.5 -107.5t-34.5 -119l-88 -604h-117z" />
<glyph unicode="s" horiz-adv-x="972" d="M12 115l68 88q57 -59 148 -88t173 -29q125 0 206 52t81 161q0 66 -55 103.5t-189 70.5q-160 39 -228.5 96.5t-68.5 155.5q0 88 34 152.5t90.5 105.5t129 60.5t150.5 19.5q94 0 182 -26.5t150 -69.5l-62 -90q-57 35 -123.5 57t-154.5 22q-57 0 -108.5 -11t-89.5 -36.5 t-60.5 -66.5t-22.5 -101q0 -68 56.5 -103.5t187.5 -64.5q162 -37 228.5 -99t66.5 -155q0 -92 -34 -156.5t-90 -105.5t-130 -59t-156 -18q-47 0 -99 8t-102.5 24.5t-95.5 42t-82 60.5z" />
<glyph unicode="t" horiz-adv-x="790" d="M104 944l15 100h153l41 277h115l-41 -277h313l-14 -100h-313l-101 -686q-2 -17 -2 -32q0 -124 146 -124q74 0 126 12.5t87 24.5l16 -96q-39 -16 -100.5 -33.5t-159.5 -17.5q-127 0 -187 64q-45 47 -45 131q0 29 5 63l100 694h-154z" />
<glyph unicode="u" horiz-adv-x="1196" d="M123 342l102 702h115l-100 -698q-3 -24 -3 -46q1 -92 61 -144q76 -66 208 -66q66 0 124 16.5t104 49t76 81t40 109.5l100 698h115l-102 -702q-12 -86 -53.5 -153.5t-105 -113.5t-143 -70.5t-169.5 -24.5t-164 24.5t-123 70.5q-49 45 -71 113q-15 44 -15 96q0 28 4 58z " />
<glyph unicode="v" horiz-adv-x="1062" d="M113 1044h125l206 -890l465 890h125l-559 -1044h-108z" />
<glyph unicode="w" horiz-adv-x="1503" d="M125 1044h119l92 -886l399 886h101l149 -886l346 886h117l-428 -1046h-111l-145 866l-397 -866h-115z" />
<glyph unicode="x" horiz-adv-x="993" d="M-45 0l440 526l-266 518h135l217 -426l336 426h144l-424 -518l286 -526h-139l-231 434l-359 -434h-139z" />
<glyph unicode="y" horiz-adv-x="1005" d="M-18 -438l8 104q190 0 299 228l33 65l-213 1085h124l173 -929l444 929h125l-569 -1157q-72 -154 -174.5 -239.5t-249.5 -85.5z" />
<glyph unicode="z" horiz-adv-x="1011" d="M8 0l12 80l719 866h-581l14 98h723l-10 -69l-717 -871h631l-15 -104h-776z" />
<glyph unicode="{" horiz-adv-x="630" d="M127 109l102 391l-69 100l100 121l6 342q2 156 91 261.5t235 182.5l33 -82q-117 -66 -185.5 -151.5t-68.5 -206.5l-9 -365l-83 -96l59 -84l-109 -418q-31 -123 13.5 -211t136.5 -153l-57 -84q-129 86 -182.5 192.5t-12.5 260.5z" />
<glyph unicode="|" horiz-adv-x="483" d="M45 -301l246 1694h104l-245 -1694h-105z" />
<glyph unicode="}" horiz-adv-x="641" d="M29 -260q121 74 189.5 161t72.5 203l14 418l80 84l-53 94l100 367q29 98 -7 185t-144 173l51 82q125 -84 184 -189.5t19 -254.5l-99 -342l70 -121l-100 -100l-11 -391q-4 -133 -83 -243t-251 -208z" />
<glyph unicode="~" horiz-adv-x="817" d="M197 1272q43 59 86 92t98 33q35 0 66.5 -15.5t61.5 -34t59.5 -34t62.5 -15.5q29 4 49 21.5t37 46.5l69 -45q-14 -20 -32.5 -42t-40 -40t-47 -29.5t-54.5 -11.5q-43 0 -74.5 15.5t-59 33t-54 32.5t-59.5 15q-37 0 -63 -23.5t-42 -47.5z" />
<glyph unicode="&#xa1;" horiz-adv-x="514" d="M47 -350l162 954h110l-118 -954h-154zM229 899l23 150h158l-23 -150h-158z" />
<glyph unicode="&#xa2;" horiz-adv-x="946" d="M72 342l53 356q12 84 53 152t101.5 116t138.5 73.5t164 25.5h12l82 262l94 -14l-82 -260q66 -14 114 -45t87 -78l-72 -84q-45 53 -103.5 78.5t-142.5 25.5q-61 0 -116.5 -17.5t-100.5 -51t-75.5 -80.5t-38.5 -109l-50 -344q-10 -66 8.5 -114t55.5 -79.5t88 -48t107 -16.5 q80 -2 149.5 20.5t132.5 67.5l39 -88q-78 -59 -159 -83.5t-183 -24.5q-14 0 -27.5 1t-27.5 3l-78 -258l-94 14l78 260q-109 35 -168.5 119t-38.5 221z" />
<glyph unicode="&#xa3;" horiz-adv-x="1187" d="M61 0l13 90q90 2 149.5 26.5t96 67.5t56 103.5t27.5 134.5l11 190h-271l15 101h260l14 252q8 109 60.5 190.5t136.5 137t193.5 84t232.5 28.5l-17 -111q-98 0 -185 -19.5t-152.5 -59t-105.5 -100t-46 -142.5l-12 -260h413l-14 -101h-404q-6 -78 -8 -127t-2 -53 q-6 -47 -14 -92t-25.5 -86t-47 -78t-75.5 -65h603l-17 -111h-885z" />
<glyph unicode="&#xa5;" horiz-adv-x="1146" d="M51 322l12 86h402l22 147l-10 23h-389l12 86h344l-266 729h139l250 -711l461 711h139l-489 -729h328l-13 -86h-372l-15 -23l-22 -147h383l-13 -86h-383l-47 -322h-118l47 322h-402z" />
<glyph unicode="&#xa6;" horiz-adv-x="483" d="M51 -233l99 667h94l-99 -667h-94zM195 741l98 670h94l-98 -670h-94z" />
<glyph unicode="&#xa7;" horiz-adv-x="1148" d="M31 -252l88 49q23 -74 98.5 -120t173.5 -46q61 0 117.5 17.5t98.5 51.5t67.5 83t25.5 113q0 63 -32.5 115t-84 95.5t-113.5 76t-124 61.5q-45 20 -90 45.5t-81 61.5t-58.5 84t-22.5 116q0 59 21.5 110.5t54.5 90.5t72 63.5t73 32.5q-23 35 -31 81t-8 85q0 96 33 171 t91.5 125t136 75.5t168.5 25.5q129 0 212.5 -53t116.5 -146l-84 -53q-25 72 -91 113t-169 41q-61 0 -117.5 -19.5t-99.5 -56.5t-68.5 -87t-25.5 -112q0 -63 29.5 -110t75.5 -84t100.5 -65.5t105.5 -53.5q55 -29 107.5 -60.5t93.5 -69.5t65.5 -85t24.5 -109q0 -35 -8 -78.5 t-33 -86.5t-69 -82t-115 -64q23 -35 35 -79t12 -89q0 -90 -35 -161.5t-93.5 -122t-135 -77t-160.5 -26.5q-129 0 -223.5 57.5t-124.5 155.5zM199 565q0 -92 64.5 -144t176.5 -104q66 -29 133.5 -66.5t118.5 -82.5q35 2 68 20.5t59.5 47t42 64.5t15.5 75q0 88 -62.5 143 t-189.5 117q-66 31 -125.5 64.5t-110.5 80.5q-37 -4 -71.5 -22.5t-60.5 -47t-42 -66.5t-16 -79z" />
<glyph unicode="&#xa8;" horiz-adv-x="706" d="M180 1184l23 145h131l-23 -145h-131zM512 1184l23 145h131l-23 -145h-131z" />
<glyph unicode="&#xa9;" horiz-adv-x="1662" d="M123 621q0 166 66.5 313t178 258t257 174.5t303.5 63.5q129 0 238.5 -49.5t189.5 -134.5t124 -198.5t44 -242.5q0 -166 -66.5 -313.5t-179.5 -256t-258.5 -172t-300.5 -63.5q-131 0 -240.5 48t-188.5 133t-123 198t-44 242zM209 633q0 -113 39 -212t108.5 -174 t165.5 -118t211 -43q137 0 264 56.5t224.5 152.5t156 225t58.5 275q0 113 -39 212t-107.5 173.5t-165 117.5t-209.5 43q-139 0 -266 -56t-225 -152.5t-156.5 -225.5t-58.5 -274zM455 649l14 96q10 68 48 129.5t94.5 107.5t128 73.5t147.5 27.5q92 0 163.5 -31.5 t116.5 -101.5l-63 -71q-35 51 -100.5 79.5t-131.5 28.5q-57 0 -109 -19.5t-94 -53t-70 -77.5t-34 -92l-14 -96q-8 -53 8 -98t50 -77t82 -50t104 -18q66 0 137.5 23.5t120.5 66.5l39 -76q-61 -55 -146.5 -83t-167.5 -28q-80 0 -144.5 25.5t-107.5 72t-62.5 109t-8.5 133.5z " />
<glyph unicode="&#xaa;" horiz-adv-x="712" d="M150 946l4 19q12 88 112.5 135t272.5 57l8 47q10 68 -17.5 92.5t-87.5 24.5q-45 0 -96 -16.5t-80 -32.5l-22 82q35 20 100.5 38.5t130.5 18.5q92 0 137 -47t31 -141l-63 -432h-74l6 75q-43 -41 -96.5 -61.5t-112.5 -20.5q-78 0 -122 38t-31 124zM242 950q-6 -41 20.5 -57 t69.5 -16q27 0 57.5 7t56 20.5t43 31.5t19.5 39l16 100q-117 -6 -194.5 -31.5t-85.5 -78.5z" />
<glyph unicode="&#xab;" horiz-adv-x="952" d="M68 356l366 369l45 -70l-278 -295l192 -290l-65 -70zM395 356l367 369l45 -70l-277 -295l191 -290l-66 -70z" />
<glyph unicode="&#xac;" horiz-adv-x="923" d="M100 586l13 94h667l-43 -295h-92l31 201h-576z" />
<glyph unicode="&#xad;" horiz-adv-x="716" d="M78 522l16 107h484l-17 -107h-483z" />
<glyph unicode="&#xae;" horiz-adv-x="1662" d="M123 618q0 168 66.5 315.5t177 258.5t256 174.5t305.5 63.5q131 0 240.5 -49.5t188.5 -134.5t123 -198.5t44 -242.5q0 -168 -66.5 -314.5t-178.5 -256t-257 -172t-303 -62.5q-131 0 -240.5 48t-188.5 132t-123 196.5t-44 241.5zM209 631q0 -113 39 -212.5t108.5 -173 t165.5 -116.5t211 -43q137 0 265 55.5t224.5 151.5t155 225t58.5 277q0 113 -39 212t-107.5 173.5t-165 117.5t-209.5 43q-139 0 -267 -56t-225 -152.5t-155.5 -225.5t-58.5 -276zM516 315l117 793h315q47 0 85 -17.5t63.5 -48t37 -71.5t5.5 -86l-4 -31q-12 -78 -69.5 -134 t-141.5 -69l151 -336h-112l-146 330h-158l-49 -330h-94zM672 729h209q27 0 54.5 9.5t51 24.5t39.5 37.5t21 51.5l4 31q6 55 -30 96t-97 41h-209z" />
<glyph unicode="&#xaf;" horiz-adv-x="972" d="M229 1303l13 83h680l-13 -83h-680z" />
<glyph unicode="&#xb0;" horiz-adv-x="774" d="M186 1139l9 55q6 47 32.5 87t66.5 68.5t90 46t103 17.5t98.5 -17.5t77 -46t46 -68.5t8.5 -87l-8 -55q-6 -47 -33 -86t-67 -68t-90 -45t-103 -16t-98.5 16t-77 45t-46 68t-8.5 86zM279 1135q-6 -53 37.5 -88t111.5 -35q70 0 123 34.5t61 88.5l9 63q8 53 -35 89t-113 36 q-68 0 -123 -36t-63 -89z" />
<glyph unicode="&#xb1;" horiz-adv-x="1122" d="M18 0l15 94h858l-14 -94h-859zM117 629l14 96h363l51 356h98l-51 -356h369l-15 -96h-368l-56 -381h-98l55 381h-362z" />
<glyph unicode="&#xb2;" horiz-adv-x="778" d="M111 672l12 80q8 55 33.5 98t64.5 77t86 59.5t99 47.5q37 14 76.5 30.5t71.5 38t52.5 50.5t20.5 66q0 45 -34 71.5t-120 26.5q-129 0 -229 -100l-49 65q55 59 136 94t167 35q125 0 178 -49t53 -123q0 -53 -22.5 -94t-59.5 -73t-83 -55.5t-91 -43.5q-43 -18 -84 -39 t-73.5 -45.5t-55 -54t-29.5 -68.5h447l-14 -94h-553z" />
<glyph unicode="&#xb3;" horiz-adv-x="755" d="M129 834l82 22q-2 -55 53 -85t133 -30q68 0 126.5 22.5t66.5 82.5l6 31q4 29 -9.5 50t-37 36.5t-55 22.5t-64.5 7h-133l12 88h123q31 0 63.5 4.5t61.5 16.5t49.5 34.5t24.5 57.5l4 18q4 33 -8.5 54.5t-35 33t-53 15.5t-63.5 4q-37 0 -71.5 -8t-64.5 -23.5t-50.5 -38 t-26.5 -51.5l-72 25q10 43 40 77.5t71 59t91 39t102 14.5q49 0 96 -10t82 -33.5t53 -61.5t10 -94l-2 -14q-6 -41 -23.5 -69.5t-40 -47t-48 -30t-50.5 -17.5q23 -6 47.5 -17t43 -29.5t29.5 -46.5t5 -66l-4 -33q-8 -55 -36.5 -93t-69.5 -60.5t-91.5 -33t-103.5 -10.5 q-51 0 -99 13.5t-85 38t-58.5 59.5t-19.5 76z" />
<glyph unicode="&#xb4;" horiz-adv-x="505" d="M168 1151l233 283l82 -64l-245 -264z" />
<glyph unicode="&#xb6;" horiz-adv-x="1054" d="M168 1040l10 70q16 117 107.5 198t238.5 85h410l-203 -1393h-86l193 1313h-174l-193 -1313h-88l113 770h-62q-135 0 -209.5 70.5t-56.5 199.5z" />
<glyph unicode="&#xb7;" horiz-adv-x="393" d="M115 408l26 188h181l-27 -188h-180z" />
<glyph unicode="&#xb8;" horiz-adv-x="473" d="M-41 -438q18 6 47 18t54.5 30.5t44 42t18.5 54.5q0 37 -18.5 60.5t-41 37t-43 19.5t-26.5 8l63 168h97l-50 -109q2 -2 20.5 -11t39 -28.5t37 -50t16.5 -73.5q0 -90 -67.5 -148.5t-169.5 -85.5z" />
<glyph unicode="&#xb9;" horiz-adv-x="456" d="M158 1292l14 101h219l-102 -707h-101l88 606h-118z" />
<glyph unicode="&#xba;" horiz-adv-x="755" d="M160 1006l26 192q6 45 33 84t65 68.5t86 46t101 16.5q51 0 94 -16.5t73 -46t44 -68.5t8 -84l-28 -194q-6 -45 -32 -84t-65 -68t-87 -45t-99 -16q-53 0 -96 16t-73 45t-43 67.5t-7 86.5zM254 1008q-4 -59 35 -93t104 -34q63 0 113.5 34.5t58.5 88.5l29 196q6 55 -36 88 t-101 33q-63 0 -114.5 -33t-61.5 -88z" />
<glyph unicode="&#xbb;" horiz-adv-x="940" d="M2 70l277 290l-191 295l64 70l260 -369l-367 -356zM332 70l274 290l-188 295l63 70l258 -369l-364 -356z" />
<glyph unicode="&#xbc;" horiz-adv-x="1329" d="M14 0l1037 1393h120l-1032 -1393h-125zM262 1292l14 101h222l-103 -707h-100l88 606h-121zM506 180l10 74l430 473h137l-67 -465h131l-12 -82h-131l-27 -180h-98l26 180h-399zM629 262h289l51 359h-11z" />
<glyph unicode="&#xbd;" horiz-adv-x="1390" d="M16 0l1037 1393h121l-1035 -1393h-123zM264 1292l15 101h221l-103 -707h-100l88 606h-121zM623 -4l10 80q8 55 33.5 98t64.5 77t86 59.5t98 47.5q37 14 77 31t72 38.5t52.5 50t20.5 65.5q0 45 -35 71.5t-119 26.5q-129 0 -229 -100l-49 65q55 59 135 94t166 35 q127 0 180 -49t53 -123q0 -53 -22.5 -94t-59.5 -72.5t-83 -55.5t-91 -44q-43 -18 -84 -38.5t-73.5 -45.5t-55 -54.5t-31.5 -68.5h447l-12 -94h-551z" />
<glyph unicode="&#xbe;" horiz-adv-x="1488" d="M121 834l82 22q-2 -55 53 -85t133 -30q68 0 126 22.5t67 82.5l6 31q4 29 -9.5 50t-37 36.5t-55 22.5t-64.5 7h-133l12 88h123q31 0 63.5 4.5t61.5 16.5t49 34.5t25 57.5l4 18q4 33 -8.5 54.5t-35 33t-53 15.5t-63.5 4q-37 0 -72 -8t-64.5 -23.5t-50 -38t-26.5 -51.5 l-72 25q10 43 40 77.5t71 59t91 39t101 14.5q49 0 96.5 -10t82 -33.5t53 -61.5t10.5 -94l-2 -14q-6 -41 -23.5 -69.5t-40 -47t-48 -30t-50.5 -17.5q23 -6 47.5 -17t43 -29.5t29.5 -46.5t5 -66l-4 -33q-8 -55 -37 -93t-69.5 -60.5t-91 -33t-103.5 -10.5q-51 0 -99 13.5 t-85 38t-58.5 59.5t-19.5 76zM203 0l1038 1393h123l-1034 -1393h-127zM668 178l10 74l432 475h137l-65 -465h131l-13 -84h-131l-26 -178h-101l27 178h-401zM791 262h290l52 356h-13z" />
<glyph unicode="&#xbf;" horiz-adv-x="813" d="M-18 -106l20 133q6 39 23.5 71.5t44 60t58.5 53.5t65 50q61 47 110 98.5t62 128.5l22 152h117l-27 -172q-10 -78 -67.5 -138.5t-130.5 -115.5q-57 -45 -104.5 -90t-55.5 -98l-19 -125q-10 -61 6.5 -99.5t46 -57.5t65.5 -25.5t65 -6.5q70 0 140.5 37t121.5 78l39 -86 q-29 -23 -65 -48.5t-77 -46t-88 -33.5t-96 -13q-162 0 -229.5 75.5t-46.5 217.5zM377 856l29 193h188l-29 -193h-188z" />
<glyph unicode="&#xc0;" horiz-adv-x="1288" d="M-27 0l711 1411h119l282 -1411h-124l-87 457h-548l-226 -457h-127zM373 565h483l-139 682zM575 1788l109 72l141 -297l-82 -52z" />
<glyph unicode="&#xc1;" horiz-adv-x="1288" d="M-27 0l711 1411h119l282 -1411h-124l-87 457h-548l-226 -457h-127zM373 565h483l-139 682zM678 1552l233 283l82 -63l-245 -265z" />
<glyph unicode="&#xc2;" horiz-adv-x="1288" d="M-27 0l711 1411h119l282 -1411h-124l-87 457h-548l-226 -457h-127zM373 565h483l-139 682zM524 1569l269 172l221 -172l-62 -68l-176 129l-215 -127z" />
<glyph unicode="&#xc3;" horiz-adv-x="1288" d="M-27 0l711 1411h119l282 -1411h-124l-87 457h-548l-226 -457h-127zM373 565h483l-139 682zM477 1575q43 59 86 92t99 33q35 0 66.5 -15.5t61 -34t59.5 -33.5t62 -15q29 0 49.5 19t36.5 48l70 -45q-14 -20 -32.5 -41.5t-40 -40t-47 -30t-54.5 -11.5q-43 0 -75 15.5 t-59.5 33t-54 32.5t-59.5 15q-37 0 -62.5 -23.5t-41.5 -47.5z" />
<glyph unicode="&#xc4;" horiz-adv-x="1288" d="M-27 0l711 1411h119l282 -1411h-124l-87 457h-548l-226 -457h-127zM373 565h483l-139 682zM522 1546l23 146h131l-23 -146h-131zM854 1546l23 146h131l-23 -146h-131z" />
<glyph unicode="&#xc5;" horiz-adv-x="1288" d="M-27 0l711 1411h119l282 -1411h-124l-87 457h-548l-226 -457h-127zM373 565h483l-139 682zM625 1642q0 78 55 128.5t125 50.5q59 0 97 -39t38 -99q0 -37 -15.5 -69.5t-41 -57t-58 -39t-67.5 -14.5q-57 0 -95 41t-38 98zM698 1649q0 -31 20.5 -52.5t51.5 -21.5 q35 0 65.5 26.5t30.5 67.5q0 31 -20.5 54.5t-48.5 23.5q-37 0 -68 -29.5t-31 -68.5z" />
<glyph unicode="&#xc6;" horiz-adv-x="1771" d="M-51 0l1034 1393h705l-17 -113h-541l-73 -506h448l-14 -106h-449l-81 -557h589l-16 -111h-707l60 406h-498l-305 -406h-135zM459 512h442l111 754z" />
<glyph unicode="&#xc7;" horiz-adv-x="1187" d="M104 428l80 537q14 102 65.5 185t127.5 141.5t170 90t196 31.5q137 0 240.5 -40t167.5 -122l-78 -90q-53 63 -141 100t-205 37q-78 0 -149.5 -23.5t-129 -67.5t-96.5 -106.5t-51 -139.5l-76 -529q-12 -86 7.5 -149.5t63.5 -105.5t110.5 -63.5t150.5 -21.5q109 0 205 24.5 t174 84.5l47 -88q-96 -74 -202.5 -102.5t-239.5 -30.5l-39 -89q2 0 20.5 -9t39 -28.5t36.5 -50t16 -73.5q0 -92 -67.5 -150.5t-169.5 -85.5l-25 70q20 6 48 18t53.5 29.5t44 42t18.5 55.5q0 37 -17.5 59.5t-40 37t-43 19.5t-26.5 7l57 154q-90 10 -159.5 43.5t-114.5 90 t-63.5 133.5t-4.5 175z" />
<glyph unicode="&#xc8;" horiz-adv-x="1128" d="M94 0l203 1393h739l-16 -113h-623l-73 -514h524l-17 -109h-524l-80 -546h674l-16 -111h-791zM518 1769l109 72l141 -297l-82 -51z" />
<glyph unicode="&#xc9;" horiz-adv-x="1128" d="M94 0l203 1393h739l-16 -113h-623l-73 -514h524l-17 -109h-524l-80 -546h674l-16 -111h-791zM637 1536l233 283l82 -64l-245 -264z" />
<glyph unicode="&#xca;" horiz-adv-x="1128" d="M94 0l203 1393h739l-16 -113h-623l-73 -514h524l-17 -109h-524l-80 -546h674l-16 -111h-791zM461 1550l268 172l221 -172l-61 -67l-176 129l-215 -127z" />
<glyph unicode="&#xcb;" horiz-adv-x="1128" d="M94 0l203 1393h739l-16 -113h-623l-73 -514h524l-17 -109h-524l-80 -546h674l-16 -111h-791zM465 1526l22 145h131l-22 -145h-131zM797 1526l22 145h131l-22 -145h-131z" />
<glyph unicode="&#xcc;" horiz-adv-x="587" d="M131 0l203 1393h115l-203 -1393h-115zM244 1769l108 72l142 -297l-82 -51z" />
<glyph unicode="&#xcd;" horiz-adv-x="587" d="M131 0l203 1393h115l-203 -1393h-115zM340 1534l233 283l82 -64l-245 -264z" />
<glyph unicode="&#xce;" horiz-adv-x="587" d="M131 0l203 1393h115l-203 -1393h-115zM174 1550l268 172l222 -172l-62 -67l-176 129l-215 -127z" />
<glyph unicode="&#xcf;" horiz-adv-x="587" d="M131 0l203 1393h115l-203 -1393h-115zM178 1526l23 145h131l-23 -145h-131zM510 1526l22 145h132l-23 -145h-131z" />
<glyph unicode="&#xd0;" horiz-adv-x="1339" d="M4 651l16 105h187l92 637h430q111 0 202 -30t152.5 -88t89 -143t11.5 -194l-72 -489q-16 -113 -68.5 -197t-131 -140.5t-179 -84t-213.5 -27.5h-424l94 651h-186zM227 111h310q88 0 166.5 20.5t139 62.5t101.5 106.5t53 152.5l72 481q12 84 -10.5 148.5t-71.5 108.5 t-119.5 66.5t-154.5 22.5h-314l-75 -524h327l-16 -105h-330z" />
<glyph unicode="&#xd1;" horiz-adv-x="1443" d="M92 0l203 1393h131l600 -1213l176 1213h113l-203 -1393h-127l-602 1217l-178 -1217h-113zM547 1556q43 59 86 92t98 33q35 0 66.5 -15t61.5 -33.5t59.5 -34t62.5 -15.5q29 0 49.5 19.5t36.5 48.5l70 -45q-14 -20 -33 -42t-40.5 -40.5t-47 -29.5t-53.5 -11q-43 0 -75 15 t-59.5 32.5t-54 33t-59.5 15.5q-37 0 -62.5 -23.5t-42.5 -48.5z" />
<glyph unicode="&#xd2;" d="M113 424l80 541q14 102 63 185t123 141.5t168 90t198 31.5h35q109 0 196 -31.5t145.5 -90t84 -141.5t11.5 -185l-80 -541q-16 -104 -64.5 -187t-122 -140.5t-171 -87t-208.5 -29.5h-32q-109 0 -195 29.5t-142.5 86t-81 139t-7.5 189.5zM229 428q-23 -166 66.5 -252 t257.5 -86h33q86 0 160.5 21.5t131 64.5t93.5 105.5t49 146.5l78 533q23 160 -70.5 249.5t-263.5 89.5h-35q-80 0 -151.5 -23.5t-128 -67.5t-93.5 -106.5t-49 -141.5zM596 1790l109 72l141 -297l-82 -52z" />
<glyph unicode="&#xd3;" d="M113 424l80 541q14 102 63 185t123 141.5t168 90t198 31.5h35q109 0 196 -31.5t145.5 -90t84 -141.5t11.5 -185l-80 -541q-16 -104 -64.5 -187t-122 -140.5t-171 -87t-208.5 -29.5h-32q-109 0 -195 29.5t-142.5 86t-81 139t-7.5 189.5zM229 428q-23 -166 66.5 -252 t257.5 -86h33q86 0 160.5 21.5t131 64.5t93.5 105.5t49 146.5l78 533q23 160 -70.5 249.5t-263.5 89.5h-35q-80 0 -151.5 -23.5t-128 -67.5t-93.5 -106.5t-49 -141.5zM713 1554l233 283l82 -63l-246 -265z" />
<glyph unicode="&#xd4;" d="M113 424l80 541q14 102 63 185t123 141.5t168 90t198 31.5h35q109 0 196 -31.5t145.5 -90t84 -141.5t11.5 -185l-80 -541q-16 -104 -64.5 -187t-122 -140.5t-171 -87t-208.5 -29.5h-32q-109 0 -195 29.5t-142.5 86t-81 139t-7.5 189.5zM229 428q-23 -166 66.5 -252 t257.5 -86h33q86 0 160.5 21.5t131 64.5t93.5 105.5t49 146.5l78 533q23 160 -70.5 249.5t-263.5 89.5h-35q-80 0 -151.5 -23.5t-128 -67.5t-93.5 -106.5t-49 -141.5zM541 1571l268 172l221 -172l-61 -68l-176 129l-215 -127z" />
<glyph unicode="&#xd5;" d="M113 424l80 541q14 102 63 185t123 141.5t168 90t198 31.5h35q109 0 196 -31.5t145.5 -90t84 -141.5t11.5 -185l-80 -541q-16 -104 -64.5 -187t-122 -140.5t-171 -87t-208.5 -29.5h-32q-109 0 -195 29.5t-142.5 86t-81 139t-7.5 189.5zM229 428q-23 -166 66.5 -252 t257.5 -86h33q86 0 160.5 21.5t131 64.5t93.5 105.5t49 146.5l78 533q23 160 -70.5 249.5t-263.5 89.5h-35q-80 0 -151.5 -23.5t-128 -67.5t-93.5 -106.5t-49 -141.5zM487 1577q43 59 86 92t99 33q35 0 66.5 -15.5t61 -34t59.5 -33.5t63 -15q29 4 49 21t37 46l69 -45 q-14 -20 -32.5 -41.5t-40 -40t-47 -30t-54.5 -11.5q-43 0 -74.5 15.5t-59.5 33t-54.5 32.5t-59.5 15q-37 0 -62.5 -23.5t-41.5 -47.5z" />
<glyph unicode="&#xd6;" d="M113 424l80 541q14 102 63 185t123 141.5t168 90t198 31.5h35q109 0 196 -31.5t145.5 -90t84 -141.5t11.5 -185l-80 -541q-16 -104 -64.5 -187t-122 -140.5t-171 -87t-208.5 -29.5h-32q-109 0 -195 29.5t-142.5 86t-81 139t-7.5 189.5zM229 428q-23 -166 66.5 -252 t257.5 -86h33q86 0 160.5 21.5t131 64.5t93.5 105.5t49 146.5l78 533q23 160 -70.5 249.5t-263.5 89.5h-35q-80 0 -151.5 -23.5t-128 -67.5t-93.5 -106.5t-49 -141.5zM545 1548l22 146h131l-22 -146h-131zM877 1548l22 146h131l-22 -146h-131z" />
<glyph unicode="&#xd7;" horiz-adv-x="1155" d="M16 0l463 518l-293 486h115l248 -404l369 404h114l-434 -486l313 -518h-123l-264 436l-389 -436h-119z" />
<glyph unicode="&#xd8;" d="M115 424l80 541q14 102 62 185t122 141.5t168 90t198 31.5h35q63 0 115.5 -11t101.5 -30l105 187h94l-127 -226q86 -57 127 -150t23 -218l-80 -541q-16 -104 -64.5 -187t-123 -140.5t-171 -87t-209.5 -29.5h-32q-59 0 -114.5 9t-100.5 27l-97 -170h-98l119 209 q-82 55 -117 148.5t-16 220.5zM229 428q-12 -90 10.5 -155.5t71.5 -108.5l625 1104q-35 16 -79 24t-93 8h-35q-80 0 -151.5 -23.5t-128 -67.5t-93.5 -106.5t-49 -141.5zM383 121q70 -31 170 -31h33q86 0 160.5 21.5t132 64.5t94.5 105.5t49 146.5l78 533q14 86 -11.5 153.5 t-80.5 112.5z" />
<glyph unicode="&#xd9;" horiz-adv-x="1417" d="M152 426l141 967h115l-140 -963q-12 -88 9.5 -151.5t68.5 -105.5t114.5 -62.5t147.5 -20.5q76 0 149.5 22.5t134 65.5t101.5 106.5t54 145.5l139 963h117l-142 -967q-16 -111 -67.5 -195t-127 -140t-172 -83.5t-200.5 -27.5t-193.5 26.5t-150 81.5t-88 139t-10.5 199z M633 1769l108 72l142 -297l-82 -51z" />
<glyph unicode="&#xda;" horiz-adv-x="1417" d="M152 426l141 967h115l-140 -963q-12 -88 9.5 -151.5t68.5 -105.5t114.5 -62.5t147.5 -20.5q76 0 149.5 22.5t134 65.5t101.5 106.5t54 145.5l139 963h117l-142 -967q-16 -111 -67.5 -195t-127 -140t-172 -83.5t-200.5 -27.5t-193.5 26.5t-150 81.5t-88 139t-10.5 199z M752 1534l233 283l82 -64l-246 -264z" />
<glyph unicode="&#xdb;" horiz-adv-x="1417" d="M152 426l141 967h115l-140 -963q-12 -88 9.5 -151.5t68.5 -105.5t114.5 -62.5t147.5 -20.5q76 0 149.5 22.5t134 65.5t101.5 106.5t54 145.5l139 963h117l-142 -967q-16 -111 -67.5 -195t-127 -140t-172 -83.5t-200.5 -27.5t-193.5 26.5t-150 81.5t-88 139t-10.5 199z M580 1550l268 172l221 -172l-61 -67l-177 129l-215 -127z" />
<glyph unicode="&#xdc;" horiz-adv-x="1417" d="M152 426l141 967h115l-140 -963q-12 -88 9.5 -151.5t68.5 -105.5t114.5 -62.5t147.5 -20.5q76 0 149.5 22.5t134 65.5t101.5 106.5t54 145.5l139 963h117l-142 -967q-16 -111 -67.5 -195t-127 -140t-172 -83.5t-200.5 -27.5t-193.5 26.5t-150 81.5t-88 139t-10.5 199z M582 1526l22 145h131l-22 -145h-131zM913 1526l23 145h131l-23 -145h-131z" />
<glyph unicode="&#xdd;" horiz-adv-x="1179" d="M188 1393h136l249 -713l465 713h138l-562 -838l-82 -555h-116l82 555zM641 1534l233 283l82 -64l-245 -264z" />
<glyph unicode="&#xde;" horiz-adv-x="1114" d="M96 -2l203 1395h117l-41 -281h356q80 0 142.5 -27.5t102.5 -75.5t55.5 -113t4.5 -136l-6 -41q-10 -70 -44 -129.5t-86 -102.5t-121.5 -67.5t-151.5 -24.5h-357l-57 -397h-117zM287 506h352q117 0 190.5 60.5t85.5 152.5l7 41q6 43 -4.5 87t-36 77.5t-68.5 55t-102 21.5 h-353z" />
<glyph unicode="&#xe0;" horiz-adv-x="1067" d="M45 258l6 35q14 102 94 163.5t188.5 95.5t225.5 45t207 15l18 127q16 106 -28.5 161.5t-173.5 55.5q-41 0 -91.5 -8t-98.5 -20.5t-89 -26.5t-65 -27l-23 93q31 18 77 35.5t100 32t109.5 22.5t104.5 8q88 0 149.5 -23.5t97.5 -65.5t47 -101.5t1 -131.5l-108 -743h-103 l17 162q-18 -27 -53.5 -57.5t-84.5 -57.5t-113.5 -45t-144.5 -18q-141 0 -212.5 69.5t-53.5 204.5zM166 266q-14 -92 33 -135t149 -43q72 0 137.5 19.5t115.5 51t82 72.5t38 82l31 205q-94 -4 -192.5 -14t-182.5 -35t-141.5 -69t-67.5 -113zM442 1466l109 72l141 -297 l-82 -51z" />
<glyph unicode="&#xe1;" horiz-adv-x="1067" d="M45 258l6 35q14 102 94 163.5t188.5 95.5t225.5 45t207 15l18 127q16 106 -28.5 161.5t-173.5 55.5q-41 0 -91.5 -8t-98.5 -20.5t-89 -26.5t-65 -27l-23 93q31 18 77 35.5t100 32t109.5 22.5t104.5 8q88 0 149.5 -23.5t97.5 -65.5t47 -101.5t1 -131.5l-108 -743h-103 l17 162q-18 -27 -53.5 -57.5t-84.5 -57.5t-113.5 -45t-144.5 -18q-141 0 -212.5 69.5t-53.5 204.5zM166 266q-14 -92 33 -135t149 -43q72 0 137.5 19.5t115.5 51t82 72.5t38 82l31 205q-94 -4 -192.5 -14t-182.5 -35t-141.5 -69t-67.5 -113zM555 1231l233 282l82 -63 l-245 -264z" />
<glyph unicode="&#xe2;" horiz-adv-x="1067" d="M45 258l6 35q14 102 94 163.5t188.5 95.5t225.5 45t207 15l18 127q16 106 -28.5 161.5t-173.5 55.5q-41 0 -91.5 -8t-98.5 -20.5t-89 -26.5t-65 -27l-23 93q31 18 77 35.5t100 32t109.5 22.5t104.5 8q88 0 149.5 -23.5t97.5 -65.5t47 -101.5t1 -131.5l-108 -743h-103 l17 162q-18 -27 -53.5 -57.5t-84.5 -57.5t-113.5 -45t-144.5 -18q-141 0 -212.5 69.5t-53.5 204.5zM166 266q-14 -92 33 -135t149 -43q72 0 137.5 19.5t115.5 51t82 72.5t38 82l31 205q-94 -4 -192.5 -14t-182.5 -35t-141.5 -69t-67.5 -113zM389 1247l268 172l222 -172 l-62 -67l-176 129l-215 -127z" />
<glyph unicode="&#xe3;" horiz-adv-x="1067" d="M45 258l6 35q14 102 94 163.5t188.5 95.5t225.5 45t207 15l18 127q16 106 -28.5 161.5t-173.5 55.5q-41 0 -91.5 -8t-98.5 -20.5t-89 -26.5t-65 -27l-23 93q31 18 77 35.5t100 32t109.5 22.5t104.5 8q88 0 149.5 -23.5t97.5 -65.5t47 -101.5t1 -131.5l-108 -743h-103 l17 162q-18 -27 -53.5 -57.5t-84.5 -57.5t-113.5 -45t-144.5 -18q-141 0 -212.5 69.5t-53.5 204.5zM166 266q-14 -92 33 -135t149 -43q72 0 137.5 19.5t115.5 51t82 72.5t38 82l31 205q-94 -4 -192.5 -14t-182.5 -35t-141.5 -69t-67.5 -113zM342 1253q43 59 86 92t98 33 q35 0 67 -15t61.5 -33.5t59 -34t62.5 -15.5q29 4 49.5 21.5t36.5 46.5l70 -45q-14 -20 -32.5 -42t-40 -40.5t-47.5 -29.5t-54 -11q-43 0 -75 15t-59.5 32.5t-54 33t-59.5 15.5q-37 0 -62.5 -23.5t-41.5 -48.5z" />
<glyph unicode="&#xe4;" horiz-adv-x="1067" d="M45 258l6 35q14 102 94 163.5t188.5 95.5t225.5 45t207 15l18 127q16 106 -28.5 161.5t-173.5 55.5q-41 0 -91.5 -8t-98.5 -20.5t-89 -26.5t-65 -27l-23 93q31 18 77 35.5t100 32t109.5 22.5t104.5 8q88 0 149.5 -23.5t97.5 -65.5t47 -101.5t1 -131.5l-108 -743h-103 l17 162q-18 -27 -53.5 -57.5t-84.5 -57.5t-113.5 -45t-144.5 -18q-141 0 -212.5 69.5t-53.5 204.5zM166 266q-14 -92 33 -135t149 -43q72 0 137.5 19.5t115.5 51t82 72.5t38 82l31 205q-94 -4 -192.5 -14t-182.5 -35t-141.5 -69t-67.5 -113zM387 1223l23 145h131l-23 -145 h-131zM719 1223l22 145h131l-22 -145h-131z" />
<glyph unicode="&#xe5;" horiz-adv-x="1067" d="M45 258l6 35q14 102 94 163.5t188.5 95.5t225.5 45t207 15l18 127q16 106 -28.5 161.5t-173.5 55.5q-41 0 -91.5 -8t-98.5 -20.5t-89 -26.5t-65 -27l-23 93q31 18 77 35.5t100 32t109.5 22.5t104.5 8q88 0 149.5 -23.5t97.5 -65.5t47 -101.5t1 -131.5l-108 -743h-103 l17 162q-18 -27 -53.5 -57.5t-84.5 -57.5t-113.5 -45t-144.5 -18q-141 0 -212.5 69.5t-53.5 204.5zM166 266q-14 -92 33 -135t149 -43q72 0 137.5 19.5t115.5 51t82 72.5t38 82l31 205q-94 -4 -192.5 -14t-182.5 -35t-141.5 -69t-67.5 -113zM489 1319q0 78 55.5 128 t125.5 50q59 0 97 -39t38 -98q0 -37 -15.5 -70t-41 -57.5t-58 -38.5t-67.5 -14q-57 0 -95.5 41t-38.5 98zM563 1325q0 -31 20.5 -52.5t51.5 -21.5q35 0 65.5 27t30.5 68q0 31 -20.5 54t-48.5 23q-37 0 -68 -29.5t-31 -68.5z" />
<glyph unicode="&#xe6;" horiz-adv-x="1757" d="M63 289l29 207l684 86l23 147q35 236 -215 236q-47 0 -98.5 -10.5t-100.5 -26t-90 -31.5t-66 -29l-20 95q31 18 76 38.5t97 36t109.5 25.5t110.5 10q119 0 191.5 -47t95.5 -129q59 78 162.5 128t226.5 50q174 0 268 -91t72 -257l-23 -152l-708 -75l-25 -158 q-10 -63 11.5 -110.5t64.5 -78t103 -45t130 -14.5q57 0 108.5 10.5t93.5 23.5t73 29.5t49 28.5l39 -82q-80 -59 -184.5 -88.5t-198.5 -29.5q-135 0 -237.5 46t-143.5 144q-37 -55 -85 -92t-100.5 -58.5t-106.5 -30.5t-103 -9q-74 0 -135.5 20.5t-104.5 59t-62.5 95 t-9.5 128.5zM178 291q-8 -49 7.5 -87t47 -63.5t76.5 -39t97 -13.5q55 0 110 12.5t102.5 39t79 65.5t39.5 94l29 190l-569 -69zM899 594l600 61l12 82q16 117 -56 174.5t-195 57.5q-61 0 -120 -19.5t-106 -53.5t-77.5 -77t-36.5 -92z" />
<glyph unicode="&#xe7;" horiz-adv-x="960" d="M74 342l53 356q12 84 53 152t101.5 116t138.5 73.5t164 25.5q111 0 182.5 -36t124.5 -99l-72 -84q-45 53 -103.5 78.5t-142.5 25.5q-61 0 -116.5 -17.5t-100.5 -51t-75.5 -80.5t-38.5 -109l-49 -344q-10 -66 8 -114t55 -79.5t88 -48t107 -16.5q158 0 282 88l39 -88 q-78 -59 -159 -83.5t-183 -24.5l-39 -91q2 0 20.5 -9t39 -28.5t37 -50t16.5 -73.5q0 -92 -67.5 -150.5t-170.5 -85.5l-24 70q20 6 47.5 18t53.5 29.5t44.5 42t18.5 55.5q0 37 -17.5 59.5t-41 37t-44 19.5t-27.5 7l60 158q-66 12 -118 39.5t-88 71.5t-51.5 103.5t-4.5 137.5z " />
<glyph unicode="&#xe8;" horiz-adv-x="1062" d="M72 344l53 373q10 74 54 137.5t108.5 109.5t144.5 72.5t160 26.5q82 0 150.5 -25.5t117.5 -71.5t71.5 -109.5t12.5 -139.5l-29 -203h-704l-25 -168q-10 -63 11.5 -110.5t62.5 -79t97.5 -47t117.5 -15.5q104 0 187 23.5t137 60.5l35 -86q-82 -57 -180.5 -81.5 t-196.5 -24.5q-84 0 -159 22.5t-130 67.5t-82 111.5t-14 156.5zM225 614h592l14 103q8 51 -9 95t-52 77t-85.5 50t-109.5 17t-115.5 -18t-102.5 -50t-77.5 -76t-39.5 -95zM424 1466l108 72l142 -297l-82 -51z" />
<glyph unicode="&#xe9;" horiz-adv-x="1062" d="M72 344l53 373q10 74 54 137.5t108.5 109.5t144.5 72.5t160 26.5q82 0 150.5 -25.5t117.5 -71.5t71.5 -109.5t12.5 -139.5l-29 -203h-704l-25 -168q-10 -63 11.5 -110.5t62.5 -79t97.5 -47t117.5 -15.5q104 0 187 23.5t137 60.5l35 -86q-82 -57 -180.5 -81.5 t-196.5 -24.5q-84 0 -159 22.5t-130 67.5t-82 111.5t-14 156.5zM225 614h592l14 103q8 51 -9 95t-52 77t-85.5 50t-109.5 17t-115.5 -18t-102.5 -50t-77.5 -76t-39.5 -95zM541 1231l233 282l82 -63l-246 -264z" />
<glyph unicode="&#xea;" horiz-adv-x="1062" d="M72 344l53 373q10 74 54 137.5t108.5 109.5t144.5 72.5t160 26.5q82 0 150.5 -25.5t117.5 -71.5t71.5 -109.5t12.5 -139.5l-29 -203h-704l-25 -168q-10 -63 11.5 -110.5t62.5 -79t97.5 -47t117.5 -15.5q104 0 187 23.5t137 60.5l35 -86q-82 -57 -180.5 -81.5 t-196.5 -24.5q-84 0 -159 22.5t-130 67.5t-82 111.5t-14 156.5zM225 614h592l14 103q8 51 -9 95t-52 77t-85.5 50t-109.5 17t-115.5 -18t-102.5 -50t-77.5 -76t-39.5 -95zM371 1247l268 172l221 -172l-61 -67l-176 129l-215 -127z" />
<glyph unicode="&#xeb;" horiz-adv-x="1062" d="M72 344l53 373q10 74 54 137.5t108.5 109.5t144.5 72.5t160 26.5q82 0 150.5 -25.5t117.5 -71.5t71.5 -109.5t12.5 -139.5l-29 -203h-704l-25 -168q-10 -63 11.5 -110.5t62.5 -79t97.5 -47t117.5 -15.5q104 0 187 23.5t137 60.5l35 -86q-82 -57 -180.5 -81.5 t-196.5 -24.5q-84 0 -159 22.5t-130 67.5t-82 111.5t-14 156.5zM225 614h592l14 103q8 51 -9 95t-52 77t-85.5 50t-109.5 17t-115.5 -18t-102.5 -50t-77.5 -76t-39.5 -95zM371 1223l22 145h131l-22 -145h-131zM702 1223l23 145h131l-22 -145h-132z" />
<glyph unicode="&#xec;" horiz-adv-x="526" d="M106 0l154 1047h115l-154 -1047h-115zM168 1454l108 72l142 -297l-82 -51z" />
<glyph unicode="&#xed;" horiz-adv-x="526" d="M106 0l154 1047h115l-154 -1047h-115zM279 1219l233 282l82 -63l-246 -264z" />
<glyph unicode="&#xee;" horiz-adv-x="526" d="M106 0l154 1047h115l-154 -1047h-115zM111 1235l268 172l221 -172l-61 -68l-177 129l-215 -127z" />
<glyph unicode="&#xef;" horiz-adv-x="526" d="M106 0l154 1047h115l-154 -1047h-115zM117 1210l22 146h131l-22 -146h-131zM449 1210l22 146h131l-22 -146h-131z" />
<glyph unicode="&#xf0;" horiz-adv-x="1120" d="M74 336l45 315q12 76 51 141.5t99.5 113.5t136 76t161.5 28q90 0 167 -29t126 -100q-8 100 -47 188t-98 166l-305 -131l-21 74l266 114q-57 57 -123.5 94t-146.5 54l53 100q201 -57 340 -199l269 117l24 -74l-242 -106q90 -113 127 -264.5t9 -343.5l-50 -334 q-10 -76 -54 -140.5t-109.5 -112.5t-147.5 -75.5t-170 -27.5q-86 0 -157.5 26.5t-121 74.5t-72 112.5t-9.5 142.5zM193 344q-8 -55 7 -101t50 -80t86 -53.5t113 -19.5q61 0 121.5 19.5t108.5 54.5t80 80t40 98l45 301q8 55 -11.5 101.5t-58.5 80t-92 53t-115 19.5 q-61 0 -117.5 -19.5t-101.5 -53t-74.5 -80t-37.5 -99.5z" />
<glyph unicode="&#xf1;" horiz-adv-x="1212" d="M78 0l151 1044h105l-25 -204q78 104 184.5 163.5t229.5 59.5q170 0 252 -93t57 -261l-102 -709h-117l102 700q16 123 -43 188.5t-184 65.5q-61 0 -126.5 -22.5t-123 -62.5t-98.5 -93t-49 -112l-96 -664h-117zM393 1253q43 59 86 92t99 33q35 0 66.5 -15t61 -33.5 t59.5 -34t62 -15.5q29 0 49.5 19.5t36.5 48.5l70 -45q-14 -20 -32.5 -42t-40 -40.5t-47 -29.5t-54.5 -11q-43 0 -75 15t-59.5 32.5t-54 33t-59.5 15.5q-37 0 -62.5 -23.5t-41.5 -48.5z" />
<glyph unicode="&#xf2;" horiz-adv-x="1120" d="M74 346l51 359q12 82 57 148.5t111.5 112.5t146.5 71.5t164 25.5t158 -25.5t125 -72.5t75.5 -113t12.5 -147l-51 -359q-12 -84 -57.5 -150.5t-112 -113.5t-146.5 -72.5t-162 -25.5t-155.5 25.5t-125.5 72.5t-78 113.5t-13 150.5zM188 350q-8 -59 11.5 -107t58.5 -82 t92 -51.5t113 -17.5q57 0 115.5 17.5t106.5 51.5t82 82t42 107l51 350q8 59 -11.5 106.5t-58 79.5t-92 49t-110.5 17t-115.5 -17t-108 -50t-83 -80t-41.5 -105zM438 1466l109 72l141 -297l-82 -51z" />
<glyph unicode="&#xf3;" horiz-adv-x="1120" d="M74 346l51 359q12 82 57 148.5t111.5 112.5t146.5 71.5t164 25.5t158 -25.5t125 -72.5t75.5 -113t12.5 -147l-51 -359q-12 -84 -57.5 -150.5t-112 -113.5t-146.5 -72.5t-162 -25.5t-155.5 25.5t-125.5 72.5t-78 113.5t-13 150.5zM188 350q-8 -59 11.5 -107t58.5 -82 t92 -51.5t113 -17.5q57 0 115.5 17.5t106.5 51.5t82 82t42 107l51 350q8 59 -11.5 106.5t-58 79.5t-92 49t-110.5 17t-115.5 -17t-108 -50t-83 -80t-41.5 -105zM559 1231l234 282l81 -63l-245 -264z" />
<glyph unicode="&#xf4;" horiz-adv-x="1120" d="M74 346l51 359q12 82 57 148.5t111.5 112.5t146.5 71.5t164 25.5t158 -25.5t125 -72.5t75.5 -113t12.5 -147l-51 -359q-12 -84 -57.5 -150.5t-112 -113.5t-146.5 -72.5t-162 -25.5t-155.5 25.5t-125.5 72.5t-78 113.5t-13 150.5zM188 350q-8 -59 11.5 -107t58.5 -82 t92 -51.5t113 -17.5q57 0 115.5 17.5t106.5 51.5t82 82t42 107l51 350q8 59 -11.5 106.5t-58 79.5t-92 49t-110.5 17t-115.5 -17t-108 -50t-83 -80t-41.5 -105zM381 1247l268 172l221 -172l-61 -67l-176 129l-215 -127z" />
<glyph unicode="&#xf5;" horiz-adv-x="1120" d="M72 346l51 359q12 82 57 148.5t111.5 112.5t146.5 71.5t164 25.5t158 -25.5t125 -72.5t75.5 -113t12.5 -147l-51 -359q-12 -84 -57.5 -150.5t-112 -113.5t-146.5 -72.5t-162 -25.5t-155.5 25.5t-125.5 72.5t-78 113.5t-13 150.5zM186 350q-8 -59 11.5 -107t58.5 -82 t92 -51.5t113 -17.5q57 0 115.5 17.5t106.5 51.5t82 82t42 107l51 350q8 59 -11.5 106.5t-58 79.5t-92 49t-110.5 17t-115.5 -17t-108 -50t-83 -80t-41.5 -105zM336 1255q43 59 86 92t98 33q35 0 66.5 -15t61.5 -33.5t59.5 -34t62.5 -15.5q29 0 49.5 19.5t36.5 48.5l70 -45 q-14 -20 -33 -42t-40.5 -40.5t-47 -29.5t-53.5 -11q-43 0 -75 15t-59.5 32.5t-54 33t-59.5 15.5q-37 0 -62.5 -23.5t-42.5 -48.5z" />
<glyph unicode="&#xf6;" horiz-adv-x="1120" d="M74 346l51 359q12 82 57 148.5t111.5 112.5t146.5 71.5t164 25.5t158 -25.5t125 -72.5t75.5 -113t12.5 -147l-51 -359q-12 -84 -57.5 -150.5t-112 -113.5t-146.5 -72.5t-162 -25.5t-155.5 25.5t-125.5 72.5t-78 113.5t-13 150.5zM188 350q-8 -59 11.5 -107t58.5 -82 t92 -51.5t113 -17.5q57 0 115.5 17.5t106.5 51.5t82 82t42 107l51 350q8 59 -11.5 106.5t-58 79.5t-92 49t-110.5 17t-115.5 -17t-108 -50t-83 -80t-41.5 -105zM385 1223l23 145h131l-23 -145h-131zM717 1223l22 145h131l-22 -145h-131z" />
<glyph unicode="&#xf7;" horiz-adv-x="1406" d="M100 537l15 96h1136l-14 -96h-1137zM518 170l27 182h182l-27 -182h-182zM610 807l29 184h182l-28 -184h-183z" />
<glyph unicode="&#xf8;" horiz-adv-x="1120" d="M-6 -121l156 215q-47 47 -68 110.5t-8 141.5l51 359q12 82 57 148.5t111.5 112.5t146.5 71.5t164 25.5q111 0 205 -45l104 145h95l-136 -186q57 -47 86 -116.5t17 -155.5l-51 -359q-12 -84 -57.5 -150.5t-112 -113.5t-146.5 -72.5t-162 -25.5q-68 0 -128 15t-109 48 l-121 -168h-94zM188 350q-6 -47 3.5 -85t31.5 -66l516 721q-72 33 -151 32q-59 0 -117.5 -17t-107 -50t-82 -80t-41.5 -105zM279 145q76 -53 184 -53q57 0 115.5 17.5t106.5 51.5t82 82t42 107l51 350q8 53 -9 98.5t-52 78.5z" />
<glyph unicode="&#xf9;" horiz-adv-x="1196" d="M123 342l102 702h115l-100 -698q-18 -125 57.5 -190.5t208.5 -65.5q66 0 124 16.5t104 49t76 81t40 109.5l100 698h115l-102 -702q-12 -86 -53.5 -153.5t-105 -113.5t-143 -70.5t-169.5 -24.5t-164 24.5t-123 70.5t-71.5 113.5t-10.5 153.5zM481 1446l109 72l141 -297 l-82 -52z" />
<glyph unicode="&#xfa;" horiz-adv-x="1196" d="M123 342l102 702h115l-100 -698q-18 -125 57.5 -190.5t208.5 -65.5q66 0 124 16.5t104 49t76 81t40 109.5l100 698h115l-102 -702q-12 -86 -53.5 -153.5t-105 -113.5t-143 -70.5t-169.5 -24.5t-164 24.5t-123 70.5t-71.5 113.5t-10.5 153.5zM598 1210l233 283l82 -63 l-245 -265z" />
<glyph unicode="&#xfb;" horiz-adv-x="1196" d="M123 342l102 702h115l-100 -698q-18 -125 57.5 -190.5t208.5 -65.5q66 0 124 16.5t104 49t76 81t40 109.5l100 698h115l-102 -702q-12 -86 -53.5 -153.5t-105 -113.5t-143 -70.5t-169.5 -24.5t-164 24.5t-123 70.5t-71.5 113.5t-10.5 153.5zM426 1229l268 172l221 -172 l-61 -68l-176 129l-215 -127z" />
<glyph unicode="&#xfc;" horiz-adv-x="1196" d="M123 342l102 702h115l-100 -698q-18 -125 57.5 -190.5t208.5 -65.5q66 0 124 16.5t104 49t76 81t40 109.5l100 698h115l-102 -702q-12 -86 -53.5 -153.5t-105 -113.5t-143 -70.5t-169.5 -24.5t-164 24.5t-123 70.5t-71.5 113.5t-10.5 153.5zM428 1202l23 146h131 l-23 -146h-131zM760 1202l22 146h131l-22 -146h-131z" />
<glyph unicode="&#xfd;" horiz-adv-x="1005" d="M-18 -438l8 104q190 0 299 228l33 65l-213 1085h124l173 -929l444 929h125l-569 -1157q-72 -154 -174.5 -239.5t-249.5 -85.5zM498 1219l233 282l82 -63l-246 -264z" />
<glyph unicode="&#xfe;" horiz-adv-x="1175" d="M-4 -481l276 1892h117l-76 -512q68 76 164.5 122t202.5 46q86 0 155.5 -27.5t115.5 -74.5t66.5 -114t8.5 -142l-53 -371q-10 -76 -50 -141.5t-100.5 -113.5t-137.5 -75.5t-163 -27.5q-111 0 -193.5 43t-129.5 118l-90 -622h-113zM242 340q-8 -53 11 -99t58 -81 t93.5 -54.5t117.5 -19.5q61 0 118.5 19.5t104 53.5t76 81t37.5 102l53 363q8 55 -8 102t-52 81t-88 53.5t-114 19.5q-63 0 -123.5 -20.5t-108.5 -55.5t-81 -82t-41 -98z" />
<glyph unicode="&#xff;" horiz-adv-x="1005" d="M-18 -438l8 104q190 0 299 228l33 65l-213 1085h124l173 -929l444 929h125l-569 -1157q-72 -154 -174.5 -239.5t-249.5 -85.5zM344 1202l23 146h131l-23 -146h-131zM676 1202l22 146h131l-22 -146h-131z" />
<glyph unicode="&#x152;" horiz-adv-x="1865" d="M106 442l72 504q12 88 67.5 168t138.5 141.5t185.5 98.5t208.5 37h994l-17 -111h-588l-73 -502h497l-14 -110h-498l-82 -557h639l-16 -111h-1042q-113 0 -205 35t-156.5 94t-94.5 140t-16 173zM221 449q-8 -76 16.5 -138.5t76 -106.5t123 -68.5t157.5 -24.5h287l170 1169 h-289q-76 0 -155 -27.5t-145.5 -75t-112.5 -108.5t-56 -129z" />
<glyph unicode="&#x153;" horiz-adv-x="1802" d="M74 352l53 359q10 76 51 141.5t102.5 112.5t140.5 74.5t167 27.5q117 0 214 -53t134 -150q25 37 65.5 73t92 64.5t112 47t123.5 18.5q78 0 147.5 -23.5t120 -67.5t75 -107.5t11.5 -143.5l-28 -205h-705l-26 -180q-10 -59 13.5 -104.5t66.5 -76t101.5 -46t119.5 -15.5 q41 0 86 7.5t87 19.5t80 27.5t62 33.5l35 -90q-37 -25 -83 -44t-94 -32.5t-97.5 -19.5t-92.5 -6q-127 0 -228 45t-144 154q-66 -94 -174.5 -146.5t-227.5 -52.5q-88 0 -159.5 26.5t-120 74.5t-71 113.5t-9.5 143.5zM190 356q-8 -53 9.5 -99t54.5 -80t89.5 -53.5t113.5 -19.5 t118.5 18.5t103.5 50.5t76.5 76t39.5 93l55 377q8 49 -10.5 93t-56.5 76t-90 50t-111 18q-63 0 -122 -19t-105 -53t-75.5 -80t-37.5 -97zM965 621h591l15 102q8 51 -10.5 95t-54.5 76t-85 49.5t-104 17.5q-59 0 -116.5 -18.5t-103.5 -50.5t-78 -77t-40 -96z" />
<glyph unicode="&#x178;" horiz-adv-x="1179" d="M188 1393h136l249 -713l465 713h138l-562 -838l-82 -555h-116l82 555zM467 1526l22 145h132l-23 -145h-131zM799 1526l22 145h131l-22 -145h-131z" />
<glyph unicode="&#x2c6;" horiz-adv-x="724" d="M193 1237l268 172l221 -172l-61 -68l-177 129l-215 -127z" />
<glyph unicode="&#x2dc;" horiz-adv-x="827" d="M203 1272q43 59 86 92t98 33q35 0 66.5 -15.5t61.5 -34t59.5 -34t62.5 -15.5q29 0 49.5 19.5t36.5 48.5l70 -45q-14 -20 -33 -42t-40.5 -40t-47 -29.5t-54.5 -11.5q-43 0 -74.5 15.5t-59 33t-54 32.5t-59.5 15q-37 0 -62.5 -23.5t-42.5 -47.5z" />
<glyph unicode="&#x2000;" horiz-adv-x="931" />
<glyph unicode="&#x2001;" horiz-adv-x="1862" />
<glyph unicode="&#x2002;" horiz-adv-x="931" />
<glyph unicode="&#x2003;" horiz-adv-x="1862" />
<glyph unicode="&#x2004;" horiz-adv-x="620" />
<glyph unicode="&#x2005;" horiz-adv-x="465" />
<glyph unicode="&#x2006;" horiz-adv-x="310" />
<glyph unicode="&#x2007;" horiz-adv-x="310" />
<glyph unicode="&#x2008;" horiz-adv-x="232" />
<glyph unicode="&#x2009;" horiz-adv-x="372" />
<glyph unicode="&#x200a;" horiz-adv-x="103" />
<glyph unicode="&#x2010;" horiz-adv-x="716" d="M78 522l16 107h484l-17 -107h-483z" />
<glyph unicode="&#x2011;" horiz-adv-x="716" d="M78 522l16 107h484l-17 -107h-483z" />
<glyph unicode="&#x2012;" horiz-adv-x="716" d="M78 522l16 107h484l-17 -107h-483z" />
<glyph unicode="&#x2013;" horiz-adv-x="1161" d="M0 545l14 96h1084l-15 -96h-1083z" />
<glyph unicode="&#x2014;" horiz-adv-x="1599" d="M8 545l15 96h1513l-14 -96h-1514z" />
<glyph unicode="&#x2018;" horiz-adv-x="249" d="M125 1051l8 57q18 133 51 211t90 135l56 -43q-37 -51 -54.5 -109.5t-27.5 -136.5l-17 -114h-106z" />
<glyph unicode="&#x2019;" horiz-adv-x="253" d="M76 1098q41 49 65.5 100t36.5 141l17 113h110l-6 -53q-10 -74 -26.5 -126t-37 -92t-45 -70t-51.5 -56z" />
<glyph unicode="&#x201a;" horiz-adv-x="458" d="M70 -203q39 49 62.5 100.5t37.5 141.5l16 113h113l-8 -54q-10 -74 -26.5 -126t-37 -92t-45 -69.5t-53.5 -56.5z" />
<glyph unicode="&#x201c;" horiz-adv-x="487" d="M123 1049l8 57q8 68 21.5 119t31 93t40 74.5t50.5 61.5l56 -43q-37 -51 -55.5 -110.5t-28.5 -135.5l-17 -116h-106zM362 1049l9 57q8 68 21.5 119t30.5 93t39.5 74.5t51.5 61.5l55 -43q-37 -51 -54 -110.5t-28 -135.5l-16 -116h-109z" />
<glyph unicode="&#x201d;" horiz-adv-x="518" d="M70 1042q39 49 63.5 100.5t36.5 141.5l16 113h111l-6 -54q-10 -74 -26.5 -126t-37 -92t-45 -69.5t-51.5 -56.5zM322 1042q41 49 65.5 100.5t36.5 141.5l16 113h109l-6 -54q-10 -74 -26.5 -126t-36 -92t-44 -69.5t-51.5 -56.5z" />
<glyph unicode="&#x201e;" horiz-adv-x="800" d="M72 -201q39 49 62.5 100.5t37.5 141.5l16 113h111l-8 -54q-10 -74 -26.5 -126t-36 -92t-44 -69.5t-51.5 -56.5zM393 -199q39 49 62.5 100.5t38.5 141.5l16 113h111l-9 -54q-10 -74 -26.5 -126t-36 -92t-44 -69.5t-50.5 -56.5z" />
<glyph unicode="&#x2022;" horiz-adv-x="706" d="M121 360l51 351h344l-51 -351h-344z" />
<glyph unicode="&#x2026;" horiz-adv-x="1486" d="M80 0l29 193h174l-29 -193h-174zM543 0l28 193h174l-28 -193h-174zM1006 0l28 193h174l-28 -193h-174z" />
<glyph unicode="&#x202f;" horiz-adv-x="372" />
<glyph unicode="&#x2039;" horiz-adv-x="614" d="M70 356l366 369l51 -70l-276 -295l190 -290l-71 -70z" />
<glyph unicode="&#x203a;" horiz-adv-x="614" d="M27 70l276 290l-190 295l73 70l256 -369l-362 -356z" />
<glyph unicode="&#x205f;" horiz-adv-x="465" />
<glyph unicode="&#x20ac;" horiz-adv-x="1341" d="M68 535l12 88h172l24 170h-172l15 86h172l12 86q14 102 65.5 185t126 141.5t169 90t196.5 31.5q139 0 242.5 -40t167.5 -122l-78 -88q-53 63 -140 100t-204 37q-80 0 -152.5 -23.5t-131 -67.5t-97.5 -107.5t-51 -140.5l-10 -82h608l-15 -86h-608l-24 -170h608l-12 -88 h-609l-14 -103q-12 -86 6.5 -150.5t63.5 -106.5t112.5 -63.5t151.5 -21.5q109 0 207 24.5t176 84.5l45 -86q-96 -74 -205 -103.5t-244 -29.5q-106 0 -192 28.5t-144.5 86t-84 140t-9.5 193.5l17 107h-172z" />
<glyph unicode="&#x2122;" horiz-adv-x="1146" d="M190 1354l13 80h364l-12 -80h-141l-52 -353h-77l51 353h-146zM588 1004l63 430h80l90 -213l158 213h82l-64 -430h-82l43 292l-129 -178h-43l-73 185l-45 -299h-80z" />
<glyph unicode="&#x25fc;" horiz-adv-x="1044" d="M0 0v1044h1044v-1044h-1044z" />
<glyph unicode="&#xfb03;" horiz-adv-x="1796" d="M102 0l138 946h-138l15 98h137l20 132q10 74 48 129t96.5 92t133.5 55t161 18q43 0 93 -4t102.5 -10t100.5 -16t85 -23q53 25 117.5 39t140.5 14q86 0 180 -13t172 -36l-37 -92q-86 16 -158.5 24.5t-158.5 8.5q-137 0 -224.5 -49t-101.5 -150l-18 -119h245l-14 -98h-246 l-137 -946h-115l138 946h-523l-137 -946h-115zM369 1044h522l20 132q8 49 25.5 91t48.5 72q-61 10 -134 16.5t-140 6.5q-139 0 -225.5 -49t-100.5 -150zM1378 0l152 1044h115l-152 -1044h-115z" />
<glyph unicode="&#xfb04;" horiz-adv-x="1802" d="M102 0l138 946h-138l15 98h137l18 132q10 74 49 129t97.5 92t133.5 55t161 18q43 0 93 -4t102.5 -10t100.5 -16t85 -23q53 25 117.5 39t140.5 14q86 0 180 -13t170 -36l-207 -1421h-115l197 1343q-66 10 -120 14.5t-107 4.5q-137 0 -224.5 -49t-101.5 -150l-18 -119h245 l-14 -98h-246l-137 -946h-115l138 946h-523l-137 -946h-115zM369 1044h522l20 132q8 49 25.5 91t48.5 72q-61 10 -134 16.5t-140 6.5q-139 0 -225.5 -49t-100.5 -150z" />
</font>
</defs>
</svg>
