<?xml version="1.0" standalone="no"?>
<!DOCTYPE svg PUBLIC "-//W3C//DTD SVG 1.1//EN" "http://www.w3.org/Graphics/SVG/1.1/DTD/svg11.dtd" >
<svg xmlns="http://www.w3.org/2000/svg">
<metadata></metadata>
<defs>
<font id="bose_gothicmedium" horiz-adv-x="1372" >
<font-face units-per-em="2048" ascent="1536" descent="-512" />
<missing-glyph horiz-adv-x="446" />
<glyph unicode="&#xdf;" horiz-adv-x="1286" d="M139 0v1096q0 189 122.5 291t342.5 102q140 0 252.5 -45t182 -138.5t69.5 -222.5q-104 -91 -149.5 -156t-45.5 -139q0 -34 10 -62.5t35 -54.5t42 -40.5t55 -42.5q40 -30 66.5 -55t52.5 -60t38.5 -77.5t12.5 -94.5q0 -158 -110 -239.5t-298 -81.5q-100 0 -197 29t-149 81 l68 154q39 -34 106.5 -57t149.5 -23q85 0 145.5 39t60.5 106q0 19 -4 37t-8.5 31t-16 28t-19 24t-25 23t-26 20.5t-30 22t-30.5 21.5q-76 52 -114 110.5t-38 153.5q0 185 187 344q0 82 -78.5 127t-184.5 45q-111 0 -180 -58t-69 -155v-1083h-226z" />
<glyph unicode="&#xfb01;" horiz-adv-x="1251" d="M49 893v151h131v127q0 102 59.5 174.5t154.5 106t214 33.5q214 0 447 -68l-37 -157q-78 14 -117 20t-110 12t-144 6q-246 0 -246 -163v-91h252v-151h-252v-893h-221v893h-131zM862 0v1044h221v-1044h-221z" />
<glyph unicode="&#xfb02;" horiz-adv-x="1255" d="M49 893v151h131v127q0 102 59.5 174.5t154.5 106t214 33.5q212 0 475 -76v-1409h-221v1284q-107 14 -215 14q-246 0 -246 -163v-91h252v-151h-252v-893h-221v893h-131z" />
<glyph horiz-adv-x="0" />
<glyph horiz-adv-x="682" />
<glyph unicode="&#xd;" horiz-adv-x="446" />
<glyph unicode=" "  horiz-adv-x="446" />
<glyph unicode="&#x09;" horiz-adv-x="446" />
<glyph unicode="&#xa0;" horiz-adv-x="446" />
<glyph unicode="!" horiz-adv-x="552" d="M170 0v229h256v-229h-256zM176 1393h238l-17 -908h-204z" />
<glyph unicode="&#x22;" horiz-adv-x="651" d="M119 1403h153l-8 -453h-135zM381 1403h149l-8 -453h-131z" />
<glyph unicode="#" horiz-adv-x="1380" d="M96 283l2 137h283l70 397h-287l2 137h315l56 314h165l-55 -314h244l57 314h162l-53 -314h227l-2 -137h-256l-70 -397h256l-4 -137h-280l-45 -283h-168l45 283h-242l-49 -283h-166l47 283h-254zM547 420h244l69 397h-242z" />
<glyph unicode="$" horiz-adv-x="1206" d="M104 205l117 141q72 -84 176 -128t221 -44q121 0 191 51t70 142q0 94 -63.5 143t-237.5 100q-217 65 -325 161t-108 251q0 125 65 215t170 132t236 42q10 0 29.5 -1t28.5 -1l33 203l151 -23l-33 -207q154 -46 265 -151l-109 -150q-156 138 -360 138q-116 0 -186 -50 t-70 -141q0 -90 70 -141t245 -103q216 -64 318 -159t102 -252q0 -181 -131 -285t-344 -104h-23l-37 -244l-147 20l39 242q-230 47 -353 203z" />
<glyph unicode="%" horiz-adv-x="1519" d="M115 1010v178q0 100 84 162.5t204 62.5q116 0 199.5 -64t83.5 -161v-178q0 -102 -82 -165t-201 -63q-125 0 -206.5 61.5t-81.5 166.5zM223 0l875 1393h194l-866 -1393h-203zM281 1026q0 -44 33.5 -68t88.5 -24q47 0 84 27.5t37 66.5v146q0 40 -35.5 63t-85.5 23 q-49 0 -85.5 -26t-36.5 -65v-143zM850 195v202q0 101 78 161t198 60q116 0 197.5 -58t81.5 -157v-198q0 -102 -79 -162.5t-200 -60.5q-112 0 -194 59.5t-82 153.5zM1006 369l2 -144q0 -40 35 -67t83 -27t85.5 27.5t37.5 66.5v144q0 45 -34.5 70.5t-88.5 25.5 q-48 0 -84 -28.5t-36 -67.5z" />
<glyph unicode="&#x26;" horiz-adv-x="1488" d="M96 340q0 58 24 111.5t76 107.5t103.5 96.5t136.5 104.5l17 10l-197 199v184q0 116 103 189t253 73q177 0 278 -78t101 -221q0 -105 -62.5 -186t-187.5 -176l287 -285l229 221l146 -131l-234 -227l244 -238l-147 -129l-234 232q-200 -217 -475 -217q-217 0 -339 90 t-122 270zM324 340q0 -77 54.5 -123.5t168.5 -46.5q92 0 171.5 41t170.5 125l-299 301l-19 -14q-135 -103 -174 -142q-73 -73 -73 -141zM455 1034l155 -153q85 64 130.5 117t45.5 112q0 127 -174 127q-71 0 -114 -30.5t-43 -78.5v-94z" />
<glyph unicode="'" horiz-adv-x="483" d="M154 1454h176l-21 -479h-137z" />
<glyph unicode="(" horiz-adv-x="729" d="M166 219v664q0 227 89 405t239 266l100 -96q-105 -66 -169.5 -216t-64.5 -359v-664q0 -216 63.5 -359t170.5 -210l-100 -99q-150 88 -239 265.5t-89 402.5z" />
<glyph unicode=")" horiz-adv-x="755" d="M127 -358q104 70 166.5 223t62.5 366v646q0 210 -58.5 360t-160.5 217l86 102q150 -89 239 -271t89 -408v-646q0 -226 -89 -407t-239 -270z" />
<glyph unicode="*" horiz-adv-x="808" d="M102 1182l33 106l211 -65v215h119v-217l209 67l33 -106l-205 -68l127 -174l-94 -68l-129 177l-132 -177l-94 68l129 174z" />
<glyph unicode="+" horiz-adv-x="1177" d="M68 711v157h430v402h178v-402h432v-157h-432v-445h-178v445h-430z" />
<glyph unicode="," horiz-adv-x="446" d="M51 -205q38 57 58 112.5t20 145.5v121h190v-53q0 -79 -13 -143t-38 -110.5t-45.5 -73.5t-52.5 -60z" />
<glyph unicode="-" horiz-adv-x="712" d="M96 500v180h518v-180h-518z" />
<glyph unicode="." horiz-adv-x="512" d="M133 0v229h246v-229h-246z" />
<glyph unicode="/" horiz-adv-x="829" d="M43 -174l549 1567h199l-553 -1567h-195z" />
<glyph unicode="0" horiz-adv-x="1294" d="M125 416v553q0 136 70 238t187.5 154t264.5 52t264.5 -52t187.5 -154t70 -238v-553q0 -136 -71 -236.5t-187.5 -150t-263.5 -49.5t-264 50t-187.5 150t-70.5 236zM348 422q0 -121 84 -185.5t215 -64.5q132 0 215.5 64t83.5 186v541q0 123 -84 189.5t-215 66.5 q-134 0 -216.5 -66t-82.5 -190v-541z" />
<glyph unicode="1" horiz-adv-x="659" d="M63 1198v195h390v-1393h-224v1198h-166z" />
<glyph unicode="2" horiz-adv-x="1140" d="M102 1204q216 193 504 193q120 0 215 -37.5t155 -120t60 -199.5q0 -63 -18 -118t-47 -97t-78.5 -85t-99 -76t-123.5 -76q-177 -93 -246.5 -179t-77.5 -219h709v-190h-942v102q0 213 99 359.5t331 273.5q145 78 207.5 139t62.5 150q0 87 -63.5 133.5t-171.5 46.5 q-99 0 -196 -42.5t-173 -108.5z" />
<glyph unicode="3" horiz-adv-x="1204" d="M86 289l193 65q19 -87 106 -133.5t199 -46.5q72 0 132 17t102 58.5t42 102.5v94q0 90 -72.5 136.5t-187.5 46.5h-197v176h189q103 0 178.5 43t75.5 127v69q0 91 -72.5 135t-187.5 44q-96 0 -178 -46t-101 -128l-182 67q29 133 164.5 216t312.5 83q135 0 238 -36 t166 -116.5t63 -197.5v-72q0 -97 -63 -171.5t-162 -106.5q106 -33 172.5 -104.5t66.5 -174.5v-100q0 -88 -41 -157t-110 -110.5t-154 -63t-180 -21.5q-199 0 -340.5 82t-171.5 223z" />
<glyph unicode="4" horiz-adv-x="1210" d="M53 299v172l629 922h264v-901h219v-193h-219v-299h-223v299h-670zM291 492h432v606h-23z" />
<glyph unicode="5" horiz-adv-x="1189" d="M129 330l207 47q7 -92 83.5 -148.5t192.5 -56.5q104 0 177 49t73 137v138q0 89 -65 136.5t-176 47.5h-428l69 713h748v-195h-555l-33 -336h229q193 0 312.5 -94.5t119.5 -267.5v-148q0 -114 -67 -200.5t-170.5 -129t-224.5 -42.5q-208 0 -340 91.5t-152 258.5z" />
<glyph unicode="6" horiz-adv-x="1198" d="M117 369v643q0 180 139.5 290.5t357.5 110.5q246 0 410 -123l-90 -160q-137 93 -309 93q-126 0 -205.5 -57.5t-79.5 -153.5v-254q53 65 139.5 103t184.5 38q122 0 217.5 -38.5t154 -120t58.5 -195.5v-187q0 -91 -41.5 -164t-111 -119t-157 -70.5t-182.5 -24.5 t-181.5 25.5t-154.5 72.5t-108.5 122.5t-40.5 168.5zM340 379q0 -103 77.5 -156t184.5 -53q68 0 127.5 20.5t101 69.5t41.5 119v149q0 97 -77 149t-191 52q-109 0 -186.5 -54t-77.5 -147v-149z" />
<glyph unicode="7" horiz-adv-x="991" d="M20 1188v205h922v-127l-440 -1266h-246l432 1188h-668z" />
<glyph unicode="8" horiz-adv-x="1239" d="M121 338v92q0 106 71 180.5t177 112.5q-97 34 -158 112.5t-61 176.5v57q0 109 67 189t172 117.5t232 37.5q126 0 230.5 -37.5t172.5 -117.5t68 -189v-65q0 -90 -67 -169t-155 -112q48 -19 89 -43t79 -59.5t60 -84.5t22 -106v-92q0 -89 -41.5 -159t-112 -112.5 t-158.5 -64.5t-187 -22q-102 0 -190.5 22t-158.5 64.5t-110.5 112.5t-40.5 159zM346 354q0 -65 42 -107.5t101 -58.5t132 -16q51 0 97 9.5t87 29.5t65.5 55.5t24.5 83.5v103q0 56 -40 99t-98 64t-120 21h-33q-104 -5 -181 -52.5t-77 -131.5v-99zM373 981q0 -79 69 -126 t164 -50h31q97 3 164 48t67 128v63q0 86 -73.5 131.5t-173.5 45.5q-101 0 -174.5 -46t-73.5 -131v-63z" />
<glyph unicode="9" horiz-adv-x="1206" d="M113 836v208q0 110 70 196t180 129.5t237 43.5q125 0 235.5 -43t182.5 -129t72 -197v-696q0 -116 -72 -201.5t-181.5 -126t-236.5 -40.5q-121 0 -237.5 35t-196.5 98l76 155q164 -96 356 -96q125 0 208 52t83 155v217q-56 -63 -142 -96t-178 -33q-128 0 -230 41t-164 126 t-62 202zM336 842q0 -64 40 -109t98.5 -64.5t127.5 -19.5q106 0 184 51.5t78 141.5v186q0 60 -39.5 104.5t-98.5 65.5t-126 21q-107 0 -185.5 -51t-78.5 -140v-186z" />
<glyph unicode=":" horiz-adv-x="579" d="M176 0v250h127h115v-250h-242zM176 817v248h242v-248h-242z" />
<glyph unicode=";" horiz-adv-x="632" d="M193 -205q37 55 56 111t19 147v121h193v-53q0 -79 -13 -143t-38.5 -110.5t-47 -74t-53.5 -59.5zM238 809v256h229v-256h-229z" />
<glyph unicode="&#x3c;" horiz-adv-x="1257" d="M125 508l922 555l67 -135l-686 -414l719 -391l-74 -133z" />
<glyph unicode="=" horiz-adv-x="1224" d="M104 375v160h375h639v-160h-1014zM104 811v160h1014v-160h-1014z" />
<glyph unicode="&#x3e;" horiz-adv-x="1232" d="M129 117l676 403l-668 400l86 135l901 -527l-911 -548z" />
<glyph unicode="?" horiz-adv-x="954" d="M55 1276q79 60 183.5 98.5t212.5 38.5q197 0 305 -74.5t108 -226.5v-76q0 -23 -5.5 -45t-11.5 -38.5t-21.5 -37.5t-23.5 -32t-31.5 -32t-30.5 -27.5t-35 -29t-33 -26.5q-82 -59 -117 -107t-35 -126v-103h-219v133q0 151 166 264q36 26 50.5 36.5t42.5 34.5t40.5 39.5 t23.5 37.5t11 43v63q0 72 -58 104t-153 32q-75 0 -154.5 -29t-136.5 -70zM279 0v229h278v-229h-278z" />
<glyph unicode="@" horiz-adv-x="1656" d="M104 535q0 130 23 282q20 127 80 238.5t151.5 195.5t217.5 132.5t270 48.5q201 0 361 -74t249.5 -206t89.5 -298q0 -510 -340 -510q-34 0 -66 6t-63.5 19.5t-56 37.5t-35.5 56q-48 -63 -128 -104.5t-167 -41.5q-126 0 -189 57.5t-63 145.5q0 43 17 140t45 182 q35 123 148 203.5t241 80.5q120 0 192 -53.5t72 -142.5q0 -22 -4 -48t-13 -69t-12 -57q-24 -122 -24 -178q0 -47 30 -81t76 -34q211 0 211 395q0 201 -159.5 330t-411.5 129q-238 0 -398.5 -144.5t-189.5 -363.5q-25 -182 -25 -270q0 -190 166 -314.5t443 -124.5 q165 0 325 86l60 -104q-174 -98 -385 -98q-168 0 -307.5 42t-233.5 116t-145.5 175t-51.5 218zM594 569q0 -127 127 -127q88 0 157.5 56.5t82.5 140.5q2 7 9.5 40t10 45.5t8.5 41.5t8.5 46.5t4.5 40t2 40.5q0 111 -134 111q-88 0 -158.5 -70t-86.5 -160q-7 -34 -15 -83.5 t-12 -83t-4 -38.5z" />
<glyph unicode="A" horiz-adv-x="1314" d="M51 0l488 1407h245l476 -1407h-244l-117 371h-483l-119 -371h-246zM463 551h391l-192 594z" />
<glyph unicode="B" horiz-adv-x="1282" d="M166 0v1393h528q190 0 306 -95.5t116 -261.5v-51q0 -84 -57.5 -158t-145.5 -102q115 -40 181.5 -117.5t66.5 -187.5v-78q0 -166 -115.5 -254t-308.5 -88h-571zM389 180h316q105 0 169 43.5t64 141.5v71q0 92 -69.5 142.5t-174.5 50.5h-305v-449zM389 797h295q95 0 153 47 t58 131v51q0 184 -238 184h-268v-413z" />
<glyph unicode="C" horiz-adv-x="1173" d="M129 434v522q0 137 71.5 242t190.5 160t264 55q148 0 256.5 -36t196.5 -111l-98 -158q-138 111 -340 111q-137 0 -227.5 -74t-90.5 -199v-500q0 -135 88 -204.5t234 -69.5q212 0 338 92l88 -155q-87 -70 -191 -99.5t-252 -29.5q-154 0 -271.5 50t-187 154t-69.5 250z" />
<glyph unicode="D" horiz-adv-x="1341" d="M166 0v1393h487q158 0 279.5 -52t194.5 -161.5t73 -264.5v-442q0 -118 -44 -210t-121.5 -148.5t-177 -85.5t-216.5 -29h-475zM387 193h254q70 0 129.5 17t107 51.5t74.5 92.5t27 135v412q0 142 -93.5 219.5t-232.5 77.5h-266v-1005z" />
<glyph unicode="E" horiz-adv-x="1142" d="M166 0v1393h831v-195h-608v-395h496v-189h-496v-421h655v-193h-878z" />
<glyph unicode="F" horiz-adv-x="1054" d="M166 0v1393h829v-195h-608v-389h496v-188h-494v-621h-223z" />
<glyph unicode="G" horiz-adv-x="1331" d="M129 432v526q0 106 43.5 193t119.5 144t176.5 87.5t215.5 30.5q273 0 469 -139l-84 -164q-82 53 -170.5 81t-206.5 28q-144 0 -242 -73t-98 -200v-500q0 -127 93.5 -200.5t234.5 -73.5q170 0 293 68v338h-281v180h504v-621q-107 -74 -230.5 -115.5t-285.5 -41.5 q-116 0 -216.5 31t-175 88t-117 143t-42.5 190z" />
<glyph unicode="H" horiz-adv-x="1449" d="M166 0v1393h223v-619h670v619h223v-1393h-223v582h-670v-582h-223z" />
<glyph unicode="I" horiz-adv-x="616" d="M197 0v1393h221v-1393h-221z" />
<glyph unicode="J" horiz-adv-x="1134" d="M43 313l217 49q3 -78 73.5 -134t170.5 -56q108 0 174.5 52.5t66.5 150.5v1018h224v-1026q0 -184 -122 -284.5t-335 -100.5q-200 0 -327 88.5t-142 242.5z" />
<glyph unicode="K" horiz-adv-x="1310" d="M166 0v1393h223v-662l547 662h278l-577 -660l643 -733h-289l-499 586l-103 -113v-473h-223z" />
<glyph unicode="L" horiz-adv-x="1101" d="M166 0v1393h223v-1200h684v-193h-907z" />
<glyph unicode="M" horiz-adv-x="1720" d="M166 0v1393h244l448 -805l453 805h241v-1393h-223v1059l-405 -735h-133l-402 733v-1057h-223z" />
<glyph unicode="N" horiz-adv-x="1439" d="M166 0v1393h219l680 -1055v1055h207v-1393h-217l-682 1055v-1055h-207z" />
<glyph unicode="O" d="M133 432v529q0 208 150 330t385 122h32q236 0 389.5 -123.5t153.5 -328.5v-529q0 -215 -148 -333.5t-395 -118.5h-30q-244 0 -390.5 118t-146.5 334zM356 446q0 -135 84 -204.5t230 -69.5h30q149 0 234.5 69.5t85.5 204.5v500q0 127 -89 200t-231 73h-32 q-138 0 -225 -73.5t-87 -199.5v-500z" />
<glyph unicode="P" horiz-adv-x="1261" d="M166 0v1393h543q213 0 336.5 -104t123.5 -288v-131q0 -176 -125 -270t-331 -94h-324v-506h-223zM389 688h307q118 0 184 50.5t66 154.5v88q0 100 -67 158.5t-183 58.5h-307v-510z" />
<glyph unicode="Q" d="M131 432v529q0 208 150 330t385 122h34q155 0 277 -54t193 -157.5t71 -240.5v-529q0 -194 -127 -315l141 -152l-116 -90l-148 160q-125 -55 -291 -55h-32q-244 0 -390.5 118t-146.5 334zM354 446q0 -135 84 -204.5t230 -69.5h32q82 0 144 23l-137 149l114 92l142 -155 q57 63 57 165v500q0 126 -89.5 199.5t-230.5 73.5h-34q-138 0 -225 -73.5t-87 -199.5v-500z" />
<glyph unicode="R" horiz-adv-x="1263" d="M166 0v1393h563q205 0 321.5 -97t116.5 -280v-72q0 -135 -70.5 -221t-197.5 -119l309 -604h-241l-277 557h-301v-557h-223zM389 735h334q94 3 156.5 52.5t62.5 138.5v84q0 87 -62 137.5t-167 50.5h-324v-463z" />
<glyph unicode="S" horiz-adv-x="1208" d="M104 205l117 141q72 -84 176 -128t221 -44q121 0 191 51t70 142q0 94 -63.5 143t-237.5 100q-217 65 -325 161t-108 251q-1 95 36 170t102.5 122.5t150 72t182.5 24.5q282 0 474 -180l-109 -150q-156 138 -360 138q-116 0 -186 -50t-70 -141q0 -90 70 -141t245 -103 q216 -62 318 -158t102 -256q0 -179 -130 -282q-131 -104 -345 -104q-155 0 -295 58t-226 163z" />
<glyph unicode="T" horiz-adv-x="1187" d="M37 1198v195h1114v-195h-449v-1198h-225v1198h-440z" />
<glyph unicode="U" horiz-adv-x="1427" d="M162 440v953h223v-942q0 -93 46.5 -157.5t119 -93t162.5 -28.5q137 0 232 73.5t95 205.5v942h224v-953q0 -112 -43 -201t-118 -145t-174 -85t-214 -29q-117 0 -216.5 28.5t-175 84t-118.5 144.5t-43 203z" />
<glyph unicode="V" horiz-adv-x="1247" d="M45 1393h244l329 -1110l340 1110h242l-467 -1393h-231z" />
<glyph unicode="W" horiz-adv-x="1832" d="M76 1393h231l217 -1106l291 1106h201l295 -1108l213 1108h231l-303 -1393h-252l-287 1069l-284 -1069h-252z" />
<glyph unicode="X" horiz-adv-x="1222" d="M55 0l424 696l-395 697h254l280 -527l293 527h254l-411 -697l411 -696h-256l-291 524l-303 -524h-260z" />
<glyph unicode="Y" horiz-adv-x="1253" d="M66 1393h258l299 -643l303 643h258l-451 -863v-530h-225v532z" />
<glyph unicode="Z" horiz-adv-x="1191" d="M98 0v131l699 1067h-680v195h964v-131l-696 -1069h705v-193h-992z" />
<glyph unicode="[" horiz-adv-x="577" d="M164 -330v1723h346v-154h-152v-1417h144v-152h-338z" />
<glyph unicode="\" horiz-adv-x="892" d="M66 1393h200l592 -1393h-199z" />
<glyph unicode="]" horiz-adv-x="573" d="M102 -168h146v1397h-146v164h340v-1717h-340v156z" />
<glyph unicode="^" horiz-adv-x="876" d="M100 870l342 545l332 -545l-129 -45l-203 338l-209 -338z" />
<glyph unicode="_" horiz-adv-x="1138" d="M100 -61h936v-142h-936v142z" />
<glyph unicode="`" horiz-adv-x="544" d="M88 1384l150 91l206 -308l-108 -67z" />
<glyph unicode="a" horiz-adv-x="1071" d="M78 262v45q0 63 29.5 113.5t83 83t116 55.5t141.5 35t146 17.5t141 6.5v95q0 87 -47 126.5t-164 39.5q-73 0 -175 -23t-146 -49l-58 160q67 41 187 69.5t221 28.5q202 0 301.5 -88.5t99.5 -251.5v-725h-176l-24 147q-42 -68 -132 -114.5t-212 -46.5q-158 0 -245 74 t-87 202zM303 289q0 -129 174 -129q106 0 181 47.5t75 109.5v164q-66 -2 -118 -6t-113.5 -15.5t-102.5 -28.5t-68.5 -47t-27.5 -69v-26z" />
<glyph unicode="b" horiz-adv-x="1191" d="M141 0v1413h221v-491q54 71 137 107t179 36q190 0 297.5 -101t107.5 -278v-326q0 -180 -106.5 -279t-298.5 -99q-95 0 -181.5 37t-136.5 110l-30 -129h-189zM362 348q0 -90 74 -138t180 -48q112 0 178 50.5t66 149.5v322q0 92 -67.5 146.5t-169.5 54.5q-111 0 -186 -49.5 t-75 -143.5v-344z" />
<glyph unicode="c" horiz-adv-x="989" d="M109 352v336q0 176 127 276.5t333 100.5q214 0 357 -121l-88 -153q-105 79 -248 79q-113 0 -184.5 -53.5t-71.5 -150.5v-291q0 -99 75 -152t185 -53h11q133 0 241 70l82 -156q-129 -102 -355 -102q-135 0 -238 39.5t-164.5 124.5t-61.5 206z" />
<glyph unicode="d" horiz-adv-x="1191" d="M111 360v326q0 178 106.5 278.5t296.5 100.5q96 0 179.5 -36t135.5 -107v491h222v-1413h-191l-31 129q-49 -73 -134.5 -110t-180.5 -37q-192 0 -297.5 99t-105.5 279zM334 362q0 -99 65 -149.5t176 -50.5q106 0 180 48t74 138v344q0 94 -74.5 143.5t-185.5 49.5 q-102 0 -168.5 -54.5t-66.5 -146.5v-322z" />
<glyph unicode="e" horiz-adv-x="1107" d="M106 354v357q0 101 67 183t173 125.5t227 43.5q188 0 317.5 -98.5t129.5 -253.5v-240h-690v-109q0 -93 79 -141.5t201 -48.5q194 0 320 74l74 -152q-156 -106 -406 -106q-131 0 -240.5 39.5t-180.5 124.5t-71 202zM330 625h481v82q0 77 -71 126.5t-167 49.5 q-95 0 -169 -50.5t-74 -127.5v-80z" />
<glyph unicode="f" horiz-adv-x="681" d="M49 893v151h131v121q0 143 99.5 220t248.5 77q145 0 254 -39l-37 -166q-93 21 -176 21q-75 0 -121.5 -34t-46.5 -99v-101h252v-151h-252v-893h-221v893h-131z" />
<glyph unicode="g" horiz-adv-x="1171" d="M86 -190q0 167 178 229q-55 28 -82.5 65t-27.5 93q0 49 35 98.5t92 75.5q-146 94 -146 276v62q0 116 61 197.5t161 119t229 37.5q138 0 241 -47l256 84l56 -142l-172 -49q65 -87 65 -196v-78q0 -87 -34 -153t-94.5 -105.5t-138.5 -59.5t-173 -20q-96 0 -176 18 q-23 -11 -38.5 -32.5t-15.5 -46.5q0 -40 33 -65.5t84 -35.5l588 -84v-221q0 -72 -35.5 -129t-96 -91.5t-135.5 -52.5t-159 -18h-133q-119 0 -211.5 27.5t-151.5 90.5t-59 153zM301 -164q0 -64 61.5 -93.5t151.5 -29.5h121q198 0 209 127v78l-400 53q-63 -8 -103 -41.5 t-40 -93.5zM360 623q0 -79 63.5 -121.5t166.5 -42.5q95 0 156 39.5t61 124.5v84q-4 81 -68 123t-153 42q-93 0 -159.5 -42.5t-66.5 -122.5v-84z" />
<glyph unicode="h" horiz-adv-x="1224" d="M145 0v1413h224v-549q51 90 147.5 144.5t206.5 54.5q183 0 273.5 -94.5t90.5 -274.5v-694h-223v684q0 89 -55.5 137.5t-151.5 48.5q-109 0 -198.5 -63.5t-89.5 -151.5v-655h-224z" />
<glyph unicode="i" horiz-adv-x="565" d="M166 1239v174h231v-174h-231zM170 0v1044h225v-1044h-225z" />
<glyph unicode="j" horiz-adv-x="598" d="M-113 -246q90 22 146.5 47t97.5 65.5t58.5 99t17.5 145.5v933h223v-956q0 -228 -116.5 -346t-374.5 -168zM203 1239v174h225v-174h-225z" />
<glyph unicode="k" horiz-adv-x="1073" d="M145 0v1413h224v-756h73l330 387h258l-403 -481l438 -563h-262l-354 461h-80v-461h-224z" />
<glyph unicode="l" horiz-adv-x="565" d="M170 0v1413h223v-1413h-223z" />
<glyph unicode="m" horiz-adv-x="1830" d="M145 0v1044h177l14 -165q47 82 140 134t194 52q122 0 204 -47.5t109 -143.5q53 86 150 138.5t215 52.5q170 0 258 -83.5t88 -244.5v-737h-221v686q0 91 -47.5 139.5t-141.5 48.5q-108 0 -181 -58.5t-73 -153.5v-662h-225v694q0 89 -47 136t-140 47q-94 0 -171.5 -68 t-77.5 -152v-657h-224z" />
<glyph unicode="n" horiz-adv-x="1226" d="M145 0v1044h183l18 -180q134 199 365 199q187 0 283 -95t96 -272v-696h-226v672q0 98 -56.5 149t-162.5 51q-102 0 -189 -64.5t-87 -152.5v-655h-224z" />
<glyph unicode="o" horiz-adv-x="1159" d="M106 356v334q0 170 136 271.5t340 101.5q207 0 338 -101t131 -272v-334q0 -113 -66 -199t-171.5 -129.5t-231.5 -43.5q-128 0 -235 43t-174 129t-67 200zM330 369q0 -90 73.5 -143.5t178.5 -53.5q99 0 172 53.5t73 143.5v309q0 88 -72 140t-173 52q-102 0 -177 -52.5 t-75 -139.5v-309z" />
<glyph unicode="p" horiz-adv-x="1187" d="M135 -432v1476h189l32 -133q49 74 135 113t181 39q191 0 297 -101t106 -282v-326q0 -177 -106 -275.5t-297 -98.5q-98 0 -181 34.5t-135 104.5v-551h-221zM356 350q0 -95 74 -143.5t186 -48.5q103 0 169.5 55t66.5 149v312q0 103 -65.5 155t-178.5 52q-104 0 -178 -49.5 t-74 -139.5v-342z" />
<glyph unicode="q" horiz-adv-x="1187" d="M111 354v326q0 181 106 282t297 101q95 0 180.5 -37.5t134.5 -110.5l31 129h191v-1476h-222v551q-52 -70 -135 -104.5t-180 -34.5q-191 0 -297 98.5t-106 275.5zM334 358q0 -93 66 -146.5t169 -53.5q111 0 185.5 49t74.5 143v342q0 90 -74 139.5t-180 49.5 q-111 0 -176 -51t-65 -152v-320z" />
<glyph unicode="r" horiz-adv-x="770" d="M150 0v1044h180l28 -178q33 84 105.5 141.5t163.5 57.5q69 0 121 -14l-31 -217q-48 10 -117 10q-96 0 -160.5 -71t-64.5 -171v-602h-225z" />
<glyph unicode="s" horiz-adv-x="1005" d="M78 113l84 151q61 -47 156 -76.5t178 -29.5q213 0 213 131q0 55 -54 87t-188 62q-190 40 -272 116.5t-82 201.5q0 63 22 114.5t59.5 86.5t88.5 59.5t108.5 35.5t120.5 11q227 0 391 -102l-78 -152q-138 74 -286 74q-209 0 -209 -131q0 -57 51 -90t180 -58 q193 -39 275 -113t84 -198q0 -149 -115 -231t-291 -82q-113 0 -232 34t-204 99z" />
<glyph unicode="t" horiz-adv-x="819" d="M43 891v153h152v256h221v-256h282v-153h-282v-578q0 -66 37.5 -98.5t105.5 -32.5q113 0 189 33l43 -172q-42 -16 -67 -24t-89.5 -18.5t-136.5 -10.5q-146 0 -225.5 70.5t-79.5 218.5v612h-150z" />
<glyph unicode="u" horiz-adv-x="1216" d="M143 352v692h224v-677q0 -93 68 -144t175 -51t176.5 52t69.5 143v677h223v-692q0 -116 -63.5 -202t-168.5 -128t-237 -42q-134 0 -238.5 42t-166.5 127.5t-62 202.5z" />
<glyph unicode="v" horiz-adv-x="1101" d="M43 1044h238l270 -794l270 794h236l-402 -1044h-213z" />
<glyph unicode="w" horiz-adv-x="1533" d="M55 1044h219l172 -802l230 802h180l240 -798l164 798h217l-271 -1044h-211l-225 762l-223 -762h-217z" />
<glyph unicode="x" horiz-adv-x="1062" d="M31 0l368 516l-350 528h254l229 -376l226 376h264l-358 -528l366 -516h-258l-242 360l-241 -360h-258z" />
<glyph unicode="y" horiz-adv-x="1075" d="M45 1044h238l252 -802l251 802h238l-412 -1163q-115 -321 -458 -321l-25 168q89 0 163 46.5t105 133.5l25 65z" />
<glyph unicode="z" horiz-adv-x="993" d="M90 0v127l518 743h-508v174h768v-112l-518 -752h553v-180h-813z" />
<glyph unicode="{" horiz-adv-x="634" d="M129 600l100 109l-55 350q-24 157 59.5 283.5t249.5 193.5l86 -100q-113 -61 -162.5 -160t-35.5 -213l45 -365l-84 -92l86 -80l-47 -422q-14 -118 39.5 -215.5t167.5 -160.5l-91 -107q-180 79 -258 208.5t-55 283.5l53 399z" />
<glyph unicode="|" horiz-adv-x="477" d="M145 -301v1694h185v-1694h-185z" />
<glyph unicode="}" horiz-adv-x="657" d="M119 -270q127 74 184 170.5t43 203.5l-51 424l88 78l-84 90l47 367q14 99 -41.5 198.5t-175.5 172.5l80 98q170 -67 259 -199t64 -274l-59 -350l105 -109l-105 -88l59 -399q21 -143 -66 -279t-265 -207z" />
<glyph unicode="~" horiz-adv-x="831" d="M104 1282q80 135 193 135q49 0 138.5 -44t127.5 -44q36 0 56.5 18t37.5 50l93 -70q-16 -27 -27 -43.5t-33.5 -43t-51 -40.5t-60.5 -14q-47 0 -97.5 22.5t-99 45t-88.5 22.5q-55 0 -103 -72z" />
<glyph unicode="&#xa1;" horiz-adv-x="532" d="M164 -352l29 948h202l31 -948h-262zM174 860v197h240v-197h-240z" />
<glyph unicode="&#xa2;" horiz-adv-x="995" d="M117 352v336q0 171 121 271t319 106l41 268l150 -24l-41 -256q126 -25 227 -107l-88 -158q-107 80 -248 80q-113 0 -184.5 -53.5t-71.5 -148.5v-291q0 -99 74.5 -151t185.5 -52q143 0 252 70l82 -158q-129 -102 -356 -102q-5 0 -15.5 1t-15.5 1l-43 -256l-146 22l41 252 q-133 35 -208.5 123.5t-75.5 226.5z" />
<glyph unicode="&#xa3;" horiz-adv-x="1148" d="M100 594v158h256l-18 209q-4 109 40.5 194.5t128 140t197 83t252.5 30.5v-192q-194 0 -297 -64.5t-96 -194.5l21 -206h377v-158h-361q2 -27 5.5 -65t5 -57t1.5 -26q2 -95 -12.5 -149t-69.5 -104h529v-193h-953v127q87 4 145 27.5t87.5 65t40 89.5t8.5 115l-16 170h-271z " />
<glyph unicode="&#xa5;" horiz-adv-x="1255" d="M80 1393h256l299 -641l303 641h258l-373 -713h312v-111h-369l-21 -39v-112h388v-107h-388v-311h-225v311h-403v107h403v112l-20 39h-385v111h329z" />
<glyph unicode="&#xa6;" horiz-adv-x="352" d="M100 -221v674h150v-674h-150zM100 745v676h150v-676h-150z" />
<glyph unicode="&#xa7;" horiz-adv-x="1167" d="M102 608q0 78 49 153t113 99q-53 77 -53 201q0 166 114 258t293 92q131 0 233 -46.5t161 -131.5l-94 -105q-46 62 -126 99t-169 37q-101 0 -167.5 -56t-66.5 -149q0 -44 20.5 -83t49.5 -66t75 -53.5t84 -43t88 -36.5q16 -6 23 -9q63 -29 109 -54.5t94 -61.5t77.5 -75 t48.5 -92t19 -114q0 -84 -39.5 -159t-122.5 -112q60 -75 60 -184q0 -172 -116 -270.5t-294 -98.5q-132 0 -243 54.5t-168 148.5l110 98q34 -63 120.5 -108t172.5 -45q49 0 91 11t76.5 34.5t54.5 65.5t20 98q0 34 -14.5 66.5t-36 59t-56.5 53.5t-67 47t-77 42t-76.5 36 t-74.5 32q-73 32 -121 61t-90.5 71.5t-63 100.5t-20.5 135zM279 612q0 -48 18 -85t58 -66.5t78 -48.5t104 -47q167 -72 260 -138q42 6 76 48t34 83q0 38 -13.5 69.5t-33.5 55t-59 48t-74 42t-94 43.5q-141 60 -246 132q-45 -6 -76.5 -48t-31.5 -88z" />
<glyph unicode="&#xa8;" horiz-adv-x="778" d="M113 1198v178h176v-178h-176zM489 1198v178h177v-178h-177z" />
<glyph unicode="&#xa9;" horiz-adv-x="1648" d="M102 715q0 149 56 282.5t152 229.5t230.5 152.5t284.5 56.5q197 0 363 -95.5t262 -261.5t96 -364q0 -197 -96 -362t-261.5 -260t-363.5 -95q-150 0 -284.5 56t-230.5 151t-152 228t-56 282zM221 713q0 -165 80 -303t219.5 -217.5t306.5 -79.5q165 0 303 79.5t217.5 217.5 t79.5 303q0 167 -79.5 306t-218 219.5t-304.5 80.5t-305 -80.5t-219 -220t-80 -305.5zM457 651v97q0 138 112.5 234.5t266.5 96.5q102 0 173.5 -32t135.5 -107l-84 -102q-38 45 -100.5 72.5t-124.5 27.5q-91 0 -156.5 -55.5t-65.5 -134.5v-97q0 -85 67.5 -137.5t162.5 -54.5 q64 0 127.5 23.5t105.5 64.5l76 -107q-53 -58 -140 -89.5t-175 -31.5q-161 0 -271 93.5t-110 238.5z" />
<glyph unicode="&#xaa;" horiz-adv-x="722" d="M102 932v24q0 88 93 137.5t280 53.5v53q0 49 -25.5 69.5t-87.5 20.5q-48 0 -101.5 -14t-86.5 -33l-39 109q44 25 111 42t137 17q113 0 172 -53t59 -154v-428h-108l-14 78q-67 -86 -201 -86q-89 0 -139 43.5t-50 120.5zM240 948q0 -57 94 -57q55 0 95 24.5t40 59.5v78 q-229 -10 -229 -88v-17z" />
<glyph unicode="&#xab;" horiz-adv-x="964" d="M100 356l326 369l72 -76l-217 -289l215 -280l-70 -80zM469 356l324 369l69 -76l-215 -289l215 -280l-69 -80z" />
<glyph unicode="&#xac;" horiz-adv-x="933" d="M102 563v139h732v-329h-140v190h-592z" />
<glyph unicode="&#xad;" horiz-adv-x="712" d="M96 500v180h518v-180h-518z" />
<glyph unicode="&#xae;" horiz-adv-x="1648" d="M102 715q0 152 55 285.5t150.5 229t230 151t287.5 55.5q151 0 285 -55.5t229.5 -151t151 -229.5t55.5 -285t-55.5 -284.5t-151 -228t-229.5 -149.5t-285 -55q-204 0 -369.5 92.5t-259.5 257t-94 367.5zM221 713q0 -169 79 -306.5t217.5 -215.5t309.5 -78q126 0 237.5 46 t191 125.5t125.5 191t46 237.5q0 127 -46.5 239.5t-126 193t-191.5 127t-238 46.5q-170 0 -308.5 -79.5t-217 -218t-78.5 -308.5zM551 326v774h340q100 0 167.5 -64.5t67.5 -161.5v-34q0 -74 -44.5 -126t-120.5 -73l198 -315h-155l-191 301h-127v-301h-135zM686 733h186 q48 0 85.5 26.5t37.5 71.5v39q-2 46 -38 79.5t-85 33.5h-186v-250z" />
<glyph unicode="&#xaf;" horiz-adv-x="944" d="M113 1305v102h718v-102h-718z" />
<glyph unicode="&#xb0;" horiz-adv-x="784" d="M102 1118v58q0 104 82.5 169t204.5 68q122 -3 206.5 -68t84.5 -169v-58q0 -104 -84.5 -168.5t-206.5 -64.5t-204.5 64t-82.5 169zM246 1106q0 -44 42.5 -71t100.5 -27q59 0 103.5 27t44.5 71v82q0 44 -44.5 73t-103.5 29q-58 0 -100.5 -29t-42.5 -73v-82z" />
<glyph unicode="&#xb1;" horiz-adv-x="1136" d="M102 0v137h932v-137h-932zM123 625v147h352v334h166v-334h365v-147h-365v-357h-166v357h-352z" />
<glyph unicode="&#xb2;" horiz-adv-x="841" d="M133 1300q48 48 131.5 79.5t184.5 31.5q130 0 201 -53.5t71 -153.5q0 -132 -186 -217q-13 -6 -41 -19t-42 -20t-36.5 -19t-34.5 -21.5t-25.5 -22.5t-20.5 -27.5t-9 -30.5h403v-137h-590v92q0 53 17 96t51 76t74 57t98 50q33 13 48.5 19t45 20.5t44 26t26.5 28.5t12 35 q0 82 -137 82q-70 0 -121 -20t-102 -60z" />
<glyph unicode="&#xb3;" horiz-adv-x="757" d="M96 807l99 67q17 -42 74 -68t128 -26q66 0 108 18.5t42 57.5v25q0 46 -47 72t-107 26h-137v117h127q154 0 154 90v16q0 78 -144 78q-70 0 -123.5 -23.5t-72.5 -62.5l-82 76q27 63 113.5 103t185.5 40q60 0 109 -9.5t92 -31t67.5 -62t24.5 -98.5v-16q0 -63 -43 -104.5 t-99 -55.5q58 -14 103 -54.5t45 -100.5v-31q0 -56 -25 -97t-68 -63.5t-93 -32.5t-109 -10q-111 0 -202 44t-120 116z" />
<glyph unicode="&#xb4;" horiz-adv-x="548" d="M98 1161l217 305l144 -86l-246 -278z" />
<glyph unicode="&#xb6;" horiz-adv-x="1099" d="M102 1040v56q0 128 86.5 211t229.5 86h510v-1393h-127v1284h-170v-1284h-133v760h-80q-141 0 -228.5 75t-87.5 205z" />
<glyph unicode="&#xb7;" horiz-adv-x="415" d="M133 408v229h246v-229h-246z" />
<glyph unicode="&#xb8;" horiz-adv-x="522" d="M113 -174l41 174h133l-27 -104q14 -5 26.5 -11t37 -22.5t42 -36.5t31 -53t13.5 -72q0 -79 -64.5 -136t-177.5 -91l-53 96q143 54 143 125q0 102 -145 131z" />
<glyph unicode="&#xb9;" horiz-adv-x="491" d="M68 1239v154h309v-699h-172v545h-137z" />
<glyph unicode="&#xba;" horiz-adv-x="774" d="M102 1016v160q0 102 83.5 168.5t201.5 66.5q114 0 199.5 -67t85.5 -168v-162q0 -103 -84.5 -168.5t-200.5 -65.5q-118 0 -201.5 66.5t-83.5 169.5zM250 1026q6 -119 137 -119q54 0 95.5 26.5t41.5 70.5v182q-3 43 -43.5 69.5t-93.5 26.5q-54 0 -95.5 -28t-41.5 -72v-156z " />
<glyph unicode="&#xbb;" horiz-adv-x="954" d="M80 649l70 76l325 -369l-325 -356l-68 80l213 280zM446 649l70 76l326 -369l-326 -356l-67 80l215 280z" />
<glyph unicode="&#xbc;" d="M88 0l875 1393h192l-866 -1393h-201zM135 1239v154h309v-699h-174v545h-135zM616 158v98l349 477h221v-450h127v-125h-127v-156h-164v156h-406zM791 283h231v295h-14z" />
<glyph unicode="&#xbd;" horiz-adv-x="1419" d="M88 0l875 1393h192l-866 -1393h-201zM135 1239v154h309v-699h-174v545h-135zM743 598q48 48 131.5 79.5t184.5 31.5q129 0 200.5 -53t71.5 -152q0 -132 -186 -217q-15 -8 -56.5 -27t-59 -29t-43 -27.5t-37 -36t-13.5 -40.5h401v-137h-587v90q0 102 60 164.5t179 113.5 q39 15 60.5 24.5t52.5 27t46 36.5t15 41q0 84 -135 84q-124 0 -223 -79z" />
<glyph unicode="&#xbe;" horiz-adv-x="1542" d="M74 807l96 67q18 -42 75.5 -68t127.5 -26q67 0 109 18.5t42 57.5v25q0 46 -47 72t-108 26h-138v117h129q154 0 154 90v16q0 78 -143 78q-70 0 -125 -23.5t-72 -62.5l-82 76q27 63 113 103t186 40q291 0 291 -201v-16q0 -63 -42 -104.5t-97 -55.5q57 -14 102 -54.5 t45 -100.5v-31q0 -56 -25 -97t-68 -63.5t-93 -32.5t-109 -10q-113 0 -203.5 44t-117.5 116zM289 0l874 1393h195l-866 -1393h-203zM805 156v98l350 477h221v-450h127v-125h-127v-156h-166v156h-405zM981 281h229v294h-14z" />
<glyph unicode="&#xbf;" horiz-adv-x="858" d="M66 18q0 19 2.5 37t9 35.5t11 30t17.5 29.5t18.5 25.5t23 26l23 23t26 24.5t24.5 23q75 62 107 110.5t32 125.5v113h218v-142q0 -71 -38.5 -130t-113.5 -122q-34 -32 -48 -46t-38.5 -42t-34.5 -52t-10 -48v-82q0 -135 170 -135q65 0 135 30.5t123 71.5l86 -151 q-77 -61 -174.5 -103.5t-196.5 -42.5q-180 0 -276 76t-96 229v86zM322 825v234h278v-234h-278z" />
<glyph unicode="&#xc0;" horiz-adv-x="1314" d="M51 0l488 1407h245l476 -1407h-244l-117 371h-483l-119 -371h-246zM408 1792l149 90l207 -307l-109 -68zM463 551h391l-192 594z" />
<glyph unicode="&#xc1;" horiz-adv-x="1314" d="M51 0l488 1407h245l476 -1407h-244l-117 371h-483l-119 -371h-246zM463 551h391l-192 594zM551 1563l217 305l143 -86l-245 -279z" />
<glyph unicode="&#xc2;" horiz-adv-x="1314" d="M51 0l488 1407h245l476 -1407h-244l-117 371h-483l-119 -371h-246zM387 1589l268 180l267 -184l-72 -88l-195 119l-198 -117zM463 551h391l-192 594z" />
<glyph unicode="&#xc3;" horiz-adv-x="1314" d="M51 0l488 1407h245l476 -1407h-244l-117 371h-483l-119 -371h-246zM334 1593q81 136 192 136q49 0 139 -44.5t128 -44.5q60 2 92 68l94 -70q-16 -27 -27 -43.5t-33.5 -43t-51 -40.5t-60.5 -14q-47 0 -97.5 22.5t-99 45t-88.5 22.5q-55 0 -102 -71zM463 551h391l-192 594z " />
<glyph unicode="&#xc4;" horiz-adv-x="1314" d="M51 0l488 1407h245l476 -1407h-244l-117 371h-483l-119 -371h-246zM379 1530v178h176v-178h-176zM463 551h391l-192 594zM756 1530v178h176v-178h-176z" />
<glyph unicode="&#xc5;" horiz-adv-x="1314" d="M51 0l488 1407h245l476 -1407h-244l-117 371h-483l-119 -371h-246zM463 551h391l-192 594zM494 1659q0 67 47 112.5t112 45.5q67 0 115.5 -45.5t48.5 -112.5q0 -66 -49 -113t-115 -47q-65 0 -112 47t-47 113zM573 1655q0 -32 24 -56t58 -24q32 0 57 24t25 56 q0 35 -24.5 60.5t-57.5 25.5q-34 0 -58 -25.5t-24 -60.5z" />
<glyph unicode="&#xc6;" horiz-adv-x="1824" d="M20 0l861 1393h823v-195h-514v-391h426v-182h-426v-432h563v-193h-786v348h-473l-213 -348h-261zM584 530h383v646z" />
<glyph unicode="&#xc7;" horiz-adv-x="1204" d="M135 434v522q0 138 72 243t191 159.5t264 54.5q149 0 257 -35.5t195 -111.5l-98 -160q-141 111 -340 111q-137 0 -227.5 -74t-90.5 -199v-498q0 -133 88.5 -202.5t235.5 -69.5q206 0 336 92l88 -157q-83 -66 -179.5 -96t-230.5 -33l-20 -84q19 -7 36.5 -16.5t47.5 -32 t48.5 -60.5t18.5 -86q0 -78 -64.5 -135.5t-176.5 -93.5l-56 98q144 54 144 125q0 94 -144 131l33 160q-196 24 -312 139t-116 309z" />
<glyph unicode="&#xc8;" horiz-adv-x="1142" d="M166 0v1393h831v-195h-608v-395h496v-189h-496v-421h655v-193h-878zM346 1778l150 90l206 -307l-108 -68z" />
<glyph unicode="&#xc9;" horiz-adv-x="1144" d="M166 0v1393h831v-195h-608v-395h496v-189h-496v-421h655v-193h-878zM492 1548l217 305l143 -86l-246 -278z" />
<glyph unicode="&#xca;" horiz-adv-x="1142" d="M166 0v1393h831v-195h-608v-395h496v-189h-496v-421h655v-193h-878zM328 1575l268 180l266 -184l-71 -88l-195 119l-199 -117z" />
<glyph unicode="&#xcb;" horiz-adv-x="1142" d="M166 0v1393h831v-195h-608v-395h496v-189h-496v-421h655v-193h-878zM322 1516v178h176v-178h-176zM698 1516v178h176v-178h-176z" />
<glyph unicode="&#xcc;" horiz-adv-x="616" d="M59 1778l150 90l207 -307l-109 -68zM197 0v1393h221v-1393h-221z" />
<glyph unicode="&#xcd;" horiz-adv-x="616" d="M197 0v1393h221v-1393h-221zM201 1548l217 305l143 -86l-246 -278z" />
<glyph unicode="&#xce;" horiz-adv-x="616" d="M41 1575l268 180l266 -184l-71 -88l-195 119l-198 -117zM197 0v1393h221v-1393h-221z" />
<glyph unicode="&#xcf;" horiz-adv-x="616" d="M33 1516v178h176v-178h-176zM197 0v1393h221v-1393h-221zM410 1516v178h176v-178h-176z" />
<glyph unicode="&#xd0;" horiz-adv-x="1341" d="M27 610v176h139v607h487q158 0 279.5 -52t194.5 -161.5t73 -264.5v-442q0 -118 -44 -210t-121.5 -148.5t-177 -85.5t-216.5 -29h-475v610h-139zM387 193h254q70 0 129.5 17t107 51.5t74.5 92.5t27 135v412q0 142 -93.5 219.5t-232.5 77.5h-266v-412h301v-176h-301v-417z " />
<glyph unicode="&#xd1;" horiz-adv-x="1439" d="M160 0v1393h219l678 -1055v1055h209v-1393h-217l-682 1055v-1055h-207zM408 1577q80 135 190 135q49 0 139.5 -43.5t128.5 -44.5q34 1 54.5 19t37.5 49l95 -70q-45 -76 -81 -105q-43 -36 -93 -36q-56 0 -145.5 45t-137.5 45q-54 0 -102 -72z" />
<glyph unicode="&#xd2;" d="M133 432v529q0 208 150 330t385 122h32q236 0 389.5 -123.5t153.5 -328.5v-529q0 -215 -148 -333.5t-395 -118.5h-30q-244 0 -390.5 118t-146.5 334zM356 446q0 -135 84 -204.5t230 -69.5h30q149 0 234.5 69.5t85.5 204.5v500q0 127 -89 200t-231 73h-32 q-138 0 -225 -73.5t-87 -199.5v-500zM434 1798l150 90l207 -307l-109 -68z" />
<glyph unicode="&#xd3;" d="M133 432v529q0 208 150 330t385 122h32q236 0 389.5 -123.5t153.5 -328.5v-529q0 -215 -148 -333.5t-395 -118.5h-30q-244 0 -390.5 118t-146.5 334zM356 446q0 -135 84 -204.5t230 -69.5h30q149 0 234.5 69.5t85.5 204.5v500q0 127 -89 200t-231 73h-32 q-138 0 -225 -73.5t-87 -199.5v-500zM575 1569l218 305l143 -86l-246 -279z" />
<glyph unicode="&#xd4;" d="M133 432v529q0 208 150 330t385 122h32q236 0 389.5 -123.5t153.5 -328.5v-529q0 -215 -148 -333.5t-395 -118.5h-30q-244 0 -390.5 118t-146.5 334zM356 446q0 -135 84 -204.5t230 -69.5h30q149 0 234.5 69.5t85.5 204.5v500q0 127 -89 200t-231 73h-32 q-138 0 -225 -73.5t-87 -199.5v-500zM414 1595l268 181l266 -185l-71 -88l-195 119l-199 -117z" />
<glyph unicode="&#xd5;" d="M133 432v529q0 208 150 330t385 122h32q236 0 389.5 -123.5t153.5 -328.5v-529q0 -215 -148 -333.5t-395 -118.5h-30q-244 0 -390.5 118t-146.5 334zM356 446q0 -135 84 -204.5t230 -69.5h30q149 0 234.5 69.5t85.5 204.5v500q0 127 -89 200t-231 73h-32 q-138 0 -225 -73.5t-87 -199.5v-500zM358 1597q81 136 193 136q49 0 138.5 -44t127.5 -44q36 0 56.5 18t37.5 49l93 -70q-15 -26 -26.5 -43t-34.5 -43.5t-51.5 -40.5t-60.5 -14q-47 0 -97.5 22.5t-98.5 45t-88 22.5q-56 0 -103 -71z" />
<glyph unicode="&#xd6;" d="M133 432v529q0 208 150 330t385 122h32q236 0 389.5 -123.5t153.5 -328.5v-529q0 -215 -148 -333.5t-395 -118.5h-30q-244 0 -390.5 118t-146.5 334zM356 446q0 -135 84 -204.5t230 -69.5h30q149 0 234.5 69.5t85.5 204.5v500q0 127 -89 200t-231 73h-32 q-138 0 -225 -73.5t-87 -199.5v-500zM406 1536v178h176v-178h-176zM784 1536v178h174v-178h-174z" />
<glyph unicode="&#xd7;" horiz-adv-x="1202" d="M98 0l406 514l-385 490h184l295 -371l299 371h184l-385 -490l406 -514h-197l-307 391l-307 -391h-193z" />
<glyph unicode="&#xd8;" d="M133 432v529q0 208 150 330t385 122h32q117 0 230 -37l84 183h135l-109 -234q96 -60 149.5 -153.5t53.5 -210.5v-529q0 -215 -148 -333.5t-395 -118.5h-30q-124 0 -236 32l-74 -162h-143l102 218q-186 119 -186 364zM356 446q0 -105 62 -170l424 920q-67 23 -142 23h-32 q-138 0 -225 -73.5t-87 -199.5v-500zM520 195q71 -23 150 -23h30q149 0 234.5 69.5t85.5 204.5v500q0 105 -74 176z" />
<glyph unicode="&#xd9;" horiz-adv-x="1427" d="M162 440v953h223v-942q0 -93 46.5 -157.5t119 -93t162.5 -28.5q137 0 232 73.5t95 205.5v942h224v-953q0 -112 -43 -201t-118 -145t-174 -85t-214 -29q-117 0 -216.5 28.5t-175 84t-118.5 144.5t-43 203zM463 1778l149 90l207 -307l-108 -68z" />
<glyph unicode="&#xda;" horiz-adv-x="1427" d="M162 440v953h223v-942q0 -93 46.5 -157.5t119 -93t162.5 -28.5q137 0 232 73.5t95 205.5v942h224v-953q0 -112 -43 -201t-118 -145t-174 -85t-214 -29q-117 0 -216.5 28.5t-175 84t-118.5 144.5t-43 203zM606 1548l217 305l144 -86l-246 -278z" />
<glyph unicode="&#xdb;" horiz-adv-x="1427" d="M162 440v953h223v-942q0 -93 46.5 -157.5t119 -93t162.5 -28.5q137 0 232 73.5t95 205.5v942h224v-953q0 -112 -43 -201t-118 -145t-174 -85t-214 -29q-117 0 -216.5 28.5t-175 84t-118.5 144.5t-43 203zM442 1575l269 180l266 -184l-72 -88l-194 119l-199 -117z" />
<glyph unicode="&#xdc;" horiz-adv-x="1427" d="M162 440v953h223v-942q0 -93 46.5 -157.5t119 -93t162.5 -28.5q137 0 232 73.5t95 205.5v942h224v-953q0 -112 -43 -201t-118 -145t-174 -85t-214 -29q-117 0 -216.5 28.5t-175 84t-118.5 144.5t-43 203zM436 1516v178h176v-178h-176zM813 1516v178h176v-178h-176z" />
<glyph unicode="&#xdd;" horiz-adv-x="1253" d="M66 1393h258l299 -643l303 643h258l-451 -863v-530h-225v532zM520 1548l217 305l144 -86l-246 -278z" />
<glyph unicode="&#xde;" horiz-adv-x="1187" d="M166 0v1393h223v-265h299q185 0 297.5 -106t112.5 -274v-39q0 -167 -109.5 -262t-300.5 -95h-299v-352h-223zM389 545h285q91 0 145.5 45.5t54.5 118.5v39q0 76 -56 133t-146 57h-283v-393z" />
<glyph unicode="&#xe0;" horiz-adv-x="1071" d="M78 262v45q0 63 29.5 113.5t83 83t116 55.5t141.5 35t146 17.5t141 6.5v95q0 87 -47 126.5t-164 39.5q-73 0 -175 -23t-146 -49l-58 160q67 41 187 69.5t221 28.5q202 0 301.5 -88.5t99.5 -251.5v-725h-176l-24 147q-42 -68 -132 -114.5t-212 -46.5q-158 0 -245 74 t-87 202zM289 1481l149 90l207 -307l-108 -68zM303 289q0 -129 174 -129q106 0 181 47.5t75 109.5v164q-66 -2 -118 -6t-113.5 -15.5t-102.5 -28.5t-68.5 -47t-27.5 -69v-26z" />
<glyph unicode="&#xe1;" horiz-adv-x="1071" d="M78 262v45q0 63 29.5 113.5t83 83t116 55.5t141.5 35t146 17.5t141 6.5v95q0 87 -47 126.5t-164 39.5q-73 0 -175 -23t-146 -49l-58 160q67 41 187 69.5t221 28.5q202 0 301.5 -88.5t99.5 -251.5v-725h-176l-24 147q-42 -68 -132 -114.5t-212 -46.5q-158 0 -245 74 t-87 202zM303 289q0 -129 174 -129q106 0 181 47.5t75 109.5v164q-66 -2 -118 -6t-113.5 -15.5t-102.5 -28.5t-68.5 -47t-27.5 -69v-26zM432 1251l217 305l144 -86l-246 -278z" />
<glyph unicode="&#xe2;" horiz-adv-x="1071" d="M78 262v45q0 63 29.5 113.5t83 83t116 55.5t141.5 35t146 17.5t141 6.5v95q0 87 -47 126.5t-164 39.5q-73 0 -175 -23t-146 -49l-58 160q67 41 187 69.5t221 28.5q202 0 301.5 -88.5t99.5 -251.5v-725h-176l-24 147q-42 -68 -132 -114.5t-212 -46.5q-158 0 -245 74 t-87 202zM268 1278l269 180l266 -184l-72 -88l-194 119l-199 -117zM303 289q0 -129 174 -129q106 0 181 47.5t75 109.5v164q-66 -2 -118 -6t-113.5 -15.5t-102.5 -28.5t-68.5 -47t-27.5 -69v-26z" />
<glyph unicode="&#xe3;" horiz-adv-x="1071" d="M78 262v45q0 63 29.5 113.5t83 83t116 55.5t141.5 35t146 17.5t141 6.5v95q0 87 -47 126.5t-164 39.5q-73 0 -175 -23t-146 -49l-58 160q67 41 187 69.5t221 28.5q202 0 301.5 -88.5t99.5 -251.5v-725h-176l-24 147q-42 -68 -132 -114.5t-212 -46.5q-158 0 -245 74 t-87 202zM213 1282q80 135 193 135q49 0 138.5 -44t127.5 -44q36 0 56.5 18t37.5 50l92 -70q-16 -27 -27 -43.5t-33.5 -43t-51 -40.5t-60.5 -14q-47 0 -97.5 22.5t-99 45t-88.5 22.5q-54 0 -102 -72zM303 289q0 -129 174 -129q106 0 181 47.5t75 109.5v164q-66 -2 -118 -6 t-113.5 -15.5t-102.5 -28.5t-68.5 -47t-27.5 -69v-26z" />
<glyph unicode="&#xe4;" horiz-adv-x="1071" d="M78 262v45q0 63 29.5 113.5t83 83t116 55.5t141.5 35t146 17.5t141 6.5v95q0 87 -47 126.5t-164 39.5q-73 0 -175 -23t-146 -49l-58 160q67 41 187 69.5t221 28.5q202 0 301.5 -88.5t99.5 -251.5v-725h-176l-24 147q-42 -68 -132 -114.5t-212 -46.5q-158 0 -245 74 t-87 202zM262 1219v178h176v-178h-176zM303 289q0 -129 174 -129q106 0 181 47.5t75 109.5v164q-66 -2 -118 -6t-113.5 -15.5t-102.5 -28.5t-68.5 -47t-27.5 -69v-26zM639 1219v178h176v-178h-176z" />
<glyph unicode="&#xe5;" horiz-adv-x="1071" d="M78 262v45q0 63 29.5 113.5t83 83t116 55.5t141.5 35t146 17.5t141 6.5v95q0 87 -47 126.5t-164 39.5q-73 0 -175 -23t-146 -49l-58 160q67 41 187 69.5t221 28.5q202 0 301.5 -88.5t99.5 -251.5v-725h-176l-24 147q-42 -68 -132 -114.5t-212 -46.5q-158 0 -245 74 t-87 202zM303 289q0 -129 174 -129q106 0 181 47.5t75 109.5v164q-66 -2 -118 -6t-113.5 -15.5t-102.5 -28.5t-68.5 -47t-27.5 -69v-26zM375 1348q0 67 47 112t113 45q67 0 115 -45t48 -112q0 -66 -48.5 -113t-114.5 -47q-65 0 -112.5 47t-47.5 113zM455 1343 q0 -32 24 -55.5t58 -23.5q32 0 56.5 23.5t24.5 55.5q0 35 -24.5 61t-56.5 26q-34 0 -58 -26t-24 -61z" />
<glyph unicode="&#xe6;" horiz-adv-x="1746" d="M78 301v213l659 78v123q0 176 -217 176q-72 0 -170.5 -24.5t-156.5 -49.5l-54 150q73 45 185 77.5t215 32.5q118 0 198.5 -36.5t120.5 -100.5q57 64 153.5 101.5t215.5 37.5q190 0 310 -92.5t120 -261.5v-184l-678 -66v-115q0 -89 79 -137.5t210 -48.5q93 0 182.5 28.5 t138.5 61.5l82 -141q-165 -137 -414 -137q-327 0 -436 182q-55 -95 -152 -138.5t-214 -43.5q-170 0 -273.5 84.5t-103.5 230.5zM291 305q0 -68 59.5 -106.5t153.5 -38.5q95 0 165 39.5t70 115.5v142l-448 -54v-98zM979 612l473 43v82q0 82 -62.5 123t-166.5 41 q-100 0 -172 -51t-72 -125v-113z" />
<glyph unicode="&#xe7;" horiz-adv-x="1005" d="M117 352v336q0 176 127.5 276.5t333.5 100.5q211 0 356 -119l-88 -158q-107 80 -248 80q-113 0 -184.5 -53.5t-71.5 -148.5v-291q0 -99 74.5 -151t185.5 -52q143 0 252 70l82 -158q-123 -99 -338 -102l-20 -86q19 -7 36.5 -16.5t47.5 -32t48.5 -60.5t18.5 -86 q0 -78 -65 -135.5t-177 -93.5l-55 98q143 54 143 125q0 95 -143 131l35 164q-161 24 -255.5 116t-94.5 246z" />
<glyph unicode="&#xe8;" horiz-adv-x="1122" d="M106 354v357q0 101 67 183t173 125.5t227 43.5q188 0 317.5 -98.5t129.5 -253.5v-240h-690v-109q0 -93 79 -141.5t201 -48.5q194 0 320 74l74 -152q-156 -106 -406 -106q-131 0 -240.5 39.5t-180.5 124.5t-71 202zM309 1481l150 90l207 -307l-109 -68zM330 625h481v82 q0 77 -71 126.5t-167 49.5q-94 0 -167 -50.5t-76 -127.5v-80z" />
<glyph unicode="&#xe9;" horiz-adv-x="1122" d="M106 354v357q0 101 67 183t173 125.5t227 43.5q188 0 317.5 -98.5t129.5 -253.5v-240h-690v-109q0 -93 79 -141.5t201 -48.5q194 0 320 74l74 -152q-156 -106 -406 -106q-131 0 -240.5 39.5t-180.5 124.5t-71 202zM330 625h481v82q0 77 -71 126.5t-167 49.5 q-94 0 -167 -50.5t-76 -127.5v-80zM453 1253l217 306l143 -86l-246 -279z" />
<glyph unicode="&#xea;" horiz-adv-x="1122" d="M106 354v357q0 101 67 183t173 125.5t227 43.5q188 0 317.5 -98.5t129.5 -253.5v-240h-690v-109q0 -93 79 -141.5t201 -48.5q194 0 320 74l74 -152q-156 -106 -406 -106q-131 0 -240.5 39.5t-180.5 124.5t-71 202zM291 1280l268 180l266 -184l-71 -88l-195 119l-199 -117 zM330 625h481v82q0 77 -71 126.5t-167 49.5q-94 0 -167 -50.5t-76 -127.5v-80z" />
<glyph unicode="&#xeb;" horiz-adv-x="1122" d="M106 354v357q0 101 67 183t173 125.5t227 43.5q188 0 317.5 -98.5t129.5 -253.5v-240h-690v-109q0 -93 79 -141.5t201 -48.5q194 0 320 74l74 -152q-156 -106 -406 -106q-131 0 -240.5 39.5t-180.5 124.5t-71 202zM283 1221v178h176v-178h-176zM330 625h481v82 q0 77 -71 126.5t-167 49.5q-94 0 -167 -50.5t-76 -127.5v-80zM659 1221v178h177v-178h-177z" />
<glyph unicode="&#xec;" horiz-adv-x="565" d="M35 1464l149 90l207 -307l-108 -67zM170 0v1055h223v-1055h-223z" />
<glyph unicode="&#xed;" horiz-adv-x="565" d="M170 0v1055h223v-1055h-223zM174 1237l217 305l144 -86l-246 -278z" />
<glyph unicode="&#xee;" horiz-adv-x="565" d="M14 1264l269 180l266 -184l-72 -89l-194 119l-199 -116zM170 0v1055h223v-1055h-223z" />
<glyph unicode="&#xef;" horiz-adv-x="565" d="M8 1206v178h176v-178h-176zM170 0v1055h223v-1055h-223zM385 1206v178h176v-178h-176z" />
<glyph unicode="&#xf0;" horiz-adv-x="1159" d="M109 350v256q0 160 112 265.5t293 105.5q85 0 167 -26.5t134 -80.5q-54 181 -225 326l-289 -129l-53 104l231 103q-117 85 -231 110l90 156q215 -59 369 -184l264 119l55 -107l-223 -100q244 -254 244 -602v-316q0 -107 -64 -192t-173 -131.5t-241 -46.5 q-126 0 -230.5 45.5t-167 130.5t-62.5 194zM334 373q0 -89 69 -145t168 -56q101 0 176.5 57t75.5 142v209q0 90 -74.5 146t-179.5 56q-100 0 -167.5 -55.5t-67.5 -142.5v-211z" />
<glyph unicode="&#xf1;" horiz-adv-x="1226" d="M145 0v1044h183l18 -180q134 199 365 199q187 0 283 -95t96 -272v-696h-226v672q0 98 -56.5 149t-162.5 51q-102 0 -189 -64.5t-87 -152.5v-655h-224zM289 1284q80 135 192 135q49 0 139 -44t128 -44q60 2 92 68l94 -70q-16 -27 -27 -43.5t-33.5 -43t-51 -40.5t-60.5 -14 q-47 0 -97.5 22.5t-99 45t-88.5 22.5q-54 0 -102 -72z" />
<glyph unicode="&#xf2;" horiz-adv-x="1159" d="M106 356v334q0 170 136 271.5t340 101.5q207 0 338 -101t131 -272v-334q0 -113 -66 -199t-171.5 -129.5t-231.5 -43.5q-128 0 -235 43t-174 129t-67 200zM324 1481l149 90l207 -307l-109 -68zM330 369q0 -90 73.5 -143.5t178.5 -53.5q99 0 172 53.5t73 143.5v309 q0 88 -72 140t-173 52q-102 0 -177 -52.5t-75 -139.5v-309z" />
<glyph unicode="&#xf3;" horiz-adv-x="1159" d="M106 356v334q0 170 136 271.5t340 101.5q207 0 338 -101t131 -272v-334q0 -113 -66 -199t-171.5 -129.5t-231.5 -43.5q-128 0 -235 43t-174 129t-67 200zM330 369q0 -90 73.5 -143.5t178.5 -53.5q99 0 172 53.5t73 143.5v309q0 88 -72 140t-173 52q-102 0 -177 -52.5 t-75 -139.5v-309zM467 1253l217 306l143 -86l-245 -279z" />
<glyph unicode="&#xf4;" horiz-adv-x="1159" d="M106 356v334q0 170 136 271.5t340 101.5q207 0 338 -101t131 -272v-334q0 -113 -66 -199t-171.5 -129.5t-231.5 -43.5q-128 0 -235 43t-174 129t-67 200zM305 1280l268 180l267 -184l-72 -88l-195 119l-198 -117zM330 369q0 -90 73.5 -143.5t178.5 -53.5q99 0 172 53.5 t73 143.5v309q0 88 -72 140t-173 52q-102 0 -177 -52.5t-75 -139.5v-309z" />
<glyph unicode="&#xf5;" horiz-adv-x="1159" d="M106 356v334q0 170 136 271.5t340 101.5q207 0 338 -101t131 -272v-334q0 -113 -66 -199t-171.5 -129.5t-231.5 -43.5q-128 0 -235 43t-174 129t-67 200zM250 1284q80 135 192 135q49 0 139 -44t128 -44q60 2 92 68l94 -70q-16 -27 -27 -43.5t-33.5 -43t-51 -40.5 t-60.5 -14q-47 0 -97.5 22.5t-99 45t-88.5 22.5q-54 0 -102 -72zM330 369q0 -90 73.5 -143.5t178.5 -53.5q99 0 172 53.5t73 143.5v309q0 88 -72 140t-173 52q-102 0 -177 -52.5t-75 -139.5v-309z" />
<glyph unicode="&#xf6;" horiz-adv-x="1159" d="M106 356v334q0 170 136 271.5t340 101.5q207 0 338 -101t131 -272v-334q0 -113 -66 -199t-171.5 -129.5t-231.5 -43.5q-128 0 -235 43t-174 129t-67 200zM297 1221v178h176v-178h-176zM330 369q0 -90 73.5 -143.5t178.5 -53.5q99 0 172 53.5t73 143.5v309q0 88 -72 140 t-173 52q-102 0 -177 -52.5t-75 -139.5v-309zM674 1221v178h176v-178h-176z" />
<glyph unicode="&#xf7;" horiz-adv-x="1400" d="M100 502v139h1198v-139h-1198zM586 133v223h231v-223h-231zM586 778v223h231v-223h-231z" />
<glyph unicode="&#xf8;" horiz-adv-x="1159" d="M106 356v334q0 170 136 271.5t340 101.5q128 0 223 -39l80 135h119l-107 -180q154 -108 154 -289v-334q0 -113 -66 -199t-171.5 -129.5t-231.5 -43.5q-139 0 -246 49l-90 -152h-123l121 203q-138 108 -138 272zM330 369q0 -51 28 -93l342 572q-58 22 -118 22 q-102 0 -177 -52.5t-75 -139.5v-309zM438 205q68 -33 144 -33q99 0 172 53.5t73 143.5v309q0 61 -47 108z" />
<glyph unicode="&#xf9;" horiz-adv-x="1216" d="M143 352v692h224v-677q0 -93 68 -144t175 -51t176.5 52t69.5 143v677h223v-692q0 -116 -63.5 -202t-168.5 -128t-237 -42q-134 0 -238.5 42t-166.5 127.5t-62 202.5zM358 1460l150 90l207 -307l-109 -67z" />
<glyph unicode="&#xfa;" horiz-adv-x="1216" d="M143 352v692h224v-677q0 -93 68 -144t175 -51t176.5 52t69.5 143v677h223v-692q0 -116 -63.5 -202t-168.5 -128t-237 -42q-134 0 -238.5 42t-166.5 127.5t-62 202.5zM502 1233l217 305l143 -86l-246 -278z" />
<glyph unicode="&#xfb;" horiz-adv-x="1216" d="M143 352v692h224v-677q0 -93 68 -144t175 -51t176.5 52t69.5 143v677h223v-692q0 -116 -63.5 -202t-168.5 -128t-237 -42q-134 0 -238.5 42t-166.5 127.5t-62 202.5zM338 1260l268 180l266 -185l-71 -88l-195 119l-198 -117z" />
<glyph unicode="&#xfc;" horiz-adv-x="1216" d="M143 352v692h224v-677q0 -93 68 -144t175 -51t176.5 52t69.5 143v677h223v-692q0 -116 -63.5 -202t-168.5 -128t-237 -42q-134 0 -238.5 42t-166.5 127.5t-62 202.5zM330 1202v178h176v-178h-176zM707 1202v178h176v-178h-176z" />
<glyph unicode="&#xfd;" horiz-adv-x="1075" d="M45 1044h238l252 -802l251 802h238l-412 -1163q-115 -321 -458 -321l-25 168q89 0 163 46.5t105 133.5l25 65zM426 1237l217 305l143 -86l-245 -278z" />
<glyph unicode="&#xfe;" horiz-adv-x="1218" d="M145 -467v1878h224v-491q128 147 321 147q184 0 300 -102.5t116 -266.5v-344q0 -164 -116.5 -269t-299.5 -105q-218 0 -332 141v-588h-213zM385 362q0 -87 75 -145.5t179 -58.5q101 0 172.5 57t71.5 152v315q0 97 -69.5 152t-174.5 55q-103 0 -178.5 -59.5t-75.5 -147.5 v-320z" />
<glyph unicode="&#xff;" horiz-adv-x="1075" d="M45 1044h238l252 -802l251 802h238l-412 -1163q-115 -321 -458 -321l-25 168q89 0 163 46.5t105 133.5l25 65zM258 1202v178h176v-178h-176zM635 1202v178h176v-178h-176z" />
<glyph unicode="&#x152;" horiz-adv-x="1861" d="M88 453v485q0 88 47 171t125 145t184.5 99.5t219.5 37.5h1081v-193h-571v-381h483v-188h-481v-436h618v-193h-1128q-158 0 -291 60.5t-210 164.5t-77 228zM311 475q3 -122 106 -202t249 -80h284v1005h-286q-133 0 -243 -87t-110 -196v-440z" />
<glyph unicode="&#x153;" horiz-adv-x="1802" d="M102 356v357q0 162 120 261t313 99q122 0 232.5 -46t162.5 -140q53 85 147.5 137.5t208.5 52.5q126 0 226 -38t163.5 -120t63.5 -198v-184l-678 -91v-100q0 -58 43 -100t105.5 -61t133.5 -19q81 0 174 23.5t146 56.5l84 -142q-161 -110 -414 -110q-294 0 -407 190 q-51 -98 -156.5 -146t-232.5 -48q-192 0 -313.5 101.5t-121.5 264.5zM328 369q0 -80 70.5 -133.5t170.5 -53.5q95 0 166.5 50.5t75.5 125.5v353q-3 75 -75.5 124.5t-168.5 49.5q-99 0 -169 -53t-70 -132v-331zM1059 598l452 57v62q0 73 -62.5 120.5t-148.5 47.5 q-95 -3 -165.5 -52.5t-73.5 -121.5z" />
<glyph unicode="&#x178;" horiz-adv-x="1253" d="M66 1393h258l299 -643l303 643h258l-451 -863v-530h-225v532zM350 1516v178h176v-178h-176zM727 1516v178h176v-178h-176z" />
<glyph unicode="&#x2c6;" horiz-adv-x="741" d="M102 1262l269 180l266 -185l-72 -88l-194 119l-199 -117z" />
<glyph unicode="&#x2dc;" horiz-adv-x="866" d="M109 1282q80 135 192 135q49 0 138.5 -44t127.5 -44q60 2 92 68l95 -70q-16 -27 -27 -43.5t-33.5 -43t-51 -40.5t-60.5 -14q-47 0 -97.5 22.5t-99 45t-88.5 22.5q-54 0 -102 -72z" />
<glyph unicode="&#x2000;" horiz-adv-x="944" />
<glyph unicode="&#x2001;" horiz-adv-x="1888" />
<glyph unicode="&#x2002;" horiz-adv-x="944" />
<glyph unicode="&#x2003;" horiz-adv-x="1888" />
<glyph unicode="&#x2004;" horiz-adv-x="629" />
<glyph unicode="&#x2005;" horiz-adv-x="472" />
<glyph unicode="&#x2006;" horiz-adv-x="314" />
<glyph unicode="&#x2007;" horiz-adv-x="314" />
<glyph unicode="&#x2008;" horiz-adv-x="236" />
<glyph unicode="&#x2009;" horiz-adv-x="377" />
<glyph unicode="&#x200a;" horiz-adv-x="104" />
<glyph unicode="&#x2010;" horiz-adv-x="712" d="M96 500v180h518v-180h-518z" />
<glyph unicode="&#x2011;" horiz-adv-x="712" d="M96 500v180h518v-180h-518z" />
<glyph unicode="&#x2012;" horiz-adv-x="712" d="M96 500v180h518v-180h-518z" />
<glyph unicode="&#x2013;" horiz-adv-x="1196" d="M12 528v146h1162v-146h-1162z" />
<glyph unicode="&#x2014;" horiz-adv-x="1630" d="M14 530v144h1598v-144h-1598z" />
<glyph unicode="&#x2018;" horiz-adv-x="299" d="M51 1008v57q0 269 135 389l93 -57q-52 -94 -52 -264v-125h-176z" />
<glyph unicode="&#x2019;" horiz-adv-x="309" d="M6 1073q37 53 56.5 110t19.5 146v123h190v-53q0 -80 -12.5 -144t-37.5 -110t-46 -73.5t-53 -59.5z" />
<glyph unicode="&#x201a;" horiz-adv-x="479" d="M164 -205q38 55 58 111t20 147v121h190v-53q0 -79 -13 -143t-38 -110.5t-45.5 -73.5t-52.5 -60z" />
<glyph unicode="&#x201c;" horiz-adv-x="591" d="M51 1008v55q0 271 135 391l93 -59q-52 -91 -52 -265v-122h-176zM340 1008v55q0 271 135 391l92 -59q-51 -89 -51 -265v-122h-176z" />
<glyph unicode="&#x201d;" horiz-adv-x="606" d="M6 1038q37 53 56.5 109t19.5 147v123h190v-55q0 -79 -13 -143t-37 -110t-46 -74t-53 -58zM299 1038q37 53 56.5 109t19.5 147v123h192v-55q0 -79 -13 -143t-38 -110t-46.5 -73.5t-53.5 -58.5z" />
<glyph unicode="&#x201e;" horiz-adv-x="845" d="M164 -203q38 55 58 111t20 147v121h190v-53q0 -79 -13 -143t-38 -110.5t-45.5 -73.5t-52.5 -60zM498 -201q37 55 56 111t19 147v121h191v-53q0 -79 -13 -143t-37.5 -110.5t-46 -74t-53.5 -59.5z" />
<glyph unicode="&#x2022;" horiz-adv-x="698" d="M154 350v387h391v-387h-391z" />
<glyph unicode="&#x2026;" horiz-adv-x="1576" d="M154 0v231h231v-231h-231zM672 0v231h233v-231h-233zM1190 0v231h233v-231h-233z" />
<glyph unicode="&#x202f;" horiz-adv-x="377" />
<glyph unicode="&#x2039;" horiz-adv-x="600" d="M90 356l316 369l100 -76l-215 -289l215 -280l-100 -80z" />
<glyph unicode="&#x203a;" horiz-adv-x="600" d="M92 80l215 280l-215 289l101 76l317 -369l-317 -356z" />
<glyph unicode="&#x205f;" horiz-adv-x="472" />
<glyph unicode="&#x20ac;" horiz-adv-x="1370" d="M72 520v115h182v139h-182v113h182v69q0 137 71.5 242t190.5 160t264 55q148 0 256.5 -36t196.5 -111l-98 -158q-138 111 -340 111q-137 0 -227.5 -74t-90.5 -199v-59h547v-113h-547v-139h547v-115h-547v-74q0 -135 88 -204.5t234 -69.5q212 0 338 92l90 -155 q-86 -69 -191 -99t-254 -30q-154 0 -271.5 50t-187 154t-69.5 250v86h-182z" />
<glyph unicode="&#x2122;" horiz-adv-x="1136" d="M80 1341v93h385v-93h-143v-342h-99v342h-143zM551 1004v430h102l113 -195l119 195h102v-430h-100v268l-101 -168h-41l-96 170v-270h-98z" />
<glyph unicode="&#x25fc;" horiz-adv-x="1044" d="M0 0v1044h1044v-1044h-1044z" />
<glyph unicode="&#xfb03;" horiz-adv-x="1933" d="M49 893v151h131v127q0 102 59.5 174.5t154.5 106t214 33.5q190 0 414 -60q114 60 268 60q214 0 447 -68l-37 -157q-218 38 -371 38q-246 0 -246 -163v-91h252v-151h-252v-893h-221v893h-461v-893h-221v893h-131zM401 1044h461v127q0 53 21 111q-109 16 -236 16 q-246 0 -246 -163v-91zM1544 0v1044h221v-1044h-221z" />
<glyph unicode="&#xfb04;" horiz-adv-x="1937" d="M49 893v151h131v127q0 102 59.5 174.5t154.5 106t214 33.5q190 0 414 -60q114 60 268 60q212 0 475 -76v-1409h-221v1284q-107 14 -215 14q-246 0 -246 -163v-91h252v-151h-252v-893h-221v893h-461v-893h-221v893h-131zM401 1044h461v127q0 53 21 111q-109 16 -236 16 q-246 0 -246 -163v-91z" />
</font>
</defs>
</svg>
