<?xml version="1.0" standalone="no"?>
<!DOCTYPE svg PUBLIC "-//W3C//DTD SVG 1.1//EN" "http://www.w3.org/Graphics/SVG/1.1/DTD/svg11.dtd" >
<svg xmlns="http://www.w3.org/2000/svg">
<metadata></metadata>
<defs>
<font id="bose_gothic_screenBlkOb" horiz-adv-x="1400" >
<font-face units-per-em="2048" ascent="1536" descent="-512" />
<missing-glyph horiz-adv-x="448" />
<glyph unicode="&#xdf;" horiz-adv-x="1298" d="M-2 0l156 1061q31 215 172 311t381 96q106 0 194 -25.5t151.5 -73.5t98.5 -118.5t35 -158.5q0 -33 -6 -70q-92 -66 -160 -135.5t-68 -145.5q0 -53 31 -85.5t78 -67.5q57 -43 91 -100.5t34 -129.5q0 -100 -32 -172.5t-91 -120t-144 -70t-192 -22.5q-37 0 -81 4.5t-87 12.5 t-83 19t-66 28l92 244q39 -16 100.5 -29.5t116.5 -13.5q57 0 102 26.5t45 79.5q0 39 -29.5 68.5t-86.5 70.5q-55 41 -87 92.5t-32 126.5q0 61 20.5 114.5t53 101t73.5 88.5t84 77v9q0 43 -55 71.5t-125 28.5q-82 0 -140.5 -35t-70.5 -117l-152 -1040h-321z" />
<glyph unicode="&#xfb01;" horiz-adv-x="1294" d="M53 0l123 840h-115l29 204h115l18 125q12 84 59.5 146.5t115 102.5t151.5 59.5t170 19.5q152 0 285 -24.5t237 -61.5l-86 -223q-72 16 -169 31.5t-241 15.5q-98 0 -149 -29.5t-61 -99.5l-11 -62h242l-29 -204h-241l-123 -840h-320zM774 0l152 1044h319l-151 -1044h-320z " />
<glyph unicode="&#xfb02;" horiz-adv-x="1345" d="M53 0l123 840h-115l29 204h115l18 125q12 84 59.5 146.5t115 102.5t150.5 59.5t167 19.5q152 0 297 -28.5t284 -75.5l-202 -1393h-320l176 1210q-39 10 -98 17.5t-107 7.5q-98 0 -149 -29.5t-61 -99.5l-11 -62h242l-29 -204h-241l-123 -840h-320z" />
<glyph horiz-adv-x="0" />
<glyph unicode="&#xd;" horiz-adv-x="448" />
<glyph unicode=" "  horiz-adv-x="448" />
<glyph unicode="&#x09;" horiz-adv-x="448" />
<glyph unicode="&#xa0;" horiz-adv-x="448" />
<glyph unicode="!" horiz-adv-x="585" d="M43 0l39 270h315l-39 -270h-315zM123 487l104 906h344l-159 -906h-289z" />
<glyph unicode="&#x22;" horiz-adv-x="692" d="M154 958l51 453h203l-84 -453h-170zM424 958l51 453h199l-82 -453h-168z" />
<glyph unicode="#" horiz-adv-x="1273" d="M6 223l31 183h211l123 391h-203l33 182h237l74 244h223l-73 -244h172l79 244h217l-71 -244h160l-33 -182h-195l-123 -391h179l-31 -183h-215l-64 -223h-225l68 223h-174l-68 -223h-223l65 223h-174zM471 406h174l123 391h-172z" />
<glyph unicode="$" horiz-adv-x="1232" d="M29 193l182 210q66 -72 153 -109.5t181 -37.5q104 0 155.5 43t51.5 115q0 53 -47.5 84.5t-165.5 70.5q-180 57 -273.5 143.5t-93.5 221.5q0 119 48 208t126 149.5t176.5 90t198.5 29.5h14l64 217l192 -31l-63 -213q133 -41 246 -141l-175 -223q-82 66 -152.5 89.5 t-156.5 23.5q-94 0 -145 -41t-51 -113q0 -51 47 -84t170 -74q178 -57 270 -147t92 -221q0 -109 -42 -196t-116.5 -147.5t-176 -93t-220.5 -32.5h-12l-74 -256l-184 28l74 254q-90 25 -166 71t-127 112z" />
<glyph unicode="%" horiz-adv-x="1544" d="M98 0l1063 1393h256l-1048 -1393h-271zM139 1028l23 146q8 57 39.5 102t78 75.5t103.5 46t119 15.5q57 0 108.5 -16.5t88 -48t56 -75.5t11.5 -99l-23 -146q-8 -59 -38.5 -104t-76.5 -76t-102.5 -46.5t-115.5 -15.5q-131 0 -209 59.5t-62 182.5zM367 1057q-6 -41 15 -53.5 t58 -12.5q29 0 58.5 18.5t33.5 49.5l15 90q4 31 -20.5 44t-55.5 13q-29 0 -58.5 -17.5t-33.5 -45.5zM778 203l29 188q8 57 35.5 100.5t70.5 72t98.5 43t118.5 14.5q55 0 104.5 -12.5t86.5 -40t54.5 -69.5t8.5 -100l-24 -180q-18 -119 -108.5 -177t-213.5 -58q-55 0 -105 14 t-87 43t-55.5 69t-12.5 93zM997 252q-4 -31 15.5 -49.5t54.5 -18.5q29 0 57.5 19.5t32.5 50.5l12 88q6 37 -14 54.5t-55 17.5t-62.5 -21.5t-31.5 -52.5z" />
<glyph unicode="&#x26;" horiz-adv-x="1513" d="M33 303q0 66 21.5 120t65.5 106.5t110.5 103.5t156.5 110l23 15l-148 172l29 198q10 68 50 121.5t99.5 90t133 56t153.5 19.5q166 0 265.5 -72.5t99.5 -212.5q0 -66 -17.5 -117.5t-52.5 -98t-88 -89.5t-123 -92l162 -178l266 221l174 -186l-268 -230l190 -215l-229 -184 l-184 209q-98 -98 -207 -144t-244 -46q-201 0 -319.5 79.5t-118.5 243.5zM367 344q0 -49 35.5 -70.5t86.5 -21.5q59 0 116 23.5t140 95.5l-170 198l-20 -14q-59 -43 -95 -71.5t-57.5 -51t-28.5 -43t-7 -45.5zM555 1024l94 -109q70 47 107 87t37 88q0 76 -105 75 q-47 0 -83 -17.5t-40 -53.5z" />
<glyph unicode="'" horiz-adv-x="509" d="M193 958l40 496h244l-106 -496h-178z" />
<glyph unicode="(" horiz-adv-x="782" d="M62.5 23.5q-11.5 107.5 7.5 230.5l88 600q18 123 60 231.5t102.5 199.5t136 161t159.5 117l121 -121q-104 -63 -188 -213t-117 -375l-88 -600q-16 -119 -13 -213t21.5 -167t51 -123t75.5 -81l-155 -121q-72 47 -126.5 117t-89 160t-46 197.5z" />
<glyph unicode=")" horiz-adv-x="831" d="M-35 -346q104 70 187.5 225.5t115.5 378.5l88 598q33 223 3.5 369.5t-113.5 216.5l133 123q143 -94 215 -277.5t37 -431.5l-88 -598q-18 -123 -60.5 -231.5t-101.5 -198.5t-135 -159.5t-160 -117.5z" />
<glyph unicode="*" horiz-adv-x="815" d="M154 1161l59 135l190 -65l31 209h144l-31 -211l207 67l22 -135l-205 -63l97 -170l-127 -86l-99 172l-147 -172l-102 84l147 172z" />
<glyph unicode="+" horiz-adv-x="1165" d="M61 686l31 217h387l53 367h242l-53 -367h389l-31 -217h-389l-61 -420h-242l62 420h-388z" />
<glyph unicode="," horiz-adv-x="524" d="M-92 -207q35 41 70.5 102.5t52.5 172.5l18 131h264l-8 -56q-14 -94 -44 -164.5t-65.5 -122t-72.5 -86t-66 -57.5z" />
<glyph unicode="-" horiz-adv-x="708" d="M51 475l37 258h520l-37 -258h-520z" />
<glyph unicode="." horiz-adv-x="532" d="M2 0l39 270h301l-39 -270h-301z" />
<glyph unicode="/" horiz-adv-x="880" d="M-96 -174l751 1567h269l-754 -1567h-266z" />
<glyph unicode="0" horiz-adv-x="1284" d="M57 424l78 534q14 104 67.5 188.5t134.5 144t182 91t216 31.5q113 0 206 -31.5t156.5 -91t91.5 -143.5t13 -189l-78 -534q-16 -104 -69.5 -187t-133 -140.5t-181 -87t-214.5 -29.5t-206 30.5t-156.5 87t-93 139t-13.5 187.5zM379 434q-14 -92 39 -136t147 -44 q92 0 160 44t82 136l76 514q12 92 -42.5 140.5t-146.5 48.5q-98 0 -162.5 -48.5t-76.5 -140.5z" />
<glyph unicode="1" horiz-adv-x="759" d="M121 1116l39 277h504l-203 -1393h-322l164 1116h-182z" />
<glyph unicode="2" horiz-adv-x="1159" d="M-2 0l22 150q14 98 51.5 185t103 163.5t160.5 147.5t224 138q63 31 107.5 57.5t72 52.5t38.5 55.5t11 66.5q0 53 -39.5 80.5t-111.5 27.5q-98 0 -192.5 -43t-178.5 -104l-112 219q129 98 268 151.5t309 53.5q82 0 151.5 -20.5t121 -61.5t81 -100.5t29.5 -139.5 q0 -90 -21.5 -157.5t-70.5 -125t-129 -112.5t-195 -121q-90 -45 -147 -78.5t-92 -66.5t-53.5 -67t-32.5 -79h635l-39 -272h-971z" />
<glyph unicode="3" horiz-adv-x="1216" d="M0 295l285 113q25 -84 89 -117t140 -33q37 0 74 6t67.5 21.5t51 42t26.5 65.5q8 51 10 68.5t2 23.5q0 53 -38.5 77t-135.5 24h-194l35 248h182q35 0 69.5 5t63.5 18t48.5 37t25.5 60q6 37 8 53.5t2 26.5q0 57 -47 82t-119 25q-63 0 -128.5 -30t-108.5 -101l-238 114 q68 131 209 212t334 81q88 0 166.5 -17.5t136 -55t91.5 -96t34 -138.5q0 -14 -2 -36.5t-13 -86.5q-16 -102 -75.5 -172t-163.5 -104q170 -63 170 -230q0 -14 -2 -41.5t-11 -77.5q-16 -102 -67 -173.5t-126 -116.5t-167 -65.5t-190 -20.5q-94 0 -178.5 20.5t-149 60 t-108.5 97t-58 131.5z" />
<glyph unicode="4" horiz-adv-x="1247" d="M-10 256l35 240l694 897h375l-125 -861h182l-41 -276h-182l-37 -256h-322l37 256h-616zM369 532h278l64 443h-27z" />
<glyph unicode="5" horiz-adv-x="1187" d="M59 328l308 82q4 -66 47 -111t129 -45q70 0 121 29.5t61 91.5l20 141q8 59 -35.5 88t-121.5 29h-426l180 760h776l-39 -277h-501l-54 -227h152q94 0 172 -21.5t130 -67.5t76.5 -116t10.5 -164l-23 -155q-14 -92 -63 -164t-122 -121t-161 -74.5t-178 -25.5 q-221 0 -333.5 91t-125.5 257z" />
<glyph unicode="6" horiz-adv-x="1216" d="M51 381l86 592q14 98 65.5 179t130.5 139.5t178 90t212 31.5q139 0 233.5 -25.5t178.5 -89.5l-150 -227q-72 41 -139.5 55.5t-145.5 14.5q-98 0 -164.5 -46t-76.5 -122l-27 -180q49 53 130 90t173 37q90 0 162 -23t119 -67t67.5 -109.5t8.5 -153.5l-29 -202 q-14 -92 -67.5 -164t-132.5 -121t-175 -74.5t-194 -25.5t-184.5 26.5t-149 77.5t-93 126t-16.5 171zM375 399q-6 -37 6 -64.5t34.5 -46t53.5 -27.5t63 -9q35 0 71 9t66.5 27.5t51 46t27.5 64.5l20 140q10 72 -37 108.5t-133 36.5q-76 0 -134 -37t-69 -108z" />
<glyph unicode="7" horiz-adv-x="1040" d="M84 1096l43 297h936l-25 -168l-587 -1225h-355l557 1096h-569z" />
<glyph unicode="8" horiz-adv-x="1222" d="M33 358l10 72q8 59 37 107.5t68.5 84t86 60.5t91.5 39q-92 31 -140.5 110.5t-33.5 182.5l6 43q12 88 62 154.5t125 111.5t168 67.5t194 22.5q100 0 187 -22.5t148.5 -67.5t92 -111.5t18.5 -154.5l-8 -56q-6 -47 -34 -92t-65.5 -83t-80.5 -65.5t-80 -39.5q37 -14 78 -36.5 t71.5 -57.5t47 -83t8.5 -114l-11 -72q-14 -96 -67.5 -167.5t-132 -118.5t-177 -69.5t-204.5 -22.5q-109 0 -201 23.5t-155.5 70.5t-93.5 117.5t-15 166.5zM356 387q-6 -39 7.5 -64.5t39 -41t61.5 -21.5t73 -6q35 0 71.5 6t68.5 20.5t53.5 39t27.5 59.5l12 88q6 33 -8 58.5 t-40 42t-57.5 25.5t-62.5 9h-24q-35 -4 -70 -12t-64.5 -23.5t-50 -40t-26.5 -59.5zM467 963q-4 -31 6 -53.5t31.5 -39t50.5 -24.5t59 -10h21q66 4 120 30.5t64 96.5l8 55q4 31 -8 53.5t-35.5 37.5t-54.5 22.5t-63 7.5q-33 0 -66 -7.5t-59.5 -22.5t-44 -37.5t-21.5 -53.5z " />
<glyph unicode="9" horiz-adv-x="1216" d="M51 106l131 230q76 -45 165 -63.5t173 -18.5q100 0 170 39t80 121l23 149q-55 -57 -137.5 -83.5t-153.5 -26.5q-98 0 -178 25.5t-133.5 73.5t-77 118.5t-11.5 160.5l31 205q12 88 65.5 158t130.5 119t171 74.5t192 25.5t186.5 -25.5t152 -73.5t96 -119t20.5 -159 l-98 -676q-14 -92 -67.5 -162.5t-131.5 -119.5t-173 -73.5t-194 -24.5q-125 0 -238.5 32.5t-193.5 93.5zM426 842q-4 -35 8 -59.5t36 -41t56.5 -24.5t67.5 -8q33 0 67.5 8t62.5 24.5t47.5 41t23.5 59.5l24 166q4 33 -8 57.5t-36.5 39.5t-56.5 23.5t-67 8.5q-70 0 -130 -32 t-70 -97z" />
<glyph unicode=":" horiz-adv-x="581" d="M33 0l43 289h151h154l-43 -289h-305zM145 778l43 287h306l-43 -287h-306z" />
<glyph unicode=";" horiz-adv-x="641" d="M25 -207q35 41 70.5 102.5t51.5 172.5l19 131h264l-8 -56q-14 -94 -44 -164.5t-66 -122t-72.5 -86t-65.5 -57.5zM217 768l43 297h285l-43 -297h-285z" />
<glyph unicode="&#x3c;" horiz-adv-x="1243" d="M106 520l961 572l55 -187l-618 -375l536 -348l-120 -182z" />
<glyph unicode="=" horiz-adv-x="1103" d="M37 317l33 224h354h543l-33 -224h-897zM98 743l33 222h897l-33 -222h-897z" />
<glyph unicode="&#x3e;" horiz-adv-x="1241" d="M59 170l609 373l-523 348l142 188l815 -524l-957 -571z" />
<glyph unicode="?" horiz-adv-x="1015" d="M131 1274q88 55 206.5 97t231.5 42q102 0 182 -17.5t132.5 -55t76 -96t11.5 -140.5l-10 -60q-6 -49 -29 -87.5t-52.5 -70.5t-65.5 -59.5t-69 -52.5q-43 -29 -72.5 -53.5t-49 -50t-31.5 -56t-19 -73.5l-12 -78h-307l16 112q14 92 58.5 156t126.5 117q63 41 113 82t57 82 l6 45q6 43 -34 60.5t-114 17.5q-70 0 -149.5 -27t-134.5 -57zM172 0l39 270h356l-39 -270h-356z" />
<glyph unicode="@" horiz-adv-x="1630" d="M74 471q0 55 17.5 156.5t53.5 208.5q39 125 114 235.5t176.5 192.5t227.5 130t267 48q135 0 246.5 -38t191.5 -105.5t123 -161t43 -203.5q0 -104 -21.5 -208.5t-70.5 -187.5t-131 -135.5t-203 -52.5q-29 0 -64.5 4t-67.5 16.5t-54.5 35t-26.5 59.5q-25 -27 -57.5 -51.5 t-71.5 -44t-81 -31.5t-83 -12q-115 0 -166 48t-51 115q0 20 7 60.5t23.5 92.5t42 115.5t60.5 131.5q31 59 79 107t105.5 81t119 50.5t114.5 17.5q104 0 168.5 -46t64.5 -122q0 -47 -18 -96.5t-39 -108.5q-18 -55 -32.5 -106.5t-14.5 -85.5q0 -33 16.5 -56.5t48.5 -23.5 q82 0 130.5 52t72 122.5t29.5 140.5t6 105q0 82 -32.5 151.5t-92 119.5t-145.5 77.5t-191 27.5q-111 0 -207 -35.5t-173.5 -99t-134 -149.5t-85.5 -187q-27 -94 -47 -186t-20 -143q0 -76 29.5 -141.5t90 -113.5t153.5 -76t222 -28q72 0 153 20.5t171 67.5l53 -133 q-100 -53 -201.5 -77.5t-197.5 -24.5q-164 0 -284 36.5t-198.5 102.5t-117.5 153t-39 189zM602 565q0 -82 76 -82q33 0 66.5 13.5t62.5 37t50.5 56.5t31.5 69q23 66 50.5 136.5t27.5 119.5q0 72 -88 72q-35 0 -70 -18.5t-64.5 -48t-52 -65.5t-33.5 -73q-12 -29 -22 -62.5 t-17.5 -64t-12.5 -55.5t-5 -35z" />
<glyph unicode="A" horiz-adv-x="1341" d="M-57 0l645 1403h358l223 -1403h-348l-30 281h-383l-115 -281h-350zM502 537h270l-59 503z" />
<glyph unicode="B" horiz-adv-x="1302" d="M39 0l203 1393h563q197 1 298 -101q82 -82 82 -209q0 -30 -5 -63l-9 -45q-4 -35 -23.5 -73t-49 -72.5t-69.5 -62.5t-85 -42q100 -41 152 -115q39 -55 38 -130q0 -25 -4 -52l-10 -76q-12 -86 -53 -151.5t-103.5 -110.5t-145.5 -67.5t-181 -22.5h-598zM397 254h224 q33 0 63.5 5t55 20.5t42 42t23.5 69.5l10 70q1 9 1 18q0 48 -38 77q-45 34 -106 34h-226zM481 825h217q61 0 101.5 35t50.5 96l6 45q3 17 3 32q0 52 -34 74q-43 28 -120 28h-179z" />
<glyph unicode="C" horiz-adv-x="1157" d="M84 440l76 510q14 109 69.5 195t136 145.5t181 91t209.5 31.5q152 0 246 -32.5t174 -100.5l-158 -229q-55 37 -118 60.5t-161 23.5q-102 0 -173.5 -53.5t-88.5 -151.5l-67 -471q-3 -23 -4 -43q0 -74 47 -112q59 -50 163 -50q92 0 164 20.5t131 57.5l80 -228 q-47 -33 -94 -56t-99.5 -38.5t-112.5 -22.5t-136 -7q-115 0 -208 28.5t-155 85.5q-62 58 -90 145q-17 55 -18 121q0 38 6 80z" />
<glyph unicode="D" horiz-adv-x="1343" d="M43 0l203 1393h510q121 0 216 -30t158.5 -90.5t89.5 -153.5q15 -55 14 -121q0 -47 -7 -101l-60 -403q-18 -127 -75.5 -220.5t-143.5 -154t-192.5 -90t-223.5 -29.5h-489zM397 274h176q49 0 95.5 13.5t84.5 43t64.5 76t36.5 113.5l51 350q4 32 4 59q0 85 -41 129 q-55 58 -151 58h-197z" />
<glyph unicode="E" horiz-adv-x="1157" d="M39 0l203 1393h872l-39 -277h-553l-41 -276h432l-39 -267h-432l-43 -299h594l-41 -274h-913z" />
<glyph unicode="F" horiz-adv-x="1089" d="M37 0l203 1393h872l-39 -277h-553l-43 -282h432l-39 -267h-432l-82 -567h-319z" />
<glyph unicode="G" horiz-adv-x="1355" d="M86 440l76 510q16 113 73.5 200t143.5 145.5t195.5 88t228.5 29.5q145 0 252.5 -36t193.5 -95l-143 -240q-37 23 -72 40.5t-72.5 29.5t-82.5 18.5t-101 6.5q-113 0 -197.5 -53.5t-101.5 -157.5l-67 -463q-3 -22 -3 -41q0 -31 8 -56q13 -40 42.5 -65t72.5 -36t97 -11 q55 0 100 6t98 27l39 262h-174l37 254h496l-97 -660q-121 -78 -252 -120.5t-286 -42.5q-121 0 -221.5 27.5t-169 85t-99.5 144.5q-20 57 -20 127q0 36 6 76z" />
<glyph unicode="H" horiz-adv-x="1456" d="M41 0l203 1393h321l-84 -572h504l84 572h322l-203 -1393h-322l80 547h-504l-80 -547h-321z" />
<glyph unicode="I" horiz-adv-x="647" d="M51 0l203 1393h317l-202 -1393h-318z" />
<glyph unicode="J" horiz-adv-x="1155" d="M-23 311l324 82q-2 -23 6 -47t26.5 -43.5t46.5 -33t64 -13.5q68 0 119 35t64 110l143 992h322l-146 -1004q-29 -199 -166 -302t-358 -103q-217 0 -329.5 84t-115.5 243z" />
<glyph unicode="K" horiz-adv-x="1353" d="M41 0l203 1393h321l-88 -602l481 602h390l-596 -668l446 -725h-403l-281 516l-90 -98l-62 -418h-321z" />
<glyph unicode="L" horiz-adv-x="1122" d="M39 0l203 1393h319l-162 -1119h602l-40 -274h-922z" />
<glyph unicode="M" horiz-adv-x="1751" d="M47 0l203 1393h346l258 -750l485 750h342l-202 -1393h-320l133 909l-399 -637h-191l-202 637l-133 -909h-320z" />
<glyph unicode="N" horiz-adv-x="1433" d="M41 0l203 1393h299l401 -897l131 897h295l-203 -1393h-299l-405 889l-129 -889h-293z" />
<glyph unicode="O" d="M86 440l76 516q16 109 70.5 194t136.5 143.5t187.5 89t221.5 30.5h33q115 0 210 -31.5t160.5 -90t95.5 -143.5q20 -57 20 -123q0 -33 -5 -69l-75 -516q-16 -115 -69.5 -200.5t-134.5 -143t-186.5 -87t-224.5 -29.5h-31q-121 0 -218 28.5t-163 85.5q-64 58 -92 145 q-17 55 -18 121q0 38 6 80zM412 463q-4 -25 -4 -48q0 -75 42 -112q54 -49 160 -49h31q104 0 173 50t85 159l68 467q3 22 3 42q0 70 -44 112q-58 52 -156 53h-33q-100 0 -170.5 -53.5t-87.5 -151.5z" />
<glyph unicode="P" horiz-adv-x="1290" d="M39 0l203 1393h575q100 0 182 -26t137 -76q54 -49 78 -123q15 -46 14 -103q0 -33 -5 -70l-25 -166q-14 -92 -61 -162.5t-117 -116.5t-156 -69.5t-178 -23.5h-258l-68 -457h-321zM465 713h233q63 0 117.5 35.5t67.5 119.5l12 88q2 16 2 30q0 56 -31 89q-39 41 -108 41 h-234z" />
<glyph unicode="Q" d="M82 440l76 516q16 109 70.5 194t137.5 143.5t187 89t221 30.5h33q115 0 210 -31.5t160.5 -90t95.5 -143.5q20 -57 20 -123q0 -33 -5 -69l-76 -516q-14 -94 -52 -167.5t-97 -131.5l111 -137l-170 -121l-119 146q-127 -49 -287 -49h-31q-121 0 -218 28.5t-162.5 86 t-92.5 144.5q-18 55 -18 121q0 38 6 80zM408 463q-4 -25 -4 -48q0 -74 42 -112q54 -49 160 -49h31h32.5t32.5 4l-108 137l170 125l106 -137q18 33 25 80l68 467q3 22 3 42q0 71 -44 112q-58 53 -156 53h-33q-98 0 -169.5 -53.5t-88.5 -151.5z" />
<glyph unicode="R" horiz-adv-x="1304" d="M41 0l203 1393h579q104 0 186.5 -23.5t136.5 -73.5q54 -48 76 -124q13 -46 13 -103q0 -37 -6 -78l-10 -63q-20 -139 -95 -228.5t-186 -126.5l188 -573h-342l-153 500h-195l-74 -500h-321zM473 756h240q59 0 114.5 33.5t65.5 105.5l12 84q2 14 2 26q-1 49 -33 77 q-40 34 -110 34h-238z" />
<glyph unicode="S" horiz-adv-x="1234" d="M29 193l182 210q66 -72 153 -109.5t181 -37.5q104 0 155.5 43t51.5 115q0 53 -47.5 84.5t-165.5 70.5q-199 63 -291 159q-76 78 -76 203q0 27 4 56q14 106 66.5 185t128 132.5t167 80t183.5 26.5q131 0 241.5 -38t211.5 -130l-175 -223q-82 66 -152.5 89.5t-156.5 23.5 q-94 0 -145 -41t-51 -113q0 -51 47 -84t170 -74q199 -63 289 -163q73 -81 73 -198q0 -27 -4 -57q-14 -98 -61 -175.5t-120 -132t-167 -83t-203 -28.5q-74 0 -144.5 14t-134 41t-117.5 65.5t-93 88.5z" />
<glyph unicode="T" horiz-adv-x="1204" d="M100 1116l39 277h1106l-39 -277h-395l-164 -1116h-317l164 1116h-394z" />
<glyph unicode="U" horiz-adv-x="1437" d="M102 375q0 33 3.5 62.5t9.5 70.5l129 885h321l-123 -850q-6 -41 -9 -66.5t-3 -48.5q0 -90 62.5 -132t150.5 -42q47 0 93 13.5t83 40t63.5 67.5t35.5 96l133 922h321l-137 -938q-16 -119 -73.5 -208t-142.5 -148.5t-191.5 -89t-221.5 -29.5q-106 0 -198.5 24.5t-160 73.5 t-106.5 122.5t-39 174.5z" />
<glyph unicode="V" horiz-adv-x="1308" d="M141 1393h348l105 -996l405 996h347l-644 -1393h-333z" />
<glyph unicode="W" horiz-adv-x="1843" d="M174 1393h328l14 -977l352 977h287l74 -983l293 983h327l-475 -1393h-352l-80 932l-344 -932h-352z" />
<glyph unicode="X" horiz-adv-x="1290" d="M-57 0l497 694l-268 699h358l146 -455l289 455h358l-487 -701l282 -692h-360l-156 444l-295 -444h-364z" />
<glyph unicode="Y" horiz-adv-x="1327" d="M164 1393h364l138 -572l309 572h366l-561 -887l-73 -506h-322l74 508z" />
<glyph unicode="Z" horiz-adv-x="1210" d="M-14 0l26 186l738 926h-594l41 281h1003l-26 -183l-736 -934h594l-41 -276h-1005z" />
<glyph unicode="[" horiz-adv-x="581" d="M-16 -322l249 1715h408l-31 -211h-139l-188 -1297h131l-31 -207h-399z" />
<glyph unicode="\" horiz-adv-x="952" d="M158 1393h278l393 -1393h-274z" />
<glyph unicode="]" horiz-adv-x="577" d="M-68 -322l31 213h131l187 1276h-131l32 226h402l-250 -1715h-402z" />
<glyph unicode="^" horiz-adv-x="923" d="M102 821l459 592l275 -590l-166 -78l-156 345l-264 -345z" />
<glyph unicode="_" horiz-adv-x="1175" d="M-49 -256l26 184h975l-26 -184h-975z" />
<glyph unicode="`" horiz-adv-x="581" d="M164 1397l213 108l172 -317l-156 -86z" />
<glyph unicode="a" horiz-adv-x="1077" d="M-14 219q0 16 1 33.5t9 71.5q14 94 77.5 153.5t156 92t201 44t212.5 11.5l8 49q2 10 3 20.5t1 20.5q0 47 -34.5 65.5t-126.5 18.5q-31 0 -72 -5.5t-83 -13.5t-80 -19t-62 -24l-45 230q43 23 97 41t112.5 30.5t116 19.5t106.5 7q201 0 295 -72.5t94 -212.5q0 -12 -1 -32.5 t-5 -40.5l-103 -707h-243l-23 131q-51 -72 -137 -108.5t-176 -36.5q-154 0 -226.5 66.5t-72.5 166.5zM313 299q0 -31 28 -49.5t89 -18.5q66 0 113 28t51 65l18 120q-43 -2 -93 -6t-93 -14t-73.5 -29.5t-35.5 -52.5q-4 -23 -4 -30v-13z" />
<glyph unicode="b" horiz-adv-x="1222" d="M23 0l206 1413h320l-70 -477q59 66 134 97.5t153 31.5q192 -1 276 -103q63 -77 63 -196q0 -40 -7 -86l-45 -313q-27 -184 -139.5 -283.5t-305.5 -99.5q-72 0 -144.5 32.5t-107.5 98.5l-69 -115h-264zM395 365q-1 -9 -1 -18q0 -21 8 -39q10 -24 29.5 -40t48 -23t61.5 -7 q78 0 129 27.5t61 105.5l45 305q1 10 1 20q0 22 -6 38q-9 24 -28.5 41.5t-47 26.5t-60.5 9q-72 0 -128 -33t-67 -104z" />
<glyph unicode="c" horiz-adv-x="1019" d="M53 365l45 313q14 94 60.5 167t118 122t165 73.5t201.5 24.5q115 0 201 -27.5t145 -76.5l-143 -228q-41 25 -90 40t-121 15q-86 0 -147.5 -35.5t-71.5 -113.5l-35 -238q-2 -15 -2 -28q0 -59 42 -87q52 -34 140 -34q68 0 123 14.5t107 36.5l71 -225q-78 -53 -173 -74.5 t-202 -21.5q-109 0 -195.5 22.5t-145.5 70.5q-58 47 -82 119q-16 46 -16 103q0 32 5 68z" />
<glyph unicode="d" horiz-adv-x="1218" d="M51 367l45 313q29 180 140.5 282.5t306.5 102.5q78 0 143.5 -32t106.5 -97l69 477h320l-207 -1413h-266l-35 115q-55 -66 -136 -98.5t-153 -32.5q-195 0 -277 99q-63 75 -63 200q0 40 6 84zM373 371q-2 -15 -2 -28q-1 -55 33 -77q42 -28 120 -28q66 0 119 30.5t64 96.5 l45 309q2 13 2 24q0 52 -38 80q-46 32 -118 33q-66 0 -118 -35t-62 -100z" />
<glyph unicode="e" horiz-adv-x="1171" d="M45 311q0 20 3 43t7 54l43 294q12 84 63.5 151t126 114t167 71.5t186.5 24.5q88 0 164 -20.5t131 -60.5t87 -97.5t32 -130.5q0 -12 -2 -29.5t-6 -50.5l-37 -246h-631l-2 -16q-2 -10 -4 -27.5t-2 -28.5q0 -59 58 -81.5t142 -22.5q94 0 175 17.5t139 45.5l65 -219 q-106 -59 -210.5 -83.5t-231.5 -24.5q-94 0 -178 20.5t-147.5 60.5t-100.5 100t-37 142zM412 637h331l5 29q2 10 3 21t1 24q0 47 -46.5 71.5t-103.5 24.5q-29 0 -58.5 -7t-56 -21.5t-45 -36t-22.5 -50.5z" />
<glyph unicode="f" horiz-adv-x="745" d="M53 0l123 840h-115l29 204h115l16 109q12 80 50 137.5t93.5 96t123 57t137.5 18.5q82 0 154.5 -10t125.5 -29l-84 -239q-35 6 -70.5 11t-99.5 5q-41 0 -74.5 -18.5t-39.5 -61.5l-13 -76h242l-29 -204h-241l-123 -840h-320z" />
<glyph unicode="g" horiz-adv-x="1196" d="M-68 -219q0 94 46.5 153.5t132.5 98.5q-70 43 -70 121q0 57 42 114.5t120 91.5q-100 74 -100 212q0 33 6 69l8 55q14 94 59 164t113.5 115t157 66.5t190.5 21.5q72 0 130 -11.5t105 -31.5l254 92l52 -190l-152 -48q26 -55 26 -126q0 -24 -3 -50l-13 -77q-14 -94 -59 -160 t-113.5 -107t-156 -59.5t-185.5 -18.5q-86 0 -153 13q-10 -10 -17.5 -23.5t-7.5 -29.5q0 -49 64 -62l575 -78l-37 -252q-12 -76 -54 -133t-106.5 -96t-144.5 -58.5t-168 -19.5h-164q-166 0 -271.5 63.5t-105.5 180.5zM248 -152q0 -33 30.5 -50t75.5 -17h138q129 0 139 82 l6 45l-330 37q-59 -23 -59 -97zM428 602q-1 -10 -1 -18q0 -18 5 -32q8 -20 26.5 -32t43 -17t51.5 -5q53 0 99 22.5t57 81.5l12 84q1 8 1 15q0 18 -7 33q-10 20 -28.5 32t-42 18.5t-48.5 6.5q-53 0 -100 -25t-56 -80z" />
<glyph unicode="h" horiz-adv-x="1239" d="M18 0l207 1413h322l-78 -528q25 39 63.5 71.5t84 56t93.5 37t91 13.5q96 0 158.5 -24.5t96.5 -72.5t42 -119q3 -28 3 -60q0 -48 -7 -103l-101 -684h-321l96 664q2 14 2 26q0 42 -26 66q-34 32 -93 32q-37 0 -73.5 -10t-67.5 -28.5t-51.5 -45t-24.5 -57.5l-94 -647h-322z " />
<glyph unicode="i" horiz-adv-x="604" d="M29 0l151 1044h320l-152 -1044h-319zM203 1200l33 213h319l-33 -213h-319z" />
<glyph unicode="j" horiz-adv-x="636" d="M-272 -178q78 16 137 36.5t102 53.5t68.5 84t38.5 129l133 919h321l-139 -956q-18 -121 -65.5 -210t-126 -152.5t-188 -103.5t-251.5 -60zM229 1198l33 215h322l-33 -215h-322z" />
<glyph unicode="k" horiz-adv-x="1157" d="M18 0l207 1413h322l-105 -717h62l268 348h365l-404 -493l281 -551h-369l-190 414h-56l-59 -414h-322z" />
<glyph unicode="l" horiz-adv-x="604" d="M29 0l207 1413h319l-207 -1413h-319z" />
<glyph unicode="m" horiz-adv-x="1828" d="M29 0l151 1044h240l4 -149q25 37 62.5 67.5t82.5 53t93.5 35t91.5 12.5q113 0 186.5 -43t81.5 -141q23 35 62.5 68.5t89 59t103.5 42t107 16.5q176 0 250 -76q55 -57 55 -168q0 -38 -6 -82l-108 -739h-320l97 655q3 21 3 40q-1 42 -17 65q-24 33 -97 33q-72 0 -126 -46.5 t-64 -111.5l-93 -635h-319l96 653q3 23 3 43q0 42 -14 65q-22 34 -93 34q-35 0 -67 -12.5t-57.5 -33t-43 -48t-21.5 -58.5l-94 -643h-319z" />
<glyph unicode="n" horiz-adv-x="1241" d="M18 0l152 1044h250l8 -153q74 80 157.5 126t194.5 46q198 -1 270 -99q53 -72 53 -190q0 -42 -7 -90l-101 -684h-321l94 643q3 18 3 35q0 112 -140 113q-35 0 -68 -10.5t-60.5 -30t-46 -46t-22.5 -57.5l-94 -647h-322z" />
<glyph unicode="o" horiz-adv-x="1200" d="M49 367l45 311q14 92 61.5 163.5t121 121t167.5 75t203 25.5q227 1 341 -101q92 -82 92 -217q0 -32 -5 -67l-45 -311q-12 -92 -62 -164t-124 -121t-166 -74.5t-191 -25.5q-100 0 -186 25.5t-147 74.5q-60 48 -90 120q-20 48 -20 107q0 28 5 58zM375 389q-2 -12 -2 -24 q0 -51 37 -77q45 -34 116 -34q66 0 121 34t66 101l39 266q1 9 1 18q1 21 -7 39q-10 24 -30 42t-48.5 26t-61.5 8q-70 0 -126 -33.5t-66 -99.5z" />
<glyph unicode="p" horiz-adv-x="1218" d="M-47 -449l217 1493h264l37 -118q27 33 62.5 58.5t73.5 42.5t78 25.5t75 8.5q195 0 276 -101q62 -77 62 -202q0 -39 -6 -84l-45 -314q-27 -180 -138.5 -280t-306.5 -100q-78 0 -142.5 30.5t-105.5 95.5l-82 -555h-319zM393 369q-2 -13 -2 -25q0 -53 37 -80q45 -33 117 -33 q66 0 119 37t63 103l43 295q3 17 3 32q0 53 -34 76q-43 31 -121 31q-66 0 -117.5 -32t-62.5 -97z" />
<glyph unicode="q" horiz-adv-x="1218" d="M51 360l45 314q27 184 139.5 285.5t307.5 101.5q72 0 142.5 -34t107.5 -99l67 116h266l-217 -1493h-319l82 555q-61 -66 -135 -96t-152 -30q-195 0 -277 100q-63 76 -63 198q0 39 6 82zM373 365q-2 -13 -2 -24q0 -49 33 -76q42 -34 108 -34q72 0 128 33t67 105l45 307 q2 12 2 23q0 49 -37 75q-45 31 -111 31q-78 0 -128 -28.5t-60 -104.5z" />
<glyph unicode="r" horiz-adv-x="808" d="M12 0l152 1044h248l28 -153q41 72 113 123t158 51q74 0 114 -16l-94 -316q-12 4 -45 7t-65 3q-33 0 -66 -8t-60.5 -25.5t-47 -44t-25.5 -65.5l-88 -600h-322z" />
<glyph unicode="s" horiz-adv-x="1040" d="M-18 111l141 217q25 -18 58.5 -36t73.5 -32t82 -22.5t79 -8.5q98 0 131 25t33 61q0 31 -42 49.5t-139 38.5q-166 35 -234.5 107t-68.5 176q0 96 42 168t108.5 118t150.5 68.5t168 22.5q115 0 215.5 -24.5t177.5 -84.5l-131 -213q-49 29 -112.5 48.5t-141.5 19.5 q-72 0 -117.5 -20.5t-45.5 -67.5q0 -29 33.5 -48.5t125.5 -37.5q168 -33 242 -100.5t74 -172.5q0 -90 -38 -160.5t-102.5 -119.5t-149.5 -75.5t-179 -26.5q-117 0 -235 32.5t-199 98.5z" />
<glyph unicode="t" horiz-adv-x="849" d="M45 836l29 208h137l35 236h319l-35 -236h230l-29 -208h-229l-70 -465q-2 -13 -2 -25q0 -38 20 -57q26 -25 76 -25q35 0 65 4t52 8q25 6 45 13l17 -244q-41 -16 -117 -36.5t-209 -20.5q-151 0 -227 72q-56 54 -57 166q0 38 7 83l78 527h-135z" />
<glyph unicode="u" horiz-adv-x="1236" d="M68 303q0 16 2 34.5t6 53.5l94 653h322l-86 -598q-4 -25 -6.5 -46t-2.5 -38q0 -55 42 -81.5t104 -26.5q66 0 121 34t65 99l94 657h322l-98 -679q-14 -94 -63.5 -166t-123.5 -121t-166 -73.5t-190 -24.5q-92 0 -172 21.5t-138.5 62t-92 101t-33.5 138.5z" />
<glyph unicode="v" horiz-adv-x="1140" d="M90 1044h336l84 -698l287 698h331l-518 -1044h-307z" />
<glyph unicode="w" horiz-adv-x="1566" d="M106 1044h312l2 -716l274 716h254l82 -708l197 708h309l-399 -1044h-299l-68 657l-252 -657h-309z" />
<glyph unicode="x" horiz-adv-x="1134" d="M-80 0l422 506l-258 538h362l115 -327l205 327h369l-420 -538l274 -506h-366l-127 287l-209 -287h-367z" />
<glyph unicode="y" horiz-adv-x="1148" d="M-2 -211q33 0 73 8t77.5 24.5t69.5 41t48 57.5l35 68l-203 1056h340l78 -675l275 675h337l-569 -1169q-45 -92 -104.5 -152.5t-131 -97.5t-153.5 -53t-168 -18z" />
<glyph unicode="z" horiz-adv-x="974" d="M-25 0l27 176l494 617h-400l37 251h766l-22 -155l-500 -633h434l-37 -256h-799z" />
<glyph unicode="{" horiz-adv-x="636" d="M28 -31q-1 78 21 150l119 405l-96 76l125 96l-11 361q-2 80 26 158.5t82 147.5t131 121t173 81l109 -121q-66 -31 -111 -76t-72.5 -97t-41 -107.5t-13.5 -102.5l-16 -367l-103 -88l86 -74l-108 -428q-14 -55 -15.5 -112.5t15 -108.5t51.5 -94t90 -74l-152 -133 q-102 39 -165.5 101.5t-93 135t-30.5 150.5z" />
<glyph unicode="|" horiz-adv-x="468" d="M-49 -301l246 1694h254l-246 -1694h-254z" />
<glyph unicode="}" horiz-adv-x="675" d="M-76 -283q76 39 130.5 86t89 98.5t51 103.5t16.5 99l12 433l113 69l-86 84l102 371q12 45 9 98t-22.5 105.5t-55 98.5t-88.5 79l127 114q94 -25 160.5 -81t102.5 -126.5t43 -147.5t-18 -144l-118 -361l104 -96l-131 -76l8 -405q2 -72 -28.5 -154t-89 -155.5t-142.5 -133 t-188 -84.5z" />
<glyph unicode="~" horiz-adv-x="843" d="M190 1292q53 70 107.5 108t120.5 38q33 0 65.5 -12.5t63.5 -27t59.5 -26.5t52.5 -12q47 0 73 23.5t40 43.5l94 -92q-10 -14 -28.5 -41.5t-44 -54.5t-58.5 -46t-73 -19q-37 0 -70 12t-65.5 27.5t-67.5 28.5t-74 13q-37 0 -65.5 -26.5t-45.5 -42.5z" />
<glyph unicode="&#xa1;" horiz-adv-x="550" d="M-39 -354l170 942h287l-103 -942h-354zM150 821l36 242h312l-37 -242h-311z" />
<glyph unicode="&#xa2;" horiz-adv-x="1048" d="M68 365l45 313q27 180 161 277.5t332 107.5l76 274l192 -32l-77 -252q63 -12 114.5 -36t92.5 -56l-144 -228q-41 25 -90 40t-121 15q-86 0 -147.5 -35.5t-71.5 -113.5l-35 -238q-12 -80 40 -114.5t140 -34.5q68 0 123.5 14.5t106.5 36.5l72 -225q-78 -53 -173.5 -74.5 t-201.5 -21.5h-6l-78 -254l-185 30l74 244q-131 35 -196.5 124t-42.5 239z" />
<glyph unicode="&#xa3;" horiz-adv-x="1110" d="M-47 0l24 166q86 6 141.5 28.5t89.5 57.5t50 79t23 95l8 147h-256l30 218h236l12 167q16 113 75.5 198t153 141.5t216.5 85t264 30.5l-41 -276q-168 0 -249 -44t-97 -149l-6 -153h313l-31 -218h-295q0 -33 -2 -61.5t-4 -48.5q-6 -37 -10 -62.5t-11 -45t-17.5 -38 t-28.5 -43.5h415l-41 -274h-962z" />
<glyph unicode="&#xa5;" horiz-adv-x="1370" d="M82 301l20 129h381l11 78l-19 53h-356l20 135h291l-231 697h364l137 -572l310 572h366l-440 -697h272l-20 -135h-338l-35 -55l-10 -76h362l-20 -129h-363l-43 -301h-321l43 301h-381z" />
<glyph unicode="&#xa6;" horiz-adv-x="468" d="M-16 -209l100 682h195l-101 -682h-194zM123 748l100 684h195l-101 -684h-194z" />
<glyph unicode="&#xa7;" horiz-adv-x="1183" d="M4 -248l158 148q12 -27 39.5 -52.5t62.5 -45t73 -32t73 -12.5q39 0 78.5 7.5t71.5 28t51.5 59t19.5 102.5q0 45 -35 87t-84 79t-105.5 65.5t-99.5 51.5q-117 53 -170 121.5t-53 183.5q0 55 14.5 106t38 95t55 77t66.5 51q-8 23 -12 57t-4 60q0 106 38.5 185t105.5 131.5 t153 79t180 26.5q129 0 225 -40t154 -116l-129 -157q-47 53 -123 84.5t-150 31.5q-88 0 -146 -48t-58 -134q0 -45 25.5 -77.5t65.5 -59.5t87 -47.5t88 -38.5q61 -29 112.5 -63.5t88 -79.5t57 -101.5t20.5 -126.5q0 -106 -48 -192t-128 -133q10 -25 15.5 -55.5t5.5 -53.5 q0 -106 -38 -189t-104.5 -139.5t-154.5 -86t-189 -29.5q-129 0 -232.5 50t-158.5 142zM330 602q0 -37 16 -65.5t42 -51t59.5 -40t68.5 -31.5q59 -31 110.5 -58.5t104.5 -68.5q8 2 20.5 13t23.5 26.5t19.5 33t8.5 33.5q0 39 -17.5 69t-47 54.5t-67.5 44t-79 37.5 q-59 29 -103.5 54.5t-95.5 64.5q-29 -10 -46 -45t-17 -70z" />
<glyph unicode="&#xa8;" horiz-adv-x="851" d="M184 1212l33 213h213l-33 -213h-213zM584 1212l32 213h209l-32 -213h-209z" />
<glyph unicode="&#xa9;" horiz-adv-x="1632" d="M94 618q0 174 66.5 325t178.5 262.5t261.5 175t314.5 63.5q135 0 247 -49t192 -133t124 -200t44 -247q0 -174 -66.5 -323.5t-178.5 -260t-260.5 -173t-311.5 -62.5q-135 0 -248 48t-194 131t-125 196.5t-44 246.5zM242 637q0 -106 34.5 -197.5t99 -158t153.5 -104.5 t198 -38q129 0 247 50.5t207 138.5t142 207.5t53 259.5q0 104 -34.5 195t-98 159t-153 106.5t-195.5 38.5q-131 0 -250 -51t-208 -139t-142 -209t-53 -258zM446 653l13 97q10 72 50 131t96.5 102t126 67.5t140.5 24.5q53 0 92.5 -7t70 -24.5t58 -45t58.5 -68.5l-127 -133 q-29 41 -78 66.5t-102 25.5q-61 0 -113.5 -38t-62.5 -101l-13 -97q-6 -35 4.5 -60.5t32 -43t51 -26.5t62.5 -9q53 0 109.5 22.5t103.5 61.5l80 -137q-31 -31 -73 -56.5t-87 -42t-90 -25.5t-84 -9q-74 0 -137.5 22.5t-107.5 64.5t-64.5 102.5t-8.5 135.5z" />
<glyph unicode="&#xaa;" horiz-adv-x="735" d="M117 922l4 26q16 106 119.5 147.5t269.5 43.5l6 45q6 41 -15.5 58.5t-82.5 17.5q-51 0 -102.5 -14.5t-79.5 -28.5l-27 133q51 27 119.5 43t148.5 16q119 0 176.5 -55.5t40.5 -173.5l-61 -420h-144l-12 78q-31 -41 -82 -63.5t-119 -22.5q-82 0 -127 43t-32 127zM299 950 q-4 -27 17.5 -37t56.5 -10q39 0 71.5 19.5t38.5 54.5l6 51q-74 0 -129 -12t-59 -47z" />
<glyph unicode="&#xab;" horiz-adv-x="978" d="M37 356l373 371l71 -84l-225 -283l143 -268l-96 -92zM418 356l373 371l71 -84l-223 -283l141 -268l-96 -92z" />
<glyph unicode="&#xac;" horiz-adv-x="946" d="M66 541l26 184h750l-54 -365h-178l27 181h-571z" />
<glyph unicode="&#xad;" horiz-adv-x="708" d="M51 475l37 258h520l-37 -258h-520z" />
<glyph unicode="&#xae;" horiz-adv-x="1632" d="M92 608q0 180 63.5 334t175 265.5t262 174t322.5 62.5q137 0 250 -47t193 -130t123 -197t43 -247q0 -182 -64.5 -333.5t-175 -261t-260.5 -171t-319 -61.5q-139 0 -253 45t-194 127t-123 193.5t-43 246.5zM240 629q0 -106 34.5 -196.5t98 -155t153.5 -101.5t201 -37 q135 0 254 49.5t207 137.5t139 208.5t51 264.5q0 106 -34.5 197t-97 157t-151.5 103.5t-200 37.5q-137 0 -257 -50t-208 -139t-139 -211t-51 -265zM471 336l111 758h342q100 0 157.5 -62.5t42.5 -167.5l-6 -39q-10 -74 -56 -121t-114 -71l142 -297h-189l-137 274h-84 l-39 -274h-170zM700 737h148q35 0 65.5 17.5t36.5 56.5l6 47q4 35 -20.5 61.5t-58.5 26.5h-148z" />
<glyph unicode="&#xaf;" horiz-adv-x="915" d="M199 1307l18 123h672l-19 -123h-671z" />
<glyph unicode="&#xb0;" horiz-adv-x="792" d="M143 1098l9 57q8 61 38.5 108.5t76.5 80t102.5 50t117.5 19.5q57 -2 109.5 -19.5t89.5 -50t54.5 -79.5t9.5 -109l-9 -57q-8 -61 -39.5 -108.5t-77.5 -79t-103.5 -48t-117.5 -16.5q-61 0 -112 16.5t-87 48t-52.5 78.5t-8.5 109zM330 1079q-6 -41 25.5 -59.5t70.5 -18.5 t80 18.5t47 59.5l14 99q6 41 -27.5 61.5t-74.5 20.5q-39 0 -77 -20.5t-44 -61.5z" />
<glyph unicode="&#xb1;" horiz-adv-x="1153" d="M-10 0l26 180h949l-27 -180h-948zM113 621l28 198h320l47 314h223l-47 -314h338l-29 -198h-338l-47 -330h-223l47 330h-319z" />
<glyph unicode="&#xb2;" horiz-adv-x="907" d="M164 711l14 102q14 109 81 167t181 107q23 8 49.5 17.5t50 22t40 26.5t16.5 31q0 25 -22.5 34t-63.5 9q-78 0 -127 -18.5t-96 -41.5l-39 150q45 33 132 63.5t210 30.5q98 0 168.5 -42t70.5 -136q0 -88 -49 -141.5t-127 -87.5q-33 -16 -65.5 -28.5t-61 -25t-49 -26 t-28.5 -33.5h329l-24 -180h-590z" />
<glyph unicode="&#xb3;" horiz-adv-x="759" d="M100 778l127 117q25 -29 73 -51.5t106 -22.5q45 0 80.5 11.5t39.5 35.5l2 19q6 41 -28.5 60.5t-75.5 19.5h-131l20 143h125q16 0 37 3t39 10t31.5 20.5t17.5 32.5l2 18q4 27 -28.5 36t-67.5 9q-59 0 -109.5 -13.5t-85.5 -37.5l-61 131q53 45 142 69.5t175 24.5 q55 0 106.5 -8t89.5 -29.5t57.5 -61.5t11.5 -104l-2 -18q-4 -29 -19.5 -54.5t-37 -45t-47 -34t-50.5 -20.5q23 -8 45.5 -22.5t38.5 -34.5t25.5 -44t5.5 -50l-4 -31q-10 -63 -43 -103t-79 -63.5t-101.5 -32t-108.5 -8.5q-104 0 -191.5 33t-126.5 96z" />
<glyph unicode="&#xb4;" horiz-adv-x="593" d="M164 1171l276 330l176 -110l-317 -291z" />
<glyph unicode="&#xb6;" horiz-adv-x="1144" d="M139 1040l6 43q10 68 41 124.5t78 97.5t106.5 63.5t127.5 24.5h577l-203 -1393h-155l184 1257h-160l-184 -1257h-168l111 752h-94q-68 0 -121.5 19.5t-89 56t-51 91t-5.5 121.5z" />
<glyph unicode="&#xb7;" horiz-adv-x="440" d="M72 408l39 270h301l-39 -270h-301z" />
<glyph unicode="&#xb8;" horiz-adv-x="573" d="M-45 -422q8 4 33.5 14.5t52.5 28t47.5 40t20.5 52.5q0 41 -28 65.5t-89 39.5l61 182h166l-35 -100q14 -6 37 -17.5t43.5 -32t34.5 -50t14 -72.5q0 -102 -85 -167t-218 -110z" />
<glyph unicode="&#xb9;" horiz-adv-x="518" d="M123 1184l31 209h372l-100 -691h-236l70 482h-137z" />
<glyph unicode="&#xba;" horiz-adv-x="794" d="M133 1026l19 129q8 59 39.5 106.5t77.5 80t102.5 50t115.5 17.5q57 0 109.5 -17.5t89.5 -50t55.5 -80t10.5 -106.5l-19 -129q-8 -61 -41 -108.5t-79 -79t-103 -49t-115 -17.5q-59 0 -110.5 17.5t-88 50t-54 80t-9.5 106.5zM334 1047q-10 -59 10.5 -86t79.5 -27 q35 0 71.5 16.5t41.5 53.5l24 165q6 35 -26.5 53.5t-67.5 18.5q-39 0 -76 -20.5t-41 -55.5z" />
<glyph unicode="&#xbb;" horiz-adv-x="968" d="M-16 92l219 268l-142 283l95 84l262 -371l-369 -356zM365 92l221 268l-144 283l97 84l262 -371l-369 -356z" />
<glyph unicode="&#xbc;" horiz-adv-x="1386" d="M-53 0l1061 1393h256l-1049 -1393h-268zM137 1184l31 209h373l-101 -691h-235l69 482h-137zM524 131l19 123l383 479h293l-64 -434h115l-25 -168h-115l-18 -131h-221l18 131h-385zM780 299h154l35 229h-19z" />
<glyph unicode="&#xbd;" horiz-adv-x="1447" d="M-55 0l1063 1393h256l-1049 -1393h-270zM137 1184l31 209h373l-101 -691h-235l69 482h-137zM616 -18l15 102q14 109 80.5 167t185.5 107q20 8 47 17.5t50.5 22t39 26.5t15.5 31q0 25 -21.5 34t-62.5 9q-78 0 -128.5 -18.5t-97.5 -41.5l-39 150q47 33 134 63.5t208 30.5 q100 0 171 -42t71 -136q0 -88 -48 -141.5t-126 -88.5q-35 -16 -67.5 -28.5t-61.5 -24.5t-49.5 -25.5t-28.5 -33.5h332l-27 -180h-592z" />
<glyph unicode="&#xbe;" horiz-adv-x="1595" d="M76 778l129 117q23 -29 71 -51.5t105 -22.5q45 0 82 11.5t41 35.5l2 19q6 41 -30 60.5t-77 19.5h-131l21 143h127q16 0 35.5 3t38 10t32 20.5t17.5 32.5l2 18q4 27 -29 36t-68 9q-59 0 -109 -13.5t-85 -37.5l-62 131q53 45 142.5 69.5t175.5 24.5q55 0 106.5 -8t89 -29.5 t57 -61.5t11.5 -104l-2 -18q-4 -29 -19.5 -54.5t-37 -45t-47 -34t-50.5 -20.5q23 -8 45.5 -22.5t39 -34.5t25.5 -44t5 -50l-4 -31q-10 -63 -43 -103t-79 -63.5t-101.5 -32t-108.5 -8.5q-104 0 -191 33t-126 96zM178 0l1063 1393h256l-1051 -1393h-268zM764 129l18 123 l381 479h295l-63 -434h114l-24 -168h-115l-18 -131h-224l19 131h-383zM1018 297h153l33 229h-18z" />
<glyph unicode="&#xbf;" horiz-adv-x="903" d="M-76 -29l6 39q6 49 25.5 88t45.5 70t56.5 57.5t61.5 55.5q39 31 66.5 56t47 53t30.5 59.5t18 74.5l12 76h307l-16 -113q-10 -76 -51 -133t-115 -116q-23 -20 -48.5 -43t-47 -47.5t-38 -49t-18.5 -49.5l-6 -35q-6 -47 24.5 -65.5t86.5 -18.5q33 0 68.5 8.5t71.5 21.5 t68.5 28.5t57.5 31.5l84 -219q-92 -59 -207.5 -103t-230.5 -44q-90 0 -162 17.5t-119 56.5t-68.5 98t-9.5 145zM289 795l39 272h354l-39 -272h-354z" />
<glyph unicode="&#xc0;" horiz-adv-x="1341" d="M-57 0l645 1403h358l223 -1403h-348l-30 281h-383l-115 -281h-350zM502 537h270l-59 503zM549 1798l213 109l172 -318l-156 -86z" />
<glyph unicode="&#xc1;" horiz-adv-x="1341" d="M-57 0l645 1403h358l223 -1403h-348l-30 281h-383l-115 -281h-350zM502 537h270l-59 503zM643 1573l277 330l176 -111l-318 -291z" />
<glyph unicode="&#xc2;" horiz-adv-x="1341" d="M-57 0l645 1403h358l223 -1403h-348l-30 281h-383l-115 -281h-350zM502 537h270l-59 503zM518 1610l301 190l244 -196l-102 -111l-170 111l-203 -109z" />
<glyph unicode="&#xc3;" horiz-adv-x="1341" d="M-57 0l645 1403h358l223 -1403h-348l-30 281h-383l-115 -281h-350zM453 1612q53 70 107 107.5t120 37.5q33 0 65.5 -12t63.5 -26.5t59.5 -27t53.5 -12.5q47 0 72.5 23.5t39.5 44.5l94 -92q-10 -14 -28.5 -42t-44 -54.5t-58 -46t-73.5 -19.5q-37 0 -70 12.5t-65.5 27.5 t-67.5 28.5t-74 13.5q-37 0 -65.5 -26.5t-44.5 -43.5zM502 537h270l-59 503z" />
<glyph unicode="&#xc4;" horiz-adv-x="1341" d="M-57 0l645 1403h358l223 -1403h-348l-30 281h-383l-115 -281h-350zM471 1516l33 213h213l-33 -213h-213zM502 537h270l-59 503zM870 1516l33 213h209l-33 -213h-209z" />
<glyph unicode="&#xc5;" horiz-adv-x="1341" d="M-57 0l645 1403h358l223 -1403h-348l-30 281h-383l-115 -281h-350zM502 537h270l-59 503zM641 1634q0 76 53.5 127t122.5 51q59 0 97 -38.5t38 -98.5q0 -37 -15 -69.5t-41 -57t-58.5 -39t-67.5 -14.5q-57 0 -93 41t-36 98zM721 1642q0 -29 17.5 -47t43.5 -18 q35 0 62.5 24.5t27.5 61.5q0 29 -19 50.5t-48 21.5q-33 0 -58.5 -28t-25.5 -65z" />
<glyph unicode="&#xc6;" horiz-adv-x="1882" d="M-78 0l1036 1393h893l-39 -277h-452l-41 -276h373l-37 -256h-373l-45 -310h496l-41 -274h-815l43 291h-414l-211 -291h-373zM662 547h294l78 538z" />
<glyph unicode="&#xc7;" horiz-adv-x="1157" d="M84 440l76 510q14 109 69.5 195t136 145.5t181 91t209.5 31.5q152 0 246 -32.5t174 -100.5l-158 -229q-55 37 -118 60.5t-161 23.5q-102 0 -173.5 -53.5t-88.5 -151.5l-67 -471q-16 -106 43 -155.5t163 -49.5q92 0 164 20.5t131 57.5l80 -228q-84 -59 -171 -88.5 t-210 -33.5l-28 -82q14 -6 36.5 -17.5t43 -32t35 -50t14.5 -72.5q0 -102 -85 -167t-220 -110l-54 127q8 4 33 14.5t51.5 28t47 41t20.5 53.5q0 41 -27.5 64.5t-89.5 38.5l57 168q-92 12 -165.5 46t-121.5 90t-67.5 136t-5.5 182z" />
<glyph unicode="&#xc8;" horiz-adv-x="1157" d="M39 0l203 1393h872l-39 -277h-553l-41 -276h432l-39 -267h-432l-43 -299h594l-41 -274h-913zM483 1788l213 108l172 -317l-155 -86z" />
<glyph unicode="&#xc9;" horiz-adv-x="1157" d="M39 0l203 1393h872l-39 -277h-553l-41 -276h432l-39 -267h-432l-43 -299h594l-41 -274h-913zM580 1561l276 329l176 -110l-317 -291z" />
<glyph unicode="&#xca;" horiz-adv-x="1157" d="M39 0l203 1393h872l-39 -277h-553l-41 -276h432l-39 -267h-432l-43 -299h594l-41 -274h-913zM451 1599l301 191l243 -197l-102 -110l-170 110l-203 -108z" />
<glyph unicode="&#xcb;" horiz-adv-x="1157" d="M39 0l203 1393h872l-39 -277h-553l-41 -276h432l-39 -267h-432l-43 -299h594l-41 -274h-913zM408 1503l32 213h213l-32 -213h-213zM807 1503l33 213h209l-33 -213h-209z" />
<glyph unicode="&#xcc;" horiz-adv-x="647" d="M51 0l203 1393h317l-202 -1393h-318zM203 1788l213 108l172 -317l-156 -86z" />
<glyph unicode="&#xcd;" horiz-adv-x="647" d="M51 0l203 1393h317l-202 -1393h-318zM293 1561l276 329l176 -110l-317 -291z" />
<glyph unicode="&#xce;" horiz-adv-x="647" d="M51 0l203 1393h317l-202 -1393h-318zM168 1599l301 191l244 -197l-103 -110l-170 110l-202 -108z" />
<glyph unicode="&#xcf;" horiz-adv-x="647" d="M51 0l203 1393h317l-202 -1393h-318zM129 1503l33 213h213l-33 -213h-213zM528 1503l33 213h209l-33 -213h-209z" />
<glyph unicode="&#xd0;" horiz-adv-x="1343" d="M-8 565l37 248h133l84 580h510q121 0 216 -30t158.5 -90.5t89 -153.5t7.5 -222l-60 -403q-18 -127 -75.5 -220.5t-143.5 -154t-192.5 -90t-223.5 -29.5h-489l82 565h-133zM397 274h176q49 0 95.5 13.5t83 43t63.5 76t37 113.5l51 350q18 129 -36 187.5t-150 58.5h-197 l-45 -303h256l-37 -248h-256z" />
<glyph unicode="&#xd1;" horiz-adv-x="1433" d="M41 0l203 1393h299l401 -897l131 897h295l-203 -1393h-299l-405 889l-129 -889h-293zM514 1599q53 70 107.5 108t119.5 38q33 0 66 -12.5t63.5 -26.5t59 -26.5t53.5 -12.5q47 0 72.5 23.5t40.5 44.5l94 -93q-10 -14 -28.5 -41.5t-44 -54t-58.5 -46t-74 -19.5 q-37 0 -69.5 12t-65.5 27.5t-67.5 29t-73.5 13.5q-37 0 -66 -27t-45 -43z" />
<glyph unicode="&#xd2;" d="M86 440l76 516q16 109 70.5 194t136.5 143.5t187.5 89t221.5 30.5h33q115 0 210 -31.5t160.5 -90t95.5 -143.5t15 -192l-75 -516q-16 -115 -69.5 -200.5t-134.5 -143t-186.5 -87t-224.5 -29.5h-31q-121 0 -218 28.5t-162.5 86t-93 144.5t-11.5 201zM412 463 q-16 -111 38 -160t160 -49h31q104 0 173 50t85 159l68 467q16 102 -41.5 154.5t-155.5 52.5h-33q-100 0 -170.5 -53.5t-87.5 -151.5zM578 1808l213 109l172 -318l-156 -86z" />
<glyph unicode="&#xd3;" d="M86 440l76 516q16 109 70.5 194t136.5 143.5t187.5 89t221.5 30.5h33q115 0 210 -31.5t160.5 -90t95.5 -143.5t15 -192l-75 -516q-16 -115 -69.5 -200.5t-134.5 -143t-186.5 -87t-224.5 -29.5h-31q-121 0 -218 28.5t-162.5 86t-93 144.5t-11.5 201zM412 463 q-16 -111 38 -160t160 -49h31q104 0 173 50t85 159l68 467q16 102 -41.5 154.5t-155.5 52.5h-33q-100 0 -170.5 -53.5t-87.5 -151.5zM666 1581l276 330l176 -111l-317 -291z" />
<glyph unicode="&#xd4;" d="M86 440l76 516q16 109 70.5 194t136.5 143.5t187.5 89t221.5 30.5h33q115 0 210 -31.5t160.5 -90t95.5 -143.5t15 -192l-75 -516q-16 -115 -69.5 -200.5t-134.5 -143t-186.5 -87t-224.5 -29.5h-31q-121 0 -218 28.5t-162.5 86t-93 144.5t-11.5 201zM412 463 q-16 -111 38 -160t160 -49h31q104 0 173 50t85 159l68 467q16 102 -41.5 154.5t-155.5 52.5h-33q-100 0 -170.5 -53.5t-87.5 -151.5zM543 1620l301 190l243 -196l-102 -111l-170 111l-203 -109z" />
<glyph unicode="&#xd5;" d="M86 440l76 516q16 109 70.5 194t136.5 143.5t187.5 89t221.5 30.5h33q115 0 210 -31.5t160.5 -90t95.5 -143.5t15 -192l-75 -516q-16 -115 -69.5 -200.5t-134.5 -143t-186.5 -87t-224.5 -29.5h-31q-121 0 -218 28.5t-162.5 86t-93 144.5t-11.5 201zM412 463 q-16 -111 38 -160t160 -49h31q104 0 173 50t85 159l68 467q16 102 -41.5 154.5t-155.5 52.5h-33q-100 0 -170.5 -53.5t-87.5 -151.5zM481 1620q53 70 107.5 107.5t120.5 37.5q33 0 65.5 -12t63 -26.5t59.5 -26.5t53 -12q47 0 73 23.5t40 43.5l94 -92q-10 -14 -28.5 -42 t-44 -54.5t-58.5 -46t-74 -19.5q-37 0 -69.5 12.5t-65.5 27.5t-67.5 28.5t-73.5 13.5q-37 0 -65.5 -26.5t-45.5 -43.5z" />
<glyph unicode="&#xd6;" d="M86 440l76 516q16 109 70.5 194t136.5 143.5t187.5 89t221.5 30.5h33q115 0 210 -31.5t160.5 -90t95.5 -143.5t15 -192l-75 -516q-16 -115 -69.5 -200.5t-134.5 -143t-186.5 -87t-224.5 -29.5h-31q-121 0 -218 28.5t-162.5 86t-93 144.5t-11.5 201zM412 463 q-16 -111 38 -160t160 -49h31q104 0 173 50t85 159l68 467q16 102 -41.5 154.5t-155.5 52.5h-33q-100 0 -170.5 -53.5t-87.5 -151.5zM502 1524l33 213h213l-33 -213h-213zM901 1524l33 213h209l-33 -213h-209z" />
<glyph unicode="&#xd7;" horiz-adv-x="1251" d="M-14 0l473 508l-316 496h248l215 -340l318 340h245l-456 -496l323 -508h-258l-217 346l-317 -346h-258z" />
<glyph unicode="&#xd8;" d="M68 -145l139 225q-74 57 -105.5 147t-15.5 213l76 516q16 109 70.5 194t136.5 143.5t187.5 89t221.5 30.5h33q57 0 110.5 -8t100.5 -25l115 181h170l-152 -248q78 -59 116 -149.5t21 -207.5l-75 -516q-16 -115 -69.5 -200.5t-134.5 -143t-186.5 -87t-224.5 -29.5h-31 q-129 0 -227 30l-96 -155h-180zM408 399l452 723q-18 6 -41.5 10.5t-48.5 4.5h-33q-100 0 -170.5 -53.5t-87.5 -151.5l-67 -469q-4 -16 -4 -32.5v-31.5zM504 268q41 -14 106 -14h31q104 0 173 50t85 159l68 467q4 23 3 43t-5 37z" />
<glyph unicode="&#xd9;" horiz-adv-x="1437" d="M102 375q0 33 3.5 62.5t9.5 70.5l129 885h321l-123 -850q-6 -41 -9 -66.5t-3 -48.5q0 -90 62.5 -132t150.5 -42q47 0 93 13.5t83 40t63.5 67.5t35.5 96l133 922h321l-137 -938q-16 -119 -73.5 -208t-142.5 -148.5t-191.5 -89t-221.5 -29.5q-106 0 -198.5 24.5t-160 73.5 t-106.5 122.5t-39 174.5zM594 1788l213 108l172 -317l-156 -86z" />
<glyph unicode="&#xda;" horiz-adv-x="1437" d="M102 375q0 33 3.5 62.5t9.5 70.5l129 885h321l-123 -850q-6 -41 -9 -66.5t-3 -48.5q0 -90 62.5 -132t150.5 -42q47 0 93 13.5t83 40t63.5 67.5t35.5 96l133 922h321l-137 -938q-16 -119 -73.5 -208t-142.5 -148.5t-191.5 -89t-221.5 -29.5q-106 0 -198.5 24.5t-160 73.5 t-106.5 122.5t-39 174.5zM686 1561l277 329l176 -110l-318 -291z" />
<glyph unicode="&#xdb;" horiz-adv-x="1437" d="M102 375q0 33 3.5 62.5t9.5 70.5l129 885h321l-123 -850q-6 -41 -9 -66.5t-3 -48.5q0 -90 62.5 -132t150.5 -42q47 0 93 13.5t83 40t63.5 67.5t35.5 96l133 922h321l-137 -938q-16 -119 -73.5 -208t-142.5 -148.5t-191.5 -89t-221.5 -29.5q-106 0 -198.5 24.5t-160 73.5 t-106.5 122.5t-39 174.5zM569 1599l301 191l244 -197l-102 -110l-170 110l-203 -108z" />
<glyph unicode="&#xdc;" horiz-adv-x="1437" d="M102 375q0 33 3.5 62.5t9.5 70.5l129 885h321l-123 -850q-6 -41 -9 -66.5t-3 -48.5q0 -90 62.5 -132t150.5 -42q47 0 93 13.5t83 40t63.5 67.5t35.5 96l133 922h321l-137 -938q-16 -119 -73.5 -208t-142.5 -148.5t-191.5 -89t-221.5 -29.5q-106 0 -198.5 24.5t-160 73.5 t-106.5 122.5t-39 174.5zM516 1503l33 213h213l-33 -213h-213zM915 1503l33 213h209l-33 -213h-209z" />
<glyph unicode="&#xdd;" horiz-adv-x="1327" d="M164 1393h364l138 -572l309 572h366l-561 -887l-73 -506h-322l74 508zM588 1561l276 329l176 -110l-317 -291z" />
<glyph unicode="&#xde;" horiz-adv-x="1189" d="M39 0l203 1393h321l-35 -248h215q205 0 305.5 -108.5t71.5 -301.5l-4 -37q-29 -199 -159 -294t-336 -95h-215l-46 -309h-321zM446 584h193q61 0 104 30.5t52 83.5l4 37q10 57 -25 98t-96 41h-191z" />
<glyph unicode="&#xe0;" horiz-adv-x="1077" d="M-14 219q0 16 1 33.5t9 71.5q14 94 77.5 153.5t156 92t201 44t212.5 11.5l8 49q2 10 3 20.5t1 20.5q0 47 -34.5 65.5t-126.5 18.5q-31 0 -72 -5.5t-83 -13.5t-80 -19t-62 -24l-45 230q43 23 97 41t112.5 30.5t116 19.5t106.5 7q201 0 295 -72.5t94 -212.5q0 -12 -1 -32.5 t-5 -40.5l-103 -707h-243l-23 131q-51 -72 -137 -108.5t-176 -36.5q-154 0 -226.5 66.5t-72.5 166.5zM313 299q0 -31 28 -49.5t89 -18.5q66 0 113 28t51 65l18 120q-43 -2 -93 -6t-93 -14t-73.5 -29.5t-35.5 -52.5q-4 -23 -4 -30v-13zM373 1497l213 109l172 -318l-156 -86z " />
<glyph unicode="&#xe1;" horiz-adv-x="1077" d="M-14 219q0 16 1 33.5t9 71.5q14 94 77.5 153.5t156 92t201 44t212.5 11.5l8 49q2 10 3 20.5t1 20.5q0 47 -34.5 65.5t-126.5 18.5q-31 0 -72 -5.5t-83 -13.5t-80 -19t-62 -24l-45 230q43 23 97 41t112.5 30.5t116 19.5t106.5 7q201 0 295 -72.5t94 -212.5q0 -12 -1 -32.5 t-5 -40.5l-103 -707h-243l-23 131q-51 -72 -137 -108.5t-176 -36.5q-154 0 -226.5 66.5t-72.5 166.5zM313 299q0 -31 28 -49.5t89 -18.5q66 0 113 28t51 65l18 120q-43 -2 -93 -6t-93 -14t-73.5 -29.5t-35.5 -52.5q-4 -23 -4 -30v-13zM481 1272l277 330l176 -111l-318 -291z " />
<glyph unicode="&#xe2;" horiz-adv-x="1077" d="M-14 219q0 16 1 33.5t9 71.5q14 94 77.5 153.5t156 92t201 44t212.5 11.5l8 49q2 10 3 20.5t1 20.5q0 47 -34.5 65.5t-126.5 18.5q-31 0 -72 -5.5t-83 -13.5t-80 -19t-62 -24l-45 230q43 23 97 41t112.5 30.5t116 19.5t106.5 7q201 0 295 -72.5t94 -212.5q0 -12 -1 -32.5 t-5 -40.5l-103 -707h-243l-23 131q-51 -72 -137 -108.5t-176 -36.5q-154 0 -226.5 66.5t-72.5 166.5zM313 299q0 -31 28 -49.5t89 -18.5q66 0 113 28t51 65l18 120q-43 -2 -93 -6t-93 -14t-73.5 -29.5t-35.5 -52.5q-4 -23 -4 -30v-13zM354 1309l301 190l244 -196l-102 -111 l-170 111l-203 -109z" />
<glyph unicode="&#xe3;" horiz-adv-x="1077" d="M-14 219q0 16 1 33.5t9 71.5q14 94 77.5 153.5t156 92t201 44t212.5 11.5l8 49q2 10 3 20.5t1 20.5q0 47 -34.5 65.5t-126.5 18.5q-31 0 -72 -5.5t-83 -13.5t-80 -19t-62 -24l-45 230q43 23 97 41t112.5 30.5t116 19.5t106.5 7q201 0 295 -72.5t94 -212.5q0 -12 -1 -32.5 t-5 -40.5l-103 -707h-243l-23 131q-51 -72 -137 -108.5t-176 -36.5q-154 0 -226.5 66.5t-72.5 166.5zM295 1311q53 70 107.5 107.5t119.5 37.5q33 0 66 -12t63.5 -26.5t59 -27t53.5 -12.5q47 0 72.5 23.5t40.5 44.5l94 -92q-10 -14 -28.5 -42t-44.5 -54.5t-58.5 -46 t-73.5 -19.5q-37 0 -69.5 12.5t-65.5 27.5t-68 28.5t-74 13.5q-37 0 -65.5 -26.5t-44.5 -43.5zM313 299q0 -31 28 -49.5t89 -18.5q66 0 113 28t51 65l18 120q-43 -2 -93 -6t-93 -14t-73.5 -29.5t-35.5 -52.5q-4 -23 -4 -30v-13z" />
<glyph unicode="&#xe4;" horiz-adv-x="1077" d="M-14 219q0 16 1 33.5t9 71.5q14 94 77.5 153.5t156 92t201 44t212.5 11.5l8 49q2 10 3 20.5t1 20.5q0 47 -34.5 65.5t-126.5 18.5q-31 0 -72 -5.5t-83 -13.5t-80 -19t-62 -24l-45 230q43 23 97 41t112.5 30.5t116 19.5t106.5 7q201 0 295 -72.5t94 -212.5q0 -12 -1 -32.5 t-5 -40.5l-103 -707h-243l-23 131q-51 -72 -137 -108.5t-176 -36.5q-154 0 -226.5 66.5t-72.5 166.5zM313 299q0 -31 28 -49.5t89 -18.5q66 0 113 28t51 65l18 120q-43 -2 -93 -6t-93 -14t-73.5 -29.5t-35.5 -52.5q-4 -23 -4 -30v-13zM313 1217l33 213h213l-33 -213h-213z M713 1217l32 213h209l-32 -213h-209z" />
<glyph unicode="&#xe5;" horiz-adv-x="1077" d="M-14 219q0 16 1 33.5t9 71.5q14 94 77.5 153.5t156 92t201 44t212.5 11.5l8 49q2 10 3 20.5t1 20.5q0 47 -34.5 65.5t-126.5 18.5q-31 0 -72 -5.5t-83 -13.5t-80 -19t-62 -24l-45 230q43 23 97 41t112.5 30.5t116 19.5t106.5 7q201 0 295 -72.5t94 -212.5q0 -12 -1 -32.5 t-5 -40.5l-103 -707h-243l-23 131q-51 -72 -137 -108.5t-176 -36.5q-154 0 -226.5 66.5t-72.5 166.5zM313 299q0 -31 28 -49.5t89 -18.5q66 0 113 28t51 65l18 120q-43 -2 -93 -6t-93 -14t-73.5 -29.5t-35.5 -52.5q-4 -23 -4 -30v-13zM477 1333q0 76 53.5 127t122.5 51 q59 0 97 -38.5t38 -98.5q0 -37 -15 -69.5t-40.5 -57t-58.5 -39t-68 -14.5q-57 0 -93 41t-36 98zM557 1341q0 -29 17.5 -47t43.5 -18q35 0 63 24.5t28 61.5q0 29 -19.5 50.5t-48.5 21.5q-33 0 -58.5 -28t-25.5 -65z" />
<glyph unicode="&#xe6;" horiz-adv-x="1726" d="M4 311l33 224l614 69l15 94q10 66 -32 92.5t-120 26.5q-33 0 -74 -5t-84 -13t-80.5 -17.5t-64.5 -17.5l-37 209q43 23 94 43t104.5 35.5t106.5 23.5t103 8q121 0 190.5 -29.5t104.5 -72.5q66 51 158.5 76.5t205.5 25.5q92 0 169 -21.5t130 -65.5t77.5 -112.5t10.5 -160.5 l-31 -219l-618 -55l-10 -70q-8 -53 39.5 -88t156.5 -35q41 0 87 8t90 20.5t83 29t66 32.5l74 -207q-104 -78 -218 -115.5t-237 -37.5q-158 0 -263.5 41t-152.5 133q-63 -92 -158.5 -133t-205.5 -41q-176 0 -262 87t-64 238zM307 322q-6 -43 30 -67t107 -24q27 0 55.5 6.5 t53.5 18.5t41 30.5t20 45.5l13 90l-310 -35zM1006 629l325 26l10 80q8 53 -31.5 74.5t-111.5 21.5q-66 0 -119 -27.5t-61 -80.5z" />
<glyph unicode="&#xe7;" horiz-adv-x="1019" d="M53 365l45 313q14 94 60.5 167t118 122t165 73.5t201.5 24.5q115 0 201 -27.5t145 -76.5l-143 -228q-41 25 -90 40t-121 15q-86 0 -147.5 -35.5t-71.5 -113.5l-35 -238q-12 -80 40 -114.5t140 -34.5q68 0 123 14.5t107 36.5l71 -225q-72 -49 -158 -70.5t-180 -25.5 l-28 -82q14 -6 36.5 -17.5t43 -32t35 -50t14.5 -72.5q0 -102 -85 -167t-221 -110l-53 127q8 4 33 14.5t51.5 28t47 41t20.5 53.5q0 41 -26.5 64.5t-88.5 38.5l57 172q-164 23 -247.5 115t-59.5 260z" />
<glyph unicode="&#xe8;" horiz-adv-x="1171" d="M45 311q0 20 3 43t7 54l43 294q12 84 63.5 151t126 114t167 71.5t186.5 24.5q88 0 164 -20.5t131 -60.5t87 -97.5t32 -130.5q0 -12 -2 -29.5t-6 -50.5l-37 -246h-631l-2 -16q-2 -10 -4 -27.5t-2 -28.5q0 -59 58 -81.5t142 -22.5q94 0 175 17.5t139 45.5l65 -219 q-106 -59 -210.5 -83.5t-231.5 -24.5q-94 0 -178 20.5t-147.5 60.5t-100.5 100t-37 142zM412 637h331l5 29q2 10 3 21t1 24q0 47 -46.5 71.5t-103.5 24.5q-29 0 -58.5 -7t-56 -21.5t-45 -36t-22.5 -50.5zM420 1499l213 109l172 -318l-156 -86z" />
<glyph unicode="&#xe9;" horiz-adv-x="1171" d="M45 311q0 20 3 43t7 54l43 294q12 84 63.5 151t126 114t167 71.5t186.5 24.5q88 0 164 -20.5t131 -60.5t87 -97.5t32 -130.5q0 -12 -2 -29.5t-6 -50.5l-37 -246h-631l-2 -16q-2 -10 -4 -27.5t-2 -28.5q0 -59 58 -81.5t142 -22.5q94 0 175 17.5t139 45.5l65 -219 q-106 -59 -210.5 -83.5t-231.5 -24.5q-94 0 -178 20.5t-147.5 60.5t-100.5 100t-37 142zM412 637h331l5 29q2 10 3 21t1 24q0 47 -46.5 71.5t-103.5 24.5q-29 0 -58.5 -7t-56 -21.5t-45 -36t-22.5 -50.5zM510 1274l276 330l177 -111l-318 -291z" />
<glyph unicode="&#xea;" horiz-adv-x="1171" d="M45 311q0 20 3 43t7 54l43 294q12 84 63.5 151t126 114t167 71.5t186.5 24.5q88 0 164 -20.5t131 -60.5t87 -97.5t32 -130.5q0 -12 -2 -29.5t-6 -50.5l-37 -246h-631l-2 -16q-2 -10 -4 -27.5t-2 -28.5q0 -59 58 -81.5t142 -22.5q94 0 175 17.5t139 45.5l65 -219 q-106 -59 -210.5 -83.5t-231.5 -24.5q-94 0 -178 20.5t-147.5 60.5t-100.5 100t-37 142zM385 1311l301 190l244 -196l-103 -111l-170 111l-202 -109zM412 637h331l5 29q2 10 3 21t1 24q0 47 -46.5 71.5t-103.5 24.5q-29 0 -58.5 -7t-56 -21.5t-45 -36t-22.5 -50.5z" />
<glyph unicode="&#xeb;" horiz-adv-x="1171" d="M45 311q0 20 3 43t7 54l43 294q12 84 63.5 151t126 114t167 71.5t186.5 24.5q88 0 164 -20.5t131 -60.5t87 -97.5t32 -130.5q0 -12 -2 -29.5t-6 -50.5l-37 -246h-631l-2 -16q-2 -10 -4 -27.5t-2 -28.5q0 -59 58 -81.5t142 -22.5q94 0 175 17.5t139 45.5l65 -219 q-106 -59 -210.5 -83.5t-231.5 -24.5q-94 0 -178 20.5t-147.5 60.5t-100.5 100t-37 142zM342 1219l33 213h213l-33 -213h-213zM412 637h331l5 29q2 10 3 21t1 24q0 47 -46.5 71.5t-103.5 24.5q-29 0 -58.5 -7t-56 -21.5t-45 -36t-22.5 -50.5zM741 1219l33 213h209l-33 -213 h-209z" />
<glyph unicode="&#xec;" horiz-adv-x="604" d="M29 0l155 1063h320l-156 -1063h-319zM135 1479l213 108l172 -317l-155 -86z" />
<glyph unicode="&#xed;" horiz-adv-x="604" d="M29 0l155 1063h320l-156 -1063h-319zM227 1253l277 330l176 -110l-318 -291z" />
<glyph unicode="&#xee;" horiz-adv-x="604" d="M29 0l155 1063h320l-156 -1063h-319zM104 1290l302 191l243 -197l-102 -110l-170 110l-203 -108z" />
<glyph unicode="&#xef;" horiz-adv-x="604" d="M29 0l155 1063h320l-156 -1063h-319zM63 1200l33 213h213l-33 -213h-213zM463 1200l33 213h209l-33 -213h-209z" />
<glyph unicode="&#xf0;" horiz-adv-x="1200" d="M51 362l29 199q12 80 48 149.5t93.5 121t134 81t168.5 29.5q31 0 67 -5t71.5 -14.5t67.5 -24.5t52 -36q-20 86 -71.5 163t-122.5 132l-293 -129l-51 137l211 92q-41 25 -71 39.5t-75 30.5l172 213q92 -29 169 -68.5t149 -101.5l276 121l53 -139l-217 -95 q94 -127 140.5 -272t19.5 -326l-43 -297q-12 -90 -60 -160.5t-122 -119.5t-168 -75.5t-199 -26.5q-98 0 -182 26.5t-142.5 75.5t-87 119.5t-16.5 160.5zM377 399q-4 -35 5 -61.5t29.5 -45t48 -28.5t60.5 -10q63 0 121.5 38t69.5 105l18 119q10 72 -36 111t-118 39 q-66 0 -117.5 -39t-62.5 -105z" />
<glyph unicode="&#xf1;" horiz-adv-x="1241" d="M18 0l152 1044h250l8 -153q74 80 157.5 126t194.5 46q197 0 269.5 -98.5t46.5 -280.5l-101 -684h-321l94 643q23 147 -137 148q-35 0 -68 -10.5t-60.5 -30t-46 -46t-22.5 -57.5l-94 -647h-322zM358 1313q53 70 107.5 107.5t120.5 37.5q33 0 65.5 -12t63 -26.5t59.5 -27 t53 -12.5q47 0 73 23.5t40 44.5l94 -92q-10 -14 -28.5 -42t-44 -54.5t-58.5 -46t-74 -19.5q-37 0 -69.5 12.5t-65 27.5t-67.5 28.5t-74 13.5q-37 0 -65.5 -26.5t-45.5 -43.5z" />
<glyph unicode="&#xf2;" horiz-adv-x="1200" d="M49 367l45 311q14 92 61.5 163.5t121 121t167.5 75t203 25.5q227 0 341 -101.5t87 -283.5l-45 -311q-12 -92 -62 -164t-124 -121t-166 -74.5t-191 -25.5q-100 0 -186 25.5t-146.5 74.5t-90 120.5t-15.5 164.5zM375 389q-10 -68 35 -101.5t116 -33.5q66 0 121 34t66 101 l39 266q4 33 -6.5 57.5t-30 42t-48 25.5t-61.5 8q-70 0 -126 -33.5t-66 -99.5zM430 1499l213 109l172 -318l-156 -86z" />
<glyph unicode="&#xf3;" horiz-adv-x="1200" d="M49 367l45 311q14 92 61.5 163.5t121 121t167.5 75t203 25.5q227 0 341 -101.5t87 -283.5l-45 -311q-12 -92 -62 -164t-124 -121t-166 -74.5t-191 -25.5q-100 0 -186 25.5t-146.5 74.5t-90 120.5t-15.5 164.5zM375 389q-10 -68 35 -101.5t116 -33.5q66 0 121 34t66 101 l39 266q4 33 -6.5 57.5t-30 42t-48 25.5t-61.5 8q-70 0 -126 -33.5t-66 -99.5zM524 1274l277 330l176 -111l-318 -291z" />
<glyph unicode="&#xf4;" horiz-adv-x="1200" d="M49 367l45 311q14 92 61.5 163.5t121 121t167.5 75t203 25.5q227 0 341 -101.5t87 -283.5l-45 -311q-12 -92 -62 -164t-124 -121t-166 -74.5t-191 -25.5q-100 0 -186 25.5t-146.5 74.5t-90 120.5t-15.5 164.5zM375 389q-10 -68 35 -101.5t116 -33.5q66 0 121 34t66 101 l39 266q4 33 -6.5 57.5t-30 42t-48 25.5t-61.5 8q-70 0 -126 -33.5t-66 -99.5zM414 1311l301 190l243 -196l-102 -111l-170 111l-203 -109z" />
<glyph unicode="&#xf5;" horiz-adv-x="1200" d="M49 367l45 311q14 92 61.5 163.5t121 121t167.5 75t203 25.5q227 0 341 -101.5t87 -283.5l-45 -311q-12 -92 -62 -164t-124 -121t-166 -74.5t-191 -25.5q-100 0 -186 25.5t-146.5 74.5t-90 120.5t-15.5 164.5zM348 1313q53 70 107.5 107.5t119.5 37.5q33 0 66 -12 t63.5 -26.5t59.5 -27t53 -12.5q47 0 72.5 23.5t40.5 44.5l94 -92q-10 -14 -28.5 -42t-44 -54.5t-58.5 -46t-74 -19.5q-37 0 -69.5 12.5t-65.5 27.5t-67.5 28.5t-73.5 13.5q-37 0 -65.5 -26.5t-45.5 -43.5zM375 389q-10 -68 35 -101.5t116 -33.5q66 0 121 34t66 101l39 266 q4 33 -6.5 57.5t-30 42t-48 25.5t-61.5 8q-70 0 -126 -33.5t-66 -99.5z" />
<glyph unicode="&#xf6;" horiz-adv-x="1200" d="M49 367l45 311q14 92 61.5 163.5t121 121t167.5 75t203 25.5q227 0 341 -101.5t87 -283.5l-45 -311q-12 -92 -62 -164t-124 -121t-166 -74.5t-191 -25.5q-100 0 -186 25.5t-146.5 74.5t-90 120.5t-15.5 164.5zM365 1219l32 213h213l-32 -213h-213zM375 389 q-10 -68 35 -101.5t116 -33.5q66 0 121 34t66 101l39 266q4 33 -6.5 57.5t-30 42t-48 25.5t-61.5 8q-70 0 -126 -33.5t-66 -99.5zM764 1219l33 213h209l-33 -213h-209z" />
<glyph unicode="&#xf7;" horiz-adv-x="1394" d="M61 469l27 182h1182l-27 -182h-1182zM475 98l39 260h268l-39 -260h-268zM571 752l37 262h269l-37 -262h-269z" />
<glyph unicode="&#xf8;" horiz-adv-x="1200" d="M20 -119l142 195q-66 49 -96.5 120.5t-16.5 170.5l45 311q14 92 61.5 163.5t121 121t167.5 75t203 25.5q123 0 215 -31l88 121h137l-122 -172q68 -49 97.5 -126t12.5 -177l-45 -311q-12 -92 -62 -164t-124 -121t-166 -74.5t-191 -25.5q-125 0 -223 36l-98 -137h-146z M373 362l303 414q-31 12 -70 12q-70 0 -126 -33.5t-66 -99.5l-39 -266q-4 -18 -2 -27zM444 268q31 -14 82 -14q66 0 121 34t66 101l39 266q2 14 -2 35z" />
<glyph unicode="&#xf9;" horiz-adv-x="1236" d="M68 303q0 16 2 34.5t6 53.5l94 653h322l-86 -598q-4 -25 -6.5 -46t-2.5 -38q0 -55 42 -81.5t104 -26.5q66 0 121 34t65 99l94 657h322l-98 -679q-14 -94 -63.5 -166t-123.5 -121t-166 -73.5t-190 -24.5q-92 0 -172 21.5t-138.5 62t-92 101t-33.5 138.5zM449 1479l213 108 l172 -317l-156 -86z" />
<glyph unicode="&#xfa;" horiz-adv-x="1236" d="M68 303q0 16 2 34.5t6 53.5l94 653h322l-86 -598q-4 -25 -6.5 -46t-2.5 -38q0 -55 42 -81.5t104 -26.5q66 0 121 34t65 99l94 657h322l-98 -679q-14 -94 -63.5 -166t-123.5 -121t-166 -73.5t-190 -24.5q-92 0 -172 21.5t-138.5 62t-92 101t-33.5 138.5zM545 1253l276 330 l176 -110l-317 -291z" />
<glyph unicode="&#xfb;" horiz-adv-x="1236" d="M68 303q0 16 2 34.5t6 53.5l94 653h322l-86 -598q-4 -25 -6.5 -46t-2.5 -38q0 -55 42 -81.5t104 -26.5q66 0 121 34t65 99l94 657h322l-98 -679q-14 -94 -63.5 -166t-123.5 -121t-166 -73.5t-190 -24.5q-92 0 -172 21.5t-138.5 62t-92 101t-33.5 138.5zM418 1290l301 191 l244 -197l-103 -110l-170 110l-203 -108z" />
<glyph unicode="&#xfc;" horiz-adv-x="1236" d="M68 303q0 16 2 34.5t6 53.5l94 653h322l-86 -598q-4 -25 -6.5 -46t-2.5 -38q0 -55 42 -81.5t104 -26.5q66 0 121 34t65 99l94 657h322l-98 -679q-14 -94 -63.5 -166t-123.5 -121t-166 -73.5t-190 -24.5q-92 0 -172 21.5t-138.5 62t-92 101t-33.5 138.5zM377 1200l33 213 h213l-33 -213h-213zM776 1200l33 213h209l-33 -213h-209z" />
<glyph unicode="&#xfd;" horiz-adv-x="1148" d="M-2 -211q33 0 73 8t77.5 24.5t69.5 41t48 57.5l35 68l-203 1056h340l78 -675l275 675h337l-569 -1169q-45 -92 -104.5 -152.5t-131 -97.5t-153.5 -53t-168 -18zM500 1255l276 330l176 -110l-317 -291z" />
<glyph unicode="&#xfe;" horiz-adv-x="1251" d="M-47 -453l272 1864h322l-70 -471q72 66 136.5 97.5t156.5 31.5t164 -26.5t119 -75.5t66.5 -119t6.5 -158l-47 -319q-12 -88 -52 -161t-101.5 -124t-141 -78.5t-172.5 -27.5q-102 0 -165.5 26.5t-112.5 89.5l-80 -549h-301zM416 385q-10 -72 34 -113t115 -41 q31 0 62.5 9.5t59.5 29t48.5 49t26.5 72.5l39 271q12 86 -33 119.5t-117 33.5q-68 0 -126 -41t-68 -115z" />
<glyph unicode="&#xff;" horiz-adv-x="1148" d="M-2 -211q33 0 73 8t77.5 24.5t69.5 41t48 57.5l35 68l-203 1056h340l78 -675l275 675h337l-569 -1169q-45 -92 -104.5 -152.5t-131 -97.5t-153.5 -53t-168 -18zM330 1202l32 213h213l-32 -213h-213zM729 1202l33 213h209l-33 -213h-209z" />
<glyph unicode="&#x152;" horiz-adv-x="1855" d="M31 463l67 467q12 90 72.5 173t150 147.5t200 102.5t224.5 38h1104l-39 -275h-516l-39 -260h435l-39 -266h-432l-45 -316h555l-41 -274h-1141q-123 0 -223.5 36t-170 99.5t-103.5 147.5t-19 180zM358 502q-6 -47 8.5 -89t45 -73t75.5 -48.5t101 -17.5h260l123 842h-264 q-51 0 -101.5 -19.5t-90.5 -50t-67.5 -71.5t-33.5 -84z" />
<glyph unicode="&#x153;" horiz-adv-x="1853" d="M59 367l45 311q14 92 61.5 163.5t121 121t168 75t202.5 25.5q104 0 187.5 -23.5t132.5 -74.5q70 51 158 74.5t176 23.5q96 0 177 -24.5t137 -70.5t83 -114t14 -152l-41 -274h-632l-7 -49q-10 -70 47.5 -98.5t153.5 -28.5q94 0 175 17.5t138 45.5l66 -219 q-106 -59 -211.5 -83.5t-230.5 -24.5q-98 0 -187.5 23.5t-146.5 76.5q-72 -53 -162 -79.5t-186 -26.5q-100 0 -186.5 25.5t-147 74.5t-90 120.5t-15.5 164.5zM385 389q-10 -68 36 -102.5t116 -34.5q66 0 120 31.5t64 97.5l41 281q4 31 -6.5 55t-29.5 39.5t-48 23.5t-62 8 q-68 0 -125 -33.5t-67 -99.5zM1081 637h334l8 57q4 29 -8 50.5t-33.5 35t-51.5 20.5t-58 7q-29 0 -58.5 -7t-56.5 -21.5t-45 -36t-22 -50.5z" />
<glyph unicode="&#x178;" horiz-adv-x="1327" d="M164 1393h364l138 -572l309 572h366l-561 -887l-73 -506h-322l74 508zM463 1503l33 213h213l-33 -213h-213zM862 1503l33 213h209l-33 -213h-209z" />
<glyph unicode="&#x2c6;" horiz-adv-x="757" d="M180 1286l301 191l244 -197l-102 -111l-170 111l-203 -109z" />
<glyph unicode="&#x2dc;" horiz-adv-x="907" d="M190 1292q53 70 107.5 108t120.5 38q33 0 65.5 -12.5t63.5 -27t59.5 -26.5t52.5 -12q47 0 73 23.5t40 43.5l94 -92q-10 -14 -28.5 -41.5t-44 -54.5t-58.5 -46t-73 -19q-37 0 -70 12t-65.5 27.5t-67.5 28.5t-74 13q-37 0 -65.5 -26.5t-45.5 -42.5z" />
<glyph unicode="&#x2000;" horiz-adv-x="958" />
<glyph unicode="&#x2001;" horiz-adv-x="1917" />
<glyph unicode="&#x2002;" horiz-adv-x="958" />
<glyph unicode="&#x2003;" horiz-adv-x="1917" />
<glyph unicode="&#x2004;" horiz-adv-x="639" />
<glyph unicode="&#x2005;" horiz-adv-x="479" />
<glyph unicode="&#x2006;" horiz-adv-x="319" />
<glyph unicode="&#x2007;" horiz-adv-x="319" />
<glyph unicode="&#x2008;" horiz-adv-x="239" />
<glyph unicode="&#x2009;" horiz-adv-x="383" />
<glyph unicode="&#x200a;" horiz-adv-x="106" />
<glyph unicode="&#x2010;" horiz-adv-x="708" d="M51 475l37 258h520l-37 -258h-520z" />
<glyph unicode="&#x2011;" horiz-adv-x="708" d="M51 475l37 258h520l-37 -258h-520z" />
<glyph unicode="&#x2012;" horiz-adv-x="708" d="M51 475l37 258h520l-37 -258h-520z" />
<glyph unicode="&#x2013;" horiz-adv-x="1230" d="M-10 512l28 195h1166l-29 -195h-1165z" />
<glyph unicode="&#x2014;" horiz-adv-x="1660" d="M0 514l27 193h1583l-27 -193h-1583z" />
<glyph unicode="&#x2018;" horiz-adv-x="348" d="M86 967l8 55q12 88 38 157.5t58.5 124t69.5 91.5t72 59l104 -74q-29 -43 -55.5 -116.5t-40.5 -165.5l-18 -131h-236z" />
<glyph unicode="&#x2019;" horiz-adv-x="368" d="M61 1047q33 41 69 102t52 172l19 131h264l-8 -55q-12 -94 -42 -165t-67 -122t-73.5 -86t-65.5 -57z" />
<glyph unicode="&#x201a;" horiz-adv-x="499" d="M2 -207q35 41 71 102.5t52 172.5l18 131h265l-9 -56q-14 -94 -43.5 -164.5t-65.5 -122t-73 -86t-65 -57.5z" />
<glyph unicode="&#x201c;" horiz-adv-x="702" d="M86 967l8 55q12 88 38 157.5t58.5 124t68.5 91.5t71 59l104 -74q-29 -43 -55.5 -116.5t-40.5 -165.5l-19 -131h-233zM408 967l8 55q12 88 37.5 157.5t57.5 124t68.5 91.5t71.5 59l105 -74q-29 -43 -55.5 -116.5t-41.5 -165.5l-18 -131h-233z" />
<glyph unicode="&#x201d;" horiz-adv-x="698" d="M57 1032q35 41 71 102.5t52 172.5l19 131h264l-8 -56q-12 -94 -42 -164.5t-67 -122t-73.5 -86t-65.5 -57.5zM375 1032q35 41 70.5 102.5t52.5 172.5l18 131h264l-8 -56q-12 -94 -42 -164.5t-66.5 -122t-73.5 -86t-66 -57.5z" />
<glyph unicode="&#x201e;" horiz-adv-x="890" d="M0 -205q35 41 72 102.5t53 172.5l18 131h265l-9 -56q-14 -94 -43.5 -164.5t-65.5 -122t-73 -86t-65 -57.5zM326 -203q35 41 70.5 102.5t52.5 172.5l18 131h264l-6 -56q-14 -94 -44 -164.5t-66.5 -121.5t-74.5 -86t-65 -58z" />
<glyph unicode="&#x2022;" horiz-adv-x="692" d="M72 338l61 426h420l-61 -426h-420z" />
<glyph unicode="&#x2026;" horiz-adv-x="1671" d="M39 0l39 270h278l-39 -270h-278zM584 0l39 270h278l-39 -270h-278zM1126 0l39 270h279l-39 -270h-279z" />
<glyph unicode="&#x202f;" horiz-adv-x="383" />
<glyph unicode="&#x2039;" horiz-adv-x="585" d="M23 356l356 371l119 -84l-224 -283l142 -268l-144 -92z" />
<glyph unicode="&#x203a;" horiz-adv-x="585" d="M-8 92l219 268l-141 283l143 84l246 -371l-353 -356z" />
<glyph unicode="&#x205f;" horiz-adv-x="479" />
<glyph unicode="&#x20ac;" d="M37 506l20 141h183l16 107h-182l20 141h182l9 55q14 109 69.5 195t136 145.5t182 91t210.5 31.5q150 0 245 -32.5t175 -100.5l-158 -229q-55 37 -118.5 60.5t-162.5 23.5q-100 0 -173 -53.5t-89 -151.5l-4 -35h446l-20 -141h-446l-17 -107h447l-21 -141h-446l-6 -47 q-16 -106 44 -155.5t162 -49.5q92 0 165 20.5t132 57.5l80 -228q-47 -33 -94 -56t-99.5 -38.5t-113.5 -22.5t-135 -7q-115 0 -208 28.5t-156.5 86t-91 144.5t-11.5 201l10 66h-182z" />
<glyph unicode="&#x2122;" horiz-adv-x="1124" d="M164 1329l14 105h379l-14 -105h-135l-50 -332h-112l49 332h-131zM578 1004l63 430h117l73 -177l127 177h119l-63 -430h-115l37 243l-109 -155h-36l-64 155l-37 -243h-112z" />
<glyph unicode="&#x25fc;" horiz-adv-x="1044" d="M0 0v1044h1044v-1044h-1044z" />
<glyph unicode="&#xfb03;" horiz-adv-x="2015" d="M53 0l123 840h-115l29 204h115l18 125q12 84 59.5 146.5t115 102.5t151.5 59.5t170 19.5q123 0 232.5 -16.5t203.5 -42.5q129 59 285 59q152 0 285 -24.5t237 -61.5l-86 -223q-72 16 -169 31.5t-241 15.5q-98 0 -149 -29.5t-62 -99.5l-10 -62h242l-29 -204h-241 l-123 -840h-320l123 840h-401l-123 -840h-320zM524 1044h402l18 125q4 29 12 54q-92 12 -211 12q-98 0 -149 -29.5t-61 -99.5zM1495 0l152 1044h319l-151 -1044h-320z" />
<glyph unicode="&#xfb04;" horiz-adv-x="2066" d="M53 0l123 840h-115l29 204h115l18 125q12 84 59.5 146.5t115 102.5t151.5 59.5t170 19.5q123 0 232.5 -16.5t203.5 -42.5q129 59 281 59t297 -28.5t284 -75.5l-202 -1393h-320l176 1210q-39 10 -98.5 17.5t-106.5 7.5q-98 0 -149 -29.5t-62 -99.5l-10 -62h242l-29 -204 h-241l-123 -840h-320l123 840h-401l-123 -840h-320zM524 1044h402l18 125q4 20 6 31.5t6 22.5q-92 12 -211 12q-98 0 -149 -29.5t-61 -99.5z" />
</font>
</defs>
</svg>
