<?xml version="1.0" standalone="no"?>
<!DOCTYPE svg PUBLIC "-//W3C//DTD SVG 1.1//EN" "http://www.w3.org/Graphics/SVG/1.1/DTD/svg11.dtd" >
<svg xmlns="http://www.w3.org/2000/svg">
<metadata></metadata>
<defs>
<font id="bose_gothic_screenThOb" horiz-adv-x="1277" >
<font-face units-per-em="2048" ascent="1536" descent="-512" />
<missing-glyph horiz-adv-x="446" />
<glyph unicode="&#xdf;" horiz-adv-x="1269" d="M109 0l167 1145q12 78 50.5 146.5t96.5 118.5t134 79t164 29q68 0 134.5 -16.5t117.5 -51.5t82.5 -90t31.5 -133q0 -14 -1 -30.5t-3 -27.5q-68 -57 -113.5 -101t-75.5 -86t-42 -87t-12 -104q0 -70 33.5 -114t78.5 -87q23 -23 46.5 -47.5t42 -55t29.5 -68.5t11 -87 q0 -82 -33.5 -146.5t-92 -109.5t-135.5 -68.5t-163 -23.5q-117 0 -203.5 48t-111.5 134l74 29q10 -27 28.5 -51.5t49 -43t75.5 -30t109 -11.5q59 0 118.5 16.5t106.5 49.5t77 82t30 115q0 47 -13.5 81.5t-34 62.5t-46 51.5t-50.5 45.5q-41 35 -70.5 85t-29.5 128 q0 59 11 111.5t39 101.5t74 97.5t114 97.5q2 10 3 21.5t1 21.5q0 59 -26 100t-68 66.5t-95 37t-108 11.5q-72 0 -134.5 -23.5t-110.5 -63.5t-79 -94.5t-39 -115.5l-168 -1145h-71z" />
<glyph unicode="&#xfb01;" horiz-adv-x="1120" d="M104 0l142 969h-142l11 75h141l20 134q10 70 47 124t92.5 88.5t128 53t152.5 18.5q70 0 154 -10t154 -29l-27 -65q-82 16 -149.5 22t-139.5 6q-141 0 -231 -52t-107 -156l-20 -134h245l-10 -75h-246l-141 -969h-74zM702 0l152 1044h72l-152 -1044h-72z" />
<glyph unicode="&#xfb02;" horiz-adv-x="1110" d="M104 0l142 969h-142l11 75h141l20 134q10 70 46 124t92.5 88.5t128 53t151.5 18.5q70 0 150 -9t139 -26l-209 -1427h-72l201 1370q-59 8 -111.5 12t-105.5 4q-141 0 -230 -52t-106 -156l-20 -134h245l-10 -75h-246l-141 -969h-74z" />
<glyph horiz-adv-x="0" />
<glyph unicode="&#xd;" horiz-adv-x="446" />
<glyph unicode=" "  horiz-adv-x="446" />
<glyph unicode="&#x09;" horiz-adv-x="446" />
<glyph unicode="&#xa0;" horiz-adv-x="446" />
<glyph unicode="!" horiz-adv-x="507" d="M86 0l25 174h155l-24 -174h-156zM197 481l133 912h71l-133 -912h-71z" />
<glyph unicode="&#x22;" horiz-adv-x="598" d="M172 940l66 453h73l-65 -453h-74zM399 940l66 453h74l-66 -453h-74z" />
<glyph unicode="#" horiz-adv-x="1529" d="M96 367l13 75h356l131 406h-383l12 76h398l131 407h73l-131 -407h320l133 407h74l-131 -407h303l-13 -76h-317l-129 -406h340l-12 -75h-351l-116 -367h-76l115 367h-320l-119 -367h-73l114 367h-342zM541 442h321l127 406h-317z" />
<glyph unicode="$" horiz-adv-x="1171" d="M53 223l66 41q51 -106 155.5 -156.5t235.5 -50.5q82 0 152.5 20.5t124 60.5t84 101.5t30.5 141.5q0 55 -18.5 98t-58.5 77t-100 61.5t-142 54.5q-80 27 -147.5 58.5t-115 74.5t-74 97t-26.5 124q0 96 36 169t100.5 121t151.5 72.5t191 24.5q16 0 31.5 -1t30.5 -3l57 195 l74 -11l-57 -194q92 -23 158.5 -70t107.5 -112l-64 -48q-47 74 -135 121t-217 47q-80 0 -150.5 -18.5t-125 -56t-85 -95t-30.5 -133.5q0 -59 23.5 -103t68.5 -80t108.5 -63.5t141.5 -52.5q170 -55 255 -132t85 -212q0 -98 -37 -175t-101.5 -129t-151.5 -78.5t-187 -26.5 q-23 0 -43.5 1t-40.5 3l-72 -240l-72 10l70 244q-98 25 -172 80t-115 143z" />
<glyph unicode="%" horiz-adv-x="1490" d="M172 0l1030 1393h92l-1028 -1393h-94zM213 985l33 223q6 43 30.5 80t61.5 64.5t84 44t96 16.5t91 -16.5t70 -44t41 -64.5t7 -80l-33 -223q-6 -43 -30.5 -81t-61.5 -65.5t-83 -44t-95 -16.5t-91 16.5t-71 44t-42 65.5t-7 81zM287 985q-4 -27 6 -50.5t30.5 -42t49 -28.5 t63.5 -10q70 0 124 39t63 92l32 223q8 55 -36 92t-113 37q-68 0 -123 -37.5t-64 -91.5zM739 186l33 224q6 43 30.5 79.5t61.5 64.5t84 44t96 16t91.5 -16t70 -44t41 -64.5t6.5 -79.5l-32 -224q-6 -43 -30 -80.5t-60.5 -65.5t-83 -44t-95.5 -16t-91 16t-71.5 44t-43 65.5 t-7.5 80.5zM811 186q-4 -27 6 -50t30.5 -41.5t50.5 -29t65 -10.5q68 0 122 39t62 92l33 224q8 55 -36 92t-112 37q-70 0 -125 -38t-63 -91z" />
<glyph unicode="&#x26;" horiz-adv-x="1454" d="M72 258q0 86 40 158.5t102 134t139 114t149 99.5l35 22l-183 240l23 160q8 49 35.5 91t70.5 72.5t96.5 48t112.5 17.5q135 0 206 -57.5t71 -155.5q0 -70 -29 -127t-75 -108.5t-104.5 -96.5t-117.5 -90l338 -434l231 221l52 -49l-240 -229l209 -266l-66 -54l-202 264 q-55 -51 -118 -97t-131.5 -81t-142 -55t-153.5 -20q-166 0 -257 69.5t-91 208.5zM147 272q0 -39 12.5 -77.5t45.5 -69.5t87 -50.5t138 -19.5q70 0 136.5 19.5t128 51.5t118.5 74t109 89l-344 446l-46 -30q-66 -47 -133 -94.5t-123.5 -98.5t-92.5 -109.5t-36 -130.5z M434 1049l166 -218q57 39 110.5 80t94.5 84t64.5 91.5t23.5 101.5q0 72 -52.5 111.5t-160.5 39.5q-104 0 -160.5 -48t-66.5 -111z" />
<glyph unicode="'" horiz-adv-x="446" d="M219 999l68 455h71l-67 -455h-72z" />
<glyph unicode="(" horiz-adv-x="655" d="M123 170l110 756q14 104 47 199.5t78 175t103.5 142t126.5 101.5l30 -61q-115 -66 -199.5 -209.5t-113.5 -347.5l-110 -756q-31 -211 13 -348t138 -205l-49 -66q-115 78 -160 244t-14 375z" />
<glyph unicode=")" horiz-adv-x="653" d="M-31 -379q115 68 199 212t117 362l102 710q31 205 -10 354.5t-137 215.5l51 69q57 -39 96 -104.5t60.5 -149.5t24.5 -182t-11 -203l-103 -710q-16 -104 -47.5 -202.5t-78 -182.5t-105.5 -150t-127 -104z" />
<glyph unicode="*" horiz-adv-x="802" d="M195 1208l32 72l201 -68l33 222h74l-33 -222l219 68l12 -72l-219 -67l102 -180l-65 -46l-102 181l-158 -181l-53 46l155 180z" />
<glyph unicode="+" horiz-adv-x="1193" d="M94 748l12 75h461l64 447h71l-63 -447h463l-12 -75h-463l-70 -482h-72l70 482h-461z" />
<glyph unicode="," horiz-adv-x="342" d="M-63 -203q20 27 35.5 50.5t26.5 51t19.5 60.5t14.5 76l16 108h80l-8 -53q-10 -70 -23.5 -119t-30 -86t-39 -65.5t-48.5 -57.5z" />
<glyph unicode="-" horiz-adv-x="718" d="M86 532l10 76h475l-10 -76h-475z" />
<glyph unicode="." horiz-adv-x="487" d="M68 0l24 172h154l-25 -172h-153z" />
<glyph unicode="/" horiz-adv-x="761" d="M-66 -174l773 1567h84l-773 -1567h-84z" />
<glyph unicode="0" horiz-adv-x="1310" d="M135 406l84 579q14 104 64.5 184t122 134.5t161 82t183.5 27.5t175 -27.5t136 -82t79.5 -134t10.5 -184.5l-84 -579q-16 -104 -64.5 -184.5t-119 -134.5t-159.5 -80.5t-183 -26.5q-96 0 -177 26.5t-136.5 80.5t-82 134t-10.5 185zM207 406q-12 -90 9.5 -156t69.5 -109 t116.5 -64.5t148.5 -21.5t154.5 21.5t134 64.5t101.5 108.5t54 156.5l84 579q12 88 -9 154.5t-68.5 110.5t-116 65.5t-148.5 21.5t-154.5 -21.5t-135 -65.5t-102.5 -110.5t-54 -154.5z" />
<glyph unicode="1" horiz-adv-x="546" d="M113 0l192 1317h-149l10 76h223l-203 -1393h-73z" />
<glyph unicode="2" horiz-adv-x="1116" d="M41 0l6 37q16 115 49 206t88.5 166.5t135 138t192.5 122.5q80 43 154.5 85t131 92t91.5 110.5t35 140.5q0 111 -79 165t-202 54q-55 0 -110.5 -13.5t-105.5 -36t-93 -51t-74 -57.5l-39 58q84 74 199 125t231 51q70 0 133.5 -17.5t110.5 -52.5t75.5 -88t28.5 -127 q0 -94 -38.5 -167t-102 -130t-141.5 -103t-156 -87q-190 -98 -299.5 -226.5t-136.5 -318.5h756l-11 -76h-829z" />
<glyph unicode="3" horiz-adv-x="1189" d="M78 283h74q-8 -53 16.5 -95.5t70.5 -71t109.5 -44t130.5 -15.5q59 0 125 14.5t122 43t95 73.5t49 107l21 137q8 63 -17.5 112.5t-70.5 81t-101.5 48t-107.5 16.5h-182l12 76h182q53 0 112.5 15.5t110 46t86 74.5t43.5 102l13 81q10 68 -10.5 116t-62.5 78t-103.5 44 t-130.5 14q-55 0 -118 -15t-116 -45t-91 -74t-46 -99h-74q10 72 56.5 129t112 97t141 61.5t147.5 21.5q86 0 158.5 -20.5t123 -60.5t75 -102.5t11.5 -144.5l-12 -81q-8 -55 -35.5 -101.5t-67.5 -82.5t-88 -60.5t-96 -36.5q45 -12 88.5 -35.5t75 -59.5t48 -84t8.5 -112 l-21 -137q-12 -78 -59 -136.5t-113.5 -98.5t-146.5 -59t-156 -19q-86 0 -162 21.5t-130 60t-81.5 94t-17.5 125.5z" />
<glyph unicode="4" horiz-adv-x="1163" d="M16 360l11 76l815 957h94l-139 -957h250l-11 -76h-250l-53 -358h-74l54 358h-697zM117 436h606l123 836h-15z" />
<glyph unicode="5" horiz-adv-x="1196" d="M104 330h74q-10 -66 11.5 -117t66.5 -86t108.5 -53.5t137.5 -18.5q61 0 125.5 18.5t119 54.5t92.5 87t48 119l18 135q20 131 -56.5 203.5t-217.5 72.5h-395l157 648h651l-10 -76h-583l-123 -496h313q174 0 268.5 -94t69.5 -258l-18 -135q-12 -84 -58.5 -149.5 t-112 -110.5t-143.5 -69.5t-155 -24.5q-86 0 -162 22.5t-130.5 67.5t-81 109.5t-14.5 150.5z" />
<glyph unicode="6" horiz-adv-x="1175" d="M104 348l105 719q12 80 54 144.5t106.5 108.5t146.5 68.5t172 24.5q106 0 194.5 -38t139.5 -97l-57 -61q-43 53 -122 86.5t-167 33.5q-76 0 -143.5 -18.5t-120 -52t-87 -85t-42.5 -114.5l-52 -354q76 78 176.5 117.5t200.5 39.5q80 0 154 -21.5t127 -66.5t79.5 -111.5 t14.5 -156.5l-25 -166q-14 -94 -60 -162.5t-112.5 -114.5t-146.5 -68.5t-160 -22.5t-153.5 22.5t-128 68.5t-81 114.5t-12.5 162.5zM178 348q-12 -78 11.5 -134t67.5 -91t105.5 -51.5t126.5 -16.5q63 0 129 16.5t121.5 51.5t94 91t51.5 134l24 166q10 74 -13.5 127t-68.5 87 t-105 50.5t-124 16.5q-66 0 -132.5 -19.5t-121.5 -55.5t-94 -88t-47 -118z" />
<glyph unicode="7" horiz-adv-x="921" d="M115 1317l10 76h829l-10 -68l-637 -1325h-82l639 1317h-749z" />
<glyph unicode="8" horiz-adv-x="1261" d="M133 309l19 123q16 104 95 179t185 114q-86 39 -134 112.5t-34 168.5l10 79q12 82 55.5 143.5t106 102.5t138 61.5t151.5 20.5q74 0 142.5 -20.5t118.5 -61.5t74.5 -102.5t12.5 -143.5l-10 -79q-14 -94 -84 -168t-164 -113q45 -18 83 -48t65.5 -67t40 -82t4.5 -96 l-19 -123q-12 -86 -58 -148.5t-112.5 -102.5t-145.5 -59t-157 -19q-80 0 -153.5 19t-129 59t-84 102.5t-16.5 148.5zM207 309q-10 -72 15.5 -120t71.5 -77.5t107.5 -43t124.5 -13.5q61 0 127 13.5t120 43t93 78t49 119.5l19 123q8 59 -14.5 106.5t-65.5 79t-99.5 49 t-113.5 17.5h-45q-59 0 -121.5 -17.5t-115 -49t-89.5 -78.5t-45 -107zM336 1006q-8 -57 12.5 -101.5t58 -75t91 -49t108.5 -20.5h45q55 2 112.5 20.5t104.5 49t81 75.5t42 101l10 79q10 68 -11 115t-63 78t-98.5 45t-115.5 14t-121 -14t-113 -45t-87 -78t-46 -115z" />
<glyph unicode="9" horiz-adv-x="1191" d="M129 121l47 51q23 -18 51.5 -38.5t66.5 -38t88 -29t116 -11.5q63 0 127.5 15.5t120 48.5t93.5 86t50 127l45 311q-78 -80 -176.5 -118t-196.5 -38q-82 0 -155.5 21.5t-128 65.5t-81 111t-14.5 157l31 217q12 82 58 147.5t114 111.5t148.5 70.5t162.5 24.5q80 0 152 -24.5 t125 -70.5t79.5 -111.5t14.5 -147.5l-104 -727q-12 -90 -59.5 -156.5t-113 -109.5t-144.5 -64.5t-159 -21.5q-49 0 -100 9t-99 27.5t-89 44t-70 60.5zM256 842q-10 -74 13.5 -127t68.5 -87t106.5 -49.5t126.5 -15.5q63 0 129 18.5t121.5 54.5t93 88t48.5 118l30 217 q10 66 -13.5 117t-67.5 86.5t-104 55t-124 19.5q-66 0 -132.5 -18.5t-121.5 -54t-94 -88t-49 -117.5z" />
<glyph unicode=":" horiz-adv-x="575" d="M125 0l29 197h139l-29 -197h-139zM252 872l29 193h139l-29 -193h-139z" />
<glyph unicode=";" horiz-adv-x="620" d="M102 -203q20 27 37 50.5t27 51t18.5 60.5t14.5 76l16 108h80l-8 -53q-10 -70 -22.5 -119t-30 -86t-39 -65.5t-48.5 -57.5zM295 866l29 199h137l-29 -199h-137z" />
<glyph unicode="&#x3c;" d="M100 489l992 535l28 -63l-866 -469l776 -451l-49 -68z" />
<glyph unicode="=" horiz-adv-x="1388" d="M96 453l13 75h1101l-12 -75h-1102zM162 903l12 76h1102l-12 -76h-1102z" />
<glyph unicode="&#x3e;" horiz-adv-x="1218" d="M35 41l858 451l-682 469l51 63l774 -535l-975 -516z" />
<glyph unicode="?" horiz-adv-x="870" d="M158 1278q68 53 158 94t196 41q160 0 238.5 -73.5t56.5 -215.5l-14 -100q-6 -45 -30 -81t-57.5 -66.5t-72.5 -59.5t-78 -55q-72 -47 -127 -100.5t-66 -131.5l-20 -143h-76l23 164q12 80 74.5 141.5t140.5 112.5q33 25 69.5 50.5t68.5 52t53.5 57t27.5 67.5l12 92 q8 61 -8 102.5t-51 66t-81 34.5t-95 10q-86 0 -170 -35.5t-142 -82.5zM170 0l25 174h155l-24 -174h-156z" />
<glyph unicode="@" horiz-adv-x="1693" d="M106 467q0 70 20.5 148.5t45.5 177.5q33 129 106.5 242.5t177 199.5t231.5 135t271 49q133 0 243 -38t187.5 -105.5t120.5 -160.5t43 -204q0 -88 -13 -188t-55 -186t-119 -142.5t-202 -56.5q-66 0 -109.5 34t-62.5 87q-61 -68 -147 -109t-182 -41q-117 0 -165 56.5 t-48 130.5q0 18 8 54t19 76t23.5 81t22.5 69q23 66 65 125.5t97 103.5t120.5 70.5t137.5 26.5q111 0 167 -48t56 -132q0 -37 -16 -85.5t-37 -105.5q-18 -59 -36.5 -111.5t-18.5 -80.5q0 -49 31.5 -87t85.5 -38q156 0 230.5 133t74.5 360q0 94 -38 175t-107.5 138.5t-168 90 t-217.5 32.5q-129 0 -244.5 -44t-208 -119.5t-157 -177t-92.5 -214.5q-25 -94 -44.5 -169.5t-19.5 -137.5q0 -92 43 -170t120 -136t182.5 -91t228.5 -33q86 0 170 20.5t159 61.5l31 -65q-88 -47 -182 -70t-191 -23q-135 0 -251.5 37t-202.5 103.5t-134.5 156.5t-48.5 195z M524 514q0 -63 38 -96t110 -33q55 0 107 17.5t96.5 48t77 72.5t48.5 91q29 78 59 158t30 141q0 59 -40 86t-118 27q-55 0 -108.5 -21.5t-98.5 -57.5t-79 -84t-52 -101q-10 -29 -21.5 -66t-22.5 -72.5t-18.5 -66.5t-7.5 -43z" />
<glyph unicode="A" d="M-18 0l720 1413h70l297 -1413h-80l-98 496h-582l-246 -496h-81zM348 571h529l-158 721z" />
<glyph unicode="B" horiz-adv-x="1257" d="M111 0l202 1393h443q80 0 147.5 -20.5t112.5 -61.5q44 -41 64 -103q12 -38 12 -84q0 -31 -5 -65l-8 -58q-14 -104 -82.5 -175.5t-160.5 -100.5q106 -35 166 -114q46 -60 47 -146q0 -27 -5 -57l-12 -80q-12 -84 -50 -145.5t-94.5 -101.5t-129 -60.5t-154.5 -20.5h-493z M195 76h419q63 0 122 14t105 45t76.5 78t40.5 113l13 80q4 25 4 47q-1 41 -13 74q-18 51 -58 85.5t-99.5 52t-130.5 17.5h-389zM295 758h381q63 0 119.5 15t100.5 46t72.5 77t37.5 105l8 58q4 30 4 56q0 99 -60 145q-76 58 -213 57h-368z" />
<glyph unicode="C" horiz-adv-x="1193" d="M111 426l79 543q14 100 64.5 182t124.5 140.5t167 90t195 31.5q135 0 240.5 -41t165.5 -127l-62 -57q-51 70 -144 109.5t-212 39.5q-86 0 -165 -25.5t-141.5 -73.5t-105.5 -116.5t-55 -152.5l-80 -543q-4 -34 -4 -65q0 -53 12 -97q20 -70 69.5 -116t122.5 -69.5 t163 -23.5q111 0 212 27t187 90l37 -57q-96 -76 -206.5 -105.5t-239.5 -29.5q-106 0 -191.5 28.5t-143.5 85.5q-58 58 -82 140q-14 49 -14 107q0 40 7 85z" />
<glyph unicode="D" horiz-adv-x="1339" d="M111 0l202 1393h418q100 0 188.5 -30t150.5 -88t92 -142q19 -54 20 -119q0 -35 -6 -72l-72 -498q-16 -113 -70.5 -196.5t-132.5 -139t-175 -82t-200 -26.5h-415zM193 76h344q88 0 171 21.5t150.5 66.5t113.5 114.5t60 165.5l72 498q4 28 4 54q0 58 -18 106 q-26 70 -81 118t-130.5 72.5t-157.5 24.5h-346z" />
<glyph unicode="E" horiz-adv-x="1122" d="M106 0l203 1393h713l-10 -76h-639l-82 -565h545l-13 -76h-544l-89 -600h691l-11 -76h-764z" />
<glyph unicode="F" horiz-adv-x="1005" d="M106 0l203 1393h709l-10 -76h-635l-80 -543h545l-11 -76h-542l-103 -698h-76z" />
<glyph unicode="G" horiz-adv-x="1298" d="M113 422l80 551q14 102 65 184t126 138.5t167 87t192 30.5q150 0 255.5 -44t160.5 -105l-53 -60q-53 53 -147.5 93t-227.5 40q-82 0 -159.5 -24.5t-141 -71.5t-107.5 -114.5t-57 -153.5l-80 -551q-4 -27 -4 -53q0 -48 14 -91q23 -67 72 -116t121 -78t158 -29 q147 0 246.5 35t167.5 82l65 446h-403l10 76h477l-82 -563q-41 -27 -88 -54.5t-106.5 -49t-132 -34.5t-164.5 -13q-104 0 -188.5 34.5t-140.5 95t-82 140.5q-17 53 -17 112q0 29 4 60z" />
<glyph unicode="H" horiz-adv-x="1443" d="M111 0l202 1393h74l-100 -684h848l100 684h74l-203 -1393h-74l92 633h-848l-92 -633h-73z" />
<glyph unicode="I" horiz-adv-x="577" d="M137 0l203 1393h72l-203 -1393h-72z" />
<glyph unicode="J" horiz-adv-x="1110" d="M12 317h72q-3 -19 -3 -36q0 -39 15 -72q21 -49 62 -83t98 -52.5t123 -18.5q147 0 250.5 72t124.5 209l153 1057h72l-154 -1057q-12 -84 -52 -150.5t-99.5 -112.5t-138 -69.5t-166.5 -23.5q-80 0 -151 23.5t-120 68.5t-74 106q-16 42 -16 90q0 24 4 49z" />
<glyph unicode="K" horiz-adv-x="1253" d="M111 0l202 1393h74l-108 -748l825 748h104l-731 -650l606 -743h-108l-557 684l-154 -133l-80 -551h-73z" />
<glyph unicode="L" horiz-adv-x="1075" d="M109 0l202 1393h72l-193 -1317h744l-10 -76h-815z" />
<glyph unicode="M" horiz-adv-x="1677" d="M115 0l202 1393h86l396 -883l651 883h88l-203 -1393h-73l184 1270l-641 -875h-45l-387 869l-185 -1264h-73z" />
<glyph unicode="N" horiz-adv-x="1445" d="M113 0l202 1393h97l639 -1278l186 1278h74l-203 -1393h-92l-641 1286l-189 -1286h-73z" />
<glyph unicode="O" horiz-adv-x="1333" d="M121 422l80 547q14 100 61 183t119 140.5t164 89t194 31.5h35q106 0 192.5 -31.5t143.5 -89t82 -140.5q16 -52 15 -110q0 -35 -5 -73l-80 -547q-16 -104 -63 -186t-121 -138.5t-168 -87t-205 -30.5h-33q-106 0 -189 29.5t-137 87t-78 139.5q-14 48 -14 103q0 39 7 83z M195 422q-5 -36 -5 -68q0 -50 11 -90q18 -68 64 -115t117 -70.5t161 -23.5h32q188 0 317.5 93.5t156.5 273.5l79 547q4 31 4 59q0 50 -13 94q-21 68 -69.5 116t-122 73.5t-165.5 25.5h-35q-88 0 -165 -25.5t-137 -73.5t-99 -116.5t-52 -152.5z" />
<glyph unicode="P" horiz-adv-x="1220" d="M109 0l202 1393h459q207 1 301 -103q75 -82 75 -209q0 -32 -5 -67l-13 -86q-27 -176 -146.5 -263t-326.5 -87h-389l-84 -578h-73zM279 653h385q176 0 273 66.5t118 208.5l12 86q4 28 4 54q-1 99 -61 165q-76 84 -250 84h-385z" />
<glyph unicode="Q" horiz-adv-x="1333" d="M121 422l80 547q14 100 61 183t119 140.5t164 89t194 31.5h35q106 0 192.5 -31.5t143.5 -89t82 -140.5q16 -52 16 -110q0 -36 -6 -73l-80 -547q-16 -111 -66 -195t-132 -141l118 -180l-63 -45l-123 184q-123 -65 -286 -65h-5h-33q-106 0 -189 29.5t-137 87t-78 139.5 q-14 47 -14 103q0 39 7 83zM195 422q-5 -36 -5 -68q0 -49 11 -90q18 -67 64 -114.5t117 -71t161 -23.5h32q137 0 242 49l-106 170l63 45l113 -174q66 47 106.5 116t55.5 161l79 547q4 31 4 59q0 50 -13 94q-21 68 -69.5 116t-122 73.5t-165.5 25.5h-35q-88 0 -165 -25.5 t-137 -73.5t-99 -116.5t-52 -152.5z" />
<glyph unicode="R" horiz-adv-x="1208" d="M113 0l202 1393h492q88 0 153.5 -26t107.5 -71q42 -46 58 -108q9 -37 9 -76q0 -28 -5 -59l-12 -86q-20 -137 -111.5 -216t-232.5 -102l238 -649h-84l-232 635h-417l-93 -635h-73zM291 711h434q57 2 111.5 19.5t97.5 49t71.5 78.5t38.5 109l13 86q3 22 3 42q0 87 -56 147 q-68 74 -211 75h-414z" />
<glyph unicode="S" horiz-adv-x="1171" d="M53 223l66 41q51 -106 155.5 -156.5t235.5 -50.5q82 0 152.5 20.5t124 60.5t84 101.5t30.5 141.5q0 55 -18.5 98t-58.5 77t-100 61.5t-142 54.5q-80 27 -147.5 58.5t-115 74.5t-74 97t-26.5 124q0 96 36 169t100.5 121t151.5 72.5t191 24.5q147 0 246.5 -54t155.5 -142 l-64 -48q-47 74 -135 121t-217 47q-80 0 -150.5 -18.5t-125 -56t-85 -95t-30.5 -133.5q0 -59 23.5 -103t68.5 -80t108.5 -63.5t141.5 -52.5q170 -55 255 -132t85 -212q0 -98 -37 -175t-101.5 -129t-151.5 -78.5t-187 -26.5q-147 0 -268 60t-177 181z" />
<glyph unicode="T" horiz-adv-x="1165" d="M141 1317l11 76h1042l-10 -76h-492l-192 -1317h-74l192 1317h-477z" />
<glyph unicode="U" horiz-adv-x="1413" d="M156 342q0 37 6 80l141 971h74l-141 -971q-4 -16 -4.5 -31.5t-0.5 -32.5q0 -78 29 -135t80 -94t117.5 -55.5t144.5 -18.5q82 0 162 24.5t144.5 72t108.5 115t56 155.5l141 971h74l-141 -971q-16 -111 -66.5 -194t-124 -138t-167 -82.5t-197.5 -27.5q-94 0 -174 21.5 t-138.5 66.5t-91 113.5t-32.5 160.5z" />
<glyph unicode="V" horiz-adv-x="1163" d="M172 1393h82l227 -1272l609 1272h81l-671 -1393h-72z" />
<glyph unicode="W" horiz-adv-x="1818" d="M223 1393h78l96 -1284l566 1284h71l187 -1284l477 1284h78l-523 -1393h-98l-174 1264l-555 -1264h-94z" />
<glyph unicode="X" horiz-adv-x="1132" d="M-10 0l526 702l-299 691h92l264 -625l457 625h90l-514 -691l312 -702h-91l-274 637l-471 -637h-92z" />
<glyph unicode="Y" horiz-adv-x="1150" d="M193 1393h88l272 -742l498 742h88l-564 -826l-81 -567h-72l82 567z" />
<glyph unicode="Z" horiz-adv-x="1169" d="M20 0l9 53l966 1264h-747l10 76h840l-8 -60l-961 -1257h805l-10 -76h-904z" />
<glyph unicode="[" horiz-adv-x="573" d="M41 -346l254 1739h237l-10 -76h-157l-232 -1587h150l-13 -76h-229z" />
<glyph unicode="\" horiz-adv-x="811" d="M184 1393h82l336 -1393h-82z" />
<glyph unicode="]" horiz-adv-x="569" d="M-29 -326l11 76h149l229 1567h-151l10 76h234l-250 -1719h-232z" />
<glyph unicode="^" horiz-adv-x="813" d="M158 938l348 479l196 -479h-86l-135 328l-235 -328h-88z" />
<glyph unicode="_" horiz-adv-x="1089" d="M8 -127l10 78h809l-10 -78h-809z" />
<glyph unicode="`" horiz-adv-x="495" d="M219 1370l86 64l135 -293l-65 -43z" />
<glyph unicode="a" horiz-adv-x="1067" d="M55 205q0 12 2 28.5t6 51.5q10 70 53.5 120t105 85.5t137 57t152.5 35t149.5 19.5t130.5 8l20 131q4 16 5 35t1 33q0 88 -49 135t-166 47q-43 0 -95 -8t-102.5 -21.5t-92.5 -28.5t-66 -30l-17 66q29 16 74 33.5t97.5 32t107.5 23.5t104 9q147 0 214 -68.5t67 -181.5 q0 -37 -6 -80l-109 -737h-73l24 170q-18 -25 -52 -56.5t-85 -61t-118.5 -49t-154.5 -19.5q-123 0 -193.5 55t-70.5 166zM131 211q0 -78 53.5 -115t147.5 -37q80 0 152.5 22.5t130 57.5t93 80t42.5 92l32 224q-115 -4 -224 -17.5t-198.5 -41t-148.5 -75t-72 -120.5 q-4 -29 -6 -44.5t-2 -25.5z" />
<glyph unicode="b" horiz-adv-x="1153" d="M74 0l207 1413h73l-75 -510q66 84 170 123t206 39q86 0 156 -25.5t115 -73.5q46 -48 64 -117q11 -41 11 -87q0 -33 -6 -68l-49 -342q-27 -176 -149.5 -274t-298.5 -98q-102 0 -194.5 38.5t-133.5 131.5l-23 -150h-73zM193 328q-3 -21 -3 -41q0 -43 15 -78q22 -51 67 -85 t106.5 -51.5t129.5 -17.5q143 0 243.5 78t120.5 219l50 342q4 26 4 49q0 39 -10 74q-16 55 -53.5 93t-93.5 58.5t-126 20.5t-136.5 -16.5t-119.5 -50t-90 -84t-47 -119.5z" />
<glyph unicode="c" horiz-adv-x="950" d="M74 336l53 369q12 82 52 148.5t99.5 113.5t133 72.5t155.5 25.5q109 0 178.5 -38t120.5 -103l-55 -52q-92 117 -256 117q-66 0 -125 -20.5t-107.5 -57.5t-80 -89t-41.5 -117l-54 -369q-3 -23 -4 -44q1 -43 15 -79q20 -53 59 -88t93.5 -53.5t111.5 -18.5h6q160 0 289 99 l33 -58q-78 -61 -157 -87.5t-181 -26.5q-76 0 -142.5 22.5t-115.5 67.5q-48 46 -70 112q-14 42 -15 92q0 30 5 62z" />
<glyph unicode="d" horiz-adv-x="1153" d="M84 352l49 342q12 86 52 155t99.5 117t136.5 73.5t163 25.5q102 0 194 -39t133 -123l76 510h74l-207 -1413h-74l23 150q-70 -92 -171.5 -131t-205.5 -39q-88 0 -156.5 25.5t-114.5 73.5q-47 49 -65 117q-11 42 -11 90q0 31 5 66zM158 352q-4 -29 -4 -55q0 -102 62 -164 q78 -78 220 -78q68 0 134.5 17.5t120.5 51.5t91 85t47 119l58 391q3 22 3 41q0 44 -16 79q-22 50 -66 83.5t-105.5 50t-131.5 16.5t-132 -20.5t-110 -58.5t-80 -93t-42 -123z" />
<glyph unicode="e" horiz-adv-x="1054" d="M72 289q0 12 1 24.5t3 26.5l55 381q10 72 53 134.5t105.5 109.5t139.5 73.5t155 26.5q72 0 135 -22.5t109 -62.5t73 -95.5t27 -118.5q0 -16 -6 -59l-25 -172h-721l-29 -195q-2 -12 -2 -20.5v-18.5q0 -61 26 -106t69 -75t99.5 -44.5t117.5 -14.5q106 0 189 25t136 64 l29 -58q-78 -57 -173 -81.5t-192 -24.5q-74 0 -141 19.5t-119.5 57t-83 94t-30.5 132.5zM186 610h648l14 97q2 10 3 22t1 29q0 104 -80 167.5t-201 63.5q-66 0 -128 -20.5t-113 -56t-85 -85t-42 -104.5z" />
<glyph unicode="f" horiz-adv-x="593" d="M104 0l142 969h-142l11 75h141l20 138q10 68 42 121t78 87.5t104.5 53t124.5 18.5q41 0 93 -10t93 -27l-27 -65q-79 26 -162 26h-6q-109 0 -179 -51t-87 -153l-20 -138h245l-10 -75h-246l-141 -969h-74z" />
<glyph unicode="g" horiz-adv-x="1140" d="M-2 -229q0 57 19.5 103t53 81t79 58.5t96.5 33.5q-45 23 -74 57.5t-29 90.5q0 66 41 118t95 74q-66 41 -95 109q-19 45 -19 101q0 28 5 58l10 74q12 80 52 142.5t100.5 105.5t134.5 65.5t151 22.5q127 0 216 -53l266 71l10 -73l-207 -54q37 -41 53 -97q9 -34 9 -73 q0 -24 -4 -51l-11 -80q-12 -82 -52 -143t-97.5 -102t-129 -61.5t-147.5 -20.5q-104 0 -178 26q-51 -16 -90 -52t-39 -95q0 -29 13.5 -49.5t35 -34.5t48 -23.5t51.5 -15.5l532 -96l-27 -178q-10 -72 -52 -123.5t-102.5 -84t-133 -47t-142.5 -14.5h-80q-72 0 -136 11.5 t-115.5 39t-81 70.5t-29.5 109zM70 -217q0 -49 26.5 -81t69.5 -51.5t97 -26.5t110 -7h94q53 0 105.5 8t97.5 29.5t77.5 58.5t49.5 94l18 125l-446 76q-51 -2 -104.5 -13t-96.5 -37t-70.5 -69t-27.5 -106zM244 655q-3 -21 -3 -40q0 -89 61 -145q75 -67 228 -67q63 0 122 13.5 t105 43t77.5 78t42.5 117.5l10 80q1 14 1 27q0 47 -16 84q-22 49 -61 80.5t-92 47t-113 15.5q-59 0 -118.5 -15.5t-108.5 -47t-83 -79.5t-42 -112z" />
<glyph unicode="h" horiz-adv-x="1206" d="M88 0l207 1413h74l-84 -573q78 104 185.5 164.5t238.5 60.5q167 0 249 -94q65 -74 65 -193q0 -32 -5 -67l-105 -711h-73l104 711q4 28 4 54q0 95 -52 151q-66 72 -200 73q-72 0 -144.5 -25.5t-135 -69.5t-105.5 -102.5t-51 -123.5l-98 -668h-74z" />
<glyph unicode="i" horiz-adv-x="512" d="M109 0l151 1044h72l-152 -1044h-71zM285 1296l18 117h92l-18 -117h-92z" />
<glyph unicode="j" horiz-adv-x="542" d="M-227 -340q96 27 162.5 60.5t110.5 83t69.5 119t40.5 167.5l139 954h74l-140 -956q-16 -111 -47.5 -191.5t-84 -139t-127 -98.5t-179.5 -67zM322 1296l18 117h82l-19 -117h-81z" />
<glyph unicode="k" horiz-adv-x="960" d="M86 0l207 1413h74l-119 -809h84l518 440h94l-541 -466l431 -578h-95l-395 528h-106l-78 -528h-74z" />
<glyph unicode="l" horiz-adv-x="512" d="M106 0l207 1413h72l-207 -1413h-72z" />
<glyph unicode="m" horiz-adv-x="1837" d="M100 0l152 1044h74l-27 -190q68 92 165 151.5t214 59.5q115 0 189.5 -45t95.5 -150q80 104 174 149.5t229 45.5q154 0 224 -91q53 -69 53 -171q0 -33 -5 -70l-106 -733h-74l107 733q3 24 3 46q0 79 -44 137q-58 74 -170 73q-74 0 -142.5 -19.5t-123 -56t-90 -91 t-46.5 -124.5l-102 -698h-72l111 754q3 22 3 43q0 79 -50 129q-62 63 -176 63q-61 0 -128 -26.5t-122.5 -69.5t-95 -99.5t-48.5 -115.5l-98 -678h-74z" />
<glyph unicode="n" horiz-adv-x="1208" d="M88 0l152 1044h75l-30 -215q78 111 187.5 173.5t236.5 62.5q165 0 249 -92q65 -71 66 -188q0 -33 -6 -70l-105 -715h-73l104 715q4 28 4 53q0 94 -52 150q-66 72 -200 71q-66 0 -138.5 -25.5t-135 -69.5t-107.5 -102.5t-53 -123.5l-98 -668h-76z" />
<glyph unicode="o" horiz-adv-x="1103" d="M76 342l55 369q12 80 56 145.5t108.5 111.5t142.5 71.5t156 25.5q80 0 149.5 -25.5t120.5 -71.5t77 -112q17 -44 17 -93q0 -25 -4 -52l-55 -369q-12 -80 -55 -146.5t-107.5 -113.5t-142.5 -72.5t-158 -25.5t-150.5 25.5t-120.5 72.5q-50 48 -76 114q-17 44 -17 94 q0 25 4 52zM150 342q-3 -21 -3 -41q0 -42 14 -77q21 -52 63 -89t100.5 -56.5t121.5 -19.5t127 19.5t117 56.5t89 89t46 118l56 369q2 17 2 33q1 44 -15 82q-22 52 -64 88t-100.5 55.5t-121.5 19.5t-127 -19.5t-116 -56t-89 -88t-45 -114.5z" />
<glyph unicode="p" horiz-adv-x="1144" d="M4 -410l211 1454h74l-21 -151q68 92 170.5 132t206.5 40q88 0 156.5 -25.5t114 -73.5t63.5 -118q11 -42 11 -90q0 -33 -5 -68l-49 -342q-12 -86 -52 -154.5t-98.5 -115.5t-135.5 -72.5t-163 -25.5q-51 0 -101 9t-94 28.5t-79 49t-55 72.5l-80 -549h-74zM182 324 q-3 -22 -3 -41q0 -44 15 -79q23 -50 67 -83t105.5 -49.5t131.5 -16.5t132 20.5t110 58.5t80 92.5t42 121.5l49 342q4 29 4 55q0 102 -61 165q-78 79 -221 79q-68 0 -134.5 -17.5t-120.5 -51t-91 -86t-47 -119.5z" />
<glyph unicode="q" horiz-adv-x="1144" d="M84 348l49 342q12 88 52 158t99.5 118t135.5 73.5t164 25.5q102 0 194 -39t133 -129l21 147h74l-211 -1454h-74l80 549q-66 -84 -169.5 -121.5t-205.5 -37.5q-86 0 -155.5 25.5t-115.5 72.5t-65 116q-11 41 -11 89q0 31 5 65zM158 348q-4 -26 -4 -50q0 -39 10 -72 q16 -54 53 -92t93.5 -58.5t125.5 -20.5q70 0 136.5 16.5t119.5 49.5t90 83t47 120l58 391q3 21 3 40q0 44 -16 80q-22 52 -67 85.5t-106.5 51t-129.5 17.5q-143 0 -242.5 -79t-121.5 -220z" />
<glyph unicode="r" horiz-adv-x="716" d="M92 0l152 1044h75l-28 -208q20 45 52 86t72 72.5t86 51t99 19.5q29 0 58.5 -3t56.5 -9l-23 -80q-23 4 -52.5 7t-55.5 3q-66 0 -121 -35t-98 -90t-72 -121.5t-37 -130.5l-88 -606h-76z" />
<glyph unicode="s" horiz-adv-x="958" d="M12 117l56 61q57 -63 148 -93t175 -30q66 0 123 13.5t99 41t65.5 71.5t23.5 108q0 74 -57 120t-199 80q-158 37 -227 98.5t-69 157.5q0 88 32.5 148.5t87 98.5t125 55.5t146.5 17.5q90 0 175 -26.5t144 -67.5l-45 -66q-59 37 -126.5 60.5t-160.5 23.5q-61 0 -116.5 -11 t-96.5 -38t-65.5 -72t-24.5 -112q0 -78 60.5 -121t199.5 -74q160 -41 226.5 -104.5t66.5 -153.5q0 -88 -32.5 -149.5t-87 -100.5t-127 -56t-152.5 -17q-92 0 -193.5 33.5t-173.5 103.5z" />
<glyph unicode="t" horiz-adv-x="780" d="M111 969l10 75h160l43 287h73l-43 -287h330l-10 -75h-330l-106 -736q-3 -20 -3 -37q1 -58 31 -88q40 -38 125 -38q74 0 127 11t94 28l19 -66q-41 -14 -99.5 -31.5t-146.5 -17.5q-123 0 -181 62q-44 47 -44 130q0 25 4 52l106 731h-159z" />
<glyph unicode="u" horiz-adv-x="1187" d="M129 279q0 14 1 28.5t3 30.5l103 706h71l-102 -706q-2 -12 -3 -24.5t-1 -22.5q0 -115 82 -175.5t215 -60.5q145 0 249.5 73t124.5 210l103 706h72l-103 -706q-12 -84 -52 -150.5t-100.5 -112.5t-138.5 -70.5t-166 -24.5q-162 0 -260 78.5t-98 220.5z" />
<glyph unicode="v" horiz-adv-x="1046" d="M113 1044h82l233 -931l502 931h82l-568 -1044h-67z" />
<glyph unicode="w" horiz-adv-x="1490" d="M133 1044h78l111 -923l426 923h67l166 -923l375 923h78l-435 -1046h-73l-160 911l-426 -911h-76z" />
<glyph unicode="x" horiz-adv-x="964" d="M-43 0l446 532l-274 512h90l240 -446l364 446h95l-424 -512l288 -532h-90l-254 467l-391 -467h-90z" />
<glyph unicode="y" horiz-adv-x="976" d="M-29 -436l11 76q188 0 307 247l33 66l-218 1091h82l189 -983l481 983h82l-569 -1155q-37 -72 -77 -132t-87 -103t-105.5 -66.5t-128.5 -23.5z" />
<glyph unicode="z" horiz-adv-x="1019" d="M12 0l8 61l766 918h-618l8 65h715l-6 -51l-762 -919h670l-11 -74h-770z" />
<glyph unicode="{" horiz-adv-x="630" d="M115 -32.5q-4 61.5 16 141.5l98 387l-63 106l98 125l6 338q0 76 23.5 138.5t64.5 113.5t97.5 95t124.5 85l14 -74q-55 -33 -101.5 -68.5t-80 -78.5t-54 -94.5t-20.5 -112.5l-6 -364l-80 -99l53 -86l-108 -416q-31 -123 16 -208.5t137 -151.5l-37 -72q-57 43 -100 87 t-68.5 95.5t-29.5 113z" />
<glyph unicode="|" horiz-adv-x="487" d="M51 -301l246 1694h72l-246 -1694h-72z" />
<glyph unicode="}" horiz-adv-x="634" d="M43 -256q113 74 182.5 157t73.5 203l14 416l74 86l-47 99l100 364q29 98 -7 181t-146 173l39 74q55 -45 98 -90t68.5 -95t30.5 -110.5t-15 -136.5l-92 -338l61 -125l-96 -106l-12 -387q-2 -66 -19.5 -121.5t-54.5 -107.5t-95.5 -102t-140.5 -106z" />
<glyph unicode="~" horiz-adv-x="813" d="M193 1270q43 57 83.5 88t94.5 31q35 0 65.5 -15.5t60 -35t60.5 -36t66 -16.5q45 6 79 68l64 -35q-29 -45 -71 -80t-95 -35q-43 0 -75.5 15.5t-59.5 34t-52.5 34t-56.5 15.5q-35 0 -60.5 -21.5t-41.5 -50.5z" />
<glyph unicode="&#xa1;" horiz-adv-x="507" d="M68 -348l157 956h74l-121 -956h-110zM248 915l20 132h125l-20 -132h-125z" />
<glyph unicode="&#xa2;" horiz-adv-x="923" d="M74 336l53 369q12 82 52 148.5t99.5 113.5t133 72.5t155.5 25.5h25l80 262l73 -10l-79 -262q66 -14 112.5 -48t87.5 -83l-55 -52q-92 117 -256 117q-66 0 -125 -20.5t-107.5 -57.5t-80 -89t-41.5 -117l-54 -369q-10 -70 10.5 -123t59.5 -88t93.5 -53.5t111.5 -18.5 q164 -2 295 99l33 -58q-78 -61 -157 -87.5t-181 -26.5q-35 0 -66 6l-78 -258l-75 10l79 262q-102 33 -160.5 118t-37.5 218z" />
<glyph unicode="&#xa3;" horiz-adv-x="1204" d="M84 0l10 76q90 0 150.5 24.5t98.5 70.5t57.5 109.5t27.5 141.5l12 199h-274l12 75h266l13 271q8 106 58 188t132 137.5t188.5 84t227.5 28.5l-10 -76q-102 0 -194.5 -21.5t-163 -65.5t-113.5 -109.5t-50 -153.5l-12 -283h434l-12 -75h-428q-4 -43 -5 -79t-3 -63 q-2 -30 -2 -53q-6 -47 -15.5 -96t-29 -95.5t-53 -87.5t-84.5 -71h643l-11 -76h-870z" />
<glyph unicode="&#xa5;" horiz-adv-x="1097" d="M43 328l12 75h408l22 164l-6 15h-399l12 75h359l-277 736h88l270 -736h7l493 736h88l-499 -736h340l-13 -75h-381l-10 -15l-22 -164h389l-13 -75h-389l-47 -328h-72l48 328h-408z" />
<glyph unicode="&#xa6;" horiz-adv-x="487" d="M51 -240l96 666h72l-96 -666h-72zM195 741l96 666h71l-96 -666h-71z" />
<glyph unicode="&#xa7;" horiz-adv-x="1142" d="M35 -254l74 29q23 -78 98.5 -124t179.5 -46q66 0 125 19.5t104.5 56t72 88t26.5 116.5q0 68 -33 122t-84 98.5t-114.5 78t-127.5 62.5q-41 20 -87 44.5t-84 59.5t-62.5 84t-24.5 117q0 61 22.5 112.5t56.5 89.5t75 61.5t76 29.5q-25 37 -36 87t-11 91q0 94 32.5 167 t89 122t133 74.5t164.5 25.5q129 0 212 -55.5t110 -151.5l-74 -30q-20 76 -85.5 118.5t-172.5 42.5q-63 0 -123.5 -21.5t-106.5 -60.5t-75 -93t-29 -120q0 -68 31 -118t78 -88.5t103.5 -68t107.5 -56.5q55 -29 107.5 -60t93.5 -67.5t66.5 -82.5t25.5 -104q0 -25 -5.5 -65.5 t-28 -85.5t-69.5 -88t-129 -70q27 -35 39 -83t12 -97q0 -88 -33.5 -158t-91 -119t-132 -74.5t-156.5 -25.5q-129 0 -220.5 59.5t-119.5 157.5zM172 557q0 -47 16.5 -83t49 -65.5t80 -56t106.5 -53.5q66 -31 138.5 -70t121.5 -86q41 2 79 22.5t66.5 51.5t46 71t17.5 85 t-15.5 80.5t-47 66.5t-81 59.5t-114.5 63.5q-68 31 -131.5 68t-114.5 84q-41 -4 -80 -23.5t-69.5 -52.5t-49 -75t-18.5 -87z" />
<glyph unicode="&#xa8;" horiz-adv-x="677" d="M188 1180l19 131h115l-19 -131h-115zM508 1180l18 131h115l-18 -131h-115z" />
<glyph unicode="&#xa9;" horiz-adv-x="1671" d="M129 623q0 166 66.5 312t178 255.5t257 173t301.5 63.5q129 0 237.5 -49t188.5 -134t124 -198.5t44 -242.5q0 -164 -67.5 -310.5t-179.5 -256t-256 -173t-300 -63.5q-129 0 -238.5 49t-188.5 134t-123 198t-44 242zM203 633q0 -115 40 -216.5t110.5 -177t169 -119.5 t212.5 -44q139 0 268.5 57t228.5 154.5t158.5 228.5t59.5 279q0 115 -40 216t-110.5 177t-168 120t-211.5 44q-139 0 -268.5 -57.5t-229.5 -155t-159.5 -228.5t-59.5 -278zM459 649l14 96q10 68 47 129.5t94.5 108.5t128 74.5t148.5 27.5q88 0 163.5 -31.5t116.5 -97.5 l-51 -59q-33 53 -101 83t-138 30q-61 0 -118.5 -21.5t-103 -58.5t-75 -85t-37.5 -100l-15 -96q-8 -59 8.5 -107t52.5 -83t87 -55.5t113 -20.5q68 0 143.5 23.5t126.5 68.5l29 -63q-63 -53 -144.5 -79t-165.5 -26q-82 0 -146.5 26.5t-107.5 73t-61 109t-8 133.5z" />
<glyph unicode="&#xaa;" horiz-adv-x="708" d="M158 954l2 15q6 49 39.5 83.5t86 57.5t119 35t142.5 16l4 37q12 84 -21.5 110.5t-93.5 26.5q-41 0 -89 -18.5t-75 -32.5l-18 74q31 16 93.5 35.5t127.5 19.5q84 0 128 -44t30 -140l-64 -432h-65l10 71q-35 -31 -86 -53t-123 -22q-31 0 -60.5 8t-51 26.5t-31.5 49t-4 77.5 zM231 954q-8 -47 21 -64.5t74 -17.5q27 0 58.5 7.5t59 20.5t48 32.5t24.5 44.5l14 110q-55 -4 -106 -11t-92 -20.5t-67.5 -35t-31.5 -51.5z" />
<glyph unicode="&#xab;" horiz-adv-x="948" d="M74 356l364 369l41 -66l-291 -299l205 -294l-61 -66zM391 356l365 369l39 -66l-289 -299l203 -294l-60 -66z" />
<glyph unicode="&#xac;" horiz-adv-x="919" d="M106 596l13 76h651l-41 -281h-74l29 205h-578z" />
<glyph unicode="&#xad;" horiz-adv-x="718" d="M86 532l10 76h475l-10 -76h-475z" />
<glyph unicode="&#xae;" horiz-adv-x="1671" d="M129 623q0 166 66.5 312t178 255.5t257 173t301.5 63.5q129 0 237.5 -49t188.5 -134t124 -198.5t44 -242.5q0 -164 -67.5 -310.5t-179.5 -256t-256 -173t-300 -63.5q-129 0 -238.5 49t-188.5 134t-123 198t-44 242zM203 633q0 -115 40 -216.5t110.5 -177t169 -119.5 t212.5 -44q139 0 268.5 57t228.5 154.5t158.5 228.5t59.5 279q0 115 -40 216t-110.5 177t-168 120t-211.5 44q-139 0 -268.5 -57.5t-229.5 -155t-159.5 -228.5t-59.5 -278zM528 313l117 799h307q47 0 85 -18.5t63.5 -49t37 -70.5t5.5 -83l-4 -31q-10 -78 -71.5 -136 t-147.5 -67l153 -344h-96l-148 340h-172l-51 -340h-78zM666 729h223q59 0 113.5 37t62.5 96l4 27q8 59 -31 103t-104 44h-223z" />
<glyph unicode="&#xaf;" horiz-adv-x="985" d="M223 1303l10 75h693l-11 -75h-692z" />
<glyph unicode="&#xb0;" horiz-adv-x="770" d="M186 1147l9 57q6 43 31.5 81t64.5 66.5t87 45t101 16.5q51 0 95 -16.5t74 -45t44.5 -66.5t7.5 -81l-8 -57q-6 -43 -31.5 -81t-63.5 -65.5t-87 -44t-100 -16.5q-53 0 -96.5 16.5t-74 44t-45 65.5t-8.5 81zM260 1147q-8 -57 38 -94t122 -37t131 38t65 93l9 57q8 53 -37 93 t-121 40t-133.5 -40t-65.5 -93z" />
<glyph unicode="&#xb1;" horiz-adv-x="1116" d="M25 0l10 76h839l-10 -76h-839zM117 631l10 76h373l53 364h74l-54 -364h375l-10 -76h-375l-57 -391h-74l57 391h-372z" />
<glyph unicode="&#xb2;" horiz-adv-x="753" d="M100 664l13 75q8 57 34.5 100.5t65.5 77t87 59t97 48.5q43 16 85 33.5t76 41t55.5 54.5t21.5 74q0 49 -37 79.5t-131 30.5q-129 0 -234 -110l-47 49q55 66 135 101.5t158 35.5q66 0 110 -14.5t71.5 -38t39 -54t11.5 -65.5q0 -55 -24.5 -98t-64.5 -75t-88.5 -56.5 t-95.5 -44.5t-89 -42t-75.5 -48.5t-57 -60.5t-30.5 -77h471l-12 -75h-545z" />
<glyph unicode="&#xb3;" horiz-adv-x="755" d="M125 848h74q-4 -31 9 -54.5t39.5 -39t61.5 -23.5t76 -8q78 0 139.5 26.5t71.5 92.5l4 32q4 29 -9 52.5t-40 40t-60.5 24.5t-68.5 8h-133l12 76h121q37 0 72.5 5t65.5 18.5t50.5 38t26.5 63.5l4 17q6 37 -7 60t-39 36.5t-59.5 18.5t-70.5 5q-78 0 -140.5 -34.5 t-72.5 -100.5h-74q6 47 34 86t70 66.5t92 43t103 15.5q51 0 97.5 -11t80 -35t51 -60.5t9.5 -89.5l-2 -15q-10 -72 -17.5 -106.5t-11.5 -58t-6 -47t-2 -68.5q0 4 0 -1.5v-14.5t-1 -18t-1 -14l-4 -32q-8 -51 -35 -88t-67 -60.5t-90 -35t-103 -11.5q-55 0 -103.5 14.5t-83 41 t-52 63.5t-11.5 82z" />
<glyph unicode="&#xb4;" horiz-adv-x="489" d="M184 1147l226 274l59 -53l-229 -260z" />
<glyph unicode="&#xb6;" horiz-adv-x="1038" d="M174 1040l12 76q8 55 35 105.5t71 88.5t104.5 60.5t133.5 22.5h375l-203 -1393h-71l192 1325h-176l-192 -1325h-72l113 774h-56q-135 0 -209.5 69.5t-56.5 196.5z" />
<glyph unicode="&#xb7;" horiz-adv-x="385" d="M123 408l24 172h154l-25 -172h-153z" />
<glyph unicode="&#xb8;" horiz-adv-x="454" d="M-39 -440q20 6 49 18t53.5 30.5t42 43t17.5 55.5q0 41 -20.5 64.5t-45.5 38.5q-29 16 -63 24l63 166h82l-51 -111q31 -14 53 -36q20 -18 38 -49t18 -74q0 -90 -63.5 -147.5t-158.5 -80.5z" />
<glyph unicode="&#xb9;" horiz-adv-x="438" d="M166 1317l10 76h182l-102 -709h-72l92 633h-110z" />
<glyph unicode="&#xba;" horiz-adv-x="749" d="M164 1004l31 204q6 43 30.5 80t61.5 65.5t84 45t96 16.5t91 -16.5t70.5 -45t42 -65.5t7.5 -80l-31 -209q-6 -43 -29.5 -79.5t-60.5 -64.5t-83 -44t-97 -16q-49 0 -91 16t-72 44t-43 67t-7 82zM238 999q-2 -59 39.5 -94t109.5 -35q70 0 123 38t61 96l31 204q4 59 -39 95 t-108 36q-68 0 -122 -35.5t-65 -95.5z" />
<glyph unicode="&#xbb;" horiz-adv-x="935" d="M8 66l287 294l-201 299l58 66l258 -369l-365 -356zM326 66l286 294l-200 299l59 66l254 -369l-360 -356z" />
<glyph unicode="&#xbc;" horiz-adv-x="1294" d="M8 0l1030 1393h95l-1031 -1393h-94zM260 1317l10 76h185l-103 -709h-73l92 633h-111zM481 195l8 63l441 473h106l-69 -473h131l-8 -63h-132l-28 -189h-74l29 189h-404zM575 258h318l57 387h-10z" />
<glyph unicode="&#xbd;" horiz-adv-x="1380" d="M8 0l1032 1393h93l-1029 -1393h-96zM260 1317l10 76h185l-103 -709h-71l92 633h-113zM602 -2l10 76q8 57 36 100t67 77t87 59.5t97 47.5q41 16 83 34t76 41.5t54.5 54t20.5 73.5q0 49 -37 80t-129 31q-133 0 -234 -111l-49 49q59 66 137 102t156 36q66 0 109.5 -14.5 t71.5 -38t39 -54.5t11 -66q0 -55 -24.5 -98t-64.5 -74.5t-88 -56t-95 -45.5q-45 -20 -87 -41.5t-77 -48.5t-58.5 -60.5t-29.5 -76.5h473l-10 -76h-545z" />
<glyph unicode="&#xbe;" horiz-adv-x="1468" d="M133 848h74q-8 -61 48 -93t136 -32q39 0 75 6t64.5 20.5t48 37t23.5 55.5l4 32q4 29 -9 52.5t-39 40t-59.5 24.5t-68.5 8h-133l12 76h121q37 0 73 5t64.5 18.5t49 38t26.5 63.5l4 17q6 37 -7 60t-37.5 36.5t-58.5 18.5t-71 5q-39 0 -76 -9t-65.5 -26.5t-48 -42 t-23.5 -57.5h-74q6 47 34 86t70 66.5t92 43t103 15.5q51 0 97.5 -11t79 -35t50 -60.5t9.5 -89.5l-2 -15q-10 -72 -17.5 -107.5t-11.5 -59t-6 -46t-2 -67.5q0 4 0 -1.5v-14.5t-1 -18t-1 -14l-4 -32q-8 -51 -35 -88t-66.5 -60.5t-90 -35t-103.5 -11.5t-101.5 14.5t-83 41 t-52 63.5t-11.5 82zM215 0l1030 1393h94l-1030 -1393h-94zM653 193l9 63l440 473h104l-69 -473h133l-8 -63h-134l-28 -189h-74l29 189h-402zM748 256h315l57 387h-8z" />
<glyph unicode="&#xbf;" horiz-adv-x="796" d="M-4 -123l22 154q6 37 23.5 67.5t43.5 58t56.5 52t63.5 49.5q31 23 60.5 46.5t54 51t41 58t22.5 69.5l25 166h77l-26 -184q-6 -39 -25.5 -74t-48.5 -65.5t-63.5 -59t-71.5 -55.5q-57 -45 -103.5 -90t-54.5 -98l-22 -146q-10 -72 8 -112.5t49 -63.5t68.5 -29t68.5 -6 q35 0 71 11.5t69.5 29t64.5 39t55 41.5l31 -57q-23 -23 -55.5 -47.5t-71.5 -45t-83 -34t-91 -13.5q-158 0 -217.5 77t-40.5 210zM397 870l27 177h154l-27 -177h-154z" />
<glyph unicode="&#xc0;" d="M-18 0l720 1413h70l297 -1413h-80l-98 496h-582l-246 -496h-81zM348 571h529l-158 721zM584 1788l86 63l135 -292l-66 -43z" />
<glyph unicode="&#xc1;" d="M-18 0l720 1413h70l297 -1413h-80l-98 496h-582l-246 -496h-81zM348 571h529l-158 721zM705 1550l225 275l59 -53l-229 -261z" />
<glyph unicode="&#xc2;" d="M-18 0l720 1413h70l297 -1413h-80l-98 496h-582l-246 -496h-81zM348 571h529l-158 721zM522 1565l258 166l217 -166l-53 -60l-174 135l-219 -133z" />
<glyph unicode="&#xc3;" d="M-18 0l720 1413h70l297 -1413h-80l-98 496h-582l-246 -496h-81zM348 571h529l-158 721zM475 1571q43 57 84 88t94 31q35 0 66 -15.5t60.5 -35t60 -36t65.5 -16.5q45 6 80 68l64 -35q-29 -45 -71 -80t-95 -35q-43 0 -76 15.5t-59.5 34t-52 34t-56.5 15.5 q-35 0 -60.5 -21.5t-41.5 -50.5z" />
<glyph unicode="&#xc4;" d="M-18 0l720 1413h70l297 -1413h-80l-98 496h-582l-246 -496h-81zM348 571h529l-158 721zM543 1554l18 132h115l-19 -132h-114zM862 1554l19 132h114l-18 -132h-115z" />
<glyph unicode="&#xc5;" d="M-18 0l720 1413h70l297 -1413h-80l-98 496h-582l-246 -496h-81zM348 571h529l-158 721zM621 1645q0 78 55 128t125 50q59 0 97 -39t38 -98q0 -37 -15.5 -70t-41 -57.5t-58 -39t-67.5 -14.5q-57 0 -95 41t-38 99zM692 1651q0 -31 21.5 -52.5t52.5 -21.5q37 0 67.5 27.5 t30.5 68.5q0 31 -20.5 54.5t-50.5 23.5q-37 0 -69 -29.5t-32 -70.5z" />
<glyph unicode="&#xc6;" horiz-adv-x="1748" d="M-45 0l1034 1393h664l-11 -76h-559l-82 -555h467l-10 -76h-467l-90 -610h610l-10 -76h-682l64 430h-516l-326 -430h-86zM420 506h473l117 799z" />
<glyph unicode="&#xc7;" horiz-adv-x="1193" d="M111 426l79 543q14 100 64.5 182t124.5 140.5t167 90t195 31.5q135 0 240.5 -41t165.5 -127l-62 -57q-51 70 -144 109.5t-212 39.5q-86 0 -165 -25.5t-141.5 -73.5t-105.5 -116.5t-55 -152.5l-80 -543q-12 -92 8.5 -161.5t69.5 -116t122 -70t163 -23.5q111 0 212 27 t187 90l37 -57q-96 -76 -206.5 -105.5t-239.5 -29.5h-9l-43 -91q31 -14 54 -36q20 -18 37.5 -49t17.5 -74q0 -90 -63.5 -147.5t-157.5 -80.5l-17 58q23 6 51.5 18t53 30.5t42 43t17.5 55.5q0 41 -20.5 64.5t-44.5 38.5q-29 16 -64 24l57 152q-88 10 -156.5 43.5t-112.5 90 t-62.5 133.5t-3.5 173z" />
<glyph unicode="&#xc8;" horiz-adv-x="1122" d="M106 0l203 1393h713l-10 -76h-639l-82 -565h545l-13 -76h-544l-89 -600h691l-11 -76h-764zM518 1767l86 64l135 -293l-65 -43z" />
<glyph unicode="&#xc9;" horiz-adv-x="1122" d="M106 0l203 1393h713l-10 -76h-639l-82 -565h545l-13 -76h-544l-89 -600h691l-11 -76h-764zM608 1530l226 274l59 -53l-229 -260z" />
<glyph unicode="&#xca;" horiz-adv-x="1122" d="M106 0l203 1393h713l-10 -76h-639l-82 -565h545l-13 -76h-544l-89 -600h691l-11 -76h-764zM453 1544l258 166l217 -166l-54 -59l-174 135l-219 -133z" />
<glyph unicode="&#xcb;" horiz-adv-x="1122" d="M106 0l203 1393h713l-10 -76h-639l-82 -565h545l-13 -76h-544l-89 -600h691l-11 -76h-764zM469 1534l18 131h115l-18 -131h-115zM788 1534l19 131h115l-19 -131h-115z" />
<glyph unicode="&#xcc;" horiz-adv-x="577" d="M137 0l203 1393h72l-203 -1393h-72zM223 1767l86 64l135 -293l-65 -43z" />
<glyph unicode="&#xcd;" horiz-adv-x="577" d="M137 0l203 1393h72l-203 -1393h-72zM332 1530l225 274l59 -53l-229 -260z" />
<glyph unicode="&#xce;" horiz-adv-x="577" d="M137 0l203 1393h72l-203 -1393h-72zM164 1544l258 166l217 -166l-53 -59l-174 135l-219 -133z" />
<glyph unicode="&#xcf;" horiz-adv-x="577" d="M137 0l203 1393h72l-203 -1393h-72zM178 1534l19 131h114l-18 -131h-115zM498 1534l18 131h115l-19 -131h-114z" />
<glyph unicode="&#xd0;" horiz-adv-x="1339" d="M-29 666l13 75h235l94 652h410q113 0 204 -31t150.5 -87t86 -138t12.5 -187l-76 -514q-16 -106 -64.5 -187t-124 -136.5t-175 -84t-218.5 -28.5h-407l96 666h-236zM195 76h333q205 0 339 89t161 271l76 514q12 86 -11.5 155t-75.5 116t-130 71.5t-174 24.5h-334l-84 -576 h344l-12 -75h-346z" />
<glyph unicode="&#xd1;" horiz-adv-x="1445" d="M113 0l202 1393h97l639 -1278l186 1278h74l-203 -1393h-92l-641 1286l-189 -1286h-73zM555 1550q43 57 84 88t94 31q35 0 65.5 -15.5t60.5 -35t60.5 -35.5t65.5 -16q45 6 80 67l63 -35q-29 -45 -70.5 -79.5t-94.5 -34.5q-43 0 -76 15.5t-59.5 33.5t-52 33.5t-56.5 15.5 q-35 0 -60.5 -21.5t-42.5 -50.5z" />
<glyph unicode="&#xd2;" horiz-adv-x="1333" d="M121 422l80 547q14 100 61 183t119 140.5t164 89t194 31.5h35q106 0 192.5 -31.5t143.5 -89t82 -140.5t10 -183l-80 -547q-16 -104 -63 -186t-121 -138.5t-168 -87t-205 -30.5h-33q-106 0 -189 29.5t-137 87t-78 139t-7 186.5zM195 422q-12 -90 6 -157.5t64 -115t117 -71 t161 -23.5h32q188 0 317.5 93.5t156.5 273.5l79 547q12 84 -9 152.5t-69.5 116.5t-122 73.5t-165.5 25.5h-35q-88 0 -165 -25.5t-137 -73.5t-99 -116.5t-52 -152.5zM616 1788l86 63l136 -292l-66 -43z" />
<glyph unicode="&#xd3;" horiz-adv-x="1333" d="M121 422l80 547q14 100 61 183t119 140.5t164 89t194 31.5h35q106 0 192.5 -31.5t143.5 -89t82 -140.5t10 -183l-80 -547q-16 -104 -63 -186t-121 -138.5t-168 -87t-205 -30.5h-33q-106 0 -189 29.5t-137 87t-78 139t-7 186.5zM195 422q-12 -90 6 -157.5t64 -115t117 -71 t161 -23.5h32q188 0 317.5 93.5t156.5 273.5l79 547q12 84 -9 152.5t-69.5 116.5t-122 73.5t-165.5 25.5h-35q-88 0 -165 -25.5t-137 -73.5t-99 -116.5t-52 -152.5zM725 1550l225 275l60 -53l-230 -261z" />
<glyph unicode="&#xd4;" horiz-adv-x="1333" d="M121 422l80 547q14 100 61 183t119 140.5t164 89t194 31.5h35q106 0 192.5 -31.5t143.5 -89t82 -140.5t10 -183l-80 -547q-16 -104 -63 -186t-121 -138.5t-168 -87t-205 -30.5h-33q-106 0 -189 29.5t-137 87t-78 139t-7 186.5zM195 422q-12 -90 6 -157.5t64 -115t117 -71 t161 -23.5h32q188 0 317.5 93.5t156.5 273.5l79 547q12 84 -9 152.5t-69.5 116.5t-122 73.5t-165.5 25.5h-35q-88 0 -165 -25.5t-137 -73.5t-99 -116.5t-52 -152.5zM545 1565l258 166l217 -166l-53 -60l-174 135l-220 -133z" />
<glyph unicode="&#xd5;" horiz-adv-x="1333" d="M121 422l80 547q14 100 61 183t119 140.5t164 89t194 31.5h35q106 0 192.5 -31.5t143.5 -89t82 -140.5t10 -183l-80 -547q-16 -104 -63 -186t-121 -138.5t-168 -87t-205 -30.5h-33q-106 0 -189 29.5t-137 87t-78 139t-7 186.5zM195 422q-12 -90 6 -157.5t64 -115t117 -71 t161 -23.5h32q188 0 317.5 93.5t156.5 273.5l79 547q12 84 -9 152.5t-69.5 116.5t-122 73.5t-165.5 25.5h-35q-88 0 -165 -25.5t-137 -73.5t-99 -116.5t-52 -152.5zM512 1571q43 57 84 88t94 31q35 0 65.5 -15.5t60.5 -35t60.5 -36t65.5 -16.5q45 6 80 68l63 -35 q-29 -45 -70.5 -80t-94.5 -35q-43 0 -76 15.5t-59.5 34t-52 34t-56.5 15.5q-35 0 -60.5 -21.5t-42.5 -50.5z" />
<glyph unicode="&#xd6;" horiz-adv-x="1333" d="M121 422l80 547q14 100 61 183t119 140.5t164 89t194 31.5h35q106 0 192.5 -31.5t143.5 -89t82 -140.5t10 -183l-80 -547q-16 -104 -63 -186t-121 -138.5t-168 -87t-205 -30.5h-33q-106 0 -189 29.5t-137 87t-78 139t-7 186.5zM195 422q-12 -90 6 -157.5t64 -115t117 -71 t161 -23.5h32q188 0 317.5 93.5t156.5 273.5l79 547q12 84 -9 152.5t-69.5 116.5t-122 73.5t-165.5 25.5h-35q-88 0 -165 -25.5t-137 -73.5t-99 -116.5t-52 -152.5zM569 1554l19 132h114l-18 -132h-115zM889 1554l18 132h115l-18 -132h-115z" />
<glyph unicode="&#xd7;" horiz-adv-x="1136" d="M25 0l460 522l-288 482h86l256 -416l379 416h86l-429 -482l310 -522h-94l-271 457l-405 -457h-90z" />
<glyph unicode="&#xd8;" horiz-adv-x="1333" d="M121 422l80 547q14 100 61 183t119 140.5t164 89t194 31.5h35q63 0 116.5 -11t100.5 -32l105 189h80l-125 -222q88 -57 129 -150t22 -218l-80 -547q-16 -104 -63 -186t-121 -138.5t-168 -87t-205 -30.5h-33q-117 0 -213 38l-96 -174h-82l117 207q-84 55 -120 148.5 t-17 222.5zM195 422q-16 -104 11 -179t91 -120l657 1177q-84 37 -192 37h-35q-88 0 -165 -25.5t-137 -73.5t-99 -116.5t-52 -152.5zM358 88q78 -33 185 -33h32q188 0 317.5 93.5t156.5 273.5l79 547q14 98 -16.5 175t-97.5 124z" />
<glyph unicode="&#xd9;" horiz-adv-x="1413" d="M156 342q0 37 6 80l141 971h74l-141 -971q-4 -16 -4.5 -31.5t-0.5 -32.5q0 -78 29 -135t80 -94t117.5 -55.5t144.5 -18.5q82 0 162 24.5t144.5 72t108.5 115t56 155.5l141 971h74l-141 -971q-16 -111 -66.5 -194t-124 -138t-167 -82.5t-197.5 -27.5q-94 0 -174 21.5 t-138.5 66.5t-91 113.5t-32.5 160.5zM651 1767l86 64l135 -293l-65 -43z" />
<glyph unicode="&#xda;" horiz-adv-x="1413" d="M156 342q0 37 6 80l141 971h74l-141 -971q-4 -16 -4.5 -31.5t-0.5 -32.5q0 -78 29 -135t80 -94t117.5 -55.5t144.5 -18.5q82 0 162 24.5t144.5 72t108.5 115t56 155.5l141 971h74l-141 -971q-16 -111 -66.5 -194t-124 -138t-167 -82.5t-197.5 -27.5q-94 0 -174 21.5 t-138.5 66.5t-91 113.5t-32.5 160.5zM752 1530l225 274l59 -53l-229 -260z" />
<glyph unicode="&#xdb;" horiz-adv-x="1413" d="M156 342q0 37 6 80l141 971h74l-141 -971q-4 -16 -4.5 -31.5t-0.5 -32.5q0 -78 29 -135t80 -94t117.5 -55.5t144.5 -18.5q82 0 162 24.5t144.5 72t108.5 115t56 155.5l141 971h74l-141 -971q-16 -111 -66.5 -194t-124 -138t-167 -82.5t-197.5 -27.5q-94 0 -174 21.5 t-138.5 66.5t-91 113.5t-32.5 160.5zM582 1544l258 166l217 -166l-53 -59l-175 135l-219 -133z" />
<glyph unicode="&#xdc;" horiz-adv-x="1413" d="M156 342q0 37 6 80l141 971h74l-141 -971q-4 -16 -4.5 -31.5t-0.5 -32.5q0 -78 29 -135t80 -94t117.5 -55.5t144.5 -18.5q82 0 162 24.5t144.5 72t108.5 115t56 155.5l141 971h74l-141 -971q-16 -111 -66.5 -194t-124 -138t-167 -82.5t-197.5 -27.5q-94 0 -174 21.5 t-138.5 66.5t-91 113.5t-32.5 160.5zM600 1534l18 131h115l-18 -131h-115zM920 1534l18 131h115l-19 -131h-114z" />
<glyph unicode="&#xdd;" horiz-adv-x="1150" d="M193 1393h88l272 -742l498 742h88l-564 -826l-81 -567h-72l82 567zM608 1530l226 274l59 -53l-229 -260z" />
<glyph unicode="&#xde;" horiz-adv-x="1097" d="M109 -2l202 1395h72l-41 -287h387q76 0 134.5 -27.5t96 -75t53 -108.5t7.5 -129l-6 -41q-10 -66 -42 -122t-82 -98t-116.5 -66.5t-146.5 -24.5h-387l-60 -416h-71zM252 489h387q127 0 207 69t96 167l6 41q6 47 -5 94t-40 85t-76 61.5t-110 23.5h-387z" />
<glyph unicode="&#xe0;" horiz-adv-x="1067" d="M55 205q0 12 2 28.5t6 51.5q10 70 53.5 120t105 85.5t137 57t152.5 35t149.5 19.5t130.5 8l20 131q4 16 5 35t1 33q0 88 -49 135t-166 47q-43 0 -95 -8t-102.5 -21.5t-92.5 -28.5t-66 -30l-17 66q29 16 74 33.5t97.5 32t107.5 23.5t104 9q147 0 214 -68.5t67 -181.5 q0 -37 -6 -80l-109 -737h-73l24 170q-18 -25 -52 -56.5t-85 -61t-118.5 -49t-154.5 -19.5q-123 0 -193.5 55t-70.5 166zM131 211q0 -78 53.5 -115t147.5 -37q80 0 152.5 22.5t130 57.5t93 80t42.5 92l32 224q-115 -4 -224 -17.5t-198.5 -41t-148.5 -75t-72 -120.5 q-4 -29 -6 -44.5t-2 -25.5zM471 1460l86 64l135 -293l-65 -43z" />
<glyph unicode="&#xe1;" horiz-adv-x="1067" d="M55 205q0 12 2 28.5t6 51.5q10 70 53.5 120t105 85.5t137 57t152.5 35t149.5 19.5t130.5 8l20 131q4 16 5 35t1 33q0 88 -49 135t-166 47q-43 0 -95 -8t-102.5 -21.5t-92.5 -28.5t-66 -30l-17 66q29 16 74 33.5t97.5 32t107.5 23.5t104 9q147 0 214 -68.5t67 -181.5 q0 -37 -6 -80l-109 -737h-73l24 170q-18 -25 -52 -56.5t-85 -61t-118.5 -49t-154.5 -19.5q-123 0 -193.5 55t-70.5 166zM131 211q0 -78 53.5 -115t147.5 -37q80 0 152.5 22.5t130 57.5t93 80t42.5 92l32 224q-115 -4 -224 -17.5t-198.5 -41t-148.5 -75t-72 -120.5 q-4 -29 -6 -44.5t-2 -25.5zM563 1223l225 274l60 -53l-230 -260z" />
<glyph unicode="&#xe2;" horiz-adv-x="1067" d="M55 205q0 12 2 28.5t6 51.5q10 70 53.5 120t105 85.5t137 57t152.5 35t149.5 19.5t130.5 8l20 131q4 16 5 35t1 33q0 88 -49 135t-166 47q-43 0 -95 -8t-102.5 -21.5t-92.5 -28.5t-66 -30l-17 66q29 16 74 33.5t97.5 32t107.5 23.5t104 9q147 0 214 -68.5t67 -181.5 q0 -37 -6 -80l-109 -737h-73l24 170q-18 -25 -52 -56.5t-85 -61t-118.5 -49t-154.5 -19.5q-123 0 -193.5 55t-70.5 166zM131 211q0 -78 53.5 -115t147.5 -37q80 0 152.5 22.5t130 57.5t93 80t42.5 92l32 224q-115 -4 -224 -17.5t-198.5 -41t-148.5 -75t-72 -120.5 q-4 -29 -6 -44.5t-2 -25.5zM401 1237l258 166l218 -166l-54 -59l-174 135l-219 -133z" />
<glyph unicode="&#xe3;" horiz-adv-x="1067" d="M55 205q0 12 2 28.5t6 51.5q10 70 53.5 120t105 85.5t137 57t152.5 35t149.5 19.5t130.5 8l20 131q4 16 5 35t1 33q0 88 -49 135t-166 47q-43 0 -95 -8t-102.5 -21.5t-92.5 -28.5t-66 -30l-17 66q29 16 74 33.5t97.5 32t107.5 23.5t104 9q147 0 214 -68.5t67 -181.5 q0 -37 -6 -80l-109 -737h-73l24 170q-18 -25 -52 -56.5t-85 -61t-118.5 -49t-154.5 -19.5q-123 0 -193.5 55t-70.5 166zM131 211q0 -78 53.5 -115t147.5 -37q80 0 152.5 22.5t130 57.5t93 80t42.5 92l32 224q-115 -4 -224 -17.5t-198.5 -41t-148.5 -75t-72 -120.5 q-4 -29 -6 -44.5t-2 -25.5zM344 1243q43 57 84 88t94 31q35 0 65.5 -15.5t60.5 -35t60.5 -35.5t65.5 -16q45 6 80 67l64 -35q-29 -45 -71 -79.5t-95 -34.5q-43 0 -76 15t-59.5 33.5t-52 34t-56.5 15.5q-35 0 -60.5 -21.5t-41.5 -50.5z" />
<glyph unicode="&#xe4;" horiz-adv-x="1067" d="M55 205q0 12 2 28.5t6 51.5q10 70 53.5 120t105 85.5t137 57t152.5 35t149.5 19.5t130.5 8l20 131q4 16 5 35t1 33q0 88 -49 135t-166 47q-43 0 -95 -8t-102.5 -21.5t-92.5 -28.5t-66 -30l-17 66q29 16 74 33.5t97.5 32t107.5 23.5t104 9q147 0 214 -68.5t67 -181.5 q0 -37 -6 -80l-109 -737h-73l24 170q-18 -25 -52 -56.5t-85 -61t-118.5 -49t-154.5 -19.5q-123 0 -193.5 55t-70.5 166zM131 211q0 -78 53.5 -115t147.5 -37q80 0 152.5 22.5t130 57.5t93 80t42.5 92l32 224q-115 -4 -224 -17.5t-198.5 -41t-148.5 -75t-72 -120.5 q-4 -29 -6 -44.5t-2 -25.5zM418 1227l18 131h115l-19 -131h-114zM737 1227l19 131h114l-18 -131h-115z" />
<glyph unicode="&#xe5;" horiz-adv-x="1067" d="M55 205q0 12 2 28.5t6 51.5q10 70 53.5 120t105 85.5t137 57t152.5 35t149.5 19.5t130.5 8l20 131q4 16 5 35t1 33q0 88 -49 135t-166 47q-43 0 -95 -8t-102.5 -21.5t-92.5 -28.5t-66 -30l-17 66q29 16 74 33.5t97.5 32t107.5 23.5t104 9q147 0 214 -68.5t67 -181.5 q0 -37 -6 -80l-109 -737h-73l24 170q-18 -25 -52 -56.5t-85 -61t-118.5 -49t-154.5 -19.5q-123 0 -193.5 55t-70.5 166zM131 211q0 -78 53.5 -115t147.5 -37q80 0 152.5 22.5t130 57.5t93 80t42.5 92l32 224q-115 -4 -224 -17.5t-198.5 -41t-148.5 -75t-72 -120.5 q-4 -29 -6 -44.5t-2 -25.5zM489 1317q0 78 55.5 128t125.5 50q59 0 97 -39t38 -98q0 -37 -15.5 -70t-41 -57.5t-58 -38.5t-67.5 -14q-57 0 -95.5 41t-38.5 98zM561 1323q0 -31 21.5 -52.5t52.5 -21.5q37 0 67.5 28t30.5 69q0 31 -20.5 54t-50.5 23q-37 0 -69 -29.5 t-32 -70.5z" />
<glyph unicode="&#xe6;" horiz-adv-x="1757" d="M76 285l30 204l699 89l22 157q18 127 -40 193.5t-189 66.5q-49 0 -103.5 -11t-103.5 -27.5t-91 -34t-67 -31.5l-20 70q31 18 76 37.5t97 36t109.5 26.5t112.5 10q117 0 189.5 -50t95.5 -142q59 86 163.5 141t229.5 55q170 0 261 -93t69 -253l-21 -137l-727 -80l-24 -176 q-10 -72 12.5 -123t68.5 -85t110 -50.5t136 -16.5q61 0 113.5 10.5t94.5 25t72 29.5t46 28l33 -56q-76 -57 -178.5 -84.5t-190.5 -27.5q-131 0 -233.5 47t-141.5 147q-39 -59 -89 -96t-103 -59.5t-107.5 -30.5t-101.5 -8q-72 0 -132 20.5t-103.5 58t-63.5 93t-10 127.5z M152 285q-8 -55 9 -97.5t52 -71t83 -44t103 -15.5q59 0 121 14.5t113 43t87 72.5t46 106l31 211l-625 -76zM881 588l651 67l12 84q8 63 -8 112.5t-53 82.5t-91.5 49t-117.5 16q-70 0 -133.5 -22.5t-114.5 -59t-84 -86t-41 -102.5z" />
<glyph unicode="&#xe7;" horiz-adv-x="950" d="M74 336l53 369q12 82 52 148.5t99.5 113.5t133 72.5t155.5 25.5q109 0 178.5 -38t120.5 -103l-55 -52q-92 117 -256 117q-66 0 -125 -20.5t-107.5 -57.5t-80 -89t-41.5 -117l-54 -369q-10 -70 10.5 -123t59.5 -88t93.5 -53.5t111.5 -18.5q164 -2 295 99l33 -58 q-78 -61 -157 -87.5t-181 -26.5h-6l-44 -91q31 -14 54 -36q20 -18 37.5 -49t17.5 -74q0 -90 -63.5 -147.5t-157.5 -80.5l-17 58q20 6 49 18t54.5 30.5t43 43t17.5 55.5q0 41 -20.5 64.5t-44.5 38.5q-29 16 -66 24l60 154q-61 12 -111.5 39.5t-85.5 70.5t-50.5 102.5 t-4.5 135.5z" />
<glyph unicode="&#xe8;" horiz-adv-x="1054" d="M72 289q0 12 1 24.5t3 26.5l55 381q10 72 53 134.5t105.5 109.5t139.5 73.5t155 26.5q72 0 135 -22.5t109 -62.5t73 -95.5t27 -118.5q0 -16 -6 -59l-25 -172h-721l-29 -195q-2 -12 -2 -20.5v-18.5q0 -61 26 -106t69 -75t99.5 -44.5t117.5 -14.5q106 0 189 25t136 64 l29 -58q-78 -57 -173 -81.5t-192 -24.5q-74 0 -141 19.5t-119.5 57t-83 94t-30.5 132.5zM186 610h648l14 97q2 10 3 22t1 29q0 104 -80 167.5t-201 63.5q-66 0 -128 -20.5t-113 -56t-85 -85t-42 -104.5zM440 1460l86 64l136 -293l-66 -43z" />
<glyph unicode="&#xe9;" horiz-adv-x="1054" d="M72 289q0 12 1 24.5t3 26.5l55 381q10 72 53 134.5t105.5 109.5t139.5 73.5t155 26.5q72 0 135 -22.5t109 -62.5t73 -95.5t27 -118.5q0 -16 -6 -59l-25 -172h-721l-29 -195q-2 -12 -2 -20.5v-18.5q0 -61 26 -106t69 -75t99.5 -44.5t117.5 -14.5q106 0 189 25t136 64 l29 -58q-78 -57 -173 -81.5t-192 -24.5q-74 0 -141 19.5t-119.5 57t-83 94t-30.5 132.5zM186 610h648l14 97q2 10 3 22t1 29q0 104 -80 167.5t-201 63.5q-66 0 -128 -20.5t-113 -56t-85 -85t-42 -104.5zM551 1223l225 274l60 -53l-230 -260z" />
<glyph unicode="&#xea;" horiz-adv-x="1054" d="M72 289q0 12 1 24.5t3 26.5l55 381q10 72 53 134.5t105.5 109.5t139.5 73.5t155 26.5q72 0 135 -22.5t109 -62.5t73 -95.5t27 -118.5q0 -16 -6 -59l-25 -172h-721l-29 -195q-2 -12 -2 -20.5v-18.5q0 -61 26 -106t69 -75t99.5 -44.5t117.5 -14.5q106 0 189 25t136 64 l29 -58q-78 -57 -173 -81.5t-192 -24.5q-74 0 -141 19.5t-119.5 57t-83 94t-30.5 132.5zM186 610h648l14 97q2 10 3 22t1 29q0 104 -80 167.5t-201 63.5q-66 0 -128 -20.5t-113 -56t-85 -85t-42 -104.5zM383 1237l258 166l217 -166l-53 -59l-174 135l-219 -133z" />
<glyph unicode="&#xeb;" horiz-adv-x="1054" d="M72 289q0 12 1 24.5t3 26.5l55 381q10 72 53 134.5t105.5 109.5t139.5 73.5t155 26.5q72 0 135 -22.5t109 -62.5t73 -95.5t27 -118.5q0 -16 -6 -59l-25 -172h-721l-29 -195q-2 -12 -2 -20.5v-18.5q0 -61 26 -106t69 -75t99.5 -44.5t117.5 -14.5q106 0 189 25t136 64 l29 -58q-78 -57 -173 -81.5t-192 -24.5q-74 0 -141 19.5t-119.5 57t-83 94t-30.5 132.5zM186 610h648l14 97q2 10 3 22t1 29q0 104 -80 167.5t-201 63.5q-66 0 -128 -20.5t-113 -56t-85 -85t-42 -104.5zM395 1227l19 131h114l-18 -131h-115zM715 1227l18 131h115l-19 -131 h-114z" />
<glyph unicode="&#xec;" horiz-adv-x="512" d="M109 0l151 1044h72l-152 -1044h-71zM154 1450l86 63l135 -292l-66 -43z" />
<glyph unicode="&#xed;" horiz-adv-x="512" d="M109 0l151 1044h72l-152 -1044h-71zM266 1212l226 275l59 -53l-229 -260z" />
<glyph unicode="&#xee;" horiz-adv-x="512" d="M88 1227l258 166l217 -166l-53 -60l-174 136l-219 -134zM109 0l151 1044h72l-152 -1044h-71z" />
<glyph unicode="&#xef;" horiz-adv-x="512" d="M102 1217l19 131h115l-19 -131h-115zM109 0l151 1044h72l-152 -1044h-71zM422 1217l18 131h115l-18 -131h-115z" />
<glyph unicode="&#xf0;" horiz-adv-x="1103" d="M76 332l49 340q10 74 50 138t100.5 112.5t136 75t159.5 26.5q94 0 171 -30.5t128 -108.5q-4 104 -39.5 195t-97.5 171l-303 -131l-16 62l278 118q-59 63 -134 105.5t-163 58.5l29 76q106 -29 192 -81t152 -124l266 117l19 -59l-246 -109q184 -221 129 -612l-49 -340 q-10 -72 -53 -136.5t-106.5 -112.5t-143.5 -75.5t-164 -27.5t-152.5 27.5t-115 74.5t-66.5 111.5t-10 138.5zM150 332q-8 -59 9 -109.5t55 -87.5t93 -58.5t123 -21.5q70 0 135.5 21.5t117.5 59.5t88 88t44 108l49 340q8 57 -13.5 108t-63.5 88t-100 58.5t-126 21.5 t-129 -21.5t-110.5 -59.5t-82 -88t-40.5 -107z" />
<glyph unicode="&#xf1;" horiz-adv-x="1208" d="M88 0l152 1044h75l-30 -215q78 111 187.5 173.5t236.5 62.5q166 0 249.5 -92t59.5 -258l-105 -715h-73l104 715q18 131 -48.5 202.5t-199.5 71.5q-66 0 -138.5 -25.5t-135 -69.5t-107.5 -102.5t-53 -123.5l-98 -668h-76zM397 1243q43 57 84 88t94 31q35 0 66 -15.5 t60.5 -35t60.5 -35.5t65 -16q45 6 80 67l64 -35q-29 -45 -71 -79.5t-95 -34.5q-43 0 -76 15t-59.5 33.5t-52 34t-56.5 15.5q-35 0 -60.5 -21.5t-41.5 -50.5z" />
<glyph unicode="&#xf2;" horiz-adv-x="1103" d="M76 342l55 369q12 80 56 145.5t108.5 111.5t142.5 71.5t156 25.5q80 0 149.5 -25.5t120.5 -71.5t77 -111.5t13 -145.5l-55 -369q-12 -80 -55 -146.5t-107.5 -113.5t-142.5 -72.5t-158 -25.5t-150.5 25.5t-120.5 72.5t-76 113.5t-13 146.5zM150 342q-10 -66 11 -118 t63 -89t100.5 -56.5t121.5 -19.5t127 19.5t117 56.5t89 89t46 118l56 369q8 63 -13.5 115.5t-63.5 88t-100.5 55t-121.5 19.5t-127 -19.5t-116 -56t-89 -88t-45 -114.5zM449 1460l86 64l135 -293l-66 -43z" />
<glyph unicode="&#xf3;" horiz-adv-x="1103" d="M76 342l55 369q12 80 56 145.5t108.5 111.5t142.5 71.5t156 25.5q80 0 149.5 -25.5t120.5 -71.5t77 -111.5t13 -145.5l-55 -369q-12 -80 -55 -146.5t-107.5 -113.5t-142.5 -72.5t-158 -25.5t-150.5 25.5t-120.5 72.5t-76 113.5t-13 146.5zM150 342q-10 -66 11 -118 t63 -89t100.5 -56.5t121.5 -19.5t127 19.5t117 56.5t89 89t46 118l56 369q8 63 -13.5 115.5t-63.5 88t-100.5 55t-121.5 19.5t-127 -19.5t-116 -56t-89 -88t-45 -114.5zM553 1223l225 274l60 -53l-230 -260z" />
<glyph unicode="&#xf4;" horiz-adv-x="1103" d="M76 342l55 369q12 80 56 145.5t108.5 111.5t142.5 71.5t156 25.5q80 0 149.5 -25.5t120.5 -71.5t77 -111.5t13 -145.5l-55 -369q-12 -80 -55 -146.5t-107.5 -113.5t-142.5 -72.5t-158 -25.5t-150.5 25.5t-120.5 72.5t-76 113.5t-13 146.5zM150 342q-10 -66 11 -118 t63 -89t100.5 -56.5t121.5 -19.5t127 19.5t117 56.5t89 89t46 118l56 369q8 63 -13.5 115.5t-63.5 88t-100.5 55t-121.5 19.5t-127 -19.5t-116 -56t-89 -88t-45 -114.5zM385 1237l258 166l217 -166l-53 -59l-174 135l-219 -133z" />
<glyph unicode="&#xf5;" horiz-adv-x="1103" d="M76 342l55 369q12 80 56 145.5t108.5 111.5t142.5 71.5t156 25.5q80 0 149.5 -25.5t120.5 -71.5t77 -111.5t13 -145.5l-55 -369q-12 -80 -55 -146.5t-107.5 -113.5t-142.5 -72.5t-158 -25.5t-150.5 25.5t-120.5 72.5t-76 113.5t-13 146.5zM150 342q-10 -66 11 -118 t63 -89t100.5 -56.5t121.5 -19.5t127 19.5t117 56.5t89 89t46 118l56 369q8 63 -13.5 115.5t-63.5 88t-100.5 55t-121.5 19.5t-127 -19.5t-116 -56t-89 -88t-45 -114.5zM340 1243q43 57 84 88t94 31q35 0 65.5 -15.5t60.5 -35t60.5 -35.5t65.5 -16q45 6 80 67l63 -35 q-29 -45 -70.5 -79.5t-94.5 -34.5q-43 0 -76 15t-59.5 33.5t-52 34t-56.5 15.5q-35 0 -60.5 -21.5t-42.5 -50.5z" />
<glyph unicode="&#xf6;" horiz-adv-x="1103" d="M76 342l55 369q12 80 56 145.5t108.5 111.5t142.5 71.5t156 25.5q80 0 149.5 -25.5t120.5 -71.5t77 -111.5t13 -145.5l-55 -369q-12 -80 -55 -146.5t-107.5 -113.5t-142.5 -72.5t-158 -25.5t-150.5 25.5t-120.5 72.5t-76 113.5t-13 146.5zM150 342q-10 -66 11 -118 t63 -89t100.5 -56.5t121.5 -19.5t127 19.5t117 56.5t89 89t46 118l56 369q8 63 -13.5 115.5t-63.5 88t-100.5 55t-121.5 19.5t-127 -19.5t-116 -56t-89 -88t-45 -114.5zM403 1227l19 131h115l-19 -131h-115zM723 1227l18 131h115l-18 -131h-115z" />
<glyph unicode="&#xf7;" horiz-adv-x="1411" d="M109 553l12 76h1126l-12 -76h-1126zM526 188l25 164h164l-25 -164h-164zM618 821l25 166h164l-25 -166h-164z" />
<glyph unicode="&#xf8;" horiz-adv-x="1103" d="M-12 -121l157 221q-41 47 -60 108.5t-9 133.5l55 369q12 80 56 145.5t108.5 111.5t142.5 71.5t156 25.5q55 0 105.5 -13.5t93.5 -35.5l110 151h84l-135 -190q55 -47 85 -113.5t17 -152.5l-55 -369q-12 -80 -56 -146.5t-107.5 -113.5t-141.5 -72.5t-158 -25.5 q-139 0 -239 71l-125 -176h-84zM147 342q-8 -53 4.5 -96t41.5 -78l557 782q-82 39 -168 39q-63 0 -127 -19.5t-117 -56t-90 -88t-45 -114.5zM244 121q41 -31 92 -46.5t110 -15.5q63 0 127 19.5t117 56.5t89 89t46 118l56 369q10 63 -11.5 114.5t-64.5 87.5z" />
<glyph unicode="&#xf9;" horiz-adv-x="1187" d="M129 279q0 14 1 28.5t3 30.5l103 706h71l-102 -706q-2 -12 -3 -24.5t-1 -22.5q0 -115 82 -175.5t215 -60.5q145 0 249.5 73t124.5 210l103 706h72l-103 -706q-12 -84 -52 -150.5t-100.5 -112.5t-138.5 -70.5t-166 -24.5q-162 0 -260 78.5t-98 220.5zM494 1440l86 63 l135 -293l-66 -43z" />
<glyph unicode="&#xfa;" horiz-adv-x="1187" d="M129 279q0 14 1 28.5t3 30.5l103 706h71l-102 -706q-2 -12 -3 -24.5t-1 -22.5q0 -115 82 -175.5t215 -60.5q145 0 249.5 73t124.5 210l103 706h72l-103 -706q-12 -84 -52 -150.5t-100.5 -112.5t-138.5 -70.5t-166 -24.5q-162 0 -260 78.5t-98 220.5zM614 1202l226 275 l59 -54l-229 -260z" />
<glyph unicode="&#xfb;" horiz-adv-x="1187" d="M129 279q0 14 1 28.5t3 30.5l103 706h71l-102 -706q-2 -12 -3 -24.5t-1 -22.5q0 -115 82 -175.5t215 -60.5q145 0 249.5 73t124.5 210l103 706h72l-103 -706q-12 -84 -52 -150.5t-100.5 -112.5t-138.5 -70.5t-166 -24.5q-162 0 -260 78.5t-98 220.5zM432 1217l258 165 l217 -165l-53 -60l-174 135l-219 -133z" />
<glyph unicode="&#xfc;" horiz-adv-x="1187" d="M129 279q0 14 1 28.5t3 30.5l103 706h71l-102 -706q-2 -12 -3 -24.5t-1 -22.5q0 -115 82 -175.5t215 -60.5q145 0 249.5 73t124.5 210l103 706h72l-103 -706q-12 -84 -52 -150.5t-100.5 -112.5t-138.5 -70.5t-166 -24.5q-162 0 -260 78.5t-98 220.5zM442 1206l19 131h114 l-18 -131h-115zM762 1206l18 131h115l-18 -131h-115z" />
<glyph unicode="&#xfd;" horiz-adv-x="976" d="M-29 -436l11 76q188 0 307 247l33 66l-218 1091h82l189 -983l481 983h82l-569 -1155q-37 -72 -77 -132t-87 -103t-105.5 -66.5t-128.5 -23.5zM479 1212l226 275l59 -53l-229 -260z" />
<glyph unicode="&#xfe;" horiz-adv-x="1163" d="M4 -487l279 1898h73l-77 -520q68 78 170 127t213 49q84 0 152.5 -27.5t114.5 -74.5t66.5 -112t10.5 -138l-56 -383q-10 -74 -50 -138.5t-100.5 -111.5t-136 -74.5t-159.5 -27.5q-113 0 -200 47t-132 125l-94 -639h-74zM205 332q-8 -57 13.5 -107.5t64.5 -88.5t102 -59.5 t129 -21.5q68 0 129.5 21.5t110.5 58.5t81.5 87t41.5 110l55 383q8 57 -9.5 108t-56.5 88t-94 58.5t-121 21.5q-70 0 -137.5 -22.5t-120.5 -60.5t-89 -88t-44 -105z" />
<glyph unicode="&#xff;" horiz-adv-x="976" d="M-29 -436l11 76q188 0 307 247l33 66l-218 1091h82l189 -983l481 983h82l-569 -1155q-37 -72 -77 -132t-87 -103t-105.5 -66.5t-128.5 -23.5zM328 1206l18 131h115l-19 -131h-114zM647 1206l19 131h114l-18 -131h-115z" />
<glyph unicode="&#x152;" horiz-adv-x="1869" d="M121 438l76 512q12 88 66 168t135 140.5t182.5 96.5t205.5 36h971l-10 -76h-604l-82 -553h512l-10 -76h-512l-90 -610h655l-10 -76h-1020q-111 0 -202 35t-153.5 94t-92 139t-17.5 170zM195 438q-10 -82 17.5 -148.5t81.5 -114.5t132 -73.5t170 -25.5h291l182 1239h-293 q-80 0 -165 -30t-156.5 -79t-122.5 -115.5t-62 -140.5z" />
<glyph unicode="&#x153;" horiz-adv-x="1798" d="M76 350l53 361q10 74 51 138t103.5 112.5t140.5 76t164 27.5q123 0 214 -58.5t126 -150.5q63 92 171.5 150.5t227.5 58.5q78 0 144.5 -26.5t113.5 -72.5t69.5 -108.5t12.5 -136.5l-27 -186h-720l-29 -195q-10 -70 12.5 -122t66.5 -87t103.5 -52.5t124.5 -17.5 q109 0 192 25t136 64l28 -58q-78 -57 -174 -81.5t-192 -24.5q-59 0 -116.5 13t-104.5 40t-83 65.5t-55 90.5q-61 -88 -167.5 -144.5t-229.5 -56.5q-86 0 -155.5 27.5t-117.5 75.5t-70.5 113.5t-12.5 139.5zM147 350q-8 -59 10.5 -109.5t58.5 -89t98 -60t128 -21.5 q68 0 130.5 20.5t113.5 57t85 85t42 103.5l55 387q8 55 -11 104.5t-59 85t-96.5 57t-123.5 21.5q-70 0 -134.5 -22.5t-116 -60.5t-85 -89t-41.5 -108zM930 610h647l16 111q8 57 -9 107.5t-56 85t-93.5 55t-119.5 20.5q-66 0 -128.5 -20.5t-113.5 -56t-85 -85t-42 -104.5z " />
<glyph unicode="&#x178;" horiz-adv-x="1150" d="M193 1393h88l272 -742l498 742h88l-564 -826l-81 -567h-72l82 567zM467 1534l18 131h115l-18 -131h-115zM786 1534l19 131h115l-19 -131h-115z" />
<glyph unicode="&#x2c6;" horiz-adv-x="718" d="M197 1229l258 166l217 -166l-54 -60l-174 136l-219 -134z" />
<glyph unicode="&#x2dc;" horiz-adv-x="813" d="M201 1270q43 57 84 88t94 31q35 0 65.5 -15.5t60.5 -35t60.5 -36t65.5 -16.5q45 6 80 68l63 -35q-29 -45 -70.5 -80t-95.5 -35q-43 0 -75.5 15.5t-59.5 34t-52 34t-56 15.5q-35 0 -60.5 -21.5t-42.5 -50.5z" />
<glyph unicode="&#x2000;" horiz-adv-x="925" />
<glyph unicode="&#x2001;" horiz-adv-x="1851" />
<glyph unicode="&#x2002;" horiz-adv-x="925" />
<glyph unicode="&#x2003;" horiz-adv-x="1851" />
<glyph unicode="&#x2004;" horiz-adv-x="617" />
<glyph unicode="&#x2005;" horiz-adv-x="462" />
<glyph unicode="&#x2006;" horiz-adv-x="308" />
<glyph unicode="&#x2007;" horiz-adv-x="308" />
<glyph unicode="&#x2008;" horiz-adv-x="231" />
<glyph unicode="&#x2009;" horiz-adv-x="370" />
<glyph unicode="&#x200a;" horiz-adv-x="102" />
<glyph unicode="&#x2010;" horiz-adv-x="718" d="M86 532l10 76h475l-10 -76h-475z" />
<glyph unicode="&#x2011;" horiz-adv-x="718" d="M86 532l10 76h475l-10 -76h-475z" />
<glyph unicode="&#x2012;" horiz-adv-x="718" d="M86 532l10 76h475l-10 -76h-475z" />
<glyph unicode="&#x2013;" horiz-adv-x="1146" d="M2 553l12 76h1065l-12 -76h-1065z" />
<glyph unicode="&#x2014;" horiz-adv-x="1589" d="M10 553l13 76h1499l-13 -76h-1499z" />
<glyph unicode="&#x2018;" horiz-adv-x="231" d="M131 1069l8 57q8 61 18.5 109.5t25 87.5t32.5 70.5t47 60.5l43 -35q-37 -53 -52 -109.5t-26 -127.5l-16 -113h-80z" />
<glyph unicode="&#x2019;" horiz-adv-x="231" d="M76 1108q20 27 35.5 50.5t28 51t20.5 60.5t14 76l16 108h80l-8 -53q-10 -70 -23.5 -119t-31 -86t-40 -65.5t-48.5 -57.5z" />
<glyph unicode="&#x201a;" horiz-adv-x="450" d="M84 -203q20 27 35.5 50.5t27 51t19.5 60.5t14 76l17 108h79l-8 -53q-10 -70 -23.5 -119t-29.5 -86t-38.5 -65.5t-49.5 -57.5z" />
<glyph unicode="&#x201c;" horiz-adv-x="442" d="M133 1069l8 57q8 61 18.5 109.5t25 87.5t33 70.5t46.5 60.5l43 -35q-39 -53 -53 -109.5t-25 -127.5l-16 -113h-80zM356 1069l9 57q8 61 18 109.5t24.5 87.5t33 70.5t46.5 60.5l43 -35q-37 -53 -52 -109.5t-25 -127.5l-17 -113h-80z" />
<glyph unicode="&#x201d;" horiz-adv-x="481" d="M68 1044q20 27 35.5 50.5t27.5 51.5t20.5 60.5t14.5 75.5l16 109h80l-8 -54q-10 -70 -23.5 -119t-31 -85.5t-39 -65.5t-47.5 -57zM309 1044q20 27 35.5 50.5t28 51.5t20.5 60.5t15 75.5l16 109h80l-8 -54q-10 -70 -23.5 -119t-31 -85.5t-39 -65.5t-48.5 -57z" />
<glyph unicode="&#x201e;" horiz-adv-x="782" d="M84 -201q20 27 35.5 50.5t27 51t20.5 60.5t15 76l15 108h77l-6 -53q-10 -70 -23.5 -119t-30.5 -86t-38.5 -65.5t-48.5 -57.5zM406 -199q20 27 35.5 50.5t26.5 51t19.5 60.5t14.5 76l16 108h80l-8 -53q-10 -70 -23.5 -119t-31 -85.5t-39 -65.5t-47.5 -57z" />
<glyph unicode="&#x2022;" horiz-adv-x="710" d="M131 367l49 333h328l-49 -333h-328z" />
<glyph unicode="&#x2026;" horiz-adv-x="1449" d="M90 0l27 178h151l-26 -178h-152zM535 0l26 178h154l-27 -178h-153zM981 0l27 178h151l-26 -178h-152z" />
<glyph unicode="&#x202f;" horiz-adv-x="370" />
<glyph unicode="&#x2039;" horiz-adv-x="620" d="M78 356l368 369l37 -66l-288 -299l202 -294l-57 -66z" />
<glyph unicode="&#x203a;" horiz-adv-x="620" d="M37 66l287 294l-201 299l57 66l258 -369l-364 -356z" />
<glyph unicode="&#x205f;" horiz-adv-x="462" />
<glyph unicode="&#x20ac;" horiz-adv-x="1329" d="M76 543l10 75h170l27 183h-170l10 76h170l14 92q14 100 64.5 182t125 140.5t168 90t193.5 31.5q135 0 241.5 -41t166.5 -127l-62 -57q-53 70 -145 109.5t-213 39.5q-84 0 -163 -25.5t-142.5 -73.5t-105.5 -116.5t-54 -152.5l-14 -92h639l-11 -76h-639l-26 -183h639 l-11 -75h-639l-18 -117q-12 -92 8.5 -161.5t68.5 -116t120.5 -70t163.5 -23.5q111 0 213 27t188 90l37 -57q-96 -76 -208 -105.5t-241 -29.5q-106 0 -191 28.5t-142.5 86t-82 140t-8.5 191.5l19 117h-170z" />
<glyph unicode="&#x2122;" horiz-adv-x="1153" d="M199 1360l10 76h362l-10 -76h-143l-53 -356h-72l53 356h-147zM592 1004l63 430h72l94 -220l164 220h74l-64 -430h-75l45 305l-136 -185h-43l-75 191l-47 -311h-72z" />
<glyph unicode="&#x25fc;" horiz-adv-x="1044" d="M0 0v1044h1044v-1044h-1044z" />
<glyph unicode="&#xfb03;" horiz-adv-x="1718" d="M104 0l142 969h-142l11 75h141l20 134q10 70 47 124t93.5 88.5t128 53t153.5 18.5q92 0 183.5 -13t169.5 -36q53 23 112.5 36t132.5 13q68 0 151 -10t155 -29l-27 -65q-82 16 -149.5 22t-137.5 6q-141 0 -232 -52t-108 -156l-20 -134h246l-11 -75h-245l-142 -969h-74 l142 969h-525l-141 -969h-74zM330 1044h524l20 134q18 115 99 182q-63 14 -143 20t-140 6q-141 0 -232 -52t-108 -156zM1300 0l152 1044h72l-152 -1044h-72z" />
<glyph unicode="&#xfb04;" horiz-adv-x="1708" d="M104 0l142 969h-142l11 75h141l20 134q10 70 47 124t93.5 88.5t128 53t153.5 18.5q92 0 183.5 -13t169.5 -36q53 23 112.5 36t132.5 13q63 0 140 -9t145 -26l-209 -1427h-72l201 1370q-55 8 -107.5 12t-105.5 4q-141 0 -232 -52t-108 -156l-20 -134h246l-11 -75h-245 l-142 -969h-74l142 969h-525l-141 -969h-74zM330 1044h524l20 134q18 115 99 182q-63 14 -143 20t-140 6q-141 0 -232 -52t-108 -156z" />
</font>
</defs>
</svg>
