<?xml version="1.0" standalone="no"?>
<!DOCTYPE svg PUBLIC "-//W3C//DTD SVG 1.1//EN" "http://www.w3.org/Graphics/SVG/1.1/DTD/svg11.dtd" >
<svg xmlns="http://www.w3.org/2000/svg">
<metadata></metadata>
<defs>
<font id="bose_gothicthin_oblique" horiz-adv-x="1277" >
<font-face units-per-em="2048" ascent="1536" descent="-512" />
<missing-glyph horiz-adv-x="446" />
<glyph unicode="&#xdf;" horiz-adv-x="1269" d="M109 0l167 1145q24 159 148.5 266t296.5 107q71 0 134.5 -16.5t116.5 -50t84 -91.5t31 -133q0 -30 -4 -58q-77 -66 -115.5 -103t-72 -82.5t-44.5 -89t-11 -103.5q0 -43 18 -82t37 -60.5t57 -58.5q29 -28 47 -48.5t39.5 -53t32 -71.5t10.5 -85q0 -106 -59 -186.5 t-154.5 -121t-210.5 -40.5q-119 0 -205 48.5t-110 133.5l74 29q55 -136 262 -136q83 0 156.5 28t124.5 89.5t51 145.5q0 26 -4 49.5t-14 44t-17.5 35t-25 33t-25.5 26.5t-30 27.5t-28 25.5q-100 89 -100 213t52.5 217.5t185.5 190.5q4 28 4 43q0 57 -25.5 100t-68.5 67 t-94 36t-109 12q-142 0 -243.5 -85.5t-119.5 -211.5l-168 -1145h-71z" />
<glyph unicode="&#xfb01;" horiz-adv-x="1120" d="M104 0l142 969h-142l11 75h141l20 134q20 136 136 210t284 74q164 0 308 -39l-27 -65q-153 28 -289 28q-143 0 -233 -53t-105 -155l-20 -134h245l-10 -75h-246l-141 -969h-74zM702 0l152 1044h72l-152 -1044h-72z" />
<glyph unicode="&#xfb02;" horiz-adv-x="1110" d="M104 0l142 969h-142l11 75h141l20 134q20 136 135 210t283 74q152 0 289 -35l-209 -1427h-72l201 1370q-128 16 -217 16q-143 0 -232 -53t-104 -155l-20 -134h245l-10 -75h-246l-141 -969h-74z" />
<glyph horiz-adv-x="0" />
<glyph horiz-adv-x="682" />
<glyph unicode="&#xd;" horiz-adv-x="446" />
<glyph unicode=" "  horiz-adv-x="446" />
<glyph unicode="&#x09;" horiz-adv-x="446" />
<glyph unicode="&#xa0;" horiz-adv-x="446" />
<glyph unicode="!" horiz-adv-x="507" d="M86 0l25 174h155l-24 -174h-156zM197 481l133 912h71l-133 -912h-71z" />
<glyph unicode="&#x22;" horiz-adv-x="598" d="M172 940l66 453h73l-65 -453h-74zM399 940l66 453h74l-66 -453h-74z" />
<glyph unicode="#" horiz-adv-x="1529" d="M96 367l13 75h356l131 406h-383l12 76h398l131 407h73l-131 -407h320l133 407h74l-131 -407h303l-13 -76h-317l-129 -406h340l-12 -75h-351l-116 -367h-76l115 367h-320l-119 -367h-73l114 367h-342zM541 442h321l127 406h-317z" />
<glyph unicode="$" horiz-adv-x="1171" d="M53 223l66 41q50 -103 153 -155t238 -52q171 0 281 84.5t110 239.5q0 109 -73 172t-246 119q-176 57 -269.5 140t-93.5 214q0 187 132 287t347 100q26 0 62 -4l57 195l74 -11l-57 -194q176 -42 266 -182l-64 -48q-48 77 -138.5 122.5t-213.5 45.5q-109 0 -196 -32.5 t-141 -102.5t-54 -168q0 -58 23 -103.5t71 -80.5t105.5 -61t142.5 -54q177 -58 258.5 -136t81.5 -208q0 -192 -134.5 -300.5t-342.5 -108.5q-30 0 -84 4l-72 -240l-72 10l70 244q-210 54 -287 223z" />
<glyph unicode="%" horiz-adv-x="1490" d="M172 0l1030 1393h92l-1028 -1393h-94zM213 985l33 223q12 85 92 145t180 60q99 0 160 -60t49 -145l-33 -223q-12 -86 -91 -146.5t-179 -60.5t-161.5 60.5t-49.5 146.5zM287 985q-7 -54 37 -92.5t112 -38.5q69 0 124.5 38.5t62.5 92.5l32 223q7 55 -36 92t-113 37 q-68 0 -124 -38t-63 -91zM739 186l33 224q12 85 92 144.5t180 59.5t160.5 -59.5t48.5 -144.5l-32 -224q-12 -86 -90.5 -146t-178.5 -60t-162.5 60t-50.5 146zM811 186q-7 -54 38 -92.5t114 -38.5q68 0 122.5 38.5t61.5 92.5l33 224q7 55 -36.5 92t-111.5 37 q-70 0 -125.5 -37.5t-62.5 -91.5z" />
<glyph unicode="&#x26;" horiz-adv-x="1454" d="M72 258q0 37 9 74t22 67.5t38.5 64t45.5 58t57 56t60 50t66.5 49t65 44.5t66.5 43l35 22l-183 240l23 160q15 98 105.5 163.5t209.5 65.5q133 0 205 -56.5t72 -156.5q0 -30 -7 -59.5t-15 -53.5t-28 -52.5t-32.5 -46.5t-43 -46.5t-44 -41.5t-51.5 -42.5t-50.5 -39 t-54.5 -40.5l338 -434l231 221l52 -49l-240 -229l209 -266l-66 -54l-202 264q-281 -253 -545 -253q-166 0 -257 71t-91 207zM147 272q0 -42 13.5 -78t44 -68.5t88 -51.5t137.5 -19q231 0 492 234l-344 446l-46 -30q-26 -19 -74.5 -53t-78 -55.5t-70.5 -54.5t-65.5 -60.5 t-49 -62t-36 -71.5t-11.5 -76zM434 1049l166 -218q53 36 91 64.5t79 65.5t65.5 70.5t41 74t16.5 82.5q0 73 -53.5 112t-159.5 39q-98 0 -157.5 -46t-69.5 -113z" />
<glyph unicode="'" horiz-adv-x="446" d="M219 999l68 455h71l-67 -455h-72z" />
<glyph unicode="(" horiz-adv-x="655" d="M123 170l110 756q31 209 126 375.5t229 242.5l30 -61q-117 -66 -200.5 -211.5t-112.5 -345.5l-110 -756q-30 -202 11.5 -342.5t139.5 -210.5l-49 -66q-113 76 -159 243t-15 376z" />
<glyph unicode=")" horiz-adv-x="653" d="M-31 -379q118 70 201.5 216.5t114.5 357.5l102 710q30 201 -10 353t-137 217l51 69q112 -75 156.5 -251t13.5 -388l-103 -710q-31 -212 -127.5 -388t-230.5 -251z" />
<glyph unicode="*" horiz-adv-x="802" d="M195 1208l32 72l201 -68l33 222h74l-33 -222l219 68l12 -72l-219 -67l102 -180l-65 -46l-102 181l-158 -181l-53 46l155 180z" />
<glyph unicode="+" horiz-adv-x="1193" d="M94 748l12 75h461l64 447h71l-63 -447h463l-12 -75h-463l-70 -482h-72l70 482h-461z" />
<glyph unicode="," horiz-adv-x="342" d="M-63 -203q43 55 63.5 104t32.5 134l16 108h80l-8 -53q-19 -131 -49.5 -197.5t-91.5 -130.5z" />
<glyph unicode="-" horiz-adv-x="718" d="M86 532l10 76h475l-10 -76h-475z" />
<glyph unicode="." horiz-adv-x="487" d="M68 0l24 172h154l-25 -172h-153z" />
<glyph unicode="/" horiz-adv-x="761" d="M-66 -174l773 1567h84l-773 -1567h-84z" />
<glyph unicode="0" horiz-adv-x="1310" d="M135 406l84 579q15 102 64.5 184t122 135t161 81t183.5 28t174.5 -28t135.5 -81t81 -135t10 -184l-84 -579q-20 -136 -98 -234t-188 -145t-240 -47t-227.5 47t-148 145t-30.5 234zM207 406q-13 -87 8.5 -155t70.5 -110t116.5 -64t148.5 -22q170 0 294.5 90t149.5 261 l84 579q25 170 -73.5 261t-268.5 91q-169 0 -295 -91.5t-151 -260.5z" />
<glyph unicode="1" horiz-adv-x="546" d="M113 0l192 1317h-149l10 76h223l-203 -1393h-73z" />
<glyph unicode="2" horiz-adv-x="1116" d="M41 0l6 37q34 231 138 373t327 260q176 95 238 140q147 106 170 235q4 26 4 53q0 106 -77 162.5t-204 56.5q-104 0 -210 -47t-173 -111l-39 58q88 77 203 126.5t227 49.5q149 0 248.5 -73t99.5 -212q0 -53 -14.5 -101.5t-35 -86t-58.5 -76t-69.5 -65t-84 -59t-86 -51 t-90.5 -48.5q-196 -101 -302.5 -230t-133.5 -315h756l-11 -76h-829z" />
<glyph unicode="3" horiz-adv-x="1189" d="M78 283h74q-14 -101 84.5 -163.5t242.5 -62.5q85 0 167 24t147 80.5t77 133.5l21 137q9 61 -16.5 112t-71.5 82t-101 47.5t-108 16.5h-182l12 76h182q75 0 150 26.5t134 82.5t68 129l13 81q19 128 -68 190t-239 62q-77 0 -156.5 -26t-142.5 -81t-72 -126h-74 q13 90 88 163t173.5 109.5t195.5 36.5q117 0 204 -35t133.5 -110.5t30.5 -182.5l-12 -81q-14 -103 -98.5 -178.5t-188.5 -102.5q105 -31 171 -103t49 -188l-21 -137q-15 -98 -91.5 -171.5t-177 -107.5t-206.5 -34q-116 0 -209.5 36t-144 106t-37.5 159z" />
<glyph unicode="4" horiz-adv-x="1163" d="M16 360l11 76l815 957h94l-139 -957h250l-11 -76h-250l-53 -358h-74l54 358h-697zM117 436h606l123 836h-15z" />
<glyph unicode="5" horiz-adv-x="1196" d="M104 330h74q-18 -126 75.5 -200.5t248.5 -74.5q85 0 167 31.5t143.5 97t74.5 150.5l18 135q20 129 -55.5 202.5t-218.5 73.5h-395l157 648h651l-10 -76h-583l-123 -496h313q175 0 268.5 -95.5t69.5 -256.5l-18 -135q-16 -106 -89.5 -188.5t-173.5 -124t-206 -41.5 q-116 0 -208.5 39t-144 120.5t-35.5 190.5z" />
<glyph unicode="6" horiz-adv-x="1175" d="M104 348l105 719q23 157 158.5 251.5t320.5 94.5q104 0 193 -37t141 -98l-57 -61q-43 54 -122 87t-167 33q-156 0 -265.5 -72t-127.5 -198l-52 -354q73 76 173.5 116.5t203.5 40.5q82 0 153.5 -22.5t126.5 -65t81.5 -112t13.5 -156.5l-25 -166q-13 -90 -60 -162 t-114 -116t-145 -67t-160 -23q-83 0 -155 23t-127 67t-80.5 116t-12.5 162zM178 348q-11 -75 11 -133.5t68 -92t105 -50.5t127 -17q66 0 129.5 17t120 50.5t96 92t50.5 133.5l24 166q10 71 -12.5 126.5t-69 88.5t-105 49.5t-124.5 16.5q-89 0 -173.5 -33t-147 -99 t-74.5 -149z" />
<glyph unicode="7" horiz-adv-x="921" d="M115 1317l10 76h829l-10 -68l-637 -1325h-82l639 1317h-749z" />
<glyph unicode="8" horiz-adv-x="1261" d="M133 309l19 123q14 99 91.5 176t188.5 117q-88 39 -134.5 114t-33.5 167l10 79q16 105 86.5 181.5t165 111.5t199.5 35q76 0 143 -21t118 -60.5t75 -103.5t12 -143l-10 -79q-13 -91 -82 -166t-166 -115q96 -41 151.5 -118.5t41.5 -174.5l-19 -123q-12 -83 -58 -148 t-113.5 -103.5t-144.5 -58t-157 -19.5q-82 0 -154 19.5t-128.5 58t-84.5 103.5t-16 148zM207 309q-8 -54 7 -98t45.5 -72.5t74.5 -48t91.5 -27.5t100.5 -8q66 0 128 14t118 42t94.5 79.5t48.5 118.5l19 123q16 112 -75.5 182t-217.5 70h-45q-82 0 -161.5 -29t-139 -88.5 t-70.5 -134.5zM336 1006q-16 -108 66 -173.5t204 -72.5h45q77 4 149 33t126 85t65 128l10 79q10 64 -11 114t-64 79t-97 44t-116 15t-121.5 -15t-111.5 -44t-88 -79t-46 -114z" />
<glyph unicode="9" horiz-adv-x="1191" d="M129 121l47 51q40 -33 72.5 -54t101 -42t148.5 -21q67 0 129 16t118 47.5t94.5 86.5t49.5 127l45 311q-76 -77 -173.5 -116.5t-199.5 -39.5q-83 0 -155.5 22t-128 64t-82 112t-13.5 157l31 217q24 156 168 255t315 99q79 0 151.5 -25t125.5 -70t79.5 -112.5t14.5 -146.5 l-104 -727q-13 -87 -59 -156t-113 -110.5t-145 -63.5t-159 -22q-102 0 -202.5 38t-155.5 103zM256 842q-10 -72 12.5 -127t69.5 -87.5t106 -48.5t127 -16q87 0 170.5 32t146 97.5t75.5 149.5l30 217q13 83 -30 148t-117.5 97.5t-161.5 32.5q-89 0 -173.5 -32t-147.5 -97 t-76 -149z" />
<glyph unicode=":" horiz-adv-x="575" d="M125 0l29 197h139l-29 -197h-139zM252 872l29 193h139l-29 -193h-139z" />
<glyph unicode=";" horiz-adv-x="620" d="M102 -203q44 54 64.5 103.5t32.5 134.5l16 108h80l-8 -53q-19 -132 -49.5 -198.5t-90.5 -129.5zM295 866l29 199h137l-29 -199h-137z" />
<glyph unicode="&#x3c;" d="M100 489l992 535l28 -63l-866 -469l776 -451l-49 -68z" />
<glyph unicode="=" horiz-adv-x="1388" d="M96 453l13 75h1101l-12 -75h-1102zM162 903l12 76h1102l-12 -76h-1102z" />
<glyph unicode="&#x3e;" horiz-adv-x="1218" d="M35 41l858 451l-682 469l51 63l774 -535l-975 -516z" />
<glyph unicode="?" horiz-adv-x="870" d="M158 1278q169 135 354 135q161 0 239 -74.5t56 -214.5l-14 -100q-4 -29 -18.5 -57t-26.5 -46t-44.5 -46t-43.5 -37t-55 -40.5t-50 -35.5q-84 -53 -133.5 -107.5t-59.5 -124.5l-20 -143h-76l23 164q11 73 67.5 133.5t147.5 120.5q16 12 54.5 39t59 43.5t47 41t40.5 50 t18 53.5l12 92q9 58 -7.5 101t-52 66.5t-79.5 34.5t-96 11q-82 0 -166.5 -34t-145.5 -84zM170 0l25 174h155l-24 -174h-156z" />
<glyph unicode="@" horiz-adv-x="1693" d="M106 467q0 26 3 54.5t11 65t14 60t19 74t19 72.5q34 129 107.5 243t175 199t232.5 134.5t271 49.5q265 0 429.5 -143t164.5 -365q0 -80 -8 -151t-33 -151.5t-65.5 -137.5t-113.5 -95t-169 -38q-64 0 -108.5 32.5t-63.5 88.5q-63 -69 -149.5 -109.5t-179.5 -40.5 q-109 0 -161 53t-52 134q0 69 73 280q48 136 165 231t255 95q107 0 165 -48t58 -132q0 -10 -1.5 -21t-5 -25.5t-6 -24.5t-9 -29t-9 -27.5t-11 -32.5t-11.5 -31q-6 -20 -18.5 -56t-19 -56t-12 -43t-5.5 -37q0 -51 32.5 -88t84.5 -37q153 0 229 129.5t76 363.5 q0 192 -146.5 314t-384.5 122q-167 0 -316 -76t-248.5 -201.5t-137.5 -277.5q-4 -14 -18.5 -69t-19 -72.5t-13 -55t-11 -62t-2.5 -48.5q0 -183 164 -306.5t410 -123.5q174 0 329 82l31 -65q-178 -93 -373 -93q-179 0 -325 64t-229 177t-83 251zM524 514q0 -63 38.5 -96 t109.5 -33q109 0 203 65t126 164q5 12 20 50.5t21 55.5t17.5 50t16.5 53t9.5 45t4.5 45q0 113 -158 113q-108 0 -205 -77.5t-133 -186.5q-70 -207 -70 -248z" />
<glyph unicode="A" d="M-18 0l720 1413h70l297 -1413h-80l-98 496h-582l-246 -496h-81zM348 571h529l-158 721z" />
<glyph unicode="B" horiz-adv-x="1257" d="M111 0l202 1393h443q170 1 263 -85q73 -67 74 -183q0 -31 -6 -66l-8 -58q-13 -99 -81 -173t-162 -103q112 -37 169 -117q43 -61 43 -145q0 -26 -4 -55l-12 -80q-15 -107 -76.5 -182.5t-151 -110.5t-200.5 -35h-493zM195 76h419q134 0 230 63.5t114 186.5l13 80q4 26 4 49 q0 97 -67 155q-83 72 -234 72h-389zM295 758h381q131 0 222 63.5t108 179.5l8 58q5 31 5 57q-1 92 -57 140q-72 61 -217 61h-368z" />
<glyph unicode="C" horiz-adv-x="1193" d="M111 426l79 543q29 197 186.5 320.5t364.5 123.5q287 0 406 -168l-62 -57q-52 70 -145.5 109.5t-210.5 39.5q-114 0 -214 -44.5t-168.5 -129t-84.5 -194.5l-80 -543q-5 -36 -5 -68q0 -130 80 -207q100 -96 288 -96q242 0 399 117l37 -57q-171 -135 -446 -135 q-219 0 -337 117q-94 93 -93 247q0 39 6 82z" />
<glyph unicode="D" horiz-adv-x="1339" d="M111 0l202 1393h418q80 0 152.5 -19t131.5 -57.5t99.5 -91.5t57.5 -126q10 -41 9 -86q0 -34 -5 -71l-72 -498q-22 -145 -109 -247.5t-207.5 -149.5t-261.5 -47h-415zM193 76h344q121 0 223.5 37.5t177.5 122.5t94 208l72 498q4 29 4 55q0 81 -38 147q-52 88 -144 130.5 t-205 42.5h-346z" />
<glyph unicode="E" horiz-adv-x="1122" d="M106 0l203 1393h713l-10 -76h-639l-82 -565h545l-13 -76h-544l-89 -600h691l-11 -76h-764z" />
<glyph unicode="F" horiz-adv-x="1005" d="M106 0l203 1393h709l-10 -76h-635l-80 -543h545l-11 -76h-542l-103 -698h-76z" />
<glyph unicode="G" horiz-adv-x="1298" d="M113 422l80 551q20 133 101 234.5t198 153.5t251 52q142 0 249 -41.5t167 -107.5l-53 -60q-57 59 -153.5 96t-221.5 37q-111 0 -209.5 -42.5t-168.5 -126.5t-87 -195l-80 -551q-4 -27 -4 -53q0 -119 86 -207q105 -107 279 -107q247 0 414 117l65 446h-403l10 76h477 l-82 -563q-101 -69 -214 -110t-277 -41q-206 0 -328 129q-101 106 -101 250q0 31 5 63z" />
<glyph unicode="H" horiz-adv-x="1443" d="M111 0l202 1393h74l-100 -684h848l100 684h74l-203 -1393h-74l92 633h-848l-92 -633h-73z" />
<glyph unicode="I" horiz-adv-x="577" d="M137 0l203 1393h72l-203 -1393h-72z" />
<glyph unicode="J" horiz-adv-x="1110" d="M12 317h72q-3 -20 -3 -38q0 -90 74 -151q89 -73 224 -73q151 0 253 73.5t122 207.5l153 1057h72l-154 -1057q-24 -166 -149 -261t-307 -95q-108 0 -194.5 40.5t-132.5 119.5q-34 59 -34 129q0 23 4 48z" />
<glyph unicode="K" horiz-adv-x="1253" d="M111 0l202 1393h74l-108 -748l825 748h104l-731 -650l606 -743h-108l-557 684l-154 -133l-80 -551h-73z" />
<glyph unicode="L" horiz-adv-x="1075" d="M109 0l202 1393h72l-193 -1317h744l-10 -76h-815z" />
<glyph unicode="M" horiz-adv-x="1677" d="M115 0l202 1393h86l396 -883l651 883h88l-203 -1393h-73l184 1270l-641 -875h-45l-387 869l-185 -1264h-73z" />
<glyph unicode="N" horiz-adv-x="1445" d="M113 0l202 1393h97l639 -1278l186 1278h74l-203 -1393h-92l-641 1286l-189 -1286h-73z" />
<glyph unicode="O" horiz-adv-x="1333" d="M121 422l80 547q29 200 179.5 322t358.5 122h35q217 1 337 -121q97 -98 97 -248q0 -36 -6 -75l-80 -547q-30 -205 -182.5 -323.5t-374.5 -118.5h-33q-215 0 -328 118q-89 93 -89 241q0 40 6 83zM195 422q-6 -38 -5 -72q0 -124 74 -199q95 -96 279 -96h32q192 0 320 96 t154 271l79 547q5 33 5 63q-1 124 -83 204q-102 100 -288 101h-35q-177 0 -303 -100.5t-150 -267.5z" />
<glyph unicode="P" horiz-adv-x="1220" d="M109 0l202 1393h459q202 0 299 -103q77 -82 77 -208q0 -33 -5 -68l-13 -86q-26 -174 -146 -262t-327 -88h-389l-84 -578h-73zM279 653h385q352 0 391 275l12 86q4 29 4 55q0 99 -63 165q-80 82 -248 83h-385z" />
<glyph unicode="Q" horiz-adv-x="1333" d="M121 422l80 547q29 200 179.5 322t358.5 122h35q217 0 337 -121q97 -98 97 -248q0 -36 -6 -75l-80 -547q-30 -219 -198 -336l118 -180l-63 -45l-123 184q-124 -65 -291 -65h-33q-215 0 -328 118q-89 93 -89 241q0 40 6 83zM195 422q-6 -38 -6 -72q0 -124 75 -199 q95 -96 279 -96h32q138 0 242 49l-106 170l63 45l113 -174q135 96 162 277l79 547q5 33 5 63q0 124 -83 204q-102 101 -288 101h-35q-177 0 -303 -100.5t-150 -267.5z" />
<glyph unicode="R" horiz-adv-x="1208" d="M113 0l202 1393h492q173 0 259 -94q68 -75 69 -186q0 -29 -5 -60l-12 -86q-20 -133 -110 -213.5t-234 -104.5l238 -649h-84l-232 635h-417l-93 -635h-73zM291 711h434q124 6 212.5 71.5t106.5 184.5l13 86q4 23 4 45q0 86 -57 145q-71 74 -211 74h-414z" />
<glyph unicode="S" horiz-adv-x="1171" d="M53 223l66 41q50 -103 153 -155t238 -52q171 0 281 84.5t110 239.5q0 109 -73 172t-246 119q-176 57 -269.5 140t-93.5 214q0 187 132 287t347 100q141 0 242.5 -52t159.5 -144l-64 -48q-48 77 -138.5 122.5t-213.5 45.5q-109 0 -196 -32.5t-141 -102.5t-54 -168 q0 -58 23 -103.5t71 -80.5t105.5 -61t142.5 -54q177 -58 258.5 -136t81.5 -208q0 -192 -134.5 -300.5t-342.5 -108.5q-152 0 -271.5 62t-173.5 179z" />
<glyph unicode="T" horiz-adv-x="1165" d="M141 1317l11 76h1042l-10 -76h-492l-192 -1317h-74l192 1317h-477z" />
<glyph unicode="U" horiz-adv-x="1413" d="M156 342q0 36 6 80l141 971h74l-141 -971q-5 -29 -5 -64q0 -148 104 -225.5t267 -77.5q112 0 212 42t171 127t88 198l141 971h74l-141 -971q-21 -143 -101.5 -244.5t-196.5 -149.5t-257 -48q-197 0 -316.5 91.5t-119.5 270.5z" />
<glyph unicode="V" horiz-adv-x="1163" d="M172 1393h82l227 -1272l609 1272h81l-671 -1393h-72z" />
<glyph unicode="W" horiz-adv-x="1818" d="M223 1393h78l96 -1284l566 1284h71l187 -1284l477 1284h78l-523 -1393h-98l-174 1264l-555 -1264h-94z" />
<glyph unicode="X" horiz-adv-x="1132" d="M-10 0l526 702l-299 691h92l264 -625l457 625h90l-514 -691l312 -702h-91l-274 637l-471 -637h-92z" />
<glyph unicode="Y" horiz-adv-x="1150" d="M193 1393h88l272 -742l498 742h88l-564 -826l-81 -567h-72l82 567z" />
<glyph unicode="Z" horiz-adv-x="1169" d="M20 0l9 53l966 1264h-747l10 76h840l-8 -60l-961 -1257h805l-10 -76h-904z" />
<glyph unicode="[" horiz-adv-x="573" d="M41 -346l254 1739h237l-10 -76h-157l-232 -1587h150l-13 -76h-229z" />
<glyph unicode="\" horiz-adv-x="811" d="M184 1393h82l336 -1393h-82z" />
<glyph unicode="]" horiz-adv-x="569" d="M-29 -326l11 76h149l229 1567h-151l10 76h234l-250 -1719h-232z" />
<glyph unicode="^" horiz-adv-x="813" d="M158 938l348 479l196 -479h-86l-135 328l-235 -328h-88z" />
<glyph unicode="_" horiz-adv-x="1089" d="M8 -127l10 78h809l-10 -78h-809z" />
<glyph unicode="`" horiz-adv-x="495" d="M219 1370l86 64l135 -293l-65 -43z" />
<glyph unicode="a" horiz-adv-x="1067" d="M55 205q0 20 8 80q45 295 728 325l20 131q6 34 6 68q0 90 -51 136t-164 46q-82 0 -193.5 -29t-162.5 -59l-17 66q61 36 175.5 67t207.5 31q143 0 212 -66.5t69 -183.5q0 -37 -6 -80l-109 -737h-73l24 170q-22 -29 -54 -57.5t-82 -59.5t-121.5 -50t-152.5 -19 q-125 0 -194.5 56.5t-69.5 164.5zM131 211q0 -76 52.5 -114t148.5 -38q156 0 280 78t138 174l32 224q-83 -3 -152 -9.5t-142.5 -18t-130 -30.5t-104.5 -45t-77 -64.5t-37 -86.5q-8 -52 -8 -70z" />
<glyph unicode="b" horiz-adv-x="1153" d="M74 0l207 1413h73l-75 -510q63 81 164.5 121.5t211.5 40.5q176 0 271 -101q75 -79 75 -201q0 -33 -6 -69l-49 -342q-26 -173 -148.5 -272.5t-299.5 -99.5q-112 0 -200.5 41.5t-127.5 128.5l-23 -150h-73zM193 328q-3 -21 -3 -40q0 -43 15 -79q22 -53 68 -86t106 -50.5 t129 -17.5q145 0 244.5 79t119.5 218l50 342q4 27 4 52q0 98 -62 162q-78 80 -221 81q-95 0 -177.5 -28t-142.5 -91t-73 -151z" />
<glyph unicode="c" horiz-adv-x="950" d="M74 336l53 369q24 160 149.5 260t290.5 100q103 0 174 -35.5t125 -105.5l-55 -52q-91 117 -256 117q-133 0 -233.5 -78t-120.5 -206l-54 -369q-3 -23 -4 -44q0 -62 29 -111q38 -66 104 -97t146 -31h9q157 0 286 99l33 -58q-76 -61 -156 -87.5t-182 -26.5 q-76 0 -142.5 23.5t-115 67t-70.5 111.5q-14 43 -15 94q0 29 5 60z" />
<glyph unicode="d" horiz-adv-x="1153" d="M84 352l49 342q26 170 151 270.5t300 100.5q110 0 199 -40.5t128 -121.5l76 510h74l-207 -1413h-74l23 150q-65 -87 -165.5 -128.5t-211.5 -41.5q-178 0 -273 100q-75 79 -75 201q0 34 6 71zM158 352q-4 -29 -5 -55q-1 -100 61 -163q76 -79 222 -79q93 0 175.5 29.5 t143.5 93t74 150.5l58 391q3 21 3 40q0 43 -15 79q-22 52 -67.5 85t-105.5 49.5t-131 16.5q-142 0 -243 -80t-121 -215z" />
<glyph unicode="e" horiz-adv-x="1054" d="M72 289q0 15 4 51l55 381q14 93 82.5 172.5t168 125.5t202.5 46q146 0 245 -85.5t99 -213.5q0 -16 -6 -59l-25 -172h-721l-29 -195q-2 -16 -2 -39q0 -115 90 -177.5t222 -62.5q199 0 325 89l29 -58q-142 -106 -365 -106q-156 0 -265 80t-109 223zM186 610h648l14 97 q4 28 4 51q0 102 -80 166.5t-201 64.5q-132 0 -241.5 -77.5t-126.5 -188.5z" />
<glyph unicode="f" horiz-adv-x="593" d="M104 0l142 969h-142l11 75h141l20 138q20 132 117.5 206t231.5 74q101 0 186 -37l-27 -65q-82 26 -168 26q-110 0 -180.5 -52.5t-85.5 -151.5l-20 -138h245l-10 -75h-246l-141 -969h-74z" />
<glyph unicode="g" horiz-adv-x="1140" d="M-2 -229q0 109 69.5 181t178.5 95q-103 51 -103 148q0 62 40.5 115.5t95.5 76.5q-113 70 -113 210q0 28 4 58l10 74q15 104 81 181.5t159 116t198 38.5q130 0 216 -53l266 71l10 -73l-207 -54q62 -70 62 -167q0 -26 -4 -54l-11 -80q-24 -157 -144 -242t-282 -85 q-104 0 -178 26q-56 -16 -92.5 -54t-36.5 -93q0 -50 43.5 -80t104.5 -43l532 -96l-27 -178q-10 -69 -51.5 -123t-103.5 -84.5t-131.5 -46t-143.5 -15.5h-80q-74 0 -136.5 12t-114.5 38t-81.5 72t-29.5 108zM70 -217q0 -62 47.5 -101t111 -52t144.5 -13h94q279 0 330 190 l18 125l-446 76q-55 -2 -104.5 -13.5t-95 -36t-72.5 -69.5t-27 -106zM244 655q-3 -22 -3 -41q0 -88 61 -144q76 -67 228 -67q137 0 232.5 61t114.5 191l10 80q1 13 1 26q0 104 -72 163q-82 65 -210 65q-83 0 -157 -27t-128.5 -86.5t-66.5 -140.5z" />
<glyph unicode="h" horiz-adv-x="1206" d="M88 0l207 1413h74l-84 -573q78 107 187 166t237 59q166 -1 249 -95q65 -74 65 -191q0 -32 -5 -68l-105 -711h-73l104 711q4 29 4 55q0 92 -52 150q-67 74 -200 73q-94 0 -190 -43t-165 -118t-81 -160l-98 -668h-74z" />
<glyph unicode="i" horiz-adv-x="512" d="M109 0l151 1044h72l-152 -1044h-71zM285 1296l18 117h92l-18 -117h-92z" />
<glyph unicode="j" horiz-adv-x="542" d="M-227 -340q194 54 274.5 144t108.5 286l139 954h74l-140 -956q-32 -218 -131 -329t-307 -167zM322 1296l18 117h82l-19 -117h-81z" />
<glyph unicode="k" horiz-adv-x="960" d="M86 0l207 1413h74l-119 -809h84l518 440h94l-541 -466l431 -578h-95l-395 528h-106l-78 -528h-74z" />
<glyph unicode="l" horiz-adv-x="512" d="M106 0l207 1413h72l-207 -1413h-72z" />
<glyph unicode="m" horiz-adv-x="1837" d="M100 0l152 1044h74l-27 -190q71 96 169.5 153.5t209.5 57.5q247 0 285 -195q80 103 174.5 149t228.5 46q150 -1 222 -91q55 -69 55 -174q0 -32 -5 -67l-106 -733h-74l107 733q3 23 3 44q0 81 -46 139q-58 73 -168 73q-155 0 -268.5 -78t-133.5 -213l-102 -698h-72 l111 754q3 21 3 40q0 79 -50 131q-62 64 -176 64q-126 0 -250.5 -97t-143.5 -214l-98 -678h-74z" />
<glyph unicode="n" horiz-adv-x="1208" d="M88 0l152 1044h75l-30 -215q78 110 189 173t235 63q167 1 251 -93q64 -72 64 -186q0 -34 -6 -71l-105 -715h-73l104 715q4 28 4 54q0 91 -52 147q-67 72 -200 73q-88 0 -184 -42.5t-167 -118.5t-83 -160l-98 -668h-76z" />
<glyph unicode="o" horiz-adv-x="1103" d="M76 342l55 369q15 103 86.5 185.5t171.5 125.5t205 43q166 0 274 -100q90 -83 90 -204q0 -24 -4 -50l-55 -369q-23 -156 -160 -257t-303 -101t-274 101q-90 84 -90 206q0 25 4 51zM150 342q-3 -21 -3 -40q0 -98 75 -164q90 -79 224 -79t247.5 79t131.5 204l56 369 q3 19 3 37q0 60 -32 110q-40 64 -112 97.5t-158 33.5q-133 0 -246 -78t-131 -200z" />
<glyph unicode="p" horiz-adv-x="1144" d="M4 -410l211 1454h74l-21 -151q64 87 165 129.5t212 42.5q177 0 271 -101q75 -79 75 -203q0 -34 -6 -71l-49 -342q-26 -170 -149.5 -269t-299.5 -99q-111 0 -200.5 39.5t-128.5 119.5l-80 -549h-74zM182 324q-3 -22 -3 -42q0 -100 77 -158q93 -69 242 -69q142 0 243 79.5 t121 213.5l49 342q5 30 5 57q0 99 -61 162q-77 80 -222 80t-259.5 -72.5t-133.5 -201.5z" />
<glyph unicode="q" horiz-adv-x="1144" d="M84 348l49 342q26 173 150 274t301 101q111 0 199.5 -41t127.5 -127l21 147h74l-211 -1454h-74l80 549q-62 -80 -163 -119.5t-212 -39.5q-176 0 -272 100q-76 78 -76 199q0 33 6 69zM158 348q-4 -27 -4 -52q0 -98 62 -162q78 -79 220 -79q96 0 178 28t142 90.5t73 150.5 l58 391q3 20 3 39q0 63 -33 112q-43 64 -118 93.5t-168 29.5q-144 0 -243.5 -80t-120.5 -219z" />
<glyph unicode="r" horiz-adv-x="716" d="M92 0l152 1044h75l-28 -208q45 96 127.5 162.5t181.5 66.5q62 0 115 -12l-23 -80q-48 10 -108 10q-63 0 -121 -35t-99.5 -90t-69.5 -121t-38 -131l-88 -606h-76z" />
<glyph unicode="s" horiz-adv-x="958" d="M12 117l56 61q54 -60 143.5 -91.5t179.5 -31.5q141 0 226 57t85 177q0 74 -58.5 119.5t-197.5 80.5q-155 36 -225.5 98t-70.5 158q0 84 32 147.5t88 100t124 54.5t147 18q86 0 172 -26.5t147 -67.5l-45 -66q-137 84 -287 84q-303 0 -303 -233q0 -76 60 -120t200 -75 q156 -40 224.5 -103t68.5 -155q0 -86 -32 -150t-88.5 -100.5t-126 -54.5t-152.5 -18q-97 0 -198.5 35.5t-168.5 101.5z" />
<glyph unicode="t" horiz-adv-x="780" d="M111 969l10 75h160l43 287h73l-43 -287h330l-10 -75h-330l-106 -736q-3 -19 -3 -36q0 -127 156 -127q114 0 221 39l19 -66q-2 -1 -23.5 -8.5t-29 -9.5t-29 -8.5t-36 -9t-37 -6.5t-45 -5.5t-46.5 -1.5q-123 0 -181 62q-44 48 -44 131q0 24 4 51l106 731h-159z" />
<glyph unicode="u" horiz-adv-x="1187" d="M129 279q0 19 4 59l103 706h71l-102 -706q-4 -32 -4 -47q0 -112 81 -174t216 -62q149 0 251.5 75t122.5 208l103 706h72l-103 -706q-24 -165 -151 -261.5t-306 -96.5q-163 0 -260.5 80t-97.5 219z" />
<glyph unicode="v" horiz-adv-x="1046" d="M113 1044h82l233 -931l502 931h82l-568 -1044h-67z" />
<glyph unicode="w" horiz-adv-x="1490" d="M133 1044h78l111 -923l426 923h67l166 -923l375 923h78l-435 -1046h-73l-160 911l-426 -911h-76z" />
<glyph unicode="x" horiz-adv-x="964" d="M-43 0l446 532l-274 512h90l240 -446l364 446h95l-424 -512l288 -532h-90l-254 467l-391 -467h-90z" />
<glyph unicode="y" horiz-adv-x="976" d="M-29 -436l11 76q188 0 307 247l33 66l-218 1091h82l189 -983l481 983h82l-569 -1155q-79 -158 -172 -241.5t-226 -83.5z" />
<glyph unicode="z" horiz-adv-x="1019" d="M12 0l8 61l766 918h-618l8 65h715l-6 -51l-762 -919h670l-11 -74h-770z" />
<glyph unicode="{" horiz-adv-x="630" d="M114.5 -6.5q0.5 53.5 16.5 115.5l98 387l-63 106l98 125l6 338q1 75 23 137.5t66 114.5t95.5 93.5t125.5 86.5l14 -74q-123 -74 -189 -156.5t-67 -197.5l-6 -364l-80 -99l53 -86l-108 -416q-29 -115 13 -201.5t140 -158.5l-37 -72q-49 37 -83 69.5t-62 73t-41 83 t-12.5 96z" />
<glyph unicode="|" horiz-adv-x="487" d="M51 -301l246 1694h72l-246 -1694h-72z" />
<glyph unicode="}" horiz-adv-x="634" d="M43 -256q61 40 103.5 76t78.5 79.5t54.5 94.5t19.5 110l14 416l74 86l-47 99l100 364q28 98 -8 181.5t-145 172.5l39 74q49 -40 81.5 -72t61.5 -73.5t41.5 -82t13 -92.5t-15.5 -112l-92 -338l61 -125l-96 -106l-12 -387q-5 -131 -75 -229.5t-235 -207.5z" />
<glyph unicode="~" horiz-adv-x="813" d="M193 1270q46 61 86.5 90t91.5 29q39 0 83 -25.5t87.5 -51t81.5 -26.5q42 5 79 68l64 -35q-31 -50 -74 -82.5t-92 -32.5q-39 0 -75.5 15.5t-59.5 34t-52.5 34t-56.5 15.5q-63 0 -102 -72z" />
<glyph unicode="&#xa1;" horiz-adv-x="507" d="M68 -348l157 956h74l-121 -956h-110zM248 915l20 132h125l-20 -132h-125z" />
<glyph unicode="&#xa2;" horiz-adv-x="923" d="M74 336l53 369q24 160 149.5 260t290.5 100h25l80 262l73 -10l-79 -262q113 -23 200 -131l-55 -52q-91 117 -256 117q-133 0 -233.5 -78t-120.5 -206l-54 -369q-13 -89 25 -155t104 -97t146 -31q163 -3 295 99l33 -58q-76 -61 -156 -87.5t-182 -26.5q-36 0 -66 6 l-78 -258l-75 10l79 262q-107 36 -162 122t-36 214z" />
<glyph unicode="&#xa3;" horiz-adv-x="1204" d="M84 0l10 76q88 0 150.5 24t99.5 72.5t56 107.5t28 142l12 199h-274l12 75h266l13 271q10 139 95 240t217 149.5t294 48.5l-10 -76q-141 0 -253.5 -37.5t-186 -118t-81.5 -194.5l-12 -283h434l-12 -75h-428l-10 -195q-6 -56 -15.5 -98.5t-28.5 -92t-53.5 -90t-84.5 -69.5 h643l-11 -76h-870z" />
<glyph unicode="&#xa5;" horiz-adv-x="1097" d="M43 328l12 75h408l22 164l-6 15h-399l12 75h359l-277 736h88l270 -736h7l493 736h88l-499 -736h340l-13 -75h-381l-10 -15l-22 -164h389l-13 -75h-389l-47 -328h-72l48 328h-408z" />
<glyph unicode="&#xa6;" horiz-adv-x="487" d="M51 -240l96 666h72l-96 -666h-72zM195 741l96 666h71l-96 -666h-71z" />
<glyph unicode="&#xa7;" horiz-adv-x="1142" d="M35 -254l74 29q22 -77 98 -123.5t180 -46.5q137 0 232.5 77.5t95.5 202.5q0 52 -22 100t-55 83.5t-84.5 70.5t-95 57.5t-102.5 49.5q-45 21 -71 35t-66.5 43t-63 57.5t-40 73t-17.5 96.5q0 59 22.5 112.5t57.5 90t74.5 60.5t75.5 30q-47 70 -47 178q0 183 117.5 286 t301.5 103q127 0 211 -55t111 -152l-74 -30q-21 76 -87.5 118.5t-170.5 42.5q-86 0 -162 -36.5t-124 -105t-48 -153.5q0 -41 12 -77.5t36 -66t50 -54t64 -47.5t67 -39t69 -36q15 -7 22 -11q44 -23 72.5 -39.5t67 -41t62.5 -48t46.5 -52t33.5 -62.5t11 -71q0 -26 -2.5 -50 t-16 -64.5t-36 -73.5t-68.5 -67t-109 -54q51 -68 51 -180q0 -114 -58.5 -201.5t-151.5 -131.5t-203 -44q-127 0 -219.5 60t-120.5 157zM172 557q0 -88 58.5 -142t193.5 -116q184 -86 260 -156q83 6 146 74t63 156q0 86 -57.5 141.5t-200.5 128.5q-161 73 -246 152 q-84 -6 -150.5 -77t-66.5 -161z" />
<glyph unicode="&#xa8;" horiz-adv-x="677" d="M188 1180l19 131h115l-19 -131h-115zM508 1180l18 131h115l-18 -131h-115z" />
<glyph unicode="&#xa9;" horiz-adv-x="1671" d="M129 623q0 161 67.5 310.5t177.5 257t257 172t301 64.5q168 0 305 -84.5t213 -227t76 -312.5q0 -128 -43.5 -251t-120.5 -221.5t-177 -173.5t-220 -116t-242 -41q-127 0 -238.5 49.5t-189 133.5t-122 198.5t-44.5 241.5zM203 633q0 -151 68 -278.5t191 -203t273 -75.5 q137 0 268 57.5t229 154t158 230t60 277.5q0 151 -67.5 278.5t-190 203t-272.5 75.5q-137 0 -268 -57.5t-230 -154t-159 -230t-60 -277.5zM459 649l14 96q21 137 143 238.5t275 101.5q91 0 165.5 -32.5t114.5 -96.5l-51 -59q-31 51 -99.5 82t-139.5 31q-121 0 -220 -80 t-114 -185l-15 -96q-17 -115 59 -189.5t202 -76.5q70 0 145.5 24.5t124.5 67.5l29 -63q-122 -105 -310 -105q-161 0 -252 99t-71 243z" />
<glyph unicode="&#xaa;" horiz-adv-x="708" d="M158 954l2 15q23 170 387 192l4 37q11 78 -19 107.5t-96 29.5q-65 0 -164 -51l-18 74q36 20 99 37.5t122 17.5q86 0 128.5 -46t29.5 -138l-64 -432h-65l10 71q-86 -75 -209 -75q-73 0 -116 37.5t-31 123.5zM231 954q-7 -44 19.5 -63t75.5 -19q60 0 121.5 29.5t68.5 75.5 l14 110q-282 -15 -297 -118z" />
<glyph unicode="&#xab;" horiz-adv-x="948" d="M74 356l364 369l41 -66l-291 -299l205 -294l-61 -66zM391 356l365 369l39 -66l-289 -299l203 -294l-60 -66z" />
<glyph unicode="&#xac;" horiz-adv-x="919" d="M106 596l13 76h651l-41 -281h-74l29 205h-578z" />
<glyph unicode="&#xad;" horiz-adv-x="718" d="M86 532l10 76h475l-10 -76h-475z" />
<glyph unicode="&#xae;" horiz-adv-x="1671" d="M129 623q0 161 67.5 310.5t177.5 257t257 172t301 64.5q168 0 305 -84.5t213 -227t76 -312.5q0 -128 -43.5 -251t-120.5 -221.5t-177 -173.5t-220 -116t-242 -41q-127 0 -238.5 49.5t-189 133.5t-122 198.5t-44.5 241.5zM203 633q0 -151 68 -278.5t191 -203t273 -75.5 q137 0 268 57.5t229 154t158 230t60 277.5q0 151 -67.5 278.5t-190 203t-272.5 75.5q-137 0 -268 -57.5t-230 -154t-159 -230t-60 -277.5zM528 313l117 799h307q93 0 149 -66t42 -155l-4 -31q-11 -79 -72.5 -136.5t-146.5 -66.5l153 -344h-96l-148 340h-172l-51 -340h-78z M666 729h223q61 0 115 38.5t61 94.5l4 27q8 61 -31 104t-104 43h-223z" />
<glyph unicode="&#xaf;" horiz-adv-x="985" d="M223 1303l10 75h693l-11 -75h-692z" />
<glyph unicode="&#xb0;" horiz-adv-x="770" d="M186 1147l9 57q12 86 96 147.5t188 61.5t168.5 -61.5t52.5 -147.5l-8 -57q-12 -86 -94.5 -146.5t-187.5 -60.5q-104 0 -170 60.5t-54 146.5zM260 1147q-7 -57 39 -94t121 -37t131 37.5t65 93.5l9 57q8 55 -38 94t-120 39q-75 0 -133 -39.5t-66 -93.5z" />
<glyph unicode="&#xb1;" horiz-adv-x="1116" d="M25 0l10 76h839l-10 -76h-839zM117 631l10 76h373l53 364h74l-54 -364h375l-10 -76h-375l-57 -391h-74l57 391h-372z" />
<glyph unicode="&#xb2;" horiz-adv-x="753" d="M100 664l13 75q7 54 33 99.5t68.5 79.5t84 57.5t98.5 48.5l49.5 19.5t46.5 20t46 23.5t37.5 26t32 32t18.5 37t8 45q0 110 -168 110q-130 0 -234 -110l-47 49q55 64 134.5 100.5t158.5 36.5q122 0 177 -48t55 -124q0 -43 -17.5 -81t-41 -64t-65.5 -52.5t-71.5 -41 t-77.5 -35.5q-53 -23 -90 -42.5t-74.5 -47.5t-59.5 -62.5t-28 -75.5h471l-12 -75h-545z" />
<glyph unicode="&#xb3;" horiz-adv-x="755" d="M125 848h74q-7 -59 47.5 -92t138.5 -33q54 0 97.5 11t75.5 38.5t38 69.5l4 32q9 55 -46.5 90t-131.5 35h-133l12 76h121q198 0 215 125l4 17q5 36 -7.5 60.5t-40 37t-58 17.5t-70.5 5q-80 0 -142 -36.5t-71 -98.5h-74q13 91 101.5 151t197.5 60q113 0 182.5 -48.5 t55.5 -147.5l-2 -15q-9 -58 -17.5 -104t-12 -62.5t-5.5 -42.5t-2 -71v-6v-11t-0.5 -12t-1 -12t-0.5 -7l-4 -32q-14 -96 -97.5 -145.5t-197.5 -49.5q-112 0 -187 57t-63 144z" />
<glyph unicode="&#xb4;" horiz-adv-x="489" d="M184 1147l226 274l59 -53l-229 -260z" />
<glyph unicode="&#xb6;" horiz-adv-x="1038" d="M174 1040l12 76q16 116 108.5 196t235.5 81h375l-203 -1393h-71l192 1325h-176l-192 -1325h-72l113 774h-56q-136 0 -210 71t-56 195z" />
<glyph unicode="&#xb7;" horiz-adv-x="385" d="M123 408l24 172h154l-25 -172h-153z" />
<glyph unicode="&#xb8;" horiz-adv-x="454" d="M-39 -440q58 16 110 54.5t52 92.5q0 30 -13.5 54t-32.5 37t-37.5 21.5t-31.5 11.5l-14 3l63 166h82l-51 -111q4 -2 11.5 -5.5t26.5 -17t33 -30t26 -45t12 -61.5q0 -85 -61.5 -144t-160.5 -84z" />
<glyph unicode="&#xb9;" horiz-adv-x="438" d="M166 1317l10 76h182l-102 -709h-72l92 633h-110z" />
<glyph unicode="&#xba;" horiz-adv-x="749" d="M164 1004l31 204q12 85 92 146t180 61q99 0 161 -61t50 -146l-31 -209q-12 -85 -90.5 -144.5t-179.5 -59.5q-100 0 -162.5 61t-50.5 148zM238 999q-1 -59 40 -94t109 -35q69 0 123 38.5t61 95.5l31 204q4 59 -38 95t-109 36q-70 0 -124 -36.5t-63 -94.5z" />
<glyph unicode="&#xbb;" horiz-adv-x="935" d="M8 66l287 294l-201 299l58 66l258 -369l-365 -356zM326 66l286 294l-200 299l59 66l254 -369l-360 -356z" />
<glyph unicode="&#xbc;" horiz-adv-x="1294" d="M8 0l1030 1393h95l-1031 -1393h-94zM260 1317l10 76h185l-103 -709h-73l92 633h-111zM481 195l8 63l441 473h106l-69 -473h131l-8 -63h-132l-28 -189h-74l29 189h-404zM575 258h318l57 387h-10z" />
<glyph unicode="&#xbd;" horiz-adv-x="1380" d="M8 0l1032 1393h93l-1029 -1393h-96zM260 1317l10 76h185l-103 -709h-71l92 633h-113zM602 -2l10 76q8 55 34.5 100t69 79t84.5 57.5t99 47.5q46 18 68.5 27.5t60 29.5t56.5 38.5t34 46.5t15 61q0 111 -166 111q-132 0 -234 -111l-49 49q58 64 136.5 101t156.5 37 q122 0 176.5 -48t54.5 -125q0 -43 -17.5 -81t-41 -64t-65 -52.5t-71 -41t-77.5 -35.5q-54 -24 -89 -42.5t-73.5 -46.5t-61 -62.5t-28.5 -75.5h473l-10 -76h-545z" />
<glyph unicode="&#xbe;" horiz-adv-x="1468" d="M133 848h74q-7 -59 46.5 -92t137.5 -33q86 0 144.5 28.5t66.5 90.5l4 32q6 37 -19 66.5t-67 44t-90 14.5h-133l12 76h121q196 0 213 125l4 17q5 36 -7 60.5t-39 37t-57.5 17.5t-70.5 5q-82 0 -143 -36.5t-70 -98.5h-74q13 91 101.5 151t197.5 60q112 0 181 -48.5 t55 -147.5l-2 -15q-9 -60 -17.5 -106t-12 -62t-5.5 -41.5t-2 -70.5v-6v-11t-0.5 -12t-1 -12t-0.5 -7l-4 -32q-14 -96 -97.5 -145.5t-197.5 -49.5q-111 0 -185.5 57t-62.5 144zM215 0l1030 1393h94l-1030 -1393h-94zM653 193l9 63l440 473h104l-69 -473h133l-8 -63h-134 l-28 -189h-74l29 189h-402zM748 256h315l57 387h-8z" />
<glyph unicode="&#xbf;" horiz-adv-x="796" d="M-4 -123l22 154q3 20 11.5 40.5t15.5 35t26.5 35t27 29.5t35.5 31.5t33.5 26.5t37.5 29q53 38 83 64t59 69.5t36 91.5l25 166h77l-26 -184q-5 -37 -23.5 -72t-52 -68.5t-61 -56.5t-72.5 -57q-49 -38 -75 -60.5t-52 -58t-31 -69.5l-22 -146q-8 -54 2.5 -94t30.5 -61.5 t51 -35t56 -17t54 -3.5q115 0 260 121l31 -57q-57 -55 -137 -97.5t-164 -42.5q-298 0 -258 287zM397 870l27 177h154l-27 -177h-154z" />
<glyph unicode="&#xc0;" d="M-18 0l720 1413h70l297 -1413h-80l-98 496h-582l-246 -496h-81zM348 571h529l-158 721zM584 1788l86 63l135 -292l-66 -43z" />
<glyph unicode="&#xc1;" d="M-18 0l720 1413h70l297 -1413h-80l-98 496h-582l-246 -496h-81zM348 571h529l-158 721zM705 1550l225 275l59 -53l-229 -261z" />
<glyph unicode="&#xc2;" d="M-18 0l720 1413h70l297 -1413h-80l-98 496h-582l-246 -496h-81zM348 571h529l-158 721zM522 1565l258 166l217 -166l-53 -60l-174 135l-219 -133z" />
<glyph unicode="&#xc3;" d="M-18 0l720 1413h70l297 -1413h-80l-98 496h-582l-246 -496h-81zM348 571h529l-158 721zM475 1571q46 61 86.5 90t91.5 29q39 0 83 -25.5t87.5 -51t81.5 -26.5q43 6 80 68l64 -35q-31 -50 -74 -82.5t-92 -32.5q-39 0 -75.5 15.5t-59.5 34t-52.5 34t-56.5 15.5 q-63 0 -102 -72z" />
<glyph unicode="&#xc4;" d="M-18 0l720 1413h70l297 -1413h-80l-98 496h-582l-246 -496h-81zM348 571h529l-158 721zM543 1554l18 132h115l-19 -132h-114zM862 1554l19 132h114l-18 -132h-115z" />
<glyph unicode="&#xc5;" d="M-18 0l720 1413h70l297 -1413h-80l-98 496h-582l-246 -496h-81zM348 571h529l-158 721zM621 1645q0 75 54.5 126.5t125.5 51.5q58 0 96.5 -39t38.5 -98q0 -73 -55.5 -127t-126.5 -54q-56 0 -94.5 41t-38.5 99zM692 1651q0 -31 21.5 -52.5t52.5 -21.5q38 0 68 28t30 68 q0 31 -20.5 54.5t-50.5 23.5q-38 0 -69.5 -30.5t-31.5 -69.5z" />
<glyph unicode="&#xc6;" horiz-adv-x="1748" d="M-45 0l1034 1393h664l-11 -76h-559l-82 -555h467l-10 -76h-467l-90 -610h610l-10 -76h-682l64 430h-516l-326 -430h-86zM420 506h473l117 799z" />
<glyph unicode="&#xc7;" horiz-adv-x="1193" d="M111 426l79 543q29 197 186.5 320.5t364.5 123.5q287 0 406 -168l-62 -57q-52 70 -145.5 109.5t-210.5 39.5q-114 0 -214 -44.5t-168.5 -129t-84.5 -194.5l-80 -543q-25 -179 75 -275t288 -96q242 0 399 117l37 -57q-171 -135 -446 -135h-9l-43 -91q4 -2 11.5 -5.5 t26.5 -17t33 -30t26 -45t12 -61.5q0 -86 -61 -144.5t-160 -83.5l-17 58q35 10 69.5 27t64.5 49.5t30 70.5q0 30 -13.5 54t-32 37t-37.5 21.5t-33 11.5l-13 3l57 152q-179 22 -270.5 136.5t-64.5 303.5z" />
<glyph unicode="&#xc8;" horiz-adv-x="1122" d="M106 0l203 1393h713l-10 -76h-639l-82 -565h545l-13 -76h-544l-89 -600h691l-11 -76h-764zM518 1767l86 64l135 -293l-65 -43z" />
<glyph unicode="&#xc9;" horiz-adv-x="1122" d="M106 0l203 1393h713l-10 -76h-639l-82 -565h545l-13 -76h-544l-89 -600h691l-11 -76h-764zM608 1530l226 274l59 -53l-229 -260z" />
<glyph unicode="&#xca;" horiz-adv-x="1122" d="M106 0l203 1393h713l-10 -76h-639l-82 -565h545l-13 -76h-544l-89 -600h691l-11 -76h-764zM453 1544l258 166l217 -166l-54 -59l-174 135l-219 -133z" />
<glyph unicode="&#xcb;" horiz-adv-x="1122" d="M106 0l203 1393h713l-10 -76h-639l-82 -565h545l-13 -76h-544l-89 -600h691l-11 -76h-764zM469 1534l18 131h115l-18 -131h-115zM788 1534l19 131h115l-19 -131h-115z" />
<glyph unicode="&#xcc;" horiz-adv-x="577" d="M137 0l203 1393h72l-203 -1393h-72zM223 1767l86 64l135 -293l-65 -43z" />
<glyph unicode="&#xcd;" horiz-adv-x="577" d="M137 0l203 1393h72l-203 -1393h-72zM332 1530l225 274l59 -53l-229 -260z" />
<glyph unicode="&#xce;" horiz-adv-x="577" d="M137 0l203 1393h72l-203 -1393h-72zM164 1544l258 166l217 -166l-53 -59l-174 135l-219 -133z" />
<glyph unicode="&#xcf;" horiz-adv-x="577" d="M137 0l203 1393h72l-203 -1393h-72zM178 1534l19 131h114l-18 -131h-115zM498 1534l18 131h115l-19 -131h-114z" />
<glyph unicode="&#xd0;" horiz-adv-x="1339" d="M-29 666l13 75h235l94 652h410q231 0 356.5 -119.5t96.5 -323.5l-76 -514q-30 -209 -186 -322.5t-396 -113.5h-407l96 666h-236zM195 76h333q209 0 341.5 91.5t158.5 268.5l76 514q24 170 -85 268.5t-306 98.5h-334l-84 -576h344l-12 -75h-346z" />
<glyph unicode="&#xd1;" horiz-adv-x="1445" d="M113 0l202 1393h97l639 -1278l186 1278h74l-203 -1393h-92l-641 1286l-189 -1286h-73zM555 1550q46 61 86.5 90t91.5 29q39 0 83 -25t87.5 -50.5t81.5 -26.5q44 6 80 67l63 -35q-31 -50 -73.5 -82t-91.5 -32q-39 0 -75.5 15.5t-59.5 33.5t-52.5 33.5t-56.5 15.5 q-64 0 -103 -72z" />
<glyph unicode="&#xd2;" horiz-adv-x="1333" d="M121 422l80 547q29 200 179.5 322t358.5 122h35q217 0 337 -121.5t91 -322.5l-80 -547q-30 -205 -182.5 -323.5t-374.5 -118.5h-33q-215 0 -328 118t-83 324zM195 422q-26 -175 69 -271t279 -96h32q192 0 320 96t154 271l79 547q25 167 -77.5 267.5t-288.5 100.5h-35 q-177 0 -303 -100.5t-150 -267.5zM616 1788l86 63l136 -292l-66 -43z" />
<glyph unicode="&#xd3;" horiz-adv-x="1333" d="M121 422l80 547q29 200 179.5 322t358.5 122h35q217 0 337 -121.5t91 -322.5l-80 -547q-30 -205 -182.5 -323.5t-374.5 -118.5h-33q-215 0 -328 118t-83 324zM195 422q-26 -175 69 -271t279 -96h32q192 0 320 96t154 271l79 547q25 167 -77.5 267.5t-288.5 100.5h-35 q-177 0 -303 -100.5t-150 -267.5zM725 1550l225 275l60 -53l-230 -261z" />
<glyph unicode="&#xd4;" horiz-adv-x="1333" d="M121 422l80 547q29 200 179.5 322t358.5 122h35q217 0 337 -121.5t91 -322.5l-80 -547q-30 -205 -182.5 -323.5t-374.5 -118.5h-33q-215 0 -328 118t-83 324zM195 422q-26 -175 69 -271t279 -96h32q192 0 320 96t154 271l79 547q25 167 -77.5 267.5t-288.5 100.5h-35 q-177 0 -303 -100.5t-150 -267.5zM545 1565l258 166l217 -166l-53 -60l-174 135l-220 -133z" />
<glyph unicode="&#xd5;" horiz-adv-x="1333" d="M121 422l80 547q29 200 179.5 322t358.5 122h35q217 0 337 -121.5t91 -322.5l-80 -547q-30 -205 -182.5 -323.5t-374.5 -118.5h-33q-215 0 -328 118t-83 324zM195 422q-26 -175 69 -271t279 -96h32q192 0 320 96t154 271l79 547q25 167 -77.5 267.5t-288.5 100.5h-35 q-177 0 -303 -100.5t-150 -267.5zM512 1571q46 61 86.5 90t91.5 29q39 0 83 -25.5t87.5 -51t81.5 -26.5q43 6 80 68l63 -35q-72 -115 -165 -115q-39 0 -75.5 15.5t-59.5 34t-52.5 34t-56.5 15.5q-64 0 -103 -72z" />
<glyph unicode="&#xd6;" horiz-adv-x="1333" d="M121 422l80 547q29 200 179.5 322t358.5 122h35q217 0 337 -121.5t91 -322.5l-80 -547q-30 -205 -182.5 -323.5t-374.5 -118.5h-33q-215 0 -328 118t-83 324zM195 422q-26 -175 69 -271t279 -96h32q192 0 320 96t154 271l79 547q25 167 -77.5 267.5t-288.5 100.5h-35 q-177 0 -303 -100.5t-150 -267.5zM569 1554l19 132h114l-18 -132h-115zM889 1554l18 132h115l-18 -132h-115z" />
<glyph unicode="&#xd7;" horiz-adv-x="1136" d="M25 0l460 522l-288 482h86l256 -416l379 416h86l-429 -482l310 -522h-94l-271 457l-405 -457h-90z" />
<glyph unicode="&#xd8;" horiz-adv-x="1333" d="M121 422l80 547q29 200 179.5 322t358.5 122h35q117 0 217 -43l105 189h80l-125 -222q90 -58 129.5 -152t21.5 -216l-80 -547q-30 -205 -182.5 -323.5t-374.5 -118.5h-33q-120 0 -213 38l-96 -174h-82l117 207q-174 116 -137 371zM195 422q-30 -206 102 -299l657 1177 q-81 37 -192 37h-35q-177 0 -303 -100.5t-150 -267.5zM358 88q76 -33 185 -33h32q192 0 320 96t154 271l79 547q27 200 -114 299z" />
<glyph unicode="&#xd9;" horiz-adv-x="1413" d="M156 342q0 36 6 80l141 971h74l-141 -971q-5 -29 -5 -64q0 -148 104 -225.5t267 -77.5q112 0 212 42t171 127t88 198l141 971h74l-141 -971q-21 -143 -101.5 -244.5t-196.5 -149.5t-257 -48q-197 0 -316.5 91.5t-119.5 270.5zM651 1767l86 64l135 -293l-65 -43z" />
<glyph unicode="&#xda;" horiz-adv-x="1413" d="M156 342q0 36 6 80l141 971h74l-141 -971q-5 -29 -5 -64q0 -148 104 -225.5t267 -77.5q112 0 212 42t171 127t88 198l141 971h74l-141 -971q-21 -143 -101.5 -244.5t-196.5 -149.5t-257 -48q-197 0 -316.5 91.5t-119.5 270.5zM752 1530l225 274l59 -53l-229 -260z" />
<glyph unicode="&#xdb;" horiz-adv-x="1413" d="M156 342q0 36 6 80l141 971h74l-141 -971q-5 -29 -5 -64q0 -148 104 -225.5t267 -77.5q112 0 212 42t171 127t88 198l141 971h74l-141 -971q-21 -143 -101.5 -244.5t-196.5 -149.5t-257 -48q-197 0 -316.5 91.5t-119.5 270.5zM582 1544l258 166l217 -166l-53 -59 l-175 135l-219 -133z" />
<glyph unicode="&#xdc;" horiz-adv-x="1413" d="M156 342q0 36 6 80l141 971h74l-141 -971q-5 -29 -5 -64q0 -148 104 -225.5t267 -77.5q112 0 212 42t171 127t88 198l141 971h74l-141 -971q-21 -143 -101.5 -244.5t-196.5 -149.5t-257 -48q-197 0 -316.5 91.5t-119.5 270.5zM600 1534l18 131h115l-18 -131h-115z M920 1534l18 131h115l-19 -131h-114z" />
<glyph unicode="&#xdd;" horiz-adv-x="1150" d="M193 1393h88l272 -742l498 742h88l-564 -826l-81 -567h-72l82 567zM608 1530l226 274l59 -53l-229 -260z" />
<glyph unicode="&#xde;" horiz-adv-x="1097" d="M109 -2l202 1395h72l-41 -287h387q148 0 229 -100.5t62 -239.5l-6 -41q-21 -133 -127 -222t-260 -89h-387l-60 -416h-71zM252 489h387q123 0 205.5 67.5t97.5 168.5l6 41q13 102 -48.5 183t-182.5 81h-387z" />
<glyph unicode="&#xe0;" horiz-adv-x="1067" d="M55 205q0 20 8 80q45 295 728 325l20 131q6 34 6 68q0 90 -51 136t-164 46q-82 0 -193.5 -29t-162.5 -59l-17 66q61 36 175.5 67t207.5 31q143 0 212 -66.5t69 -183.5q0 -37 -6 -80l-109 -737h-73l24 170q-22 -29 -54 -57.5t-82 -59.5t-121.5 -50t-152.5 -19 q-125 0 -194.5 56.5t-69.5 164.5zM131 211q0 -76 52.5 -114t148.5 -38q156 0 280 78t138 174l32 224q-83 -3 -152 -9.5t-142.5 -18t-130 -30.5t-104.5 -45t-77 -64.5t-37 -86.5q-8 -52 -8 -70zM471 1460l86 64l135 -293l-65 -43z" />
<glyph unicode="&#xe1;" horiz-adv-x="1067" d="M55 205q0 20 8 80q45 295 728 325l20 131q6 34 6 68q0 90 -51 136t-164 46q-82 0 -193.5 -29t-162.5 -59l-17 66q61 36 175.5 67t207.5 31q143 0 212 -66.5t69 -183.5q0 -37 -6 -80l-109 -737h-73l24 170q-22 -29 -54 -57.5t-82 -59.5t-121.5 -50t-152.5 -19 q-125 0 -194.5 56.5t-69.5 164.5zM131 211q0 -76 52.5 -114t148.5 -38q156 0 280 78t138 174l32 224q-83 -3 -152 -9.5t-142.5 -18t-130 -30.5t-104.5 -45t-77 -64.5t-37 -86.5q-8 -52 -8 -70zM563 1223l225 274l60 -53l-230 -260z" />
<glyph unicode="&#xe2;" horiz-adv-x="1067" d="M55 205q0 20 8 80q45 295 728 325l20 131q6 34 6 68q0 90 -51 136t-164 46q-82 0 -193.5 -29t-162.5 -59l-17 66q61 36 175.5 67t207.5 31q143 0 212 -66.5t69 -183.5q0 -37 -6 -80l-109 -737h-73l24 170q-22 -29 -54 -57.5t-82 -59.5t-121.5 -50t-152.5 -19 q-125 0 -194.5 56.5t-69.5 164.5zM131 211q0 -76 52.5 -114t148.5 -38q156 0 280 78t138 174l32 224q-83 -3 -152 -9.5t-142.5 -18t-130 -30.5t-104.5 -45t-77 -64.5t-37 -86.5q-8 -52 -8 -70zM401 1237l258 166l218 -166l-54 -59l-174 135l-219 -133z" />
<glyph unicode="&#xe3;" horiz-adv-x="1067" d="M55 205q0 20 8 80q45 295 728 325l20 131q6 34 6 68q0 90 -51 136t-164 46q-82 0 -193.5 -29t-162.5 -59l-17 66q61 36 175.5 67t207.5 31q143 0 212 -66.5t69 -183.5q0 -37 -6 -80l-109 -737h-73l24 170q-22 -29 -54 -57.5t-82 -59.5t-121.5 -50t-152.5 -19 q-125 0 -194.5 56.5t-69.5 164.5zM131 211q0 -76 52.5 -114t148.5 -38q156 0 280 78t138 174l32 224q-83 -3 -152 -9.5t-142.5 -18t-130 -30.5t-104.5 -45t-77 -64.5t-37 -86.5q-8 -52 -8 -70zM344 1243q46 61 86.5 90t91.5 29q39 0 83 -25t87.5 -50.5t81.5 -26.5 q44 6 80 67l64 -35q-31 -49 -74 -81.5t-92 -32.5q-39 0 -75.5 15.5t-59.5 33.5t-52.5 33.5t-56.5 15.5q-63 0 -102 -72z" />
<glyph unicode="&#xe4;" horiz-adv-x="1067" d="M55 205q0 20 8 80q45 295 728 325l20 131q6 34 6 68q0 90 -51 136t-164 46q-82 0 -193.5 -29t-162.5 -59l-17 66q61 36 175.5 67t207.5 31q143 0 212 -66.5t69 -183.5q0 -37 -6 -80l-109 -737h-73l24 170q-22 -29 -54 -57.5t-82 -59.5t-121.5 -50t-152.5 -19 q-125 0 -194.5 56.5t-69.5 164.5zM131 211q0 -76 52.5 -114t148.5 -38q156 0 280 78t138 174l32 224q-83 -3 -152 -9.5t-142.5 -18t-130 -30.5t-104.5 -45t-77 -64.5t-37 -86.5q-8 -52 -8 -70zM418 1227l18 131h115l-19 -131h-114zM737 1227l19 131h114l-18 -131h-115z" />
<glyph unicode="&#xe5;" horiz-adv-x="1067" d="M55 205q0 20 8 80q45 295 728 325l20 131q6 34 6 68q0 90 -51 136t-164 46q-82 0 -193.5 -29t-162.5 -59l-17 66q61 36 175.5 67t207.5 31q143 0 212 -66.5t69 -183.5q0 -37 -6 -80l-109 -737h-73l24 170q-22 -29 -54 -57.5t-82 -59.5t-121.5 -50t-152.5 -19 q-125 0 -194.5 56.5t-69.5 164.5zM131 211q0 -76 52.5 -114t148.5 -38q156 0 280 78t138 174l32 224q-83 -3 -152 -9.5t-142.5 -18t-130 -30.5t-104.5 -45t-77 -64.5t-37 -86.5q-8 -52 -8 -70zM489 1317q0 75 55 126.5t126 51.5q58 0 96.5 -39t38.5 -98q0 -73 -55.5 -126.5 t-126.5 -53.5q-57 0 -95.5 41t-38.5 98zM561 1323q0 -31 21.5 -52.5t52.5 -21.5q38 0 68 28.5t30 68.5q0 31 -20.5 54t-50.5 23q-38 0 -69.5 -30.5t-31.5 -69.5z" />
<glyph unicode="&#xe6;" horiz-adv-x="1757" d="M76 285l30 204l699 89l22 157q19 126 -40 193t-189 67q-88 0 -195 -34.5t-170 -69.5l-20 70q68 41 181 75.5t214 34.5q116 0 189.5 -50t95.5 -142q62 88 166.5 142t226.5 54q170 0 261.5 -94t68.5 -252l-21 -137l-727 -80l-24 -176q-8 -55 4.5 -101t42.5 -78t73.5 -54 t95.5 -32t111 -10q108 0 194 30t132 63l33 -56q-71 -54 -173 -83t-196 -29q-137 0 -237.5 49t-137.5 145q-71 -106 -179 -150t-222 -44q-95 0 -169.5 35t-113.5 104t-26 160zM152 285q-14 -104 59 -166t188 -62q84 0 160.5 24t135.5 79.5t71 132.5l31 211l-625 -76zM881 588 l651 67l12 84q18 124 -58.5 192t-211.5 68q-136 0 -247 -81.5t-126 -188.5z" />
<glyph unicode="&#xe7;" horiz-adv-x="950" d="M74 336l53 369q24 160 149.5 260t290.5 100q103 0 174 -35.5t125 -105.5l-55 -52q-91 117 -256 117q-133 0 -233.5 -78t-120.5 -206l-54 -369q-13 -89 25 -155t104 -97t146 -31q163 -3 295 99l33 -58q-76 -61 -156 -87.5t-182 -26.5h-6l-44 -91q4 -2 11.5 -5.5t26.5 -17 t33 -30t26 -45t12 -61.5q0 -86 -61 -144.5t-160 -83.5l-17 58q59 17 111.5 55t52.5 92q0 30 -13.5 54t-32.5 37t-38.5 21.5t-32.5 11.5l-14 3l60 154q-129 25 -201 114.5t-51 233.5z" />
<glyph unicode="&#xe8;" horiz-adv-x="1054" d="M72 289q0 15 4 51l55 381q14 93 82.5 172.5t168 125.5t202.5 46q146 0 245 -85.5t99 -213.5q0 -16 -6 -59l-25 -172h-721l-29 -195q-2 -16 -2 -39q0 -115 90 -177.5t222 -62.5q199 0 325 89l29 -58q-142 -106 -365 -106q-156 0 -265 80t-109 223zM186 610h648l14 97 q4 28 4 51q0 102 -80 166.5t-201 64.5q-132 0 -241.5 -77.5t-126.5 -188.5zM440 1460l86 64l136 -293l-66 -43z" />
<glyph unicode="&#xe9;" horiz-adv-x="1054" d="M72 289q0 15 4 51l55 381q14 93 82.5 172.5t168 125.5t202.5 46q146 0 245 -85.5t99 -213.5q0 -16 -6 -59l-25 -172h-721l-29 -195q-2 -16 -2 -39q0 -115 90 -177.5t222 -62.5q199 0 325 89l29 -58q-142 -106 -365 -106q-156 0 -265 80t-109 223zM186 610h648l14 97 q4 28 4 51q0 102 -80 166.5t-201 64.5q-132 0 -241.5 -77.5t-126.5 -188.5zM551 1223l225 274l60 -53l-230 -260z" />
<glyph unicode="&#xea;" horiz-adv-x="1054" d="M72 289q0 15 4 51l55 381q14 93 82.5 172.5t168 125.5t202.5 46q146 0 245 -85.5t99 -213.5q0 -16 -6 -59l-25 -172h-721l-29 -195q-2 -16 -2 -39q0 -115 90 -177.5t222 -62.5q199 0 325 89l29 -58q-142 -106 -365 -106q-156 0 -265 80t-109 223zM186 610h648l14 97 q4 28 4 51q0 102 -80 166.5t-201 64.5q-132 0 -241.5 -77.5t-126.5 -188.5zM383 1237l258 166l217 -166l-53 -59l-174 135l-219 -133z" />
<glyph unicode="&#xeb;" horiz-adv-x="1054" d="M72 289q0 15 4 51l55 381q14 93 82.5 172.5t168 125.5t202.5 46q146 0 245 -85.5t99 -213.5q0 -16 -6 -59l-25 -172h-721l-29 -195q-2 -16 -2 -39q0 -115 90 -177.5t222 -62.5q199 0 325 89l29 -58q-142 -106 -365 -106q-156 0 -265 80t-109 223zM186 610h648l14 97 q4 28 4 51q0 102 -80 166.5t-201 64.5q-132 0 -241.5 -77.5t-126.5 -188.5zM395 1227l19 131h114l-18 -131h-115zM715 1227l18 131h115l-19 -131h-114z" />
<glyph unicode="&#xec;" horiz-adv-x="512" d="M109 0l151 1044h72l-152 -1044h-71zM154 1450l86 63l135 -292l-66 -43z" />
<glyph unicode="&#xed;" horiz-adv-x="512" d="M109 0l151 1044h72l-152 -1044h-71zM266 1212l226 275l59 -53l-229 -260z" />
<glyph unicode="&#xee;" horiz-adv-x="512" d="M88 1227l258 166l217 -166l-53 -60l-174 136l-219 -134zM109 0l151 1044h72l-152 -1044h-71z" />
<glyph unicode="&#xef;" horiz-adv-x="512" d="M102 1217l19 131h115l-19 -131h-115zM109 0l151 1044h72l-152 -1044h-71zM422 1217l18 131h115l-18 -131h-115z" />
<glyph unicode="&#xf0;" horiz-adv-x="1103" d="M76 332l49 340q22 149 150.5 250.5t295.5 101.5q206 0 299 -139q-9 200 -137 366l-303 -131l-16 62l278 118q-129 135 -297 164l29 76q206 -54 344 -205l266 117l19 -59l-246 -109q185 -221 129 -612l-49 -340q-22 -144 -160 -248t-307 -104q-167 0 -266.5 102t-77.5 250 zM150 332q-17 -117 64 -197t216 -80q139 0 253.5 82t131.5 195l49 340q17 115 -75 195.5t-228 80.5q-135 0 -240 -80t-122 -196z" />
<glyph unicode="&#xf1;" horiz-adv-x="1208" d="M88 0l152 1044h75l-30 -215q78 110 189 173t235 63q167 0 250.5 -93.5t58.5 -256.5l-105 -715h-73l104 715q19 129 -48 201.5t-200 72.5q-88 0 -184 -42.5t-167 -118.5t-83 -160l-98 -668h-76zM397 1243q46 61 86.5 90t91.5 29q39 0 83 -25t87.5 -50.5t81.5 -26.5 q44 6 80 67l64 -35q-31 -49 -74 -81.5t-92 -32.5q-39 0 -75.5 15.5t-59.5 33.5t-52.5 33.5t-56.5 15.5q-63 0 -102 -72z" />
<glyph unicode="&#xf2;" horiz-adv-x="1103" d="M76 342l55 369q15 103 86.5 185.5t171.5 125.5t205 43q165 0 273.5 -100t86.5 -254l-55 -369q-23 -156 -160 -257t-303 -101q-165 0 -273.5 101t-86.5 257zM150 342q-18 -125 72 -204t224 -79t247.5 79t131.5 204l56 369q12 83 -28.5 147.5t-112.5 97.5t-158 33 q-133 0 -246 -78t-131 -200zM449 1460l86 64l135 -293l-66 -43z" />
<glyph unicode="&#xf3;" horiz-adv-x="1103" d="M76 342l55 369q15 103 86.5 185.5t171.5 125.5t205 43q165 0 273.5 -100t86.5 -254l-55 -369q-23 -156 -160 -257t-303 -101q-165 0 -273.5 101t-86.5 257zM150 342q-18 -125 72 -204t224 -79t247.5 79t131.5 204l56 369q12 83 -28.5 147.5t-112.5 97.5t-158 33 q-133 0 -246 -78t-131 -200zM553 1223l225 274l60 -53l-230 -260z" />
<glyph unicode="&#xf4;" horiz-adv-x="1103" d="M76 342l55 369q15 103 86.5 185.5t171.5 125.5t205 43q165 0 273.5 -100t86.5 -254l-55 -369q-23 -156 -160 -257t-303 -101q-165 0 -273.5 101t-86.5 257zM150 342q-18 -125 72 -204t224 -79t247.5 79t131.5 204l56 369q12 83 -28.5 147.5t-112.5 97.5t-158 33 q-133 0 -246 -78t-131 -200zM385 1237l258 166l217 -166l-53 -59l-174 135l-219 -133z" />
<glyph unicode="&#xf5;" horiz-adv-x="1103" d="M76 342l55 369q15 103 86.5 185.5t171.5 125.5t205 43q165 0 273.5 -100t86.5 -254l-55 -369q-23 -156 -160 -257t-303 -101q-165 0 -273.5 101t-86.5 257zM150 342q-18 -125 72 -204t224 -79t247.5 79t131.5 204l56 369q12 83 -28.5 147.5t-112.5 97.5t-158 33 q-133 0 -246 -78t-131 -200zM340 1243q46 61 86.5 90t91.5 29q39 0 83 -25t87.5 -50.5t81.5 -26.5q44 6 80 67l63 -35q-31 -50 -73.5 -82t-91.5 -32q-39 0 -75.5 15.5t-59.5 33.5t-52.5 33.5t-56.5 15.5q-64 0 -103 -72z" />
<glyph unicode="&#xf6;" horiz-adv-x="1103" d="M76 342l55 369q15 103 86.5 185.5t171.5 125.5t205 43q165 0 273.5 -100t86.5 -254l-55 -369q-23 -156 -160 -257t-303 -101q-165 0 -273.5 101t-86.5 257zM150 342q-18 -125 72 -204t224 -79t247.5 79t131.5 204l56 369q12 83 -28.5 147.5t-112.5 97.5t-158 33 q-133 0 -246 -78t-131 -200zM403 1227l19 131h115l-19 -131h-115zM723 1227l18 131h115l-18 -131h-115z" />
<glyph unicode="&#xf7;" horiz-adv-x="1411" d="M109 553l12 76h1126l-12 -76h-1126zM526 188l25 164h164l-25 -164h-164zM618 821l25 166h164l-25 -166h-164z" />
<glyph unicode="&#xf8;" horiz-adv-x="1103" d="M-12 -121l157 221q-87 97 -69 242l55 369q15 103 86.5 185.5t171.5 125.5t205 43q109 0 199 -49l110 151h84l-135 -190q125 -103 102 -266l-55 -369q-15 -104 -86 -187t-171 -127t-206 -44q-139 0 -239 71l-125 -176h-84zM147 342q-14 -101 46 -174l557 782 q-80 39 -168 39q-133 0 -247 -78t-132 -200zM244 121q80 -62 202 -62q134 0 247.5 79t131.5 204l56 369q17 122 -76 202z" />
<glyph unicode="&#xf9;" horiz-adv-x="1187" d="M129 279q0 19 4 59l103 706h71l-102 -706q-4 -32 -4 -47q0 -112 81 -174t216 -62q149 0 251.5 75t122.5 208l103 706h72l-103 -706q-24 -165 -151 -261.5t-306 -96.5q-163 0 -260.5 80t-97.5 219zM494 1440l86 63l135 -293l-66 -43z" />
<glyph unicode="&#xfa;" horiz-adv-x="1187" d="M129 279q0 19 4 59l103 706h71l-102 -706q-4 -32 -4 -47q0 -112 81 -174t216 -62q149 0 251.5 75t122.5 208l103 706h72l-103 -706q-24 -165 -151 -261.5t-306 -96.5q-163 0 -260.5 80t-97.5 219zM614 1202l226 275l59 -54l-229 -260z" />
<glyph unicode="&#xfb;" horiz-adv-x="1187" d="M129 279q0 19 4 59l103 706h71l-102 -706q-4 -32 -4 -47q0 -112 81 -174t216 -62q149 0 251.5 75t122.5 208l103 706h72l-103 -706q-24 -165 -151 -261.5t-306 -96.5q-163 0 -260.5 80t-97.5 219zM432 1217l258 165l217 -165l-53 -60l-174 135l-219 -133z" />
<glyph unicode="&#xfc;" horiz-adv-x="1187" d="M129 279q0 19 4 59l103 706h71l-102 -706q-4 -32 -4 -47q0 -112 81 -174t216 -62q149 0 251.5 75t122.5 208l103 706h72l-103 -706q-24 -165 -151 -261.5t-306 -96.5q-163 0 -260.5 80t-97.5 219zM442 1206l19 131h114l-18 -131h-115zM762 1206l18 131h115l-18 -131h-115 z" />
<glyph unicode="&#xfd;" horiz-adv-x="976" d="M-29 -436l11 76q188 0 307 247l33 66l-218 1091h82l189 -983l481 983h82l-569 -1155q-79 -158 -172 -241.5t-226 -83.5zM479 1212l226 275l59 -53l-229 -260z" />
<glyph unicode="&#xfe;" horiz-adv-x="1163" d="M4 -487l279 1898h73l-77 -520q69 79 172 127.5t211 48.5q167 0 266.5 -102t77.5 -250l-56 -383q-22 -148 -150.5 -250t-295.5 -102q-110 0 -198.5 47t-133.5 125l-94 -639h-74zM205 332q-17 -113 76.5 -195t232.5 -82q135 0 240.5 80t122.5 197l55 383q17 116 -65.5 196 t-215.5 80q-140 0 -258 -83t-133 -193z" />
<glyph unicode="&#xff;" horiz-adv-x="976" d="M-29 -436l11 76q188 0 307 247l33 66l-218 1091h82l189 -983l481 983h82l-569 -1155q-79 -158 -172 -241.5t-226 -83.5zM328 1206l18 131h115l-19 -131h-114zM647 1206l19 131h114l-18 -131h-115z" />
<glyph unicode="&#x152;" horiz-adv-x="1869" d="M121 438l76 512q16 114 103 216.5t217.5 163.5t268.5 61h971l-10 -76h-604l-82 -553h512l-10 -76h-512l-90 -610h655l-10 -76h-1020q-108 0 -201 34.5t-155 93.5t-92 140t-17 170zM195 438q-18 -160 97.5 -261t303.5 -101h291l182 1239h-293q-105 0 -217 -49.5 t-193.5 -135t-95.5 -180.5z" />
<glyph unicode="&#x153;" horiz-adv-x="1798" d="M76 350l53 361q20 146 154.5 250t304.5 104q120 0 213 -58.5t127 -150.5q64 93 173 151t226 58q159 0 259.5 -99.5t80.5 -244.5l-27 -186h-720l-29 -195q-13 -89 29 -154t115 -95t163 -30q202 0 328 89l28 -58q-142 -106 -366 -106q-125 0 -225 55t-134 154 q-63 -90 -170.5 -145.5t-226.5 -55.5q-170 0 -274 103.5t-82 252.5zM147 350q-17 -117 69 -198.5t226 -81.5q134 0 244 78t127 188l55 387q17 110 -69.5 189t-220.5 79q-139 0 -249.5 -82t-127.5 -198zM930 610h647l16 111q17 115 -64.5 191.5t-213.5 76.5t-242 -77.5 t-127 -188.5z" />
<glyph unicode="&#x178;" horiz-adv-x="1150" d="M193 1393h88l272 -742l498 742h88l-564 -826l-81 -567h-72l82 567zM467 1534l18 131h115l-18 -131h-115zM786 1534l19 131h115l-19 -131h-115z" />
<glyph unicode="&#x2c6;" horiz-adv-x="718" d="M197 1229l258 166l217 -166l-54 -60l-174 136l-219 -134z" />
<glyph unicode="&#x2dc;" horiz-adv-x="813" d="M201 1270q46 61 86.5 90t91.5 29q39 0 83 -25.5t87.5 -51t81.5 -26.5q43 6 80 68l63 -35q-31 -50 -74 -82.5t-92 -32.5q-39 0 -75.5 15.5t-59.5 34t-52 34t-56 15.5q-64 0 -103 -72z" />
<glyph unicode="&#x2000;" horiz-adv-x="925" />
<glyph unicode="&#x2001;" horiz-adv-x="1851" />
<glyph unicode="&#x2002;" horiz-adv-x="925" />
<glyph unicode="&#x2003;" horiz-adv-x="1851" />
<glyph unicode="&#x2004;" horiz-adv-x="617" />
<glyph unicode="&#x2005;" horiz-adv-x="462" />
<glyph unicode="&#x2006;" horiz-adv-x="308" />
<glyph unicode="&#x2007;" horiz-adv-x="308" />
<glyph unicode="&#x2008;" horiz-adv-x="231" />
<glyph unicode="&#x2009;" horiz-adv-x="370" />
<glyph unicode="&#x200a;" horiz-adv-x="102" />
<glyph unicode="&#x2010;" horiz-adv-x="718" d="M86 532l10 76h475l-10 -76h-475z" />
<glyph unicode="&#x2011;" horiz-adv-x="718" d="M86 532l10 76h475l-10 -76h-475z" />
<glyph unicode="&#x2012;" horiz-adv-x="718" d="M86 532l10 76h475l-10 -76h-475z" />
<glyph unicode="&#x2013;" horiz-adv-x="1146" d="M2 553l12 76h1065l-12 -76h-1065z" />
<glyph unicode="&#x2014;" horiz-adv-x="1589" d="M10 553l13 76h1499l-13 -76h-1499z" />
<glyph unicode="&#x2018;" horiz-adv-x="231" d="M131 1069l8 57q20 132 45 202t78 126l43 -35q-34 -48 -50 -101.5t-28 -135.5l-16 -113h-80z" />
<glyph unicode="&#x2019;" horiz-adv-x="231" d="M76 1108q44 56 65.5 105t32.5 133l16 108h80l-8 -53q-13 -90 -33.5 -151.5t-44.5 -97.5t-65 -79z" />
<glyph unicode="&#x201a;" horiz-adv-x="450" d="M84 -203q43 55 63.5 104t32.5 134l17 108h79l-8 -53q-19 -131 -49.5 -197.5t-91.5 -130.5z" />
<glyph unicode="&#x201c;" horiz-adv-x="442" d="M133 1069l8 57q20 132 45 202t78 126l43 -35q-35 -48 -50.5 -100t-27.5 -137l-16 -113h-80zM356 1069l9 57q20 133 44.5 202.5t77.5 125.5l43 -35q-34 -48 -49.5 -100.5t-27.5 -136.5l-17 -113h-80z" />
<glyph unicode="&#x201d;" horiz-adv-x="481" d="M68 1044q44 56 65.5 105t32.5 133l16 109h80l-8 -54q-19 -130 -50 -196t-91 -131zM309 1044q44 57 66 106t33 132l16 109h80l-8 -54q-19 -130 -50 -195.5t-92 -131.5z" />
<glyph unicode="&#x201e;" horiz-adv-x="782" d="M84 -201q43 55 64 104t34 134l15 108h77l-6 -53q-21 -132 -51 -198.5t-90 -129.5zM406 -199q42 54 62.5 103t33.5 135l16 108h80l-8 -53q-21 -132 -51 -198t-90 -129z" />
<glyph unicode="&#x2022;" horiz-adv-x="710" d="M131 367l49 333h328l-49 -333h-328z" />
<glyph unicode="&#x2026;" horiz-adv-x="1449" d="M90 0l27 178h151l-26 -178h-152zM535 0l26 178h154l-27 -178h-153zM981 0l27 178h151l-26 -178h-152z" />
<glyph unicode="&#x202f;" horiz-adv-x="370" />
<glyph unicode="&#x2039;" horiz-adv-x="620" d="M78 356l368 369l37 -66l-288 -299l202 -294l-57 -66z" />
<glyph unicode="&#x203a;" horiz-adv-x="620" d="M37 66l287 294l-201 299l57 66l258 -369l-364 -356z" />
<glyph unicode="&#x205f;" horiz-adv-x="462" />
<glyph unicode="&#x20ac;" horiz-adv-x="1329" d="M76 543l10 75h170l27 183h-170l10 76h170l14 92q29 197 187 320.5t364 123.5q138 0 243.5 -42.5t164.5 -125.5l-62 -57q-53 70 -146.5 109.5t-211.5 39.5q-113 0 -212.5 -44.5t-168 -129.5t-84.5 -194l-14 -92h639l-11 -76h-639l-26 -183h639l-11 -75h-639l-18 -117 q-25 -179 75 -275t286 -96q241 0 401 117l37 -57q-171 -135 -449 -135q-218 0 -336 117.5t-88 328.5l19 117h-170z" />
<glyph unicode="&#x2122;" horiz-adv-x="1153" d="M199 1360l10 76h362l-10 -76h-143l-53 -356h-72l53 356h-147zM592 1004l63 430h72l94 -220l164 220h74l-64 -430h-75l45 305l-136 -185h-43l-75 191l-47 -311h-72z" />
<glyph unicode="&#x25fc;" horiz-adv-x="1044" d="M0 0v1044h1044v-1044h-1044z" />
<glyph unicode="&#xfb03;" horiz-adv-x="1718" d="M104 0l142 969h-142l11 75h141l20 134q20 136 136.5 210t285.5 74q189 0 353 -49q111 49 245 49q159 0 306 -39l-27 -65q-153 28 -287 28q-143 0 -234 -53t-106 -155l-20 -134h246l-11 -75h-245l-142 -969h-74l142 969h-525l-141 -969h-74zM330 1044h524l20 134 q18 113 99 182q-121 26 -283 26q-143 0 -234 -53t-106 -155zM1300 0l152 1044h72l-152 -1044h-72z" />
<glyph unicode="&#xfb04;" horiz-adv-x="1708" d="M104 0l142 969h-142l11 75h141l20 134q20 136 136.5 210t285.5 74q189 0 353 -49q111 49 245 49q148 0 285 -35l-209 -1427h-72l201 1370q-118 16 -213 16q-143 0 -234 -53t-106 -155l-20 -134h246l-11 -75h-245l-142 -969h-74l142 969h-525l-141 -969h-74zM330 1044h524 l20 134q18 113 99 182q-121 26 -283 26q-143 0 -234 -53t-106 -155z" />
</font>
</defs>
</svg>
